<svg width="653" height="70" viewBox="0 0 653 70" fill="none" xmlns="http://www.w3.org/2000/svg">
<path d="M38.026 51.539C43.282 51.7337 47.662 52.342 51.166 53.364C54.7187 54.386 57.517 55.627 59.561 57.087C61.6537 58.547 63.0893 60.0557 63.868 61.613C64.6953 63.1217 64.963 64.4843 64.671 65.701C64.4277 66.9663 63.7707 67.891 62.7 68.475C61.6293 69.059 60.2423 69.132 58.539 68.694C57.4197 67.234 56.0327 65.7253 54.378 64.168C52.7233 62.6107 50.9227 61.102 48.976 59.642C47.0293 58.182 45.0583 56.8193 43.063 55.554C41.1163 54.24 39.267 53.145 37.515 52.269L38.026 51.539ZM39.997 38.399C39.8997 38.8857 39.632 39.3237 39.194 39.713C38.8047 40.0537 38.172 40.2727 37.296 40.37C37.004 42.998 36.5417 45.5287 35.909 47.962C35.2763 50.3467 34.2543 52.5853 32.843 54.678C31.4803 56.7707 29.5093 58.7173 26.93 60.518C24.3507 62.3187 20.9197 63.949 16.637 65.409C12.403 66.9177 7.09833 68.256 0.723 69.424L0.285 68.329C5.20033 66.6743 9.28833 64.9467 12.549 63.146C15.8097 61.394 18.4133 59.569 20.36 57.671C22.3553 55.7243 23.8397 53.6803 24.813 51.539C25.835 49.3977 26.5163 47.159 26.857 44.823C27.2463 42.4383 27.514 39.932 27.66 37.304L39.997 38.399ZM57.882 39.275C57.882 39.275 58.174 39.5183 58.758 40.005C59.3907 40.443 60.145 41.027 61.021 41.757C61.9457 42.4383 62.919 43.1927 63.941 44.02C64.963 44.7987 65.8877 45.553 66.715 46.283C66.6177 46.6723 66.3743 46.9643 65.985 47.159C65.6443 47.3537 65.2063 47.451 64.671 47.451H2.548L1.964 45.334H53.137L57.882 39.275ZM53.575 3.651C53.429 4.089 53.137 4.454 52.699 4.746C52.261 4.98933 51.6283 5.111 50.801 5.111C49.8277 6.08433 48.6597 7.155 47.297 8.323C45.9343 9.44233 44.4987 10.5373 42.99 11.608C41.4813 12.6787 40.0213 13.6763 38.61 14.601H37.588C38.172 13.287 38.7317 11.8513 39.267 10.294C39.851 8.688 40.362 7.082 40.8 5.476C41.2867 3.87 41.7003 2.41 42.041 1.096L53.575 3.651ZM15.396 1.388C18.754 1.68 21.3577 2.28833 23.207 3.213C25.105 4.089 26.419 5.111 27.149 6.279C27.879 7.447 28.171 8.59067 28.025 9.71C27.879 10.7807 27.3923 11.7053 26.565 12.484C25.7863 13.214 24.813 13.6277 23.645 13.725C22.477 13.7737 21.236 13.3113 19.922 12.338C19.776 11.0727 19.4353 9.80733 18.9 8.542C18.4133 7.228 17.805 5.987 17.075 4.819C16.345 3.651 15.5907 2.65333 14.812 1.826L15.396 1.388ZM37.588 13.871V35.041H28.317V13.871H37.588ZM51.823 18.178C51.823 18.178 52.0907 18.3727 52.626 18.762C53.1613 19.1513 53.8427 19.6867 54.67 20.368C55.4973 21.0007 56.3733 21.682 57.298 22.412C58.2227 23.142 59.0743 23.8477 59.853 24.529C59.6583 25.3077 58.977 25.697 57.809 25.697H8.461L7.877 23.58H47.37L51.823 18.178ZM56.276 7.52C56.276 7.52 56.5437 7.739 57.079 8.177C57.663 8.615 58.393 9.17466 59.269 9.856C60.1937 10.5373 61.1427 11.2673 62.116 12.046C63.0893 12.8247 63.9653 13.579 64.744 14.309C64.5493 15.0877 63.868 15.477 62.7 15.477H4.665L4.008 13.36H51.604L56.276 7.52ZM58.539 27.887C58.539 27.887 58.831 28.1303 59.415 28.617C59.999 29.055 60.729 29.639 61.605 30.369C62.5297 31.0503 63.4787 31.8047 64.452 32.632C65.474 33.4107 66.3987 34.165 67.226 34.895C67.1287 35.2843 66.8853 35.5763 66.496 35.771C66.1067 35.9657 65.6443 36.063 65.109 36.063H1.526L0.869 34.019H53.867L58.539 27.887ZM85.914 13.579H91.827L94.455 10.221C94.455 10.221 94.7227 10.4643 95.258 10.951C95.842 11.389 96.5233 11.9487 97.302 12.63C98.0807 13.2627 98.7863 13.871 99.419 14.455C99.2243 15.2337 98.616 15.623 97.594 15.623H85.914V13.579ZM85.695 21.317H91.9L94.674 17.74C94.674 17.74 94.9417 17.9833 95.477 18.47C96.061 18.9567 96.7423 19.5407 97.521 20.222C98.2997 20.9033 99.0053 21.5603 99.638 22.193C99.492 22.9717 98.8837 23.361 97.813 23.361H85.695V21.317ZM79.855 28.763H133.51V30.88H79.855V28.763ZM129.641 28.763H128.838L133.291 24.383L140.956 31.683C140.664 31.975 140.299 32.194 139.861 32.34C139.472 32.4373 138.912 32.486 138.182 32.486C137.257 33.0213 136.162 33.6297 134.897 34.311C133.632 34.9923 132.366 35.6737 131.101 36.355C129.836 36.9877 128.692 37.523 127.67 37.961L127.013 37.523C127.305 36.7443 127.597 35.8197 127.889 34.749C128.23 33.6783 128.546 32.6077 128.838 31.537C129.179 30.4663 129.446 29.5417 129.641 28.763ZM100.733 5.111C103.75 5.257 106.159 5.695 107.96 6.425C109.761 7.10633 111.05 7.93366 111.829 8.907C112.608 9.83166 112.973 10.732 112.924 11.608C112.924 12.4353 112.583 13.068 111.902 13.506C111.221 13.944 110.369 13.9927 109.347 13.652C108.763 12.776 107.936 11.8513 106.865 10.878C105.843 9.90466 104.724 8.98 103.507 8.104C102.29 7.17933 101.147 6.44933 100.076 5.914L100.733 5.111ZM101.025 17.521C104.188 17.7643 106.695 18.324 108.544 19.2C110.442 20.076 111.78 21.0493 112.559 22.12C113.338 23.1907 113.678 24.2127 113.581 25.186C113.484 26.1107 113.07 26.792 112.34 27.23C111.659 27.668 110.758 27.6437 109.639 27.157C109.104 26.135 108.301 25.0643 107.23 23.945C106.208 22.8257 105.089 21.7793 103.872 20.806C102.655 19.784 101.487 18.9323 100.368 18.251L101.025 17.521ZM94.601 0.949998L101.171 5.914C100.782 6.44933 100.027 6.52233 98.908 6.133C97.4967 6.52233 95.5743 6.96033 93.141 7.447C90.7077 7.93366 88.323 8.27433 85.987 8.469L85.549 7.666C86.6197 7.082 87.739 6.37633 88.907 5.549C90.075 4.72166 91.17 3.89433 92.192 3.067C93.214 2.191 94.017 1.48533 94.601 0.949998ZM115.844 13.579H128.254V15.623H116.501L115.844 13.579ZM115.552 21.317H127.889V23.361H116.209L115.552 21.317ZM115.114 5.841H128.473V7.885H115.771L115.114 5.841ZM82.264 4.235L92.338 6.206C92.1433 6.88733 91.316 7.374 89.856 7.666L90.513 29.785H82.994L82.264 4.235ZM122.998 5.841H122.268L125.48 2.045L133.072 7.812C132.829 8.104 132.512 8.34733 132.123 8.542C131.782 8.688 131.247 8.80966 130.517 8.907L129.495 29.858H121.83L122.998 5.841ZM73.942 49.641H126.21L130.736 43.509C130.736 43.509 131.004 43.7523 131.539 44.239C132.123 44.677 132.829 45.261 133.656 45.991C134.532 46.721 135.432 47.4997 136.357 48.327C137.33 49.1057 138.182 49.86 138.912 50.59C138.717 51.3687 138.036 51.758 136.868 51.758H74.526L73.942 49.641ZM102.485 43.874L113.289 44.823C113.24 45.3097 113.021 45.699 112.632 45.991C112.243 46.283 111.634 46.4777 110.807 46.575V59.423C110.807 61.3697 110.564 63.0487 110.077 64.46C109.639 65.8713 108.617 66.9907 107.011 67.818C105.454 68.6453 103.02 69.205 99.711 69.497C99.6137 68.1343 99.4433 66.9663 99.2 65.993C98.9567 65.0197 98.5187 64.1923 97.886 63.511C97.302 62.8297 96.499 62.27 95.477 61.832C94.5037 61.3453 93.068 60.956 91.17 60.664V59.642C91.17 59.642 91.5837 59.6663 92.411 59.715C93.287 59.7637 94.309 59.8367 95.477 59.934C96.6937 59.9827 97.813 60.0313 98.835 60.08C99.9057 60.1287 100.636 60.153 101.025 60.153C101.56 60.153 101.925 60.08 102.12 59.934C102.363 59.7393 102.485 59.423 102.485 58.985V43.874ZM116.136 37.304H115.333L120.005 32.851L127.889 39.859C127.548 40.151 127.159 40.37 126.721 40.516C126.332 40.6133 125.723 40.6863 124.896 40.735C123.387 41.319 121.635 41.976 119.64 42.706C117.693 43.3873 115.674 44.0443 113.581 44.677C111.488 45.3097 109.493 45.8693 107.595 46.356H106.573C107.692 45.5287 108.86 44.5553 110.077 43.436C111.294 42.3167 112.437 41.2217 113.508 40.151C114.579 39.0317 115.455 38.0827 116.136 37.304ZM87.52 37.304H121.027V39.421H88.177L87.52 37.304ZM79.271 24.018H80.22C81.388 26.4027 82.118 28.69 82.41 30.88C82.702 33.0213 82.5317 34.8707 81.899 36.428C81.2663 37.9853 80.0983 39.1533 78.395 39.932C77.0323 40.516 75.8157 40.589 74.745 40.151C73.6743 39.713 72.92 39.0073 72.482 38.034C72.044 37.0607 72.0197 36.0143 72.409 34.895C72.847 33.727 73.8203 32.7537 75.329 31.975C76.351 31.4397 77.2757 30.515 78.103 29.201C78.9303 27.8383 79.3197 26.1107 79.271 24.018ZM108.982 1.461L115.771 4.965C115.43 5.59766 114.603 5.768 113.289 5.476C112.413 6.644 111.221 7.83633 109.712 9.053C108.203 10.221 106.549 11.3403 104.748 12.411C102.947 13.433 101.147 14.309 99.346 15.039L98.616 13.944C100.757 12.338 102.753 10.3913 104.602 8.104C106.5 5.768 107.96 3.55366 108.982 1.461ZM110.004 14.309L116.793 17.594C116.452 18.2753 115.649 18.4457 114.384 18.105C113.362 19.5163 111.999 20.879 110.296 22.193C108.593 23.507 106.719 24.6993 104.675 25.77C102.68 26.792 100.636 27.6193 98.543 28.252L97.886 27.157C100.417 25.6483 102.777 23.7017 104.967 21.317C107.206 18.9323 108.885 16.5963 110.004 14.309ZM189.428 40.297C189.233 43.2657 188.844 46.1613 188.26 48.984C187.725 51.758 186.703 54.386 185.194 56.868C183.734 59.35 181.52 61.6617 178.551 63.803C175.582 65.9443 171.616 67.8667 166.652 69.57L165.922 68.548C169.426 66.504 172.151 64.387 174.098 62.197C176.093 59.9583 177.529 57.671 178.405 55.335C179.281 52.9503 179.841 50.517 180.084 48.035C180.327 45.5043 180.498 42.925 180.595 40.297H189.428ZM200.086 40.443C200.086 40.8323 200.086 41.2703 200.086 41.757C200.086 42.195 200.086 42.5357 200.086 42.779V58.912C200.086 59.35 200.159 59.642 200.305 59.788C200.451 59.934 200.84 60.007 201.473 60.007H203.955C204.49 60.007 204.953 60.007 205.342 60.007C205.78 60.007 206.096 60.007 206.291 60.007C206.826 60.007 207.264 59.7393 207.605 59.204C207.897 58.62 208.286 57.5007 208.773 55.846C209.308 54.1427 209.868 52.2447 210.452 50.152H211.255L211.474 59.569C212.447 60.007 213.056 60.4937 213.299 61.029C213.591 61.5157 213.737 62.1483 213.737 62.927C213.737 63.949 213.396 64.8007 212.715 65.482C212.082 66.212 210.987 66.7473 209.43 67.088C207.873 67.4773 205.756 67.672 203.079 67.672H198.772C196.825 67.672 195.341 67.453 194.319 67.015C193.346 66.6257 192.713 65.92 192.421 64.898C192.129 63.876 191.983 62.5377 191.983 60.883V40.443H200.086ZM198.188 6.644L201.984 2.337L210.014 8.542C209.771 8.834 209.381 9.126 208.846 9.418C208.359 9.71 207.751 9.929 207.021 10.075V43.071C206.972 43.217 206.559 43.4603 205.78 43.801C205.05 44.1417 204.174 44.458 203.152 44.75C202.13 45.042 201.157 45.188 200.232 45.188H198.918V6.644H198.188ZM182.493 43.29C182.493 43.582 182.152 43.947 181.471 44.385C180.838 44.823 179.987 45.2123 178.916 45.553C177.894 45.8937 176.799 46.064 175.631 46.064H174.317V6.644V3.14L182.931 6.644H203.955V8.688H182.493V43.29ZM203.298 39.859V41.976H177.675V39.859H203.298ZM203.152 28.398V30.515H177.529V28.398H203.152ZM203.152 17.74V19.857H177.529V17.74H203.152ZM153.147 1.315C156.262 1.85033 158.646 2.629 160.301 3.651C161.956 4.62433 163.051 5.67066 163.586 6.79C164.17 7.90933 164.316 8.98 164.024 10.002C163.781 10.9753 163.245 11.754 162.418 12.338C161.591 12.922 160.593 13.1897 159.425 13.141C158.306 13.0923 157.186 12.557 156.067 11.535C156.018 10.367 155.824 9.199 155.483 8.031C155.142 6.81433 154.704 5.67066 154.169 4.6C153.634 3.48067 153.098 2.50733 152.563 1.68L153.147 1.315ZM163.878 66.723C163.878 66.869 163.61 67.161 163.075 67.599C162.54 68.037 161.785 68.4263 160.812 68.767C159.839 69.1563 158.695 69.351 157.381 69.351H155.848V35.844L163.878 29.201V66.723ZM162.418 31.026C165.387 31.8533 167.698 32.8267 169.353 33.946C171.056 35.0167 172.249 36.1603 172.93 37.377C173.611 38.545 173.903 39.6643 173.806 40.735C173.709 41.757 173.344 42.6087 172.711 43.29C172.127 43.9227 171.348 44.2633 170.375 44.312C169.402 44.3607 168.404 43.9713 167.382 43.144C167.139 41.83 166.701 40.4673 166.068 39.056C165.484 37.6447 164.803 36.282 164.024 34.968C163.245 33.654 162.491 32.486 161.761 31.464L162.418 31.026ZM160.958 16.426L165.484 11.973L173.076 19.273C172.735 19.565 172.322 19.784 171.835 19.93C171.397 20.076 170.74 20.1977 169.864 20.295C168.404 23.653 166.482 27.084 164.097 30.588C161.712 34.092 158.963 37.4013 155.848 40.516C152.733 43.6307 149.4 46.3073 145.847 48.546L145.117 47.889C147.112 45.699 148.986 43.29 150.738 40.662C152.539 38.034 154.169 35.333 155.629 32.559C157.138 29.785 158.427 27.011 159.498 24.237C160.569 21.463 161.372 18.8593 161.907 16.426H160.958ZM167.236 16.426V18.47H146.577L145.92 16.426H167.236ZM219.577 43.071H243.74L247.828 37.45C247.828 37.45 248.071 37.669 248.558 38.107C249.045 38.4963 249.677 39.0317 250.456 39.713C251.235 40.3943 252.038 41.1243 252.865 41.903C253.741 42.633 254.495 43.3387 255.128 44.02C254.982 44.7987 254.325 45.188 253.157 45.188H220.161L219.577 43.071ZM217.825 57.525C219.431 57.3303 221.548 57.0383 224.176 56.649C226.804 56.2597 229.773 55.7973 233.082 55.262C236.44 54.7267 240.017 54.1427 243.813 53.51C247.658 52.8287 251.527 52.1473 255.42 51.466L255.639 52.415C252.33 54.021 248.144 55.919 243.083 58.109C238.022 60.2503 231.792 62.708 224.395 65.482C224.2 65.9687 223.933 66.358 223.592 66.65C223.251 66.9907 222.838 67.2097 222.351 67.307L217.825 57.525ZM220.307 6.936V3.797L227.972 6.936H249.215V8.98H227.534V36.063C227.534 36.3063 227.242 36.6227 226.658 37.012C226.074 37.3527 225.32 37.6933 224.395 38.034C223.47 38.326 222.497 38.472 221.475 38.472H220.307V6.936ZM244.689 6.936H243.959L247.828 2.702L255.858 8.834C255.663 9.126 255.298 9.418 254.763 9.71C254.276 10.002 253.644 10.221 252.865 10.367V33.435C252.865 33.6783 252.476 34.019 251.697 34.457C250.967 34.8463 250.091 35.2357 249.069 35.625C248.047 35.9657 247.049 36.136 246.076 36.136H244.689V6.936ZM224.541 19.054H249.288V21.098H224.541V19.054ZM224.541 31.026H249.288V33.07H224.541V31.026ZM257.902 13.944C261.601 14.1387 264.618 14.6983 266.954 15.623C269.29 16.5477 271.018 17.6427 272.137 18.908C273.305 20.1247 273.986 21.3657 274.181 22.631C274.424 23.8963 274.278 25.0157 273.743 25.989C273.208 26.9137 272.405 27.522 271.334 27.814C270.312 28.0573 269.095 27.8383 267.684 27.157C267.149 25.5997 266.321 24.0423 265.202 22.485C264.083 20.879 262.817 19.3947 261.406 18.032C260.043 16.6207 258.681 15.4527 257.318 14.528L257.902 13.944ZM254.69 6.936H279.072V8.98H255.347L254.69 6.936ZM251.405 28.836H280.678V30.953H252.062L251.405 28.836ZM263.158 29.566H271.553V58.547C271.553 60.4937 271.285 62.2213 270.75 63.73C270.263 65.2873 269.217 66.5527 267.611 67.526C266.005 68.4993 263.572 69.132 260.311 69.424C260.262 68.0127 260.092 66.7473 259.8 65.628C259.557 64.5573 259.143 63.7057 258.559 63.073C257.975 62.3917 257.172 61.8077 256.15 61.321C255.128 60.8343 253.595 60.4207 251.551 60.08V59.131C251.551 59.131 251.965 59.1797 252.792 59.277C253.668 59.3257 254.69 59.3743 255.858 59.423C257.075 59.4717 258.218 59.5203 259.289 59.569C260.36 59.6177 261.114 59.642 261.552 59.642C262.136 59.642 262.55 59.5447 262.793 59.35C263.036 59.1067 263.158 58.766 263.158 58.328V29.566ZM277.174 28.836H276.298L280.678 24.456L288.343 31.756C288.051 32.048 287.686 32.2427 287.248 32.34C286.81 32.4373 286.226 32.5347 285.496 32.632C284.669 33.8 283.647 35.0897 282.43 36.501C281.213 37.9123 279.948 39.275 278.634 40.589C277.369 41.903 276.128 43.071 274.911 44.093L274.181 43.582C274.57 42.1707 274.96 40.5647 275.349 38.764C275.738 36.9633 276.103 35.187 276.444 33.435C276.785 31.683 277.028 30.15 277.174 28.836ZM274.984 6.936H274.108L278.853 2.337L286.737 9.929C286.25 10.4157 285.253 10.7077 283.744 10.805C282.43 11.827 280.8 12.922 278.853 14.09C276.955 15.258 274.984 16.353 272.94 17.375C270.896 18.397 268.974 19.273 267.173 20.003L266.589 19.492C267.562 18.3727 268.584 17.0587 269.655 15.55C270.726 13.9927 271.748 12.4597 272.721 10.951C273.694 9.44233 274.449 8.104 274.984 6.936ZM232.206 6.936H239.944V56.503L232.206 58.401V6.936ZM302.213 63.949C302.213 64.241 301.921 64.606 301.337 65.044C300.753 65.5307 299.95 65.9443 298.928 66.285C297.955 66.6257 296.884 66.796 295.716 66.796H294.402V15.039V11.608L302.505 15.039H315.718V17.156H302.213V63.949ZM316.375 4.089C316.034 5.257 315.037 5.841 313.382 5.841C312.652 6.863 311.776 8.031 310.754 9.345C309.781 10.6103 308.783 11.8757 307.761 13.141C306.788 14.4063 305.887 15.5257 305.06 16.499H302.724C302.919 15.2337 303.113 13.725 303.308 11.973C303.551 10.1723 303.77 8.323 303.965 6.425C304.208 4.527 304.379 2.79933 304.476 1.242L316.375 4.089ZM347.619 14.82L352.218 10.075L359.956 16.937C359.664 17.2777 359.275 17.5697 358.788 17.813C358.301 18.0563 357.62 18.2267 356.744 18.324C356.598 25.6727 356.428 32.0723 356.233 37.523C356.038 42.925 355.722 47.524 355.284 51.32C354.895 55.0673 354.359 58.0847 353.678 60.372C353.045 62.6593 352.218 64.3627 351.196 65.482C349.931 66.8447 348.446 67.818 346.743 68.402C345.088 69.0347 343.044 69.351 340.611 69.351C340.611 67.9883 340.489 66.796 340.246 65.774C340.051 64.752 339.638 63.9247 339.005 63.292C338.372 62.6107 337.375 62.0023 336.012 61.467C334.649 60.883 333.092 60.4207 331.34 60.08L331.413 59.058C332.581 59.1553 333.846 59.277 335.209 59.423C336.572 59.5203 337.837 59.5933 339.005 59.642C340.222 59.6907 341.146 59.715 341.779 59.715C342.46 59.715 342.996 59.6663 343.385 59.569C343.774 59.423 344.139 59.1553 344.48 58.766C345.453 57.89 346.183 55.6513 346.67 52.05C347.157 48.4487 347.522 43.5333 347.765 37.304C348.057 31.026 348.276 23.5313 348.422 14.82H347.619ZM312.579 15.039L316.521 10.732L324.405 16.937C324.162 17.2777 323.772 17.5697 323.237 17.813C322.75 18.0563 322.142 18.2753 321.412 18.47V61.978C321.412 62.124 321.023 62.3917 320.244 62.781C319.514 63.1703 318.638 63.511 317.616 63.803C316.594 64.1437 315.596 64.314 314.623 64.314H313.309V15.039H312.579ZM327.836 29.712C331.389 30.734 334.163 31.9993 336.158 33.508C338.202 34.968 339.613 36.4767 340.392 38.034C341.219 39.5427 341.56 40.954 341.414 42.268C341.317 43.582 340.879 44.6527 340.1 45.48C339.321 46.3073 338.324 46.7453 337.107 46.794C335.939 46.8427 334.698 46.3317 333.384 45.261C333.287 43.509 332.922 41.7327 332.289 39.932C331.705 38.1313 330.951 36.4037 330.026 34.749C329.15 33.0457 328.201 31.5127 327.179 30.15L327.836 29.712ZM353.094 14.82V16.937H330.61L331.486 14.82H353.094ZM342.947 4.527C342.801 4.965 342.485 5.33 341.998 5.622C341.56 5.914 340.927 6.03566 340.1 5.987C337.959 11.535 335.404 16.5477 332.435 21.025C329.466 25.5023 326.157 29.274 322.507 32.34L321.631 31.756C322.994 29.2253 324.283 26.3053 325.5 22.996C326.765 19.638 327.909 16.0853 328.931 12.338C330.002 8.59067 330.853 4.86766 331.486 1.169L342.947 4.527ZM317.105 35.26V37.377H298.563V35.26H317.105ZM317.105 56.576V58.62H298.563V56.576H317.105ZM415.217 9.126L418.867 5.111L426.678 11.024C426.483 11.2673 426.118 11.535 425.583 11.827C425.048 12.119 424.439 12.338 423.758 12.484V30.661C423.758 30.8557 423.393 31.1233 422.663 31.464C421.933 31.756 421.057 32.0237 420.035 32.267C419.062 32.5103 418.113 32.632 417.188 32.632H415.947V9.126H415.217ZM412.078 2.118C412.029 2.65333 411.81 3.11566 411.421 3.505C411.08 3.84566 410.423 4.089 409.45 4.235V56.211C409.45 56.4543 409.109 56.7463 408.428 57.087C407.795 57.4277 406.968 57.744 405.946 58.036C404.973 58.2793 403.951 58.401 402.88 58.401H401.274V1.096L412.078 2.118ZM420.473 32.194C420.473 32.194 420.716 32.413 421.203 32.851C421.738 33.2403 422.395 33.7513 423.174 34.384C423.953 35.0167 424.756 35.698 425.583 36.428C426.459 37.158 427.262 37.8637 427.992 38.545C427.797 39.3237 427.14 39.713 426.021 39.713H389.74L389.156 37.596H416.385L420.473 32.194ZM422.736 41.465C422.736 41.465 423.028 41.684 423.612 42.122C424.196 42.56 424.926 43.144 425.802 43.874C426.678 44.5553 427.603 45.2853 428.576 46.064C429.549 46.794 430.425 47.524 431.204 48.254C431.107 48.6433 430.863 48.9353 430.474 49.13C430.133 49.3247 429.695 49.422 429.16 49.422H386.382L385.798 47.305H418.137L422.736 41.465ZM427.773 12.922C427.773 12.922 428.138 13.3113 428.868 14.09C429.598 14.82 430.45 15.696 431.423 16.718C432.396 17.6913 433.224 18.5917 433.905 19.419C433.71 20.1977 433.053 20.587 431.934 20.587H385.214L384.63 18.543H424.342L427.773 12.922ZM419.232 28.033V30.15H390.543L389.886 28.033H419.232ZM419.451 9.126V11.243H389.886L389.229 9.126H419.451ZM385.36 11.243C384.825 12.4597 384.143 13.9683 383.316 15.769C382.489 17.5697 381.588 19.492 380.615 21.536C379.642 23.58 378.693 25.551 377.768 27.449C376.892 29.2983 376.113 30.88 375.432 32.194H375.87L373.315 34.822L366.088 30.223C366.623 29.785 367.305 29.3713 368.132 28.982C369.008 28.544 369.787 28.252 370.468 28.106L367.767 30.369C368.497 29.1037 369.349 27.4977 370.322 25.551C371.295 23.6043 372.269 21.5847 373.242 19.492C374.215 17.3507 375.116 15.3067 375.943 13.36C376.77 11.4133 377.403 9.80733 377.841 8.542L385.36 11.243ZM376.965 8.542L380.615 4.819L387.915 11.389C387.477 11.8757 386.747 12.2163 385.725 12.411C384.752 12.6057 383.632 12.6787 382.367 12.63C381.15 12.5813 379.958 12.484 378.79 12.338L377.841 8.542H376.965ZM367.621 36.063C369.47 41.173 371.733 45.2853 374.41 48.4C377.135 51.466 380.396 53.802 384.192 55.408C387.988 57.014 392.465 58.109 397.624 58.693C402.831 59.2283 408.817 59.496 415.582 59.496C416.507 59.496 417.699 59.496 419.159 59.496C420.619 59.496 422.176 59.496 423.831 59.496C425.486 59.496 427.092 59.496 428.649 59.496C430.206 59.4473 431.569 59.423 432.737 59.423V60.299C431.082 60.6397 429.817 61.4913 428.941 62.854C428.114 64.168 427.651 65.6767 427.554 67.38C426.581 67.38 425.291 67.38 423.685 67.38C422.079 67.38 420.473 67.38 418.867 67.38C417.261 67.38 415.947 67.38 414.925 67.38C407.917 67.38 401.761 66.9663 396.456 66.139C391.2 65.3603 386.674 63.876 382.878 61.686C379.082 59.496 375.87 56.3813 373.242 52.342C370.663 48.3027 368.521 43.0223 366.818 36.501L367.621 36.063ZM379.666 30.077L383.608 25.916L390.908 32.121C390.519 32.7537 389.618 33.143 388.207 33.289C387.672 36.939 386.893 40.516 385.871 44.02C384.898 47.524 383.511 50.8577 381.71 54.021C379.909 57.1357 377.573 60.007 374.702 62.635C371.879 65.2143 368.375 67.5017 364.19 69.497L363.679 68.548C367.718 65.5307 370.882 62.0023 373.169 57.963C375.456 53.9237 377.135 49.5193 378.206 44.75C379.325 39.9807 380.055 35.0897 380.396 30.077H379.666ZM384.192 30.077V32.194H370.614L371.636 30.077H384.192ZM381.564 8.542V10.586H364.92L364.263 8.542H381.564ZM465.222 56.43C465.027 56.7707 464.711 57.014 464.273 57.16C463.884 57.306 463.3 57.2817 462.521 57.087C460.672 58.5957 458.457 60.0313 455.878 61.394C453.299 62.7567 450.476 63.9733 447.41 65.044C444.344 66.1633 441.205 67.0393 437.993 67.672L437.409 66.796C439.988 65.482 442.446 63.9003 444.782 62.051C447.167 60.2017 449.308 58.2793 451.206 56.284C453.153 54.24 454.686 52.3177 455.805 50.517L465.222 56.43ZM479.238 52.488C483.715 52.4393 487.438 52.8043 490.407 53.583C493.424 54.3617 495.785 55.3837 497.488 56.649C499.191 57.8657 500.335 59.1553 500.919 60.518C501.552 61.8807 501.698 63.1217 501.357 64.241C501.065 65.3603 500.408 66.1633 499.386 66.65C498.364 67.1853 497.074 67.234 495.517 66.796C494.641 65.628 493.546 64.387 492.232 63.073C490.967 61.8077 489.555 60.5667 487.998 59.35C486.441 58.0847 484.859 56.941 483.253 55.919C481.696 54.8483 480.187 53.948 478.727 53.218L479.238 52.488ZM482.158 26.208C482.158 27.4247 481.939 28.7873 481.501 30.296C481.112 31.756 480.26 33.2403 478.946 34.749C477.681 36.2577 475.734 37.669 473.106 38.983C470.527 40.297 467.047 41.4163 462.667 42.341L462.156 41.465C465.806 39.9563 468.531 38.326 470.332 36.574C472.133 34.822 473.301 33.07 473.836 31.318C474.42 29.5173 474.712 27.814 474.712 26.208V21.828H482.158V26.208ZM493.838 21.025V23.142H469.383L468.726 21.025H493.838ZM488.509 21.025L491.94 17.302L498.364 22.704C497.926 23.1907 497.147 23.5313 496.028 23.726V32.997C496.028 33.3377 496.077 33.581 496.174 33.727C496.271 33.8243 496.49 33.873 496.831 33.873H498.218C498.51 33.873 498.753 33.873 498.948 33.873C499.143 33.873 499.313 33.873 499.459 33.873C499.654 33.873 499.848 33.8487 500.043 33.8C500.238 33.7513 500.408 33.6297 500.554 33.435C500.797 33.0943 501.114 32.4617 501.503 31.537C501.892 30.5637 502.257 29.493 502.598 28.325H503.474L503.693 33.508C504.52 33.8487 505.056 34.238 505.299 34.676C505.542 35.114 505.664 35.6493 505.664 36.282C505.664 37.596 505.007 38.6423 503.693 39.421C502.428 40.151 500.335 40.516 497.415 40.516H494.495C492.938 40.516 491.77 40.3457 490.991 40.005C490.212 39.6643 489.701 39.0803 489.458 38.253C489.263 37.377 489.166 36.2333 489.166 34.822V21.025H488.509ZM467.85 28.617C471.403 28.325 474.396 28.3737 476.829 28.763C479.311 29.1523 481.282 29.785 482.742 30.661C484.251 31.4883 485.321 32.413 485.954 33.435C486.635 34.4083 486.927 35.3573 486.83 36.282C486.781 37.158 486.416 37.8393 485.735 38.326C485.054 38.8127 484.129 38.983 482.961 38.837C481.89 37.669 480.455 36.501 478.654 35.333C476.902 34.1163 475.004 32.997 472.96 31.975C470.965 30.9043 469.091 30.077 467.339 29.493L467.85 28.617ZM478.654 42.779C478.605 43.2657 478.386 43.7037 477.997 44.093C477.656 44.4337 476.975 44.6527 475.953 44.75V67.307C475.953 67.5017 475.564 67.7693 474.785 68.11C474.055 68.4507 473.13 68.7427 472.011 68.986C470.892 69.2293 469.724 69.351 468.507 69.351H466.901V41.684L478.654 42.779ZM496.612 41.392C496.612 41.392 496.904 41.6353 497.488 42.122C498.072 42.6087 498.802 43.217 499.678 43.947C500.554 44.6283 501.479 45.407 502.452 46.283C503.474 47.1103 504.374 47.889 505.153 48.619C504.958 49.3977 504.277 49.787 503.109 49.787H440.329L439.745 47.67H491.94L496.612 41.392ZM440.329 37.085C442.032 36.9877 444.368 36.7687 447.337 36.428C450.354 36.0873 453.737 35.698 457.484 35.26C461.28 34.7733 465.173 34.2623 469.164 33.727L469.31 34.749C466.731 35.8683 463.519 37.1823 459.674 38.691C455.878 40.151 451.303 41.83 445.95 43.728C445.512 44.7013 444.855 45.2853 443.979 45.48L440.329 37.085ZM458.433 21.536V36.647L450.695 38.545V21.536H458.433ZM461.791 16.864C461.791 16.864 462.156 17.156 462.886 17.74C463.616 18.324 464.492 19.054 465.514 19.93C466.585 20.7573 467.534 21.5603 468.361 22.339C468.166 23.1177 467.509 23.507 466.39 23.507H442.519L441.935 21.463H458.141L461.791 16.864ZM497.269 2.775C497.269 2.775 497.683 3.11566 498.51 3.797C499.337 4.42966 500.335 5.20833 501.503 6.133C502.671 7.05766 503.717 7.958 504.642 8.834C504.447 9.61267 503.79 10.002 502.671 10.002H477.997V7.885H493.254L497.269 2.775ZM466.682 2.994C466.682 2.994 467.071 3.31033 467.85 3.943C468.629 4.57566 469.529 5.35433 470.551 6.279C471.573 7.155 472.498 8.00666 473.325 8.834C473.13 9.61267 472.498 10.002 471.427 10.002H450.987V7.885H463.032L466.682 2.994ZM483.107 11.535C485.54 11.4377 487.414 11.6323 488.728 12.119C490.091 12.6057 491.015 13.214 491.502 13.944C491.989 14.6253 492.135 15.331 491.94 16.061C491.794 16.791 491.38 17.4237 490.699 17.959C490.066 18.4457 489.288 18.7133 488.363 18.762C487.487 18.8107 486.562 18.47 485.589 17.74C485.492 16.6693 485.127 15.5987 484.494 14.528C483.91 13.4087 483.253 12.557 482.523 11.973L483.107 11.535ZM487.122 4.162C486.927 4.6 486.587 4.965 486.1 5.257C485.662 5.50033 485.029 5.59766 484.202 5.549C482.304 8.615 480.114 11.316 477.632 13.652C475.199 15.9393 472.619 17.7887 469.894 19.2L469.018 18.616C470.478 16.3773 471.865 13.652 473.179 10.44C474.542 7.17933 475.612 3.82133 476.391 0.365997L487.122 4.162ZM454.929 11.243C457.362 10.9997 459.285 11.0727 460.696 11.462C462.107 11.8513 463.105 12.411 463.689 13.141C464.273 13.871 464.541 14.6253 464.492 15.404C464.443 16.1827 464.151 16.8883 463.616 17.521C463.081 18.105 462.375 18.47 461.499 18.616C460.623 18.762 459.674 18.5673 458.652 18.032C458.36 16.8153 457.776 15.623 456.9 14.455C456.073 13.287 455.221 12.3867 454.345 11.754L454.929 11.243ZM459.163 4.089C459.017 4.527 458.701 4.892 458.214 5.184C457.727 5.42733 457.07 5.52466 456.243 5.476C453.858 9.17466 451.109 12.265 447.994 14.747C444.879 17.229 441.692 19.1757 438.431 20.587L437.701 19.857C439.745 17.667 441.716 14.8443 443.614 11.389C445.561 7.93366 447.094 4.25933 448.213 0.365997L459.163 4.089ZM568.882 26.427C568.882 26.427 569.125 26.646 569.612 27.084C570.147 27.4733 570.78 28.0087 571.51 28.69C572.289 29.3227 573.092 30.004 573.919 30.734C574.746 31.464 575.501 32.1697 576.182 32.851C575.987 33.6297 575.33 34.019 574.211 34.019H551.07L550.486 31.902H564.794L568.882 26.427ZM567.787 4.673C567.787 4.673 568.03 4.892 568.517 5.33C569.004 5.71933 569.612 6.25466 570.342 6.936C571.121 7.56866 571.924 8.25 572.751 8.98C573.627 9.71 574.406 10.4157 575.087 11.097C574.892 11.8757 574.235 12.265 573.116 12.265H551.143L550.559 10.148H563.699L567.787 4.673ZM515.738 20.514V18.032L524.206 21.244H523.038V30.369C523.038 31.8777 522.892 33.4593 522.6 35.114C522.357 36.7687 521.846 38.4233 521.067 40.078C520.288 41.7327 519.096 43.3143 517.49 44.823C515.884 46.283 513.743 47.597 511.066 48.765L510.482 47.962C512.137 46.3073 513.329 44.531 514.059 42.633C514.789 40.6863 515.251 38.6667 515.446 36.574C515.641 34.4813 515.738 32.4373 515.738 30.442V21.244V20.514ZM520.483 34.895C521.992 34.749 523.792 34.53 525.885 34.238C528.026 33.8973 530.216 33.4837 532.455 32.997C534.742 32.4617 536.932 31.8777 539.025 31.245L539.244 32.194C537.541 33.4107 535.521 34.749 533.185 36.209C530.898 37.669 528.294 39.1533 525.374 40.662C525.082 41.5867 524.522 42.195 523.695 42.487L520.483 34.895ZM521.067 27.011C523.354 25.9403 525.35 25.332 527.053 25.186C528.756 25.04 530.168 25.2103 531.287 25.697C532.406 26.135 533.234 26.7433 533.769 27.522C534.304 28.3007 534.572 29.1037 534.572 29.931C534.572 30.7097 534.304 31.3423 533.769 31.829C533.234 32.267 532.406 32.4373 531.287 32.34C530.119 31.4153 528.659 30.5637 526.907 29.785C525.155 29.0063 523.16 28.471 520.921 28.179L521.067 27.011ZM540.777 21.244V23.288H518.074L517.417 21.244H540.777ZM536.105 4.892C535.91 5.37866 535.472 5.74367 534.791 5.987C534.158 6.23033 533.209 6.15733 531.944 5.768L534.499 5.33C533.088 6.352 531.311 7.39833 529.17 8.469C527.029 9.53966 524.766 10.5373 522.381 11.462C520.045 12.338 517.879 13.0437 515.884 13.579V12.849H519.68C519.534 15.0877 519.12 16.8397 518.439 18.105C517.806 19.3703 517.052 20.1733 516.176 20.514L512.599 11.827C512.599 11.827 512.842 11.7783 513.329 11.681C513.864 11.535 514.302 11.389 514.643 11.243C515.957 10.7077 517.32 9.80733 518.731 8.542C520.191 7.27666 521.529 5.93833 522.746 4.527C523.963 3.067 524.814 1.85033 525.301 0.876999L536.105 4.892ZM513.694 12.63C515.397 12.6787 517.709 12.703 520.629 12.703C523.598 12.703 526.907 12.6787 530.557 12.63C534.256 12.5327 538.052 12.4353 541.945 12.338V13.433C539.317 14.163 535.764 15.0877 531.287 16.207C526.858 17.2777 521.919 18.3727 516.468 19.492L513.694 12.63ZM557.932 25.624C557.786 26.646 557.032 27.2543 555.669 27.449V39.056C555.669 39.494 555.791 39.8103 556.034 40.005C556.326 40.151 556.959 40.224 557.932 40.224H563.699C564.721 40.224 565.694 40.224 566.619 40.224C567.544 40.224 568.225 40.1997 568.663 40.151C569.49 40.151 570.099 39.9563 570.488 39.567C570.829 39.2263 571.218 38.6667 571.656 37.888C572.143 37.0607 572.605 36.1117 573.043 35.041H573.846L574.065 39.567C575.136 40.005 575.866 40.443 576.255 40.881C576.644 41.319 576.839 41.8787 576.839 42.56C576.839 43.6307 576.425 44.4823 575.598 45.115C574.819 45.699 573.408 46.1127 571.364 46.356C569.32 46.5993 566.473 46.721 562.823 46.721H555.961C553.674 46.721 551.946 46.5507 550.778 46.21C549.61 45.8207 548.831 45.1637 548.442 44.239C548.053 43.3143 547.858 42.049 547.858 40.443V24.821L557.932 25.624ZM535.375 21.244L538.733 17.375L546.398 23.142C546.203 23.3853 545.838 23.653 545.303 23.945C544.816 24.237 544.184 24.456 543.405 24.602V40.078C543.405 41.538 543.186 42.8033 542.748 43.874C542.359 44.896 541.556 45.7233 540.339 46.356C539.122 46.94 537.224 47.3537 534.645 47.597C534.596 46.6723 534.499 45.8693 534.353 45.188C534.256 44.458 534.012 43.874 533.623 43.436C533.234 43.0467 532.723 42.6817 532.09 42.341C531.457 42.0003 530.508 41.7327 529.243 41.538V40.589C529.243 40.589 529.462 40.6133 529.9 40.662C530.387 40.662 530.946 40.6863 531.579 40.735C532.26 40.735 532.893 40.7593 533.477 40.808C534.11 40.808 534.572 40.808 534.864 40.808C535.351 40.808 535.667 40.7107 535.813 40.516C536.008 40.2727 536.105 39.9807 536.105 39.64V21.244H535.375ZM557.567 2.191C557.47 3.213 556.74 3.84566 555.377 4.089V16.937C555.377 17.375 555.499 17.6913 555.742 17.886C556.034 18.0807 556.642 18.178 557.567 18.178H563.188C564.21 18.178 565.159 18.178 566.035 18.178C566.96 18.1293 567.641 18.105 568.079 18.105C568.42 18.0563 568.785 18.032 569.174 18.032C569.563 17.9833 569.855 17.9347 570.05 17.886C570.342 17.886 570.683 17.8617 571.072 17.813C571.461 17.7157 571.802 17.6183 572.094 17.521H572.824L573.116 17.594C574.187 18.032 574.941 18.4457 575.379 18.835C575.817 19.2243 576.036 19.7353 576.036 20.368C576.036 21.39 575.622 22.1687 574.795 22.704C574.016 23.2393 572.629 23.6043 570.634 23.799C568.687 23.9937 565.913 24.091 562.312 24.091H555.742C553.503 24.091 551.8 23.9207 550.632 23.58C549.513 23.1907 548.758 22.558 548.369 21.682C547.98 20.7573 547.785 19.5407 547.785 18.032V1.388L557.567 2.191ZM534.28 7.082C537.297 7.374 539.682 7.958 541.434 8.834C543.186 9.71 544.451 10.7077 545.23 11.827C546.009 12.8977 546.374 13.944 546.325 14.966C546.276 15.988 545.96 16.864 545.376 17.594C544.792 18.2753 544.013 18.689 543.04 18.835C542.067 18.9323 540.996 18.616 539.828 17.886C539.633 16.6207 539.195 15.3553 538.514 14.09C537.881 12.776 537.127 11.5593 536.251 10.44C535.424 9.32066 534.548 8.37166 533.623 7.593L534.28 7.082ZM538.149 48.838C538.1 49.3247 537.881 49.7383 537.492 50.079C537.151 50.4197 536.592 50.6387 535.813 50.736V60.153C535.813 60.6397 535.983 60.9803 536.324 61.175C536.665 61.321 537.516 61.394 538.879 61.394H548.077C549.586 61.394 550.997 61.394 552.311 61.394C553.674 61.394 554.671 61.3697 555.304 61.321C555.937 61.2723 556.399 61.175 556.691 61.029C556.983 60.883 557.251 60.6397 557.494 60.299C557.981 59.715 558.492 58.766 559.027 57.452C559.611 56.138 560.292 54.459 561.071 52.415H561.801L562.02 60.518C563.334 60.956 564.186 61.4183 564.575 61.905C565.013 62.3917 565.232 63 565.232 63.73C565.232 64.6547 564.964 65.3847 564.429 65.92C563.942 66.504 563.018 66.942 561.655 67.234C560.341 67.526 558.492 67.7207 556.107 67.818C553.771 67.9153 550.778 67.964 547.128 67.964H537.492C534.718 67.964 532.601 67.7693 531.141 67.38C529.681 67.0393 528.659 66.3823 528.075 65.409C527.54 64.4843 527.272 63.1217 527.272 61.321V48.035L538.149 48.838ZM521.578 48.546C522.551 51.32 522.941 53.802 522.746 55.992C522.551 58.182 521.992 60.007 521.067 61.467C520.191 62.927 519.145 63.949 517.928 64.533C516.711 65.1657 515.422 65.3117 514.059 64.971C512.745 64.6303 511.869 63.8273 511.431 62.562C511.139 61.2967 511.309 60.226 511.942 59.35C512.575 58.4253 513.451 57.7197 514.57 57.233C515.495 56.795 516.395 56.1623 517.271 55.335C518.196 54.459 518.95 53.4613 519.534 52.342C520.167 51.174 520.507 49.9087 520.556 48.546H521.578ZM563.407 49.349C566.814 49.933 569.539 50.7847 571.583 51.904C573.627 53.0233 575.111 54.2643 576.036 55.627C576.961 56.9897 577.423 58.3037 577.423 59.569C577.423 60.7857 577.082 61.8077 576.401 62.635C575.72 63.4623 574.819 63.949 573.7 64.095C572.629 64.2897 571.461 63.9247 570.196 63C570.001 61.4427 569.515 59.861 568.736 58.255C568.006 56.6003 567.106 55.043 566.035 53.583C564.964 52.123 563.869 50.882 562.75 49.86L563.407 49.349ZM541.361 46.721C544.476 47.0617 546.933 47.6457 548.734 48.473C550.535 49.3003 551.824 50.2493 552.603 51.32C553.382 52.3907 553.771 53.437 553.771 54.459C553.771 55.481 553.455 56.357 552.822 57.087C552.238 57.7683 551.435 58.182 550.413 58.328C549.44 58.4253 548.393 58.0847 547.274 57.306C546.982 56.0893 546.495 54.8727 545.814 53.656C545.133 52.3907 544.33 51.1983 543.405 50.079C542.529 48.9597 541.629 48.0107 540.704 47.232L541.361 46.721ZM612.682 0.657998C615.991 0.560663 618.619 0.852662 620.566 1.534C622.513 2.21533 623.924 3.09133 624.8 4.162C625.676 5.184 626.065 6.25466 625.968 7.374C625.919 8.44467 625.53 9.39366 624.8 10.221C624.119 10.9997 623.194 11.4863 622.026 11.681C620.858 11.827 619.593 11.5107 618.23 10.732C617.792 8.98 616.965 7.228 615.748 5.476C614.58 3.67533 613.363 2.191 612.098 1.023L612.682 0.657998ZM590.125 10.513V7.666L600.053 11.243H598.739V30.15C598.739 33.2647 598.593 36.574 598.301 40.078C598.058 43.582 597.449 47.1103 596.476 50.663C595.551 54.167 594.067 57.5493 592.023 60.81C590.028 64.022 587.302 66.942 583.847 69.57L583.044 69.059C585.283 65.263 586.889 61.1993 587.862 56.868C588.835 52.5367 589.444 48.108 589.687 43.582C589.979 39.0073 590.125 34.53 590.125 30.15V11.243V10.513ZM643.634 5.111C643.634 5.111 643.902 5.35433 644.437 5.841C645.021 6.279 645.727 6.863 646.554 7.593C647.43 8.27433 648.33 9.02866 649.255 9.856C650.18 10.6347 651.007 11.389 651.737 12.119C651.591 12.8977 650.934 13.287 649.766 13.287H593.848V11.243H639.108L643.634 5.111ZM635.677 42.706V44.823H602.973L602.316 42.706H635.677ZM631.078 42.706L636.115 38.326L643.561 45.261C643.269 45.6503 642.904 45.918 642.466 46.064C642.028 46.1613 641.322 46.2587 640.349 46.356C635.726 53.2667 629.302 58.5957 621.077 62.343C612.901 66.0903 603.095 68.475 591.658 69.497L591.293 68.475C597.814 67.0637 603.752 65.19 609.105 62.854C614.458 60.518 619.082 57.671 622.975 54.313C626.917 50.955 629.934 47.086 632.027 42.706H631.078ZM608.448 42.706C610.2 46.0153 612.56 48.765 615.529 50.955C618.546 53.0963 621.977 54.8483 625.822 56.211C629.715 57.525 633.901 58.4983 638.378 59.131C642.904 59.7637 647.576 60.2017 652.394 60.445V61.248C650.593 61.7833 649.133 62.7567 648.014 64.168C646.943 65.5793 646.189 67.3313 645.751 69.424C639.522 68.402 633.901 66.9177 628.888 64.971C623.924 63.0243 619.641 60.3233 616.04 56.868C612.439 53.4127 609.592 48.911 607.499 43.363L608.448 42.706ZM643.05 17.229C643.05 17.229 643.439 17.6183 644.218 18.397C644.997 19.127 645.921 20.0273 646.992 21.098C648.111 22.12 649.06 23.0933 649.839 24.018C649.644 24.7967 648.987 25.186 647.868 25.186H600.053L599.469 23.069H639.181L643.05 17.229ZM632.173 34.53V36.647H611.879V34.53H632.173ZM638.305 15.988C638.256 16.426 638.062 16.8153 637.721 17.156C637.38 17.4967 636.772 17.7157 635.896 17.813V37.085C635.896 37.231 635.555 37.4743 634.874 37.815C634.193 38.107 633.341 38.3747 632.319 38.618C631.297 38.8613 630.251 38.983 629.18 38.983H627.72V15.039L638.305 15.988ZM618.595 15.988C618.546 16.426 618.352 16.8153 618.011 17.156C617.67 17.4967 617.062 17.7157 616.186 17.813V38.472C616.186 38.6667 615.845 38.91 615.164 39.202C614.483 39.494 613.631 39.7617 612.609 40.005C611.587 40.2483 610.565 40.37 609.543 40.37H608.083V15.039L618.595 15.988Z" fill="#7D272B"/>
</svg>
