<svg width="333" height="59" viewBox="0 0 333 59" fill="none" xmlns="http://www.w3.org/2000/svg">
<path d="M0 1.25977H9.57L31.24 43.9698H31.7L52.96 1.25977H62.37V56.9498H52.96V11.2998H52.67L29.82 56.9498H27.89L4.79 11.6698H4.16V56.9398H0V1.25977Z" fill="#EEDBD4"/>
<path d="M99.28 0L125.49 56.95H115.96L107.47 38.39H83.57L74.79 56.95H70.09L96.93 0H99.28ZM85.21 34.77H105.74L95.62 12.72L85.21 34.77Z" fill="#EEDBD4"/>
<path d="M151.44 54.7202C152.81 54.7202 154.17 54.5302 155.52 54.1502C156.86 53.7702 158.07 53.2102 159.13 52.4702C160.2 51.7302 161.05 50.8202 161.69 49.7402C162.33 48.6602 162.66 47.4102 162.66 45.9802C162.66 44.2702 162.22 42.7502 161.34 41.4202C160.46 40.0902 159.3 38.8702 157.88 37.7602C156.45 36.6502 154.82 35.6102 152.99 34.6302C151.16 33.6502 149.29 32.6702 147.38 31.6902C145.48 30.7102 143.61 29.6802 141.78 28.6002C139.94 27.5202 138.31 26.3202 136.89 24.9902C135.47 23.6602 134.31 22.1702 133.42 20.5402C132.54 18.9002 132.1 17.0202 132.1 14.8902C132.1 12.7602 132.5 10.7902 133.3 8.97023C134.1 7.15023 135.27 5.58023 136.81 4.25023C138.35 2.92023 140.25 1.88023 142.5 1.12023C144.75 0.360234 147.34 -0.00976562 150.25 -0.00976562C152.88 -0.00976562 155.23 0.270234 157.3 0.830234C159.37 1.39023 161.19 2.21023 162.76 3.31023C164.33 4.40023 165.66 5.75023 166.75 7.34023C167.84 8.93023 168.72 10.7802 169.39 12.8802L164.61 15.0602C164.05 13.3502 163.33 11.7902 162.47 10.3802C161.61 8.97023 160.57 7.75023 159.36 6.75023C158.15 5.74023 156.76 4.97023 155.18 4.42023C153.6 3.87023 151.81 3.60023 149.83 3.60023C148.06 3.60023 146.53 3.85023 145.21 4.34023C143.89 4.83023 142.8 5.47023 141.91 6.27023C141.03 7.07023 140.37 7.97023 139.94 8.96023C139.5 9.95023 139.29 10.9702 139.29 12.0102C139.29 13.4602 139.74 14.8002 140.63 16.0202C141.53 17.2402 142.71 18.3902 144.2 19.4602C145.69 20.5402 147.37 21.5802 149.26 22.5902C151.15 23.6002 153.08 24.6202 155.03 25.6602C156.99 26.7002 158.92 27.7802 160.81 28.9002C162.7 30.0202 164.39 31.2402 165.87 32.5702C167.35 33.9002 168.54 35.3602 169.44 36.9402C170.34 38.5202 170.78 40.2902 170.78 42.2502C170.78 44.4602 170.36 46.5402 169.52 48.4902C168.68 50.4402 167.42 52.1302 165.74 53.5702C164.06 55.0102 161.98 56.1502 159.48 57.0002C156.99 57.8402 154.09 58.2602 150.79 58.2602C148.1 58.2602 145.71 57.9702 143.61 57.3802C141.51 56.7902 139.66 55.9402 138.05 54.8202C136.44 53.7002 135.06 52.3402 133.91 50.7202C132.76 49.1102 131.82 47.2702 131.09 45.2002L136.09 43.1402C136.68 44.9602 137.47 46.5802 138.46 48.0102C139.45 49.4402 140.61 50.6502 141.92 51.6402C143.24 52.6402 144.7 53.4002 146.31 53.9302C147.92 54.4602 149.63 54.7302 151.45 54.7302L151.44 54.7202Z" fill="#EEDBD4"/>
<path d="M227.54 1.25977V4.86977H207.38V56.9498H198.02V4.86977H177.86V1.25977H227.54Z" fill="#EEDBD4"/>
<path d="M275.42 1.25977V4.86977H246.06V24.7798H265.71V28.3898H246.06V53.3298H275.42V56.9398H236.7V1.25977H275.42Z" fill="#EEDBD4"/>
<path d="M286.42 1.25977H305.74C309.07 1.25977 312 1.61977 314.52 2.32977C317.04 3.04977 319.14 4.04977 320.82 5.33977C322.5 6.62977 323.77 8.15977 324.62 9.93976C325.47 11.7198 325.9 13.6598 325.9 15.7598C325.9 17.4998 325.57 19.1198 324.91 20.6298C324.25 22.1398 323.33 23.5098 322.14 24.7198C320.95 25.9398 319.51 26.9898 317.83 27.8698C316.15 28.7498 314.3 29.4398 312.29 29.9498L332.57 56.9598H321.69L302.33 30.7998H295.78V56.9598H286.41V1.25977H286.42ZM295.79 27.9698H301.21C303.31 27.9698 305.25 27.6898 307.03 27.1298C308.81 26.5698 310.35 25.7798 311.65 24.7598C312.95 23.7398 313.96 22.4998 314.7 21.0398C315.43 19.5898 315.79 17.9498 315.79 16.1298C315.79 14.4498 315.5 12.9098 314.93 11.5098C314.35 10.1098 313.54 8.90977 312.49 7.91977C311.44 6.92977 310.19 6.14977 308.75 5.58977C307.31 5.02977 305.73 4.74977 304.03 4.74977H295.8V27.9798L295.79 27.9698Z" fill="#EEDBD4"/>
</svg>
