<svg width="136" height="79" viewBox="0 0 136 79" fill="none" xmlns="http://www.w3.org/2000/svg">
<rect width="136" height="79" fill="#7D272B"/>
<path d="M29.755 33.385H62.335L65.62 29.245C65.62 29.245 65.815 29.395 66.205 29.695C66.625 29.995 67.135 30.385 67.735 30.865C68.365 31.345 69.025 31.855 69.715 32.395C70.405 32.935 71.02 33.445 71.56 33.925C71.44 34.405 71.005 34.645 70.255 34.645H30.115L29.755 33.385ZM46.72 19.975L54.28 20.65C54.22 21.01 54.055 21.295 53.785 21.505C53.545 21.715 53.155 21.865 52.615 21.955C52.555 24.715 52.465 27.415 52.345 30.055C52.255 32.695 52.015 35.26 51.625 37.75C51.235 40.21 50.575 42.58 49.645 44.86C48.745 47.14 47.47 49.315 45.82 51.385C44.17 53.425 42.025 55.345 39.385 57.145C36.775 58.915 33.55 60.55 29.71 62.05L29.305 61.375C32.965 59.185 35.92 56.875 38.17 54.445C40.42 52.015 42.13 49.48 43.3 46.84C44.5 44.2 45.325 41.44 45.775 38.56C46.255 35.68 46.525 32.695 46.585 29.605C46.675 26.485 46.72 23.275 46.72 19.975ZM52.39 33.655C52.72 35.845 53.32 38.005 54.19 40.135C55.06 42.265 56.245 44.32 57.745 46.3C59.275 48.28 61.21 50.125 63.55 51.835C65.89 53.515 68.695 55.015 71.965 56.335L71.875 56.83C70.525 57.1 69.43 57.655 68.59 58.495C67.78 59.335 67.255 60.52 67.015 62.05C64.195 60.34 61.855 58.36 59.995 56.11C58.135 53.86 56.635 51.46 55.495 48.91C54.355 46.33 53.5 43.75 52.93 41.17C52.36 38.59 51.94 36.13 51.67 33.79L52.39 33.655ZM95.545 31.855H112.195V33.115H95.545V31.855ZM92.89 31.855V29.785L98.2 31.855H97.615V54.805C97.615 54.955 97.27 55.24 96.58 55.66C95.89 56.05 94.93 56.245 93.7 56.245H92.89V31.855ZM91.9 24.115H109L111.745 20.425C111.745 20.425 111.91 20.575 112.24 20.875C112.6 21.145 113.035 21.505 113.545 21.955C114.055 22.375 114.595 22.825 115.165 23.305C115.735 23.785 116.245 24.25 116.695 24.7C116.575 25.18 116.17 25.42 115.48 25.42H92.26L91.9 24.115ZM101.17 24.115H106.165V60.52C106.165 60.67 105.805 60.94 105.085 61.33C104.365 61.72 103.36 61.915 102.07 61.915H101.17V24.115ZM109.9 31.855H109.45L111.61 29.38L116.425 32.935C116.275 33.115 116.05 33.295 115.75 33.475C115.48 33.625 115.135 33.745 114.715 33.835V50.215C114.715 51.325 114.595 52.285 114.355 53.095C114.145 53.875 113.665 54.49 112.915 54.94C112.165 55.39 110.995 55.705 109.405 55.885C109.405 55.105 109.375 54.415 109.315 53.815C109.255 53.215 109.135 52.735 108.955 52.375C108.805 52.045 108.58 51.76 108.28 51.52C107.98 51.25 107.53 51.055 106.93 50.935V50.26C106.93 50.26 107.08 50.275 107.38 50.305C107.68 50.335 108.025 50.365 108.415 50.395C108.805 50.395 109.075 50.395 109.225 50.395C109.525 50.395 109.705 50.335 109.765 50.215C109.855 50.095 109.9 49.915 109.9 49.675V31.855ZM78.355 27.265H87.67V28.525H78.355V27.265ZM78.355 36.85H87.67V38.155H78.355V36.85ZM78.175 44.365H88.255V45.67H78.175V44.365ZM78.175 55.165H88.255V56.425H78.175V55.165ZM76.105 27.265V25.24L81.37 27.265H80.74V59.35C80.74 59.53 80.395 59.815 79.705 60.205C79.045 60.625 78.13 60.835 76.96 60.835H76.105V27.265ZM85.51 27.265H85.06L87.265 24.88L91.855 28.39C91.735 28.54 91.525 28.705 91.225 28.885C90.925 29.035 90.565 29.155 90.145 29.245V39.19C90.145 39.28 89.92 39.43 89.47 39.64C89.05 39.82 88.54 39.985 87.94 40.135C87.34 40.285 86.785 40.36 86.275 40.36H85.51V27.265ZM85.69 44.365H85.24L87.445 42.025L92.035 45.49C91.915 45.67 91.705 45.85 91.405 46.03C91.105 46.18 90.745 46.3 90.325 46.39V58.09C90.325 58.21 90.1 58.36 89.65 58.54C89.23 58.72 88.72 58.885 88.12 59.035C87.52 59.215 86.965 59.305 86.455 59.305H85.69V44.365ZM81.145 19.795L87.985 20.92C87.865 21.64 87.295 22.03 86.275 22.09C85.765 22.93 85.135 23.89 84.385 24.97C83.635 26.02 82.975 26.95 82.405 27.76H80.695C80.755 27.07 80.815 26.26 80.875 25.33C80.935 24.4 80.995 23.44 81.055 22.45C81.115 21.46 81.145 20.575 81.145 19.795Z" fill="white"/>
<path d="M122.5 65C124.985 65 127 62.9853 127 60.5C127 58.0147 124.985 56 122.5 56C120.015 56 118 58.0147 118 60.5C118 62.9853 120.015 65 122.5 65Z" stroke="white" stroke-miterlimit="10"/>
</svg>
