<svg width="331" height="320" viewBox="0 0 331 320" fill="none" xmlns="http://www.w3.org/2000/svg">
<rect width="331" height="320" fill="#7D272B"/>
<path d="M43.875 181.625H134.375L143.5 170.125C143.5 170.125 144.042 170.542 145.125 171.375C146.292 172.208 147.708 173.292 149.375 174.625C151.125 175.958 152.958 177.375 154.875 178.875C156.792 180.375 158.5 181.792 160 183.125C159.667 184.458 158.458 185.125 156.375 185.125H44.875L43.875 181.625ZM91 144.375L112 146.25C111.833 147.25 111.375 148.042 110.625 148.625C109.958 149.208 108.875 149.625 107.375 149.875C107.208 157.542 106.958 165.042 106.625 172.375C106.375 179.708 105.708 186.833 104.625 193.75C103.542 200.583 101.708 207.167 99.125 213.5C96.625 219.833 93.0833 225.875 88.5 231.625C83.9167 237.292 77.9583 242.625 70.625 247.625C63.375 252.542 54.4167 257.083 43.75 261.25L42.625 259.375C52.7917 253.292 61 246.875 67.25 240.125C73.5 233.375 78.25 226.333 81.5 219C84.8333 211.667 87.125 204 88.375 196C89.7083 188 90.4583 179.708 90.625 171.125C90.875 162.458 91 153.542 91 144.375ZM106.75 182.375C107.667 188.458 109.333 194.458 111.75 200.375C114.167 206.292 117.458 212 121.625 217.5C125.875 223 131.25 228.125 137.75 232.875C144.25 237.542 152.042 241.708 161.125 245.375L160.875 246.75C157.125 247.5 154.083 249.042 151.75 251.375C149.5 253.708 148.042 257 147.375 261.25C139.542 256.5 133.042 251 127.875 244.75C122.708 238.5 118.542 231.833 115.375 224.75C112.208 217.583 109.833 210.417 108.25 203.25C106.667 196.083 105.5 189.25 104.75 182.75L106.75 182.375ZM226.625 177.375H272.875V180.875H226.625V177.375ZM219.25 177.375V171.625L234 177.375H232.375V241.125C232.375 241.542 231.417 242.333 229.5 243.5C227.583 244.583 224.917 245.125 221.5 245.125H219.25V177.375ZM216.5 155.875H264L271.625 145.625C271.625 145.625 272.083 146.042 273 146.875C274 147.625 275.208 148.625 276.625 149.875C278.042 151.042 279.542 152.292 281.125 153.625C282.708 154.958 284.125 156.25 285.375 157.5C285.042 158.833 283.917 159.5 282 159.5H217.5L216.5 155.875ZM242.25 155.875H256.125V257C256.125 257.417 255.125 258.167 253.125 259.25C251.125 260.333 248.333 260.875 244.75 260.875H242.25V155.875ZM266.5 177.375H265.25L271.25 170.5L284.625 180.375C284.208 180.875 283.583 181.375 282.75 181.875C282 182.292 281.042 182.625 279.875 182.875V228.375C279.875 231.458 279.542 234.125 278.875 236.375C278.292 238.542 276.958 240.25 274.875 241.5C272.792 242.75 269.542 243.625 265.125 244.125C265.125 241.958 265.042 240.042 264.875 238.375C264.708 236.708 264.375 235.375 263.875 234.375C263.458 233.458 262.833 232.667 262 232C261.167 231.25 259.917 230.708 258.25 230.375V228.5C258.25 228.5 258.667 228.542 259.5 228.625C260.333 228.708 261.292 228.792 262.375 228.875C263.458 228.875 264.208 228.875 264.625 228.875C265.458 228.875 265.958 228.708 266.125 228.375C266.375 228.042 266.5 227.542 266.5 226.875V177.375ZM178.875 164.625H204.75V168.125H178.875V164.625ZM178.875 191.25H204.75V194.875H178.875V191.25ZM178.375 212.125H206.375V215.75H178.375V212.125ZM178.375 242.125H206.375V245.625H178.375V242.125ZM172.625 164.625V159L187.25 164.625H185.5V253.75C185.5 254.25 184.542 255.042 182.625 256.125C180.792 257.292 178.25 257.875 175 257.875H172.625V164.625ZM198.75 164.625H197.5L203.625 158L216.375 167.75C216.042 168.167 215.458 168.625 214.625 169.125C213.792 169.542 212.792 169.875 211.625 170.125V197.75C211.625 198 211 198.417 209.75 199C208.583 199.5 207.167 199.958 205.5 200.375C203.833 200.792 202.292 201 200.875 201H198.75V164.625ZM199.25 212.125H198L204.125 205.625L216.875 215.25C216.542 215.75 215.958 216.25 215.125 216.75C214.292 217.167 213.292 217.5 212.125 217.75V250.25C212.125 250.583 211.5 251 210.25 251.5C209.083 252 207.667 252.458 206 252.875C204.333 253.375 202.792 253.625 201.375 253.625H199.25V212.125ZM186.625 143.875L205.625 147C205.292 149 203.708 150.083 200.875 150.25C199.458 152.583 197.708 155.25 195.625 158.25C193.542 161.167 191.708 163.75 190.125 166H185.375C185.542 164.083 185.708 161.833 185.875 159.25C186.042 156.667 186.208 154 186.375 151.25C186.542 148.5 186.625 146.042 186.625 143.875Z" fill="white"/>
<path d="M291.87 285.24C299.806 285.24 306.24 278.806 306.24 270.87C306.24 262.934 299.806 256.5 291.87 256.5C283.934 256.5 277.5 262.934 277.5 270.87C277.5 278.806 283.934 285.24 291.87 285.24Z" stroke="white" stroke-miterlimit="10"/>
</svg>
