<svg width="334" height="29" viewBox="0 0 334 29" fill="none" xmlns="http://www.w3.org/2000/svg">
<g clip-path="url(#clip0_13_958)">
<path d="M0 20.98V0.87H3.14V18.32H11.64L11.41 20.98H0ZM17.62 0.87H20.76V20.98H17.62V0.87ZM37.8 0.87H40.94V20.98H37.8V0.87ZM47.89 0.87H51.32L62.48 16.25V0.87H65.45V20.98H62.05L50.86 5.52V20.98H47.89V0.87ZM82.59 21.26C75.71 21.26 71.46 17.52 71.46 10.87C71.46 4.22 75.91 0.59 82.68 0.59C84.64 0.59 86.99 0.93 88.91 1.64L88.66 4.33C86.42 3.59 84.33 3.31 82.63 3.31C77.62 3.31 74.73 5.91 74.73 10.67C74.73 15.43 77.48 18.57 82.58 18.57C83.6 18.57 84.96 18.4 86.35 18.03V11.66H89.49V17.61C89.49 18.8 89.55 20.02 89.55 20.02C87.14 20.81 84.79 21.27 82.61 21.27L82.59 21.26ZM113.99 21.26C107.11 21.26 102.86 17.52 102.86 10.87C102.86 4.22 107.31 0.59 114.07 0.59C116.03 0.59 118.38 0.93 120.3 1.64L120.05 4.33C117.81 3.59 115.72 3.31 114.02 3.31C109.01 3.31 106.12 5.91 106.12 10.67C106.12 15.43 108.87 18.57 113.97 18.57C114.99 18.57 116.35 18.4 117.74 18.03V11.66H120.88V17.61C120.88 18.8 120.94 20.02 120.94 20.02C118.53 20.81 116.18 21.27 114 21.27L113.99 21.26ZM157.8 21.29C151.74 21.29 147.49 16.87 147.49 10.7C147.49 4.53 151.91 0.56 158.14 0.56C164.37 0.56 168.65 4.61 168.65 10.61C168.65 16.98 164.32 21.29 157.8 21.29ZM157.88 3.28C153.6 3.28 150.74 6.34 150.74 10.42C150.74 15.01 153.6 18.6 157.82 18.6H158.05C162.64 18.6 165.36 15.37 165.36 10.9C165.36 6.43 162.5 3.28 157.88 3.28ZM182.82 21.29C176.96 21.29 174.52 18.26 174.52 12.06V0.87H177.67V11.86C177.67 16.08 179 18.55 183.11 18.55C186.82 18.55 188.24 16.17 188.24 12.15V0.87H191.24V12.31C191.24 17.92 188.52 21.29 182.83 21.29H182.82ZM198.1 0.87H202.88C207.5 0.87 211.04 3.16 211.04 7.44C211.04 11.49 207.98 14.04 204.1 14.04C203.39 14.04 203.19 14.04 202.6 13.98V11.49C203.02 11.52 203.17 11.52 203.59 11.52C205.97 11.52 207.81 10.05 207.81 7.61C207.81 4.81 205.74 3.56 202.68 3.56H201.24V20.98H198.1V0.87ZM134.67 13.35H130.99V20.94H127.86V0.9H132.72C137.52 0.9 140.88 2.93 140.88 7.05C140.88 9.2 139.98 11.14 137.61 12.27L143.04 20.94H139.13L134.68 13.35H134.67ZM132.45 3.47H130.98V10.98C130.98 10.98 132.42 11.04 133.89 11.04C136.04 11.04 137.59 9.63 137.59 7.34C137.59 4.57 135.44 3.47 132.45 3.47ZM30.73 0.91H27.61V20.29C27.61 23.96 26.63 25.87 25.71 27.29L27.21 28.32C27.21 28.32 30.73 25.91 30.73 20.14V0.91ZM273.11 9.87V0.72H259.63V9.86H273.11V9.87ZM261.48 8.12V6.1H271.26V8.12H261.48ZM271.26 2.47V4.35H261.48V2.47H271.26ZM255.71 11.22V21.3H265.38V11.22H255.71ZM263.56 12.99V15.34H257.54V12.99H263.56ZM257.53 19.53V17.04H263.55V19.53H257.53ZM267.43 11.22V21.3H277.1V11.22H267.43ZM275.27 12.99V15.34H269.25V12.99H275.27ZM269.25 19.53V17.04H275.27V19.53H269.25ZM228.48 0.79H238.51V2.43H228.48V0.79ZM239.65 0.79H250.25V2.43H239.65V0.79ZM249.12 15.16V10.78H243.12V9.68H250.14V8.03H239.98V7.3H241.58V4.59H242.95L244.06 7.3H246.02L244.76 4.59H247.66V7.3H249.43V3.08H239.81V6.78H238.37V3.08H228.98V7.31H230.75V4.6H232.16L233.27 7.31H235.23L233.97 4.6H236.6V7.31H238.23V8.04H228.87V13.22C228.87 16.97 227.92 19.31 226.88 20.95L228.09 22.41C228.09 22.41 229.97 20.24 230.55 15.17H249.13L249.12 15.16ZM230.65 12.4H234.99V13.57H230.65V12.4ZM236.79 12.4H241.32V13.57H236.79V12.4ZM247.29 12.4V13.57H243.11V12.4H247.29ZM241.32 10.78H236.79V9.68H241.32V10.78ZM234.99 9.68V10.78H230.65V9.68H234.99ZM239.1 19.21L239.83 20.81C235.62 21.88 230.26 22 230.26 22V20.15H232.11V15.49H233.94V16.7H239.23V18.31H233.94V20.04C235.43 19.9 237.26 19.64 239.1 19.2V19.21ZM250.14 19.22L251.49 20.73C248.67 22.01 245.25 21.96 243.74 21.96C241.81 21.96 240.83 21.79 240.83 19.73V15.5H242.63V17.58C246.39 16.88 248.65 15.88 248.65 15.88L249.8 17.43C247.32 18.39 243.85 19 242.63 19.2V19.86C242.63 20.2 242.75 20.3 243.54 20.3C244.52 20.3 247.85 20.43 250.14 19.23V19.22ZM303.09 1.97H297.2V0H295.38V1.97H290.14V3.67H295.38V5.12H288.24V6.82H295.38V8.27H289.92V9.97H295.38V11.59H289.73V13.29H295.38V14.91H288.76V16.66H295.38V19.18H297.2V16.66H304.48V14.91H297.2V13.29H303.37V11.59H297.2V9.97H303.09V6.82H305.05V5.12H303.09V1.97ZM297.2 3.67H301.24V5.12H297.2V3.67ZM301.24 8.27H297.2V6.82H301.24V8.27ZM304.99 19.63L304.55 21.46C291.77 22.45 288.18 20.67 285.92 18.9C284.48 21.33 282.84 22.03 282.84 22.03L281.31 20.93C281.31 20.93 283.03 20.02 284.21 18.15C284.29 18.02 284.47 17.62 284.5 17.56C284.46 17.51 284.42 17.47 284.39 17.43C283.2 15.62 282.44 13.78 281.94 11.89L283.63 11.21C283.81 11.88 284.49 14.09 285.32 15.5C285.32 15.5 285.33 15.51 285.34 15.52C285.8 14.01 286.05 12.21 286.17 10.14H282L285.39 3.26H282.11V1.46H288.38L285.12 8.34H288.17L288.09 9.79C288.01 11.12 287.71 14.56 286.77 17.12C289.23 19.29 292.94 20.45 304.99 19.63ZM310.44 21.3H317.9V14.07H310.44V21.3ZM316.15 19.55H312.19V15.77H316.15V19.55ZM315.36 2.89H318.78V4.64H309.26V2.89H313.23L312.47 0.26H314.63L315.36 2.89ZM327.72 17.87C331.21 20.31 333.96 20.57 333.96 20.57L332.61 22.08C332.61 22.08 329.22 21.26 326.29 18.99C324.07 20.55 321.81 21.48 320.26 21.99L318.97 20.61C320.1 20.31 322.61 19.3 324.83 17.87C323.5 16.48 322.12 14.89 321.09 13.3L322.78 12.65C323.65 13.94 325.11 15.68 326.3 16.76C328.67 14.73 329.7 12.39 329.92 11.87H320.19V10.07H331.94V11.87H331.89C331.33 13.28 330.08 15.83 327.86 17.76C327.82 17.8 327.77 17.83 327.73 17.87H327.72ZM310.44 10.33H317.9V12.03H310.44V10.33ZM310.44 6.52H317.9V8.27H310.44V6.52ZM329.77 6.24C329.77 6.67 329.77 6.83 329.97 6.83H333.27V8.62H329.62C328.14 8.62 327.96 7.92 327.96 6.16V2.78H323.94V4.52C323.94 7.4 321.93 8.44 320.73 9.19L320.22 9.51L319.23 8.04C319.36 7.97 319.7 7.79 319.82 7.72C322.08 6.51 322.16 5.79 322.16 3.88V1.1H329.78V6.24H329.77Z" fill="white"/>
</g>
<defs>
<clipPath id="clip0_13_958">
<rect width="333.96" height="28.33" fill="white"/>
</clipPath>
</defs>
</svg>
