<svg width="616" height="202" viewBox="0 0 616 202" fill="none" xmlns="http://www.w3.org/2000/svg">
<path d="M199.335 187.356C186.821 187.356 175.137 185.118 164.284 180.65C153.431 176.181 144.003 170.068 135.999 162.302C127.995 154.544 121.695 145.48 117.1 135.119C112.504 124.758 110.215 113.685 110.215 101.899C110.215 94.1834 111.25 86.7391 113.327 79.5915C115.404 72.4439 118.346 65.7796 122.162 59.5986C125.977 53.4261 130.59 47.7962 135.999 42.7175C141.4 37.6387 147.394 33.2891 153.982 29.6772C160.562 26.0652 167.676 23.2588 175.315 21.2663C182.954 19.2738 190.958 18.2817 199.327 18.2817C207.695 18.2817 215.699 19.2822 223.339 21.2663C230.978 23.2588 238.108 26.0652 244.73 29.6772C251.352 33.2976 257.347 37.6472 262.714 42.7175C268.081 47.7962 272.685 53.4261 276.551 59.5986C280.409 65.7796 283.376 72.4439 285.454 79.5915C287.523 86.7476 288.565 94.1834 288.565 101.899C288.565 109.615 287.531 117.237 285.454 124.512C283.385 131.787 280.417 138.595 276.551 144.929C272.693 151.271 268.081 157.036 262.714 162.242C257.347 167.448 251.352 171.917 244.73 175.656C238.108 179.395 230.978 182.278 223.339 184.312C215.699 186.347 207.695 187.365 199.327 187.365L199.335 187.356ZM199.335 179.31C208.602 179.31 216.784 177.377 223.898 173.519C231.012 169.661 237.006 164.277 241.882 157.367C246.757 150.457 250.437 142.292 252.912 132.863C255.388 123.435 256.635 113.116 256.635 101.899C256.635 90.6817 255.397 80.5666 252.912 71.2993C250.437 62.032 246.757 54.0535 241.882 47.3469C237.006 40.6402 231.012 35.4427 223.898 31.746C216.784 28.0492 208.602 26.2009 199.335 26.2009C190.068 26.2009 181.64 28.0492 174.526 31.746C167.413 35.4427 161.444 40.6487 156.611 47.3469C151.769 54.0535 148.141 62.0405 145.699 71.2993C143.257 80.5666 142.044 90.7665 142.044 101.899C142.044 113.032 143.265 123.435 145.699 132.863C148.141 142.292 151.769 150.457 156.611 157.367C161.444 164.277 167.421 169.661 174.526 173.519C181.64 177.377 189.907 179.31 199.335 179.31Z" fill="#7D272B"/>
<path d="M325.134 21.9361H340.371L446.304 140.181H447.525V21.9361H459.471V187.365H453.129L338.42 55.9528H337.445V183.583H325.134V21.9361Z" fill="#7D272B"/>
<path d="M615.76 21.9361V32.4243H530.549V90.2069H587.602V100.687H530.549V173.095H615.76V183.575H503.366V21.9361H615.76Z" fill="#7D272B"/>
<path d="M4.89224 85.3909H6.73213V95.6248H12.2433V96.337H4.89224V85.3909Z" fill="#7D272B"/>
<path d="M17.356 85.3909H19.1959V96.337H17.356V85.3909Z" fill="#7D272B"/>
<path d="M30.4556 93.2083C30.4556 93.6068 30.4217 93.9969 30.3454 94.3784C30.2776 94.76 30.1249 95.1076 29.9045 95.4213C29.6841 95.7265 29.3703 95.9809 28.9634 96.1674C28.5564 96.354 28.0137 96.4557 27.3439 96.4557C26.9624 96.4557 26.6232 96.4218 26.318 96.3455C26.0128 96.2777 25.733 96.1844 25.4871 96.0657C25.2412 95.9555 25.0123 95.8283 24.8173 95.6841C24.6138 95.54 24.4272 95.3959 24.2577 95.2432L24.8342 94.4632C24.9529 94.5649 25.1055 94.6837 25.2751 94.8363C25.4447 94.9889 25.6312 95.1245 25.8347 95.2602C26.0382 95.3959 26.2417 95.5146 26.4621 95.6078C26.6826 95.7096 26.903 95.752 27.115 95.752C27.5983 95.752 27.9713 95.6248 28.2257 95.3704C28.4801 95.1161 28.6073 94.7769 28.6073 94.3445V85.374H30.4471V93.1914L30.4556 93.2083Z" fill="#7D272B"/>
<path d="M36.7299 85.3909H38.5698V96.337H36.7299V85.3909Z" fill="#7D272B"/>
<path d="M45.0222 85.3909H46.0566L53.2296 93.3949H53.3144V85.3909H54.1199V96.5913H53.6875L45.9209 87.6971H45.8531V96.337H45.0222V85.3909Z" fill="#7D272B"/>
<path d="M66.7786 85.9251C66.1173 85.9251 65.5068 86.0438 64.9472 86.2727C64.3876 86.5101 63.9044 86.8408 63.5058 87.2817C63.0989 87.7226 62.7852 88.2483 62.5647 88.8672C62.3358 89.4862 62.2256 90.1814 62.2256 90.9445C62.2256 91.7076 62.3443 92.4113 62.5901 93.0303C62.836 93.6492 63.1667 94.1749 63.5991 94.6073C64.0231 95.0397 64.5318 95.3789 65.1083 95.6078C65.6849 95.8452 66.3038 95.9555 66.9652 95.9555C67.44 95.9555 67.8724 95.8876 68.2624 95.7604C68.6524 95.6333 68.9916 95.4467 69.3053 95.2008V91.36H67.2365V90.7071H71.1452V95.5146C70.823 95.6841 70.5008 95.8368 70.1786 95.9724C69.8564 96.1081 69.5003 96.2098 69.1273 96.3031C68.7542 96.3963 68.3387 96.4557 67.8809 96.5066C67.423 96.5574 66.9143 96.5744 66.3462 96.5744C65.7442 96.5744 65.1677 96.5066 64.6166 96.3709C64.0739 96.2353 63.5652 96.0487 63.0989 95.7944C62.6325 95.54 62.2171 95.2517 61.844 94.9041C61.471 94.5565 61.1488 94.1834 60.8859 93.7595C60.6231 93.3355 60.4196 92.8946 60.2754 92.4113C60.1313 91.9281 60.0635 91.4363 60.0635 90.9191C60.0635 90.4019 60.1313 89.9101 60.267 89.4183C60.4026 88.9351 60.5976 88.4687 60.852 88.0363C61.1064 87.6039 61.4116 87.2139 61.7762 86.8493C62.1408 86.4932 62.5477 86.1795 63.0056 85.9251C63.4635 85.6707 63.9637 85.4673 64.4979 85.3231C65.0405 85.179 65.6086 85.1111 66.2106 85.1111C66.8126 85.1111 67.3213 85.1875 67.8131 85.3485C68.3048 85.5096 68.7542 85.7131 69.1612 85.976C69.5681 86.2388 69.9243 86.5356 70.238 86.8747C70.5517 87.2139 70.823 87.57 71.0434 87.9346L70.2549 88.4602C69.7886 87.5785 69.2799 86.9256 68.7118 86.5186C68.1437 86.1116 67.4993 85.8997 66.7702 85.8997L66.7786 85.9251Z" fill="#7D272B"/>
<path d="M8.76704 106.215C8.1057 106.215 7.49523 106.333 6.93563 106.562C6.37604 106.8 5.89275 107.13 5.49425 107.571C5.08727 108.012 4.77356 108.538 4.55311 109.157C4.32418 109.776 4.21396 110.471 4.21396 111.234C4.21396 111.997 4.33266 112.701 4.57854 113.32C4.82443 113.939 5.1551 114.465 5.58751 114.897C6.01145 115.329 6.52018 115.669 7.09673 115.897C7.67328 116.135 8.29223 116.245 8.95357 116.245C9.42838 116.245 9.8608 116.177 10.2508 116.05C10.6408 115.923 10.98 115.736 11.2937 115.49V111.65H9.22489V110.997H13.1336V115.804C12.8114 115.974 12.4892 116.126 12.167 116.262C11.8448 116.398 11.4887 116.499 11.1157 116.593C10.7426 116.686 10.3271 116.745 9.86928 116.796C9.41143 116.847 8.9027 116.864 8.33463 116.864C7.73264 116.864 7.15608 116.796 6.60496 116.661C6.06232 116.525 5.5536 116.338 5.08727 116.084C4.62094 115.83 4.20548 115.541 3.83242 115.194C3.45935 114.846 3.13716 114.473 2.87432 114.049C2.61148 113.625 2.40799 113.184 2.26385 112.701C2.11971 112.218 2.05188 111.726 2.05188 111.209C2.05188 110.692 2.11971 110.2 2.25537 109.708C2.39103 109.225 2.58604 108.758 2.8404 108.326C3.09476 107.894 3.4 107.504 3.76459 107.139C4.12917 106.783 4.53615 106.469 4.994 106.215C5.45185 105.96 5.9521 105.757 6.48626 105.613C7.0289 105.469 7.59698 105.401 8.19897 105.401C8.80096 105.401 9.30968 105.477 9.80145 105.638C10.2932 105.799 10.7426 106.003 11.1496 106.266C11.5565 106.528 11.9127 106.825 12.2264 107.164C12.5401 107.504 12.8114 107.86 13.0318 108.224L12.2433 108.75C11.777 107.868 11.2683 107.215 10.7002 106.808C10.1321 106.401 9.48773 106.189 8.75856 106.189L8.76704 106.215Z" fill="#7D272B"/>
<path d="M19.3993 105.672H23.1978C23.8507 105.672 24.4272 105.74 24.919 105.884C25.4108 106.028 25.8262 106.223 26.1569 106.478C26.4876 106.732 26.7335 107.029 26.903 107.385C27.0726 107.732 27.1574 108.114 27.1574 108.529C27.1574 108.869 27.0896 109.191 26.9624 109.488C26.8352 109.784 26.6487 110.056 26.4197 110.293C26.1908 110.53 25.9025 110.742 25.5719 110.912C25.2412 111.082 24.8766 111.226 24.4781 111.319L28.4631 116.627H26.3265L22.5195 111.489H21.2308V116.627H19.3909V105.681L19.3993 105.672ZM21.2392 110.92H22.2991C22.7145 110.92 23.0961 110.87 23.4437 110.759C23.7913 110.649 24.0966 110.496 24.3509 110.293C24.6053 110.09 24.8088 109.852 24.9529 109.564C25.0971 109.276 25.1649 108.953 25.1649 108.597C25.1649 108.267 25.1055 107.961 24.9953 107.69C24.8851 107.41 24.724 107.181 24.512 106.986C24.3085 106.791 24.0627 106.639 23.7744 106.528C23.4946 106.418 23.1809 106.367 22.8417 106.367H21.2223V110.929L21.2392 110.92Z" fill="#7D272B"/>
<path d="M38.9769 116.872C38.129 116.872 37.3405 116.72 36.6028 116.415C35.8652 116.109 35.2293 115.694 34.6866 115.168C34.144 114.643 33.72 114.032 33.4063 113.328C33.0926 112.625 32.94 111.879 32.94 111.082C32.94 110.556 33.0078 110.056 33.152 109.572C33.2961 109.089 33.4911 108.64 33.754 108.216C34.0168 107.8 34.322 107.419 34.6951 107.071C35.0597 106.723 35.4667 106.435 35.916 106.189C36.3654 105.943 36.8402 105.757 37.3574 105.621C37.8746 105.486 38.4173 105.418 38.9853 105.418C39.5534 105.418 40.0961 105.486 40.6133 105.621C41.1305 105.757 41.6138 105.943 42.0631 106.189C42.5125 106.435 42.9195 106.732 43.2841 107.071C43.6487 107.41 43.9624 107.792 44.2167 108.216C44.4796 108.631 44.6831 109.089 44.8187 109.572C44.9629 110.056 45.0307 110.556 45.0307 111.082C45.0307 111.607 44.9629 112.124 44.8187 112.616C44.6746 113.108 44.4796 113.566 44.2167 113.998C43.9539 114.431 43.6402 114.821 43.2841 115.168C42.9195 115.524 42.5125 115.821 42.0631 116.076C41.6138 116.33 41.1305 116.525 40.6133 116.661C40.0961 116.796 39.5534 116.864 38.9853 116.864L38.9769 116.872ZM38.9769 116.33C39.6043 116.33 40.1554 116.203 40.6387 115.94C41.122 115.677 41.529 115.312 41.8512 114.846C42.1818 114.38 42.4277 113.829 42.5973 113.184C42.7669 112.548 42.8517 111.845 42.8517 111.09C42.8517 110.335 42.7669 109.649 42.5973 109.021C42.4277 108.394 42.1818 107.851 41.8512 107.402C41.5205 106.944 41.1135 106.596 40.6387 106.342C40.1554 106.088 39.6043 105.969 38.9769 105.969C38.3494 105.969 37.7814 106.096 37.2981 106.342C36.8148 106.596 36.4163 106.944 36.0856 107.402C35.7549 107.86 35.5091 108.394 35.348 109.021C35.1784 109.649 35.1021 110.335 35.1021 111.09C35.1021 111.845 35.1869 112.548 35.348 113.184C35.5091 113.82 35.7634 114.38 36.0856 114.846C36.4078 115.312 36.8148 115.677 37.2981 115.94C37.7814 116.203 38.341 116.33 38.9769 116.33Z" fill="#7D272B"/>
<path d="M50.7961 105.672H52.636V112.777C52.636 113.244 52.7123 113.684 52.8734 114.091C53.0345 114.498 53.2634 114.863 53.5602 115.168C53.857 115.474 54.2131 115.719 54.637 115.897C55.0609 116.076 55.5273 116.169 56.0445 116.169C56.5617 116.169 57.0365 116.076 57.4519 115.897C57.8674 115.719 58.2235 115.474 58.5203 115.168C58.817 114.863 59.0375 114.498 59.1986 114.091C59.3512 113.684 59.436 113.244 59.436 112.777V105.672H60.2415V112.777C60.2415 113.337 60.1482 113.871 59.9701 114.363C59.7921 114.855 59.5038 115.287 59.1138 115.66C58.7238 116.033 58.232 116.321 57.6215 116.542C57.0195 116.762 56.2904 116.864 55.4425 116.864C54.6879 116.864 54.0181 116.754 53.4415 116.542C52.8565 116.321 52.3732 116.025 51.9832 115.652C51.5931 115.279 51.2964 114.838 51.0929 114.337C50.8894 113.837 50.7877 113.294 50.7877 112.726V105.672H50.7961Z" fill="#7D272B"/>
<path d="M66.5073 105.672H69.9751C70.5432 105.672 71.0858 105.74 71.5861 105.876C72.0863 106.011 72.5272 106.215 72.8918 106.486C73.2648 106.749 73.5531 107.08 73.7651 107.47C73.9771 107.86 74.0788 108.301 74.0788 108.801C74.0788 109.301 73.9771 109.725 73.7736 110.098C73.5701 110.471 73.2988 110.768 72.9596 111.014C72.6205 111.26 72.2389 111.438 71.8065 111.556C71.3741 111.675 70.9417 111.734 70.4923 111.734C70.2973 111.734 70.1023 111.734 69.8903 111.726C69.6783 111.717 69.4833 111.709 69.2883 111.692C69.0933 111.675 68.9153 111.658 68.7542 111.633C68.5931 111.607 68.4574 111.59 68.3472 111.565V116.627H66.5073V105.681V105.672ZM68.3557 110.937C68.5676 111.005 68.7881 111.065 69.0255 111.115C69.2629 111.158 69.5003 111.183 69.7546 111.183C70.1531 111.183 70.5008 111.124 70.7975 111.005C71.0943 110.887 71.3402 110.725 71.5437 110.522C71.7387 110.318 71.8913 110.073 71.9846 109.793C72.0778 109.513 72.1287 109.216 72.1287 108.902C72.1287 108.538 72.0693 108.199 71.9422 107.902C71.815 107.605 71.6454 107.351 71.4165 107.139C71.196 106.927 70.9332 106.766 70.628 106.647C70.3312 106.528 70.009 106.478 69.6699 106.478H68.3641V110.937H68.3557Z" fill="#7D272B"/>
<path d="M4.95158 0.985107H35.8651V6.28432H4.95158V0.985107ZM39.3668 0.985107H72.0269V6.28432H39.3668V0.985107ZM68.5337 47.3129V33.1874H50.0415V29.6517H71.6793V24.344H40.3588V21.9954H45.2934V13.2538H49.5158L52.9243 21.9954H58.9612L55.0694 13.2538H63.9975V21.9954H69.4663V8.36161H39.8331V20.2912H35.3987V8.36161H6.45232V21.9954H11.9211V13.2538H16.2707L19.6792 21.9954H25.716L21.8243 13.2538H29.9384V21.9954H34.9663V24.344H6.13861V41.0387C6.13861 53.1378 3.22192 60.6839 0 65.9492L3.73065 70.6719C3.73065 70.6719 9.51315 63.6769 11.3022 47.3129H68.5337ZM11.6328 38.4103H24.9953V42.1748H11.6328V38.4103ZM30.5404 38.4103H44.4964V42.1748H30.5404V38.4103ZM62.9123 38.4103V42.1748H50.05V38.4103H62.9123ZM44.5049 33.1874H30.5489V29.6517H44.5049V33.1874ZM25.0038 29.6432V33.1789H11.6413V29.6432H25.0038ZM37.671 60.3617L39.9349 65.5168C26.9709 68.9592 10.4458 69.3661 10.4458 69.3661V63.4141H16.152V48.4067H21.7819V52.3154H38.078V57.5044H21.7819V63.0834C26.3774 62.6425 32.0157 61.7946 37.6626 60.3617H37.671ZM71.6878 60.3872L75.8593 65.254C67.1771 69.3746 56.621 69.222 51.9662 69.222C46.0226 69.222 42.9957 68.6624 42.9957 62.0405V48.3982H48.5577V55.1049C60.1312 52.8326 67.1092 49.6192 67.1092 49.6192L70.6364 54.6216C62.9801 57.7164 52.3138 59.6919 48.5577 60.3278V62.4475C48.5577 63.5328 48.9393 63.855 51.3557 63.855C54.3572 63.855 64.6334 64.2619 71.6878 60.3956V60.3872Z" fill="#7D272B"/>
<path d="M58.5966 164.599V135.11H17.0592V164.599H58.5966ZM22.7654 158.969V152.449H52.9073V158.969H22.7654ZM52.8989 140.749V146.819H22.7654V140.749H52.9073H52.8989ZM4.97702 168.949V201.465H34.7713V168.949H4.97702ZM29.1584 174.672V182.252H10.5984V174.672H29.1584ZM10.5984 195.75V187.721H29.1584V195.75H10.5984ZM41.088 168.949V201.465H70.8823V168.949H41.088ZM65.2609 174.672V182.252H46.7009V174.672H65.2609ZM46.7094 195.75V187.721H65.2693V195.75H46.7094Z" fill="#7D272B"/>
</svg>
