<svg width="531" height="78" viewBox="0 0 531 78" fill="none" xmlns="http://www.w3.org/2000/svg">
<g clip-path="url(#clip0_4_57)">
<path d="M368.85 47.9157C367.099 49.0698 365.052 50.1919 362.715 51.2819C360.701 52.1667 358.744 53.0067 356.845 53.8081C355.957 54.1351 355.493 54.475 355.468 54.8276C355.32 55.3919 355.069 55.7124 354.715 55.8022C354.36 55.8343 354.032 55.4752 353.736 54.7379C353.202 53.4683 352.655 51.9936 352.088 50.3073C352.03 49.9803 352.191 49.8071 352.577 49.7751C353.762 49.6853 354.933 49.5956 356.092 49.5122V18.7739C356.092 18.3891 356.195 18.2096 356.401 18.2417C358.094 18.7739 359.961 19.6266 362.001 20.8128H366.133C366.784 20.8449 367.202 20.7102 367.376 20.4153C367.672 19.9152 368.058 19.3509 368.534 18.729C368.74 18.5238 368.991 18.4789 369.288 18.5943C371.064 19.2163 372.506 19.9408 373.6 20.7679C374.521 21.5374 374.353 22.1529 373.111 22.6274C372.783 22.7748 372.622 22.9993 372.622 23.2942V37.8683C372.622 38.58 372.268 39.125 371.553 39.5097C370.781 39.8367 370.118 39.997 369.551 39.997C368.959 39.997 368.483 39.8496 368.129 39.5546C367.801 39.2917 367.653 38.8044 367.685 38.0927V37.6054H361.061V48.8133C363.462 48.3132 365.953 47.6464 368.534 46.8192C367.466 44.4276 366.314 42.7028 365.065 41.6385C364.917 41.491 364.885 41.3115 364.975 41.1063C365.033 40.9011 365.2 40.8434 365.464 40.9268C366.41 41.2217 367.305 41.6385 368.129 42.1642C371.598 44.2289 373.729 46.7423 374.533 49.6917C374.862 50.6663 374.797 51.6538 374.353 52.6604C373.967 53.5773 373.317 54.0903 372.396 54.2121C371.476 54.3275 370.736 54.0646 370.176 53.417C369.674 52.8271 369.403 52 369.378 50.9356C369.287 49.9033 369.114 48.8967 368.843 47.9221L368.85 47.9157ZM361.068 22.0054V28.7827H367.691V22.2683C367.575 21.9734 367.382 21.8836 367.112 22.0054H361.061H361.068ZM361.068 29.9753V36.4H367.691V29.9753H361.068ZM381.344 20.6333H386.101C386.603 20.5756 386.963 20.4409 387.169 20.2358C387.735 19.4663 388.205 18.8508 388.592 18.3763C388.83 18.1134 389.126 18.0686 389.48 18.2417C391.527 19.2163 392.994 20.0755 393.883 20.8128C394.829 21.8195 394.533 22.5825 392.994 23.1147C392.582 23.3519 392.37 23.7366 392.37 24.2688V47.8323C392.338 49.602 391.733 50.8587 390.548 51.5961C389.332 52.3078 388.102 52.6412 386.86 52.6155C386.654 52.6476 386.532 52.5258 386.506 52.2629C386.326 50.2239 385.244 49.0121 383.262 48.6338C382.934 48.4863 382.786 48.2619 382.818 47.9669C382.934 47.672 383.191 47.5374 383.571 47.5694C385.586 47.5117 386.725 47.3322 386.995 47.0372C387.291 46.6846 387.439 46.3127 387.439 45.928V22.3196C387.407 21.967 387.259 21.8002 386.995 21.8323H381.569L381.344 21.8772V57.7578C381.344 58.7324 381.118 59.3993 380.674 59.7519C380.114 60.2264 379.297 60.4636 378.228 60.4636C377.578 60.4316 377.102 60.2713 376.806 59.9763C376.542 59.7134 376.407 59.2967 376.407 58.7388V19.306C376.374 19.1009 376.407 18.979 376.497 18.9534C376.555 18.9213 376.69 18.9213 376.896 18.9534C378.26 19.2804 379.741 19.8382 381.344 20.6397V20.6333Z" fill="#7D272B"/>
<path d="M400.377 41.4076L398.466 41.6321C398.227 41.6898 398.092 41.6641 398.067 41.5423C397.918 41.0101 397.783 40.51 397.667 40.0355C397.667 39.888 397.815 39.8303 398.112 39.856L401.137 40.1189H407.587V33.3415H404.162V35.5536C404.162 36.2653 403.853 36.7655 403.229 37.0604C402.283 37.4131 401.304 37.4002 400.294 37.0155C399.701 36.6885 399.405 36.2461 399.405 35.6883L399.45 21.3835C399.418 21.0885 399.418 20.8385 399.45 20.6333C399.45 20.4538 399.553 20.3704 399.759 20.3704C401.124 20.5179 402.579 20.7423 404.117 21.0372C404.947 21.2168 405.359 21.4925 405.359 21.8772C404.915 22.3773 404.516 22.8967 404.156 23.4288V32.1554H407.58L407.625 18.9534C407.625 18.8059 407.612 18.6456 407.58 18.4661C407.58 18.3186 407.683 18.2288 407.889 18.2032C409.402 18.3507 410.972 18.5751 412.601 18.87C413.431 19.0496 413.843 19.3702 413.843 19.8446C413.811 20.3191 413.47 20.6589 412.82 20.8641C412.524 20.9539 412.376 21.1911 412.376 21.5758L412.331 58.4759C412.331 59.2454 411.957 59.8224 411.217 60.2007C410.239 60.5534 409.26 60.4957 408.282 60.0212C407.805 59.7263 407.567 59.271 407.567 58.6491V41.3307H404.941C404.909 43.2799 404.793 45.274 404.587 47.3129C403.873 53.3978 401.607 57.3667 397.783 59.2261C397.577 59.3159 397.41 59.3031 397.294 59.1813C397.204 59.0658 397.249 58.8991 397.429 58.694C399.386 55.4432 400.364 49.6853 400.364 41.4205L400.377 41.4076ZM428.925 43.2671H416.785L413.895 43.6197C413.689 43.7095 413.566 43.6646 413.541 43.4851C413.425 42.985 413.302 42.4656 413.187 41.9334C413.154 41.7859 413.29 41.7282 413.586 41.7539L416.785 42.0616H428.925L428.97 35.637V34.8419C425.442 37.3233 420.731 38.9776 414.828 39.8047C414.532 39.8047 414.384 39.7021 414.384 39.4969C414.416 39.234 414.532 39.0866 414.738 39.0545C424.696 35.4831 430.482 30.4498 432.079 23.9482H424.078L423.943 23.9931C423.498 24.4932 423.054 24.9805 422.61 25.455C424.773 25.8397 426.318 26.7566 427.232 28.1993C427.586 28.9943 427.663 29.8086 427.457 30.6358C427.277 31.4308 426.82 31.9374 426.08 32.1425C425.365 32.3477 424.728 32.2323 424.168 31.7899C423.666 31.4052 423.35 30.7704 423.235 29.8856C422.906 28.289 422.372 27.1221 421.632 26.3847C420.357 27.4491 419.231 28.3018 418.252 28.9559C418.4 28.9559 418.491 28.9687 418.516 29.0007C420.441 29.6227 421.715 30.687 422.34 32.1874C422.578 32.9825 422.501 33.784 422.115 34.579C421.761 35.3164 421.213 35.7332 420.467 35.8165C418.864 35.964 418.066 35.0471 418.066 33.0723C418.124 31.5078 417.84 30.328 417.223 29.5265C415.948 30.2062 414.719 30.7255 413.534 31.0782C413.27 31.1679 413.122 31.1231 413.09 30.9435C413.032 30.764 413.103 30.6165 413.315 30.5011C417.673 27.167 420.267 23.3263 421.098 18.9854C421.13 18.8059 421.155 18.6584 421.188 18.543C421.22 18.3635 421.336 18.293 421.542 18.3186C423.17 18.5559 424.741 18.9534 426.253 19.5176C426.878 19.7805 427.174 20.1075 427.142 20.4922C427.084 20.8192 426.743 21.0244 426.118 21.1142C425.912 21.1462 425.481 21.6912 424.831 22.7556L432.034 22.7107C432.182 22.653 432.748 22.0888 433.727 21.0244C433.933 20.909 434.1 20.8898 434.216 20.9795C435.432 21.6912 436.546 22.4543 437.55 23.2814C437.962 23.6917 438.155 24.0508 438.129 24.3457C438.039 24.6984 437.756 24.9228 437.286 25.0126C437.048 25.0446 436.797 25.2947 436.533 25.7628C434.756 29.3342 432.356 32.29 429.33 34.6239C430.663 34.6816 432.15 34.8612 433.778 35.1561C434.608 35.3036 435.02 35.5985 435.02 36.0409C435.02 36.4513 434.692 36.7655 434.042 36.9706C433.804 37.0027 433.688 37.1502 433.688 37.4131V41.9334C433.804 41.8757 433.881 41.7988 433.913 41.709C434.357 40.9396 434.95 40.0676 435.69 39.093C435.986 38.6826 436.327 38.6185 436.713 38.9134C437.75 39.7085 438.67 40.7472 439.468 42.0168C439.732 42.3438 439.809 42.6387 439.694 42.9016C439.603 43.1388 439.385 43.2542 439.024 43.2542H433.688V55.8792C433.656 57.0333 433.141 58.0207 432.13 58.8478C431.062 59.7327 429.594 60.1943 427.727 60.22C427.431 60.1623 427.283 60.0725 427.283 59.9571C427.341 58.3028 426.292 57.0333 424.129 56.1485C423.801 56.0907 423.653 55.924 423.685 55.6612C423.743 55.3983 423.878 55.2636 424.084 55.2636C426.813 55.3213 428.307 55.2508 428.577 55.0392C428.815 54.802 428.931 54.507 428.931 54.1544V43.2607L428.925 43.2671ZM417.004 45.1265C416.856 44.979 416.823 44.7995 416.914 44.5943C416.971 44.4469 417.139 44.3891 417.403 44.4148C417.461 44.4148 417.538 44.4276 417.628 44.4597C421.04 45.5817 423.189 47.2488 424.078 49.4673C424.406 50.3842 424.342 51.3268 423.898 52.3014C423.543 53.1862 422.919 53.6863 422.031 53.8081C420.164 54.0454 419.186 53.0131 419.096 50.7048C419.154 48.3453 418.458 46.4794 417.004 45.1265Z" fill="#7D272B"/>
<path d="M442.931 35.9576C442.783 35.7781 442.751 35.5857 442.841 35.3805C442.957 35.201 443.124 35.1561 443.33 35.2459C446.266 35.9576 448.132 37.3746 448.93 39.4969C449.136 40.4715 449.008 41.4141 448.531 42.3309C448.087 43.1901 447.418 43.6326 446.529 43.6582C444.663 43.748 443.774 42.6387 443.865 40.3369C444.129 38.5672 443.82 37.1053 442.931 35.9512V35.9576ZM457.118 31.6168C457.414 31.1744 457.665 31.0141 457.871 31.1295C458.135 31.2769 458.18 31.5398 458.006 31.9245L450.359 49.3327C449.857 50.8972 450.005 52.4937 450.803 54.1159C451.518 55.6227 451.769 56.9243 451.557 58.0143C451.228 59.2518 450.52 60.0212 449.42 60.3162C448.473 60.5534 447.669 60.3482 447.019 59.6942C446.336 58.9248 446.053 57.745 446.175 56.1485C446.356 54.6994 446.291 53.385 445.995 52.2052C445.641 51.0831 444.689 50.1534 443.15 49.416C442.854 49.2365 442.751 49.0185 442.841 48.7492C442.957 48.5697 443.215 48.5248 443.594 48.6145C445.371 48.5825 446.369 48.435 446.575 48.1721L457.112 31.6039L457.118 31.6168ZM467.43 22.8903H460.272V25.7692C460.272 26.5065 459.944 27.0259 459.294 27.3208C458.315 27.6735 457.292 27.6607 456.223 27.276C455.631 26.981 455.335 26.5065 455.335 25.8589V22.8903H446.665L444.038 23.2878C443.742 23.4032 443.581 23.3647 443.549 23.1531C443.369 22.653 443.221 22.1208 443.105 21.5566C443.047 21.3514 443.208 21.2937 443.594 21.3771L446.665 21.6848H455.335L455.38 18.1391V17.3889C455.412 17.1837 455.528 17.094 455.734 17.126C457.124 17.2735 458.624 17.4979 460.227 17.7928C461.09 17.9403 461.502 18.2353 461.469 18.6777C461.502 19.1201 461.231 19.4279 460.671 19.6074C460.407 19.7549 460.272 19.9793 460.272 20.2742V21.6912H467.43L467.475 18.1455V17.3953C467.507 17.1901 467.623 17.1004 467.829 17.1324C469.219 17.2799 470.719 17.5043 472.322 17.7993C473.184 17.9467 473.596 18.2417 473.564 18.6841C473.596 19.1265 473.326 19.4343 472.766 19.6138C472.502 19.7613 472.367 19.9857 472.367 20.2806V21.6977H476.77C477.156 21.6977 477.452 21.5502 477.658 21.2552C478.43 20.1652 479.274 19.0688 480.194 17.9788C480.432 17.7159 480.741 17.6838 481.127 17.889C482.936 18.979 484.462 20.3383 485.71 21.967C485.916 22.2042 485.974 22.4094 485.891 22.5889C485.775 22.7941 485.517 22.8967 485.138 22.8967H472.373V25.7756C472.373 26.5129 472.045 27.0323 471.395 27.3273C470.417 27.6799 469.393 27.6671 468.325 27.2824C467.732 26.9874 467.436 26.5129 467.436 25.8654V22.8967L467.43 22.8903ZM445.686 27.5837C445.506 27.4363 445.435 27.2567 445.461 27.0515C445.493 26.872 445.641 26.7887 445.905 26.7887C446.085 26.7887 446.575 26.8015 447.373 26.8335C449.922 27.0964 451.73 27.9428 452.799 29.3598C453.301 30.2446 453.449 31.2321 453.243 32.3285C453.037 33.3031 452.516 33.9379 451.685 34.2328C449.786 34.8547 448.557 34.0084 447.997 31.7065C447.643 29.7573 446.871 28.3852 445.686 27.5901V27.5837ZM463.696 57.9694V58.5465C463.696 59.3415 463.458 59.893 462.982 60.1879C462.358 60.5406 461.65 60.7329 460.845 60.765C460.253 60.765 459.764 60.6303 459.377 60.3674C459.171 60.1879 459.081 59.8224 459.113 59.2582V46.9859C456.384 47.3963 454.118 47.563 452.31 47.4732C451.956 47.4155 451.775 47.2937 451.775 47.1206C451.808 46.8834 452.664 46.6333 454.357 46.3704C459.126 45.2804 463.336 43.312 466.986 40.4779C465.325 38.8237 464.096 37.1438 463.297 35.4254C460.658 38.439 458.006 40.4779 455.335 41.5359C455.129 41.5936 454.981 41.5679 454.891 41.4461C454.833 41.2409 454.891 41.0742 455.071 40.9588C458.714 37.2656 461.122 32.617 462.274 27.0067C462.332 26.7694 462.499 26.654 462.763 26.654C464.424 26.981 466.027 27.4683 467.565 28.1159C468.247 28.4429 468.576 28.7956 468.543 29.1803C468.485 29.5329 468.131 29.7253 467.475 29.7573C467.295 29.7894 466.896 30.2895 466.271 31.2641H472.85C473.178 31.2641 473.474 31.1166 473.738 30.8217C474.182 30.2575 474.639 29.7894 475.115 29.4047C475.379 29.1674 475.708 29.1803 476.094 29.4496C477.606 30.4562 478.759 31.4565 479.563 32.4631C479.859 32.8478 479.949 33.1877 479.827 33.4826C479.711 33.8353 479.235 34.0276 478.405 34.0597C478.076 34.1174 477.812 34.3226 477.606 34.6816C476.216 36.9835 474.716 38.8878 473.114 40.3946C476.345 41.1896 480.316 41.4012 485.028 41.0165C485.44 40.9588 485.71 41.0293 485.826 41.2409C485.884 41.4782 485.768 41.6513 485.472 41.7731C484.436 42.2476 483.593 42.985 482.936 43.9852C482.434 44.6969 482.164 45.492 482.138 46.3768C482.106 46.7615 481.9 46.9411 481.514 46.909C477.156 46.5243 473.287 45.1842 469.908 42.876C467.121 44.5879 464.173 45.8446 461.057 46.6397C461.83 46.8769 462.808 47.3065 463.993 47.9221H473.107C473.165 47.89 473.732 47.345 474.8 46.2806C474.948 46.1652 475.128 46.146 475.334 46.2358C476.847 46.7679 478.282 47.5181 479.647 48.4927C480.535 49.1724 480.4 49.7751 479.248 50.3073C478.952 50.4547 478.804 50.7176 478.804 51.1023V59.0723C478.772 59.6621 478.521 60.1046 478.051 60.3995C477.516 60.6944 476.718 60.8868 475.65 60.9766C474.967 60.9766 474.491 60.797 474.227 60.4444C473.989 60.1174 473.873 59.6493 473.873 59.0274V57.963H463.69L463.696 57.9694ZM463.696 56.7768H473.88V49.3776C473.764 49.1147 473.596 49.0249 473.39 49.1147H464.63L463.696 49.2493V56.7768ZM466.188 36.7078C466.928 37.3554 467.848 38.0094 468.943 38.657C469.683 37.7401 470.101 37.2848 470.185 37.2848C472.142 34.7778 473.12 33.1684 473.12 32.4567H466.226L465.428 32.5914C464.984 33.1556 464.565 33.7134 464.186 34.2777C464.81 35.2523 465.473 36.0666 466.188 36.7142V36.7078Z" fill="#7D272B"/>
<path d="M502.382 37.2399H496.865C496.511 48.73 494.008 56.328 489.354 60.0533C489.025 60.2584 488.807 60.2777 488.684 60.0981C488.652 60.0084 488.877 59.3031 489.354 57.9694C491.13 53.0644 492.019 44.9919 492.019 33.7391V24.5702C492.051 24.2175 492.167 24.0829 492.373 24.1726C493.885 24.7048 495.591 25.4742 497.483 26.4745H510.421C510.331 25.8525 510.241 23.0634 510.158 18.1006C510.158 17.748 510.261 17.5813 510.467 17.6133C512.571 17.9083 514.348 18.293 515.803 18.7674C516.395 18.947 516.704 19.2227 516.736 19.6074C516.768 20.1075 516.408 20.5499 515.667 20.9346C515.429 21.0821 515.313 22.9287 515.313 26.4745H521.763C522.117 26.4745 522.388 26.3398 522.561 26.0769C523.302 24.9549 524.132 23.8905 525.052 22.8903C525.291 22.6274 525.587 22.5953 525.941 22.8005C527.691 23.8328 529.159 25.1472 530.343 26.7438C530.549 26.981 530.607 27.1862 530.524 27.3657C530.408 27.5709 530.15 27.6735 529.771 27.6735H515.41C515.738 34.7906 516.627 40.1637 518.075 43.7993C520.328 39.638 521.68 35.6049 522.124 31.7065C522.156 31.4693 522.304 31.3667 522.568 31.3988C524.525 31.7514 526.32 32.3285 527.949 33.1235C528.599 33.4762 528.882 33.8481 528.792 34.2328C528.702 34.5598 528.393 34.7329 527.859 34.765C527.473 34.7329 527.222 34.9124 527.106 35.2972C525.091 40.7921 522.883 45.1457 520.482 48.3645C522.439 51.1408 524.042 52.5258 525.284 52.5258C525.49 52.5578 525.696 52.4809 525.909 52.3013C526.237 52.0385 526.726 51.4614 527.376 50.5766C527.376 50.0123 527.524 49.7174 527.82 49.6917C528.149 49.6597 528.367 49.9546 528.49 50.5766C528.194 51.4935 528.045 52.1282 528.045 52.4809C527.84 53.635 528.535 54.8276 530.137 56.0715C531.026 57.014 531.232 57.9887 530.762 58.9953C530.434 59.707 529.738 60.0597 528.67 60.0597C526.745 60.0917 524.563 59.1748 522.13 57.3154C520.231 55.8663 518.57 54.1095 517.148 52.0449C512.848 56.1228 507.943 58.835 502.427 60.1943C502.163 60.2264 502.015 60.1815 501.983 60.0597C501.925 59.8545 502.961 59.1748 505.098 58.0207C508.033 56.1036 511.368 52.9554 515.101 48.5889C512.61 43.5107 511.084 36.5411 510.518 27.6799H496.956V33.7455C496.956 34.5406 496.943 35.31 496.911 36.0473H501.532C501.886 36.0473 502.124 35.9127 502.247 35.6498C502.781 34.7906 503.418 33.816 504.158 32.726C504.455 32.3157 504.841 32.2515 505.317 32.5465C506.501 33.4057 507.557 34.5534 508.471 36.0025C508.735 36.3295 508.812 36.6244 508.696 36.8873C508.606 37.1245 508.387 37.2399 508.027 37.2399H507.274C507.242 42.8503 507.049 46.4538 506.695 48.0503C506.366 49.6148 505.703 50.8138 504.693 51.6409C503.624 52.5578 502.157 53.1157 500.29 53.3272C500.026 53.2952 499.904 53.1798 499.936 52.9746C500.026 51.1729 499.163 49.7238 497.355 48.6338C496.968 48.4286 496.82 48.1785 496.911 47.8836C497.001 47.6207 497.22 47.5309 497.58 47.6207C498.764 47.8836 499.717 47.9605 500.425 47.8451C501.14 47.5502 501.597 46.9026 501.803 45.8959C502.066 44.9534 502.26 42.0745 502.382 37.2592V37.2399ZM517.277 18.3314C517.096 18.184 517.026 18.0044 517.051 17.7993C517.109 17.5941 517.245 17.4915 517.45 17.4915C518.963 17.5235 520.27 17.8185 521.364 18.3763C522.606 18.9662 523.379 19.7228 523.675 20.6333C523.939 21.345 523.971 22.0631 523.765 22.8069C523.527 23.5443 522.993 24.0059 522.162 24.179C520.444 24.4163 519.523 23.6468 519.407 21.8772C519.143 20.5179 518.429 19.3381 517.27 18.3314H517.277Z" fill="#7D272B"/>
<path d="M48.3213 16.3694L24.1574 20.6141V16.6002L48.3213 12.3556V16.3694ZM48.3213 20.3768L72.4852 24.6215V20.6076L48.3213 16.363V20.3768ZM48.3213 20.3768L24.1574 24.6215V28.6353L48.3213 24.3906V20.3768ZM24.1639 28.6353L0 32.8735V36.8873L24.1639 32.6427V28.6288V28.6353ZM24.1639 36.6565L48.3277 40.9011V36.8873L24.1639 32.6427V36.6565ZM24.1639 36.6501L0 40.8947V44.9085L24.1639 40.6639V36.6501ZM72.4852 28.6353L48.3213 32.8799V36.8937L72.4852 32.6491V28.6353ZM72.4852 36.6565L96.649 40.9011V36.8873L72.4852 32.6427V36.6565ZM72.4852 36.6501L48.3213 40.8947V44.9085L72.4852 40.6639V36.6501ZM5.23958 62.2846L5.34257 61.0663H1.44185V53.09H0V62.2846H5.23958ZM8.0911 62.2846H9.53295V53.09H8.0911V62.2846ZM17.3473 62.2846H18.7891V53.09H17.3473V62.2846ZM21.9818 62.2846H23.3464V55.2123L28.483 62.2846H30.0407V53.09H28.6761V60.1238L23.5524 53.09H21.9818V62.2846ZM41.0927 61.8422C41.0927 61.8422 41.067 61.2843 41.067 60.7457V58.0271H39.6251V60.9381C38.9879 61.1048 38.3635 61.1817 37.8936 61.1817C35.5571 61.1817 34.2954 59.6686 34.2954 57.5719C34.2954 55.4752 35.6214 54.2057 37.9194 54.2057C38.6982 54.2057 39.6573 54.3339 40.6872 54.6737L40.8031 53.4427C39.9212 53.1221 38.8398 52.9618 37.9451 52.9618C34.8361 52.9618 32.7957 54.6737 32.7957 57.6617C32.7957 60.6496 34.746 62.4128 37.9065 62.4128C38.9042 62.4128 39.9856 62.2076 41.0927 61.8422ZM55.5048 61.8422C55.5048 61.8422 55.4791 61.2843 55.4791 60.7457V58.0271H54.0372V60.9381C53.4 61.1048 52.7756 61.1817 52.3057 61.1817C49.9691 61.1817 48.7075 59.6686 48.7075 57.5719C48.7075 55.4752 50.0335 54.2057 52.3314 54.2057C53.1103 54.2057 54.0694 54.3339 55.0993 54.6737L55.2151 53.4427C54.3333 53.1221 53.2519 52.9618 52.3572 52.9618C49.2482 52.9618 47.2077 54.6737 47.2077 57.6617C47.2077 60.6496 49.1581 62.4128 52.3186 62.4128C53.3227 62.4128 54.3977 62.2076 55.5048 61.8422ZM77.4029 57.5462C77.4029 54.802 75.4912 52.9489 72.5817 52.9489C69.6723 52.9489 67.6962 54.802 67.6962 57.5847C67.6962 60.3674 69.6465 62.4256 72.4272 62.4256C75.4204 62.4256 77.4029 60.4572 77.4029 57.5462ZM75.8967 57.6745C75.8967 59.7198 74.6479 61.1946 72.5431 61.1946H72.4401C70.5026 61.1946 69.1895 59.5531 69.1895 57.4501C69.1895 55.5842 70.5026 54.1864 72.4659 54.1864C74.5836 54.1864 75.8967 55.5714 75.8967 57.6681V57.6745ZM87.7662 58.3221V53.09H86.3887V58.2451C86.3887 60.0853 85.7386 61.1689 84.0328 61.1689C82.1469 61.1689 81.5353 60.0404 81.5353 58.1105V53.09H80.0935V58.2066C80.0935 61.0407 81.2135 62.4256 83.9041 62.4256C86.5947 62.4256 87.7662 60.8868 87.7662 58.3221ZM90.9202 62.2846H92.3621V54.3211H93.0251C94.4283 54.3211 95.381 54.8917 95.381 56.1741C95.381 57.2898 94.5378 57.963 93.4435 57.963C93.2504 57.963 93.186 57.963 92.9865 57.9502V59.0915C93.2568 59.1171 93.3534 59.1171 93.6752 59.1171C95.4582 59.1171 96.8614 57.9502 96.8614 56.1036C96.8614 54.148 95.2394 53.0964 93.1152 53.0964H90.9202V62.291V62.2846ZM63.8469 62.2718H65.6428L63.1518 58.3092C64.2396 57.7899 64.6515 56.905 64.6515 55.924C64.6515 54.039 63.1067 53.1092 60.9053 53.1092H58.6782V62.2718H60.1136V58.7965H61.8L63.8405 62.2718H63.8469ZM63.1518 56.0459C63.1518 57.091 62.4373 57.7386 61.4524 57.7386C60.7766 57.7386 60.12 57.7129 60.12 57.7129V54.2826H60.7959C62.1669 54.2826 63.1518 54.7891 63.1518 56.0523V56.0459ZM14.1031 53.1092H12.6677V61.9704C12.6677 63.6503 12.2171 64.5223 11.7923 65.1699L12.481 65.638C12.481 65.638 14.0967 64.5351 14.0967 61.8999V53.1028L14.1031 53.1092ZM162.427 34.8034V22.0054H181.371V34.8034H162.427ZM178.77 32.3541V29.5265H165.027V32.3541H178.77ZM165.027 24.4483V27.0836H178.77V24.4483H165.027ZM170.505 36.6885V50.8074H156.917V36.6885H170.505ZM159.479 39.1763V42.4656H167.943V39.1763H159.479ZM167.943 48.326V44.838H159.479V48.326H167.943ZM186.971 36.6885V50.8074H173.382V36.6885H186.971ZM175.944 39.1763V42.4656H184.409V39.1763H175.944ZM184.409 48.326V44.838H175.944V48.326H184.409ZM118.657 24.4034H132.76V22.1016H118.657V24.4034ZM134.35 24.4034H149.244V22.1016H134.35V24.4034ZM121.553 42.2155C120.736 49.3198 118.103 52.3526 118.103 52.3526L116.404 50.3073C117.871 48.0182 119.204 44.7418 119.204 39.4905V32.2451H132.354V31.2256H130.063V27.4298H126.361L128.132 31.2256H125.377L123.825 27.4298H121.843V31.2256H119.352V25.3075H132.554V30.4883H134.575V25.3075H148.092V31.2256H145.601V27.4298H141.527L143.297 31.2256H140.542L138.991 27.4298H137.066V31.2256H134.813V32.2451H149.096V34.547H139.229V36.0858H147.661V42.2155H121.56H121.553ZM121.708 39.9842H127.803V38.3492H121.708V39.9842ZM130.327 39.9842H136.693V38.3492H130.327V39.9842ZM139.222 38.3492V39.9842H145.093V38.3492H139.222ZM136.693 34.547H130.327V36.0858H136.693V34.547ZM121.708 34.547V36.0858H127.803V34.547H121.708ZM126.336 49.057V46.6333H133.764V44.3827H126.336V42.6836H123.767V49.198H121.16V51.782C121.16 51.782 128.698 51.6025 134.613 50.1085L133.584 47.8708C131.009 48.4927 128.434 48.8582 126.342 49.0506L126.336 49.057ZM139.821 49.3904C138.72 49.3904 138.546 49.2493 138.546 48.7813V47.8644C140.259 47.5887 145.125 46.7295 148.62 45.3894L147.011 43.2158C147.011 43.2158 143.825 44.6071 138.553 45.5946V42.6836H136.017V48.6081C136.017 51.4806 137.401 51.7243 140.111 51.7243C142.235 51.7243 147.049 51.7948 151.008 50.0059L149.103 47.89C145.884 49.5635 141.198 49.3904 139.827 49.3904H139.821ZM223.5 28.1608H226.248V30.5332H223.5V34.9381H215.222V37.2143H223.899V39.5867H215.222V41.8629H225.456V44.3122H215.222V47.8323H212.66V44.3122H203.359V41.8629H212.66V39.5867H204.723V37.2143H212.66V34.9381H204.987V32.5657H212.66V30.5332H202.625V28.1608H212.66V26.1282H205.303V23.7559H212.66V20.9924H215.222V23.7559H223.5V28.1608ZM215.215 28.1608H220.893V26.1282H215.215V28.1608ZM220.899 30.5332H215.222V32.5657H220.899V30.5332ZM200.565 44.9406C201.885 41.3499 202.303 36.5475 202.413 34.6816L202.522 32.6491H198.242L202.818 23.0121H194V25.5319H198.608L193.845 35.1689H199.709C199.542 38.0607 199.188 40.5869 198.538 42.6964C198.531 42.69 198.518 42.6772 198.512 42.6708C197.34 40.7023 196.388 37.6054 196.137 36.6693L193.762 37.6247C194.463 40.2663 195.532 42.8439 197.212 45.3766C197.25 45.4279 197.302 45.492 197.36 45.5561C197.321 45.6395 197.057 46.1973 196.948 46.3832C195.287 48.9928 192.873 50.2752 192.873 50.2752L195.03 51.8141C195.03 51.8141 197.328 50.833 199.355 47.4348C202.535 49.9097 207.581 52.3975 225.54 51.019L226.152 48.4607C209.229 49.6084 204.015 47.9798 200.552 44.9406H200.565ZM233.824 40.6895H244.31V50.8074H233.824V40.6895ZM241.851 43.0683H236.277V48.3645H241.851V43.0683ZM239.708 21.3642H236.669L237.744 25.0446H232.164V27.4875H245.539V25.0446H240.738L239.708 21.3642ZM258.304 45.851C261.426 43.1453 263.17 39.5739 263.962 37.599H264.032V35.0792H247.516V37.599H261.181C260.885 38.33 259.424 41.6 256.102 44.4468C254.422 42.9337 252.375 40.5036 251.152 38.689L248.777 39.5931C250.225 41.8116 252.169 44.0429 254.03 45.9857C250.921 47.9926 247.387 49.3904 245.797 49.82L247.612 51.7563C249.788 51.051 252.967 49.743 256.083 47.563C260.209 50.7369 264.972 51.891 264.972 51.891L266.877 49.7815C266.877 49.7815 263.015 49.4289 258.117 46.0113C258.181 45.96 258.246 45.9152 258.304 45.8575V45.851ZM233.824 37.8298H244.31V35.4575H233.824V37.8298ZM233.824 32.5593H244.31V30.1164H233.824V32.5593ZM260.994 22.5248H250.29V26.4296C250.29 29.1033 250.18 30.11 247.001 31.8027C246.833 31.8925 246.357 32.1489 246.17 32.2451L247.561 34.2969L248.275 33.8545C249.955 32.803 252.787 31.3539 252.787 27.3144V24.8779H258.445V29.6034C258.445 32.0656 258.696 33.0402 260.782 33.0402H265.906V30.5396H261.271C260.994 30.5396 260.994 30.3152 260.994 29.7189V22.5248Z" fill="#7A262A"/>
<path d="M307.603 0V78" stroke="#7A262A" stroke-width="0.46" stroke-miterlimit="10"/>
</g>
<defs>
<clipPath id="clip0_4_57">
<rect width="531" height="78" fill="white"/>
</clipPath>
</defs>
</svg>
