<svg width="837" height="79" viewBox="0 0 837 79" fill="none" xmlns="http://www.w3.org/2000/svg">
<path d="M10.136 5.974V2.858L21.452 6.794H19.976V27.95C19.976 31.886 19.812 36.068 19.484 40.496C19.156 44.924 18.3633 49.3793 17.106 53.862C15.9033 58.3447 14.0173 62.6633 11.448 66.818C8.93333 70.9727 5.43467 74.7447 0.952 78.134L0.132 77.56C3.19333 72.64 5.43467 67.4193 6.856 61.898C8.27733 56.3767 9.17933 50.746 9.562 45.006C9.94467 39.2113 10.136 33.5533 10.136 28.032V6.794V5.974ZM60.976 6.794L65.322 2.12L74.506 9.008C74.2873 9.336 73.8773 9.664 73.276 9.992C72.7293 10.2653 72.0187 10.5113 71.144 10.73V23.276C71.144 23.44 70.6793 23.686 69.75 24.014C68.8753 24.342 67.8367 24.6427 66.634 24.916C65.4313 25.1893 64.338 25.326 63.354 25.326H61.796V6.794H60.976ZM68.028 19.832V22.21H15.63V19.832H68.028ZM67.208 6.794V9.172H15.056V6.794H67.208ZM66.142 26.884C65.978 27.376 65.65 27.786 65.158 28.114C64.666 28.3873 63.9553 28.524 63.026 28.524C61.6047 29.836 59.828 31.3667 57.696 33.116C55.6187 34.8107 53.596 36.3413 51.628 37.708H50.48C50.9173 36.396 51.3547 34.92 51.792 33.28C52.2293 31.5853 52.6393 29.8907 53.022 28.196C53.4047 26.4467 53.7053 24.8887 53.924 23.522L66.142 26.884ZM28.258 23.604C31.866 23.9867 34.654 24.67 36.622 25.654C38.6447 26.638 40.0387 27.7587 40.804 29.016C41.5693 30.2733 41.8153 31.5033 41.542 32.706C41.3233 33.854 40.7493 34.838 39.82 35.658C38.9453 36.4233 37.852 36.806 36.54 36.806C35.228 36.806 33.8887 36.2593 32.522 35.166C32.4673 33.854 32.194 32.5147 31.702 31.148C31.2647 29.7813 30.6907 28.4967 29.98 27.294C29.2693 26.0367 28.4493 24.998 27.52 24.178L28.258 23.604ZM40.476 47.712C40.476 49.68 40.312 51.7847 39.984 54.026C39.656 56.2127 39.0273 58.4267 38.098 60.668C37.1687 62.9093 35.7747 65.1233 33.916 67.31C32.112 69.442 29.7067 71.4647 26.7 73.378C23.6933 75.2913 19.9213 76.986 15.384 78.462L14.81 77.56C18.3633 75.3733 21.2333 73.0773 23.42 70.672C25.6613 68.212 27.3287 65.6973 28.422 63.128C29.57 60.504 30.3353 57.9073 30.718 55.338C31.1553 52.7687 31.374 50.2267 31.374 47.712V36.806H40.476V47.712ZM59.992 76.002C59.992 76.2207 59.3087 76.6307 57.942 77.232C56.5753 77.8333 54.7167 78.134 52.366 78.134H50.644V36.806H59.992V76.002ZM69.504 46.318C69.504 46.318 69.7773 46.564 70.324 47.056C70.8707 47.4933 71.5813 48.0947 72.456 48.86C73.3307 49.5707 74.2327 50.336 75.162 51.156C76.146 51.976 77.0207 52.7687 77.786 53.534C77.5673 54.4087 76.8293 54.846 75.572 54.846H19.156L18.5 52.55H64.83L69.504 46.318ZM65.978 30.902C65.978 30.902 66.47 31.2847 67.454 32.05C68.438 32.7607 69.5587 33.6627 70.816 34.756C72.128 35.7947 73.3033 36.8333 74.342 37.872C74.1233 38.7467 73.3853 39.184 72.128 39.184H22.108L21.452 36.806H61.386L65.978 30.902ZM99.926 45.908H141.336V48.286H99.926V45.908ZM99.68 34.346H141.09V36.724H99.68V34.346ZM84.346 12.78H141.664L147.404 5.318C147.404 5.318 147.759 5.59133 148.47 6.138C149.181 6.68467 150.055 7.39533 151.094 8.27C152.187 9.14466 153.335 10.074 154.538 11.058C155.741 11.9873 156.834 12.9167 157.818 13.846C157.599 14.7207 156.807 15.158 155.44 15.158H85.002L84.346 12.78ZM115.752 1.382L128.708 2.612C128.599 3.15866 128.325 3.65066 127.888 4.088C127.505 4.52533 126.767 4.826 125.674 4.98999V75.346C125.674 75.6193 125.264 75.9747 124.444 76.412C123.679 76.904 122.695 77.3413 121.492 77.724C120.289 78.1067 119.059 78.298 117.802 78.298H115.752V1.382ZM94.104 22.866V18.848L104.6 22.866H142.976V25.244H103.944V50.254C103.944 50.582 103.507 50.992 102.632 51.484C101.812 51.976 100.773 52.4133 99.516 52.796C98.2587 53.1787 96.9467 53.37 95.58 53.37H94.104V22.866ZM137.646 22.866H136.826L141.418 17.864L151.012 25.162C150.739 25.49 150.329 25.818 149.782 26.146C149.235 26.4193 148.552 26.638 147.732 26.802V49.352C147.732 49.516 147.267 49.844 146.338 50.336C145.409 50.7733 144.288 51.1833 142.976 51.566C141.719 51.9487 140.516 52.14 139.368 52.14H137.646V22.866ZM112.39 46.154H124.69V47.466C120.645 53.9167 115.041 59.5747 107.88 64.44C100.719 69.3053 92.4367 73.214 83.034 76.166L82.46 75.1C86.888 72.7493 91.0153 70.016 94.842 66.9C98.6687 63.7293 102.058 60.3673 105.01 56.814C108.017 53.2607 110.477 49.7073 112.39 46.154ZM125.592 46.072C127.888 49.4067 130.867 52.386 134.53 55.01C138.247 57.634 142.293 59.8753 146.666 61.734C151.094 63.5927 155.467 64.9867 159.786 65.916L159.622 66.818C157.763 67.31 156.151 68.3213 154.784 69.852C153.417 71.3827 152.433 73.3233 151.832 75.674C147.623 73.7607 143.796 71.4373 140.352 68.704C136.908 65.916 133.874 62.6907 131.25 59.028C128.681 55.3107 126.494 51.1833 124.69 46.646L125.592 46.072ZM209.478 69.114C209.478 71.0273 209.205 72.64 208.658 73.952C208.166 75.264 207.1 76.3027 205.46 77.068C203.875 77.888 201.415 78.4073 198.08 78.626C198.025 77.478 197.889 76.4393 197.67 75.51C197.506 74.6353 197.151 73.8973 196.604 73.296C196.167 72.804 195.511 72.3393 194.636 71.902C193.761 71.5193 192.449 71.1913 190.7 70.918V69.852C190.7 69.852 191.028 69.8793 191.684 69.934C192.395 69.9887 193.187 70.0433 194.062 70.098C194.991 70.098 195.893 70.1253 196.768 70.18C197.643 70.2347 198.244 70.262 198.572 70.262C199.228 70.262 199.638 70.1527 199.802 69.934C199.966 69.6607 200.048 69.36 200.048 69.032V57.798H209.478V69.114ZM225.632 45.334C225.304 45.7713 224.703 46.0447 223.828 46.154C222.953 46.2087 221.887 45.8533 220.63 45.088L223.418 45.006C221.177 46.0993 218.307 47.302 214.808 48.614C211.309 49.8713 207.455 51.156 203.246 52.468C199.091 53.7253 194.8 54.928 190.372 56.076C185.999 57.1693 181.789 58.0987 177.744 58.864V58.208H181.024C180.86 60.2853 180.477 61.9253 179.876 63.128C179.275 64.3307 178.564 65.1233 177.744 65.506L173.644 56.896C173.644 56.896 174.027 56.8687 174.792 56.814C175.612 56.7047 176.295 56.568 176.842 56.404C180.341 55.6933 184.031 54.6273 187.912 53.206C191.793 51.7847 195.62 50.2267 199.392 48.532C203.164 46.8373 206.608 45.1427 209.724 43.448C212.895 41.6987 215.437 40.168 217.35 38.856L225.632 45.334ZM207.428 42.792C207.1 43.0653 206.526 43.1747 205.706 43.12C204.941 43.0653 204.066 42.6007 203.082 41.726L205.542 41.808C204.011 42.464 201.879 43.2293 199.146 44.104C196.467 44.924 193.543 45.744 190.372 46.564C187.201 47.3293 184.14 47.9307 181.188 48.368L181.106 47.466H183.976C183.812 49.106 183.484 50.418 182.992 51.402C182.5 52.3313 181.953 52.9053 181.352 53.124L177.99 46.482C177.99 46.482 178.263 46.4547 178.81 46.4C179.357 46.2907 179.794 46.1813 180.122 46.072C182.035 45.6893 184.003 45.088 186.026 44.268C188.103 43.3933 190.126 42.4367 192.094 41.398C194.062 40.3593 195.866 39.348 197.506 38.364C199.146 37.3253 200.485 36.4233 201.524 35.658L207.428 42.792ZM175.694 57.306C177.881 57.306 180.723 57.2513 184.222 57.142C187.775 57.0327 191.793 56.896 196.276 56.732C200.813 56.5133 205.651 56.2947 210.79 56.076C215.929 55.8027 221.204 55.5567 226.616 55.338L226.698 56.732C221.395 57.6613 214.589 58.782 206.28 60.094C197.971 61.406 188.623 62.7727 178.236 64.194L175.694 57.306ZM179.794 47.22C181.434 47.2747 183.675 47.302 186.518 47.302C189.361 47.2473 192.559 47.1927 196.112 47.138C199.665 47.0287 203.328 46.9193 207.1 46.81V48.286C204.367 48.7233 200.677 49.3247 196.03 50.09C191.438 50.8007 186.573 51.484 181.434 52.14L179.794 47.22ZM217.186 48.942C220.958 49.3247 224.019 50.0353 226.37 51.074C228.775 52.058 230.579 53.206 231.782 54.518C232.985 55.7753 233.695 57.0327 233.914 58.29C234.187 59.5473 234.078 60.6407 233.586 61.57C233.094 62.4993 232.301 63.128 231.208 63.456C230.169 63.7293 228.994 63.5107 227.682 62.8C227.026 61.324 226.042 59.766 224.73 58.126C223.473 56.486 222.106 54.928 220.63 53.452C219.209 51.9213 217.815 50.6367 216.448 49.598L217.186 48.942ZM213.168 63.702C218.361 63.4287 222.625 63.6473 225.96 64.358C229.295 65.014 231.864 65.9433 233.668 67.146C235.527 68.3487 236.757 69.6333 237.358 71C237.959 72.3667 238.069 73.624 237.686 74.772C237.303 75.92 236.565 76.74 235.472 77.232C234.379 77.7787 233.094 77.806 231.618 77.314C230.689 76.166 229.322 74.854 227.518 73.378C225.714 71.902 223.555 70.3987 221.04 68.868C218.58 67.3373 215.874 65.9707 212.922 64.768L213.168 63.702ZM194.964 66.736C194.745 67.1187 194.417 67.4467 193.98 67.72C193.597 67.9387 192.941 67.9933 192.012 67.884C190.153 69.2507 187.803 70.59 184.96 71.902C182.172 73.214 179.165 74.3893 175.94 75.428C172.715 76.5213 169.544 77.3687 166.428 77.97L165.69 76.986C168.15 75.7287 170.61 74.2527 173.07 72.558C175.53 70.8633 177.799 69.114 179.876 67.31C181.953 65.4513 183.621 63.7293 184.878 62.144L194.964 66.736ZM183.156 14.256H180.614L181.516 13.846C181.297 15.1033 181.024 16.634 180.696 18.438C180.368 20.242 180.013 22.128 179.63 24.096C179.247 26.064 178.837 27.9773 178.4 29.836C178.017 31.6947 177.662 33.28 177.334 34.592H178.072L175.038 38.118L167.576 33.198C168.177 32.706 168.915 32.2413 169.79 31.804C170.719 31.3667 171.567 31.0387 172.332 30.82L170.118 33.772C170.501 32.5147 170.911 30.902 171.348 28.934C171.785 26.9113 172.195 24.7793 172.578 22.538C173.015 20.2967 173.371 18.11 173.644 15.978C173.972 13.846 174.218 12.0147 174.382 10.484L183.156 14.256ZM186.436 4.006C186.272 4.44333 185.971 4.744 185.534 4.908C185.151 5.072 184.413 5.12666 183.32 5.072C181.188 7.696 178.537 10.3473 175.366 13.026C172.25 15.7047 168.997 17.864 165.608 19.504L164.788 18.848C166.1 17.372 167.412 15.6227 168.724 13.6C170.036 11.5227 171.211 9.39066 172.25 7.204C173.343 5.01733 174.218 2.91267 174.874 0.889998L186.436 4.006ZM181.598 26.146C183.293 25.9273 184.851 25.9547 186.272 26.228C187.748 26.4467 188.869 26.9933 189.634 27.868C190.126 28.4147 190.317 29.0433 190.208 29.754C190.153 30.4647 189.88 31.066 189.388 31.558C188.896 31.9953 188.295 32.214 187.584 32.214C186.928 32.214 186.245 31.8587 185.534 31.148C185.206 30.4373 184.632 29.6993 183.812 28.934C182.992 28.114 182.117 27.5127 181.188 27.13L181.598 26.146ZM182.828 17.7C184.413 17.4813 185.917 17.454 187.338 17.618C188.814 17.7273 189.989 18.192 190.864 19.012C191.411 19.5587 191.657 20.16 191.602 20.816C191.602 21.472 191.383 22.0733 190.946 22.62C190.563 23.112 190.017 23.3853 189.306 23.44C188.65 23.4947 187.912 23.1667 187.092 22.456C186.655 21.8 185.999 21.0893 185.124 20.324C184.304 19.5587 183.429 19.012 182.5 18.684L182.828 17.7ZM232.93 5.974C232.93 5.974 233.203 6.22 233.75 6.712C234.351 7.14933 235.089 7.75066 235.964 8.516C236.839 9.22667 237.741 10.0193 238.67 10.894C239.654 11.714 240.556 12.5067 241.376 13.272C241.157 14.1467 240.392 14.584 239.08 14.584H211.692V12.288H228.256L232.93 5.974ZM203.164 28.524C203.164 28.524 203.437 28.7973 203.984 29.344C204.531 29.836 205.159 30.4647 205.87 31.23C206.635 31.9407 207.319 32.6513 207.92 33.362C207.756 34.2367 207.1 34.674 205.952 34.674H175.284V32.296H200.458L203.164 28.524ZM198.982 2.858C198.982 2.858 199.419 3.186 200.294 3.84199C201.169 4.498 202.207 5.318 203.41 6.302C204.613 7.23133 205.679 8.16066 206.608 9.09C206.444 9.96466 205.733 10.402 204.476 10.402H175.53V8.024H194.718L198.982 2.858ZM223.418 4.498C223.254 4.99 222.899 5.4 222.352 5.72799C221.86 6.056 221.177 6.22 220.302 6.22C218.607 9.992 216.585 13.3813 214.234 16.388C211.938 19.34 209.396 21.8 206.608 23.768L205.624 23.03C207.045 20.2967 208.33 17.0167 209.478 13.19C210.681 9.30866 211.555 5.37266 212.102 1.382L223.418 4.498ZM204.066 18.356C204.066 18.356 204.339 18.6567 204.886 19.258C205.487 19.8593 206.171 20.5973 206.936 21.472C207.701 22.292 208.357 23.0847 208.904 23.85C208.74 24.7247 208.084 25.162 206.936 25.162H165.936L165.28 22.866H201.442L204.066 18.356ZM198.982 14.256V16.552H178.646V14.256H198.982ZM212.102 14.42C213.523 18.0827 215.491 21.226 218.006 23.85C220.575 26.474 223.801 28.6333 227.682 30.328C231.618 32.0227 236.265 33.2527 241.622 34.018L241.54 34.92C239.845 35.576 238.561 36.56 237.686 37.872C236.866 39.1293 236.347 40.7967 236.128 42.874C231.208 41.398 227.135 39.4027 223.91 36.888C220.739 34.3733 218.17 31.3393 216.202 27.786C214.234 24.2327 212.567 20.242 211.2 15.814L212.102 14.42ZM235.472 12.78C233.832 19.7227 230.579 25.4353 225.714 29.918C220.849 34.4007 214.343 37.79 206.198 40.086L205.706 39.02C211.774 35.9587 216.366 32.2413 219.482 27.868C222.598 23.44 224.566 18.4107 225.386 12.78H235.472ZM193.898 14.256L197.506 10.566L204.312 16.224C203.765 16.88 202.699 17.3173 201.114 17.536C200.895 22.456 200.567 26.4467 200.13 29.508C199.693 32.5693 199.119 34.9473 198.408 36.642C197.752 38.282 196.932 39.512 195.948 40.332C194.855 41.152 193.625 41.6167 192.258 41.726C190.946 41.8353 189.497 41.89 187.912 41.89C187.912 41.1247 187.83 40.5507 187.666 40.168C187.557 39.7853 187.283 39.4027 186.846 39.02C186.463 38.5827 185.889 38.2547 185.124 38.036C184.359 37.7627 183.484 37.544 182.5 37.38V36.068C183.484 36.1227 184.605 36.2047 185.862 36.314C187.119 36.3687 188.103 36.396 188.814 36.396C189.853 36.396 190.618 36.1773 191.11 35.74C191.985 35.0293 192.723 32.9793 193.324 29.59C193.98 26.2007 194.445 21.0893 194.718 14.256H193.898ZM307.55 2.448C307.495 2.88533 307.331 3.24066 307.058 3.514C306.785 3.78733 306.238 3.97866 305.418 4.088V18.684C305.418 18.848 304.981 19.1213 304.106 19.504C303.286 19.832 302.247 20.1327 300.99 20.406C299.787 20.6793 298.585 20.816 297.382 20.816H295.578V1.382L307.55 2.448ZM273.602 2.448C273.547 2.88533 273.356 3.24066 273.028 3.514C272.755 3.78733 272.208 3.97866 271.388 4.088V18.684C271.388 18.848 270.978 19.1213 270.158 19.504C269.338 19.832 268.299 20.1327 267.042 20.406C265.839 20.6793 264.637 20.816 263.434 20.816H261.548V1.382L273.602 2.448ZM315.832 4.416C315.832 4.416 316.269 4.826 317.144 5.646C318.073 6.41133 319.167 7.34066 320.424 8.434C321.681 9.52733 322.829 10.5933 323.868 11.632C323.649 12.5067 322.884 12.944 321.572 12.944H287.624L286.968 10.566H311.322L315.832 4.416ZM277.456 4.416C277.456 4.416 277.921 4.826 278.85 5.646C279.779 6.41133 280.873 7.34066 282.13 8.434C283.387 9.52733 284.481 10.5933 285.41 11.632C285.246 12.5067 284.535 12.944 283.278 12.944H246.952L246.296 10.566H273.028L277.456 4.416ZM274.176 30.574C274.176 30.574 274.586 30.9293 275.406 31.64C276.226 32.3507 277.183 33.198 278.276 34.182C279.369 35.166 280.353 36.0953 281.228 36.97C281.009 37.8447 280.271 38.282 279.014 38.282H249.002L248.346 35.986H270.24L274.176 30.574ZM271.388 27.13C271.333 27.5673 271.142 27.95 270.814 28.278C270.486 28.606 269.857 28.852 268.928 29.016V45.908C268.928 46.072 268.573 46.318 267.862 46.646C267.151 46.974 266.249 47.2747 265.156 47.548C264.063 47.7667 262.969 47.876 261.876 47.876H260.318V26.146L271.388 27.13ZM314.93 29.59C314.93 29.59 315.34 29.9453 316.16 30.656C317.035 31.3667 318.046 32.2413 319.194 33.28C320.342 34.264 321.381 35.2207 322.31 36.15C322.091 37.0247 321.353 37.462 320.096 37.462H291.724L291.068 35.084H310.912L314.93 29.59ZM309.6 27.13C309.545 27.5673 309.354 27.95 309.026 28.278C308.698 28.606 308.097 28.852 307.222 29.016V45.088C307.222 45.252 306.839 45.498 306.074 45.826C305.363 46.154 304.461 46.4547 303.368 46.728C302.275 46.9467 301.209 47.056 300.17 47.056H298.53V26.146L309.6 27.13ZM289.756 75.756C289.701 76.0293 288.991 76.494 287.624 77.15C286.257 77.8607 284.344 78.216 281.884 78.216H280.162V23.112H289.756V75.756ZM313.536 43.776C313.536 43.776 313.837 44.022 314.438 44.514C315.039 44.9513 315.805 45.5527 316.734 46.318C317.663 47.0287 318.62 47.8213 319.604 48.696C320.643 49.516 321.572 50.2813 322.392 50.992C322.173 51.8667 321.435 52.304 320.178 52.304H249.248L248.51 50.008H308.78L313.536 43.776ZM311.404 16.306C311.404 16.306 311.869 16.6887 312.798 17.454C313.782 18.1647 314.93 19.0393 316.242 20.078C317.554 21.062 318.757 22.0187 319.85 22.948C319.631 23.8227 318.893 24.26 317.636 24.26H251.544L250.806 21.964H306.812L311.404 16.306ZM310.748 55.01C310.748 55.01 311.076 55.256 311.732 55.748C312.443 56.24 313.29 56.896 314.274 57.716C315.313 58.4813 316.406 59.3013 317.554 60.176C318.702 61.0507 319.741 61.898 320.67 62.718C320.451 63.5927 319.686 64.03 318.374 64.03H252.528L251.872 61.734H305.254L310.748 55.01ZM371.346 0.807995C374.681 0.971996 377.223 1.464 378.972 2.284C380.776 3.04933 381.979 3.97866 382.58 5.072C383.236 6.11066 383.427 7.17666 383.154 8.27C382.881 9.30866 382.252 10.156 381.268 10.812C380.339 11.468 379.245 11.8233 377.988 11.878C376.731 11.878 375.446 11.3587 374.134 10.32C374.134 8.68 373.779 7.04 373.068 5.4C372.357 3.70533 371.565 2.33866 370.69 1.3L371.346 0.807995ZM376.922 52.058C376.594 54.7367 375.993 57.3333 375.118 59.848C374.243 62.308 372.767 64.6587 370.69 66.9C368.613 69.1413 365.579 71.2187 361.588 73.132C357.597 75.0453 352.349 76.74 345.844 78.216L345.024 77.068C350.053 75.2093 353.989 73.2687 356.832 71.246C359.675 69.278 361.779 67.2553 363.146 65.178C364.567 63.046 365.469 60.8867 365.852 58.7C366.289 56.5133 366.563 54.2993 366.672 52.058H376.922ZM388.484 51.976C388.484 52.3587 388.484 52.796 388.484 53.288C388.484 53.78 388.484 54.2173 388.484 54.6V66.9C388.484 67.3373 388.593 67.6653 388.812 67.884C389.031 68.048 389.495 68.13 390.206 68.13H393.896C394.607 68.13 395.235 68.13 395.782 68.13C396.383 68.13 396.848 68.1027 397.176 68.048C397.887 68.048 398.406 67.7473 398.734 67.146C399.117 66.5447 399.554 65.4787 400.046 63.948C400.593 62.3627 401.194 60.504 401.85 58.372H402.752L402.998 67.474C404.091 67.9113 404.775 68.4307 405.048 69.032C405.376 69.5787 405.54 70.2347 405.54 71C405.54 72.0387 405.157 72.9133 404.392 73.624C403.681 74.3347 402.397 74.854 400.538 75.182C398.734 75.5647 396.219 75.756 392.994 75.756H387.5C385.259 75.756 383.564 75.51 382.416 75.018C381.323 74.5807 380.585 73.8427 380.202 72.804C379.874 71.82 379.71 70.426 379.71 68.622V51.976H388.484ZM366.754 54.928C366.754 55.2013 366.344 55.5567 365.524 55.994C364.759 56.4313 363.775 56.8413 362.572 57.224C361.424 57.552 360.194 57.716 358.882 57.716H357.57V34.182V30.328L367.246 34.182H393.24V36.56H366.754V54.928ZM388.812 34.182L392.83 29.836L401.358 36.232C401.139 36.5053 400.757 36.806 400.21 37.134C399.718 37.4073 399.089 37.5987 398.324 37.708V54.6C398.324 54.764 397.914 55.01 397.094 55.338C396.274 55.666 395.29 55.994 394.142 56.322C393.049 56.5953 392.037 56.732 391.108 56.732H389.632V34.182H388.812ZM392.912 42.71V45.088H363.72V42.71H392.912ZM362.244 14.256C365.579 14.6387 368.121 15.2947 369.87 16.224C371.674 17.0987 372.904 18.11 373.56 19.258C374.271 20.406 374.489 21.5267 374.216 22.62C373.943 23.6587 373.369 24.5333 372.494 25.244C371.619 25.9 370.553 26.228 369.296 26.228C368.093 26.228 366.863 25.736 365.606 24.752C365.551 22.948 365.114 21.144 364.294 19.34C363.529 17.4813 362.627 15.9507 361.588 14.748L362.244 14.256ZM395.864 17.536C395.481 18.6293 394.443 19.094 392.748 18.93C391.327 20.1873 389.632 21.6633 387.664 23.358C385.696 25.0527 383.755 26.5833 381.842 27.95H380.612C380.995 26.638 381.405 25.1347 381.842 23.44C382.334 21.6907 382.799 19.9687 383.236 18.274C383.673 16.5247 384.029 14.9393 384.302 13.518L395.864 17.536ZM397.176 20.57C397.176 20.57 397.668 20.9527 398.652 21.718C399.636 22.4833 400.784 23.4127 402.096 24.506C403.408 25.5447 404.583 26.5833 405.622 27.622C405.403 28.4967 404.665 28.934 403.408 28.934H353.47L352.814 26.556H392.584L397.176 20.57ZM395.536 4.826C395.536 4.826 395.809 5.072 396.356 5.564C396.957 6.056 397.695 6.65733 398.57 7.368C399.445 8.07867 400.374 8.87133 401.358 9.746C402.342 10.6207 403.217 11.4407 403.982 12.206C403.763 13.0807 403.025 13.518 401.768 13.518H355.356L354.7 11.14H390.862L395.536 4.826ZM393.158 51.238V53.534H363.966V51.238H393.158ZM328.296 56.076C329.881 55.6933 332.123 55.0647 335.02 54.19C337.972 53.3153 341.279 52.304 344.942 51.156C348.659 50.008 352.431 48.778 356.258 47.466L356.504 48.286C354.427 50.1447 351.693 52.4407 348.304 55.174C344.969 57.8527 340.897 60.9413 336.086 64.44C335.813 65.588 335.184 66.3533 334.2 66.736L328.296 56.076ZM349.124 3.678C349.069 4.22466 348.823 4.71666 348.386 5.154C348.003 5.53666 347.238 5.81 346.09 5.974V54.108L336.988 56.978V2.612L349.124 3.678ZM350.764 16.224C350.764 16.224 351.147 16.634 351.912 17.454C352.732 18.274 353.689 19.2853 354.782 20.488C355.875 21.636 356.777 22.702 357.488 23.686C357.269 24.5607 356.586 24.998 355.438 24.998H329.116L328.46 22.702H346.91L350.764 16.224ZM492.952 2.448C492.843 2.88533 492.651 3.24066 492.378 3.514C492.105 3.78733 491.558 3.97866 490.738 4.088V16.06C490.738 16.2787 490.328 16.552 489.508 16.88C488.688 17.208 487.649 17.5087 486.392 17.782C485.135 18.0553 483.905 18.192 482.702 18.192H480.898V1.382L492.952 2.448ZM458.348 2.448C458.293 2.88533 458.129 3.24066 457.856 3.514C457.583 3.78733 457.036 3.97866 456.216 4.088V16.88C456.216 17.044 455.779 17.3173 454.904 17.7C454.084 18.028 453.045 18.3287 451.788 18.602C450.585 18.8753 449.383 19.012 448.18 19.012H446.376V1.382L458.348 2.448ZM498.118 48.286V50.664H432.6L431.862 48.286H498.118ZM438.012 44.268L448.508 48.286H447.442V75.428C447.442 75.756 446.759 76.3027 445.392 77.068C444.025 77.8333 442.139 78.216 439.734 78.216H438.012V48.286V44.268ZM491.722 48.286L495.822 43.53L505.252 50.5C505.033 50.828 504.623 51.156 504.022 51.484C503.421 51.812 502.71 52.058 501.89 52.222V68.294C501.89 70.1527 501.617 71.738 501.07 73.05C500.523 74.4167 499.375 75.51 497.626 76.33C495.931 77.2047 493.28 77.806 489.672 78.134C489.563 76.822 489.371 75.674 489.098 74.69C488.879 73.706 488.469 72.9133 487.868 72.312C487.212 71.7107 486.365 71.1913 485.326 70.754C484.287 70.262 482.757 69.852 480.734 69.524V68.376C480.734 68.376 481.144 68.4033 481.964 68.458C482.784 68.5127 483.795 68.5947 484.998 68.704C486.201 68.8133 487.349 68.8953 488.442 68.95C489.535 69.0047 490.328 69.032 490.82 69.032C491.476 69.032 491.913 68.8953 492.132 68.622C492.405 68.3487 492.542 67.9387 492.542 67.392V48.286H491.722ZM478.192 52.468C481.472 53.1787 484.041 54.1353 485.9 55.338C487.813 56.5407 489.125 57.8253 489.836 59.192C490.601 60.504 490.929 61.7613 490.82 62.964C490.711 64.112 490.301 65.0687 489.59 65.834C488.879 66.5993 487.977 67.0093 486.884 67.064C485.791 67.1187 484.643 66.654 483.44 65.67C483.385 64.194 483.057 62.6907 482.456 61.16C481.855 59.5747 481.117 58.0713 480.242 56.65C479.367 55.2287 478.411 53.9987 477.372 52.96L478.192 52.468ZM449.164 59.848C451.351 59.7933 454.33 59.7113 458.102 59.602C461.874 59.4927 466.165 59.3287 470.976 59.11C475.787 58.8367 480.761 58.5633 485.9 58.29V59.438C482.565 60.5313 478.383 61.7887 473.354 63.21C468.379 64.6313 462.366 66.244 455.314 68.048C455.041 68.5947 454.685 69.0047 454.248 69.278C453.811 69.5513 453.373 69.7427 452.936 69.852L449.164 59.848ZM473.682 21.062V61.652L464.58 62.062V21.062H473.682ZM452.69 43.694C452.69 43.9673 452.307 44.35 451.542 44.842C450.777 45.2793 449.793 45.6893 448.59 46.072C447.387 46.4 446.13 46.564 444.818 46.564H443.506V20.16V16.306L453.264 20.16H488.852V22.456H452.69V43.694ZM484.998 20.16L489.262 15.568L498.2 22.292C497.981 22.5653 497.599 22.866 497.052 23.194C496.56 23.4673 495.931 23.686 495.166 23.85V42.218C495.166 42.4913 494.729 42.8467 493.854 43.284C493.034 43.7213 492.023 44.1313 490.82 44.514C489.617 44.8967 488.497 45.088 487.458 45.088H485.818V20.16H484.998ZM489.918 39.02V41.316H449.82V39.02H489.918ZM489.918 29.508V31.804H449.82V29.508H489.918ZM499.922 3.432C499.922 3.432 500.387 3.842 501.316 4.662C502.245 5.42733 503.339 6.35666 504.596 7.45C505.853 8.54333 506.974 9.60933 507.958 10.648C507.739 11.5227 507.001 11.96 505.744 11.96H472.37L471.714 9.582H495.494L499.922 3.432ZM462.858 3.432C462.858 3.432 463.295 3.842 464.17 4.662C465.099 5.42733 466.193 6.35666 467.45 7.45C468.707 8.54333 469.828 9.60933 470.812 10.648C470.648 11.5227 469.91 11.96 468.598 11.96H432.518L431.862 9.582H458.43L462.858 3.432ZM527.966 8.352V7.532V4.334L539.446 8.352H537.97V33.854C537.97 37.79 537.751 41.808 537.314 45.908C536.877 49.9533 535.92 53.944 534.444 57.88C533.023 61.7613 530.781 65.4513 527.72 68.95C524.713 72.394 520.613 75.4827 515.42 78.216L514.682 77.56C518.618 73.46 521.515 69.0867 523.374 64.44C525.287 59.7387 526.517 54.8187 527.064 49.68C527.665 44.5413 527.966 39.2933 527.966 33.936V8.352ZM532.312 8.352H571.836V10.648H532.312V8.352ZM544.448 16.388C548.439 17.4267 551.555 18.7113 553.796 20.242C556.092 21.718 557.677 23.3033 558.552 24.998C559.427 26.638 559.782 28.196 559.618 29.672C559.454 31.0933 558.907 32.2687 557.978 33.198C557.103 34.1273 555.983 34.592 554.616 34.592C553.249 34.592 551.855 33.9907 550.434 32.788C550.325 30.9293 549.915 29.0433 549.204 27.13C548.548 25.2167 547.728 23.3853 546.744 21.636C545.76 19.8867 544.721 18.3013 543.628 16.88L544.448 16.388ZM566.998 8.352H566.178L570.606 3.35L579.708 10.484C579.489 10.7573 579.134 11.058 578.642 11.386C578.15 11.6593 577.521 11.878 576.756 12.042V66.326C576.756 68.5673 576.455 70.4807 575.854 72.066C575.307 73.706 574.077 74.9907 572.164 75.92C570.251 76.904 567.353 77.5873 563.472 77.97C563.308 76.33 563.035 74.936 562.652 73.788C562.324 72.64 561.805 71.7107 561.094 71C560.274 70.2347 559.235 69.5787 557.978 69.032C556.775 68.4307 554.971 67.9387 552.566 67.556V66.408C552.566 66.408 553.085 66.4353 554.124 66.49C555.217 66.5447 556.502 66.6267 557.978 66.736C559.509 66.8453 560.93 66.9273 562.242 66.982C563.609 67.0367 564.538 67.064 565.03 67.064C565.795 67.064 566.315 66.9273 566.588 66.654C566.861 66.326 566.998 65.8613 566.998 65.26V8.352ZM512.468 39.758H577.822L582.742 32.378C582.742 32.378 583.043 32.6513 583.644 33.198C584.245 33.7447 584.983 34.4553 585.858 35.33C586.787 36.2047 587.744 37.134 588.728 38.118C589.712 39.0473 590.587 39.9493 591.352 40.824C591.188 41.6987 590.45 42.136 589.138 42.136H513.124L512.468 39.758ZM624.316 1.218C628.252 1.27267 631.395 1.73733 633.746 2.612C636.097 3.48666 637.737 4.58 638.666 5.892C639.65 7.14933 640.087 8.434 639.978 9.746C639.923 11.058 639.459 12.1787 638.584 13.108C637.764 14.0373 636.643 14.6113 635.222 14.83C633.801 15.0487 632.297 14.666 630.712 13.682C630.384 12.206 629.837 10.73 629.072 9.254C628.307 7.778 627.432 6.41133 626.448 5.154C625.519 3.842 624.589 2.694 623.66 1.71L624.316 1.218ZM638.502 75.756C638.502 76.084 637.764 76.6033 636.288 77.314C634.867 78.0793 632.871 78.462 630.302 78.462H628.416V15.896H638.502V75.756ZM614.968 63.784C614.968 64.112 614.558 64.5493 613.738 65.096C612.918 65.588 611.879 66.0253 610.622 66.408C609.419 66.7907 608.135 66.982 606.768 66.982H605.292V28.524V24.424L615.624 28.524H656.87V30.902H614.968V63.784ZM651.13 28.524L655.476 23.522L665.07 30.82C664.797 31.0933 664.359 31.394 663.758 31.722C663.211 32.05 662.528 32.296 661.708 32.46V56.732C661.708 58.864 661.435 60.6953 660.888 62.226C660.396 63.702 659.275 64.9047 657.526 65.834C655.777 66.7087 653.125 67.31 649.572 67.638C649.517 66.1073 649.353 64.8227 649.08 63.784C648.861 62.6907 648.479 61.7613 647.932 60.996C647.385 60.34 646.647 59.7387 645.718 59.192C644.843 58.6453 643.477 58.2353 641.618 57.962V56.814C641.618 56.814 641.973 56.8413 642.684 56.896C643.395 56.9507 644.242 57.0053 645.226 57.06C646.265 57.1147 647.249 57.1693 648.178 57.224C649.107 57.224 649.818 57.224 650.31 57.224C650.966 57.224 651.403 57.1147 651.622 56.896C651.841 56.6227 651.95 56.2673 651.95 55.83V28.524H651.13ZM661.954 7.942C661.954 7.942 662.309 8.21533 663.02 8.76199C663.731 9.30866 664.633 10.0193 665.726 10.894C666.819 11.714 667.94 12.616 669.088 13.6C670.291 14.5293 671.357 15.404 672.286 16.224C672.122 17.0987 671.384 17.536 670.072 17.536H595.862L595.124 15.24H656.296L661.954 7.942ZM710.252 2.448C715.008 4.088 718.807 5.94666 721.65 8.024C724.547 10.1013 726.652 12.2333 727.964 14.42C729.331 16.552 730.041 18.5747 730.096 20.488C730.205 22.3467 729.85 23.8773 729.03 25.08C728.21 26.2827 727.089 26.966 725.668 27.13C724.247 27.294 722.716 26.7473 721.076 25.49C720.584 22.9207 719.709 20.2967 718.452 17.618C717.249 14.9393 715.855 12.3427 714.27 9.828C712.685 7.31333 711.072 5.04466 709.432 3.022L710.252 2.448ZM710.006 17.454C709.951 18.0007 709.705 18.4927 709.268 18.93C708.831 19.3127 708.12 19.5587 707.136 19.668V62.144C707.136 63.128 707.437 63.8113 708.038 64.194C708.694 64.5767 709.924 64.768 711.728 64.768H721.732C723.645 64.768 725.313 64.768 726.734 64.768C728.155 64.7133 729.249 64.6587 730.014 64.604C730.725 64.5493 731.271 64.44 731.654 64.276C732.091 64.0573 732.474 63.702 732.802 63.21C733.349 62.3353 734.005 60.7773 734.77 58.536C735.535 56.24 736.355 53.534 737.23 50.418H738.132L738.46 63.784C739.936 64.3307 740.92 64.932 741.412 65.588C741.959 66.1893 742.232 66.982 742.232 67.966C742.232 69.114 741.904 70.098 741.248 70.918C740.647 71.738 739.553 72.4213 737.968 72.968C736.383 73.5147 734.223 73.8973 731.49 74.116C728.757 74.3893 725.231 74.526 720.912 74.526H710.334C707.109 74.526 704.539 74.28 702.626 73.788C700.767 73.296 699.428 72.3667 698.608 71C697.843 69.5787 697.46 67.5833 697.46 65.014V16.224L710.006 17.454ZM736 27.786C740.264 30.41 743.681 33.034 746.25 35.658C748.874 38.282 750.815 40.8787 752.072 43.448C753.384 45.9627 754.149 48.3133 754.368 50.5C754.587 52.632 754.395 54.4907 753.794 56.076C753.247 57.6613 752.455 58.864 751.416 59.684C750.432 60.4493 749.311 60.7227 748.054 60.504C746.797 60.2853 745.621 59.438 744.528 57.962C744.419 55.2833 744.036 52.222 743.38 48.778C742.724 45.334 741.74 41.8353 740.428 38.282C739.171 34.674 737.449 31.394 735.262 28.442L736 27.786ZM688.194 26.064C690.217 30.984 691.392 35.4393 691.72 39.43C692.048 43.366 691.829 46.7827 691.064 49.68C690.353 52.5773 689.342 54.9553 688.03 56.814C687.155 58.126 686.117 59.0827 684.914 59.684C683.711 60.2307 682.509 60.422 681.306 60.258C680.158 60.094 679.174 59.5747 678.354 58.7C677.315 57.552 676.905 56.2947 677.124 54.928C677.343 53.5067 677.971 52.222 679.01 51.074C680.377 49.8167 681.689 47.9307 682.946 45.416C684.203 42.8467 685.215 39.922 685.98 36.642C686.8 33.3073 687.155 29.8087 687.046 26.146L688.194 26.064ZM784.38 66.08C784.38 66.08 784.817 66.4627 785.692 67.228C786.621 67.9933 787.715 68.8953 788.972 69.934C790.229 70.9727 791.35 71.984 792.334 72.968C792.115 73.8427 791.377 74.28 790.12 74.28H765.438L764.782 71.902H779.952L784.38 66.08ZM775.36 10.402C775.196 10.7847 774.841 11.058 774.294 11.222C773.802 11.386 773.201 11.4953 772.49 11.55V16.142C772.326 16.142 771.643 16.142 770.44 16.142C769.237 16.142 766.969 16.142 763.634 16.142V11.222V6.384L775.36 10.402ZM761.666 60.094C762.923 59.7113 764.7 59.1373 766.996 58.372C769.292 57.6067 771.861 56.732 774.704 55.748C777.601 54.764 780.553 53.7527 783.56 52.714L783.888 53.452C782.303 55.0373 779.952 57.2513 776.836 60.094C773.72 62.882 770.221 65.8067 766.34 68.868L761.666 60.094ZM770.358 11.714L772.49 13.026V59.766L764.454 63.046L768.718 59.602C769.265 61.6247 769.374 63.374 769.046 64.85C768.773 66.326 768.281 67.5287 767.57 68.458C766.914 69.3327 766.231 69.9887 765.52 70.426L759.78 59.848C761.475 58.9733 762.541 58.2627 762.978 57.716C763.415 57.1147 763.634 56.3493 763.634 55.42V11.714H770.358ZM790.858 9.582C790.639 13.19 790.503 16.9073 790.448 20.734C790.393 24.5607 790.448 28.36 790.612 32.132C790.831 35.8493 791.186 39.43 791.678 42.874C792.225 46.2633 792.935 49.3793 793.81 52.222C794.685 55.01 795.778 57.388 797.09 59.356C797.473 59.9027 797.801 60.176 798.074 60.176C798.347 60.1213 798.648 59.7933 798.976 59.192C799.523 58.2627 800.097 57.0053 800.698 55.42C801.299 53.8347 801.819 52.2767 802.256 50.746L803.24 50.91L801.846 63.374C802.721 65.506 803.24 67.2553 803.404 68.622C803.623 69.9887 803.267 71 802.338 71.656C801.081 72.64 799.714 72.9953 798.238 72.722C796.817 72.4487 795.477 71.82 794.22 70.836C792.963 69.852 791.979 68.8133 791.268 67.72C789.081 64.1667 787.359 60.1487 786.102 55.666C784.845 51.1833 783.915 46.4273 783.314 41.398C782.767 36.314 782.412 31.0933 782.248 25.736C782.084 20.324 782.057 14.9393 782.166 9.582H790.858ZM805.536 1.71L815.212 6.302H814.228V75.346C814.228 75.51 813.927 75.8107 813.326 76.248C812.779 76.74 811.959 77.1773 810.866 77.56C809.827 77.9427 808.57 78.134 807.094 78.134H805.536V6.302V1.71ZM827.184 6.302V8.68H811.44V6.302H827.184ZM803.404 10.484C802.365 11.3587 800.616 11.304 798.156 10.32C795.587 10.7573 792.58 11.1947 789.136 11.632C785.692 12.0147 782.111 12.3427 778.394 12.616C774.677 12.8893 771.069 13.0533 767.57 13.108L767.406 12.042C770.467 11.1673 773.693 10.1287 777.082 8.926C780.471 7.72333 783.669 6.466 786.676 5.154C789.737 3.842 792.279 2.63933 794.302 1.54599L803.404 10.484ZM822.264 6.302L827.102 1.628L836.286 10.074C835.739 10.73 834.509 11.1127 832.596 11.222C831.885 12.534 831.011 14.0647 829.972 15.814C828.988 17.5633 827.922 19.3673 826.774 21.226C825.626 23.0847 824.451 24.8887 823.248 26.638C822.045 28.3873 820.897 29.9727 819.804 31.394C823.139 33.362 825.817 35.5487 827.84 37.954C829.917 40.3047 831.421 42.7647 832.35 45.334C833.334 47.8487 833.826 50.3087 833.826 52.714C833.881 56.9233 832.924 60.2033 830.956 62.554C829.043 64.85 825.626 66.0527 820.706 66.162C820.706 65.2873 820.651 64.358 820.542 63.374C820.433 62.3353 820.296 61.406 820.132 60.586C819.968 59.766 819.749 59.1647 819.476 58.782C819.148 58.3447 818.629 57.9347 817.918 57.552C817.207 57.1693 816.333 56.896 815.294 56.732V55.666C816.169 55.666 817.235 55.666 818.492 55.666C819.749 55.666 820.706 55.666 821.362 55.666C822.018 55.666 822.647 55.502 823.248 55.174C823.904 54.846 824.396 54.272 824.724 53.452C825.052 52.632 825.216 51.5387 825.216 50.172C825.216 47.1107 824.642 43.9673 823.494 40.742C822.401 37.5167 820.515 34.4553 817.836 31.558C818.273 30.0273 818.738 28.1687 819.23 25.982C819.777 23.7953 820.296 21.5267 820.788 19.176C821.335 16.7707 821.827 14.4473 822.264 12.206C822.701 9.96467 823.029 7.99666 823.248 6.302H822.264ZM796.844 25.326C796.844 25.326 797.281 25.7087 798.156 26.474C799.031 27.2393 800.069 28.1687 801.272 29.262C802.475 30.3007 803.513 31.312 804.388 32.296C804.224 33.1707 803.513 33.608 802.256 33.608H769.374V31.23H792.662L796.844 25.326Z" fill="white"/>
</svg>
