<svg width="679" height="60" viewBox="0 0 679 60" fill="none" xmlns="http://www.w3.org/2000/svg">
<path d="M40.47 3.904C40.222 4.73066 39.4367 5.144 38.114 5.144C37.1633 7.16933 36.0267 9.21533 34.704 11.282C33.3813 13.3487 31.8727 15.312 30.178 17.172C28.5247 18.9907 26.6853 20.5613 24.66 21.884L23.916 21.388C25.032 19.6933 26.0653 17.6887 27.016 15.374C27.9667 13.0593 28.814 10.6413 29.558 8.12C30.302 5.55733 30.8807 3.098 31.294 0.741998L40.47 3.904ZM51.196 3.966C51.196 3.966 51.4233 4.152 51.878 4.524C52.3327 4.896 52.9113 5.392 53.614 6.012C54.358 6.59066 55.1227 7.23133 55.908 7.934C56.6933 8.59533 57.4167 9.236 58.078 9.856C57.8713 10.5173 57.272 10.848 56.28 10.848H31.046V9.05H47.352L51.196 3.966ZM47.352 57.72C47.352 57.968 46.8973 58.2987 45.988 58.712C45.12 59.1253 44.1487 59.332 43.074 59.332H42.33V36.64V34.346L47.662 36.64H53.118V38.438H47.352V57.72ZM50.762 36.64L53.366 33.912L58.698 38.066C58.5327 38.2313 58.264 38.4173 57.892 38.624C57.5613 38.7893 57.1687 38.9133 56.714 38.996V57.224C56.714 57.348 56.4453 57.534 55.908 57.782C55.412 58.03 54.8127 58.2573 54.11 58.464C53.4487 58.6707 52.8287 58.774 52.25 58.774H51.32V36.64H50.762ZM30.798 57.72C30.798 57.968 30.3433 58.2987 29.434 58.712C28.566 59.1667 27.574 59.394 26.458 59.394H25.714V36.64V34.346L31.046 36.64H36.874V38.438H30.798V57.72ZM34.208 36.64L36.75 33.85L42.206 38.066C42.0407 38.2313 41.7513 38.438 41.338 38.686C40.966 38.8927 40.5113 39.0373 39.974 39.12V57.286C39.974 57.41 39.726 57.596 39.23 57.844C38.734 58.092 38.1347 58.2987 37.432 58.464C36.7707 58.6707 36.1507 58.774 35.572 58.774H34.704V36.64H34.208ZM18.336 21.388L21.188 18.412L26.52 23C26.3133 23.2067 26.0033 23.4133 25.59 23.62C25.218 23.8267 24.784 23.9713 24.288 24.054V37.446C24.2467 37.57 23.73 37.818 22.738 38.19C21.746 38.562 20.63 38.748 19.39 38.748H18.212V21.388H18.336ZM30.178 14.32L37.06 16.986H45.864L48.902 13.576L54.854 18.04C54.6887 18.3293 54.42 18.5567 54.048 18.722C53.7173 18.8873 53.2213 19.032 52.56 19.156V31.494C52.56 31.618 52.0847 31.8867 51.134 32.3C50.1833 32.672 48.8813 32.858 47.228 32.858H46.112V18.784H36.378V32.114C36.378 32.3207 35.9233 32.6307 35.014 33.044C34.146 33.416 32.906 33.602 31.294 33.602H30.178V16.986V14.32ZM22.18 35.338V37.136H5.688V35.338H22.18ZM53.49 53.194V54.992H44.5V53.194H53.49ZM48.344 27.898V29.696H33.402V27.898H48.344ZM36.936 52.946V54.682H27.264V52.946H36.936ZM21.994 21.326V23.124H5.688V21.326H21.994ZM18.15 36.454V53.752H12.632V36.454H18.15ZM18.212 7.624V22.194H12.694V7.624H18.212ZM21.436 47.614C21.436 47.614 21.622 47.8207 21.994 48.234C22.366 48.606 22.8413 49.1227 23.42 49.784C23.9987 50.404 24.5773 51.0653 25.156 51.768C25.7347 52.4293 26.2513 53.0493 26.706 53.628C26.582 54.2893 26.0447 54.62 25.094 54.62H5.502V52.884H18.46L21.436 47.614ZM22.242 2.354C22.242 2.354 22.5933 2.664 23.296 3.284C23.9987 3.86267 24.8253 4.56533 25.776 5.392C26.768 6.21866 27.6567 7.02466 28.442 7.81C28.2767 8.47133 27.7187 8.802 26.768 8.802H5.502V7.004H18.77L22.242 2.354ZM6.68 8.12L8.168 8.988V54.62H8.664L6.618 57.968L0.046 53.938C0.418 53.4833 0.914 53.0493 1.534 52.636C2.154 52.1813 2.73267 51.8507 3.27 51.644L2.092 53.876V8.12H6.68ZM2.092 3.594L9.036 7.004H8.168V10.724C8.168 10.724 7.672 10.724 6.68 10.724C5.72933 10.724 4.2 10.724 2.092 10.724V7.004V3.594ZM91.496 53.132H110.53V54.93H91.496V53.132ZM95.154 9.608H109.972V11.344H94.41L95.154 9.608ZM107.12 9.608H106.438L110.22 5.888L116.482 11.53C116.275 11.8193 115.986 12.026 115.614 12.15C115.242 12.274 114.684 12.3773 113.94 12.46C111.336 18.3293 107.451 23.5373 102.284 28.084C97.1587 32.6307 90.5453 36.0613 82.444 38.376L82.01 37.57C86.226 35.5447 90.008 33.106 93.356 30.254C96.704 27.3607 99.5353 24.178 101.85 20.706C104.165 17.1927 105.921 13.4933 107.12 9.608ZM93.914 11.53C95.3193 14.6713 97.2413 17.4613 99.68 19.9C102.16 22.3387 105.177 24.4053 108.732 26.1C112.287 27.7947 116.358 29.1173 120.946 30.068L120.822 30.75C119.375 31.246 118.259 32.0313 117.474 33.106C116.73 34.1393 116.213 35.524 115.924 37.26C111.708 35.648 108.153 33.6433 105.26 31.246C102.367 28.8487 99.9693 26.0793 98.068 22.938C96.1667 19.7967 94.5547 16.3453 93.232 12.584L93.914 11.53ZM88.582 37.446V34.594L96.084 37.446H106.128L109.476 33.664L115.924 38.562C115.717 38.8513 115.428 39.0993 115.056 39.306C114.725 39.4713 114.229 39.5953 113.568 39.678V57.782C113.568 57.906 113.031 58.1953 111.956 58.65C110.923 59.1047 109.497 59.332 107.678 59.332H106.376V39.244H95.402V57.906C95.402 58.1127 94.906 58.4227 93.914 58.836C92.922 59.2907 91.5373 59.518 89.76 59.518H88.582V37.446ZM95.216 1.3L104.392 4.276C104.227 4.648 103.937 4.958 103.524 5.206C103.152 5.454 102.615 5.55733 101.912 5.516C99.9693 10.0627 97.5927 13.9273 94.782 17.11C92.0127 20.2927 88.8713 22.876 85.358 24.86L84.676 24.302C86.908 21.6153 88.9747 18.2467 90.876 14.196C92.8187 10.1453 94.2653 5.84667 95.216 1.3ZM67.812 5.95H82.258V7.686H67.812V5.95ZM67.812 20.83H82.258V22.566H67.812V20.83ZM78.786 5.95H78.166L81.142 2.664L87.528 7.438C87.3627 7.686 87.0733 7.934 86.66 8.182C86.2467 8.38867 85.7507 8.554 85.172 8.678V22.876C85.172 22.9587 84.862 23.1447 84.242 23.434C83.6633 23.682 82.9607 23.9093 82.134 24.116C81.3073 24.3227 80.5427 24.426 79.84 24.426H78.786V5.95ZM72.524 20.892H78.786V50.032L72.524 51.644V20.892ZM64.464 28.456L71.346 29.076C71.3047 29.3653 71.1807 29.6133 70.974 29.82C70.7673 30.0267 70.3953 30.1713 69.858 30.254V50.404L64.464 51.706V28.456ZM75.004 32.672H79.592L82.754 27.836C82.754 27.836 83.064 28.146 83.684 28.766C84.3453 29.386 85.11 30.13 85.978 30.998C86.8873 31.866 87.652 32.6927 88.272 33.478C88.1067 34.1393 87.5693 34.47 86.66 34.47H75.004V32.672ZM60.93 51.21C62.4593 50.962 64.65 50.5693 67.502 50.032C70.354 49.4533 73.578 48.7713 77.174 47.986C80.8113 47.1593 84.5313 46.312 88.334 45.444L88.52 46.188C85.9987 47.552 82.8573 49.164 79.096 51.024C75.376 52.884 70.8707 54.9713 65.58 57.286C65.2907 58.154 64.7533 58.6913 63.968 58.898L60.93 51.21ZM64.588 5.95V3.16L71.656 5.95H70.85V23.434C70.85 23.682 70.3747 24.054 69.424 24.55C68.5147 25.046 67.2747 25.294 65.704 25.294H64.588V5.95ZM143.638 23.248C145.911 23.7853 148.04 24.4673 150.024 25.294C152.008 26.1207 153.744 27.092 155.232 28.208C156.72 29.2827 157.836 30.4607 158.58 31.742C158.993 32.4447 159.283 33.23 159.448 34.098C159.613 34.9247 159.613 35.71 159.448 36.454C159.324 37.1153 158.993 37.7353 158.456 38.314C157.919 38.8513 157.154 39.12 156.162 39.12C155.418 39.12 154.757 38.9133 154.178 38.5C153.599 38.0867 153.083 37.3633 152.628 36.33C151.843 34.6353 150.665 32.6927 149.094 30.502C147.565 28.3113 145.581 26.162 143.142 24.054L143.638 23.248ZM200.554 37.818C202.538 40.298 205.101 42.3853 208.242 44.08C211.425 45.7747 214.979 47.1387 218.906 48.172C222.833 49.2053 226.987 49.97 231.368 50.466C235.791 50.962 240.193 51.272 244.574 51.396V52.14C243.045 52.5947 241.825 53.4213 240.916 54.62C240.007 55.8187 239.387 57.3067 239.056 59.084C233.187 58.2987 227.731 57.1207 222.688 55.55C217.645 53.9793 213.181 51.83 209.296 49.102C205.411 46.3327 202.249 42.778 199.81 38.438L200.554 37.818ZM224.92 37.508L229.446 33.726L235.77 39.864C235.522 40.1947 235.191 40.422 234.778 40.546C234.365 40.6287 233.724 40.6907 232.856 40.732C229.549 44.4107 225.519 47.552 220.766 50.156C216.013 52.7187 210.701 54.7647 204.832 56.294C199.004 57.8233 192.763 58.8567 186.108 59.394L185.798 58.464C191.543 57.2653 196.999 55.6947 202.166 53.752C207.333 51.768 211.962 49.412 216.054 46.684C220.146 43.956 223.391 40.8973 225.788 37.508H224.92ZM229.88 37.508V39.244H188.836L188.278 37.508H229.88ZM226.16 1.362C228.351 1.56866 230.045 1.982 231.244 2.602C232.443 3.18066 233.269 3.86266 233.724 4.648C234.179 5.43333 234.344 6.198 234.22 6.942C234.096 7.64466 233.745 8.22333 233.166 8.678C232.629 9.13267 231.967 9.38066 231.182 9.422C230.397 9.422 229.591 9.112 228.764 8.492C228.681 7.29333 228.33 6.074 227.71 4.834C227.09 3.55266 226.387 2.51933 225.602 1.734L226.16 1.362ZM199.252 1.486C201.443 1.734 203.137 2.168 204.336 2.788C205.535 3.36666 206.361 4.04866 206.816 4.834C207.271 5.578 207.436 6.322 207.312 7.066C207.188 7.76867 206.837 8.368 206.258 8.864C205.721 9.31867 205.059 9.56667 204.274 9.608C203.489 9.608 202.683 9.27733 201.856 8.616C201.815 7.41733 201.484 6.198 200.864 4.958C200.244 3.67667 199.521 2.64333 198.694 1.858L199.252 1.486ZM201.112 4.09C200.947 4.462 200.657 4.772 200.244 5.02C199.872 5.22667 199.355 5.30933 198.694 5.268C197.082 8.32667 195.201 11.096 193.052 13.576C190.944 16.056 188.691 18.0813 186.294 19.652L185.488 19.032C187.059 16.924 188.547 14.2993 189.952 11.158C191.357 7.97533 192.494 4.68933 193.362 1.3L201.112 4.09ZM227.028 3.842C226.904 4.25533 226.635 4.586 226.222 4.834C225.85 5.04066 225.333 5.12333 224.672 5.082C223.225 8.14066 221.489 10.8687 219.464 13.266C217.48 15.6633 215.331 17.6473 213.016 19.218L212.21 18.598C213.657 16.5313 215 13.9687 216.24 10.91C217.48 7.85133 218.451 4.648 219.154 1.3L227.028 3.842ZM233.042 10.166V31.742H227.152V10.166H233.042ZM222.874 33.85C222.874 34.0567 222.419 34.4287 221.51 34.966C220.601 35.5033 219.34 35.772 217.728 35.772H216.674V13.142L220.332 7.996L223.68 9.298H222.874V33.85ZM238.312 27.03C238.312 27.03 238.622 27.278 239.242 27.774C239.862 28.2287 240.606 28.828 241.474 29.572C242.383 30.2747 243.169 30.9567 243.83 31.618C243.665 32.2793 243.127 32.61 242.218 32.61H219.898V30.874H235.274L238.312 27.03ZM236.824 20.396C236.824 20.396 237.093 20.6233 237.63 21.078C238.167 21.4913 238.829 22.0287 239.614 22.69C240.399 23.31 241.081 23.9093 241.66 24.488C241.536 25.1493 240.999 25.48 240.048 25.48H219.898V23.744H234.158L236.824 20.396ZM236.824 13.142C236.824 13.142 237.093 13.3693 237.63 13.824C238.167 14.2373 238.808 14.7747 239.552 15.436C240.337 16.056 241.019 16.6553 241.598 17.234C241.474 17.8953 240.957 18.226 240.048 18.226H219.898V16.49H234.158L236.824 13.142ZM237.258 5.888C237.258 5.888 237.547 6.11533 238.126 6.57C238.746 6.98333 239.469 7.52066 240.296 8.182C241.123 8.84333 241.887 9.484 242.59 10.104C242.466 10.7653 241.929 11.096 240.978 11.096H219.774V9.298H234.344L237.258 5.888ZM206.258 10.166V31.742H200.492V10.166H206.258ZM196.586 34.098C196.586 34.3047 196.131 34.6767 195.222 35.214C194.313 35.71 193.093 35.958 191.564 35.958H190.448V13.266L194.168 8.12L197.33 9.298H196.586V34.098ZM210.66 27.154C210.66 27.154 210.97 27.402 211.59 27.898C212.21 28.3527 212.933 28.9313 213.76 29.634C214.628 30.3367 215.393 30.998 216.054 31.618C215.889 32.2793 215.331 32.61 214.38 32.61H193.61V30.874H207.746L210.66 27.154ZM209.606 20.272C209.606 20.272 209.875 20.4993 210.412 20.954C210.949 21.3673 211.569 21.884 212.272 22.504C213.016 23.124 213.677 23.7233 214.256 24.302C214.091 24.9633 213.574 25.294 212.706 25.294H193.61V23.496H207.064L209.606 20.272ZM209.606 13.142C209.606 13.142 209.875 13.3487 210.412 13.762C210.949 14.1753 211.569 14.692 212.272 15.312C212.975 15.932 213.636 16.5313 214.256 17.11C214.091 17.7713 213.553 18.102 212.644 18.102H193.61V16.366H207.064L209.606 13.142ZM209.854 5.888C209.854 5.888 210.143 6.11533 210.722 6.57C211.342 7.02467 212.065 7.58267 212.892 8.244C213.76 8.864 214.525 9.484 215.186 10.104C215.021 10.7653 214.483 11.096 213.574 11.096H193.424V9.298H207.002L209.854 5.888ZM252.076 16.676H291.322L295.6 11.22C295.6 11.22 295.869 11.4267 296.406 11.84C296.943 12.2533 297.625 12.7907 298.452 13.452C299.279 14.072 300.147 14.754 301.056 15.498C301.965 16.2007 302.792 16.862 303.536 17.482C303.371 18.1433 302.771 18.474 301.738 18.474H252.572L252.076 16.676ZM254.742 34.346H289.214L293.43 29.014C293.43 29.014 293.678 29.2207 294.174 29.634C294.711 30.006 295.373 30.502 296.158 31.122C296.985 31.742 297.832 32.4033 298.7 33.106C299.568 33.8087 300.353 34.47 301.056 35.09C301.015 35.4207 300.829 35.6687 300.498 35.834C300.167 35.9993 299.775 36.082 299.32 36.082H255.238L254.742 34.346ZM247.922 54.806H293.554L298.018 49.226C298.018 49.226 298.287 49.4327 298.824 49.846C299.361 50.2593 300.043 50.7967 300.87 51.458C301.738 52.078 302.627 52.76 303.536 53.504C304.445 54.248 305.293 54.9507 306.078 55.612C305.913 56.232 305.313 56.542 304.28 56.542H248.48L247.922 54.806ZM272.846 16.676H280.782V55.426H272.846V16.676ZM266.646 1.734C270.325 1.94066 273.28 2.478 275.512 3.346C277.785 4.214 279.48 5.268 280.596 6.508C281.712 7.70666 282.353 8.90533 282.518 10.104C282.725 11.3027 282.559 12.3567 282.022 13.266C281.485 14.1753 280.679 14.7747 279.604 15.064C278.571 15.312 277.393 15.0847 276.07 14.382C275.491 12.894 274.665 11.406 273.59 9.918C272.557 8.38867 271.399 6.96266 270.118 5.64C268.837 4.276 267.535 3.11867 266.212 2.168L266.646 1.734ZM334.846 19.962L337.946 16.738L343.712 21.698C343.547 21.9047 343.278 22.132 342.906 22.38C342.534 22.5867 342.079 22.7313 341.542 22.814V36.206C341.501 36.2887 341.211 36.4333 340.674 36.64C340.137 36.8467 339.455 37.0533 338.628 37.26C337.801 37.4667 336.933 37.57 336.024 37.57H334.722V19.962H334.846ZM337.388 33.044V34.78H316.618V33.044H337.388ZM337.326 19.962V21.698H316.618V19.962H337.326ZM331.188 33.85V49.474H324.864V33.85H331.188ZM331.188 7.314V20.768H324.864V7.314H331.188ZM336.892 43.398C336.892 43.398 337.099 43.6047 337.512 44.018C337.967 44.4313 338.525 44.948 339.186 45.568C339.847 46.188 340.55 46.8493 341.294 47.552C342.038 48.2133 342.699 48.854 343.278 49.474C343.113 50.1353 342.534 50.466 341.542 50.466H316.804V48.73H333.296L336.892 43.398ZM337.14 1.548C337.14 1.548 337.388 1.75467 337.884 2.168C338.38 2.54 339 3.036 339.744 3.656C340.488 4.23466 341.253 4.87533 342.038 5.578C342.823 6.28066 343.547 6.942 344.208 7.562C344.043 8.22333 343.464 8.554 342.472 8.554H316.618V6.818H333.296L337.14 1.548ZM353.57 3.904C353.777 10.0627 354.149 15.6013 354.686 20.52C355.223 25.3973 356.071 29.7373 357.228 33.54C358.385 37.3427 359.935 40.67 361.878 43.522C363.821 46.3327 366.28 48.73 369.256 50.714L369.194 51.458C367.499 51.8713 366.115 52.76 365.04 54.124C364.007 55.5293 363.283 57.2653 362.87 59.332C360.679 57.0587 358.902 54.1447 357.538 50.59C356.215 46.994 355.203 42.84 354.5 38.128C353.797 33.416 353.301 28.208 353.012 22.504C352.723 16.7587 352.537 10.6 352.454 4.028L353.57 3.904ZM353.632 3.904C353.591 9.02933 353.508 13.886 353.384 18.474C353.301 23.0207 352.971 27.2987 352.392 31.308C351.813 35.3173 350.78 39.0373 349.292 42.468C347.804 45.8987 345.655 49.0607 342.844 51.954C340.033 54.806 336.334 57.3893 331.746 59.704L331.126 58.712C334.474 56.0253 337.161 53.1527 339.186 50.094C341.253 46.994 342.803 43.6873 343.836 40.174C344.869 36.6193 345.572 32.8167 345.944 28.766C346.316 24.7153 346.502 20.4167 346.502 15.87C346.502 11.3233 346.502 6.446 346.502 1.238L355.864 2.168C355.823 2.62266 355.616 3.01533 355.244 3.346C354.913 3.63533 354.376 3.82133 353.632 3.904ZM317.672 8.43L319.346 9.422V50.466H319.78L317.672 54L310.542 49.784C310.914 49.3707 311.41 48.916 312.03 48.42C312.65 47.8827 313.208 47.5107 313.704 47.304L312.402 49.536V8.43H317.672ZM312.402 3.036L320.214 6.818H319.346V10.538C319.346 10.538 318.788 10.538 317.672 10.538C316.556 10.538 314.799 10.538 312.402 10.538V6.818V3.036ZM391.638 23.248C393.911 23.7853 396.04 24.4673 398.024 25.294C400.008 26.1207 401.744 27.092 403.232 28.208C404.72 29.2827 405.836 30.4607 406.58 31.742C406.993 32.4447 407.283 33.23 407.448 34.098C407.613 34.9247 407.613 35.71 407.448 36.454C407.324 37.1153 406.993 37.7353 406.456 38.314C405.919 38.8513 405.154 39.12 404.162 39.12C403.418 39.12 402.757 38.9133 402.178 38.5C401.599 38.0867 401.083 37.3633 400.628 36.33C399.843 34.6353 398.665 32.6927 397.094 30.502C395.565 28.3113 393.581 26.162 391.142 24.054L391.638 23.248ZM482.468 19.032C482.055 19.404 481.435 19.342 480.608 18.846C479.781 19.0527 478.645 19.28 477.198 19.528C475.793 19.7347 474.263 19.9413 472.61 20.148C470.998 20.3547 469.469 20.4993 468.022 20.582L467.712 19.838C468.869 19.3007 470.109 18.6393 471.432 17.854C472.755 17.0273 474.015 16.2213 475.214 15.436C476.413 14.6507 477.343 13.9893 478.004 13.452L482.468 19.032ZM441.672 23.434C442.623 23.3513 443.925 23.2273 445.578 23.062C447.231 22.8967 449.091 22.69 451.158 22.442C453.266 22.194 455.395 21.946 457.544 21.698L457.606 22.504C456.366 23.1653 454.754 24.0127 452.77 25.046C450.786 26.0793 448.451 27.216 445.764 28.456C445.64 28.8693 445.433 29.2 445.144 29.448C444.855 29.6547 444.545 29.7993 444.214 29.882L441.672 23.434ZM443.532 16.056C446.425 15.3947 448.802 15.1673 450.662 15.374C452.563 15.5393 454.01 15.9527 455.002 16.614C455.994 17.2753 456.593 17.9987 456.8 18.784C457.048 19.5693 456.945 20.272 456.49 20.892C456.035 21.4707 455.291 21.7393 454.258 21.698C453.431 21.1193 452.377 20.52 451.096 19.9C449.815 19.28 448.471 18.7013 447.066 18.164C445.661 17.6267 444.359 17.234 443.16 16.986L443.532 16.056ZM467.712 22.132C471.06 21.636 473.788 21.574 475.896 21.946C478.045 22.2767 479.678 22.8347 480.794 23.62C481.951 24.4053 482.633 25.232 482.84 26.1C483.088 26.968 482.943 27.712 482.406 28.332C481.91 28.9107 481.125 29.1587 480.05 29.076C479.099 28.3733 477.88 27.6293 476.392 26.844C474.904 26.0587 473.375 25.3353 471.804 24.674C470.233 23.9713 468.745 23.4133 467.34 23L467.712 22.132ZM486.002 12.088V13.824H441.548V12.088H486.002ZM466.658 27.774C466.658 27.9393 466.141 28.2287 465.108 28.642C464.075 29.0553 462.628 29.262 460.768 29.262H459.466V5.64H466.658V27.774ZM478.066 1.114C478.066 1.114 478.438 1.40333 479.182 1.982C479.967 2.56066 480.877 3.26333 481.91 4.09C482.985 4.87533 483.935 5.66067 484.762 6.446C484.597 7.10733 484.018 7.438 483.026 7.438H442.478L441.982 5.64H474.408L478.066 1.114ZM482.406 12.088L486.064 8.368L492.45 14.444C492.243 14.7333 491.954 14.9193 491.582 15.002C491.251 15.0433 490.755 15.1053 490.094 15.188C489.143 16.18 487.924 17.2547 486.436 18.412C484.948 19.528 483.543 20.4787 482.22 21.264L481.724 20.83C481.931 20.0033 482.117 19.0527 482.282 17.978C482.447 16.9033 482.613 15.8493 482.778 14.816C482.943 13.7413 483.047 12.832 483.088 12.088H482.406ZM442.23 8.802C443.263 11.0753 443.78 13.1007 443.78 14.878C443.78 16.614 443.449 18.0813 442.788 19.28C442.127 20.4373 441.3 21.264 440.308 21.76C439.275 22.1733 438.221 22.2353 437.146 21.946C436.113 21.6153 435.431 20.9127 435.1 19.838C434.811 18.7633 434.955 17.854 435.534 17.11C436.154 16.3247 436.919 15.746 437.828 15.374C438.82 14.878 439.688 14.0513 440.432 12.894C441.217 11.6953 441.527 10.352 441.362 8.864L442.23 8.802ZM465.914 49.97C465.914 51.0033 466.038 51.644 466.286 51.892C466.575 52.0987 467.319 52.202 468.518 52.202H482.716C483.625 52.202 484.307 52.1813 484.762 52.14C485.258 52.0573 485.63 51.8713 485.878 51.582C486.374 51.0033 487.159 49.0607 488.234 45.754H488.916L488.978 51.334C490.301 51.8713 491.107 52.264 491.396 52.512C491.685 52.76 491.83 53.1733 491.83 53.752C491.83 54.62 491.541 55.364 490.962 55.984C490.425 56.6453 489.474 57.1413 488.11 57.472C486.746 57.844 484.824 58.03 482.344 58.03H468.084C465.563 58.03 463.62 57.8027 462.256 57.348C460.933 56.9347 460.024 56.108 459.528 54.868C459.073 53.6693 458.846 51.9127 458.846 49.598V30.378H465.914V49.97ZM475.462 30.378L478.81 26.782L485.692 31.99C485.527 32.238 485.237 32.486 484.824 32.734C484.411 32.982 483.894 33.168 483.274 33.292V46.994C483.274 47.1593 482.943 47.4073 482.282 47.738C481.621 48.0273 480.835 48.3167 479.926 48.606C479.017 48.854 478.149 48.978 477.322 48.978H476.082V30.378H475.462ZM448.616 49.04C448.616 49.2467 448.306 49.536 447.686 49.908C447.107 50.2387 446.363 50.5487 445.454 50.838C444.545 51.1273 443.594 51.272 442.602 51.272H441.548V30.378V27.402L449.112 30.378H478.872V32.176H448.616V49.04ZM479.616 44.948V46.746H446.074V44.948H479.616ZM479.616 37.57V39.306H446.074V37.57H479.616ZM528.286 23.62H526.116L526.922 23.248C526.798 24.1987 526.612 25.418 526.364 26.906C526.116 28.394 525.847 29.9027 525.558 31.432C525.269 32.92 525 34.1807 524.752 35.214H525.186L522.892 38.004L516.692 34.284C517.147 33.8707 517.705 33.478 518.366 33.106C519.027 32.734 519.647 32.4653 520.226 32.3L518.428 34.532C518.676 33.7467 518.903 32.734 519.11 31.494C519.358 30.254 519.585 28.9313 519.792 27.526C519.999 26.1207 520.185 24.7773 520.35 23.496C520.515 22.1733 520.66 21.0367 520.784 20.086L528.286 23.62ZM545.398 33.478L548.746 30.254L554.884 35.214C554.429 35.71 553.665 36.0613 552.59 36.268C552.549 39.5747 552.425 42.2407 552.218 44.266C552.053 46.25 551.763 47.8 551.35 48.916C550.937 49.9907 550.358 50.8173 549.614 51.396C548.829 51.9333 547.919 52.3467 546.886 52.636C545.894 52.884 544.716 53.008 543.352 53.008C543.352 52.0987 543.311 51.2927 543.228 50.59C543.145 49.846 542.918 49.2467 542.546 48.792C542.257 48.3787 541.843 48.0273 541.306 47.738C540.769 47.4487 540.087 47.2007 539.26 46.994V46.126C539.839 46.1673 540.562 46.2293 541.43 46.312C542.339 46.3533 543.021 46.374 543.476 46.374C544.22 46.374 544.695 46.2293 544.902 45.94C545.315 45.568 545.584 44.4313 545.708 42.53C545.832 40.6287 545.935 37.6113 546.018 33.478H545.398ZM537.152 34.47C535.251 39.2233 532.399 43.4393 528.596 47.118C524.793 50.7553 520.185 53.7933 514.77 56.232L514.212 55.488C517.891 52.7187 521.011 49.412 523.574 45.568C526.137 41.6827 528.059 37.6527 529.34 33.478H537.152V34.47ZM522.768 1.548C525.372 2.08533 527.397 2.82933 528.844 3.78C530.291 4.68933 531.283 5.68133 531.82 6.756C532.399 7.78933 532.605 8.78133 532.44 9.732C532.316 10.6413 531.923 11.3853 531.262 11.964C530.642 12.5427 529.877 12.8527 528.968 12.894C528.1 12.894 527.17 12.4807 526.178 11.654C526.137 10.538 525.909 9.38066 525.496 8.182C525.124 6.98333 524.649 5.84667 524.07 4.772C523.491 3.69733 522.871 2.726 522.21 1.858L522.768 1.548ZM549.366 4.338C549.077 5.16466 548.291 5.53666 547.01 5.454C545.853 6.57 544.385 7.89266 542.608 9.422C540.872 10.9513 539.177 12.3153 537.524 13.514H536.656C537.069 12.3567 537.483 11.0753 537.896 9.67C538.351 8.22333 538.764 6.77666 539.136 5.33C539.549 3.842 539.88 2.49866 540.128 1.3L549.366 4.338ZM538.268 57.41C538.268 57.658 537.772 58.03 536.78 58.526C535.829 59.022 534.507 59.27 532.812 59.27H531.634V12.894H538.268V57.41ZM543.538 12.894L546.638 9.546L553.148 14.444C552.983 14.692 552.693 14.94 552.28 15.188C551.908 15.3947 551.433 15.56 550.854 15.684V26.1C550.854 26.224 550.523 26.4307 549.862 26.72C549.242 26.968 548.498 27.1953 547.63 27.402C546.803 27.6087 546.018 27.712 545.274 27.712H544.158V12.894H543.538ZM548.994 33.478V35.214H521.404L521.9 33.478H548.994ZM547.01 23.62V25.418H523.264L523.76 23.62H547.01ZM547.072 12.894V14.692H519.048L518.49 12.894H547.072ZM510.802 21.636C513.199 22.6693 514.956 23.7853 516.072 24.984C517.229 26.1827 517.911 27.34 518.118 28.456C518.325 29.5307 518.201 30.44 517.746 31.184C517.291 31.928 516.651 32.362 515.824 32.486C515.039 32.61 514.212 32.2587 513.344 31.432C513.344 30.3987 513.179 29.324 512.848 28.208C512.517 27.0507 512.104 25.9347 511.608 24.86C511.153 23.7853 510.657 22.8347 510.12 22.008L510.802 21.636ZM513.096 2.044C513.055 2.49866 512.869 2.89133 512.538 3.222C512.249 3.51133 511.691 3.718 510.864 3.842V57.286C510.864 57.4927 510.595 57.782 510.058 58.154C509.521 58.526 508.839 58.8567 508.012 59.146C507.227 59.4767 506.441 59.642 505.656 59.642H504.354V1.176L513.096 2.044ZM510.368 17.606C509.293 23.062 507.557 28.1047 505.16 32.734C502.804 37.3633 499.745 41.5173 495.984 45.196L495.178 44.452C496.707 41.8893 498.03 39.0787 499.146 36.02C500.262 32.9613 501.192 29.7787 501.936 26.472C502.721 23.1653 503.321 19.8793 503.734 16.614H510.368V17.606ZM514.584 12.088C514.584 12.088 514.894 12.3773 515.514 12.956C516.175 13.5347 516.919 14.2373 517.746 15.064C518.614 15.8907 519.358 16.676 519.978 17.42C519.813 18.0813 519.255 18.412 518.304 18.412H496.418L495.922 16.614H511.546L514.584 12.088ZM576.956 9.422H599.648V11.158H575.592L576.956 9.422ZM603.926 34.346H603.306L606.84 30.378L614.156 36.082C613.991 36.33 613.681 36.5987 613.226 36.888C612.771 37.136 612.193 37.322 611.49 37.446V57.1C611.49 57.2653 611.139 57.5133 610.436 57.844C609.733 58.1747 608.886 58.4847 607.894 58.774C606.943 59.0633 606.034 59.208 605.166 59.208H603.926V34.346ZM579.374 52.388H607.274V54.124H579.374V52.388ZM579.312 34.346H608.266V36.082H579.312V34.346ZM596.424 9.422H595.556L600.206 5.144L607.336 11.902C607.088 12.2327 606.757 12.46 606.344 12.584C605.931 12.708 605.311 12.8113 604.484 12.894C600.02 20.2513 593.882 26.658 586.07 32.114C578.299 37.57 568.937 41.5587 557.984 44.08L557.55 43.336C563.337 40.9387 568.772 37.9833 573.856 34.47C578.94 30.9567 583.425 27.0713 587.31 22.814C591.195 18.5567 594.233 14.0927 596.424 9.422ZM571.934 17.172C574.993 17.296 577.452 17.73 579.312 18.474C581.213 19.218 582.598 20.1067 583.466 21.14C584.375 22.132 584.871 23.1653 584.954 24.24C585.037 25.2733 584.809 26.162 584.272 26.906C583.735 27.65 582.991 28.1253 582.04 28.332C581.089 28.5387 580.035 28.332 578.878 27.712C578.506 26.5133 577.907 25.294 577.08 24.054C576.253 22.7727 575.344 21.574 574.352 20.458C573.401 19.342 572.451 18.3913 571.5 17.606L571.934 17.172ZM578.816 1.238L588.86 4.152C588.736 4.48266 588.509 4.71 588.178 4.834C587.847 4.958 587.248 4.97866 586.38 4.896C584.479 7.83066 582.143 10.7033 579.374 13.514C576.605 16.3247 573.546 18.8873 570.198 21.202C566.85 23.4753 563.337 25.3353 559.658 26.782L559.162 26.224C561.89 24.364 564.515 22.07 567.036 19.342C569.557 16.614 571.851 13.6793 573.918 10.538C575.985 7.39667 577.617 4.29667 578.816 1.238ZM582.722 34.346V57.41C582.722 57.534 582.474 57.7613 581.978 58.092C581.523 58.464 580.841 58.7947 579.932 59.084C579.023 59.4147 577.948 59.58 576.708 59.58H575.406V37.012L578.816 32.548L583.528 34.346H582.722ZM622.092 28.27H642.056L645.342 24.24C645.342 24.24 645.673 24.5087 646.334 25.046C646.995 25.542 647.801 26.162 648.752 26.906C649.703 27.65 650.55 28.3733 651.294 29.076C651.17 29.7373 650.633 30.068 649.682 30.068H622.588L622.092 28.27ZM650.86 5.578H671.134V7.376H651.418L650.86 5.578ZM649.868 18.598H672.684V20.334H650.426L649.868 18.598ZM626.494 5.578H645.714V7.376H626.494V5.578ZM626.494 13.266H645.714V15.002H626.494V13.266ZM626.494 21.14H645.714V22.938H626.494V21.14ZM623.022 5.578V2.912L629.842 5.578H629.098V24.426C629.098 24.6327 628.643 24.984 627.734 25.48C626.866 25.976 625.647 26.224 624.076 26.224H623.022V5.578ZM642.8 5.578H642.18L645.156 2.416L651.356 7.128C651.191 7.33466 650.901 7.562 650.488 7.81C650.075 8.058 649.579 8.22333 649 8.306V23.062C649 23.2273 648.711 23.4547 648.132 23.744C647.553 24.0333 646.871 24.302 646.086 24.55C645.301 24.798 644.557 24.922 643.854 24.922H642.8V5.578ZM654.766 10.042C657.494 10.0833 659.685 10.414 661.338 11.034C662.991 11.6127 664.231 12.336 665.058 13.204C665.885 14.072 666.36 14.9607 666.484 15.87C666.608 16.7793 666.443 17.5853 665.988 18.288C665.575 18.9907 664.955 19.4453 664.128 19.652C663.343 19.8587 662.433 19.714 661.4 19.218C661.028 18.1433 660.449 17.0687 659.664 15.994C658.92 14.9193 658.073 13.9067 657.122 12.956C656.171 11.964 655.241 11.158 654.332 10.538L654.766 10.042ZM667.848 5.578H667.166L670.762 2.168L676.838 7.934C676.549 8.182 676.218 8.34733 675.846 8.43C675.474 8.51266 674.957 8.57466 674.296 8.616C673.304 9.236 672.085 9.89733 670.638 10.6C669.233 11.2613 667.786 11.902 666.298 12.522C664.81 13.142 663.467 13.6793 662.268 14.134L661.71 13.7C662.33 12.9973 663.033 12.15 663.818 11.158C664.603 10.166 665.368 9.174 666.112 8.182C666.856 7.14866 667.435 6.28066 667.848 5.578ZM669.584 18.598H668.902L672.374 15.064L678.512 20.83C678.264 21.1193 677.954 21.3053 677.582 21.388C677.21 21.4707 676.714 21.5327 676.094 21.574C675.391 22.318 674.523 23.1447 673.49 24.054C672.498 24.922 671.465 25.7693 670.39 26.596C669.357 27.4227 668.365 28.1253 667.414 28.704L666.794 28.332C667.125 27.4227 667.476 26.3687 667.848 25.17C668.22 23.9713 668.551 22.7933 668.84 21.636C669.171 20.4373 669.419 19.4247 669.584 18.598ZM620.604 35.276C622.381 35.2347 624.841 35.1107 627.982 34.904C631.123 34.656 634.657 34.3873 638.584 34.098C642.552 33.7673 646.665 33.4367 650.922 33.106L650.984 33.974C648.256 34.9247 644.846 35.9993 640.754 37.198C636.703 38.3967 631.743 39.7607 625.874 41.29C625.461 42.1167 624.882 42.592 624.138 42.716L620.604 35.276ZM658.548 18.598H665.182V33.912C665.182 35.3587 664.996 36.64 664.624 37.756C664.252 38.8307 663.487 39.6987 662.33 40.36C661.173 41.0213 659.395 41.4553 656.998 41.662C656.957 40.67 656.853 39.8227 656.688 39.12C656.564 38.376 656.295 37.7767 655.882 37.322C655.51 36.8673 654.993 36.4747 654.332 36.144C653.712 35.8133 652.72 35.524 651.356 35.276V34.47C651.356 34.47 651.604 34.4907 652.1 34.532C652.637 34.5733 653.257 34.6147 653.96 34.656C654.704 34.656 655.386 34.6767 656.006 34.718C656.667 34.7593 657.143 34.78 657.432 34.78C657.887 34.78 658.176 34.6973 658.3 34.532C658.465 34.3253 658.548 34.0773 658.548 33.788V18.598ZM632.694 5.578H639.08V36.144L632.694 37.012V5.578ZM645.218 39.864L654.704 40.67C654.663 41.0833 654.497 41.4347 654.208 41.724C653.919 42.0133 653.361 42.22 652.534 42.344V56.914H645.218V39.864ZM626.866 45.94H661.71L665.492 41.104C665.492 41.104 665.719 41.29 666.174 41.662C666.67 41.9927 667.269 42.4473 667.972 43.026C668.675 43.6047 669.419 44.2247 670.204 44.886C670.989 45.5473 671.692 46.1673 672.312 46.746C672.147 47.4073 671.589 47.738 670.638 47.738H627.362L626.866 45.94ZM619.922 55.86H667.166L671.01 50.9C671.01 50.9 671.258 51.086 671.754 51.458C672.25 51.83 672.849 52.3053 673.552 52.884C674.296 53.4627 675.061 54.0827 675.846 54.744C676.673 55.4467 677.417 56.0873 678.078 56.666C677.913 57.3273 677.334 57.658 676.342 57.658H620.418L619.922 55.86Z" fill="white"/>
</svg>
