<svg width="600" height="70" viewBox="0 0 600 70" fill="none" xmlns="http://www.w3.org/2000/svg">
<path d="M9.804 5.111V2.337L19.878 5.841H18.564V24.675C18.564 28.179 18.418 31.902 18.126 35.844C17.834 39.786 17.1283 43.7523 16.009 47.743C14.9383 51.7337 13.2593 55.5783 10.972 59.277C8.73333 62.9757 5.61867 66.3337 1.628 69.351L0.898 68.84C3.62333 64.46 5.61867 59.8123 6.884 54.897C8.14933 49.9817 8.95233 44.969 9.293 39.859C9.63367 34.7003 9.804 29.6633 9.804 24.748V5.841V5.111ZM55.064 5.841L58.933 1.68L67.109 7.812C66.9143 8.104 66.5493 8.396 66.014 8.688C65.5273 8.93133 64.8947 9.15033 64.116 9.345V20.514C64.116 20.66 63.7023 20.879 62.875 21.171C62.0963 21.463 61.1717 21.7307 60.101 21.974C59.0303 22.2173 58.057 22.339 57.181 22.339H55.794V5.841H55.064ZM61.342 17.448V19.565H14.695V17.448H61.342ZM60.612 5.841V7.958H14.184V5.841H60.612ZM59.663 23.726C59.517 24.164 59.225 24.529 58.787 24.821C58.349 25.0643 57.7163 25.186 56.889 25.186C55.6237 26.354 54.042 27.7167 52.144 29.274C50.2947 30.7827 48.494 32.1453 46.742 33.362H45.72C46.1093 32.194 46.4987 30.88 46.888 29.42C47.2773 27.9113 47.6423 26.4027 47.983 24.894C48.3237 23.3367 48.5913 21.9497 48.786 20.733L59.663 23.726ZM25.937 20.806C29.149 21.1467 31.631 21.755 33.383 22.631C35.1837 23.507 36.4247 24.5047 37.106 25.624C37.7873 26.7433 38.0063 27.8383 37.763 28.909C37.5683 29.931 37.0573 30.807 36.23 31.537C35.4513 32.2183 34.478 32.559 33.31 32.559C32.142 32.559 30.9497 32.0723 29.733 31.099C29.6843 29.931 29.441 28.7387 29.003 27.522C28.6137 26.3053 28.1027 25.1617 27.47 24.091C26.8373 22.9717 26.1073 22.047 25.28 21.317L25.937 20.806ZM36.814 42.268C36.814 44.02 36.668 45.8937 36.376 47.889C36.084 49.8357 35.5243 51.8067 34.697 53.802C33.8697 55.7973 32.6287 57.7683 30.974 59.715C29.368 61.613 27.2267 63.4137 24.55 65.117C21.8733 66.8203 18.5153 68.329 14.476 69.643L13.965 68.84C17.1283 66.8933 19.6833 64.8493 21.63 62.708C23.6253 60.518 25.1097 58.2793 26.083 55.992C27.105 53.656 27.7863 51.3443 28.127 49.057C28.5163 46.7697 28.711 44.5067 28.711 42.268V32.559H36.814V42.268ZM54.188 67.453C54.188 67.6477 53.5797 68.0127 52.363 68.548C51.1463 69.0833 49.4917 69.351 47.399 69.351H45.866V32.559H54.188V67.453ZM62.656 41.027C62.656 41.027 62.8993 41.246 63.386 41.684C63.8727 42.0733 64.5053 42.6087 65.284 43.29C66.0627 43.9227 66.8657 44.604 67.693 45.334C68.569 46.064 69.3477 46.7697 70.029 47.451C69.8343 48.2297 69.1773 48.619 68.058 48.619H17.834L17.25 46.575H58.495L62.656 41.027ZM59.517 27.303C59.517 27.303 59.955 27.6437 60.831 28.325C61.707 28.9577 62.7047 29.7607 63.824 30.734C64.992 31.6587 66.0383 32.5833 66.963 33.508C66.7683 34.2867 66.1113 34.676 64.992 34.676H20.462L19.878 32.559H55.429L59.517 27.303ZM89.739 40.662H126.604V42.779H89.739V40.662ZM89.52 30.369H126.385V32.486H89.52V30.369ZM75.869 11.17H126.896L132.006 4.527C132.006 4.527 132.322 4.77033 132.955 5.257C133.588 5.74367 134.366 6.37633 135.291 7.155C136.264 7.93366 137.286 8.761 138.357 9.637C139.428 10.4643 140.401 11.2917 141.277 12.119C141.082 12.8977 140.377 13.287 139.16 13.287H76.453L75.869 11.17ZM103.828 1.023L115.362 2.118C115.265 2.60466 115.021 3.04266 114.632 3.432C114.291 3.82133 113.634 4.089 112.661 4.235V66.869C112.661 67.1123 112.296 67.4287 111.566 67.818C110.885 68.256 110.009 68.6453 108.938 68.986C107.867 69.3267 106.772 69.497 105.653 69.497H103.828V1.023ZM84.556 20.149V16.572L93.9 20.149H128.064V22.266H93.316V44.531C93.316 44.823 92.9267 45.188 92.148 45.626C91.418 46.064 90.4933 46.4533 89.374 46.794C88.2547 47.1347 87.0867 47.305 85.87 47.305H84.556V20.149ZM123.319 20.149H122.589L126.677 15.696L135.218 22.193C134.975 22.485 134.61 22.777 134.123 23.069C133.636 23.3123 133.028 23.507 132.298 23.653V43.728C132.298 43.874 131.884 44.166 131.057 44.604C130.23 44.9933 129.232 45.3583 128.064 45.699C126.945 46.0397 125.874 46.21 124.852 46.21H123.319V20.149ZM100.835 40.881H111.785V42.049C108.184 47.7917 103.195 52.8287 96.82 57.16C90.4447 61.4913 83.0717 64.971 74.701 67.599L74.19 66.65C78.132 64.5573 81.8063 62.124 85.213 59.35C88.6197 56.5273 91.637 53.5343 94.265 50.371C96.9417 47.2077 99.1317 44.0443 100.835 40.881ZM112.588 40.808C114.632 43.7767 117.284 46.429 120.545 48.765C123.854 51.101 127.456 53.0963 131.349 54.751C135.291 56.4057 139.184 57.6467 143.029 58.474L142.883 59.277C141.228 59.715 139.793 60.6153 138.576 61.978C137.359 63.3407 136.483 65.0683 135.948 67.161C132.201 65.4577 128.794 63.3893 125.728 60.956C122.662 58.474 119.961 55.6027 117.625 52.342C115.338 49.0327 113.391 45.3583 111.785 41.319L112.588 40.808ZM147.774 30.369H200.918L205.955 24.018C205.955 24.018 206.271 24.2613 206.904 24.748C207.537 25.2347 208.34 25.843 209.313 26.573C210.286 27.303 211.284 28.0817 212.306 28.909C213.377 29.7363 214.35 30.515 215.226 31.245C215.08 32.0237 214.374 32.413 213.109 32.413H148.358L147.774 30.369ZM153.76 14.966H196.1L200.991 8.834C200.991 8.834 201.283 9.07733 201.867 9.564C202.5 10.002 203.254 10.586 204.13 11.316C205.055 11.9973 206.028 12.7517 207.05 13.579C208.121 14.3577 209.07 15.112 209.897 15.842C209.8 16.2313 209.556 16.5233 209.167 16.718C208.778 16.9127 208.315 17.01 207.78 17.01H154.344L153.76 14.966ZM176.828 1.023L188.216 2.191C188.167 2.67766 187.948 3.11566 187.559 3.505C187.218 3.84566 186.561 4.089 185.588 4.235V66.431C185.588 66.723 185.223 67.1123 184.493 67.599C183.763 68.1343 182.838 68.5723 181.719 68.913C180.648 69.3023 179.578 69.497 178.507 69.497H176.828V1.023ZM172.594 30.369H182.814V31.537C179.651 38.545 175.052 44.8473 169.017 50.444C162.982 56.0407 155.78 60.664 147.409 64.314L146.825 63.511C150.767 60.737 154.417 57.5493 157.775 53.948C161.133 50.3467 164.077 46.5263 166.608 42.487C169.139 38.399 171.134 34.3597 172.594 30.369ZM186.026 30.369C187.437 33.289 189.238 36.0387 191.428 38.618C193.667 41.1487 196.124 43.4603 198.801 45.553C201.478 47.597 204.3 49.3977 207.269 50.955C210.238 52.4637 213.231 53.6803 216.248 54.605L216.102 55.481C214.399 55.8217 212.914 56.6733 211.649 58.036C210.384 59.3987 209.459 61.1263 208.875 63.219C205.079 61.1263 201.648 58.547 198.582 55.481C195.565 52.3663 192.937 48.765 190.698 44.677C188.459 40.5403 186.61 35.917 185.15 30.807L186.026 30.369ZM221.212 13.287H273.699L278.736 7.082C278.736 7.082 279.052 7.32533 279.685 7.812C280.318 8.25 281.096 8.834 282.021 9.564C282.946 10.294 283.919 11.0727 284.941 11.9C286.012 12.6787 286.985 13.4573 287.861 14.236C287.666 15.0147 286.961 15.404 285.744 15.404H221.796L221.212 13.287ZM249.755 1.315L261.143 2.483C261.094 2.96966 260.875 3.40766 260.486 3.797C260.145 4.13766 259.464 4.381 258.442 4.527V66.431C258.442 66.723 258.077 67.1123 257.347 67.599C256.617 68.1343 255.717 68.5967 254.646 68.986C253.624 69.3753 252.553 69.57 251.434 69.57H249.755V1.315ZM258.442 33.216C260.291 37.2067 262.798 40.808 265.961 44.02C269.173 47.232 272.75 49.9573 276.692 52.196C280.634 54.4347 284.698 56.138 288.883 57.306L288.737 58.109C287.082 58.4983 285.647 59.35 284.43 60.664C283.213 61.9293 282.362 63.6083 281.875 65.701C277.836 63.657 274.259 61.1507 271.144 58.182C268.029 55.1647 265.353 51.6363 263.114 47.597C260.875 43.509 259.026 38.8613 257.566 33.654L258.442 33.216ZM235.885 26.719C238.805 27.4003 241.044 28.2763 242.601 29.347C244.207 30.369 245.302 31.464 245.886 32.632C246.519 33.7513 246.738 34.7977 246.543 35.771C246.348 36.7443 245.886 37.5473 245.156 38.18C244.426 38.764 243.55 39.056 242.528 39.056C241.555 39.0073 240.533 38.545 239.462 37.669C239.365 36.4523 239.073 35.2113 238.586 33.946C238.148 32.6807 237.637 31.464 237.053 30.296C236.469 29.0793 235.836 28.033 235.155 27.157L235.885 26.719ZM249.755 31.245L254.938 41.465C252.651 44.677 249.755 47.8403 246.251 50.955C242.747 54.0697 238.805 56.9167 234.425 59.496C230.094 62.0267 225.519 64.1437 220.701 65.847L220.117 64.898C224.351 62.6107 228.39 59.715 232.235 56.211C236.128 52.707 239.584 48.8137 242.601 44.531C245.667 40.2483 248.052 35.8197 249.755 31.245ZM233.914 17.813L244.499 20.806C244.353 21.2927 244.037 21.682 243.55 21.974C243.112 22.266 242.479 22.3877 241.652 22.339C239.705 27.4977 237.248 31.8533 234.279 35.406C231.359 38.9587 228.025 41.83 224.278 44.02L223.402 43.363C225.835 40.3457 228.001 36.6227 229.899 32.194C231.797 27.7167 233.135 22.923 233.914 17.813ZM270.487 26.719C273.942 27.4003 276.692 28.325 278.736 29.493C280.78 30.661 282.264 31.902 283.189 33.216C284.114 34.4813 284.576 35.7223 284.576 36.939C284.576 38.1557 284.26 39.1777 283.627 40.005C282.994 40.8323 282.118 41.319 280.999 41.465C279.928 41.5623 278.76 41.173 277.495 40.297C277.154 38.7883 276.546 37.2553 275.67 35.698C274.843 34.092 273.894 32.559 272.823 31.099C271.801 29.5903 270.803 28.3007 269.83 27.23L270.487 26.719ZM267.786 17.74L278.59 20.295C278.493 20.733 278.201 21.1223 277.714 21.463C277.276 21.755 276.668 21.901 275.889 21.901C274.429 26.427 272.507 30.2717 270.122 33.435C267.737 36.5983 264.939 39.1533 261.727 41.1L260.851 40.443C262.652 37.6203 264.16 34.238 265.377 30.296C266.642 26.354 267.445 22.1687 267.786 17.74ZM337.72 25.113H373.49V27.157H337.72V25.113ZM333.486 6.79H366.92L371.665 0.876999C371.665 0.876999 371.957 1.096 372.541 1.534C373.125 1.972 373.855 2.556 374.731 3.286C375.656 3.96733 376.605 4.69733 377.578 5.476C378.551 6.25466 379.452 6.98467 380.279 7.666C380.182 8.05533 379.938 8.34733 379.549 8.542C379.208 8.73666 378.77 8.834 378.235 8.834H334.07L333.486 6.79ZM345.823 6.79H352.977V26.062H345.823V6.79ZM357.503 6.79H364.584V26.062H357.503V6.79ZM339.91 52.707H370.351V54.824H339.91V52.707ZM339.91 38.472H370.351V40.589H339.91V38.472ZM339.91 45.553H370.351V47.67H339.91V45.553ZM346.918 55.627L357.065 61.248C356.724 61.6373 356.213 61.9293 355.532 62.124C354.899 62.27 354.023 62.2457 352.904 62.051C351.152 63.1217 349.011 64.1437 346.48 65.117C343.998 66.0903 341.321 66.942 338.45 67.672C335.579 68.402 332.732 68.986 329.909 69.424L329.544 68.621C331.783 67.5503 334.021 66.2607 336.26 64.752C338.499 63.2433 340.543 61.686 342.392 60.08C344.29 58.474 345.799 56.9897 346.918 55.627ZM357.795 57.233C362.71 57.525 366.701 58.036 369.767 58.766C372.833 59.496 375.145 60.3477 376.702 61.321C378.259 62.2943 379.208 63.2677 379.549 64.241C379.938 65.263 379.89 66.1877 379.403 67.015C378.916 67.8423 378.186 68.475 377.213 68.913C376.24 69.3997 375.169 69.57 374.001 69.424C372.833 69.3267 371.762 68.8157 370.789 67.891C369.718 66.3337 368.088 64.679 365.898 62.927C363.757 61.1263 360.958 59.5447 357.503 58.182L357.795 57.233ZM319.105 24.31L322.244 20.003L329.617 22.704C329.52 23.0447 329.301 23.3367 328.96 23.58C328.619 23.8233 328.108 24.018 327.427 24.164V67.015C327.378 67.2097 327.013 67.5017 326.332 67.891C325.651 68.2803 324.799 68.6453 323.777 68.986C322.755 69.3267 321.684 69.497 320.565 69.497H319.105V24.31ZM323.923 1.023L335.968 4.527C335.822 5.01366 335.506 5.403 335.019 5.695C334.581 5.93833 333.948 6.06 333.121 6.06C331.369 10.8293 329.374 15.3067 327.135 19.492C324.945 23.6287 322.56 27.4247 319.981 30.88C317.402 34.3353 314.579 37.4013 311.513 40.078L310.637 39.567C312.389 36.355 314.092 32.6563 315.747 28.471C317.45 24.237 319.008 19.784 320.419 15.112C321.879 10.3913 323.047 5.695 323.923 1.023ZM333.34 14.601V11.243L341.954 14.601H373.855V16.718H341.443V27.814C341.443 28.0573 341.078 28.3737 340.348 28.763C339.667 29.1523 338.791 29.493 337.72 29.785C336.698 30.077 335.627 30.223 334.508 30.223H333.34V14.601ZM336.479 31.537V28.106L345.02 31.537H370.862V33.581H344.582V56.357C344.582 56.6003 344.241 56.9167 343.56 57.306C342.879 57.6953 342.003 58.0603 340.932 58.401C339.861 58.693 338.766 58.839 337.647 58.839H336.479V31.537ZM369.183 14.601H368.526L372.176 10.659L379.914 16.426C379.768 16.6207 379.5 16.8397 379.111 17.083C378.722 17.3263 378.211 17.521 377.578 17.667V27.23C377.578 27.4247 377.164 27.668 376.337 27.96C375.558 28.252 374.634 28.544 373.563 28.836C372.492 29.0793 371.519 29.201 370.643 29.201H369.183V14.601ZM366.044 31.537H365.314L369.183 27.449L376.994 33.362C376.799 33.6053 376.483 33.873 376.045 34.165C375.607 34.4083 375.072 34.603 374.439 34.749V55.7C374.439 55.8947 374.05 56.1867 373.271 56.576C372.492 56.9167 371.568 57.233 370.497 57.525C369.426 57.817 368.404 57.963 367.431 57.963H366.044V31.537ZM409.844 4.527C409.698 4.965 409.382 5.33 408.895 5.622C408.408 5.914 407.751 6.06 406.924 6.06C405.172 10.9267 403.177 15.4283 400.938 19.565C398.748 23.7017 396.29 27.4733 393.565 30.88C390.888 34.238 387.968 37.231 384.805 39.859L384.002 39.275C385.803 36.1603 387.579 32.5347 389.331 28.398C391.083 24.2127 392.689 19.784 394.149 15.112C395.609 10.3913 396.753 5.67067 397.58 0.949998L409.844 4.527ZM403.347 22.485C403.25 22.8257 403.031 23.1177 402.69 23.361C402.349 23.6043 401.814 23.799 401.084 23.945V66.942C401.035 67.1367 400.67 67.4287 399.989 67.818C399.308 68.256 398.432 68.6453 397.361 68.986C396.339 69.3267 395.268 69.497 394.149 69.497H392.543V24.091L395.828 19.784L403.347 22.485ZM410.136 18.178L418.896 21.609H435.759L439.409 16.864L448.242 23.142C447.999 23.4827 447.609 23.7747 447.074 24.018C446.587 24.2613 445.882 24.456 444.957 24.602V65.847H436.489V23.726H418.239V65.847H410.136V21.609V18.178ZM448.096 59.569C448.096 59.569 448.437 59.9097 449.118 60.591C449.848 61.2237 450.7 62.0267 451.673 63C452.695 63.9247 453.571 64.8007 454.301 65.628C454.106 66.4067 453.474 66.796 452.403 66.796H403.055L402.471 64.679H444.592L448.096 59.569ZM433.642 2.045C433.545 2.629 433.253 3.11566 432.766 3.505C432.328 3.89433 431.695 4.13766 430.868 4.235C430.722 6.03566 430.503 8.104 430.211 10.44C429.919 12.7273 429.627 14.966 429.335 17.156C429.092 19.346 428.873 21.244 428.678 22.85H421.524C421.621 21.098 421.694 18.981 421.743 16.499C421.792 13.9683 421.84 11.3403 421.889 8.615C421.986 5.88966 422.035 3.359 422.035 1.023L433.642 2.045ZM439.263 52.926V54.97H414.954V52.926H439.263ZM439.336 42.487V44.604H414.881V42.487H439.336ZM439.409 32.121V34.165H414.881V32.121H439.409ZM443.132 5.914C443.132 5.914 443.424 6.133 444.008 6.571C444.592 7.009 445.322 7.593 446.198 8.323C447.123 9.053 448.072 9.83167 449.045 10.659C450.018 11.4377 450.894 12.192 451.673 12.922C451.527 13.7007 450.846 14.09 449.629 14.09H406.486L405.902 12.046H438.387L443.132 5.914ZM513.431 7.228H512.628L516.57 2.848L525.038 9.199C524.795 9.491 524.405 9.80733 523.87 10.148C523.335 10.44 522.678 10.659 521.899 10.805V30.734C521.85 30.88 521.412 31.1233 520.585 31.464C519.806 31.8047 518.882 32.0967 517.811 32.34C516.74 32.5833 515.743 32.705 514.818 32.705H513.431V7.228ZM498.977 26.062H517.373V28.106H498.977V26.062ZM499.05 7.228H517.446V9.272H499.05V7.228ZM495.4 7.228V3.943V3.797L504.16 7.228H503.138V45.261C503.138 45.8937 503.308 46.356 503.649 46.648C504.038 46.94 504.793 47.086 505.912 47.086H511.606C512.725 47.086 513.723 47.086 514.599 47.086C515.475 47.0373 516.132 46.9887 516.57 46.94C516.959 46.8913 517.3 46.8183 517.592 46.721C517.933 46.575 518.2 46.356 518.395 46.064C518.784 45.48 519.247 44.3607 519.782 42.706C520.366 41.0027 520.926 39.1533 521.461 37.158H522.264L522.556 46.356C523.675 46.794 524.405 47.2807 524.746 47.816C525.135 48.3513 525.33 48.9597 525.33 49.641C525.33 50.7603 524.892 51.685 524.016 52.415C523.189 53.145 521.729 53.7047 519.636 54.094C517.543 54.4833 514.623 54.678 510.876 54.678H504.087C501.751 54.678 499.95 54.459 498.685 54.021C497.468 53.583 496.617 52.8287 496.13 51.758C495.643 50.6873 495.4 49.203 495.4 47.305V7.228ZM466.711 44.458C467.928 47.9133 469.29 50.6873 470.799 52.78C472.356 54.824 474.181 56.3813 476.274 57.452C478.415 58.474 480.922 59.1553 483.793 59.496C486.713 59.8367 490.071 60.007 493.867 60.007C495.376 60.007 497.225 60.007 499.415 60.007C501.605 60.007 503.965 60.007 506.496 60.007C509.027 60.007 511.557 60.007 514.088 60.007C516.619 59.9583 519.003 59.934 521.242 59.934C523.481 59.8853 525.354 59.8367 526.863 59.788V60.664C525.354 61.0047 524.211 61.8077 523.432 63.073C522.702 64.387 522.313 65.8227 522.264 67.38C520.707 67.38 518.663 67.38 516.132 67.38C513.601 67.38 510.925 67.38 508.102 67.38C505.279 67.38 502.578 67.38 499.999 67.38C497.468 67.38 495.4 67.38 493.794 67.38C489.706 67.38 486.129 67.0637 483.063 66.431C479.997 65.7983 477.345 64.6547 475.106 63C472.916 61.394 471.067 59.131 469.558 56.211C468.098 53.2423 466.906 49.4463 465.981 44.823L466.711 44.458ZM472.186 1.023L482.698 1.972C482.649 2.41 482.455 2.79933 482.114 3.14C481.822 3.432 481.238 3.651 480.362 3.797V27.376H472.186V1.023ZM460.433 12.703H482.333L486.348 7.374C486.348 7.374 486.762 7.71466 487.589 8.396C488.465 9.07733 489.487 9.90466 490.655 10.878C491.823 11.8513 492.869 12.776 493.794 13.652C493.599 14.4307 492.942 14.82 491.823 14.82H461.017L460.433 12.703ZM457.732 26.062H483.501L487.589 20.441C487.589 20.441 488.003 20.806 488.83 21.536C489.706 22.2173 490.728 23.069 491.896 24.091C493.113 25.113 494.183 26.062 495.108 26.938C494.913 27.7167 494.232 28.106 493.064 28.106H458.316L457.732 26.062ZM476.712 42.049H483.282L487.297 36.063C487.297 36.063 487.54 36.3063 488.027 36.793C488.562 37.231 489.195 37.815 489.925 38.545C490.704 39.2263 491.507 39.9563 492.334 40.735C493.161 41.5137 493.891 42.2437 494.524 42.925C494.378 43.7037 493.721 44.093 492.553 44.093H476.712V42.049ZM462.258 33.07L472.697 34.895C472.6 35.4303 472.332 35.8683 471.894 36.209C471.456 36.501 470.799 36.6957 469.923 36.793C469.728 39.6157 469.412 42.5357 468.974 45.553C468.536 48.5217 467.855 51.466 466.93 54.386C466.054 57.2573 464.837 60.007 463.28 62.635C461.771 65.2143 459.825 67.526 457.44 69.57L456.71 68.84C458.024 66.4067 459.095 63.73 459.922 60.81C460.749 57.8413 461.358 54.7753 461.747 51.612C462.136 48.4 462.355 45.2123 462.404 42.049C462.501 38.8857 462.453 35.8927 462.258 33.07ZM473.938 28.617L484.45 29.712C484.353 30.1987 484.109 30.6367 483.72 31.026C483.331 31.3667 482.674 31.61 481.749 31.756V62.781L473.938 59.131V28.617ZM534.674 6.717H578.328V8.761H535.331L534.674 6.717ZM530.44 34.603H578.62V36.72H531.097L530.44 34.603ZM573.072 6.717H572.342L576.065 2.702L583.73 8.323C583.292 8.85833 582.367 9.22333 580.956 9.418C581.102 11.3647 581.394 13.3357 581.832 15.331C582.319 17.2777 583 19.127 583.876 20.879C584.752 22.631 585.871 24.164 587.234 25.478C588.645 26.792 590.324 27.741 592.271 28.325C592.806 28.5197 593.196 28.5683 593.439 28.471C593.682 28.3737 593.901 28.1547 594.096 27.814C594.485 27.0353 594.875 26.1107 595.264 25.04C595.702 23.9693 596.091 22.8743 596.432 21.755L597.235 21.901L596.797 29.712C597.868 30.7827 598.549 31.756 598.841 32.632C599.133 33.4593 599.084 34.2623 598.695 35.041C598.16 36.0143 597.357 36.6227 596.286 36.866C595.264 37.1093 594.12 37.1093 592.855 36.866C591.59 36.6227 590.373 36.2333 589.205 35.698C585.36 34.092 582.294 31.8533 580.007 28.982C577.768 26.062 576.114 22.704 575.043 18.908C573.972 15.112 573.315 11.0483 573.072 6.717ZM573.072 34.603H572.342L576.138 30.515L583.803 36.282C583.316 36.866 582.392 37.2553 581.029 37.45C581.078 39.786 581.321 42.1463 581.759 44.531C582.197 46.9157 582.854 49.1787 583.73 51.32C584.655 53.4613 585.823 55.335 587.234 56.941C588.694 58.4983 590.495 59.642 592.636 60.372C593.171 60.5667 593.561 60.6397 593.804 60.591C594.096 60.5423 594.339 60.3233 594.534 59.934C594.972 59.058 595.386 58.0603 595.775 56.941C596.164 55.8217 596.554 54.6537 596.943 53.437L597.673 53.51L597.235 62.124C598.306 63.292 598.963 64.314 599.206 65.19C599.498 66.1147 599.425 66.942 598.987 67.672C598.452 68.5967 597.624 69.1563 596.505 69.351C595.434 69.5943 594.266 69.5457 593.001 69.205C591.784 68.913 590.592 68.4507 589.424 67.818C585.385 66.066 582.221 63.5353 579.934 60.226C577.647 56.9167 575.992 53.072 574.97 48.692C573.997 44.312 573.364 39.6157 573.072 34.603ZM549.493 10.659L559.129 16.061C558.837 16.4503 558.35 16.7423 557.669 16.937C557.036 17.083 556.16 17.0587 555.041 16.864C553.24 18.032 551.075 19.2243 548.544 20.441C546.013 21.6577 543.264 22.777 540.295 23.799C537.375 24.821 534.431 25.697 531.462 26.427L531.024 25.624C533.36 24.3587 535.72 22.85 538.105 21.098C540.538 19.346 542.753 17.5453 544.748 15.696C546.743 13.8467 548.325 12.1677 549.493 10.659ZM542.631 20.66L553.362 21.682C553.313 22.1687 553.094 22.5823 552.705 22.923C552.364 23.2637 551.732 23.507 550.807 23.653V35.99C550.807 39.056 550.539 42.1707 550.004 45.334C549.469 48.4973 548.495 51.5877 547.084 54.605C545.721 57.6223 543.75 60.4207 541.171 63C538.64 65.5307 535.307 67.6963 531.17 69.497L530.513 68.767C533.19 66.577 535.331 64.168 536.937 61.54C538.543 58.912 539.735 56.1623 540.514 53.291C541.341 50.4197 541.901 47.524 542.193 44.604C542.485 41.6353 542.631 38.7153 542.631 35.844V20.66ZM558.472 10.659L569.13 11.681C569.081 12.1677 568.887 12.5813 568.546 12.922C568.205 13.214 567.621 13.433 566.794 13.579V66.796C566.794 67.0393 566.429 67.38 565.699 67.818C565.018 68.256 564.166 68.6453 563.144 68.986C562.122 69.3267 561.1 69.497 560.078 69.497H558.472V10.659ZM581.54 13.725C584.46 13.579 586.845 13.7737 588.694 14.309C590.592 14.8443 592.003 15.55 592.928 16.426C593.901 17.2533 594.485 18.1537 594.68 19.127C594.923 20.0517 594.85 20.9033 594.461 21.682C594.072 22.412 593.463 22.923 592.636 23.215C591.809 23.507 590.835 23.4583 589.716 23.069C589.181 21.9983 588.426 20.9277 587.453 19.857C586.48 18.7377 585.409 17.6913 584.241 16.718C583.122 15.7447 582.002 14.966 580.883 14.382L581.54 13.725ZM581.248 44.385C584.314 44.385 586.82 44.7013 588.767 45.334C590.762 45.918 592.271 46.6967 593.293 47.67C594.315 48.5947 594.948 49.568 595.191 50.59C595.483 51.5633 595.434 52.4393 595.045 53.218C594.656 53.9967 594.023 54.532 593.147 54.824C592.32 55.116 591.322 55.0187 590.154 54.532C589.619 53.364 588.816 52.196 587.745 51.028C586.674 49.8113 585.506 48.692 584.241 47.67C583.024 46.5993 581.832 45.699 580.664 44.969L581.248 44.385ZM588.402 36.136L596.651 40.662C596.505 41.0027 596.237 41.246 595.848 41.392C595.459 41.4893 594.85 41.4893 594.023 41.392C593.342 41.8787 592.49 42.4627 591.468 43.144C590.446 43.7767 589.375 44.4337 588.256 45.115C587.185 45.7477 586.236 46.356 585.409 46.94L584.752 46.21C585.141 45.2853 585.579 44.2147 586.066 42.998C586.553 41.7327 586.991 40.4917 587.38 39.275C587.818 38.0097 588.159 36.9633 588.402 36.136ZM589.278 5.622L596.578 10.805C596.383 11.097 596.116 11.316 595.775 11.462C595.434 11.5593 594.85 11.5107 594.023 11.316C593.39 11.7053 592.539 12.1433 591.468 12.63C590.397 13.1167 589.327 13.6277 588.256 14.163C587.185 14.6497 586.236 15.112 585.409 15.55L584.752 14.893C585.239 14.0657 585.774 13.0923 586.358 11.973C586.942 10.805 587.477 9.66133 587.964 8.542C588.499 7.374 588.937 6.40066 589.278 5.622Z" fill="#7D272B"/>
</svg>
