<svg width="355" height="59" viewBox="0 0 355 59" fill="none" xmlns="http://www.w3.org/2000/svg">
<path d="M10.96 29.32C10.96 33.21 11.55 36.7 12.72 39.8C13.89 42.9 15.51 45.51 17.57 47.65C19.63 49.79 22.06 51.43 24.86 52.56C27.66 53.69 30.7 54.26 33.97 54.26C35.93 54.26 37.82 53.88 39.64 53.13C41.46 52.38 43.15 51.39 44.7 50.17C46.25 48.95 47.65 47.58 48.88 46.05C50.11 44.52 51.12 42.98 51.9 41.41L55.85 43.93C54.7 45.81 53.34 47.61 51.78 49.33C50.21 51.05 48.4 52.58 46.34 53.91C44.28 55.24 41.96 56.3 39.37 57.08C36.78 57.86 33.89 58.25 30.7 58.25C26.08 58.25 21.89 57.48 18.12 55.94C14.35 54.4 11.13 52.31 8.44 49.68C5.75 47.05 3.67 43.97 2.2 40.46C0.73 36.95 0 33.23 0 29.31C0 26.71 0.34 24.16 1.01 21.69C1.68 19.22 2.65 16.89 3.93 14.72C5.2 12.55 6.76 10.56 8.59 8.76C10.42 6.96 12.5 5.4 14.81 4.1C17.12 2.8 19.65 1.79 22.39 1.07C25.13 0.36 28.06 0 31.17 0C34.28 0 36.88 0.4 39.38 1.2C41.89 2 44.17 3.06 46.23 4.37C48.29 5.68 50.12 7.2 51.73 8.93C53.34 10.65 54.72 12.45 55.87 14.33L51.8 17.02C49.48 12.51 46.87 9.22 43.99 7.13C41.11 5.05 37.79 4 34.04 4C30.82 4 27.81 4.59 25.01 5.76C22.21 6.94 19.77 8.62 17.68 10.8C15.59 12.98 13.96 15.64 12.77 18.76C11.58 21.88 10.98 25.4 10.98 29.32H10.96Z" fill="#EEDBD4"/>
<path d="M78.24 30.24V56.95H68.88V1.26001H78.24V26.63H106.21V1.26001H115.58V56.95H106.21V30.24H78.24Z" fill="#EEDBD4"/>
<path d="M152.53 0L178.74 56.95H169.21L160.73 38.39H136.83L128.05 56.95H123.35L150.18 0H152.53ZM138.47 34.77H159.01L148.89 12.72L138.47 34.77Z" fill="#EEDBD4"/>
<path d="M186.47 1.26001H191.72L228.22 42H228.64V1.26001H232.76V58.25H230.58L191.06 12.98H190.72V56.95H186.48V1.26001H186.47Z" fill="#EEDBD4"/>
<path d="M279.53 3.99C276.17 3.99 273.07 4.59 270.23 5.77C267.39 6.96 264.94 8.67 262.88 10.89C260.82 13.12 259.22 15.8 258.07 18.96C256.92 22.11 256.35 25.63 256.35 29.52C256.35 33.41 256.97 36.98 258.22 40.13C259.46 43.28 261.17 45.96 263.34 48.17C265.51 50.38 268.06 52.08 271 53.27C273.94 54.46 277.09 55.05 280.45 55.05C282.89 55.05 285.08 54.72 287.04 54.07C289 53.41 290.76 52.47 292.33 51.23V31.7H281.79V28.38H301.7V52.86C300.08 53.73 298.44 54.5 296.79 55.17C295.14 55.84 293.35 56.4 291.44 56.85C289.52 57.3 287.41 57.64 285.12 57.88C282.82 58.12 280.22 58.24 277.31 58.24C274.23 58.24 271.3 57.9 268.53 57.21C265.76 56.52 263.19 55.55 260.82 54.29C258.45 53.03 256.32 51.52 254.42 49.77C252.52 48.02 250.9 46.08 249.57 43.96C248.24 41.83 247.21 39.55 246.48 37.11C245.75 34.67 245.39 32.14 245.39 29.51C245.39 26.88 245.73 24.37 246.42 21.89C247.11 19.41 248.09 17.07 249.38 14.88C250.67 12.68 252.24 10.67 254.08 8.86C255.92 7.05 258.01 5.47 260.34 4.16C262.67 2.85 265.2 1.82 267.94 1.09C270.68 0.36 273.59 0 276.68 0C279.77 0 282.34 0.4 284.85 1.2C287.36 2 289.64 3.06 291.7 4.37C293.76 5.69 295.58 7.2 297.18 8.93C298.78 10.65 300.15 12.45 301.29 14.33L297.26 17.02C294.91 12.51 292.3 9.22 289.43 7.13C286.56 5.05 283.26 4 279.54 4L279.53 3.99Z" fill="#EEDBD4"/>
<path d="M354.71 1.26001V4.87001H325.35V24.78H345V28.39H325.35V53.33H354.71V56.94H315.99V1.26001H354.71Z" fill="#EEDBD4"/>
</svg>
