<svg width="1046" height="467" viewBox="0 0 1046 467" fill="none" xmlns="http://www.w3.org/2000/svg">
<path d="M98.6101 1H110.517V61.4561H104.504V6.91994H94.9897L98.618 1H98.6101Z" fill="white"/>
<path d="M98.6101 1H110.517V61.4561H104.504V6.91994H94.9897L98.618 1H98.6101Z" fill="#B98897"/>
<path d="M139.543 40.5665C137.958 41.4122 136.509 42.0445 135.209 42.4634V55.8129C135.209 58.2078 134.837 59.8044 134.1 60.6184C133.356 61.4246 131.74 61.8356 129.236 61.8356H126.701L125.854 56.9827L128.816 57.1882C130.013 57.1882 130.615 56.6428 130.615 55.5521V43.728C129.482 44.1865 127.826 44.6765 125.64 45.206L125.109 40.4559C127.192 40.0686 129.022 39.5785 130.607 38.9778V28.1022H125.267V23.7235H130.607V13.6936H135.209V23.7235H139.495V28.1022H135.209V37.6579C137.079 37.0256 138.521 36.4091 139.543 35.8084V40.5586V40.5665ZM140.335 31.9119H152.923V28.4895H142.553V24.5297H152.923V21.305H140.866V17.3452H152.923V13.7568H157.581V17.3452H173.187V21.305H157.581V24.5297H170.066V31.9119H173.662V35.8242H170.066V43.4198H157.581V47.6957H170.913V51.6081H157.581V56.8799C159.482 56.9906 161.581 57.038 163.879 57.038H165.202C168.062 57.0064 170.882 56.9353 173.662 56.8325L172.815 61.1085H167.681C159.783 61.1085 154.507 60.737 151.869 60.0019C149.223 59.259 147.076 57.7968 145.413 55.6232C144.636 57.6308 143.155 59.8676 140.969 62.3257L136.952 59.6858C140.723 56.1291 143.21 51.5212 144.407 45.8542L148.692 47.016C148.407 47.9645 148.146 48.8418 147.9 49.648C147.655 50.5648 147.409 51.3236 147.164 51.9164C147.164 52.2325 147.766 52.9201 148.962 53.9793C150.158 55.0384 151.465 55.7339 152.875 56.0896V43.4277H142.505V39.5232H152.875V35.8321H140.287L140.343 31.9198L140.335 31.9119ZM165.519 31.9119V28.4895H157.581V31.9119H165.519ZM165.519 39.5153V35.8242H157.581V39.5153H165.519Z" fill="#231816"/>
<path d="M139.543 40.5665C137.958 41.4122 136.509 42.0445 135.209 42.4634V55.8129C135.209 58.2078 134.837 59.8044 134.1 60.6184C133.356 61.4246 131.74 61.8356 129.236 61.8356H126.701L125.854 56.9827L128.816 57.1882C130.013 57.1882 130.615 56.6428 130.615 55.5521V43.728C129.482 44.1865 127.826 44.6765 125.64 45.206L125.109 40.4559C127.192 40.0686 129.022 39.5785 130.607 38.9778V28.1022H125.267V23.7235H130.607V13.6936H135.209V23.7235H139.495V28.1022H135.209V37.6579C137.079 37.0256 138.521 36.4091 139.543 35.8084V40.5586V40.5665ZM140.335 31.9119H152.923V28.4895H142.553V24.5297H152.923V21.305H140.866V17.3452H152.923V13.7568H157.581V17.3452H173.187V21.305H157.581V24.5297H170.066V31.9119H173.662V35.8242H170.066V43.4198H157.581V47.6957H170.913V51.6081H157.581V56.8799C159.482 56.9906 161.581 57.038 163.879 57.038H165.202C168.062 57.0064 170.882 56.9353 173.662 56.8325L172.815 61.1085H167.681C159.783 61.1085 154.507 60.737 151.869 60.0019C149.223 59.259 147.076 57.7968 145.413 55.6232C144.636 57.6308 143.155 59.8676 140.969 62.3257L136.952 59.6858C140.723 56.1291 143.21 51.5212 144.407 45.8542L148.692 47.016C148.407 47.9645 148.146 48.8418 147.9 49.648C147.655 50.5648 147.409 51.3236 147.164 51.9164C147.164 52.2325 147.766 52.9201 148.962 53.9793C150.158 55.0384 151.465 55.7339 152.875 56.0896V43.4277H142.505V39.5232H152.875V35.8321H140.287L140.343 31.9198L140.335 31.9119ZM165.519 31.9119V28.4895H157.581V31.9119H165.519ZM165.519 39.5153V35.8242H157.581V39.5153H165.519Z" fill="#B98897"/>
<path d="M258.633 102.825H0.259491V328.897H258.633V102.825Z" fill="#B98897"/>
<path d="M169.115 269.381H89.7613C82.3147 269.381 76.2228 263.303 76.2228 255.874V171.833C76.2228 164.403 88.375 150.129 129.323 150.129C166.786 150.129 182.654 164.403 182.654 171.833V255.874C182.654 263.303 176.562 269.381 169.115 269.381Z" fill="#B98897" stroke="white" stroke-miterlimit="10"/>
<path d="M129.323 150.129C88.375 150.129 76.2228 164.403 76.2228 171.833V186.874C76.2228 179.444 88.375 165.17 129.323 165.17C166.786 165.17 182.654 179.444 182.654 186.874V171.833C182.654 164.403 166.786 150.129 129.323 150.129Z" fill="white"/>
<path d="M76.2228 251.756V255.874C76.2228 263.303 82.3147 269.381 89.7613 269.381H169.115C176.562 269.381 182.654 263.303 182.654 255.874V251.756C182.654 251.756 151.98 263.904 129.442 263.904C103.839 263.904 76.2307 251.756 76.2307 251.756H76.2228Z" fill="white"/>
<path d="M129.442 240.983C103.839 240.983 76.2309 228.835 76.2309 228.835V235.284C76.2309 235.284 103.847 247.433 129.442 247.433C151.988 247.433 182.654 235.284 182.654 235.284V228.835C182.654 228.835 151.98 240.983 129.442 240.983Z" fill="white"/>
<path d="M87.9789 241.671C84.5883 241.671 81.8394 244.413 81.8394 247.796C81.8394 251.179 84.5883 253.922 87.9789 253.922C91.3695 253.922 94.1184 251.179 94.1184 247.796C94.1184 244.413 91.3695 241.671 87.9789 241.671ZM87.9789 251.622C85.8637 251.622 84.1447 249.906 84.1447 247.796C84.1447 245.686 85.8637 243.971 87.9789 243.971C90.094 243.971 91.8131 245.686 91.8131 247.796C91.8131 249.906 90.094 251.622 87.9789 251.622Z" fill="white"/>
<path d="M170.296 241.671C166.905 241.671 164.156 244.413 164.156 247.796C164.156 251.179 166.905 253.922 170.296 253.922C173.686 253.922 176.435 251.179 176.435 247.796C176.435 244.413 173.686 241.671 170.296 241.671ZM170.296 251.622C168.18 251.622 166.461 249.906 166.461 247.796C166.461 245.686 168.18 243.971 170.296 243.971C172.411 243.971 174.13 245.686 174.13 247.796C174.13 249.906 172.411 251.622 170.296 251.622Z" fill="white"/>
<path d="M91.0367 191.663H100.662L104.377 206.04L108.061 191.663H117.678V215.296H111.681V197.275L107.063 215.296H101.636L97.0257 197.275V215.296H91.0288V191.663H91.0367Z" fill="white"/>
<path d="M122.439 215.296V191.663H134.639C136.905 191.663 138.632 191.853 139.828 192.24C141.024 192.628 141.99 193.347 142.719 194.39C143.448 195.433 143.82 196.714 143.82 198.223C143.82 199.536 143.543 200.666 142.981 201.614C142.418 202.563 141.65 203.337 140.668 203.93C140.042 204.301 139.186 204.618 138.101 204.863C138.972 205.155 139.606 205.448 140.002 205.74C140.271 205.93 140.66 206.349 141.175 206.981C141.682 207.613 142.03 208.103 142.196 208.443L145.738 215.288H137.467L133.554 208.064C133.055 207.131 132.619 206.522 132.231 206.246C131.7 205.882 131.106 205.693 130.44 205.693H129.791V215.288H122.439V215.296ZM129.791 201.235H132.88C133.213 201.235 133.863 201.124 134.821 200.911C135.304 200.816 135.7 200.571 136.009 200.168C136.318 199.773 136.469 199.314 136.469 198.8C136.469 198.034 136.223 197.457 135.74 197.046C135.257 196.635 134.346 196.429 133.007 196.429H129.791V201.235Z" fill="white"/>
<path d="M146.126 191.663H168.37V197.496H160.908V215.296H153.588V197.496H146.126V191.663Z" fill="white"/>
<path d="M81.3007 299.123H67.8176L93.4529 266.631H106.936L81.3007 299.123Z" fill="white"/>
<path d="M177.584 299.123H191.067L165.424 266.631H151.94L177.584 299.123Z" fill="white"/>
<path d="M176.863 285.853H81.063V292.358H176.863V285.853Z" fill="white"/>
<path d="M166.232 275.373H91.6943V281.877H166.232V275.373Z" fill="white"/>
<path d="M23.6371 421.53C23.6371 422.984 22.8607 423.711 21.308 423.711C20.7139 423.711 20.0405 423.672 19.2879 423.6L19.0661 422.312C19.9296 422.478 20.6663 422.565 21.2763 422.565C22.0448 422.565 22.425 422.122 22.425 421.253V414.013C21.5298 414.408 20.3812 414.819 18.979 415.27L18.5037 414.147C19.8662 413.721 21.1733 413.262 22.425 412.78V405.738H18.7255V404.615H22.425V398.522H23.6291V404.615H26.7662V405.738H23.6291V412.337C24.8095 411.832 25.8077 411.318 26.6316 410.796L27.0276 411.689C25.7205 412.511 24.5877 413.128 23.6371 413.531V421.522V421.53ZM34.0623 405.959H28.2872V404.9H34.0623V402.41H26.1087V401.351H34.0623V398.443H35.2427V401.351H43.426V402.41H35.2427V404.9H41.1287V408.591H43.933V409.682H41.1287V413.57H35.2427V416.566H42.2773V417.625H35.2427V421.569C36.9617 421.79 38.9264 421.901 41.1287 421.901C42.3407 421.901 43.3864 421.885 44.2657 421.846L43.9013 422.968H42.6417C41.4059 422.968 40.2335 422.944 39.1086 422.881H39.0214C33.7533 422.62 30.3786 421.403 28.9051 419.222C28.0258 421.308 26.6078 422.929 24.6431 424.09L24.1124 423.11C25.3482 422.462 26.4177 421.332 27.3366 419.728C28.2555 418.123 28.8101 416.455 29.016 414.724L30.0538 414.946C29.8637 416.084 29.6181 417.175 29.2933 418.218C29.2933 418.423 29.7766 418.929 30.7509 419.728C31.7253 420.526 32.8186 421.071 34.0306 421.348V413.578H28.311V412.543H34.0306V409.69H25.879V408.599H34.0306L34.0544 405.975L34.0623 405.959ZM35.2347 408.591H39.9721V405.967H35.2347V408.591ZM35.2347 412.527H39.9721V409.674H35.2347V412.527Z" fill="#666666"/>
<path d="M47.1493 424.074L46.5076 423.181C49.5497 421.079 51.6173 417.688 52.7026 413.001H48.6386L47.7989 413.871L47.0146 413.12C49.1615 411.128 50.9122 408.812 52.251 406.188H46.8404V405.129H54.0968C52.655 408.148 51.1261 410.425 49.5021 411.95H54.0731C53.7007 414.297 52.8769 416.582 51.6093 418.795C51.6093 419.056 52.6313 419.632 54.6672 420.526C56.7031 421.419 59.8957 421.869 64.2527 421.869C66.962 421.869 69.6317 421.782 72.2618 421.616L72.0083 422.762C69.6713 422.889 67.2235 422.96 64.6647 422.96C60.2918 422.96 57.2735 422.683 55.6178 422.122C53.9542 421.561 52.4174 420.779 50.9914 419.775C50.2072 421.379 48.9317 422.81 47.1493 424.082V424.074ZM48.0683 399.446L49.0189 398.861C50.1755 400.387 51.142 401.881 51.9025 403.335L50.8092 403.896C50.0963 402.552 49.1852 401.066 48.0603 399.454L48.0683 399.446ZM53.7879 404.173V399.731H71.018V403.975H69.8377V400.79H54.9603V404.173H53.78H53.7879ZM61.8603 401.628H63.0644V403.39H69.2277V404.449H63.0644V406.465H68.9504V414.408H63.0644V416.613H71.8657V417.672H63.0644V420.636H61.8603V417.672H54.1523V416.613H61.8603V414.408H55.9743V406.465H61.8603V404.449H55.5862V403.39H61.8603V401.628ZM61.8603 407.524H57.1547V409.784H61.8603V407.524ZM61.8603 410.851H57.1547V413.341H61.8603V410.851ZM63.0644 409.792H67.7701V407.532H63.0644V409.792ZM63.0644 413.341H67.7701V410.851H63.0644V413.341Z" fill="#666666"/>
<path d="M78.837 404.955H74.9711V403.92H78.837V398.387H79.9857V403.92H83.4317V404.955H79.9857V424.106H78.837V408.646C77.9022 412.092 76.7377 415.024 75.3355 417.451L74.5195 416.471C76.4049 413.396 77.8467 409.555 78.837 404.955ZM80.968 408.362C81.9345 409.927 82.7504 411.523 83.4079 413.143L82.3464 413.618C81.7998 412.037 81.0551 410.44 80.1045 408.836L80.9759 408.362H80.968ZM94.1897 407.611C94.1897 408.844 93.5797 409.452 92.3676 409.452C91.6388 409.452 90.8783 409.357 90.094 409.176L89.9277 407.974C90.7674 408.196 91.4883 408.306 92.0824 408.306C92.7162 408.306 93.0331 408.077 93.0331 407.611V404.615H91.9953C89.7534 406.646 86.9411 408.148 83.5584 409.112L83.0831 408.077C85.9271 407.405 88.3987 406.251 90.506 404.607H84.5408V403.517H92.2488C91.0526 402.884 89.7851 402.291 88.4383 401.754L89.2781 401.082C89.7613 401.288 90.2366 401.493 90.704 401.699C91.0763 401.865 91.4328 402.023 91.7655 402.173C92.9063 401.762 94.1817 401.193 95.6077 400.466H85.3805V399.407H97.2634V400.497C95.9721 401.319 94.4828 402.038 92.7796 402.647C93.041 402.837 93.2707 402.995 93.4767 403.121C93.5876 403.192 93.7143 403.271 93.8411 403.343C93.9124 403.414 93.9916 403.477 94.0629 403.509H99.8934C99.0696 405.263 98.0635 406.686 96.8673 407.785L95.9958 407.002C96.9069 406.235 97.6198 405.437 98.1268 404.599H94.1738V407.595L94.1897 407.611ZM98.5626 421.924C98.5626 423.157 97.9526 423.766 96.7405 423.766C96.0275 423.766 95.2274 423.671 94.3323 423.489L94.1659 422.288C95.1165 422.509 95.885 422.628 96.4633 422.628C97.0812 422.628 97.3901 422.391 97.3901 421.924V411.523H93.3579V413.033C93.3579 413.665 93.7302 413.981 94.4748 413.981H96.8831V414.961H94.3639C92.9776 414.961 92.2884 414.321 92.2884 413.033V411.523H89.8247C89.6029 413.965 88.3987 415.665 86.2123 416.613L85.5944 415.633C87.5194 414.827 88.5651 413.459 88.7315 411.523H85.1983V424.106H84.0179V410.464H98.5626V421.924ZM89.1751 420.581V421.948H88.0581V415.91H94.4748V421.332H93.3579V420.581H89.183H89.1751ZM93.3499 419.522V416.977H89.1751V419.522H93.3499Z" fill="#666666"/>
<path d="M105.344 415.91C105.138 418.313 104.607 420.755 103.744 423.237L102.627 422.897C103.395 420.66 103.934 418.257 104.251 415.688L105.344 415.91ZM103.078 414.653L102.935 413.507L104.504 413.452C105.977 411.737 107.419 409.658 108.821 407.216C107.158 407.476 105.272 407.65 103.165 407.745L103.023 406.631L104.258 406.575C105.843 404.378 107.094 401.817 108.013 398.885L109.13 399.28C108.307 401.968 107.15 404.378 105.653 406.52C106.809 406.449 108.045 406.322 109.352 406.157C109.804 405.335 110.239 404.354 110.667 403.224L111.784 403.698C110.398 407.16 108.497 410.393 106.073 413.373C107.752 413.262 109.162 413.112 110.303 412.93C110.113 412.48 109.772 411.839 109.265 411.002L110.216 410.527C111.127 411.871 111.871 413.357 112.426 415.001L111.364 415.451C111.269 415.175 111.182 414.906 111.087 414.669C111.071 414.653 111.055 414.629 111.055 414.614L110.778 413.918C108.219 414.313 105.653 414.558 103.07 414.669L103.078 414.653ZM107.166 415.854L108.283 415.799C108.417 417.143 108.481 418.652 108.481 420.328C108.481 421.039 108.473 421.593 108.457 422.004L107.34 422.091C107.356 421.695 107.364 421.19 107.364 420.549C107.364 418.708 107.3 417.143 107.166 415.854ZM110.723 415.246C111.301 416.51 111.697 417.807 111.903 419.135L110.81 419.467C110.588 418.344 110.232 417.064 109.748 415.609L110.731 415.246H110.723ZM117.029 414.013H112.798V412.954H118.399C118.138 414.503 117.369 416.163 116.102 417.933C114.834 419.704 113.281 421.024 111.452 421.901L110.81 421.008C113.82 419.648 115.888 417.317 117.029 414.021V414.013ZM120.364 421.98C120.364 423.158 119.754 423.742 118.542 423.742C117.852 423.742 117.021 423.624 116.046 423.379L115.991 422.178C117.092 422.454 117.916 422.596 118.454 422.596C118.938 422.596 119.183 422.375 119.183 421.925V410.464H113.638V401.351H117.393C118.027 400.569 118.605 399.588 119.128 398.419L120.189 398.948C119.738 399.841 119.255 400.64 118.732 401.351H125.457V410.464H120.356V412.227C120.768 413.46 121.33 414.503 122.035 415.357C123.398 414.44 124.61 413.262 125.679 411.808L126.464 412.614C125.283 414.139 124.008 415.357 122.621 416.25C124.024 418.336 125.909 419.893 128.278 420.921L127.691 421.846C126.083 421.118 124.594 420.02 123.208 418.55C121.821 417.08 120.871 415.689 120.348 414.384V421.988L120.364 421.98ZM124.285 402.41H114.81V405.176H124.285V402.41ZM114.81 409.397H124.285V406.236H114.81V409.397Z" fill="#666666"/>
<path d="M138.235 409.508H134.425C134.053 410.14 133.546 410.899 132.912 411.776L131.93 411.08C134.156 408.061 136.002 404.821 137.475 401.351H131.058V400.236H139.265C137.824 403.516 136.429 406.235 135.067 408.401H139.606C139.028 412.187 137.95 415.412 136.382 418.075C136.382 418.407 136.936 419.032 138.037 419.948C139.139 420.857 140.454 421.427 141.99 421.656C143.519 421.877 145.944 421.996 149.247 421.996H151.655C153.39 421.98 154.911 421.94 156.226 421.885L156.004 423.11C153.596 423.181 151.235 423.221 148.914 423.221C144.224 423.221 141.087 422.881 139.503 422.209C137.919 421.537 136.635 420.486 135.661 419.047C134.33 421.205 132.864 422.873 131.264 424.051L130.567 423.102C132.342 421.743 133.807 420.028 134.964 417.957C134.275 416.668 133.704 415.254 133.253 413.712L134.259 413.373C134.686 414.732 135.154 415.902 135.661 416.866C136.928 414.629 137.792 412.179 138.235 409.515V409.508ZM147.235 401.517C144.977 401.912 142.909 402.181 141.04 402.323L140.588 401.209C145.46 401.043 150.063 400.102 154.372 398.387L155.046 399.225C153.16 400.047 150.942 400.734 148.407 401.296V408.117H154.293V409.239H148.407V417.119H155.133V418.233H144.961C142.846 418.233 141.792 417.198 141.792 415.127V406.828H142.973V415.127C142.973 416.455 143.638 417.111 144.961 417.111H147.235V401.509V401.517Z" fill="#666666"/>
<path d="M159.593 413.175L158.555 412.503C161.526 408.369 163.609 403.667 164.806 398.411L166.041 398.664C165.534 400.885 164.79 403.106 163.8 405.342V424.098H162.54V407.966C161.676 409.808 160.702 411.539 159.601 413.167L159.593 413.175ZM182.899 403.358V417.894H181.663V415.657H175.611V424.098H174.375V415.657H168.323V417.894H167.087V403.358H174.375V398.521H175.611V403.358H182.899ZM168.331 404.481V408.646H174.383V404.481H168.331ZM174.383 414.542V409.76H168.331V414.542H174.383ZM181.671 408.646V404.481H175.619V408.646H181.671ZM175.619 414.542H181.671V409.76H175.619V414.542Z" fill="#666666"/>
<path d="M190.861 410.907C190.861 416.645 189.776 421.047 187.613 424.098L186.52 423.426C188.54 420.518 189.546 416.345 189.546 410.899V399.573H210.475V405.279H190.861V410.899V410.907ZM205.77 423.995H204.479V416.503H198.704C198.513 420.36 196.042 422.897 191.281 424.106L190.639 422.96C195.012 421.956 197.262 419.799 197.388 416.503H191.225V415.444H197.42V410.575H192.604V409.516H198.094C197.198 408.378 196.089 407.255 194.758 406.133L195.764 405.572C196.921 406.575 198.165 407.895 199.488 409.516H203.1C204.518 408.291 205.667 406.915 206.546 405.406L207.663 405.912C206.863 407.216 205.849 408.417 204.637 409.516H210.658V410.575H205.754V415.444H212.226V416.503H205.754V423.995H205.77ZM209.184 400.648H190.861V404.228H209.184V400.648ZM204.479 410.575H198.704V415.444H204.479V410.575Z" fill="#666666"/>
<path d="M226.193 414.629C224.062 417.783 220.418 420.494 215.268 422.762L214.627 421.585C218.889 419.925 222.287 417.609 224.83 414.621H218.215V404.979H226.898V402.6H215.466V401.454H226.898V398.379H228.157V401.454H239.699V402.6H228.157V404.979H236.594V414.621H230.177C233.742 418.123 237.157 420.454 240.404 421.608L239.787 422.841C235.715 421.166 232.071 418.423 228.862 414.621H228.157V424.098H226.898V414.621H226.2L226.193 414.629ZM226.898 406.101H219.499V409.01H226.898V406.101ZM226.898 410.124H219.499V413.507H226.898V410.124ZM228.157 409.01H235.279V406.101H228.157V409.01ZM228.157 413.507H235.279V410.124H228.157V413.507Z" fill="#666666"/>
<path d="M480.656 20.4313H474.849C475.016 14.4719 477.012 9.5715 480.838 5.74606C484.672 1.92062 489.402 0 495.034 0C500.667 0 505.119 1.79416 508.565 5.39039C512.011 8.97871 513.738 13.2151 513.738 18.0918C513.738 21.5141 512.914 24.731 511.274 27.7344C509.626 30.73 506.442 34.7925 501.705 39.9221L486.613 56.1407H514.57V61.9737H473.423L496.571 37.0135C501.269 32.0025 504.319 28.2798 505.737 25.8454C507.147 23.419 507.86 20.866 507.86 18.1708C507.86 14.7722 506.584 11.8478 504.049 9.38971C501.507 6.93953 498.401 5.70654 494.717 5.70654C490.844 5.70654 487.627 6.99486 485.061 9.5715C482.494 12.1481 481.028 15.7681 480.672 20.4234L480.656 20.4313Z" fill="white"/>
<path d="M480.656 20.4313H474.849C475.016 14.4719 477.012 9.5715 480.838 5.74606C484.672 1.92062 489.402 0 495.034 0C500.667 0 505.119 1.79416 508.565 5.39039C512.011 8.97871 513.738 13.2151 513.738 18.0918C513.738 21.5141 512.914 24.731 511.274 27.7344C509.626 30.73 506.442 34.7925 501.705 39.9221L486.613 56.1407H514.57V61.9737H473.423L496.571 37.0135C501.269 32.0025 504.319 28.2798 505.737 25.8454C507.147 23.419 507.86 20.866 507.86 18.1708C507.86 14.7722 506.584 11.8478 504.049 9.38971C501.507 6.93953 498.401 5.70654 494.717 5.70654C490.844 5.70654 487.627 6.99486 485.061 9.5715C482.494 12.1481 481.028 15.7681 480.672 20.4234L480.656 20.4313Z" fill="#B98897"/>
<path d="M539.674 57.2394C534.699 59.0335 529.273 60.4167 523.379 61.4047L522.801 56.86C525.795 56.5438 528.251 56.1249 530.152 55.5954V39.5507H523.537V35.4881H530.152V30.9513H526.08V28.8884L524.44 30.5245L522.642 25.6716C526.199 22.8895 528.916 19.1747 530.786 14.5351H534.383C536.815 17.175 538.969 20.0599 540.839 23.1898L537.242 25.9798C535.587 22.9606 534.208 20.6527 533.115 19.0719C531.919 21.4273 530.136 24.0513 527.776 26.9362H538.407V30.9513H534.232V35.4881H539.999V39.5507H534.232V54.7497C535.08 54.4651 535.943 54.2201 536.822 54.0067C537.67 53.8012 538.549 53.5167 539.468 53.161L539.682 57.2236L539.674 57.2394ZM524.971 53.8091C524.765 49.6517 524.322 46.1741 523.648 43.3603L526.983 42.8307C527.728 45.439 528.291 48.8692 528.679 53.1215L524.979 53.8091H524.971ZM539.516 42.7833C539.231 46.7905 538.938 49.8177 538.621 51.8569L535.286 51.3273C535.88 48.0156 536.22 45.1149 536.292 42.6173L539.516 42.7754V42.7833ZM555.914 55.9194C557.324 54.2992 558.79 52.1019 560.303 49.3198C558.996 42.2854 558.346 35.5434 558.346 29.1098V28.9517H539.888V25.2053H546.812V21.9331H540.839V18.3448H546.812V14.8118H550.995V18.3448H556.92V21.9331H550.995V25.2053H558.188V14.2822H562.418V25.2053H571.362V28.9517H562.474C562.474 33.4568 562.775 38.2228 563.369 43.2496C565.024 38.539 566.276 34.3342 567.124 30.6352L570.776 31.9551C569.08 38.784 567.037 44.6249 564.636 49.4778C564.636 49.8651 564.914 51.0586 565.484 53.0662C566.046 55.0737 566.545 56.0775 566.965 56.0775C567.385 56.0775 567.599 54.6706 567.599 51.8569C567.599 51.0507 567.583 50.3631 567.544 49.794L571.299 53.1215C571.227 59.5236 569.904 62.7246 567.33 62.7246C566.134 62.7246 564.985 61.8631 563.892 60.1401C562.798 58.417 562.022 56.4648 561.563 54.2833C561.563 54.3861 560.913 55.3899 559.606 57.2947C558.299 59.1995 556.992 60.8514 555.692 62.2504L552.31 59.5078C552.872 58.9782 553.26 58.6304 553.474 58.4486C553.831 58.1325 554.195 57.7768 554.583 57.3895C551.621 58.1641 547.303 59.1284 541.623 60.2902L540.459 56.3858C543.176 56.038 545.204 55.6823 546.543 55.3266V51.1614H541.52V47.8892H546.654V44.9332H540.997V41.6136H556.287V44.9332H550.575V47.8892H555.653V51.1614H550.575V54.5916C552.73 54.1648 554.528 53.7301 555.97 53.2717L555.914 55.9115V55.9194ZM541.528 39.5586V30.8565H556.445V39.5586H541.528ZM552.746 33.6544H545.235V36.7685H552.746V33.6544ZM567.393 24.7864C566.126 21.9331 564.779 19.562 563.377 17.6571L566.712 15.9183C568.019 17.4675 569.477 19.72 571.101 22.6761L567.401 24.7864H567.393Z" fill="#231816"/>
<path d="M539.674 57.2394C534.699 59.0335 529.273 60.4167 523.379 61.4047L522.801 56.86C525.795 56.5438 528.251 56.1249 530.152 55.5954V39.5507H523.537V35.4881H530.152V30.9513H526.08V28.8884L524.44 30.5245L522.642 25.6716C526.199 22.8895 528.916 19.1747 530.786 14.5351H534.383C536.815 17.175 538.969 20.0599 540.839 23.1898L537.242 25.9798C535.587 22.9606 534.208 20.6527 533.115 19.0719C531.919 21.4273 530.136 24.0513 527.776 26.9362H538.407V30.9513H534.232V35.4881H539.999V39.5507H534.232V54.7497C535.08 54.4651 535.943 54.2201 536.822 54.0067C537.67 53.8012 538.549 53.5167 539.468 53.161L539.682 57.2236L539.674 57.2394ZM524.971 53.8091C524.765 49.6517 524.322 46.1741 523.648 43.3603L526.983 42.8307C527.728 45.439 528.291 48.8692 528.679 53.1215L524.979 53.8091H524.971ZM539.516 42.7833C539.231 46.7905 538.938 49.8177 538.621 51.8569L535.286 51.3273C535.88 48.0156 536.22 45.1149 536.292 42.6173L539.516 42.7754V42.7833ZM555.914 55.9194C557.324 54.2992 558.79 52.1019 560.303 49.3198C558.996 42.2854 558.346 35.5434 558.346 29.1098V28.9517H539.888V25.2053H546.812V21.9331H540.839V18.3448H546.812V14.8118H550.995V18.3448H556.92V21.9331H550.995V25.2053H558.188V14.2822H562.418V25.2053H571.362V28.9517H562.474C562.474 33.4568 562.775 38.2228 563.369 43.2496C565.024 38.539 566.276 34.3342 567.124 30.6352L570.776 31.9551C569.08 38.784 567.037 44.6249 564.636 49.4778C564.636 49.8651 564.914 51.0586 565.484 53.0662C566.046 55.0737 566.545 56.0775 566.965 56.0775C567.385 56.0775 567.599 54.6706 567.599 51.8569C567.599 51.0507 567.583 50.3631 567.544 49.794L571.299 53.1215C571.227 59.5236 569.904 62.7246 567.33 62.7246C566.134 62.7246 564.985 61.8631 563.892 60.1401C562.798 58.417 562.022 56.4648 561.563 54.2833C561.563 54.3861 560.913 55.3899 559.606 57.2947C558.299 59.1995 556.992 60.8514 555.692 62.2504L552.31 59.5078C552.872 58.9782 553.26 58.6304 553.474 58.4486C553.831 58.1325 554.195 57.7768 554.583 57.3895C551.621 58.1641 547.303 59.1284 541.623 60.2902L540.459 56.3858C543.176 56.038 545.204 55.6823 546.543 55.3266V51.1614H541.52V47.8892H546.654V44.9332H540.997V41.6136H556.287V44.9332H550.575V47.8892H555.653V51.1614H550.575V54.5916C552.73 54.1648 554.528 53.7301 555.97 53.2717L555.914 55.9115V55.9194ZM541.528 39.5586V30.8565H556.445V39.5586H541.528ZM552.746 33.6544H545.235V36.7685H552.746V33.6544ZM567.393 24.7864C566.126 21.9331 564.779 19.562 563.377 17.6571L566.712 15.9183C568.019 17.4675 569.477 19.72 571.101 22.6761L567.401 24.7864H567.393Z" fill="#B98897"/>
<path d="M651.373 103.35H393V329.422H651.373V103.35Z" fill="#B98897"/>
<mask id="mask0_5_133" style="mask-type:luminance" maskUnits="userSpaceOnUse" x="410" y="138" width="224" height="179">
<path d="M633.636 138.332H410.737V316.76H633.636V138.332Z" fill="white"/>
</mask>
<g mask="url(#mask0_5_133)">
<path d="M495.826 299.42L425.218 283.233L431.279 277.21L500.675 292.701L495.826 299.42Z" fill="white"/>
<path d="M512.336 285.398L441.839 272.468L443.177 265.062L517.984 278.522L512.336 285.398Z" fill="white"/>
<path d="M489.893 306.818L480.387 304.391L634.484 186.451V194.054L489.893 306.818Z" fill="white"/>
<path d="M422.866 290.536L412.48 287.817L569.532 171.686L574.032 177.725L422.866 290.536Z" fill="white"/>
<path d="M442.053 250.977C442.053 250.977 462.428 210.723 485.314 184.886C502.433 165.553 519.561 156.116 544.34 155.665C569.12 155.215 623.67 162.858 634.484 166.003V190.727C634.484 190.727 571.505 240.102 560.564 248.725C549.806 257.198 510.997 279.297 490.273 281.091C469.542 282.893 430.795 279.289 442.06 250.969L442.053 250.977Z" fill="white"/>
<path d="M456.621 225.448C456.621 225.448 438.44 238.695 435.747 252.779C433.132 266.469 438.424 271.717 446.766 275.044C458.015 279.534 478.557 277.953 492.975 272.112C507.393 266.271 548.396 243.342 563.266 233.447C578.135 223.559 596.158 210.968 596.158 210.968C596.158 210.968 596.435 201.879 606.266 195.943C616.089 190.015 633.113 182.641 633.113 182.641V178.144L579.038 200.172C579.038 200.172 534.43 217.252 527.673 221.299C520.915 225.345 506.101 232.356 495.232 245.579C489.338 252.748 479.008 264.011 470.896 265.813C462.784 267.615 445.213 268.057 444.762 255.024C444.31 241.983 456.629 225.448 456.629 225.448H456.621Z" fill="#B98897" stroke="white" stroke-miterlimit="10"/>
<path d="M470.611 206.921H517.026C517.026 206.921 521.256 206.684 524.219 205.349C528.996 203.191 538.122 196.101 544.063 191.635C549.41 187.612 560.287 178.152 558.933 171.402C557.578 164.66 550.82 163.759 547.668 163.759H514.324C514.324 163.759 494.947 170.05 470.619 206.921H470.611Z" fill="#B98897" stroke="white" stroke-miterlimit="10"/>
<path d="M596.158 178.144L620.494 174.998V181.297L596.158 188.94V178.144Z" fill="#B98897" stroke="white" stroke-miterlimit="10"/>
<path d="M624.439 174.998L634.484 173.204V176.365L624.439 179.337V174.998Z" fill="#B98897" stroke="white" stroke-miterlimit="10"/>
<path d="M511.536 199.903H504.842V204.977H511.536V199.903Z" fill="white"/>
<path d="M519.695 199.903H513.001V204.977H519.695V199.903Z" fill="white"/>
<path d="M485.378 199.903H478.683V204.977H485.378V199.903Z" fill="white"/>
<path d="M493.537 199.903H486.843V204.977H493.537V199.903Z" fill="white"/>
<path d="M583.784 230.404L579.26 233.099L579.886 171.765L584.417 171.102L583.784 230.404Z" fill="white"/>
<path d="M481.947 235.217C481.963 235.122 481.979 235.027 482.003 234.94C477.353 232.49 472.433 231.313 467.149 231.992C463.03 232.53 459.346 234.134 456.114 236.743C456.312 236.79 456.478 236.75 456.621 236.679C460.875 234.458 465.446 233.692 470.183 233.747C473.265 233.786 476.315 234.174 479.349 234.735C480.212 234.893 481.084 235.051 481.947 235.209V235.217Z" fill="#162789"/>
<path d="M486.772 250.495C486.019 250.226 485.251 249.981 484.514 249.689C481.353 248.432 478.2 247.136 474.825 246.591C472.195 246.172 469.534 245.887 466.888 245.563C466.626 245.532 466.349 245.619 466.072 245.65C466.072 245.713 466.072 245.785 466.072 245.848C466.238 245.903 466.397 245.966 466.563 245.998C469.898 246.638 473.083 247.729 476.228 248.986C478.612 249.942 481.044 250.78 483.643 250.977C484.712 251.056 485.766 251.009 486.772 250.479V250.495Z" fill="#162789"/>
<path d="M484.704 255.071C483.128 254.368 481.686 253.752 480.26 253.088C475.594 250.922 470.682 249.673 465.581 249.096C465.24 249.057 464.899 249.096 464.551 249.096C464.543 249.167 464.535 249.246 464.519 249.317C464.67 249.381 464.82 249.46 464.979 249.499C468.092 250.282 471.039 251.499 473.938 252.85C476.299 253.957 478.683 255.024 481.314 255.356C482.415 255.498 483.508 255.514 484.704 255.079V255.071Z" fill="#162789"/>
<path d="M488.626 245.729C487.944 245.547 487.255 245.405 486.59 245.184C482.359 243.769 478.066 242.647 473.598 242.338C471.728 242.212 469.843 242.188 467.973 242.133C467.799 242.133 467.624 242.22 467.45 242.267C467.45 242.322 467.45 242.378 467.45 242.441C467.632 242.481 467.815 242.536 468.005 242.568C468.987 242.718 469.985 242.773 470.936 243.01C473.93 243.769 476.909 244.591 479.888 245.413C481.9 245.966 483.92 246.472 486.027 246.425C486.922 246.401 487.825 246.314 488.626 245.729Z" fill="#162789"/>
<path d="M473.796 238.963C473.946 239.177 473.962 239.232 473.994 239.24C474.113 239.272 474.231 239.288 474.342 239.311C475.737 239.635 477.139 239.928 478.517 240.291C480.141 240.718 481.733 241.256 483.357 241.651C485.52 242.172 487.707 242.354 489.885 241.706C490.123 241.635 490.337 241.516 490.566 241.422C485.061 240.086 479.634 238.505 473.788 238.963H473.796Z" fill="#162789"/>
<path d="M447.257 249.254C447.424 249.254 447.495 249.278 447.535 249.254C447.653 249.183 447.764 249.088 447.867 249.001C449.056 247.974 450.379 247.152 451.884 246.685C453.246 246.259 454.648 245.95 456.043 245.611C456.867 245.413 457.635 245.121 458.158 244.425C458.293 244.243 458.388 243.927 458.324 243.729C458.285 243.603 457.912 243.516 457.698 243.532C457.16 243.571 456.613 243.635 456.082 243.753C452.62 244.52 449.887 246.52 447.432 248.954C447.368 249.017 447.344 249.12 447.265 249.27L447.257 249.254Z" fill="#162789"/>
<path d="M446.029 252.163C446.164 252.202 446.212 252.234 446.235 252.218C446.378 252.139 446.505 252.044 446.647 251.973C447.843 251.341 448.976 250.543 450.244 250.132C451.804 249.626 453.468 249.42 455.1 249.12C455.908 248.97 456.621 248.693 457.088 247.99C457.413 247.507 457.263 247.199 456.684 247.223C455.86 247.255 455.021 247.27 454.213 247.436C451.099 248.069 448.58 249.807 446.235 251.839C446.156 251.91 446.109 252.021 446.021 252.155L446.029 252.163Z" fill="#162789"/>
<path d="M448.303 245.998C448.398 246.03 448.446 246.061 448.469 246.045C448.572 245.99 448.683 245.927 448.762 245.848C450.529 244.148 452.676 243.16 455.021 242.544C455.805 242.338 456.621 242.228 457.358 241.92C458.007 241.651 458.578 241.177 459.148 240.75C459.283 240.647 459.346 240.307 459.275 240.157C459.211 240.023 458.91 239.936 458.72 239.944C458.277 239.959 457.833 240.015 457.397 240.117C453.785 240.939 450.965 243.042 448.453 245.642C448.374 245.729 448.343 245.864 448.287 245.99L448.303 245.998Z" fill="#162789"/>
<path d="M449.475 242.757C449.713 242.639 449.816 242.615 449.879 242.552C450.925 241.516 452.161 240.765 453.468 240.109C453.888 239.904 454.284 239.556 454.545 239.169C454.767 238.845 454.989 238.165 454.838 238.007C454.474 237.628 453.991 238.007 453.682 238.3C452.303 239.627 450.957 240.987 449.61 242.346C449.555 242.402 449.547 242.512 449.475 242.757Z" fill="#162789"/>
<path d="M481.947 235.217C481.084 235.059 480.212 234.901 479.349 234.743C476.323 234.182 473.265 233.794 470.183 233.755C465.446 233.692 460.875 234.466 456.621 236.687C456.478 236.766 456.312 236.798 456.114 236.75C459.346 234.142 463.03 232.53 467.149 232C472.433 231.313 477.353 232.498 482.003 234.948C481.987 235.043 481.971 235.138 481.947 235.225V235.217Z" fill="#B98897"/>
<path d="M486.772 250.495C485.766 251.025 484.712 251.072 483.643 250.993C481.044 250.796 478.62 249.958 476.228 249.001C473.083 247.745 469.89 246.654 466.563 246.014C466.397 245.982 466.238 245.911 466.072 245.864C466.072 245.8 466.072 245.729 466.072 245.666C466.341 245.634 466.618 245.54 466.888 245.579C469.534 245.903 472.187 246.18 474.825 246.607C478.2 247.152 481.361 248.448 484.514 249.705C485.259 249.997 486.019 250.242 486.772 250.511V250.495Z" fill="#B98897"/>
<path d="M484.704 255.071C483.516 255.506 482.415 255.49 481.314 255.348C478.683 255.016 476.299 253.949 473.938 252.843C471.039 251.491 468.092 250.274 464.979 249.491C464.82 249.452 464.67 249.373 464.519 249.31C464.527 249.238 464.535 249.159 464.551 249.088C464.891 249.088 465.24 249.057 465.581 249.088C470.674 249.673 475.594 250.914 480.26 253.08C481.686 253.744 483.128 254.36 484.704 255.064V255.071Z" fill="#B98897"/>
<path d="M488.626 245.729C487.825 246.306 486.93 246.401 486.027 246.425C483.92 246.472 481.9 245.966 479.888 245.413C476.909 244.591 473.93 243.769 470.936 243.01C469.985 242.765 468.979 242.71 468.005 242.568C467.815 242.536 467.64 242.481 467.45 242.441C467.45 242.386 467.45 242.33 467.45 242.267C467.624 242.22 467.799 242.133 467.973 242.133C469.851 242.188 471.728 242.204 473.598 242.338C478.066 242.647 482.359 243.769 486.59 245.184C487.255 245.405 487.944 245.547 488.626 245.729Z" fill="#B98897"/>
<path d="M473.796 238.963C479.634 238.505 485.069 240.086 490.574 241.422C490.345 241.516 490.131 241.635 489.893 241.706C487.714 242.354 485.528 242.172 483.365 241.651C481.741 241.256 480.149 240.718 478.525 240.291C477.147 239.928 475.744 239.635 474.35 239.311C474.231 239.288 474.113 239.272 474.002 239.24C473.97 239.24 473.954 239.177 473.804 238.963H473.796Z" fill="#B98897"/>
<path d="M447.257 249.254C447.336 249.104 447.36 249.001 447.424 248.938C449.887 246.504 452.612 244.512 456.074 243.737C456.605 243.619 457.152 243.548 457.69 243.516C457.904 243.5 458.277 243.587 458.316 243.714C458.38 243.911 458.285 244.227 458.15 244.409C457.627 245.105 456.859 245.397 456.035 245.595C454.64 245.935 453.238 246.243 451.876 246.67C450.379 247.136 449.056 247.958 447.859 248.985C447.756 249.08 447.645 249.167 447.527 249.238C447.487 249.262 447.416 249.238 447.249 249.238L447.257 249.254Z" fill="#B98897"/>
<path d="M446.029 252.163C446.116 252.028 446.156 251.91 446.243 251.847C448.596 249.823 451.107 248.076 454.221 247.444C455.029 247.278 455.86 247.262 456.692 247.231C457.271 247.207 457.421 247.515 457.096 247.997C456.629 248.701 455.916 248.978 455.108 249.128C453.484 249.42 451.82 249.626 450.252 250.139C448.984 250.55 447.851 251.349 446.655 251.981C446.513 252.052 446.386 252.155 446.243 252.226C446.219 252.242 446.172 252.21 446.037 252.171L446.029 252.163Z" fill="#B98897"/>
<path d="M448.303 245.998C448.358 245.879 448.382 245.737 448.469 245.65C450.981 243.05 453.801 240.947 457.413 240.125C457.841 240.03 458.292 239.975 458.736 239.951C458.926 239.944 459.227 240.03 459.291 240.165C459.362 240.315 459.291 240.663 459.164 240.758C458.594 241.184 458.023 241.659 457.374 241.927C456.637 242.236 455.813 242.346 455.037 242.552C452.692 243.168 450.545 244.156 448.778 245.856C448.691 245.935 448.588 245.998 448.485 246.053C448.461 246.069 448.414 246.037 448.319 246.006L448.303 245.998Z" fill="#B98897"/>
<path d="M449.475 242.757C449.555 242.512 449.555 242.402 449.61 242.346C450.957 240.995 452.303 239.627 453.682 238.3C453.983 238.007 454.466 237.628 454.838 238.007C454.989 238.165 454.767 238.845 454.545 239.169C454.284 239.548 453.888 239.896 453.468 240.109C452.153 240.765 450.925 241.516 449.879 242.552C449.816 242.615 449.713 242.639 449.475 242.757Z" fill="#B98897"/>
</g>
<path d="M449.555 380.861L450.616 380.276C451.361 380.892 452.216 381.777 453.167 382.931H464.741V383.99H439.636V382.931H451.654C451.02 382.188 450.315 381.493 449.555 380.861ZM461.857 394.028H442.52V405.963H441.284V392.961H463.109V403.497C463.109 404.951 462.293 405.678 460.669 405.678C459.956 405.678 458.926 405.639 457.556 405.568L457.247 404.256C458.514 404.422 459.56 404.509 460.384 404.509C461.358 404.509 461.841 404.137 461.841 403.386V394.02L461.857 394.028ZM458.799 391.033H445.491V385.777H458.799V391.033ZM446.695 386.844V389.974H457.595V386.844H446.695ZM447.931 402.019V403.782H446.75V396.376H457.484V403.197H456.304V402.019H447.923H447.931ZM456.312 400.984V397.403H447.931V400.984H456.312Z" fill="#666666"/>
<path d="M469.169 389.191C468.924 389.507 468.734 389.768 468.583 389.973C468.448 390.163 468.25 390.408 467.965 390.732L467.268 389.752C469.027 388.282 470.722 385.263 472.37 380.694L473.352 381.058L472.623 382.931C474.057 384.275 475.134 385.326 475.847 386.092L475.119 386.788C473.883 385.484 472.916 384.512 472.203 383.879C471.419 385.484 470.635 386.915 469.851 388.187H475.396V389.199H472.679V392.692H476.038V393.696H472.679V402.058C473.542 401.797 474.223 401.6 474.723 401.473C475.285 401.323 476.022 401.102 476.933 400.801L477.131 401.75C473.883 402.809 470.769 403.639 467.799 404.24L467.434 403.181C468.274 403.015 468.955 402.88 469.478 402.785C470.152 402.651 470.833 402.509 471.522 402.335V393.696H468.044V392.692H471.522V389.199H469.169V389.191ZM469.256 395.506C469.874 397.197 470.365 398.936 470.738 400.707L469.7 401.015C469.328 399.055 468.876 397.316 468.353 395.79L469.248 395.514L469.256 395.506ZM475.84 395.561C475.538 397.387 475.047 399.118 474.358 400.762L473.376 400.398C473.97 398.999 474.485 397.308 474.913 395.308L475.84 395.561ZM475.895 387.792V386.788H480.434V384.164H476.648V383.16H480.434V380.671H481.583V383.16H485.172V384.164H481.583V386.788H486.431C486.336 385.278 486.289 383.152 486.289 380.41H487.382C487.382 381.809 487.39 382.947 487.406 383.816C487.406 384.559 487.445 385.547 487.516 386.78H492.729V387.784H487.572C487.778 391.143 488.103 394.17 488.554 396.873C489.394 394.652 490.02 392.155 490.432 389.38L491.414 389.633C490.867 392.898 490.044 395.838 488.919 398.47C488.919 398.865 489.212 399.964 489.79 401.766C490.368 403.576 490.852 404.477 491.248 404.477C491.604 404.477 491.818 403.117 491.889 400.398L492.927 400.62C492.737 404.05 492.182 405.765 491.248 405.765C490.131 405.765 489.077 403.797 488.111 399.869C486.819 402.2 485.243 404.074 483.373 405.488L482.565 404.73C484.847 402.975 486.582 400.865 487.778 398.383C487.12 394.976 486.677 391.435 486.431 387.76L475.895 387.784V387.792ZM481.583 398.446H484.918V399.426H481.583V401.971C482.819 401.655 484.078 401.292 485.37 400.881L485.512 401.805C482.708 402.777 479.634 403.536 476.291 404.097L476.069 403.094C477.955 402.754 479.42 402.477 480.466 402.256V399.434H477.416V398.454H480.466V396.328H476.798V395.293H485.512V396.328H481.591V398.454L481.583 398.446ZM477.384 393.72V389.112H484.839V393.72H477.384ZM483.738 390.116H478.438V392.74H483.738V390.116ZM488.784 381.698L489.568 381.168C490.558 382.362 491.454 383.611 492.262 384.915L491.366 385.476C490.471 383.982 489.608 382.725 488.792 381.706L488.784 381.698Z" fill="#666666"/>
<path d="M502.964 391.396H499.154C498.781 392.028 498.274 392.787 497.641 393.664L496.658 392.969C498.884 389.949 500.73 386.709 502.204 383.239H495.787V382.125H503.994C502.552 385.405 501.158 388.124 499.795 390.289H504.335C503.756 394.075 502.679 397.3 501.11 399.963C501.11 400.295 501.665 400.92 502.766 401.837C503.867 402.746 505.182 403.315 506.719 403.544C508.248 403.765 510.672 403.884 513.976 403.884H516.384C518.119 403.868 519.64 403.828 520.955 403.773L520.733 404.998C518.325 405.069 515.964 405.109 513.643 405.109C508.953 405.109 505.816 404.769 504.232 404.097C502.647 403.425 501.364 402.374 500.39 400.936C499.059 403.093 497.593 404.761 495.993 405.939L495.296 404.99C497.07 403.631 498.536 401.916 499.692 399.845C499.003 398.557 498.433 397.142 497.981 395.601L498.987 395.261C499.415 396.62 499.883 397.79 500.39 398.754C501.657 396.517 502.52 394.067 502.964 391.404V391.396ZM511.955 383.405C509.698 383.8 507.63 384.069 505.761 384.211L505.309 383.097C510.181 382.931 514.784 381.99 519.093 380.275L519.767 381.113C517.881 381.935 515.663 382.623 513.128 383.184V390.005H519.014V391.127H513.128V399.007H519.854V400.122H509.682C507.567 400.122 506.513 399.086 506.513 397.015V388.716H507.694V397.015C507.694 398.343 508.359 398.999 509.682 398.999H511.955V383.397V383.405Z" fill="#666666"/>
<path d="M524.314 395.063L523.276 394.392C526.247 390.258 528.33 385.555 529.526 380.299L530.762 380.552C530.255 382.773 529.51 384.994 528.52 387.231V405.986H527.261V389.855C526.397 391.696 525.423 393.427 524.322 395.055L524.314 395.063ZM547.628 385.247V399.782H546.392V397.545H540.34V405.986H539.104V397.545H533.052V399.782H531.816V385.247H539.104V380.41H540.34V385.247H547.628ZM533.052 386.369V390.534H539.104V386.369H533.052ZM539.112 396.431V391.649H533.059V396.431H539.112ZM546.392 390.534V386.369H540.34V390.534H546.392ZM540.34 396.431H546.392V391.649H540.34V396.431Z" fill="#666666"/>
<path d="M555.581 392.795C555.581 398.533 554.496 402.935 552.334 405.986L551.24 405.314C553.26 402.406 554.266 398.233 554.266 392.787V381.461H575.196V387.167H555.581V392.787V392.795ZM570.491 405.883H569.199V398.391H563.424C563.234 402.248 560.762 404.785 556.001 405.994L555.36 404.848C559.733 403.844 561.982 401.686 562.109 398.391H555.946V397.332H562.141V392.463H557.324V391.404H562.814C561.919 390.266 560.81 389.143 559.479 388.021L560.485 387.46C561.642 388.463 562.886 389.783 564.208 391.404H567.821C569.239 390.179 570.388 388.803 571.267 387.294L572.384 387.8C571.584 389.104 570.57 390.305 569.358 391.404H575.378V392.463H570.475V397.332H576.947V398.391H570.475V405.883H570.491ZM573.905 382.536H555.581V386.116H573.905V382.536ZM569.199 392.463H563.424V397.332H569.199V392.463Z" fill="#666666"/>
<path d="M590.913 396.518C588.782 399.671 585.138 402.382 579.989 404.651L579.347 403.473C583.609 401.813 587.008 399.497 589.551 396.51H582.936V386.867H591.618V384.488H580.187V383.342H591.618V380.267H592.878V383.342H604.42V384.488H592.878V386.867H601.315V396.51H594.898C598.463 400.011 601.877 402.343 605.125 403.497L604.507 404.73C600.435 403.054 596.791 400.311 593.583 396.51H592.878V405.986H591.618V396.51H590.921L590.913 396.518ZM591.618 387.989H584.219V390.898H591.618V387.989ZM591.618 392.012H584.219V395.395H591.618V392.012ZM592.878 390.898H600V387.989H592.878V390.898ZM592.878 395.395H600V392.012H592.878V395.395Z" fill="#666666"/>
<path d="M473.907 426.631C473.138 425.809 471.578 424.394 469.225 422.387L470.175 421.517C474.287 424.963 477.242 427.872 479.056 430.243L477.994 431.081C476.18 428.899 475.198 427.809 475.055 427.809H475.031C469.542 428.141 462.404 428.449 453.626 428.733L453.484 427.334C453.856 427.374 454.284 427.39 454.775 427.39H455.14C455.441 427.374 455.932 427.366 456.621 427.366C459.909 424.702 462.618 421.438 464.749 417.581L466.262 418.055C464.693 420.592 463.093 422.766 461.469 424.568C459.845 426.378 458.91 427.279 458.665 427.279C460.479 427.279 465.557 427.066 473.907 426.639V426.631ZM458.974 443.268H457.627V432.005H474.691V443.268H473.233V441.427H458.974V443.268ZM473.233 433.231H458.974V440.194H473.233V433.231Z" fill="#666666"/>
<path d="M483.183 426.465C482.938 426.781 482.747 427.042 482.597 427.247C482.462 427.437 482.264 427.682 481.979 428.006L481.282 427.026C483.041 425.556 484.736 422.537 486.384 417.968L487.366 418.332L486.637 420.205C488.071 421.549 489.148 422.6 489.861 423.367L489.132 424.062C487.897 422.758 486.93 421.786 486.217 421.154C485.433 422.758 484.649 424.189 483.864 425.461H489.41V426.473H486.693V429.966H490.051V430.97H486.693V439.332C487.556 439.071 488.237 438.874 488.736 438.747C489.299 438.597 490.036 438.376 490.947 438.076L491.145 439.024C487.897 440.083 484.783 440.913 481.813 441.514L481.448 440.455C482.288 440.289 482.969 440.154 483.492 440.059C484.165 439.925 484.847 439.783 485.536 439.609V430.97H482.058V429.966H485.536V426.473H483.183V426.465ZM483.262 432.78C483.88 434.471 484.371 436.21 484.744 437.981L483.706 438.289C483.334 436.329 482.882 434.59 482.359 433.065L483.254 432.788L483.262 432.78ZM489.845 432.835C489.544 434.661 489.053 436.392 488.364 438.036L487.382 437.673C487.976 436.274 488.491 434.582 488.919 432.582L489.845 432.835ZM489.901 425.066V424.062H494.44V421.438H490.654V420.434H494.44V417.945H495.589V420.434H499.177V421.438H495.589V424.062H500.437C500.342 422.553 500.294 420.426 500.294 417.684H501.388C501.388 419.083 501.396 420.221 501.411 421.09C501.411 421.833 501.451 422.821 501.522 424.054H506.735V425.058H501.578C501.784 428.417 502.109 431.444 502.56 434.147C503.4 431.926 504.026 429.429 504.438 426.655L505.42 426.908C504.873 430.172 504.049 433.112 502.925 435.744C502.925 436.139 503.218 437.238 503.796 439.04C504.374 440.85 504.857 441.751 505.254 441.751C505.61 441.751 505.824 440.391 505.895 437.673L506.933 437.894C506.743 441.324 506.188 443.039 505.254 443.039C504.137 443.039 503.083 441.071 502.116 437.143C500.825 439.475 499.249 441.348 497.379 442.763L496.571 442.004C498.853 440.249 500.588 438.139 501.784 435.657C501.126 432.251 500.683 428.71 500.437 425.034L489.901 425.058V425.066ZM495.597 435.72H498.932V436.7H495.597V439.245C496.833 438.929 498.092 438.566 499.383 438.155L499.526 439.079C496.722 440.052 493.648 440.81 490.305 441.371L490.083 440.368C491.969 440.028 493.434 439.751 494.48 439.53V436.708H491.43V435.728H494.48V433.602H490.812V432.567H499.526V433.602H495.605V435.728L495.597 435.72ZM491.39 430.994V426.386H498.845V430.994H491.39ZM497.752 427.39H492.452V430.014H497.752V427.39ZM502.798 418.972L503.582 418.443C504.572 419.636 505.467 420.885 506.276 422.189L505.38 422.75C504.485 421.256 503.622 420 502.806 418.98L502.798 418.972Z" fill="#666666"/>
<path d="M514.483 427.579H517.255V428.639H514.483V435.404C515.734 435.033 516.891 434.598 517.96 434.092L518.047 435.151C515.037 436.384 512.328 437.333 509.92 438.005L509.5 436.914C510.823 436.613 512.106 436.234 513.342 435.768V428.639H510.403V427.579H513.342V421.209H509.587V420.118H518.103V421.209H514.491V427.579H514.483ZM515.6 439.941L515.124 438.906C518.428 437.846 521.248 436.329 523.585 434.377H519.973V429.342H531.8V434.377H526.92C527.459 435.626 528.18 436.764 529.075 437.783C530.889 436.874 532.37 436.005 533.527 435.183L534.145 436.044C533.044 436.851 531.626 437.72 529.883 438.676C531.34 440.131 533.06 441.332 535.04 442.281L534.398 443.229C530.176 441.269 527.292 438.321 525.74 434.369H525.177C524.433 435.08 523.648 435.728 522.824 436.329V440.723C524.322 440.178 525.763 439.562 527.166 438.85L527.364 439.886C524.377 441.324 521.565 442.383 518.927 443.071L518.531 442.035C519.576 441.814 520.638 441.506 521.723 441.111V437.056C520.06 438.139 518.016 439.095 515.584 439.933L515.6 439.941ZM517.675 426.433H534.85V427.524H517.675V426.433ZM518.903 418.696H533.028V424.623H518.903V418.696ZM519.973 419.723V423.612H523.165V419.723H519.973ZM521.034 430.377V433.341H530.73V430.377H521.034ZM527.506 423.612V419.723H524.258V423.612H527.506ZM531.966 423.612V419.723H528.576V423.612H531.966Z" fill="#666666"/>
<path d="M557.966 426.631C557.198 425.809 555.637 424.394 553.284 422.387L554.235 421.517C558.346 424.963 561.301 427.872 563.115 430.243L562.054 431.081C560.24 428.899 559.257 427.809 559.115 427.809H559.091C553.601 428.141 546.463 428.449 537.686 428.733L537.543 427.334C537.916 427.374 538.343 427.39 538.835 427.39H539.199C539.5 427.374 539.991 427.366 540.68 427.366C543.968 424.702 546.677 421.438 548.808 417.581L550.321 418.055C548.753 420.592 547.153 422.766 545.529 424.568C543.905 426.378 542.97 427.279 542.724 427.279C544.538 427.279 549.616 427.066 557.966 426.639V426.631ZM543.033 443.268H541.686V432.005H558.75V443.268H557.293V441.427H543.033V443.268ZM557.293 433.231H543.033V440.194H557.293V433.231Z" fill="#666666"/>
<path d="M568.138 435.072C567.932 437.475 567.401 439.917 566.538 442.399L565.421 442.059C566.189 439.822 566.728 437.42 567.045 434.851L568.138 435.072ZM565.864 433.815L565.722 432.669L567.29 432.614C568.764 430.899 570.205 428.82 571.608 426.378C569.944 426.639 568.059 426.813 565.951 426.908L565.809 425.793L567.045 425.738C568.629 423.541 569.881 420.98 570.799 418.047L571.916 418.443C571.093 421.13 569.936 423.541 568.439 425.682C569.595 425.611 570.831 425.485 572.138 425.319C572.59 424.497 573.026 423.517 573.453 422.387L574.57 422.861C573.184 426.323 571.283 429.555 568.859 432.535C570.538 432.424 571.948 432.274 573.089 432.092C572.899 431.642 572.558 431.002 572.051 430.164L573.002 429.69C573.913 431.033 574.657 432.519 575.212 434.163L574.15 434.614C574.055 434.337 573.968 434.068 573.873 433.831C573.857 433.815 573.842 433.792 573.842 433.776L573.564 433.08C571.005 433.476 568.439 433.721 565.856 433.831L565.864 433.815ZM569.96 435.017L571.077 434.961C571.211 436.305 571.275 437.815 571.275 439.49C571.275 440.202 571.267 440.755 571.251 441.166L570.134 441.253C570.15 440.858 570.158 440.352 570.158 439.712C570.158 437.87 570.094 436.305 569.96 435.017ZM573.517 434.408C574.095 435.673 574.491 436.969 574.697 438.297L573.604 438.629C573.382 437.507 573.026 436.226 572.542 434.772L573.525 434.408H573.517ZM579.823 433.175H575.592V432.116H581.193C580.932 433.665 580.163 435.325 578.896 437.096C577.628 438.866 576.075 440.186 574.246 441.063L573.604 440.17C576.614 438.811 578.682 436.479 579.823 433.183V433.175ZM583.158 441.142C583.158 442.32 582.548 442.905 581.336 442.905C580.646 442.905 579.815 442.786 578.84 442.541L578.785 441.34C579.886 441.616 580.71 441.759 581.249 441.759C581.732 441.759 581.977 441.537 581.977 441.087V429.626H576.432V420.513H580.187C580.821 419.731 581.399 418.751 581.922 417.581L582.983 418.111C582.532 419.004 582.049 419.802 581.526 420.513H588.252V429.626H583.15V431.389C583.562 432.622 584.124 433.665 584.829 434.519C586.192 433.602 587.404 432.424 588.473 430.97L589.258 431.776C588.077 433.302 586.802 434.519 585.415 435.412C586.818 437.499 588.703 439.056 591.072 440.083L590.485 441.008C588.877 440.281 587.388 439.182 586.002 437.712C584.615 436.242 583.665 434.851 583.142 433.547V441.15L583.158 441.142ZM587.079 421.572H577.604V424.339H587.079V421.572ZM577.604 428.559H587.079V425.398H577.604V428.559Z" fill="#666666"/>
<path d="M849.607 15.531H843.428C844.553 10.5437 846.708 6.71032 849.892 4.02303C853.077 1.33574 856.84 0 861.181 0C864.342 0 867.289 0.719245 870.014 2.15774C872.747 3.59623 874.862 5.53266 876.359 7.97493C877.857 10.4172 878.609 12.9622 878.609 15.6179C878.609 20.8265 876.011 24.9444 870.822 27.9873C873.737 29.165 876.122 30.888 877.991 33.1643C880.629 36.3654 881.944 39.9537 881.944 43.9293C881.944 47.3516 881.033 50.6238 879.227 53.73C877.413 56.8441 874.941 59.2469 871.812 60.9383C868.683 62.6376 865.182 63.4833 861.308 63.4833C856.087 63.4833 851.738 61.9895 848.252 58.986C844.767 55.9905 842.485 51.5802 841.416 45.7788H847.349C848.395 49.6991 849.892 52.5286 851.841 54.2833C854.336 56.5042 857.529 57.6108 861.395 57.6108C865.784 57.6108 869.317 56.2987 871.978 53.6668C874.64 51.0348 875.971 47.9523 875.971 44.4193C875.971 42.064 875.306 39.8588 873.975 37.796C872.644 35.741 870.862 34.1997 868.62 33.1564C866.378 32.1131 862.916 31.465 858.218 31.22V25.6715C860.991 25.6715 863.518 25.1815 865.799 24.2093C868.081 23.2372 869.737 21.9963 870.758 20.4945C871.788 18.9849 872.303 17.3488 872.303 15.5626C872.303 12.9306 871.25 10.6543 869.15 8.7416C867.051 6.82098 864.389 5.86462 861.181 5.86462C858.575 5.86462 856.325 6.59967 854.423 8.06978C852.522 9.53988 850.922 12.0217 849.607 15.531Z" fill="white"/>
<path d="M849.607 15.531H843.428C844.553 10.5437 846.708 6.71032 849.892 4.02303C853.077 1.33574 856.84 0 861.181 0C864.342 0 867.289 0.719245 870.014 2.15774C872.747 3.59623 874.862 5.53266 876.359 7.97493C877.857 10.4172 878.609 12.9622 878.609 15.6179C878.609 20.8265 876.011 24.9444 870.822 27.9873C873.737 29.165 876.122 30.888 877.991 33.1643C880.629 36.3654 881.944 39.9537 881.944 43.9293C881.944 47.3516 881.033 50.6238 879.227 53.73C877.413 56.8441 874.941 59.2469 871.812 60.9383C868.683 62.6376 865.182 63.4833 861.308 63.4833C856.087 63.4833 851.738 61.9895 848.252 58.986C844.767 55.9905 842.485 51.5802 841.416 45.7788H847.349C848.395 49.6991 849.892 52.5286 851.841 54.2833C854.336 56.5042 857.529 57.6108 861.395 57.6108C865.784 57.6108 869.317 56.2987 871.978 53.6668C874.64 51.0348 875.971 47.9523 875.971 44.4193C875.971 42.064 875.306 39.8588 873.975 37.796C872.644 35.741 870.862 34.1997 868.62 33.1564C866.378 32.1131 862.916 31.465 858.218 31.22V25.6715C860.991 25.6715 863.518 25.1815 865.799 24.2093C868.081 23.2372 869.737 21.9963 870.758 20.4945C871.788 18.9849 872.303 17.3488 872.303 15.5626C872.303 12.9306 871.25 10.6543 869.15 8.7416C867.051 6.82098 864.389 5.86462 861.181 5.86462C858.575 5.86462 856.325 6.59967 854.423 8.06978C852.522 9.53988 850.922 12.0217 849.607 15.531Z" fill="#B98897"/>
<path d="M895.332 26.5171C895.158 31.9708 894.857 36.3732 894.429 39.7086L890.199 38.6495C890.833 34.4605 891.181 30.3663 891.26 26.3512L895.332 26.5092V26.5171ZM896.869 62.8272V14.2742H901.789V62.8272H896.869ZM904.957 34.3814C904.355 31.3227 903.563 28.5405 902.573 26.0429L906.225 24.8811C907.421 27.5209 908.356 30.2635 909.029 33.1089L904.957 34.3814ZM938.919 37.0213V41.4553H926.172C926.877 44.5852 928.398 47.6835 930.719 50.7423C933.049 53.8011 935.782 56.0853 938.919 57.6028L935.694 62.2976C927.582 57.1602 922.877 50.1969 921.57 41.4H921.356C919.771 50.9715 914.899 57.9901 906.756 62.4557L903.531 57.9664C910.622 54.4887 914.955 48.9639 916.547 41.3921H904.007V36.9581H917.125C917.331 34.0732 917.442 31.2436 917.442 28.4615V26.5013H907.706V22.0199H917.442V14.2109H922.362V22.0199H934.688V36.9502L938.919 37.0055V37.0213ZM929.816 37.0213V26.5725H922.354V28.0979C922.354 31.3701 922.211 34.3419 921.934 37.0213H929.816Z" fill="#231816"/>
<path d="M944.63 40.0801C947.134 37.3375 949.479 34.0495 951.665 30.2083H943.521V25.8296H956.957V29.576C955.056 33.2354 952.917 36.5787 950.556 39.6059H956.854V42.6647C956.569 44.5221 955.864 47.0592 954.739 50.2602C954.739 51.1771 955.935 52.5128 958.335 54.2674C960.736 56.03 965.877 56.9073 973.783 56.9073H977.118C982.481 56.8678 987.377 56.7334 991.821 56.4805L990.974 61.3888H981.927C970.187 61.3888 962.795 60.9462 959.761 60.0688C956.727 59.1915 954.311 57.342 952.513 54.5283C950.714 57.6977 948.742 60.385 946.587 62.6059L943.204 58.9149C947.997 54.6231 950.96 49.5884 952.093 43.8186H944.686L944.63 40.0722V40.0801ZM951.879 24.8811C949.201 21.9567 946.698 19.6251 944.369 17.8626L947.435 14.8038C950.501 16.9141 953.075 19.056 955.159 21.2454L951.879 24.889V24.8811ZM976.421 39.6612V40.665C981.356 42.9887 986.133 45.4468 990.76 48.0551L988.217 52.3784C985.008 49.952 981.079 47.6283 976.421 45.4152V55.3345H971.715V44.6722C968.61 47.9444 964.491 50.6159 959.341 52.6946L956.593 48.474C962.835 46.332 967.786 43.3918 971.454 39.6612H958.969V25.9956H971.715V22.5732H956.482V18.2498H971.715V14.29H976.421V18.2498H991.393V22.5732H976.421V25.9956H989.381V39.6612H976.421ZM971.715 35.5433V30.1055H963.572V35.5433H971.715ZM984.779 35.5433V30.1055H976.421V35.5433H984.779Z" fill="#231816"/>
<path d="M895.332 26.5171C895.158 31.9708 894.857 36.3732 894.429 39.7086L890.199 38.6495C890.833 34.4605 891.181 30.3663 891.26 26.3512L895.332 26.5092V26.5171ZM896.869 62.8272V14.2742H901.789V62.8272H896.869ZM904.957 34.3814C904.355 31.3227 903.563 28.5405 902.573 26.0429L906.225 24.8811C907.421 27.5209 908.356 30.2635 909.029 33.1089L904.957 34.3814ZM938.919 37.0213V41.4553H926.172C926.877 44.5852 928.398 47.6835 930.719 50.7423C933.049 53.8011 935.782 56.0853 938.919 57.6028L935.694 62.2976C927.582 57.1602 922.877 50.1969 921.57 41.4H921.356C919.771 50.9715 914.899 57.9901 906.756 62.4557L903.531 57.9664C910.622 54.4887 914.955 48.9639 916.547 41.3921H904.007V36.9581H917.125C917.331 34.0732 917.442 31.2436 917.442 28.4615V26.5013H907.706V22.0199H917.442V14.2109H922.362V22.0199H934.688V36.9502L938.919 37.0055V37.0213ZM929.816 37.0213V26.5725H922.354V28.0979C922.354 31.3701 922.211 34.3419 921.934 37.0213H929.816Z" fill="#B98897"/>
<path d="M944.63 40.0801C947.134 37.3375 949.479 34.0495 951.665 30.2083H943.521V25.8296H956.957V29.576C955.056 33.2354 952.917 36.5787 950.556 39.6059H956.854V42.6647C956.569 44.5221 955.864 47.0592 954.739 50.2602C954.739 51.1771 955.935 52.5128 958.335 54.2674C960.736 56.03 965.877 56.9073 973.783 56.9073H977.118C982.481 56.8678 987.377 56.7334 991.821 56.4805L990.974 61.3888H981.927C970.187 61.3888 962.795 60.9462 959.761 60.0688C956.727 59.1915 954.311 57.342 952.513 54.5283C950.714 57.6977 948.742 60.385 946.587 62.6059L943.204 58.9149C947.997 54.6231 950.96 49.5884 952.093 43.8186H944.686L944.63 40.0722V40.0801ZM951.879 24.8811C949.201 21.9567 946.698 19.6251 944.369 17.8626L947.435 14.8038C950.501 16.9141 953.075 19.056 955.159 21.2454L951.879 24.889V24.8811ZM976.421 39.6612V40.665C981.356 42.9887 986.133 45.4468 990.76 48.0551L988.217 52.3784C985.008 49.952 981.079 47.6283 976.421 45.4152V55.3345H971.715V44.6722C968.61 47.9444 964.491 50.6159 959.341 52.6946L956.593 48.474C962.835 46.332 967.786 43.3918 971.454 39.6612H958.969V25.9956H971.715V22.5732H956.482V18.2498H971.715V14.29H976.421V18.2498H991.393V22.5732H976.421V25.9956H989.381V39.6612H976.421ZM971.715 35.5433V30.1055H963.572V35.5433H971.715ZM984.779 35.5433V30.1055H976.421V35.5433H984.779Z" fill="#B98897"/>
<path d="M1045.37 103.342H787V329.415H1045.37V103.342Z" fill="#B98897"/>
<path d="M801.687 301.925L871.796 233.494H874.149L809.902 301.925H801.687Z" fill="white"/>
<path d="M1030.69 301.925L960.577 233.494H958.224L1022.47 301.925H1030.69Z" fill="white"/>
<path d="M897.439 233.494L894.802 240.671H892.623L896.124 233.494H879.766L825.817 301.925H862.71L868.691 289.674H876.779L872.272 301.925H908.38L913.069 233.494H897.439ZM879.148 283.249H871.836L882.626 261.157H887.276L879.148 283.249ZM888.638 257.435H884.44L891.482 243.01H893.946L888.638 257.435Z" fill="white"/>
<path d="M955.943 290.006H964.031L969.83 301.925H1006.56L952.616 233.494H936.558L940.107 240.797H937.928L935.251 233.494H919.312L924.002 301.925H960.316L955.951 290.006H955.943ZM938.776 243.145H941.24L948.282 257.624H944.084L938.776 243.145ZM945.454 261.363H950.104L960.894 283.549H953.582L945.454 261.363Z" fill="white"/>
<path d="M820.359 154.496H813.111V290.52H820.359V154.496Z" fill="white"/>
<path d="M1018.96 154.496H1011.71V290.52H1018.96V154.496Z" fill="white"/>
<path d="M817.99 160.179V165.814H1015.31V160.179H817.99Z" fill="white"/>
<path d="M817.998 219.362V224.998H1015.32V219.362H817.998Z" fill="white"/>
<path d="M1002.88 150.03H830.42C829.296 150.03 828.384 150.939 828.384 152.061V229.21C828.384 230.332 829.296 231.242 830.42 231.242H1002.88C1004 231.242 1004.92 230.332 1004.92 229.21V152.061C1004.92 150.939 1004 150.03 1002.88 150.03Z" fill="white"/>
<path d="M993.342 227.321H839.966C836.433 227.321 833.557 224.452 833.557 220.927V160.344C833.557 156.819 836.433 153.95 839.966 153.95H993.342C996.875 153.95 999.751 156.819 999.751 160.344V220.927C999.751 224.452 996.875 227.321 993.342 227.321ZM839.966 156.369C837.764 156.369 835.973 158.155 835.973 160.344V220.927C835.973 223.124 837.764 224.91 839.966 224.91H993.342C995.544 224.91 997.335 223.124 997.335 220.927V160.344C997.335 158.147 995.544 156.369 993.342 156.369H839.966Z" fill="#B98897"/>
<path d="M917.545 155.302H915.129V225.559H917.545V155.302Z" fill="#B98897"/>
<path d="M871.812 171.924V174.745H851.484V171.924H859.771V170.129H863.225V171.924H871.812ZM871.17 188.616C871.17 190.063 870.893 190.94 869.927 191.422C868.96 191.928 867.764 191.975 866.243 191.975C866.172 191.47 866.013 190.829 865.807 190.229H860.072V191.217H857.196V184.902H866.061V188.877C866.639 188.901 867.186 188.901 867.392 188.877C867.693 188.877 867.804 188.806 867.804 188.553V184.095H855.604V192.015H852.34V181.361H871.17V188.616ZM868.041 180.673H855.247V175.417H868.041V180.673ZM864.651 177.575H858.416V178.492H864.651V177.575ZM863.137 187.075H860.072V188.039H863.137V187.075Z" fill="#B98897"/>
<path d="M898.913 191.075H891.617V191.991H888.559V190.11L886.214 191.075C886.19 190.687 886.167 190.268 886.119 189.81C884.487 190.316 882.823 190.798 881.398 191.209L880.661 189.114C880.36 189.826 880.019 190.561 879.647 191.248C878.981 190.743 877.69 190.079 876.771 189.802C879.14 185.597 879.877 180.847 880.082 176.642H877.532V173.568H880.178V170.169H883.148V173.568H888.004V175.243C888.812 173.655 889.478 171.916 889.961 170.145L893.09 170.951C892.726 172.145 892.282 173.362 891.799 174.556H893.225C893.819 173.244 894.397 171.687 894.746 170.422L897.875 171.268C897.392 172.39 896.861 173.52 896.354 174.556H898.723V177.52H896.33V179.148H898.493V181.93H896.33V183.558H898.493V186.34H896.33V188.063H898.913V191.075ZM881.905 188.024C882.618 185.178 883.307 181.155 883.608 178.057L885.905 178.539C886.365 177.962 886.8 177.346 887.22 176.658H883.077C882.919 180.286 882.435 184.372 881.009 188.205L881.905 188.024ZM885.747 187.146C885.588 186.301 885.422 185.447 885.263 184.665C885.034 185.629 884.804 186.546 884.574 187.423L885.747 187.146ZM887.45 183.107C887.909 184.854 888.329 186.965 888.559 188.688V180.578C888.329 180.902 888.076 181.203 887.846 181.495C887.545 181.037 886.903 180.254 886.325 179.614C886.048 181.037 885.747 182.531 885.43 183.977L887.458 183.107H887.45ZM893.272 177.527H891.617V179.156H893.272V177.527ZM893.272 181.938H891.617V183.566H893.272V181.938ZM891.617 188.063H893.272V186.34H891.617V188.063Z" fill="#B98897"/>
<path d="M955.071 187.123H951.11V191.991H947.862V187.123H944.987C944.575 189.075 943.466 190.885 940.772 192.102C940.36 191.367 939.275 190.15 938.586 189.596C940.194 188.933 941.073 188.055 941.533 187.115H938.792V184.38C938.42 187.154 937.683 189.984 936.352 192.07C935.686 191.541 934.189 190.671 933.334 190.347C935.631 186.854 935.797 181.622 935.797 177.946V171.078H953.867V177.646H951.752L952.631 177.851C952.148 178.539 951.713 179.14 951.34 179.622H954.446V182.333H951.11V184.333H955.071V187.107V187.123ZM939.188 177.962C939.188 179.796 939.117 182.072 938.8 184.348H942.064V182.349H939.418V179.638H941.763C941.58 179.108 941.279 178.468 941.002 177.986L942.151 177.662H939.18V177.962H939.188ZM939.188 173.9V174.864H950.493V173.9H939.188ZM948.053 179.337C948.354 178.855 948.718 178.239 948.995 177.662H944.21C944.551 178.239 944.852 178.855 944.995 179.361L944.028 179.638H949.209L948.061 179.337H948.053ZM947.87 184.348V182.349H945.248V184.348H947.87Z" fill="#B98897"/>
<path d="M975.114 185.036C976.952 186.648 979.511 188.071 982.038 188.917C981.23 189.604 980.176 190.94 979.645 191.833C977.094 190.735 974.607 188.917 972.626 186.83V191.999H969.125V186.972C967.192 189.019 964.776 190.719 962.241 191.794C961.734 190.972 960.68 189.66 959.943 188.996C962.431 188.118 964.91 186.672 966.732 185.044H962.565V176.002H969.125V175.038H960.68V171.939H969.125V170.193H972.626V171.939H981.301V175.038H972.626V176.002H979.487V185.044H975.114V185.036ZM965.837 179.361H969.125V178.444H965.837V179.361ZM965.837 182.578H969.125V181.637H965.837V182.578ZM972.626 178.444V179.361H976.057V178.444H972.626ZM976.057 181.637H972.626V182.578H976.057V181.637Z" fill="#B98897"/>
<path d="M879.108 208.344V199.974H869.626V208.344H863.011L874.363 217.979L885.723 208.344H879.108Z" fill="#B98897"/>
<path d="M968.982 209.601L957.63 199.974L946.278 209.601H952.885V217.979H962.375V209.601H968.982Z" fill="#B98897"/>
<path d="M821.674 357.552L822.736 356.967C823.48 357.584 824.336 358.469 825.287 359.623H836.861V360.682H811.756V359.623H823.774C823.14 358.88 822.435 358.184 821.674 357.552ZM833.977 370.72H814.64V382.654H813.404V369.653H835.229V380.188C835.229 381.643 834.413 382.37 832.789 382.37C832.076 382.37 831.046 382.33 829.675 382.259L829.366 380.947C830.634 381.113 831.68 381.2 832.504 381.2C833.478 381.2 833.961 380.829 833.961 380.078V370.712L833.977 370.72ZM830.919 367.732H817.61V362.476H830.919V367.732ZM818.814 363.535V366.665H829.715V363.535H818.814ZM820.05 378.718V380.481H818.87V373.075H829.604V379.896H828.424V378.718H820.042H820.05ZM828.432 377.683V374.102H820.05V377.683H828.432Z" fill="#666666"/>
<path d="M843.642 369.487C843.642 375.225 842.556 379.627 840.394 382.678L839.3 382.006C841.321 379.098 842.327 374.924 842.327 369.479V358.153H863.256V363.859H843.642V369.479V369.487ZM858.551 382.575H857.259V375.083H851.484C851.294 378.94 848.823 381.477 844.062 382.686L843.42 381.54C847.793 380.536 850.043 378.378 850.169 375.083H844.006V374.023H850.201V369.155H845.385V368.096H850.874C849.979 366.957 848.87 365.835 847.539 364.713L848.545 364.152C849.702 365.155 850.946 366.475 852.269 368.096H855.881C857.299 366.87 858.448 365.495 859.327 363.986L860.444 364.491C859.644 365.796 858.63 366.997 857.418 368.096H863.439V369.155H858.535V374.023H865.007V375.083H858.535V382.575H858.551ZM861.965 359.228H843.642V362.808H861.965V359.228ZM857.259 369.155H851.484V374.023H857.259V369.155Z" fill="#666666"/>
<path d="M880.186 379.888H868.081V378.742C868.081 377.098 868.54 375.715 869.451 374.577C870.141 373.723 871.622 372.49 873.88 370.886C875.615 369.676 876.763 368.752 877.326 368.119C878.015 367.337 878.364 366.475 878.364 365.543C878.364 364.389 877.952 363.456 877.128 362.745C876.328 362.057 875.314 361.709 874.102 361.709C873.206 361.709 872.295 361.907 871.384 362.294C870.6 362.626 869.776 363.116 868.921 363.748V362.27C869.744 361.709 870.584 361.282 871.44 360.982C872.295 360.705 873.175 360.563 874.07 360.563C875.939 360.563 877.389 361.109 878.411 362.184C879.251 363.077 879.671 364.167 879.671 365.456C879.671 366.744 879.267 367.756 878.467 368.673C877.793 369.439 876.454 370.49 874.458 371.834C872.216 373.383 870.774 374.577 870.141 375.414C869.523 376.236 869.214 377.343 869.214 378.742H880.17V379.888H880.186Z" fill="#666666"/>
<path d="M883.148 368.649V367.59H893.32V368.649H887.688L886.99 371.834H891.363C891.252 373.826 891.086 375.778 890.856 377.675C890.635 379.58 890.333 380.702 889.961 381.058C889.589 381.413 889.066 381.587 888.393 381.587C887.719 381.587 886.832 381.477 885.675 381.248V379.991C886.816 380.267 887.711 380.41 888.369 380.41C888.765 380.41 889.042 380.283 889.209 380.015C889.375 379.754 889.557 378.876 889.739 377.39C889.93 375.897 890.064 374.403 890.159 372.893H885.62L886.547 368.641H883.156L883.148 368.649ZM884.915 365.353V358.421H891.696V365.353H884.915ZM890.547 359.48H886.064V364.318H890.547V359.48ZM900.553 362.863H908.174C907.873 364.705 907.397 366.412 906.748 367.977L905.599 367.503C906.051 366.539 906.431 365.345 906.748 363.93H895.372V371.028C895.372 376.039 894.223 379.896 891.926 382.599L890.999 381.674C893.13 379.382 894.192 375.833 894.192 371.028V362.863H899.349V356.967H900.553V359.457H906.494V360.516H900.553V362.863ZM899.436 373.32V374.023C899.436 376.877 899.024 378.884 898.2 380.062C897.376 381.24 896.259 382.085 894.841 382.607L894.168 381.603C895.53 381.042 896.56 380.291 897.249 379.335C897.939 378.386 898.287 376.592 898.287 373.968V373.328H899.436V373.32ZM898.873 368.262L896.101 368.601L896.014 367.479L898.873 367.171V364.405H900.022V367.036L905.068 366.396L905.155 367.487L900.03 368.127V369.692C900.03 370.475 900.505 370.87 901.456 370.87H906.946V371.905H901.345C899.697 371.905 898.881 371.194 898.881 369.779V368.269L898.873 368.262ZM903.468 379.414C903.468 380.307 903.999 380.757 905.06 380.757H906.352C906.946 380.757 907.31 380.307 907.445 379.414C907.58 378.521 907.651 377.675 907.667 376.869L908.784 377.319C908.649 379.256 908.435 380.489 908.142 381.01C907.841 381.532 907.302 381.793 906.518 381.793H904.751C903.104 381.793 902.288 381.018 902.288 379.469V373.288H903.492L903.468 379.414Z" fill="#666666"/>
<path d="M914.171 362.642C913.648 365.14 912.99 367.218 912.206 368.878L911.2 368.428C912 366.752 912.634 364.713 913.101 362.302L914.163 362.634L914.171 362.642ZM916.61 356.967V382.686H915.375V356.967H916.61ZM918.179 382.686L917.308 381.706C919.328 380.607 921.031 379.09 922.433 377.145C923.835 375.209 924.77 373.249 925.237 371.273H918.876V370.158H925.515C925.847 368.198 926.038 365.985 926.077 363.503H920.445V362.357H926.101V357.014H927.337V362.357H933.476V370.158H936.336V371.273H928.462C928.945 373.115 929.959 375.035 931.488 377.035C933.017 379.027 934.831 380.584 936.922 381.706L936.027 382.654C934.047 381.556 932.225 379.928 930.561 377.786C928.897 375.644 927.78 373.454 927.202 371.218H926.529C925.966 373.605 924.897 375.857 923.305 377.983C921.72 380.109 920.009 381.674 918.179 382.678V382.686ZM918.345 362.136C919.28 363.756 920.088 365.456 920.785 367.226L919.724 367.787C919.201 366.262 918.409 364.555 917.339 362.674L918.345 362.144V362.136ZM932.24 363.48H927.313C927.313 365.638 927.123 367.858 926.751 370.135H932.24V363.48Z" fill="#666666"/>
<path d="M939.838 382.654L939.196 381.761C942.238 379.659 944.305 376.268 945.391 371.581H941.327L940.487 372.451L939.703 371.7C941.85 369.708 943.6 367.392 944.939 364.768H939.529V363.709H946.785C945.343 366.728 943.814 369.005 942.19 370.53H946.761C946.389 372.877 945.565 375.162 944.298 377.375C944.298 377.596 945.28 378.157 947.237 379.05C949.201 379.943 952.291 380.394 956.513 380.394C959.317 380.394 962.138 380.299 964.974 380.117L964.72 381.24C962.027 381.406 959.31 381.493 956.569 381.493C952.592 381.493 949.795 381.216 948.187 380.655C946.579 380.094 945.098 379.327 943.735 378.363C942.951 379.967 941.652 381.398 939.838 382.67V382.654ZM941.042 357.947L941.937 357.418C943.062 358.911 943.957 360.326 944.63 361.67L943.537 362.31C942.943 360.935 942.111 359.48 941.042 357.947ZM962.138 363.756V370.522H956.085V379.019H954.85V370.522H954.596C953.4 373.707 951.158 375.999 947.87 377.398L947.284 376.418C950.12 375.225 952.132 373.257 953.305 370.522H948.908V363.756H954.85V361.101H947.371V359.986H954.85V356.967H956.085V359.986H964.403V361.101H956.085V363.756H962.138ZM954.857 364.879H950.12V369.408H954.857V364.879ZM956.085 369.408H960.934V364.879H956.085V369.408ZM956.79 372.229L957.543 371.447C959.658 372.79 961.726 374.371 963.762 376.197L962.977 377.288C961.013 375.462 958.953 373.778 956.783 372.229H956.79Z" fill="#666666"/>
<path d="M967.857 382.654L967.216 381.761C970.258 379.659 972.325 376.268 973.411 371.581H969.347L968.507 372.45L967.723 371.7C969.87 369.708 971.62 367.392 972.959 364.768H967.548V363.709H974.805C973.363 366.728 971.834 369.004 970.21 370.53H974.781C974.409 372.877 973.585 375.161 972.317 377.375C972.317 377.635 973.339 378.212 975.375 379.105C977.411 379.999 980.604 380.449 984.961 380.449C987.67 380.449 990.34 380.362 992.97 380.196L992.716 381.342C990.379 381.469 987.932 381.54 985.373 381.54C981 381.54 977.982 381.263 976.326 380.702C974.662 380.141 973.125 379.358 971.7 378.355C970.915 379.959 969.64 381.39 967.857 382.662V382.654ZM968.919 358.247L969.846 357.607C971.224 359.251 972.199 360.682 972.761 361.915L971.668 362.531C971.105 361.211 970.194 359.781 968.919 358.255V358.247ZM990.134 364.681V379.026H988.953V377.296H978.75V378.837H977.57V364.689H981.578C982.061 363.891 982.489 363.037 982.869 362.144H975.217V361.085H980.873C980.049 359.646 979.273 358.484 978.544 357.591L979.582 356.975C980.517 358.168 981.372 359.536 982.156 361.085H984.763C985.88 359.575 986.664 358.208 987.116 356.975L988.32 357.449C987.797 358.658 987.084 359.876 986.189 361.085H992.685V362.144H984.113C983.757 363.148 983.369 364.001 982.933 364.689H990.102L990.134 364.681ZM988.953 365.74H978.75V368.285H988.953V365.74ZM978.758 372.119H988.961V369.352H978.758V372.119ZM978.758 376.197H988.961V373.178H978.758V376.197Z" fill="#666666"/>
<path d="M1001.76 370.688H1005.04V371.7H1001.76V378.908C1003.24 378.363 1004.47 377.857 1005.46 377.367L1005.57 378.513C1002.53 379.856 999.22 380.979 995.655 381.896L995.235 380.694C995.481 380.655 995.742 380.599 996.02 380.528C996.297 380.457 996.614 380.378 996.97 380.307V369.74H998.032V380.03C998.943 379.785 999.783 379.54 1000.55 379.279V366.388H996.962V358.643H1004.62V366.388H1001.76V370.696L1001.76 370.688ZM1003.5 359.646H998.087V365.377H1003.5V359.646ZM1004.37 372.427C1007.51 371.233 1010.08 369.716 1012.1 367.866C1010.71 366.372 1009.65 364.784 1008.91 363.085C1008.11 364.223 1007.13 365.266 1005.97 366.214L1005.07 365.408C1006.46 364.397 1007.65 363.069 1008.66 361.409C1009.68 359.749 1010.33 358.303 1010.65 357.078L1011.71 357.331C1011.41 358.374 1010.99 359.417 1010.45 360.46H1018.11C1017.53 363.085 1016.09 365.574 1013.79 367.922C1015.67 369.637 1018.08 371.091 1021.02 372.285L1020.29 373.431C1017.25 372.055 1014.79 370.459 1012.93 368.649C1010.96 370.49 1008.38 372.126 1005.16 373.541L1004.38 372.419L1004.37 372.427ZM1009.24 382.686H1008.06V372.846H1017.47V382.686H1016.29V380.955H1009.23V382.686H1009.24ZM1016.3 373.881H1009.24V379.92H1016.3V373.881ZM1016.5 361.52H1009.91L1009.58 362.136C1010.5 364.128 1011.63 365.78 1012.97 367.084C1014.6 365.503 1015.78 363.646 1016.51 361.52H1016.5Z" fill="#666666"/>
<path d="M874.973 421.826H873.737V407.544H869.42V406.484H870.655C871.63 406.484 872.39 406.255 872.953 405.789C873.587 405.244 873.903 404.445 873.903 403.386V402.801H874.965V421.841L874.973 421.826Z" fill="#666666"/>
<path d="M883.148 410.586V409.527H893.32V410.586H887.688L886.99 413.772H891.363C891.252 415.763 891.086 417.716 890.856 419.612C890.635 421.517 890.333 422.64 889.961 422.995C889.589 423.351 889.066 423.525 888.393 423.525C887.719 423.525 886.832 423.414 885.675 423.185V421.928C886.816 422.205 887.711 422.347 888.369 422.347C888.765 422.347 889.042 422.221 889.209 421.952C889.375 421.691 889.557 420.814 889.739 419.328C889.93 417.834 890.064 416.34 890.159 414.831H885.62L886.547 410.578H883.156L883.148 410.586ZM884.915 407.283V400.351H891.696V407.283H884.915ZM890.547 401.418H886.064V406.255H890.547V401.418ZM900.553 404.801H908.174C907.873 406.642 907.397 408.35 906.748 409.915L905.599 409.44C906.051 408.476 906.431 407.283 906.748 405.868H895.372V412.965C895.372 417.976 894.223 421.833 891.926 424.537L890.999 423.612C893.13 421.32 894.192 417.771 894.192 412.965V404.801H899.349V398.905H900.553V401.394H906.494V402.453H900.553V404.801ZM899.436 415.25V415.953C899.436 418.806 899.024 420.814 898.2 421.992C897.376 423.169 896.259 424.015 894.841 424.537L894.168 423.533C895.53 422.972 896.56 422.221 897.249 421.264C897.939 420.316 898.287 418.522 898.287 415.898V415.257H899.436V415.25ZM898.873 410.191L896.101 410.531L896.014 409.409L898.873 409.1V406.334H900.022V408.966L905.068 408.326L905.155 409.417L900.03 410.057V411.622C900.03 412.404 900.505 412.799 901.456 412.799H906.946V413.835H901.345C899.697 413.835 898.881 413.123 898.881 411.709V410.199L898.873 410.191ZM903.468 421.351C903.468 422.244 903.999 422.695 905.06 422.695H906.352C906.946 422.695 907.31 422.244 907.445 421.351C907.58 420.458 907.651 419.612 907.667 418.806L908.784 419.257C908.649 421.193 908.435 422.426 908.142 422.948C907.841 423.47 907.302 423.73 906.518 423.73H904.751C903.104 423.73 902.288 422.956 902.288 421.407V415.226H903.492L903.468 421.351Z" fill="#666666"/>
<path d="M933.31 409.97V424.616H932.13V422.908H918.179V424.616H916.999V411.005C916.048 411.306 914.289 411.693 911.731 412.183L911.168 411.092C918.694 409.938 925.024 407.757 930.141 404.548L930.902 405.33C927.669 407.362 924.184 408.911 920.453 409.97H933.31ZM920.5 401.529C918.219 403.955 915.549 405.923 912.483 407.456L911.786 406.563C914.828 405.038 917.474 403.086 919.716 400.722L920.5 401.529ZM932.13 411.061H918.179V413.574H932.13V411.061ZM918.179 417.518H932.13V414.641H918.179V417.518ZM918.179 421.826H932.13V418.585H918.179V421.826ZM925.237 399.007V405.101C925.237 406.429 924.493 407.085 922.996 407.085C922.156 407.085 921.205 406.935 920.136 406.642L919.969 405.33C921.221 405.726 922.243 405.915 923.027 405.915C923.716 405.915 924.065 405.646 924.065 405.109V399.015H925.245L925.237 399.007ZM929.103 400.801C931.646 402.501 934.261 404.5 936.946 406.808L936.304 407.788C933.579 405.386 930.949 403.307 928.43 401.552L929.103 400.794V400.801Z" fill="#666666"/>
<path d="M939.838 424.592L939.196 423.699C942.238 421.596 944.305 418.206 945.391 413.519H941.327L940.487 414.388L939.703 413.637C941.85 411.645 943.6 409.33 944.939 406.706H939.529V405.646H946.785C945.343 408.666 943.814 410.942 942.19 412.467H946.761C946.389 414.815 945.565 417.099 944.298 419.312C944.298 419.573 945.319 420.15 947.355 421.043C949.391 421.936 952.584 422.387 956.941 422.387C959.65 422.387 962.32 422.3 964.95 422.134L964.697 423.28C962.36 423.406 959.912 423.477 957.353 423.477C952.98 423.477 949.962 423.201 948.306 422.64C946.642 422.078 945.106 421.296 943.68 420.292C942.895 421.897 941.62 423.327 939.838 424.6V424.592ZM940.899 400.185L941.826 399.545C943.204 401.189 944.179 402.619 944.741 403.852L943.648 404.469C943.085 403.149 942.174 401.718 940.899 400.193V400.185ZM962.114 406.611V420.956H960.934V419.225H950.73V420.766H949.55V406.619H953.558C954.041 405.82 954.469 404.967 954.85 404.074H947.197V403.014H952.853C952.029 401.576 951.253 400.414 950.524 399.521L951.562 398.905C952.497 400.098 953.352 401.465 954.137 403.014H956.743C957.86 401.505 958.644 400.138 959.096 398.905L960.3 399.379C959.777 400.588 959.064 401.805 958.169 403.014H964.665V404.074H956.093C955.737 405.077 955.349 405.931 954.913 406.619H962.082L962.114 406.611ZM960.934 407.678H950.73V410.223H960.934V407.678ZM950.738 414.048H960.942V411.282H950.738V414.048ZM950.738 418.134H960.942V415.115H950.738V418.134Z" fill="#666666"/>
<path d="M858.828 458.586C858.828 460.096 858.258 461.36 857.117 462.388C855.849 463.526 854.162 464.095 852.071 464.095C849.979 464.095 848.466 463.589 847.31 462.586C846.153 461.598 845.575 460.341 845.575 458.807C845.575 457.78 845.884 456.903 846.502 456.183C847.214 455.346 848.593 454.555 850.645 453.804C849.544 453.338 848.743 452.895 848.236 452.461C847.23 451.599 846.723 450.493 846.723 449.133C846.723 447.774 847.246 446.62 848.292 445.727C849.338 444.834 850.645 444.383 852.213 444.383C853.631 444.383 854.843 444.739 855.857 445.442C857.014 446.264 857.592 447.386 857.592 448.825C857.592 450.003 857.188 450.975 856.388 451.757C855.865 452.263 854.962 452.848 853.671 453.52C855.073 453.891 856.142 454.342 856.895 454.863C858.186 455.78 858.828 457.021 858.828 458.586ZM857.513 458.61C857.513 457.661 857.18 456.855 856.507 456.207C855.762 455.48 854.297 454.816 852.11 454.223C850.637 454.745 849.536 455.259 848.807 455.765C847.539 456.642 846.906 457.685 846.906 458.894C846.906 460.104 847.421 461.021 848.45 461.803C849.456 462.57 850.708 462.949 852.205 462.949C853.703 462.949 855.01 462.538 856.016 461.716C857.022 460.918 857.529 459.882 857.529 458.61H857.513ZM856.277 448.936C856.277 447.971 855.857 447.157 855.018 446.501C854.178 445.853 853.211 445.521 852.134 445.521C851.057 445.521 850.051 445.845 849.25 446.501C848.45 447.134 848.046 447.979 848.046 449.015C848.046 450.05 848.466 450.983 849.306 451.67C850.035 452.287 851.073 452.745 852.419 453.038C853.726 452.35 854.621 451.781 855.113 451.33C855.897 450.619 856.293 449.821 856.293 448.928L856.277 448.936Z" fill="#666666"/>
<path d="M874.577 458.586C874.577 460.096 874.006 461.36 872.866 462.388C871.598 463.526 869.911 464.095 867.819 464.095C865.728 464.095 864.215 463.589 863.058 462.586C861.902 461.598 861.323 460.341 861.323 458.807C861.323 457.78 861.632 456.903 862.25 456.183C862.963 455.346 864.342 454.555 866.393 453.804C865.292 453.338 864.492 452.895 863.985 452.461C862.979 451.599 862.472 450.493 862.472 449.133C862.472 447.774 862.995 446.62 864.041 445.727C865.086 444.834 866.394 444.383 867.962 444.383C869.38 444.383 870.592 444.739 871.606 445.442C872.763 446.264 873.341 447.386 873.341 448.825C873.341 450.003 872.937 450.975 872.137 451.757C871.614 452.263 870.711 452.848 869.42 453.52C870.822 453.891 871.891 454.342 872.644 454.863C873.935 455.78 874.577 457.021 874.577 458.586ZM873.262 458.61C873.262 457.661 872.929 456.855 872.256 456.207C871.511 455.48 870.046 454.816 867.859 454.223C866.386 454.745 865.284 455.259 864.556 455.765C863.288 456.642 862.654 457.685 862.654 458.894C862.654 460.104 863.169 461.021 864.199 461.803C865.205 462.57 866.457 462.949 867.954 462.949C869.451 462.949 870.758 462.538 871.765 461.716C872.771 460.918 873.278 459.882 873.278 458.61H873.262ZM872.026 448.936C872.026 447.971 871.606 447.157 870.766 446.501C869.927 445.853 868.96 445.521 867.883 445.521C866.805 445.521 865.799 445.845 864.999 446.501C864.199 447.134 863.795 447.979 863.795 449.015C863.795 450.05 864.215 450.983 865.055 451.67C865.783 452.287 866.821 452.745 868.168 453.038C869.475 452.35 870.37 451.781 870.861 451.33C871.646 450.619 872.042 449.821 872.042 448.928L872.026 448.936Z" fill="#666666"/>
<path d="M880.011 446.509C879.488 449.007 878.831 451.085 878.047 452.745L877.041 452.295C877.841 450.619 878.474 448.58 878.942 446.169L880.003 446.501L880.011 446.509ZM882.451 440.834V466.553H881.215V440.834H882.451ZM884.02 466.553L883.148 465.573C885.168 464.474 886.872 462.957 888.274 461.013C889.676 459.076 890.611 457.116 891.078 455.14H884.717V454.026H891.355C891.688 452.066 891.878 449.852 891.918 447.371H886.285V446.225H891.942V440.882H893.177V446.225H899.317V454.026H902.177V455.14H894.302C894.786 456.982 895.8 458.902 897.329 460.902C898.857 462.894 900.672 464.451 902.763 465.573L901.868 466.522C899.887 465.423 898.065 463.795 896.402 461.653C894.738 459.511 893.621 457.322 893.043 455.085H892.369C891.807 457.472 890.738 459.724 889.145 461.85C887.561 463.977 885.85 465.541 884.02 466.545V466.553ZM884.186 446.003C885.121 447.624 885.929 449.323 886.626 451.093L885.565 451.655C885.042 450.129 884.249 448.422 883.18 446.541L884.186 446.011V446.003ZM898.089 447.347H893.162C893.162 449.505 892.972 451.726 892.599 454.002H898.089V447.347Z" fill="#666666"/>
<path d="M905.678 466.529L905.036 465.636C908.079 463.534 910.146 460.143 911.231 455.456H907.168L906.328 456.326L905.544 455.575C907.69 453.583 909.441 451.267 910.78 448.643H905.369V447.584H912.626C911.184 450.603 909.655 452.88 908.031 454.405H912.602C912.23 456.752 911.406 459.037 910.138 461.25C910.138 461.471 911.121 462.032 913.077 462.925C915.042 463.818 918.131 464.269 922.354 464.269C925.158 464.269 927.978 464.174 930.814 463.992L930.561 465.115C927.867 465.281 925.15 465.368 922.409 465.368C918.433 465.368 915.636 465.091 914.028 464.53C912.42 463.969 910.938 463.202 909.576 462.238C908.791 463.842 907.492 465.273 905.678 466.545V466.529ZM906.882 441.814L907.778 441.285C908.902 442.779 909.798 444.193 910.471 445.537L909.378 446.177C908.784 444.802 907.952 443.348 906.882 441.814ZM927.986 447.624V454.389H921.934V462.886H920.698V454.389H920.445C919.248 457.574 917.007 459.867 913.719 461.266L913.133 460.285C915.969 459.092 917.981 457.124 919.153 454.389H914.757V447.624H920.698V444.968H913.22V443.853H920.698V440.834H921.934V443.853H930.252V444.968H921.934V447.624H927.986ZM920.698 448.746H915.961V453.275H920.698V448.746ZM921.934 453.275H926.782V448.746H921.934V453.275ZM922.631 456.096L923.384 455.314C925.499 456.658 927.566 458.238 929.602 460.064L928.818 461.155C926.853 459.329 924.794 457.646 922.623 456.096H922.631Z" fill="#666666"/>
<path d="M933.698 466.529L933.056 465.636C936.098 463.534 938.166 460.143 939.251 455.456H935.187L934.348 456.326L933.563 455.575C935.71 453.583 937.461 451.267 938.8 448.643H933.389V447.584H940.646C939.204 450.603 937.675 452.88 936.051 454.405H940.622C940.25 456.752 939.426 459.037 938.158 461.25C938.158 461.51 939.18 462.087 941.216 462.981C943.252 463.874 946.444 464.324 950.802 464.324C953.511 464.324 956.18 464.237 958.811 464.071L958.557 465.217C956.22 465.344 953.772 465.415 951.213 465.415C946.841 465.415 943.822 465.138 942.167 464.577C940.503 464.016 938.966 463.233 937.54 462.23C936.756 463.834 935.481 465.265 933.698 466.537V466.529ZM934.768 442.122L935.694 441.482C937.073 443.126 938.047 444.557 938.61 445.79L937.516 446.406C936.954 445.086 936.043 443.656 934.768 442.13V442.122ZM955.975 448.548V462.894H954.794V461.163H944.591V462.704H943.41V448.556H947.419C947.902 447.758 948.33 446.904 948.71 446.011H941.058V444.952H946.714C945.89 443.513 945.114 442.352 944.385 441.459L945.422 440.842C946.357 442.036 947.213 443.403 947.997 444.952H950.603C951.72 443.442 952.505 442.075 952.956 440.842L954.16 441.316C953.638 442.526 952.925 443.743 952.029 444.952H958.525V446.011H949.954C949.597 447.015 949.209 447.869 948.774 448.556H955.943L955.975 448.548ZM954.802 449.607H944.599V452.152H954.802V449.607ZM944.599 455.986H954.802V453.219H944.599V455.986ZM944.599 460.064H954.802V457.045H944.599V460.064Z" fill="#666666"/>
<path d="M967.604 454.555H970.884V455.567H967.604V462.775C969.077 462.23 970.313 461.724 971.303 461.234L971.414 462.38C968.372 463.724 965.061 464.846 961.496 465.763L961.076 464.561C961.322 464.522 961.583 464.467 961.86 464.395C962.138 464.324 962.455 464.245 962.811 464.174V453.607H963.873V463.897C964.784 463.652 965.623 463.407 966.392 463.147V450.255H962.803V442.51H970.456V450.255H967.596V454.563L967.604 454.555ZM969.339 443.514H963.928V449.244H969.339V443.514ZM970.21 456.294C973.347 455.101 975.922 453.583 977.942 451.733C976.556 450.24 975.494 448.651 974.749 446.952C973.949 448.09 972.967 449.133 971.81 450.082L970.915 449.275C972.302 448.264 973.49 446.936 974.504 445.276C975.518 443.616 976.175 442.17 976.492 440.945L977.554 441.198C977.253 442.241 976.833 443.284 976.294 444.328H983.947C983.368 446.952 981.927 449.441 979.629 451.789C981.515 453.504 983.923 454.958 986.862 456.152L986.133 457.298C983.091 455.923 980.635 454.326 978.766 452.516C976.801 454.358 974.219 455.994 971.002 457.408L970.218 456.286L970.21 456.294ZM975.082 466.553H973.902V456.713H983.313V466.553H982.133V464.822H975.074V466.553H975.082ZM982.148 457.748H975.09V463.787H982.148V457.748ZM982.339 445.387H975.756L975.423 446.003C976.342 447.995 977.467 449.647 978.813 450.951C980.437 449.37 981.618 447.513 982.347 445.387H982.339Z" fill="#666666"/>
<line x1="326.5" y1="-2.18557e-08" x2="326.5" y2="466" stroke="#B98897"/>
<line x1="719.5" y1="-2.18557e-08" x2="719.5" y2="466" stroke="#B98897"/>
</svg>
