<svg width="331" height="320" viewBox="0 0 331 320" fill="none" xmlns="http://www.w3.org/2000/svg">
<rect width="331" height="320" fill="#7D272B"/>
<path d="M100.625 168.5C104.792 171.25 107.875 174.042 109.875 176.875C111.875 179.625 113.125 182.25 113.625 184.75C114.208 187.167 114.208 189.333 113.625 191.25C113.125 193.083 112.292 194.5 111.125 195.5C109.958 196.417 108.708 196.792 107.375 196.625C106.042 196.458 104.875 195.542 103.875 193.875C103.875 191.792 103.75 189.333 103.5 186.5C103.25 183.667 102.792 180.75 102.125 177.75C101.458 174.667 100.417 171.875 99 169.375L100.625 168.5ZM130.375 168.5C134.375 171.417 137.375 174.292 139.375 177.125C141.375 179.958 142.583 182.583 143 185C143.417 187.417 143.292 189.542 142.625 191.375C142.042 193.208 141.125 194.583 139.875 195.5C138.708 196.417 137.458 196.75 136.125 196.5C134.792 196.25 133.625 195.292 132.625 193.625C132.708 191.625 132.667 189.208 132.5 186.375C132.333 183.542 131.958 180.625 131.375 177.625C130.875 174.542 130 171.792 128.75 169.375L130.375 168.5ZM95.375 215.875C97.2083 214.958 100.208 213.333 104.375 211C108.542 208.667 112.958 206.125 117.625 203.375L118.125 204.5C116.875 206.833 115.083 209.958 112.75 213.875C110.417 217.792 107.667 222.125 104.5 226.875C104.417 227.625 104.167 228.417 103.75 229.25C103.417 230 102.875 230.583 102.125 231L95.375 215.875ZM125.375 215.125C126.625 214.458 128.333 213.458 130.5 212.125C132.75 210.708 135.25 209.125 138 207.375C140.833 205.625 143.708 203.792 146.625 201.875L147.25 202.875C146 205.292 144.333 208.542 142.25 212.625C140.167 216.625 137.708 221.083 134.875 226C134.875 226.75 134.708 227.542 134.375 228.375C134.042 229.208 133.5 229.833 132.75 230.25L125.375 215.125ZM98 152.375H120.875V155.875H99.125L98 152.375ZM114.875 152.375H113.75L119.25 145.75L131.625 155.375C131.292 155.792 130.708 156.25 129.875 156.75C129.042 157.167 128.042 157.5 126.875 157.75V245.875C126.875 248.708 126.542 251.125 125.875 253.125C125.292 255.208 123.875 256.875 121.625 258.125C119.458 259.375 116.042 260.208 111.375 260.625C111.208 258.792 110.958 257.125 110.625 255.625C110.292 254.208 109.708 253.083 108.875 252.25C108.042 251.333 106.917 250.542 105.5 249.875C104.167 249.208 102.208 248.625 99.625 248.125V246.375C99.625 246.375 100.167 246.417 101.25 246.5C102.333 246.583 103.625 246.667 105.125 246.75C106.708 246.833 108.167 246.917 109.5 247C110.917 247.083 111.917 247.125 112.5 247.125C113.417 247.125 114.042 246.917 114.375 246.5C114.708 246.083 114.875 245.458 114.875 244.625V152.375ZM130.25 152.375H149.625V155.875H131.375L130.25 152.375ZM143.125 152.375H141.875L147.625 145.75L160.125 155.375C159.792 155.875 159.208 156.375 158.375 156.875C157.625 157.292 156.667 157.583 155.5 157.75V245.5C155.5 248.417 155.125 250.917 154.375 253C153.708 255.083 152.25 256.75 150 258C147.75 259.25 144.25 260.125 139.5 260.625C139.333 258.625 139.083 256.875 138.75 255.375C138.417 253.958 137.875 252.792 137.125 251.875C136.292 250.958 135.167 250.167 133.75 249.5C132.333 248.833 130.333 248.25 127.75 247.75V246C127.75 246 128.292 246.042 129.375 246.125C130.458 246.208 131.75 246.292 133.25 246.375C134.833 246.375 136.292 246.417 137.625 246.5C139.042 246.583 140.042 246.625 140.625 246.625C141.625 246.625 142.292 246.458 142.625 246.125C142.958 245.708 143.125 245.083 143.125 244.25V152.375ZM42.375 180.375H88.125L93.375 173.875C93.375 173.875 93.9583 174.292 95.125 175.125C96.2917 175.958 97.625 177 99.125 178.25C100.625 179.5 102 180.708 103.25 181.875C103 183.208 101.958 183.875 100.125 183.875H43.375L42.375 180.375ZM54.125 228.875H91.125V232.375H54.125V228.875ZM54.375 249H90.875V252.5H54.375V249ZM66.625 211H76.625V251.125H66.625V211ZM62.25 180.375H75.5V182.375C72.1667 188.958 67.5833 194.958 61.75 200.375C56 205.708 49.625 210.375 42.625 214.375L41.375 212.625C45.875 208.292 49.9167 203.25 53.5 197.5C57.1667 191.75 60.0833 186.042 62.25 180.375ZM85 143.5L98.875 155.25C98.2083 155.833 97.2083 156.167 95.875 156.25C94.625 156.333 93.125 156.083 91.375 155.5C87.4583 156.417 82.7917 157.25 77.375 158C71.9583 158.667 66.2917 159.25 60.375 159.75C54.5417 160.25 48.9167 160.583 43.5 160.75L43.125 158.875C47.9583 157.625 53 156.125 58.25 154.375C63.5833 152.625 68.5833 150.792 73.25 148.875C78 146.875 81.9167 145.083 85 143.5ZM50.375 160.75C54.7083 162.417 57.7917 164.292 59.625 166.375C61.5417 168.458 62.5833 170.458 62.75 172.375C62.9167 174.208 62.5 175.75 61.5 177C60.5833 178.25 59.3333 178.917 57.75 179C56.1667 179.083 54.5833 178.375 53 176.875C53.0833 174.292 52.6667 171.583 51.75 168.75C50.9167 165.833 49.9583 163.333 48.875 161.25L50.375 160.75ZM77.75 154.875V204.75C77.75 205.083 76.875 205.75 75.125 206.75C73.375 207.667 71 208.125 68 208.125H66V157.625L77.75 154.875ZM48.75 210.75V205.875L60.125 210.75H90.875V214.25H59.5V257.75C59.5 258.083 59.0417 258.542 58.125 259.125C57.2917 259.708 56.1667 260.208 54.75 260.625C53.4167 261.042 51.9583 261.25 50.375 261.25H48.75V210.75ZM84 210.75H82.875L88.375 205L99.625 213.5C98.875 214.583 97.4583 215.333 95.375 215.75V256.125C95.375 256.375 94.8333 256.75 93.75 257.25C92.75 257.833 91.5 258.333 90 258.75C88.5833 259.25 87.2083 259.5 85.875 259.5H84V210.75ZM77.375 186C83.375 187.167 88 188.75 91.25 190.75C94.5 192.667 96.625 194.708 97.625 196.875C98.7083 199.042 98.9583 201 98.375 202.75C97.7917 204.417 96.6667 205.542 95 206.125C93.4167 206.625 91.5417 206.25 89.375 205C88.625 203 87.5 200.917 86 198.75C84.5 196.583 82.875 194.458 81.125 192.375C79.375 190.292 77.75 188.5 76.25 187L77.375 186ZM85.25 158.625L98.875 164.875C98.7917 165.292 98.375 165.75 97.625 166.25C96.875 166.667 95.8333 166.792 94.5 166.625C93.0833 168.292 91.1667 170.292 88.75 172.625C86.3333 174.958 83.9583 177.167 81.625 179.25L80.25 178.5C80.9167 176.583 81.5833 174.375 82.25 171.875C82.9167 169.292 83.5 166.833 84 164.5C84.5833 162.083 85 160.125 85.25 158.625ZM218.625 155.875H265.625L272.625 147C272.625 147 273.333 147.583 274.75 148.75C276.25 149.833 278 151.208 280 152.875C282 154.458 283.792 156 285.375 157.5C285.042 158.833 283.917 159.5 282 159.5H219.625L218.625 155.875ZM230 180H271.375V183.625H230V180ZM230 192.375H271.375V196H230V192.375ZM218.375 225.25H270.375L276.25 216.25C276.25 216.25 276.833 216.833 278 218C279.25 219.167 280.667 220.583 282.25 222.25C283.917 223.833 285.375 225.333 286.625 226.75C286.292 228.083 285.167 228.75 283.25 228.75H219.375L218.375 225.25ZM243.375 143.875L260.75 145.5C260.583 146.333 260.167 147.083 259.5 147.75C258.833 148.333 257.708 148.708 256.125 148.875V207.75L243.375 209.375V143.875ZM219.375 208.125C222.458 208.125 226.75 208 232.25 207.75C237.75 207.417 243.917 207.083 250.75 206.75C257.667 206.333 264.833 205.875 272.25 205.375V207.25C267.5 208.75 261.583 210.542 254.5 212.625C247.417 214.708 238.875 217.042 228.875 219.625C228.542 220.375 228.042 220.958 227.375 221.375C226.792 221.792 226.167 222.083 225.5 222.25L219.375 208.125ZM261 199.125C266.083 199.292 270.167 199.958 273.25 201.125C276.333 202.208 278.583 203.583 280 205.25C281.5 206.917 282.333 208.583 282.5 210.25C282.667 211.917 282.333 213.375 281.5 214.625C280.75 215.875 279.583 216.708 278 217.125C276.417 217.458 274.667 217.125 272.75 216.125C272.083 214.208 271.042 212.25 269.625 210.25C268.208 208.25 266.625 206.375 264.875 204.625C263.208 202.792 261.583 201.292 260 200.125L261 199.125ZM227.625 229C232.375 230 236 231.333 238.5 233C241 234.583 242.625 236.292 243.375 238.125C244.208 239.958 244.375 241.708 243.875 243.375C243.458 244.958 242.583 246.208 241.25 247.125C239.917 248.042 238.333 248.458 236.5 248.375C234.75 248.208 233 247.333 231.25 245.75C231.417 243 231 240.125 230 237.125C229.083 234.125 227.917 231.625 226.5 229.625L227.625 229ZM253.75 213.375L271.75 215C271.667 215.833 271.292 216.5 270.625 217C269.958 217.5 268.958 217.875 267.625 218.125V246.375C267.625 249.458 267.25 252.083 266.5 254.25C265.75 256.5 264.167 258.25 261.75 259.5C259.333 260.833 255.583 261.708 250.5 262.125C250.417 260.042 250.208 258.208 249.875 256.625C249.542 255.125 249 253.875 248.25 252.875C247.583 251.958 246.583 251.125 245.25 250.375C244 249.708 242.083 249.167 239.5 248.75V247C239.5 247 240 247.042 241 247.125C242.083 247.208 243.333 247.292 244.75 247.375C246.167 247.458 247.542 247.542 248.875 247.625C250.208 247.708 251.125 247.75 251.625 247.75C252.458 247.75 253 247.625 253.25 247.375C253.583 247.042 253.75 246.542 253.75 245.875V213.375ZM222.75 167.75V162.375L235.875 167.75H268.5V171.25H235.25V199.125C235.25 199.542 234.708 200.042 233.625 200.625C232.542 201.208 231.167 201.75 229.5 202.25C227.917 202.667 226.25 202.875 224.5 202.875H222.75V167.75ZM265 167.75H263.875L269.875 161.5L282.25 170.625C281.917 171.042 281.375 171.458 280.625 171.875C279.958 172.292 279.167 172.583 278.25 172.75V196.75C278.25 197 277.625 197.458 276.375 198.125C275.208 198.708 273.75 199.25 272 199.75C270.333 200.25 268.792 200.5 267.375 200.5H265V167.75ZM168.5 161.75H204.375L211.25 152.75C211.25 152.75 211.958 153.333 213.375 154.5C214.792 155.667 216.458 157.083 218.375 158.75C220.375 160.333 222.167 161.875 223.75 163.375C223.5 164.708 222.375 165.375 220.375 165.375H169.5L168.5 161.75ZM177.75 194H212V197.5H177.75V194ZM177.75 212.5H212V216H177.75V212.5ZM167.625 231.375H205.25L212.125 222.375C212.125 222.375 212.833 222.958 214.25 224.125C215.75 225.292 217.5 226.708 219.5 228.375C221.5 229.958 223.292 231.5 224.875 233C224.625 234.333 223.5 235 221.5 235H168.625L167.625 231.375ZM188.75 177.375H199.625V215.125L198.25 215.25L200.875 215.375V257.5C200.792 257.917 199.792 258.625 197.875 259.625C195.958 260.708 193.292 261.25 189.875 261.25H187.5V215.375L190.125 215.25L188.75 215.125V177.375ZM187.5 143.75L205 145.25C204.917 146.083 204.583 146.792 204 147.375C203.417 147.875 202.375 148.25 200.875 148.5V178.25H187.5V143.75ZM171.875 175.875V171L183.75 175.875H210.125V179.5H183.25V220.5C183.25 220.917 182.75 221.417 181.75 222C180.833 222.583 179.625 223.125 178.125 223.625C176.708 224.042 175.208 224.25 173.625 224.25H171.875V175.875ZM205.125 176H204L209.625 169.875L221.25 178.875C220.917 179.292 220.333 179.75 219.5 180.25C218.75 180.667 217.792 180.958 216.625 181.125V218.75C216.625 219.083 216.083 219.583 215 220.25C214 220.833 212.75 221.375 211.25 221.875C209.75 222.375 208.333 222.625 207 222.625H205.125V176Z" fill="white"/>
<path d="M291.87 285.24C299.806 285.24 306.24 278.806 306.24 270.87C306.24 262.934 299.806 256.5 291.87 256.5C283.934 256.5 277.5 262.934 277.5 270.87C277.5 278.806 283.934 285.24 291.87 285.24Z" stroke="white" stroke-miterlimit="10"/>
</svg>
