<svg width="136" height="79" viewBox="0 0 136 79" fill="none" xmlns="http://www.w3.org/2000/svg">
<rect width="136" height="79" fill="#7D272B"/>
<path d="M50.185 28.66C51.685 29.65 52.795 30.655 53.515 31.675C54.235 32.665 54.685 33.61 54.865 34.51C55.075 35.38 55.075 36.16 54.865 36.85C54.685 37.51 54.385 38.02 53.965 38.38C53.545 38.71 53.095 38.845 52.615 38.785C52.135 38.725 51.715 38.395 51.355 37.795C51.355 37.045 51.31 36.16 51.22 35.14C51.13 34.12 50.965 33.07 50.725 31.99C50.485 30.88 50.11 29.875 49.6 28.975L50.185 28.66ZM60.895 28.66C62.335 29.71 63.415 30.745 64.135 31.765C64.855 32.785 65.29 33.73 65.44 34.6C65.59 35.47 65.545 36.235 65.305 36.895C65.095 37.555 64.765 38.05 64.315 38.38C63.895 38.71 63.445 38.83 62.965 38.74C62.485 38.65 62.065 38.305 61.705 37.705C61.735 36.985 61.72 36.115 61.66 35.095C61.6 34.075 61.465 33.025 61.255 31.945C61.075 30.835 60.76 29.845 60.31 28.975L60.895 28.66ZM48.295 45.715C48.955 45.385 50.035 44.8 51.535 43.96C53.035 43.12 54.625 42.205 56.305 41.215L56.485 41.62C56.035 42.46 55.39 43.585 54.55 44.995C53.71 46.405 52.72 47.965 51.58 49.675C51.55 49.945 51.46 50.23 51.31 50.53C51.19 50.8 50.995 51.01 50.725 51.16L48.295 45.715ZM59.095 45.445C59.545 45.205 60.16 44.845 60.94 44.365C61.75 43.855 62.65 43.285 63.64 42.655C64.66 42.025 65.695 41.365 66.745 40.675L66.97 41.035C66.52 41.905 65.92 43.075 65.17 44.545C64.42 45.985 63.535 47.59 62.515 49.36C62.515 49.63 62.455 49.915 62.335 50.215C62.215 50.515 62.02 50.74 61.75 50.89L59.095 45.445ZM49.24 22.855H57.475V24.115H49.645L49.24 22.855ZM55.315 22.855H54.91L56.89 20.47L61.345 23.935C61.225 24.085 61.015 24.25 60.715 24.43C60.415 24.58 60.055 24.7 59.635 24.79V56.515C59.635 57.535 59.515 58.405 59.275 59.125C59.065 59.875 58.555 60.475 57.745 60.925C56.965 61.375 55.735 61.675 54.055 61.825C53.995 61.165 53.905 60.565 53.785 60.025C53.665 59.515 53.455 59.11 53.155 58.81C52.855 58.48 52.45 58.195 51.94 57.955C51.46 57.715 50.755 57.505 49.825 57.325V56.695C49.825 56.695 50.02 56.71 50.41 56.74C50.8 56.77 51.265 56.8 51.805 56.83C52.375 56.86 52.9 56.89 53.38 56.92C53.89 56.95 54.25 56.965 54.46 56.965C54.79 56.965 55.015 56.89 55.135 56.74C55.255 56.59 55.315 56.365 55.315 56.065V22.855ZM60.85 22.855H67.825V24.115H61.255L60.85 22.855ZM65.485 22.855H65.035L67.105 20.47L71.605 23.935C71.485 24.115 71.275 24.295 70.975 24.475C70.705 24.625 70.36 24.73 69.94 24.79V56.38C69.94 57.43 69.805 58.33 69.535 59.08C69.295 59.83 68.77 60.43 67.96 60.88C67.15 61.33 65.89 61.645 64.18 61.825C64.12 61.105 64.03 60.475 63.91 59.935C63.79 59.425 63.595 59.005 63.325 58.675C63.025 58.345 62.62 58.06 62.11 57.82C61.6 57.58 60.88 57.37 59.95 57.19V56.56C59.95 56.56 60.145 56.575 60.535 56.605C60.925 56.635 61.39 56.665 61.93 56.695C62.5 56.695 63.025 56.71 63.505 56.74C64.015 56.77 64.375 56.785 64.585 56.785C64.945 56.785 65.185 56.725 65.305 56.605C65.425 56.455 65.485 56.23 65.485 55.93V22.855ZM29.215 32.935H45.685L47.575 30.595C47.575 30.595 47.785 30.745 48.205 31.045C48.625 31.345 49.105 31.72 49.645 32.17C50.185 32.62 50.68 33.055 51.13 33.475C51.04 33.955 50.665 34.195 50.005 34.195H29.575L29.215 32.935ZM33.445 50.395H46.765V51.655H33.445V50.395ZM33.535 57.64H46.675V58.9H33.535V57.64ZM37.945 43.96H41.545V58.405H37.945V43.96ZM36.37 32.935H41.14V33.655C39.94 36.025 38.29 38.185 36.19 40.135C34.12 42.055 31.825 43.735 29.305 45.175L28.855 44.545C30.475 42.985 31.93 41.17 33.22 39.1C34.54 37.03 35.59 34.975 36.37 32.935ZM44.56 19.66L49.555 23.89C49.315 24.1 48.955 24.22 48.475 24.25C48.025 24.28 47.485 24.19 46.855 23.98C45.445 24.31 43.765 24.61 41.815 24.88C39.865 25.12 37.825 25.33 35.695 25.51C33.595 25.69 31.57 25.81 29.62 25.87L29.485 25.195C31.225 24.745 33.04 24.205 34.93 23.575C36.85 22.945 38.65 22.285 40.33 21.595C42.04 20.875 43.45 20.23 44.56 19.66ZM32.095 25.87C33.655 26.47 34.765 27.145 35.425 27.895C36.115 28.645 36.49 29.365 36.55 30.055C36.61 30.715 36.46 31.27 36.1 31.72C35.77 32.17 35.32 32.41 34.75 32.44C34.18 32.47 33.61 32.215 33.04 31.675C33.07 30.745 32.92 29.77 32.59 28.75C32.29 27.7 31.945 26.8 31.555 26.05L32.095 25.87ZM41.95 23.755V41.71C41.95 41.83 41.635 42.07 41.005 42.43C40.375 42.76 39.52 42.925 38.44 42.925H37.72V24.745L41.95 23.755ZM31.51 43.87V42.115L35.605 43.87H46.675V45.13H35.38V60.79C35.38 60.91 35.215 61.075 34.885 61.285C34.585 61.495 34.18 61.675 33.67 61.825C33.19 61.975 32.665 62.05 32.095 62.05H31.51V43.87ZM44.2 43.87H43.795L45.775 41.8L49.825 44.86C49.555 45.25 49.045 45.52 48.295 45.67V60.205C48.295 60.295 48.1 60.43 47.71 60.61C47.35 60.82 46.9 61 46.36 61.15C45.85 61.33 45.355 61.42 44.875 61.42H44.2V43.87ZM41.815 34.96C43.975 35.38 45.64 35.95 46.81 36.67C47.98 37.36 48.745 38.095 49.105 38.875C49.495 39.655 49.585 40.36 49.375 40.99C49.165 41.59 48.76 41.995 48.16 42.205C47.59 42.385 46.915 42.25 46.135 41.8C45.865 41.08 45.46 40.33 44.92 39.55C44.38 38.77 43.795 38.005 43.165 37.255C42.535 36.505 41.95 35.86 41.41 35.32L41.815 34.96ZM44.65 25.105L49.555 27.355C49.525 27.505 49.375 27.67 49.105 27.85C48.835 28 48.46 28.045 47.98 27.985C47.47 28.585 46.78 29.305 45.91 30.145C45.04 30.985 44.185 31.78 43.345 32.53L42.85 32.26C43.09 31.57 43.33 30.775 43.57 29.875C43.81 28.945 44.02 28.06 44.2 27.22C44.41 26.35 44.56 25.645 44.65 25.105ZM92.665 24.115H109.585L112.105 20.92C112.105 20.92 112.36 21.13 112.87 21.55C113.41 21.94 114.04 22.435 114.76 23.035C115.48 23.605 116.125 24.16 116.695 24.7C116.575 25.18 116.17 25.42 115.48 25.42H93.025L92.665 24.115ZM96.76 32.8H111.655V34.105H96.76V32.8ZM96.76 37.255H111.655V38.56H96.76V37.255ZM92.575 49.09H111.295L113.41 45.85C113.41 45.85 113.62 46.06 114.04 46.48C114.49 46.9 115 47.41 115.57 48.01C116.17 48.58 116.695 49.12 117.145 49.63C117.025 50.11 116.62 50.35 115.93 50.35H92.935L92.575 49.09ZM101.575 19.795L107.83 20.38C107.77 20.68 107.62 20.95 107.38 21.19C107.14 21.4 106.735 21.535 106.165 21.595V42.79L101.575 43.375V19.795ZM92.935 42.925C94.045 42.925 95.59 42.88 97.57 42.79C99.55 42.67 101.77 42.55 104.23 42.43C106.72 42.28 109.3 42.115 111.97 41.935V42.61C110.26 43.15 108.13 43.795 105.58 44.545C103.03 45.295 99.955 46.135 96.355 47.065C96.235 47.335 96.055 47.545 95.815 47.695C95.605 47.845 95.38 47.95 95.14 48.01L92.935 42.925ZM107.92 39.685C109.75 39.745 111.22 39.985 112.33 40.405C113.44 40.795 114.25 41.29 114.76 41.89C115.3 42.49 115.6 43.09 115.66 43.69C115.72 44.29 115.6 44.815 115.3 45.265C115.03 45.715 114.61 46.015 114.04 46.165C113.47 46.285 112.84 46.165 112.15 45.805C111.91 45.115 111.535 44.41 111.025 43.69C110.515 42.97 109.945 42.295 109.315 41.665C108.715 41.005 108.13 40.465 107.56 40.045L107.92 39.685ZM95.905 50.44C97.615 50.8 98.92 51.28 99.82 51.88C100.72 52.45 101.305 53.065 101.575 53.725C101.875 54.385 101.935 55.015 101.755 55.615C101.605 56.185 101.29 56.635 100.81 56.965C100.33 57.295 99.76 57.445 99.1 57.415C98.47 57.355 97.84 57.04 97.21 56.47C97.27 55.48 97.12 54.445 96.76 53.365C96.43 52.285 96.01 51.385 95.5 50.665L95.905 50.44ZM105.31 44.815L111.79 45.4C111.76 45.7 111.625 45.94 111.385 46.12C111.145 46.3 110.785 46.435 110.305 46.525V56.695C110.305 57.805 110.17 58.75 109.9 59.53C109.63 60.34 109.06 60.97 108.19 61.42C107.32 61.9 105.97 62.215 104.14 62.365C104.11 61.615 104.035 60.955 103.915 60.385C103.795 59.845 103.6 59.395 103.33 59.035C103.09 58.705 102.73 58.405 102.25 58.135C101.8 57.895 101.11 57.7 100.18 57.55V56.92C100.18 56.92 100.36 56.935 100.72 56.965C101.11 56.995 101.56 57.025 102.07 57.055C102.58 57.085 103.075 57.115 103.555 57.145C104.035 57.175 104.365 57.19 104.545 57.19C104.845 57.19 105.04 57.145 105.13 57.055C105.25 56.935 105.31 56.755 105.31 56.515V44.815ZM94.15 28.39V26.455L98.875 28.39H110.62V29.65H98.65V39.685C98.65 39.835 98.455 40.015 98.065 40.225C97.675 40.435 97.18 40.63 96.58 40.81C96.01 40.96 95.41 41.035 94.78 41.035H94.15V28.39ZM109.36 28.39H108.955L111.115 26.14L115.57 29.425C115.45 29.575 115.255 29.725 114.985 29.875C114.745 30.025 114.46 30.13 114.13 30.19V38.83C114.13 38.92 113.905 39.085 113.455 39.325C113.035 39.535 112.51 39.73 111.88 39.91C111.28 40.09 110.725 40.18 110.215 40.18H109.36V28.39ZM74.62 26.23H87.535L90.01 22.99C90.01 22.99 90.265 23.2 90.775 23.62C91.285 24.04 91.885 24.55 92.575 25.15C93.295 25.72 93.94 26.275 94.51 26.815C94.42 27.295 94.015 27.535 93.295 27.535H74.98L74.62 26.23ZM77.95 37.84H90.28V39.1H77.95V37.84ZM77.95 44.5H90.28V45.76H77.95V44.5ZM74.305 51.295H87.85L90.325 48.055C90.325 48.055 90.58 48.265 91.09 48.685C91.63 49.105 92.26 49.615 92.98 50.215C93.7 50.785 94.345 51.34 94.915 51.88C94.825 52.36 94.42 52.6 93.7 52.6H74.665L74.305 51.295ZM81.91 31.855H85.825V45.445L85.33 45.49L86.275 45.535V60.7C86.245 60.85 85.885 61.105 85.195 61.465C84.505 61.855 83.545 62.05 82.315 62.05H81.46V45.535L82.405 45.49L81.91 45.445V31.855ZM81.46 19.75L87.76 20.29C87.73 20.59 87.61 20.845 87.4 21.055C87.19 21.235 86.815 21.37 86.275 21.46V32.17H81.46V19.75ZM75.835 31.315V29.56L80.11 31.315H89.605V32.62H79.93V47.38C79.93 47.53 79.75 47.71 79.39 47.92C79.06 48.13 78.625 48.325 78.085 48.505C77.575 48.655 77.035 48.73 76.465 48.73H75.835V31.315ZM87.805 31.36H87.4L89.425 29.155L93.61 32.395C93.49 32.545 93.28 32.71 92.98 32.89C92.71 33.04 92.365 33.145 91.945 33.205V46.75C91.945 46.87 91.75 47.05 91.36 47.29C91 47.5 90.55 47.695 90.01 47.875C89.47 48.055 88.96 48.145 88.48 48.145H87.805V31.36Z" fill="white"/>
<path d="M122.5 65C124.985 65 127 62.9853 127 60.5C127 58.0147 124.985 56 122.5 56C120.015 56 118 58.0147 118 60.5C118 62.9853 120.015 65 122.5 65Z" stroke="white" stroke-miterlimit="10"/>
</svg>
