<svg width="434" height="70" viewBox="0 0 434 70" fill="none" xmlns="http://www.w3.org/2000/svg">
<path d="M27.492 1.169C30.704 0.974331 33.2347 1.169 35.084 1.753C36.9333 2.337 38.223 3.14 38.953 4.162C39.7317 5.13533 40.048 6.15733 39.902 7.228C39.8047 8.29866 39.391 9.22333 38.661 10.002C37.931 10.732 36.982 11.17 35.814 11.316C34.646 11.462 33.3807 11.1457 32.018 10.367C31.8233 8.71233 31.215 7.082 30.193 5.476C29.2197 3.82133 28.1247 2.53166 26.908 1.607L27.492 1.169ZM56.473 11.024L60.78 6.644L68.445 13.871C68.153 14.163 67.788 14.3577 67.35 14.455C66.9607 14.5523 66.3767 14.6253 65.598 14.674C64.5273 15.696 63.1647 16.8153 61.51 18.032C59.904 19.2487 58.371 20.222 56.911 20.952L56.254 20.514C56.4487 19.5893 56.5947 18.543 56.692 17.375C56.838 16.207 56.9597 15.0633 57.057 13.944C57.203 12.776 57.276 11.8027 57.276 11.024H56.473ZM10.41 6.936C11.432 9.71 11.943 12.192 11.943 14.382C11.943 16.572 11.5537 18.4213 10.775 19.93C10.045 21.4387 9.12033 22.558 8.001 23.288C7.22233 23.7747 6.37067 24.0423 5.446 24.091C4.52133 24.091 3.66967 23.8963 2.891 23.507C2.11233 23.069 1.55267 22.412 1.212 21.536C0.774 20.222 0.871333 19.1027 1.504 18.178C2.13667 17.2047 2.98833 16.426 4.059 15.842C4.98367 15.3553 5.83533 14.674 6.614 13.798C7.44133 12.922 8.12267 11.8757 8.658 10.659C9.19333 9.44233 9.43667 8.20133 9.388 6.936H10.41ZM60.561 11.024V13.068H9.242V11.024H60.561ZM63.773 31.902C63.5297 32.2427 63.189 32.4617 62.751 32.559C62.3617 32.6563 61.7533 32.5833 60.926 32.34C58.8333 33.2647 56.3757 34.2137 53.553 35.187C50.7303 36.1603 47.7617 37.085 44.647 37.961C41.5323 38.837 38.442 39.567 35.376 40.151L34.792 39.275C37.1767 37.9123 39.6343 36.3793 42.165 34.676C44.7443 32.924 47.1533 31.172 49.392 29.42C51.6307 27.6193 53.4557 26.0377 54.867 24.675L63.773 31.902ZM42.895 35.041C44.2577 38.9343 46.253 42.2923 48.881 45.115C51.5577 47.889 54.5993 50.2007 58.006 52.05C61.4613 53.8993 64.9897 55.4323 68.591 56.649L68.518 57.452C65.1113 58.0847 62.7997 60.4937 61.583 64.679C58.225 62.635 55.2563 60.299 52.677 57.671C50.1463 54.9943 47.9807 51.8553 46.18 48.254C44.3793 44.604 42.968 40.3457 41.946 35.479L42.895 35.041ZM39.61 47.962C36.7387 50.3953 33.2833 52.7313 29.244 54.97C25.2047 57.16 20.849 59.1067 16.177 60.81C11.505 62.5133 6.73567 63.876 1.869 64.898L1.358 63.803C5.738 62.2457 10.0207 60.2017 14.206 57.671C18.44 55.1403 22.2847 52.342 25.74 49.276C29.244 46.21 32.0667 43.0467 34.208 39.786L39.61 47.962ZM34.792 38.253C32.31 40.0537 29.3657 41.8543 25.959 43.655C22.601 45.4557 18.9997 47.1103 15.155 48.619C11.359 50.1277 7.563 51.393 3.767 52.415L3.329 51.466C6.63833 49.9087 9.94767 47.9863 13.257 45.699C16.615 43.4117 19.7053 40.954 22.528 38.326C25.3993 35.6493 27.711 33.07 29.463 30.588L34.792 38.253ZM27.127 27.96C30.3877 30.0527 33.0887 32.5103 35.23 35.333C37.3713 38.107 38.9773 41.027 40.048 44.093C41.1187 47.159 41.7513 50.152 41.946 53.072C42.1893 55.9433 42.0433 58.547 41.508 60.883C41.0213 63.219 40.2427 65.044 39.172 66.358C38.2473 67.526 36.8603 68.3533 35.011 68.84C33.2103 69.3267 31.0203 69.57 28.441 69.57C28.3923 67.1367 27.8083 65.336 26.689 64.168C26.251 63.6813 25.4723 63.219 24.353 62.781C23.2823 62.2943 22.017 61.8807 20.557 61.54L20.484 60.664C21.506 60.7127 22.6497 60.7857 23.915 60.883C25.1803 60.9803 26.3727 61.0533 27.492 61.102C28.66 61.1507 29.536 61.175 30.12 61.175C30.6553 61.175 31.0933 61.1507 31.434 61.102C31.7747 61.0047 32.0423 60.7857 32.237 60.445C32.8697 59.5203 33.332 58.182 33.624 56.43C33.916 54.6293 34.0133 52.561 33.916 50.225C33.8187 47.889 33.5023 45.4557 32.967 42.925C32.4317 40.3457 31.6287 37.8393 30.558 35.406C29.4873 32.924 28.1247 30.6367 26.47 28.544L27.127 27.96ZM38.807 22.631C36.325 25.259 33.259 27.6923 29.609 29.931C26.0077 32.121 22.0413 34.0677 17.71 35.771C13.4273 37.4743 8.99867 38.9343 4.424 40.151L3.84 39.202C7.14933 37.6933 10.2883 35.9657 13.257 34.019C16.2257 32.0237 18.9753 29.9553 21.506 27.814C24.0853 25.624 26.251 23.507 28.003 21.463H38.807V22.631ZM50.852 15.842C50.852 15.842 51.1197 16.061 51.655 16.499C52.1903 16.8883 52.8717 17.4237 53.699 18.105C54.575 18.7863 55.4753 19.5163 56.4 20.295C57.3247 21.025 58.1763 21.7307 58.955 22.412C58.9063 22.8013 58.6873 23.0933 58.298 23.288C57.9573 23.4827 57.5193 23.58 56.984 23.58H12.016L11.432 21.463H46.399L50.852 15.842ZM109.398 40.443C109.398 40.6863 109.082 41.0027 108.449 41.392C107.865 41.7813 107.086 42.1463 106.113 42.487C105.14 42.779 104.142 42.925 103.12 42.925H101.952V7.812V4.527L109.836 7.812H133.05V9.856H109.398V40.443ZM122.465 8.834V65.701H114.873V8.834H122.465ZM133.488 57.817C133.488 57.817 133.78 58.0603 134.364 58.547C134.948 59.0337 135.678 59.642 136.554 60.372C137.43 61.102 138.33 61.8807 139.255 62.708C140.18 63.4867 141.031 64.2653 141.81 65.044C141.761 65.4333 141.542 65.7253 141.153 65.92C140.764 66.1147 140.301 66.212 139.766 66.212H98.302L97.718 64.095H128.889L133.488 57.817ZM130.641 42.998C130.641 42.998 130.909 43.2413 131.444 43.728C132.028 44.166 132.734 44.7257 133.561 45.407C134.437 46.0883 135.313 46.8427 136.189 47.67C137.114 48.4487 137.941 49.203 138.671 49.933C138.525 50.7117 137.844 51.101 136.627 51.101H102.463L101.879 48.984H126.188L130.641 42.998ZM127.429 7.812L131.006 3.797L138.744 9.637C138.501 9.929 138.111 10.221 137.576 10.513C137.089 10.805 136.481 11.024 135.751 11.17V39.129C135.751 39.3237 135.386 39.5913 134.656 39.932C133.926 40.224 133.074 40.516 132.101 40.808C131.128 41.1 130.227 41.246 129.4 41.246H128.159V7.812H127.429ZM132.466 34.749V36.866H105.529V34.749H132.466ZM132.977 21.463V23.58H105.748V21.463H132.977ZM104.799 30.953C104.556 31.2937 104.166 31.537 103.631 31.683C103.096 31.829 102.487 31.7803 101.806 31.537C100.638 32.559 99.3483 33.5567 97.937 34.53C96.5743 35.4547 95.09 36.2333 93.484 36.866L92.608 36.136C93.484 34.9193 94.36 33.4107 95.236 31.61C96.112 29.8093 96.915 27.9113 97.645 25.916L104.799 30.953ZM79.833 1.826C83.191 1.972 85.819 2.45866 87.717 3.286C89.6637 4.11333 91.0507 5.111 91.878 6.279C92.7053 7.39833 93.0703 8.51767 92.973 9.637C92.9243 10.7563 92.535 11.7297 91.805 12.557C91.075 13.3357 90.126 13.798 88.958 13.944C87.79 14.09 86.5247 13.725 85.162 12.849C84.9187 11.535 84.4807 10.2453 83.848 8.98C83.2153 7.666 82.4853 6.425 81.658 5.257C80.8793 4.089 80.0763 3.09133 79.249 2.264L79.833 1.826ZM91.148 66.431C91.148 66.577 90.8803 66.8447 90.345 67.234C89.8583 67.6233 89.1283 67.9883 88.155 68.329C87.1817 68.7183 86.038 68.913 84.724 68.913H83.337V37.377L91.148 30.807V66.431ZM90.564 34.165C93.4353 34.7977 95.6983 35.625 97.353 36.647C99.0563 37.6203 100.249 38.6667 100.93 39.786C101.611 40.9053 101.903 41.976 101.806 42.998C101.709 43.9713 101.344 44.7743 100.711 45.407C100.078 45.991 99.2753 46.3073 98.302 46.356C97.3773 46.4047 96.3797 46.0153 95.309 45.188C95.0657 43.9713 94.652 42.7303 94.068 41.465C93.484 40.1997 92.827 38.983 92.097 37.815C91.367 36.5983 90.6127 35.5277 89.834 34.603L90.564 34.165ZM90.345 16.645L94.725 12.411L101.952 19.419C101.66 19.7597 101.271 19.9787 100.784 20.076C100.297 20.1733 99.616 20.2707 98.74 20.368C97.1827 23.6287 95.1387 26.938 92.608 30.296C90.126 33.654 87.3033 36.8173 84.14 39.786C80.9767 42.7547 77.5943 45.3097 73.993 47.451L73.263 46.794C75.307 44.75 77.278 42.487 79.176 40.005C81.074 37.523 82.8017 34.9437 84.359 32.267C85.965 29.5903 87.352 26.9137 88.52 24.237C89.688 21.5603 90.5883 19.0297 91.221 16.645H90.345ZM96.185 16.645V18.762H74.942L74.285 16.645H96.185ZM157.213 63.949C157.213 64.241 156.921 64.606 156.337 65.044C155.753 65.5307 154.95 65.9443 153.928 66.285C152.955 66.6257 151.884 66.796 150.716 66.796H149.402V15.039V11.608L157.505 15.039H170.718V17.156H157.213V63.949ZM171.375 4.089C171.034 5.257 170.037 5.841 168.382 5.841C167.652 6.863 166.776 8.031 165.754 9.345C164.781 10.6103 163.783 11.8757 162.761 13.141C161.788 14.4063 160.887 15.5257 160.06 16.499H157.724C157.919 15.2337 158.113 13.725 158.308 11.973C158.551 10.1723 158.77 8.323 158.965 6.425C159.208 4.527 159.379 2.79933 159.476 1.242L171.375 4.089ZM202.619 14.82L207.218 10.075L214.956 16.937C214.664 17.2777 214.275 17.5697 213.788 17.813C213.301 18.0563 212.62 18.2267 211.744 18.324C211.598 25.6727 211.428 32.0723 211.233 37.523C211.038 42.925 210.722 47.524 210.284 51.32C209.895 55.0673 209.359 58.0847 208.678 60.372C208.045 62.6593 207.218 64.3627 206.196 65.482C204.931 66.8447 203.446 67.818 201.743 68.402C200.088 69.0347 198.044 69.351 195.611 69.351C195.611 67.9883 195.489 66.796 195.246 65.774C195.051 64.752 194.638 63.9247 194.005 63.292C193.372 62.6107 192.375 62.0023 191.012 61.467C189.649 60.883 188.092 60.4207 186.34 60.08L186.413 59.058C187.581 59.1553 188.846 59.277 190.209 59.423C191.572 59.5203 192.837 59.5933 194.005 59.642C195.222 59.6907 196.146 59.715 196.779 59.715C197.46 59.715 197.996 59.6663 198.385 59.569C198.774 59.423 199.139 59.1553 199.48 58.766C200.453 57.89 201.183 55.6513 201.67 52.05C202.157 48.4487 202.522 43.5333 202.765 37.304C203.057 31.026 203.276 23.5313 203.422 14.82H202.619ZM167.579 15.039L171.521 10.732L179.405 16.937C179.162 17.2777 178.772 17.5697 178.237 17.813C177.75 18.0563 177.142 18.2753 176.412 18.47V61.978C176.412 62.124 176.023 62.3917 175.244 62.781C174.514 63.1703 173.638 63.511 172.616 63.803C171.594 64.1437 170.596 64.314 169.623 64.314H168.309V15.039H167.579ZM182.836 29.712C186.389 30.734 189.163 31.9993 191.158 33.508C193.202 34.968 194.613 36.4767 195.392 38.034C196.219 39.5427 196.56 40.954 196.414 42.268C196.317 43.582 195.879 44.6527 195.1 45.48C194.321 46.3073 193.324 46.7453 192.107 46.794C190.939 46.8427 189.698 46.3317 188.384 45.261C188.287 43.509 187.922 41.7327 187.289 39.932C186.705 38.1313 185.951 36.4037 185.026 34.749C184.15 33.0457 183.201 31.5127 182.179 30.15L182.836 29.712ZM208.094 14.82V16.937H185.61L186.486 14.82H208.094ZM197.947 4.527C197.801 4.965 197.485 5.33 196.998 5.622C196.56 5.914 195.927 6.03566 195.1 5.987C192.959 11.535 190.404 16.5477 187.435 21.025C184.466 25.5023 181.157 29.274 177.507 32.34L176.631 31.756C177.994 29.2253 179.283 26.3053 180.5 22.996C181.765 19.638 182.909 16.0853 183.931 12.338C185.002 8.59067 185.853 4.86766 186.486 1.169L197.947 4.527ZM172.105 35.26V37.377H153.563V35.26H172.105ZM172.105 56.576V58.62H153.563V56.576H172.105ZM277.663 33.654V35.698H256.055V33.654H277.663ZM251.967 32.924V30.296L261.165 33.654H259.924V47.086C259.924 49.0813 259.778 51.1253 259.486 53.218C259.194 55.262 258.586 57.306 257.661 59.35C256.736 61.3453 255.325 63.2433 253.427 65.044C251.529 66.8447 248.95 68.4507 245.689 69.862L245.032 69.132C247.173 67.088 248.706 64.8737 249.631 62.489C250.604 60.1043 251.237 57.6223 251.529 55.043C251.821 52.415 251.967 49.787 251.967 47.159V33.654V32.924ZM277.955 49.933V52.05H255.909V49.933H277.955ZM273.867 33.654L277.371 29.566L285.328 35.552C285.085 35.844 284.695 36.136 284.16 36.428C283.673 36.6713 283.041 36.866 282.262 37.012V60.08C282.262 61.832 282.043 63.3163 281.605 64.533C281.216 65.7983 280.315 66.796 278.904 67.526C277.541 68.3047 275.4 68.84 272.48 69.132C272.383 67.9153 272.237 66.8447 272.042 65.92C271.847 65.044 271.482 64.314 270.947 63.73C270.46 63.146 269.803 62.6593 268.976 62.27C268.149 61.832 266.932 61.4913 265.326 61.248V60.226C265.326 60.226 265.667 60.2503 266.348 60.299C267.029 60.3477 267.832 60.3963 268.757 60.445C269.682 60.445 270.558 60.4693 271.385 60.518C272.212 60.5667 272.796 60.591 273.137 60.591C273.721 60.591 274.11 60.4693 274.305 60.226C274.5 59.9827 274.597 59.642 274.597 59.204V33.654H273.867ZM277.955 41.611V43.655H256.128V41.611H277.955ZM272.845 1.899C272.796 2.38567 272.602 2.79933 272.261 3.14C271.92 3.432 271.312 3.62667 270.436 3.724V27.668H262.333V0.949998L272.845 1.899ZM280.875 21.025C280.875 21.025 281.313 21.39 282.189 22.12C283.065 22.8013 284.087 23.6287 285.255 24.602C286.472 25.5753 287.567 26.5 288.54 27.376C288.345 28.1547 287.688 28.544 286.569 28.544H247.952L247.368 26.427H276.714L280.875 21.025ZM278.101 12.557C278.101 12.557 278.49 12.8977 279.269 13.579C280.096 14.2117 281.045 14.966 282.116 15.842C283.235 16.718 284.233 17.594 285.109 18.47C284.963 19.2487 284.306 19.638 283.138 19.638H251.456L250.872 17.521H274.232L278.101 12.557ZM279.488 4.089C279.488 4.089 279.902 4.454 280.729 5.184C281.605 5.86533 282.627 6.69266 283.795 7.666C285.012 8.59067 286.082 9.491 287.007 10.367C286.861 11.1457 286.204 11.535 285.036 11.535H249.777L249.193 9.491H275.327L279.488 4.089ZM233.863 35.99C233.668 36.3793 233.352 36.72 232.914 37.012C232.476 37.304 231.843 37.45 231.016 37.45C229.507 41.246 227.78 44.969 225.833 48.619C223.935 52.269 221.867 55.4567 219.628 58.182L218.533 57.671C219.214 55.5297 219.896 53.072 220.577 50.298C221.307 47.524 221.988 44.6283 222.621 41.611C223.302 38.5937 223.838 35.6737 224.227 32.851L233.863 35.99ZM250.58 7.739C250.434 8.177 250.142 8.542 249.704 8.834C249.266 9.126 248.633 9.272 247.806 9.272C246.492 11.754 245.056 14.3333 243.499 17.01C241.942 19.6867 240.433 22.047 238.973 24.091L237.805 23.58C238.146 22.0227 238.511 20.1977 238.9 18.105C239.338 15.9637 239.776 13.7493 240.214 11.462C240.652 9.17466 241.041 6.98466 241.382 4.892L250.58 7.739ZM238.316 34.092C241.479 36.136 243.815 38.2287 245.324 40.37C246.881 42.4627 247.782 44.4337 248.025 46.283C248.317 48.0837 248.147 49.5923 247.514 50.809C246.93 51.977 246.103 52.6583 245.032 52.853C243.961 52.999 242.818 52.4637 241.601 51.247C241.601 49.4463 241.382 47.5727 240.944 45.626C240.506 43.6307 239.971 41.684 239.338 39.786C238.705 37.8393 238.048 36.063 237.367 34.457L238.316 34.092ZM239.995 1.972C239.898 2.45866 239.654 2.89666 239.265 3.286C238.924 3.62666 238.267 3.87 237.294 4.016V67.161C237.294 67.4043 236.978 67.6963 236.345 68.037C235.761 68.3777 235.007 68.6697 234.082 68.913C233.206 69.205 232.306 69.351 231.381 69.351H229.848V0.876999L239.995 1.972ZM220.796 6.352C223.57 8.44466 225.614 10.5617 226.928 12.703C228.291 14.7957 229.069 16.7423 229.264 18.543C229.507 20.295 229.337 21.7307 228.753 22.85C228.169 23.9207 227.366 24.5533 226.344 24.748C225.371 24.894 224.349 24.4317 223.278 23.361C223.375 21.5603 223.229 19.6623 222.84 17.667C222.499 15.6717 222.037 13.725 221.453 11.827C220.918 9.929 220.358 8.20133 219.774 6.644L220.796 6.352ZM241.747 23.288C241.747 23.288 242.112 23.6043 242.842 24.237C243.572 24.8697 244.424 25.624 245.397 26.5C246.419 27.376 247.319 28.2277 248.098 29.055C247.952 29.8337 247.319 30.223 246.2 30.223H219.701L219.117 28.106H238.17L241.747 23.288ZM307.374 6.279V2.702L316.353 6.279H341.319V8.323H315.988V30.88C315.988 31.1233 315.623 31.464 314.893 31.902C314.163 32.34 313.238 32.7293 312.119 33.07C311 33.4107 309.832 33.581 308.615 33.581H307.374V6.279ZM337.012 6.279H336.282L340.297 1.899L348.619 8.177C348.424 8.469 348.059 8.78533 347.524 9.126C346.989 9.418 346.356 9.637 345.626 9.783V30.588C345.626 30.7827 345.212 31.0747 344.385 31.464C343.606 31.8533 342.657 32.194 341.538 32.486C340.467 32.778 339.445 32.924 338.472 32.924H337.012V6.279ZM311.9 24.967H341.538V27.084H311.9V24.967ZM295.986 38.107V34.676L304.527 38.107H319.346V40.151H304.162V66.212C304.162 66.4067 303.821 66.723 303.14 67.161C302.507 67.599 301.656 67.9883 300.585 68.329C299.514 68.6697 298.395 68.84 297.227 68.84H295.986V38.107ZM314.747 38.107H314.017L317.959 33.873L325.989 40.005C325.794 40.297 325.429 40.589 324.894 40.881C324.407 41.173 323.799 41.392 323.069 41.538V65.117C323.069 65.3117 322.68 65.6037 321.901 65.993C321.122 66.3823 320.198 66.723 319.127 67.015C318.105 67.3557 317.107 67.526 316.134 67.526H314.747V38.107ZM298.979 59.423H318.543V61.467H298.979V59.423ZM329.566 38.107V34.676L338.18 38.107H353.948V40.151H337.815V66.285C337.815 66.5283 337.474 66.8447 336.793 67.234C336.112 67.672 335.236 68.0613 334.165 68.402C333.094 68.7427 331.975 68.913 330.807 68.913H329.566V38.107ZM348.911 38.107H348.181L352.123 33.8L360.372 40.005C360.177 40.297 359.812 40.589 359.277 40.881C358.742 41.173 358.109 41.4163 357.379 41.611V65.847C357.379 65.993 356.965 66.2363 356.138 66.577C355.359 66.9177 354.435 67.2097 353.364 67.453C352.293 67.745 351.271 67.891 350.298 67.891H348.911V38.107ZM332.194 59.423H352.707V61.467H332.194V59.423ZM394.536 0.876999C398.089 1.12033 400.887 1.70433 402.931 2.629C405.024 3.55366 406.508 4.62433 407.384 5.841C408.309 7.05766 408.747 8.27433 408.698 9.491C408.649 10.659 408.236 11.681 407.457 12.557C406.727 13.3843 405.754 13.871 404.537 14.017C403.32 14.163 402.031 13.7737 400.668 12.849C400.376 11.4863 399.865 10.0993 399.135 8.688C398.405 7.27666 397.578 5.93833 396.653 4.673C395.777 3.40766 394.901 2.28833 394.025 1.315L394.536 0.876999ZM372.125 12.703V9.856L382.053 13.433H380.739V31.683C380.739 34.7003 380.593 37.888 380.301 41.246C380.058 44.604 379.449 47.9863 378.476 51.393C377.551 54.751 376.067 58.0117 374.023 61.175C372.028 64.3383 369.254 67.1853 365.701 69.716L364.971 69.132C367.21 65.482 368.816 61.5887 369.789 57.452C370.811 53.2667 371.444 48.984 371.687 44.604C371.979 40.1753 372.125 35.8683 372.125 31.683V13.433V12.703ZM425.78 7.301C425.78 7.301 426.048 7.54433 426.583 8.031C427.167 8.469 427.873 9.053 428.7 9.783C429.576 10.513 430.476 11.2917 431.401 12.119C432.326 12.8977 433.177 13.6277 433.956 14.309C433.761 15.0877 433.08 15.477 431.912 15.477H375.994V13.433H421.254L425.78 7.301ZM423.006 21.974C423.006 21.974 423.274 22.2173 423.809 22.704C424.393 23.142 425.123 23.7503 425.999 24.529C426.924 25.259 427.873 26.0377 428.846 26.865C429.819 27.6923 430.695 28.4953 431.474 29.274C431.279 30.0527 430.598 30.442 429.43 30.442H404.683V28.325H418.261L423.006 21.974ZM411.472 17.302C411.423 17.7887 411.204 18.2267 410.815 18.616C410.474 18.9567 409.817 19.2243 408.844 19.419V44.166H400.23V16.353L411.472 17.302ZM420.743 60.445V62.562H387.601V60.445H420.743ZM384.389 39.348L393.149 42.779H416.509L420.378 38.253L427.97 44.02C427.775 44.3607 427.459 44.6527 427.021 44.896C426.583 45.0907 425.975 45.261 425.196 45.407V67.088C425.196 67.2827 424.563 67.6477 423.298 68.183C422.081 68.7183 420.402 68.986 418.261 68.986H416.801V44.823H392.419V67.526C392.419 67.818 391.835 68.2073 390.667 68.694C389.499 69.2293 387.893 69.497 385.849 69.497H384.389V42.779V39.348Z" fill="#7D272B"/>
</svg>
