<svg width="439" height="75" viewBox="0 0 439 75" fill="none" xmlns="http://www.w3.org/2000/svg">
<path d="M0 1.26025H22.43C25.4 1.26025 28.12 1.59025 30.6 2.25025C33.08 2.91025 35.21 3.84025 36.98 5.04025C38.76 6.24025 40.14 7.69025 41.12 9.36025C42.1 11.0403 42.59 12.8903 42.59 14.9003C42.59 16.4403 42.44 17.8103 42.13 19.0203C41.82 20.2303 41.28 21.3403 40.49 22.3603C39.7 23.3803 38.66 24.3503 37.36 25.2603C36.06 26.1703 34.41 27.1003 32.43 28.0503V28.2203C34.42 28.5303 36.21 29.0603 37.8 29.8203C39.4 30.5703 40.76 31.5403 41.9 32.7003C43.03 33.8603 43.91 35.2203 44.53 36.7703C45.15 38.3203 45.45 40.0303 45.45 41.8703C45.45 43.9703 45 45.9403 44.09 47.7703C43.18 49.6003 41.88 51.2003 40.19 52.5603C38.49 53.9203 36.45 54.9903 34.06 55.7703C31.67 56.5603 28.98 56.9503 26.01 56.9503H0V1.26025ZM9.37 26.3303H21.3C23.17 26.3303 24.84 26.0603 26.3 25.5303C27.75 25.0003 28.99 24.2603 30 23.3303C31.01 22.3903 31.77 21.2703 32.29 19.9703C32.81 18.6703 33.07 17.2603 33.07 15.7503C33.07 14.1303 32.76 12.6503 32.15 11.3203C31.53 9.99025 30.57 8.85025 29.27 7.90025C27.97 6.95025 26.32 6.22025 24.31 5.72025C22.31 5.22025 19.91 4.96025 17.11 4.96025H9.38V26.3403L9.37 26.3303ZM9.37 52.8803H19.49C22.2 52.8803 24.56 52.6203 26.57 52.1003C28.58 51.5803 30.23 50.8503 31.53 49.9203C32.83 48.9903 33.8 47.8603 34.43 46.5403C35.06 45.2203 35.38 43.7803 35.38 42.2103C35.38 40.4503 35.1 38.8103 34.54 37.3003C33.98 35.7903 33.06 34.4803 31.79 33.3703C30.51 32.2603 28.85 31.3903 26.79 30.7403C24.73 30.1003 22.2 29.7703 19.21 29.7703H9.38V52.8703L9.37 52.8803Z" fill="#EEDBD4"/>
<path d="M85.09 58.2502C80.78 58.2502 76.75 57.4802 73.02 55.9402C69.28 54.4002 66.03 52.2902 63.27 49.6202C60.51 46.9502 58.34 43.8302 56.76 40.2502C55.18 36.6802 54.39 32.8702 54.39 28.8102C54.39 26.1502 54.75 23.5902 55.46 21.1202C56.17 18.6602 57.19 16.3602 58.51 14.2302C59.83 12.1002 61.42 10.1602 63.28 8.41023C65.14 6.66023 67.21 5.16023 69.47 3.92023C71.74 2.68023 74.19 1.71023 76.82 1.02023C79.45 0.330234 82.21 -0.00976562 85.09 -0.00976562C87.97 -0.00976562 90.73 0.330234 93.36 1.02023C95.99 1.71023 98.45 2.67023 100.73 3.92023C103.01 5.17023 105.08 6.66023 106.92 8.41023C108.76 10.1602 110.36 12.1002 111.69 14.2302C113.02 16.3602 114.04 18.6502 114.76 21.1202C115.47 23.5802 115.83 26.1502 115.83 28.8102C115.83 31.4702 115.47 34.1002 114.76 36.6002C114.05 39.1102 113.02 41.4502 111.69 43.6302C110.36 45.8102 108.77 47.8002 106.92 49.5902C105.07 51.3802 103.01 52.9202 100.73 54.2102C98.45 55.5002 95.99 56.4902 93.36 57.1902C90.73 57.8902 87.97 58.2402 85.09 58.2402V58.2502ZM85.09 55.4802C88.28 55.4802 91.1 54.8202 93.55 53.4902C96 52.1602 98.06 50.3102 99.74 47.9302C101.42 45.5502 102.69 42.7402 103.54 39.4902C104.39 36.2402 104.82 32.6902 104.82 28.8202C104.82 24.9502 104.39 21.4702 103.54 18.2802C102.69 15.0902 101.42 12.3402 99.74 10.0302C98.06 7.72023 96 5.93023 93.55 4.65023C91.1 3.38023 88.28 2.74023 85.09 2.74023C81.9 2.74023 78.99 3.38023 76.54 4.65023C74.09 5.93023 72.03 7.72023 70.37 10.0302C68.7 12.3402 67.45 15.0902 66.61 18.2802C65.77 21.4702 65.35 24.9902 65.35 28.8202C65.35 32.6502 65.77 36.2402 66.61 39.4902C67.45 42.7402 68.7 45.5502 70.37 47.9302C72.03 50.3102 74.09 52.1602 76.54 53.4902C78.99 54.8202 81.84 55.4802 85.09 55.4802Z" fill="#EEDBD4"/>
<path d="M127.59 1.26025H136.95V37.4203C136.95 39.8003 137.36 42.0303 138.17 44.1203C138.98 46.2003 140.14 48.0303 141.66 49.6003C143.18 51.1703 145 52.4103 147.14 53.3203C149.28 54.2303 151.66 54.6803 154.3 54.6803C156.94 54.6803 159.35 54.2303 161.48 53.3203C163.61 52.4103 165.42 51.1703 166.92 49.6003C168.42 48.0303 169.56 46.2003 170.36 44.1203C171.16 42.0303 171.56 39.8003 171.56 37.4203V1.26025H175.68V37.4203C175.68 40.2803 175.22 42.9603 174.29 45.4903C173.37 48.0103 171.92 50.2103 169.94 52.1003C167.97 53.9903 165.44 55.4903 162.36 56.5903C159.28 57.6903 155.58 58.2503 151.27 58.2503C147.44 58.2503 144.04 57.7003 141.09 56.5903C138.14 55.4803 135.66 53.9803 133.66 52.0803C131.66 50.1703 130.15 47.9403 129.12 45.3803C128.1 42.8203 127.59 40.0803 127.59 37.1703V1.26025Z" fill="#EEDBD4"/>
<path d="M233.67 1.26025V4.87025H213.51V56.9503H204.14V4.87025H183.98V1.26025H233.66H233.67Z" fill="#EEDBD4"/>
<path d="M242.83 1.26025H252.2V56.9503H242.83V1.26025Z" fill="#EEDBD4"/>
<path d="M325.23 74.3802C322.51 74.3802 319.81 74.1302 317.1 73.6202C314.39 73.1102 311.79 72.4302 309.27 71.5602C306.75 70.6902 304.34 69.6802 302.02 68.5202C299.71 67.3602 297.58 66.1402 295.62 64.8602C293.66 63.5902 291.9 62.2802 290.35 60.9502C288.8 59.6202 287.5 58.3402 286.47 57.1102C283.3 56.3302 280.4 54.9802 277.75 53.0802C275.1 51.1702 272.83 48.9402 270.93 46.3602C269.03 43.7802 267.54 40.9802 266.48 37.9402C265.42 34.9002 264.89 31.8602 264.89 28.8002C264.89 24.8202 265.66 21.0902 267.2 17.5902C268.74 14.0902 270.87 11.0402 273.58 8.43023C276.29 5.82024 279.5 3.77023 283.2 2.26023C286.9 0.750234 290.91 -0.00976562 295.25 -0.00976562C299.59 -0.00976562 303.57 0.750234 307.26 2.26023C310.96 3.77023 314.16 5.83024 316.88 8.43023C319.59 11.0302 321.72 14.0902 323.26 17.5902C324.8 21.0902 325.57 24.8302 325.57 28.8002C325.57 32.0202 325 35.1902 323.85 38.3102C322.7 41.4302 321.11 44.2902 319.08 46.9002C317.05 49.5102 314.63 51.7402 311.81 53.6002C309 55.4602 305.91 56.7302 302.55 57.4002C303.17 59.2502 304.19 61.1002 305.64 62.9402C307.08 64.7902 308.8 66.4502 310.8 67.9202C312.8 69.3902 315.04 70.5802 317.5 71.4902C319.96 72.4002 322.54 72.8502 325.23 72.8502V74.3602V74.3802ZM295.24 55.4802C298.37 55.1502 301.17 54.2902 303.62 52.9002C306.07 51.5202 308.13 49.6802 309.81 47.4002C311.49 45.1202 312.77 42.4102 313.65 39.2902C314.53 36.1702 314.97 32.6802 314.97 28.8102C314.97 24.9402 314.54 21.4602 313.67 18.2702C312.8 15.0802 311.53 12.3302 309.85 10.0202C308.17 7.71024 306.11 5.92023 303.66 4.64023C301.21 3.37023 298.4 2.73023 295.24 2.73023C292.08 2.73023 289.13 3.37023 286.67 4.64023C284.21 5.92023 282.15 7.71024 280.5 10.0202C278.85 12.3302 277.6 15.0802 276.76 18.2702C275.92 21.4602 275.5 24.9802 275.5 28.8102C275.5 32.6402 275.92 36.2302 276.76 39.4802C277.6 42.7302 278.85 45.5402 280.5 47.9202C282.15 50.3002 284.21 52.1502 286.67 53.4802C289.13 54.8102 291.99 55.4702 295.24 55.4702V55.4802Z" fill="#EEDBD4"/>
<path d="M337.32 1.26025H346.69V37.4203C346.69 39.8003 347.1 42.0303 347.91 44.1203C348.72 46.2003 349.88 48.0303 351.4 49.6003C352.91 51.1703 354.74 52.4103 356.88 53.3203C359.02 54.2303 361.41 54.6803 364.04 54.6803C366.67 54.6803 369.09 54.2303 371.22 53.3203C373.35 52.4103 375.16 51.1703 376.66 49.6003C378.16 48.0303 379.31 46.2003 380.11 44.1203C380.91 42.0303 381.3 39.8003 381.3 37.4203V1.26025H385.42V37.4203C385.42 40.2803 384.96 42.9603 384.04 45.4903C383.12 48.0103 381.67 50.2103 379.69 52.1003C377.72 53.9903 375.19 55.4903 372.11 56.5903C369.03 57.7003 365.33 58.2503 361.02 58.2503C357.18 58.2503 353.79 57.7003 350.84 56.5903C347.88 55.4803 345.41 53.9803 343.41 52.0803C341.41 50.1703 339.9 47.9403 338.87 45.3803C337.84 42.8203 337.34 40.0803 337.34 37.1703V1.26025H337.32Z" fill="#EEDBD4"/>
<path d="M438.37 1.26025V4.87025H409.01V24.7803H428.66V28.3903H409.01V53.3303H438.37V56.9403H399.65V1.26025H438.37Z" fill="#EEDBD4"/>
</svg>
