<svg width="126" height="54" viewBox="0 0 126 54" fill="none" xmlns="http://www.w3.org/2000/svg">
<path d="M54.2939 20.5799C57.0453 23.1242 60.4323 23.9988 63.8094 24.1181C66.2727 24.0883 68.3884 23.6907 70.4047 22.826C78.3508 19.427 80.0692 9.25952 73.6229 3.75341C68.8155 -0.351332 60.2734 -0.609742 55.2177 3.20677C49.4468 7.56992 48.9998 15.6701 54.2939 20.5799ZM64.1372 4.6976C68.3983 4.72741 71.5271 7.8979 71.4774 12.2809C71.4277 16.9025 68.5373 19.8344 64.0974 19.9338C59.8165 20.0332 56.7274 16.7633 56.7274 12.3008C56.7274 7.82833 59.8066 4.66778 64.1372 4.6976Z" fill="#666666"/>
<path d="M87.3299 13.9704H97.3321V23.1937H103.033V1.37793H97.3122V9.34888H87.2902V1.40775H81.6286V23.1937H87.3299V13.9704Z" fill="#666666"/>
<path d="M34.3293 5.48239C35.8192 5.5619 37.2098 5.50226 38.5507 5.73086C40.7557 6.09859 41.6198 7.46022 41.2324 9.64676C40.9742 11.1276 39.9809 12.0619 38.203 12.3402C37.2296 12.4893 36.2264 12.4495 35.1735 12.4992C35.1735 12.6185 35.1636 12.7079 35.1934 12.7576C37.6766 16.1368 40.1597 19.5061 42.6627 22.8754C42.7919 23.0543 43.0501 23.2431 43.2488 23.2431C45.5035 23.2729 47.7582 23.263 50.2414 23.263C48.9104 21.6429 47.7483 20.2217 46.5762 18.8104C45.4141 17.3891 44.2421 15.9778 43.0303 14.5069C43.4574 14.2484 43.7951 14.0596 44.1229 13.8608C48.4138 11.1773 47.8278 4.62765 44.4407 2.84859C43.0402 2.11312 41.3715 1.62612 39.7923 1.52673C36.3258 1.29813 32.8294 1.37765 29.3431 1.33789C29.1047 1.33789 28.8663 1.39752 28.5782 1.42734V23.1835H34.3194V5.50226L34.3293 5.48239Z" fill="#666666"/>
<path d="M107.195 31.7407C105.477 31.1841 103.759 30.5977 102.05 29.9915C95.137 27.5465 88.1742 27.1887 81.1518 29.5442C78.1223 30.558 75.0829 31.5519 72.0336 32.5259C67.1766 34.0763 62.2798 34.4043 57.3532 32.9035C53.3106 31.6711 49.3077 30.3294 45.2552 29.1367C40.428 27.7254 35.5311 27.3875 30.6343 28.7292C27.2175 29.6635 23.8305 30.7567 20.4534 31.8301C16.1624 33.1918 11.8616 34.3745 7.28264 33.6788C6.8754 33.6191 6.46819 33.5893 6.01129 33.5396C6.97476 35.9349 7.8389 36.5412 10.1731 36.3821C11.663 36.2827 13.1826 36.2529 14.6129 35.8752C18.5264 34.8416 22.4697 33.8577 26.254 32.4563C33.5148 29.7529 40.6564 29.6933 47.8873 32.496C50.4301 33.48 53.0722 34.2453 55.6845 35.0304C60.5714 36.5014 65.5277 36.8989 70.4941 35.4578C74.1394 34.3944 77.7747 33.2912 81.3703 32.0587C87.4491 29.9815 93.518 29.6535 99.6365 31.8401C102.01 32.6849 104.414 33.4402 106.818 34.2254C110.344 35.3783 113.92 36.2927 117.654 36.3523C118.588 36.3623 119.661 36.233 120.435 35.7759C121.131 35.3684 121.518 34.4242 122.045 33.7185C116.82 34.5832 111.993 33.3011 107.195 31.7407Z" fill="#666666"/>
<path d="M23.2246 21.3556C23.5027 21.2164 23.7212 20.6996 23.7411 20.3517C23.7907 18.7218 23.761 17.0819 23.761 15.4419C23.761 14.3884 23.761 13.3449 23.761 12.2715H17.9106C17.9106 14.2294 17.9404 16.1079 17.8907 17.9863C17.8907 18.3242 17.6424 18.851 17.3743 18.9504C15.5566 19.6262 13.6694 19.9641 11.7425 19.4672C9.05072 18.7715 7.63029 16.8135 7.15352 14.2592C6.63703 11.5161 7.11384 8.93201 9.30895 6.9343C11.6928 4.7577 14.5534 4.51917 17.5133 5.22482C19.3608 5.66213 21.1387 6.39761 23.0657 7.04363C23.0657 5.79134 23.1054 4.58874 23.0359 3.38614C23.016 3.09791 22.718 2.70036 22.4399 2.58109C19.0231 1.09027 15.4672 0.364733 11.7425 0.871614C5.86233 1.65678 1.66081 5.00617 0.925789 11.1086C0.280166 16.406 3.10101 21.2264 8.09714 22.9855C13.3714 24.8441 18.3973 23.8303 23.2246 21.3754V21.3556Z" fill="#666666"/>
<path d="M114.953 18.9196V13.7912H122.68V9.55725H114.973V5.65128H124.309V1.39746H109.192V23.1933H125.501V18.9196H114.953Z" fill="#666666"/>
<path d="M88.3033 36.5817C83.6449 37.1483 79.2845 38.7484 74.8446 40.1398C71.8449 41.0741 68.7559 41.8791 65.647 42.3363C62.0811 42.8631 58.5849 41.9487 55.178 40.8753C51.8605 39.8317 48.5827 38.6391 45.2354 37.685C40.269 36.2637 35.2332 35.896 30.1973 37.3272C25.1416 38.7583 20.1256 40.3088 15.0898 41.8195C15.0103 41.8394 14.9507 41.9388 14.8812 42.0083C15.944 43.3203 17.0564 43.857 18.8343 43.1911C21.6552 42.1375 24.645 41.5512 27.4956 40.5473C34.23 38.172 40.865 38.4602 47.5 40.925C50.1918 41.9288 52.953 42.7736 55.7044 43.5886C60.5614 45.0298 65.4781 45.4372 70.4146 44.016C74.0996 42.9525 77.745 41.7897 81.3903 40.597C86.6546 38.8776 91.9685 38.1123 97.4116 39.7025C101.335 40.8455 105.288 41.8891 109.142 43.2109C110.9 43.8172 111.943 43.201 113.244 41.7897C107.543 40.1796 102.07 38.5496 96.5574 37.0986C93.8756 36.3929 91.1043 36.2339 88.3033 36.5718V36.5817Z" fill="#666666"/>
<path d="M83.4661 46.0233C79.5328 47.2457 75.6193 48.5278 71.6761 49.7304C67.4646 51.0126 63.1737 51.5294 58.853 50.3367C55.2276 49.3329 51.6519 48.1502 48.0562 47.0569C42.9608 45.5064 37.8355 44.1945 32.452 45.4269C29.8397 46.0233 27.2473 46.7289 24.4463 47.4346C26.2938 48.8161 27.9525 49.5217 29.8993 48.5278C30.1476 48.3986 30.4357 48.3589 30.7138 48.2893C33.2367 47.6632 35.7894 47.0569 38.4017 47.4147C40.6862 47.7228 42.9707 48.1402 45.1857 48.7664C48.9402 49.8298 52.6252 51.1418 56.3699 52.2847C60.77 53.6265 65.2497 53.9743 69.7193 52.732C73.1759 51.7778 76.5828 50.6647 79.9996 49.6012C84.4495 48.2098 88.9092 46.7786 93.667 47.5936C95.6932 47.9415 97.6798 48.5179 99.6862 48.9751C100.014 49.0447 100.421 49.1341 100.699 49.0148C101.573 48.6372 102.398 48.1502 103.312 47.6731C103.113 47.5439 103.014 47.4346 102.894 47.3849C96.5375 45.2182 90.1111 43.9659 83.4661 46.0332V46.0233Z" fill="#666666"/>
</svg>
