<svg width="155" height="58" viewBox="0 0 155 58" fill="none" xmlns="http://www.w3.org/2000/svg">
<path d="M91.9764 0.505136C93.2378 0.505136 94.4893 0.505137 95.7309 0.525014C95.8203 0.525014 95.9792 0.783424 95.9892 0.922567C96.0289 1.77731 96.0488 2.63205 96.0388 3.47685C96.0289 6.21003 96.009 8.94321 95.9892 11.6863C95.9892 12.8989 95.9693 14.1114 95.9594 15.3239C95.9594 15.642 96.0587 15.801 96.4262 15.801C98.8597 15.801 101.283 15.801 103.717 15.8109C103.836 15.8109 103.955 15.7712 104.064 15.7513C103.707 15.0258 103.319 14.3599 103.041 13.6443C102.048 11.1198 102.048 8.57547 103.041 6.05101C103.806 4.12287 105.068 2.59229 106.846 1.5189C108.643 0.435565 110.6 0.246727 112.656 0.405748C113.719 0.485259 114.702 0.763547 115.636 1.23067C116.957 1.8767 118 2.8507 118.864 4.03342C119.788 5.31553 120.433 6.70697 120.543 8.31706C120.543 8.42639 120.602 8.52578 120.741 8.65498C120.791 8.51584 120.861 8.3767 120.88 8.23755C121.427 4.68939 123.413 2.28419 126.711 0.952385C128.28 0.316299 129.919 0.336176 131.578 0.435565C132.949 0.515075 134.22 0.852996 135.432 1.4692C135.978 1.74749 136.236 2.08541 136.187 2.76125C136.107 3.64581 136.187 4.55024 136.187 5.4348C136.187 5.6137 136.147 5.7926 136.127 5.96156C135.422 5.60376 134.796 5.21615 134.131 4.93786C132.402 4.21232 130.624 3.89428 128.757 4.45085C125.867 5.31553 124.208 8.35682 125.002 11.2788C125.549 13.2666 126.731 14.658 128.687 15.2643C130.346 15.7712 132.025 15.642 133.634 14.9264C134.528 14.5288 135.392 14.0617 136.326 13.6045C136.365 13.7635 136.435 13.9027 136.435 14.0319C136.455 15.0556 136.485 16.0793 136.435 17.1129C136.435 17.3415 136.216 17.6695 136.018 17.7689C134.955 18.246 133.882 18.7528 132.76 19.0709C130.952 19.5877 129.115 19.5082 127.307 19.0411C125.211 18.4944 123.532 17.3415 122.341 15.5028C121.556 14.3002 120.95 13.0281 120.9 11.5571C120.9 11.4478 120.861 11.3285 120.821 11.2291C120.811 11.1894 120.751 11.1496 120.672 11.0602C120.066 15.0457 118.03 17.9478 114.166 19.0311C110.411 20.0846 107.014 19.1802 104.313 15.97C104.263 16.2184 104.194 16.3973 104.194 16.5663C104.194 17.2521 104.194 17.9379 104.223 18.6137C104.233 19.0013 104.104 19.1405 103.697 19.1305C100.012 19.1106 96.3269 19.1007 92.6419 19.1305C92.1353 19.1305 91.9565 19.0311 91.9665 18.4746C91.9863 12.5808 91.9665 6.69703 91.9665 0.803302C91.9665 0.73373 91.9764 0.654219 91.9863 0.525014L91.9764 0.505136ZM116.659 9.65881C116.609 9.31095 116.59 8.77425 116.47 8.25743C115.636 4.57012 112.07 3.22838 109.12 4.72914C107.71 5.44474 106.985 6.69703 106.597 8.24749C106.13 10.0961 106.458 11.746 107.382 13.3561C108.753 15.7513 112.299 16.0495 114.166 14.8469C115.984 13.6741 116.59 11.8851 116.659 9.64887V9.65881Z" fill="#666666"/>
<path d="M43.356 0.534509C43.5547 0.52457 43.7434 0.504692 43.9222 0.504692C47.6668 0.504692 51.4015 0.504693 55.1461 0.494754C55.6229 0.494754 55.7719 0.623959 55.752 1.10102C55.7123 1.91601 55.7421 2.73099 55.752 3.55592C55.752 3.85408 55.6626 3.99322 55.3249 3.99322C53.1596 3.98329 50.9943 3.99322 48.8289 3.99322C48.7495 3.99322 48.6799 3.99322 48.6005 3.99322C47.7529 4.00648 47.3291 4.43385 47.3291 5.27533C47.3291 6.05056 47.339 6.83573 47.3192 7.61096C47.3092 8.06815 47.5079 8.21723 47.935 8.21723C50.3884 8.19735 52.8318 8.19735 55.2852 8.16754C55.6328 8.16754 55.752 8.2868 55.752 8.56509C55.7619 9.45959 55.7818 10.3541 55.752 11.2386C55.752 11.3579 55.4937 11.5567 55.3547 11.5567C52.9013 11.5666 50.4579 11.5567 48.0045 11.5368C47.5178 11.5368 47.3092 11.6263 47.3192 12.1928C47.3589 14.3197 47.3291 16.4466 47.349 18.5735C47.349 18.9711 47.2099 19.1102 46.8126 19.1102C44.3791 19.1003 41.9555 19.0903 39.522 19.1102C39.1347 19.1102 38.9857 18.9412 38.8665 18.6232C38.35 17.2218 37.8236 15.8204 37.317 14.4191C36.6316 12.5307 35.9661 10.6423 35.2907 8.75393C34.9133 7.70041 34.5358 6.65683 34.1485 5.61326C34.0789 5.43436 33.9597 5.2654 33.8406 5.02686C33.5624 5.96111 33.334 6.80592 33.0559 7.63084C32.6089 9.01234 32.1222 10.3938 31.6752 11.7753C31.0395 13.6935 30.4237 15.6217 29.798 17.5399C29.7086 17.8281 29.5596 18.1064 29.5099 18.4045C29.4205 19.0506 29.0332 19.1201 28.4769 19.1003C27.3843 19.0605 26.2818 19.0903 25.07 19.0903C25.2985 18.4344 25.4971 17.8678 25.6958 17.2914C26.4805 15.0253 27.2552 12.7493 28.0498 10.4833C28.6855 8.66448 29.3311 6.84567 29.9668 5.02686C30.4138 3.75469 30.8608 2.49246 31.2779 1.22029C31.4369 0.733286 31.6355 0.43512 32.2613 0.464937C33.3539 0.534509 34.4663 0.52457 35.5589 0.464937C36.0655 0.445059 36.2741 0.663714 36.433 1.07121C37.0587 2.69124 37.6944 4.31127 38.3103 5.94124C39.085 7.95882 39.8498 9.96647 40.6146 11.9841C41.1609 13.4152 41.7072 14.8464 42.2436 16.2876C42.4919 16.9535 42.7104 17.6392 42.9488 18.3151C42.9786 18.4145 43.068 18.494 43.217 18.6928C43.2964 18.4045 43.3958 18.2256 43.3958 18.0467C43.3958 14.6477 43.3858 11.2486 43.3759 7.84949C43.3759 5.49399 43.356 3.13848 43.3461 0.78298C43.3461 0.713408 43.366 0.643836 43.3759 0.52457L43.356 0.534509Z" fill="#666666"/>
<path d="M0 0.505229C1.32104 0.505229 2.56263 0.495291 3.81414 0.525107C3.93333 0.525107 4.09225 0.743761 4.15185 0.892844C4.8372 2.78122 5.49276 4.6696 6.16818 6.55798C6.71448 8.10844 7.2707 9.6589 7.80707 11.2094C7.93619 11.587 8.01565 11.9945 8.16464 12.571C8.38316 12.1635 8.54208 11.925 8.64141 11.6566C9.35656 9.82786 10.0518 7.98917 10.7571 6.15049C11.4226 4.38138 12.0781 2.61226 12.7635 0.853089C12.8231 0.694067 13.0714 0.525107 13.2303 0.515168C14.0249 0.475413 14.8295 0.475413 15.6241 0.515168C15.8128 0.515168 16.081 0.723884 16.1505 0.892844C17.0246 3.14896 17.8688 5.41502 18.733 7.68107C19.2793 9.13214 19.8454 10.5733 20.4116 12.0144C20.4613 12.1436 20.5606 12.2529 20.6798 12.4517C20.9976 11.5473 21.2857 10.7323 21.5638 9.92725C22.2591 7.94942 22.9544 5.96165 23.6497 3.98382C24.0072 2.96012 24.3449 1.94636 24.6827 0.912721C24.782 0.594678 24.9608 0.485352 25.3084 0.485352C26.4407 0.50523 27.583 0.485352 28.8345 0.485352C28.6557 1.04193 28.5266 1.52893 28.3577 1.99605C27.8015 3.56639 27.2155 5.12679 26.6593 6.69712C25.8944 8.85385 25.1495 11.0205 24.3946 13.1772C23.7887 14.9066 23.163 16.636 22.5571 18.3653C22.3683 18.902 22.1002 19.2101 21.4446 19.1107C20.8884 19.0213 20.3024 19.0511 19.7362 19.1107C19.2694 19.1505 19.0508 18.9815 18.8919 18.5641C18.2761 16.9441 17.6305 15.324 17.0047 13.704C16.2399 11.7461 15.485 9.7881 14.7103 7.84009C14.6507 7.69101 14.5017 7.57174 14.3626 7.39284C13.9256 8.50599 13.5183 9.53963 13.1111 10.5633C12.6741 11.6765 12.2569 12.7797 11.8199 13.8928C11.2537 15.3539 10.6875 16.8149 10.1313 18.2858C9.92272 18.8324 9.69427 19.2598 8.95926 19.1107C8.46262 19.0113 7.92626 19.0213 7.42963 19.1107C6.75421 19.2399 6.52576 18.8623 6.33703 18.3554C5.73114 16.6658 5.13518 14.9662 4.53922 13.2766C3.85387 11.3286 3.17845 9.39055 2.4931 7.44254C1.67862 5.14667 0.854208 2.86073 0.00993266 0.495291L0 0.505229Z" fill="#666666"/>
<path d="M73.9884 0.524933C74.1373 0.524933 74.3062 0.495117 74.4751 0.495117C77.1668 0.495117 79.8685 0.495117 82.5602 0.495117C84.7355 0.495117 86.8214 2.0257 87.457 4.10291C87.9934 5.87203 87.8245 7.55169 86.6724 9.04252C86.3446 9.46989 85.8479 9.76805 85.4308 10.1159C85.3215 10.2054 85.1924 10.2749 85.0434 10.3743C85.4208 10.8216 85.8579 11.1893 86.0863 11.6564C86.8213 13.1373 87.5067 14.658 88.1722 16.1687C88.5 16.9141 88.7682 17.6794 89.0562 18.4347C89.1257 18.6236 89.1754 18.8223 89.2548 19.0807C88.9072 19.0807 88.6291 19.0807 88.3609 19.0807C87.4074 19.0807 86.4638 19.0807 85.5102 19.0907C85.1725 19.0907 85.0235 19.0112 84.8745 18.6335C84.1495 16.7551 83.5932 14.7872 82.4808 13.0777C81.8451 12.1037 81.0604 11.4278 79.799 11.5372C79.3321 11.5769 78.8454 11.557 78.3786 11.5372C78.0012 11.5372 77.8422 11.6564 77.8522 12.0639C77.872 14.2107 77.8522 16.3575 77.882 18.5043C77.882 18.9416 77.8025 19.1106 77.3158 19.0907C76.3523 19.0509 75.3789 19.0708 74.4155 19.0907C74.0777 19.0907 73.9486 19.0112 73.9486 18.6534C73.9486 12.6503 73.9486 6.64726 73.9486 0.654138C73.9486 0.614383 73.9685 0.584566 73.9884 0.505055V0.524933ZM80.0771 4.01347V3.96377C79.5109 3.96377 78.9448 3.97371 78.3687 3.96377C78.021 3.95383 77.8422 4.06316 77.8422 4.44083C77.8522 5.52417 77.8522 6.6075 77.8422 7.6809C77.8422 8.07845 78.0012 8.22753 78.3786 8.22753C79.3123 8.22753 80.236 8.24741 81.1697 8.22753C81.557 8.21759 81.9643 8.14802 82.3318 8.02875C83.2357 7.75047 83.6528 6.88579 83.5336 5.65337C83.4442 4.71912 82.8582 4.09298 81.9444 4.01347C81.3187 3.96377 80.6929 4.01347 80.0671 4.01347H80.0771Z" fill="#666666"/>
<path d="M58.3444 0.525107C58.4835 0.525107 58.6424 0.495291 58.8113 0.495291C62.7843 0.495291 66.7474 0.49529 70.7205 0.485352C71.2171 0.485352 71.386 0.614556 71.3661 1.12144C71.3264 1.89667 71.3463 2.68183 71.3661 3.45706C71.3661 3.81486 71.237 3.96394 70.8596 3.96394C68.2572 3.96394 65.6549 3.97388 63.0624 3.96394C62.2678 3.96394 62.2579 3.95401 62.2579 4.77893C62.2579 5.6933 62.2678 6.60768 62.2281 7.51211C62.2082 8.01899 62.4168 8.20783 62.8836 8.20783C65.5059 8.19789 68.1281 8.20783 70.7404 8.16807C71.1575 8.16807 71.3562 8.26746 71.3562 8.68489C71.3562 9.49988 71.3562 10.3149 71.3562 11.1398C71.3562 11.5672 71.088 11.5572 70.7801 11.5572C68.1976 11.5572 65.6151 11.5572 63.0326 11.5473C62.2281 11.5473 62.2281 11.5473 62.238 12.3722C62.238 13.2866 62.2678 14.2009 62.2182 15.1054C62.1983 15.6123 62.3771 15.7812 62.8638 15.7812C65.5257 15.7812 68.1777 15.7812 70.8397 15.7613C71.237 15.7613 71.386 15.8409 71.3761 16.2483C71.3562 17.0435 71.3661 17.8485 71.3761 18.6436C71.3761 18.9815 71.2767 19.1107 70.9192 19.1107C66.8567 19.1008 62.7943 19.1008 58.7318 19.1107C58.3941 19.1107 58.265 19.0113 58.265 18.6535C58.2948 16.4272 58.3246 14.2109 58.3345 11.9846C58.3444 8.71471 58.3345 5.45477 58.3345 2.18489C58.3345 1.65813 58.3345 1.12144 58.3345 0.515168L58.3444 0.525107Z" fill="#666666"/>
<path d="M154.463 19.1508C153.946 19.121 153.618 19.0911 153.291 19.0911C152.168 19.0911 151.046 19.121 149.933 19.0911C149.655 19.0911 149.298 18.9122 149.139 18.7035C147.818 16.9443 146.536 15.1653 145.235 13.3862C144.54 12.4421 143.835 11.5078 143.03 10.6034C143.03 10.832 143.03 11.0606 143.03 11.2792C143.03 13.7341 143.03 16.1791 143.03 18.634C143.03 18.9421 142.971 19.1408 142.583 19.1309C141.58 19.111 140.567 19.1011 139.564 19.1309C139.107 19.1408 138.988 18.9719 138.988 18.5346C139.008 12.78 138.998 7.01545 139.008 1.26086C139.008 1.03227 139.008 0.813617 139.008 0.525391C140.249 0.525391 141.501 0.52539 142.742 0.545268C142.842 0.545268 143.01 0.803678 143.01 0.932883C143.01 3.43747 142.991 5.952 142.971 8.45658C142.971 8.55597 143 8.6653 143.03 8.92371C143.507 8.38701 143.904 7.9497 144.292 7.49252C145.047 6.58808 145.782 5.66377 146.527 4.75934C147.619 3.44741 148.712 2.13548 149.824 0.843433C149.943 0.704289 150.152 0.545268 150.321 0.545268C151.642 0.52539 152.973 0.53533 154.314 0.53533C154.314 0.634718 154.334 0.70429 154.314 0.734106C152.804 2.51316 151.294 4.29221 149.784 6.06132C148.95 7.04527 148.126 8.03915 147.271 9.00322C147.003 9.30138 147.212 9.50016 147.351 9.689C148.255 10.9115 149.169 12.1141 150.072 13.3366C151.264 14.9367 152.436 16.5369 153.618 18.137C153.847 18.4451 154.095 18.7433 154.433 19.1707L154.463 19.1508Z" fill="#666666"/>
<path d="M112.368 33.2139H111.285C111.285 32.389 111.285 31.6038 111.285 30.8087C111.285 29.6359 111.276 28.4532 111.285 27.2804C111.285 27.1413 111.415 26.9027 111.504 26.8928C111.663 26.8729 111.931 26.9524 111.981 27.0717C112.229 27.6084 112.487 27.5488 112.895 27.2208C113.57 26.6741 114.732 26.6741 115.437 27.2506C115.825 27.5686 116.063 27.4991 116.411 27.2407C117.225 26.6244 118.507 26.6642 119.162 27.4096C119.49 27.7773 119.728 28.3439 119.758 28.8309C119.837 30.1726 119.788 31.5243 119.778 32.876C119.778 33.4822 119.301 33.204 119.023 33.2338C118.725 33.2636 118.606 33.1344 118.626 32.7865C118.685 31.5939 118.715 30.4012 118.705 29.2085C118.705 28.4134 118.318 27.9364 117.672 27.7475C117.116 27.5786 116.649 27.7873 116.301 28.1848C116.133 28.3737 116.043 28.6917 116.043 28.9601C116.023 30.2322 116.013 31.5044 116.063 32.7766C116.083 33.363 115.735 33.2437 115.398 33.2437C115.04 33.2437 114.881 33.1841 114.901 32.717C114.97 31.3951 114.99 30.0633 114.941 28.7315C114.931 28.4333 114.613 28.0656 114.345 27.8767C113.838 27.5289 113.282 27.6581 112.815 28.0358C112.517 28.2743 112.338 28.5625 112.358 29.0098C112.398 30.3913 112.378 31.7728 112.378 33.2139H112.368Z" fill="#666666"/>
<path d="M122.44 33.0351C122.44 33.8501 122.41 34.5657 122.44 35.2813C122.46 35.6987 122.261 35.7782 121.933 35.7683C121.615 35.7583 121.298 35.7981 121.308 35.2813C121.327 32.6375 121.317 30.0037 121.327 27.36C121.327 27.2209 121.387 26.9823 121.447 26.9724C121.695 26.9326 122.062 26.8531 122.192 26.9724C122.539 27.3004 122.787 27.1712 123.145 27.0221C124.327 26.5152 126.165 27.0817 126.661 28.5924C127.078 29.8845 126.969 31.0175 126.333 32.1207C125.658 33.3134 124.546 33.4525 122.956 33.1742C122.778 33.1444 122.609 33.0748 122.42 33.0251L122.44 33.0351ZM125.737 30.0534C125.718 28.5228 125.181 27.847 123.86 27.688C122.996 27.5787 122.41 28.1352 122.43 28.99C122.45 29.7254 122.44 30.4709 122.43 31.2063C122.41 32.1803 122.996 32.6574 123.979 32.4487C125.191 32.1903 125.757 31.425 125.737 30.0534Z" fill="#666666"/>
<path d="M44.5976 33.3825C44.2301 33.293 43.6937 33.2334 43.217 33.0346C42.6707 32.816 42.9885 32.4085 43.1375 32.0805C43.3163 31.6829 43.515 31.9115 43.7633 32.0507C44.4486 32.4383 45.1737 32.4979 45.8889 32.1401C46.5842 31.7923 46.8225 30.6592 46.2365 30.1424C45.6902 29.6653 45.0347 29.2976 44.3692 28.9994C42.5614 28.1845 42.4323 25.9681 43.6044 25.0239C44.0315 24.676 44.687 24.5071 45.2532 24.4475C45.7597 24.3878 46.2961 24.5866 46.8126 24.6959C46.9616 24.7257 47.2099 24.8748 47.2 24.9245C47.1503 25.1929 47.0609 25.4712 46.9119 25.6997C46.8623 25.7693 46.5842 25.7097 46.4153 25.6699C46.0875 25.5904 45.7796 25.4314 45.4518 25.4016C44.8062 25.3419 44.1308 25.7793 44.0017 26.2762C43.8328 26.9123 44.1109 27.5484 44.7367 27.8962C45.3922 28.264 46.0776 28.6019 46.7232 28.9895C47.5377 29.4864 47.8853 30.53 47.637 31.6034C47.4582 32.3886 46.6139 33.1439 45.7895 33.2533C45.4518 33.303 45.1141 33.3328 44.6076 33.3924L44.5976 33.3825Z" fill="#666666"/>
<path d="M106.041 24.7958C106.011 25.0244 105.991 25.1933 105.962 25.3524C105.872 25.7599 105.664 25.8791 105.256 25.6704C104.958 25.5213 104.621 25.412 104.293 25.3921C103.548 25.3325 103.012 25.6903 102.823 26.3065C102.654 26.873 102.932 27.5389 103.548 27.8868C104.203 28.2644 104.889 28.5825 105.534 28.98C106.26 29.4273 106.677 30.5802 106.478 31.4349C106.25 32.3891 105.445 33.204 104.531 33.2438C103.747 33.2736 102.952 33.1842 102.167 33.0947C102.018 33.0748 101.76 32.8363 101.77 32.717C101.8 32.4288 101.949 32.1505 102.088 31.8921C102.098 31.8722 102.376 31.9617 102.515 32.0412C103.21 32.4189 103.935 32.4984 104.65 32.1803C105.525 31.7927 105.614 30.451 104.799 29.8547C104.283 29.477 103.697 29.1987 103.101 28.9403C101.512 28.2446 101.482 26.5053 102.018 25.4716C102.445 24.6467 103.766 24.2193 104.889 24.4678C105.256 24.5473 105.614 24.6765 106.041 24.8057V24.7958Z" fill="#666666"/>
<path d="M53.4079 31.9214C53.8549 32.7165 53.8449 32.8557 53.0801 33.0843C52.1266 33.3725 51.1432 33.4918 50.2096 33.0048C49.1964 32.478 48.6998 31.6233 48.6402 30.4902C48.5906 29.6156 48.7296 28.8006 49.2262 28.0453C49.8619 27.0713 51.322 26.5843 52.5636 26.962C53.7853 27.3297 54.4707 28.3236 54.421 29.6256C54.4012 30.0529 54.2621 30.212 53.7953 30.1921C52.5835 30.1424 51.3717 30.1523 50.1599 30.1424C49.6732 30.1424 49.6533 30.4107 49.7626 30.7884C50.2791 32.5675 51.8286 32.8457 53.1596 32.0805C53.239 32.0308 53.3185 31.9811 53.4278 31.9214H53.4079ZM49.6732 29.1485C49.7229 29.2081 49.7427 29.2678 49.7626 29.2678C50.885 29.2976 52.0173 29.3274 53.1397 29.3373C53.2092 29.3373 53.3483 29.1187 53.3284 29.0094C53.239 28.1745 52.0074 27.5086 51.183 27.7272C50.3983 27.936 50.0606 28.5323 49.6633 29.1485H49.6732Z" fill="#666666"/>
<path d="M66.7673 33.2044H65.7244C65.6847 32.9857 65.6549 32.7869 65.6052 32.5086C65.4165 32.6378 65.2774 32.7174 65.1483 32.8267C64.4729 33.4031 63.6783 33.3833 62.8936 33.2044C62.1884 33.0354 61.6321 32.2304 61.6023 31.316C61.5626 29.9742 61.5725 28.6226 61.5725 27.2808C61.5725 26.8236 61.9301 26.9131 62.1884 26.8932C62.5161 26.8733 62.7148 26.9628 62.7049 27.3703C62.6751 28.543 62.6651 29.7258 62.685 30.8986C62.685 31.4253 62.7645 31.9521 63.3108 32.2701C64.2643 32.8267 65.6946 32.0912 65.7145 30.988C65.7443 29.7953 65.7145 28.6027 65.6648 27.41C65.6549 27.0622 65.7443 26.9031 66.082 26.9031C66.3899 26.9031 66.7673 26.7938 66.7673 27.3206C66.7673 29.2686 66.7673 31.2166 66.7673 33.2242V33.2044Z" fill="#666666"/>
<path d="M148.821 27.0224C149.586 26.7143 149.904 26.8634 150.152 27.569C150.639 28.9108 151.155 30.2426 151.692 31.6936C151.85 31.4452 152.019 31.2663 152.089 31.0575C152.506 29.8251 152.913 28.5828 153.311 27.3404C153.42 26.9926 153.827 26.7739 154.254 26.8932C154.701 27.0224 154.453 27.3404 154.383 27.5392C154.016 28.6126 153.609 29.6761 153.211 30.7395C152.794 31.8725 152.387 33.0155 151.97 34.1485C151.592 35.1623 150.758 35.5598 149.784 35.7288C149.685 35.7487 149.467 35.53 149.417 35.3909C149.357 35.212 149.397 34.9834 149.397 34.8045C149.765 34.725 150.112 34.6952 150.42 34.566C151.115 34.2579 151.364 33.6913 151.115 32.9857C150.768 31.9819 150.39 30.9979 150.003 30.014C149.616 29.03 149.218 28.066 148.801 27.0522L148.821 27.0224Z" fill="#666666"/>
<path d="M81.2392 34.7442C81.4378 34.7343 81.5968 34.7243 81.7656 34.7044C82.6 34.6349 83.0966 34.0584 82.9277 33.2236C82.7986 32.5775 82.5801 31.9514 82.3517 31.3352C81.9345 30.222 81.4776 29.1288 81.0405 28.0255C80.9809 27.8665 80.9114 27.7075 80.8518 27.5485C80.7724 27.3398 80.385 27.141 80.7624 26.8925C81.0604 26.7037 81.6961 26.9223 81.8153 27.2304C82.302 28.5026 82.7688 29.7748 83.2555 31.0469C83.335 31.2457 83.4641 31.4246 83.5734 31.6035C83.633 31.6035 83.6926 31.6035 83.7522 31.5936C83.8117 31.3352 83.8415 31.0668 83.921 30.8184C84.3282 29.6456 84.7355 28.4629 85.1725 27.3C85.242 27.1211 85.4506 26.9422 85.6394 26.8925C85.8281 26.8329 86.0665 26.9323 86.275 26.9621C86.2353 27.1509 86.2254 27.3596 86.1559 27.5385C85.6394 29.0393 85.1229 30.5401 84.5865 32.0309C84.3183 32.7962 84.0402 33.5615 83.7124 34.297C83.335 35.1517 82.5503 35.5095 81.6961 35.7083C81.3981 35.7778 81.2193 35.6288 81.2193 35.3107C81.2193 35.1219 81.2392 34.943 81.2491 34.7243L81.2392 34.7442Z" fill="#666666"/>
<path d="M77.9614 25.2433C77.9614 25.621 77.9912 25.9888 77.9614 26.3565C77.9217 26.764 78.1005 26.923 78.4779 26.923C78.7461 26.923 79.0242 26.8534 79.2725 26.9131C79.4513 26.9628 79.6897 27.1516 79.7294 27.3106C79.799 27.5889 79.64 27.7976 79.2825 27.8076C78.0011 27.8473 77.9912 27.8573 78.0111 29.1394C78.021 29.9742 78.0309 30.8091 78.1104 31.634C78.17 32.28 78.8951 32.6279 79.501 32.3894C79.65 32.3297 79.938 32.3099 79.9976 32.3894C80.1267 32.5583 80.1863 32.8068 80.1764 33.0155C80.1764 33.095 79.8983 33.1944 79.7294 33.2242C79.491 33.264 79.2328 33.2342 78.9944 33.2739C77.5939 33.4628 76.988 32.5186 76.8986 31.2563C76.839 30.3121 76.8887 29.358 76.8986 28.4138C76.8986 28.0461 76.849 27.7976 76.4119 27.7181C76.2927 27.6982 76.1437 27.4299 76.1338 27.2709C76.1338 27.1615 76.3225 26.9628 76.4616 26.9329C76.7993 26.8534 76.9384 26.7143 76.8986 26.3465C76.8092 25.5614 77.0377 25.3328 77.9614 25.2334V25.2433Z" fill="#666666"/>
<path d="M59.8939 31.8623C60.5991 32.7568 60.5097 33.0351 59.4072 33.1941C58.5729 33.3134 57.7087 33.4525 56.8942 33.055C55.5931 32.4189 54.9474 30.8684 55.305 29.2186C55.603 27.8371 56.7353 26.9227 58.1954 26.8631C58.9702 26.8332 59.6853 26.9823 60.3508 27.3898C60.1191 27.8934 59.7714 28.059 59.3079 27.8868C57.7584 27.3103 56.4473 28.175 56.4076 29.8248C56.4076 30.2721 56.4075 30.7491 56.5267 31.1666C56.8744 32.3791 58.6027 33.0351 59.8939 31.8722V31.8623Z" fill="#666666"/>
<path d="M139.534 31.9215C140.11 32.6868 140.07 32.9353 139.226 33.1241C137.587 33.4819 136.286 33.4422 135.402 32.1899C134.707 31.2059 134.568 30.0828 135.005 28.9597C135.779 26.9819 137.617 26.2961 139.574 27.2006C139.693 27.2503 139.822 27.5782 139.792 27.5981C139.603 27.7671 139.385 27.9857 139.157 28.0056C138.918 28.0255 138.67 27.8168 138.412 27.7571C137.587 27.5584 136.922 27.8068 136.415 28.4727C135.789 29.2877 135.69 30.7587 136.266 31.6035C136.783 32.3588 137.875 32.8359 139.097 32.17C139.246 32.0905 139.385 32.001 139.524 31.9215H139.534Z" fill="#666666"/>
<path d="M146.129 25.1133C146.129 25.5804 146.159 25.968 146.129 26.3457C146.089 26.7631 146.229 26.9619 146.666 26.9221C146.934 26.9023 147.202 26.9221 147.46 26.8824C147.808 26.8327 147.957 26.9718 147.957 27.3197C147.957 27.6576 147.848 27.8365 147.45 27.8067C146.149 27.7272 146.149 27.7471 146.149 29.0391C146.149 29.7448 146.129 30.4405 146.149 31.1462C146.189 32.2096 146.844 32.637 147.867 32.3388C147.987 32.2991 148.265 32.4581 148.295 32.5674C148.354 32.796 148.573 33.1936 148.106 33.2333C147.54 33.2929 146.964 33.3128 146.407 33.2432C145.692 33.1637 145.136 32.3786 145.126 31.5139C145.106 30.5299 145.126 29.5361 145.126 28.5521C145.126 28.1744 145.196 27.767 144.6 27.7371C144.51 27.7371 144.391 27.4191 144.381 27.2402C144.381 27.1408 144.57 26.952 144.689 26.942C144.987 26.9023 145.205 26.7929 145.126 26.4848C144.927 25.7096 145.364 25.3916 146.139 25.1133H146.129Z" fill="#666666"/>
<path d="M93.9629 30.9276C93.8338 31.0966 93.7643 31.2656 93.6351 31.355C93.2279 31.6432 92.8306 32.0209 92.3737 32.1402C91.8175 32.2793 91.2016 32.2097 90.6156 32.1799C90.4964 32.1799 90.3772 31.9613 90.258 31.852C90.3772 31.7426 90.4964 31.5438 90.6255 31.5339C91.0626 31.5041 91.4996 31.514 91.9367 31.5637C92.7313 31.6432 93.2378 31.0568 93.4464 30.5102C93.6351 30.0133 93.2676 29.6157 92.9001 29.3772C92.5922 29.1685 92.175 29.089 91.7976 29.0393C91.4102 28.9896 91.003 29.0591 90.6057 29.0293C90.4865 29.0293 90.3872 28.8405 90.268 28.7312C90.3673 28.6218 90.4666 28.4231 90.5759 28.4231C91.1619 28.4032 91.7579 28.3833 92.334 28.4628C92.8902 28.5324 93.357 28.8305 93.6749 29.3374C93.8735 29.6555 94.0325 29.725 94.2708 29.3275C94.5986 28.7809 95.1449 28.4926 95.7806 28.4429C96.2574 28.4032 96.7341 28.3932 97.201 28.4231C97.3599 28.433 97.4989 28.6218 97.6479 28.7312C97.5089 28.8405 97.3798 29.0293 97.2308 29.0393C96.8136 29.079 96.3964 29.0492 95.9792 29.0393C95.1648 29.0094 94.7178 29.566 94.4893 30.1425C94.2808 30.6593 94.9959 31.514 95.6614 31.5538C96.1481 31.5836 96.6547 31.524 97.1414 31.5637C97.3202 31.5836 97.489 31.7824 97.6579 31.9016C97.489 32.011 97.34 32.1899 97.1612 32.2098C96.7441 32.2495 96.3269 32.2296 95.9097 32.2098C95.1052 32.1799 94.9959 32.1104 93.9232 30.9475L93.9629 30.9276Z" fill="#666666"/>
<path d="M128.25 28.1054C128.25 27.0221 128.28 25.9387 128.241 24.8554C128.221 24.428 128.37 24.3088 128.737 24.2988C129.095 24.2988 129.383 24.3187 129.373 24.7958C129.373 25.9884 129.373 27.191 129.373 28.3837C129.373 29.3676 129.383 30.3615 129.373 31.3455C129.373 31.7927 129.482 32.1207 129.959 32.2499C130.386 32.3592 130.475 32.717 130.356 33.0549C130.316 33.1742 129.929 33.2537 129.711 33.2239C128.737 33.0947 128.28 32.5679 128.26 31.5144C128.231 30.3715 128.26 29.2384 128.26 28.0955H128.241L128.25 28.1054Z" fill="#666666"/>
<path d="M69.4789 27.6383C69.6279 27.5687 69.8365 27.529 69.9458 27.3998C70.3927 26.873 70.9788 26.8134 71.6045 26.8333C71.7535 26.8333 72.0316 26.9525 72.0316 26.9625C71.982 27.2308 71.9124 27.5091 71.7932 27.7576C71.7535 27.8272 71.5251 27.8669 71.4059 27.8371C70.5616 27.5886 69.767 27.9663 69.6478 28.8509C69.4988 29.8944 69.5385 30.9678 69.4988 32.0213C69.4988 32.1903 69.4988 32.3593 69.4988 32.5382C69.5187 33.2637 69.4789 33.2836 68.7439 33.2339C68.3963 33.214 68.3267 33.0848 68.3267 32.7369C68.3665 30.9877 68.3565 29.2484 68.3764 27.4992C68.3764 27.3203 68.4161 27.0022 68.5055 26.9724C68.7638 26.8929 69.0717 26.883 69.3299 26.9525C69.4193 26.9824 69.4193 27.3302 69.4789 27.6284V27.6383Z" fill="#666666"/>
<path d="M142.921 30.1423C142.921 31.0368 142.911 31.9214 142.921 32.8159C142.931 33.4122 142.514 33.2234 142.206 33.2333C141.888 33.2532 141.709 33.1936 141.729 32.7563C141.789 31.2853 141.779 29.8044 141.799 28.3335C141.799 28.0055 141.65 27.8266 141.312 27.8664C140.855 27.916 140.835 27.6477 140.825 27.3098C140.825 26.9122 141.064 26.9023 141.352 26.9122C141.669 26.9122 141.997 26.9122 142.315 26.8923C142.742 26.8725 142.931 27.0216 142.911 27.4887C142.881 28.3732 142.911 29.2677 142.911 30.1622L142.921 30.1423Z" fill="#666666"/>
<path d="M109.508 33.2335C109.219 33.2335 109.031 33.2236 108.842 33.2335C108.425 33.2634 108.365 33.0845 108.375 32.6869C108.425 31.2259 108.415 29.7649 108.425 28.3039C108.425 27.956 108.226 27.8268 107.908 27.8467C107.511 27.8765 107.442 27.6578 107.442 27.3199C107.442 26.9323 107.65 26.8826 107.948 26.8926C108.196 26.9025 108.445 26.9025 108.683 26.8926C109.468 26.8627 109.488 26.8627 109.498 27.6877C109.508 29.5065 109.498 31.3253 109.498 33.2236L109.508 33.2335Z" fill="#666666"/>
<path d="M73.5612 33.2437C73.5612 31.6436 73.5612 30.1527 73.5612 28.652C73.5612 28.1948 73.6407 27.7475 72.9355 27.8072C72.856 27.8072 72.6772 27.5587 72.6872 27.4196C72.6872 27.2506 72.8163 26.9524 72.9256 26.9425C73.4123 26.8729 73.9089 26.863 74.3956 26.8928C74.4949 26.8928 74.6737 27.1512 74.6737 27.2904C74.6936 29.1489 74.6936 31.0075 74.6737 32.866C74.6737 32.9952 74.4651 33.1841 74.3261 33.2238C74.0976 33.2835 73.8493 33.2437 73.5712 33.2437H73.5612Z" fill="#666666"/>
<path d="M132.323 33.2139C132.323 31.6038 132.323 30.0633 132.323 28.5327C132.323 28.1053 132.273 27.7773 131.707 27.8171C131.608 27.8171 131.389 27.5288 131.389 27.3698C131.389 27.2108 131.578 26.9524 131.717 26.9325C132.144 26.853 132.581 26.8431 133.018 26.8729C133.137 26.8729 133.336 27.1412 133.336 27.2804C133.356 29.1389 133.346 30.9975 133.356 32.8561C133.356 33.1542 133.257 33.2735 132.949 33.2437C132.75 33.2238 132.541 33.2238 132.313 33.2039L132.323 33.2139Z" fill="#666666"/>
<path d="M143.04 25.2526C143.04 25.6402 142.782 25.829 142.365 25.8489C142.007 25.8688 141.56 25.4513 141.679 25.1233C141.779 24.8649 142.097 24.5568 142.355 24.527C142.702 24.4873 143.05 24.7059 143.03 25.2526H143.04Z" fill="#666666"/>
<path d="M74.1671 25.859C73.7599 25.8292 73.5314 25.6404 73.5116 25.1832C73.4818 24.6862 73.7996 24.557 74.1671 24.4974C74.5048 24.4477 74.9121 24.8453 74.8724 25.1633C74.8227 25.5609 74.634 25.8391 74.1771 25.859H74.1671Z" fill="#666666"/>
<path d="M132.869 25.8496C132.402 25.8496 132.233 25.5614 132.224 25.1539C132.214 24.7265 132.492 24.5476 132.869 24.4979C133.197 24.4582 133.594 24.8458 133.574 25.1738C133.564 25.5515 133.247 25.8496 132.869 25.8496Z" fill="#666666"/>
<path d="M109.627 24.9842C109.567 25.5706 109.418 25.8588 108.951 25.8588C108.475 25.8588 108.306 25.5308 108.296 25.1631C108.286 24.7755 108.564 24.4873 108.941 24.5469C109.21 24.5966 109.448 24.8649 109.617 24.9842H109.627Z" fill="#666666"/>
<path d="M154.065 45.3588H147.828V46.3825C148.066 46.4023 148.324 46.4421 148.583 46.4421C149.844 46.4421 151.105 46.4421 152.367 46.4421C153.003 46.4421 153.062 46.4918 153.072 47.0981C153.072 48.5392 153.072 49.9704 153.072 51.4115C153.072 51.988 153.003 52.0575 152.436 52.0675C151.552 52.0774 150.659 52.0675 149.665 52.0675C149.665 52.4551 149.665 52.793 149.665 53.1309C149.665 53.7273 149.645 54.3236 149.665 54.9199C149.675 55.387 149.874 55.6156 150.341 55.6455C150.887 55.6852 151.433 55.6852 151.97 55.6455C152.556 55.6057 152.675 55.4566 152.754 54.8603C152.814 54.423 152.824 53.9757 152.864 53.4589C153.42 53.5583 153.936 53.6478 154.512 53.7571C154.532 54.7609 154.423 55.6952 154.085 56.5598C153.897 57.0468 153.41 57.3251 152.824 57.3152C151.632 57.3052 150.45 57.3152 149.258 57.3052C148.424 57.3052 147.967 56.8679 147.947 56.0331C147.927 55.0193 147.947 54.0055 147.937 52.9818C147.937 52.7135 147.937 52.4452 147.937 52.1271H145.662C145.335 55.4169 143.328 57.1164 140.08 57.6432C139.832 57.1164 139.564 56.5698 139.276 55.9536C141.63 55.6554 143.447 54.751 143.914 52.0774C143.169 52.0774 142.494 52.0774 141.809 52.0774C140.706 52.0874 140.636 52.1569 140.656 50.9444C140.676 49.7319 140.656 48.5193 140.656 47.2968C140.656 46.4719 140.676 46.452 141.471 46.452C142.832 46.452 144.192 46.452 145.553 46.4421C145.672 46.4421 145.792 46.4322 145.97 46.4222V45.3588H139.713V43.7288H145.99C146.02 43.3014 146.04 42.9436 146.07 42.5361H147.718C147.738 42.9138 147.758 43.2517 147.788 43.6592C148.473 43.8182 149.159 43.7288 149.844 43.7487C150.539 43.7586 151.235 43.7487 151.92 43.7487C152.605 43.7487 153.301 43.7487 154.046 43.7487V45.3488L154.065 45.3588ZM142.454 48.1218C142.454 48.6585 142.454 49.1653 142.454 49.6722C142.444 50.4176 142.444 50.4375 143.159 50.4375C145.652 50.4375 148.146 50.4375 150.649 50.4375C150.857 50.4375 151.076 50.3978 151.344 50.3779C151.344 49.5927 151.433 48.8672 151.294 48.1218H142.464H142.454Z" fill="#666666"/>
<path d="M107.481 46.2036V44.4444H112.974V42.6455H114.742V44.3848C116.59 44.4941 118.367 44.3848 120.185 44.4643V46.1937H114.812V48.6187H120.95V50.3879C119.033 50.4674 117.116 50.3879 115.11 50.4276C115.358 51.2227 115.656 51.8986 116.143 52.5048C117.275 53.9062 118.775 54.8206 120.364 55.5859C120.721 55.7548 121.079 55.9139 121.526 56.1126C121.208 56.7189 120.672 57.0767 120.205 57.6134C117.692 56.2816 115.278 54.8802 113.848 52.157C112.388 54.9995 109.875 56.3512 107.124 57.4842C106.786 56.9177 106.468 56.3909 106.14 55.8343C106.955 55.4964 107.74 55.2082 108.494 54.8603C109.915 54.2044 111.127 53.2801 112.011 51.9681C112.309 51.5209 112.626 51.0736 112.696 50.4177H106.786V48.6784H112.974C113.004 47.8535 112.994 47.0782 112.974 46.2136H107.481V46.2036Z" fill="#666666"/>
<path d="M100.419 44.9612C100.767 44.0567 101.095 43.1821 101.452 42.2578C101.929 42.4268 102.386 42.5759 102.873 42.7448C102.892 43.5101 102.455 44.1263 102.296 44.8618C103.041 45.1003 103.816 44.8419 104.591 45.0208C104.69 45.5376 104.571 46.0346 104.432 46.611H101.909V48.3801H104.253V49.9902H101.929V51.819H104.263V53.4291H101.919V55.3572C102.803 55.4467 103.687 55.3572 104.631 55.4168V56.9872C104.382 57.007 104.164 57.0269 103.955 57.0269C101.78 57.0269 99.5947 57.0269 97.4195 57.0269C96.5752 57.0269 96.5057 56.9474 96.5057 56.0827C96.5057 53.7073 96.5057 51.322 96.5057 48.9467C96.5057 48.6783 96.5057 48.4 96.5057 48.1814C96.019 47.7639 95.572 47.3863 95.0654 46.9589C96.1779 45.5774 96.9328 44.017 97.3996 42.2677C97.9757 42.4665 98.4823 42.6454 99.0584 42.8541C98.8101 43.53 98.5717 44.176 98.3134 44.8518C98.5816 45.0904 98.9392 44.9413 99.267 44.9612C99.6146 44.991 99.9523 44.9612 100.429 44.9612H100.419ZM100.201 53.4986H98.1048C98.1048 54.0155 98.1048 54.4826 98.1048 54.9398C98.1048 55.2379 98.2638 55.397 98.5617 55.397C99.0981 55.397 99.6345 55.397 100.201 55.397V53.4986ZM98.1446 50.0399V51.809H100.181V50.0399H98.1446ZM100.22 46.621C99.4954 46.6309 98.8399 46.5315 98.1446 46.7104V48.3702H100.22V46.6309V46.621Z" fill="#666666"/>
<path d="M137.299 45.677C134.25 45.6969 131.22 45.677 128.131 45.677C128.111 46.1242 128.092 46.5615 128.062 47.0684H126.661C126.572 47.8834 126.631 48.6388 126.602 49.5333C127.009 49.3245 127.307 49.1755 127.654 48.9966C127.913 49.4637 128.171 49.9209 128.469 50.4476C128.082 50.6762 127.774 50.9346 127.406 51.0539C126.711 51.2825 126.562 51.7297 126.592 52.4056C126.641 53.5883 126.612 54.781 126.612 55.9736C126.612 56.8184 126.373 57.1365 125.569 57.3551C124.804 57.5539 124.049 57.4943 123.234 57.216C123.175 56.6991 123.105 56.1625 123.026 55.5264C123.463 55.586 123.811 55.6556 124.168 55.6854C124.585 55.7251 124.923 55.5363 124.933 55.1785C124.963 54.2244 124.943 53.2603 124.943 52.2267C124.297 52.4354 123.751 52.6044 123.175 52.7932C122.986 52.2267 122.827 51.7397 122.658 51.2228C123.443 50.9147 124.188 50.6166 124.913 50.3383V47.138H123.095V45.4683H124.873C125.042 44.5241 124.844 43.5998 125.012 42.6655H126.552C126.701 43.5501 126.552 44.4545 126.631 45.3987H128.131C128.151 44.9514 128.171 44.5141 128.191 43.9675C129.403 43.888 130.624 43.9675 131.856 43.9178C131.886 43.4109 131.906 42.9736 131.926 42.5264H133.515C133.535 42.9736 133.554 43.3811 133.574 43.878C134.16 44.0073 134.776 43.9178 135.372 43.9377C135.988 43.9576 136.604 43.9377 137.279 43.9377V45.677H137.299Z" fill="#666666"/>
<path d="M91.8572 47.7241C91.0725 47.0682 90.3574 46.4619 89.6025 45.8258C89.8309 45.4382 90.0693 45.0406 90.3176 44.6232C90.4865 44.653 90.6454 44.6729 90.8639 44.7027C91.2414 43.8679 91.6188 43.0429 92.0261 42.1484C92.483 42.387 92.9101 42.6056 93.4266 42.864C92.9399 43.838 92.483 44.7624 92.0559 45.637C92.2744 45.8357 92.483 46.0246 92.7611 46.283C93.0988 45.4879 93.4564 44.653 93.8437 43.7386C94.2708 43.8579 94.7277 43.9971 95.2442 44.1461C95.0853 45.1201 94.6582 45.9252 94.1814 46.7004C93.7146 47.4458 93.1981 48.1614 92.6121 49.0162C93.1087 48.9764 93.4862 48.9466 93.9331 48.9068C93.804 48.5789 93.7146 48.3403 93.5954 48.0322C94.0722 47.8434 94.5092 47.6645 95.0456 47.4558C95.4826 48.5093 95.8899 49.5131 96.3368 50.6064C95.8402 50.7753 95.3932 50.9344 94.9264 51.1033C94.7774 50.8747 94.6681 50.6859 94.549 50.4971H93.6749V57.2455H92.0559V50.7157C91.3109 50.7753 90.6156 50.825 89.8905 50.8847C89.7912 50.3579 89.7117 49.9107 89.6224 49.4237C89.9799 49.3342 90.3077 49.2646 90.6355 49.1752C90.6951 49.1553 90.7547 49.0857 90.8043 49.0261C91.1321 48.6286 91.4599 48.2211 91.8671 47.7142L91.8572 47.7241Z" fill="#666666"/>
<path d="M134.876 46.5812C135.432 46.7005 135.909 46.7999 136.455 46.9092C136.167 49.712 135.67 52.4551 135.124 55.2578C135.938 55.4367 136.733 55.2976 137.537 55.3473C137.706 55.8641 137.607 56.371 137.607 56.8779C137.1 57.0468 128.787 57.0965 127.714 56.9375V55.3274C128.439 55.3274 129.174 55.3274 129.909 55.3274C130.873 55.3274 131.846 55.3274 132.81 55.3473C133.217 55.3473 133.425 55.238 133.515 54.7907C133.992 52.5644 134.458 50.3381 134.667 48.0621C134.707 47.595 134.796 47.1378 134.885 46.5713L134.876 46.5812Z" fill="#666666"/>
<path d="M131.419 54.5123H129.84C129.482 52.0475 129.115 49.6025 128.747 47.078C129.194 47.0184 129.72 46.9389 130.307 46.8594C130.793 49.4037 131.22 51.8984 131.419 54.5123Z" fill="#666666"/>
<path d="M90.9436 56.51C90.4469 56.3708 90.0496 56.2714 89.6523 56.1621C89.8907 54.6017 90.1291 53.101 90.3774 51.5107C90.7747 51.5704 91.1919 51.6399 91.6686 51.7195C91.5495 53.3395 91.321 54.88 90.9535 56.5199L90.9436 56.51Z" fill="#666666"/>
<path d="M94.5688 55.6557C94.3801 54.304 94.2013 53.0418 94.0126 51.7299C94.4695 51.6106 94.8569 51.5013 95.3336 51.3721C95.6813 52.7138 95.7607 54.0456 96.0289 55.447C95.5323 55.5166 95.1052 55.5861 94.5688 55.6656V55.6557Z" fill="#666666"/>
</svg>
