<svg width="157" height="60" viewBox="0 0 157 60" fill="none" xmlns="http://www.w3.org/2000/svg">
<path d="M128.565 37.8324C128.635 37.7828 128.714 37.6834 128.784 37.6834C129.251 37.6734 129.727 37.6635 130.194 37.6834C130.264 37.6834 130.393 37.8623 130.393 37.9517C130.393 39.7705 130.423 41.5893 130.333 43.3982C130.293 44.3225 129.946 45.1872 128.982 45.6046C128.774 45.6941 128.545 45.7636 128.327 45.7736C126.787 45.7835 125.248 45.7736 123.708 45.7736C123.658 45.7736 123.619 45.7636 123.519 45.7438V45.3561C123.519 43.8156 123.559 42.2751 123.509 40.7346C123.48 39.8302 123.678 39.0152 124.016 38.2002C124.691 36.5702 125.317 34.9104 125.963 33.2705C125.973 33.2407 125.963 33.201 125.963 33.1413H123.519C123.519 32.9922 123.519 32.863 123.519 32.7438C123.519 31.2529 123.539 29.7621 123.519 28.2614C123.519 27.675 123.609 27.1283 123.797 26.5817C124.324 25.0213 124.821 23.4609 125.357 21.8309C124.87 21.8309 124.413 21.8309 123.966 21.8309C123.718 21.8309 123.46 21.8607 123.211 21.8309C122.874 21.7812 122.725 21.9402 122.615 22.2285C121.861 24.1964 121.106 26.1643 120.351 28.1421C120.301 28.2613 120.261 28.3906 120.212 28.5396C120.977 28.5396 121.712 28.5496 122.447 28.5396C122.725 28.5396 122.824 28.6092 122.824 28.9074C122.804 29.9907 122.834 31.074 122.804 32.1574C122.804 32.4854 122.665 32.8034 122.566 33.1214C121.811 35.4173 121.036 37.7132 120.271 40.0091C120.132 40.4364 119.973 40.8539 119.815 41.321C120.182 41.321 120.5 41.3607 120.808 41.321C121.185 41.2614 121.215 40.9135 121.215 40.6153C121.225 39.7805 121.235 38.9555 121.215 38.1207C121.205 37.7728 121.314 37.6536 121.662 37.6834C122.01 37.7132 122.357 37.6933 122.705 37.6834C122.923 37.6834 123.033 37.7529 123.033 37.9915C123.003 39.8401 123.033 41.6987 122.933 43.5473C122.874 44.5312 122.427 45.4754 121.215 45.7537C121.126 45.7736 121.026 45.7935 120.927 45.7935C119.338 45.7935 117.748 45.7935 116.159 45.7935C116.11 45.7935 116.07 45.7835 115.971 45.7736C115.971 45.6444 115.951 45.5251 115.951 45.3959C115.951 43.7659 115.98 42.1459 115.941 40.5159C115.921 39.7606 116.09 39.0847 116.378 38.399C117.053 36.7789 117.689 35.139 118.335 33.5091C118.384 33.3799 118.424 33.2407 118.484 33.0618C117.848 33.0618 117.242 33.0419 116.636 33.0618C116.328 33.0717 116.209 32.9922 116.219 32.6643C116.229 30.9647 116.199 29.2652 116.249 27.5756C116.249 27.178 116.467 26.7805 116.626 26.4028C117.212 24.9517 117.818 23.5106 118.404 22.0695C118.424 22.0198 118.434 21.9601 118.464 21.8508C117.858 21.8508 117.282 21.8508 116.716 21.8508C116.404 21.8508 116.249 21.6885 116.249 21.3638C116.249 20.1711 116.269 18.9785 116.249 17.7858C116.249 17.4081 116.368 17.2988 116.725 17.3286C117.123 17.3584 117.52 17.3286 117.967 17.3286C117.679 16.295 117.391 15.2812 117.093 14.2178C117.629 14.2178 118.086 14.2178 118.543 14.2178C119.397 14.2178 120.252 14.2178 121.106 14.2178C121.374 14.2178 121.493 14.2774 121.573 14.5656C121.801 15.48 122.089 16.3745 122.367 17.3286C122.904 17.3286 123.46 17.3286 124.006 17.3286C124.076 17.3286 124.185 17.2193 124.215 17.1299C124.523 16.2552 124.811 15.3707 125.119 14.4961C125.158 14.3867 125.297 14.2376 125.387 14.2376C126.747 14.2178 128.098 14.2277 129.568 14.2277C129.211 15.2812 128.873 16.295 128.525 17.3386C129.072 17.3386 129.598 17.3485 130.115 17.3386C130.393 17.3386 130.462 17.438 130.462 17.6964C130.462 18.9685 130.462 20.2506 130.462 21.5228C130.462 21.7117 130.442 21.9005 130.204 21.8409C129.697 21.7315 129.618 22.0695 129.509 22.4173C128.992 24.0771 128.486 25.7468 127.969 27.4066C127.84 27.824 127.691 28.2315 127.542 28.6887C128.367 28.6887 129.151 28.6987 129.936 28.6887C130.274 28.6887 130.403 28.7583 130.393 29.126C130.373 30.1398 130.433 31.1536 130.363 32.1574C130.323 32.7139 130.105 33.2705 129.936 33.8172C129.529 35.0893 129.092 36.3416 128.674 37.6039C128.645 37.6834 128.655 37.7728 128.645 37.8523C128.625 37.8722 128.585 37.8921 128.575 37.9219C128.337 38.6474 128.088 39.363 127.86 40.0886C127.731 40.4861 127.612 40.8936 127.483 41.3309C127.691 41.3309 127.85 41.3309 128.009 41.3309C128.476 41.3309 128.645 41.2315 128.655 40.7644C128.684 39.7904 128.655 38.8164 128.655 37.8424L128.565 37.8324Z" fill="#666666"/>
<path d="M107.677 30.4972C107.309 30.517 107.279 30.2387 107.25 30.0002C107.081 28.7777 106.932 27.5553 106.773 26.3228C106.763 26.2334 106.773 26.134 106.773 26.0048C107.617 25.975 107.627 25.2892 107.766 24.7326C108.064 23.54 108.322 22.3374 108.601 21.1348C108.759 20.4589 108.908 19.793 109.067 19.0973C108.491 19.0973 107.935 19.0973 107.389 19.0973C107.2 19.0973 107.101 19.0476 107.101 18.829C107.101 17.4773 107.101 16.1355 107.101 14.7838C107.101 14.754 107.121 14.7143 107.13 14.6546C107.23 14.6546 107.329 14.6348 107.438 14.6348C109.991 14.6348 112.544 14.6348 115.087 14.6348C115.375 14.6348 115.484 14.7043 115.474 15.0124C115.454 16.2548 115.454 17.4971 115.474 18.7296C115.474 19.0178 115.385 19.1072 115.106 19.1072C114.481 19.0874 113.855 19.1072 113.229 19.1072C113.021 19.1072 112.941 19.1669 112.901 19.3756C112.663 20.5086 112.395 21.6317 112.146 22.7647C112.127 22.8641 112.077 22.9635 112.027 23.1225C112.325 23.1225 112.603 23.1225 112.891 23.1225C113.537 23.1225 114.193 23.1424 114.838 23.1225C115.206 23.1027 115.275 23.2418 115.275 23.5797C115.275 28.8871 115.275 34.1944 115.275 39.5017C115.275 40.6248 115.315 41.738 115.255 42.8611C115.226 43.4574 115.096 44.0736 114.878 44.6302C114.58 45.3657 113.954 45.7831 113.13 45.793C111.441 45.8129 109.763 45.793 108.074 45.803C107.726 45.803 107.657 45.6936 107.657 45.3756C107.657 40.4857 107.657 35.6057 107.657 30.7158C107.657 30.6562 107.657 30.5965 107.657 30.517L107.677 30.4972ZM111.968 27.6348H111.054V41.2808C111.799 41.3901 111.968 41.241 111.968 40.5254C111.968 40.4857 111.968 40.4559 111.968 40.4161C111.968 36.2915 111.968 32.1669 111.968 28.0423V27.6348Z" fill="#666666"/>
<path d="M55.59 40.7344C55.7687 40.7344 55.8979 40.7344 56.027 40.7344C63.5262 40.7344 71.0352 40.7344 78.5344 40.7344C78.882 40.7344 79.0111 40.8039 79.0111 41.1816C78.9913 42.3842 78.9913 43.5868 79.0111 44.7894C79.0111 45.1174 78.9118 45.2168 78.5741 45.2168C71.0551 45.2168 63.546 45.2069 56.027 45.2168C55.6794 45.2168 55.58 45.1174 55.58 44.7695C55.5999 43.4477 55.58 42.1258 55.58 40.7344H55.59Z" fill="#666666"/>
<path d="M78.5642 19.2767H78.147C70.9359 19.2767 63.7347 19.2767 56.5236 19.2767C56.1561 19.2767 56.0568 19.1873 56.0568 18.8195C56.0767 17.607 56.0767 16.3845 56.0568 15.172C56.0568 14.8837 56.1362 14.7744 56.4442 14.7744C63.695 14.7744 70.9558 14.7744 78.2066 14.7744C78.445 14.7744 78.594 14.8042 78.594 15.1024C78.5841 16.4143 78.594 17.7262 78.594 19.0382C78.594 19.0978 78.5741 19.1574 78.5642 19.2668V19.2767Z" fill="#666666"/>
<path d="M77.7994 31.9191C77.6305 31.9191 77.5014 31.9191 77.3623 31.9191C70.6379 31.9191 63.9135 31.9191 57.1891 31.9191C56.8779 31.9191 56.7223 31.7601 56.7223 31.442C56.7223 30.2394 56.7223 29.0368 56.7223 27.8343C56.7223 27.5162 56.8315 27.4268 57.1394 27.4268C63.9036 27.4268 70.6578 27.4268 77.4219 27.4268C77.7398 27.4268 77.8292 27.5162 77.8292 27.8343C77.8093 29.0766 77.8292 30.319 77.8292 31.5514C77.8292 31.6607 77.8292 31.7601 77.8093 31.9191H77.7994Z" fill="#666666"/>
<path d="M91.1091 17.3882C90.6919 16.3347 90.2946 15.3408 89.8775 14.2773C90.3642 14.2773 90.7515 14.2773 91.1489 14.2773C92.1024 14.2773 93.046 14.2773 93.9995 14.2773C94.218 14.2773 94.3571 14.2972 94.4564 14.5656C94.7644 15.4203 95.1318 16.2452 95.4596 17.09C95.549 17.3286 95.6781 17.418 95.9364 17.3981C96.3635 17.3783 96.8005 17.3683 97.2376 17.3981C97.5058 17.418 97.6051 17.3087 97.6945 17.0702C98.0123 16.1955 98.35 15.3309 98.6977 14.4662C98.7275 14.3867 98.8367 14.2873 98.9063 14.2873C100.297 14.2873 101.697 14.2873 103.088 14.2873C103.108 14.2873 103.128 14.3072 103.187 14.337C102.81 15.3309 102.442 16.3247 102.035 17.3882C102.701 17.3882 103.297 17.3981 103.892 17.3882C104.161 17.3882 104.25 17.4776 104.25 17.7361C104.25 18.9983 104.24 20.2605 104.25 21.5327C104.25 21.801 104.161 21.8806 103.892 21.8806C102.353 21.8706 100.813 21.8806 99.2738 21.8806C99.1446 21.8806 99.0155 21.8806 98.8566 21.8806V27.0487C98.9957 27.0487 99.1248 27.0487 99.2539 27.0487C100.674 27.0487 102.095 27.0487 103.515 27.0487C103.843 27.0487 103.982 27.1183 103.972 27.4861C103.952 28.7085 103.952 29.9409 103.972 31.1734C103.972 31.5013 103.873 31.5809 103.565 31.5709C102.134 31.561 100.704 31.5709 99.2738 31.5709C99.1446 31.5709 99.0155 31.5709 98.8665 31.5709V36.759C99.0255 36.759 99.1645 36.759 99.3036 36.759C100.913 36.759 102.532 36.759 104.141 36.759C104.449 36.759 104.568 36.8286 104.558 37.1565C104.538 38.389 104.538 39.6114 104.558 40.8439C104.558 41.152 104.469 41.2315 104.171 41.2315C102.522 41.2215 100.873 41.2315 99.2241 41.2315C99.1049 41.2315 98.9956 41.2315 98.8467 41.2315C98.8467 42.1558 98.8467 43.0304 98.8467 43.905C98.8467 44.402 98.8367 44.889 98.8467 45.3859C98.8566 45.6642 98.7672 45.7636 98.4792 45.7536C97.3468 45.7338 96.2145 45.7338 95.0822 45.7536C94.7941 45.7536 94.7147 45.6642 94.7246 45.3859C94.7345 44.1336 94.7246 42.8813 94.7246 41.629C94.7246 41.5098 94.7246 41.3905 94.7246 41.2215C94.5856 41.2215 94.4664 41.2215 94.3571 41.2215C92.5891 41.2215 90.8211 41.2215 89.0531 41.2215C88.6955 41.2215 88.6061 41.1122 88.616 40.7743C88.6359 39.5717 88.6359 38.3691 88.616 37.1665C88.616 36.8484 88.7153 36.759 89.0332 36.759C90.7813 36.7689 92.5196 36.759 94.2677 36.759C94.4068 36.759 94.5557 36.759 94.7147 36.759V31.5709C94.5855 31.5709 94.4564 31.5709 94.3273 31.5709C92.8871 31.5709 91.4369 31.5709 89.9967 31.5709C89.7086 31.5709 89.5994 31.5113 89.5994 31.2032C89.6192 29.9509 89.6192 28.6986 89.5994 27.4463C89.5994 27.1481 89.6788 27.0487 89.9867 27.0587C91.4071 27.0686 92.8275 27.0587 94.2478 27.0587H94.7048V21.8905C94.5756 21.8905 94.4465 21.8905 94.3273 21.8905C92.7282 21.8905 91.129 21.8905 89.5298 21.8905C89.2219 21.8905 89.1027 21.8209 89.1127 21.4929C89.1325 20.2506 89.1226 19.0182 89.1127 17.7758C89.1127 17.4975 89.1822 17.3882 89.4802 17.3981C90.0066 17.418 90.533 17.3981 91.1389 17.3981L91.1091 17.3882Z" fill="#666666"/>
<path d="M81.6334 45.7242C81.4347 44.2235 81.246 42.7625 81.0474 41.2517C81.2957 41.2517 81.4745 41.2517 81.6632 41.2517C82.1102 41.2517 82.4181 41.0232 82.5075 40.5858C82.7657 39.3137 83.024 38.0316 83.2723 36.7495C83.5007 35.6065 83.7292 34.4536 83.9676 33.3106C83.9874 33.2311 84.1265 33.1118 84.2059 33.1118C85.4376 33.1019 86.6593 33.1118 87.8909 33.1118C87.9505 33.1118 88.0002 33.1417 88.0797 33.1715C87.9207 33.9566 87.7718 34.7319 87.6228 35.4972C87.4539 36.342 87.295 37.1868 87.1162 38.0316C86.9473 38.8764 86.7487 39.7112 86.5798 40.556C86.4507 41.1722 86.3415 41.7984 86.2223 42.4245C86.0733 43.1998 85.9342 43.975 85.4972 44.6608C85.0502 45.3565 84.4245 45.7342 83.5901 45.7342C82.9544 45.7342 82.3187 45.7342 81.6334 45.7342V45.7242Z" fill="#666666"/>
<path d="M88.0002 22.0892C86.8083 22.0892 85.6561 22.1389 84.5238 22.0694C83.7987 22.0296 83.3219 21.483 83.0438 20.8469C82.8054 20.3102 82.6564 19.7238 82.5174 19.1474C82.3088 18.2529 82.1499 17.3484 81.981 16.444C81.8618 15.8377 81.7426 15.2215 81.6532 14.6053C81.6433 14.5357 81.7823 14.3767 81.8618 14.3767C83.0637 14.3668 84.2655 14.3568 85.4674 14.3767C85.5667 14.3767 85.7256 14.5159 85.7455 14.6252C85.9243 15.3607 86.0733 16.0961 86.2223 16.8316C86.3514 17.4577 86.55 17.6267 87.2056 17.6366C87.7353 17.6366 88.0002 17.905 88.0002 18.4417C88.0002 19.525 88.0002 20.6084 88.0002 21.6917V22.0892Z" fill="#666666"/>
<path d="M81.3255 23.6898C82.1697 23.6898 82.9445 23.6898 83.7093 23.6898C84.1861 23.6898 84.6728 23.6898 85.1495 23.6898C85.3581 23.6898 85.4376 23.7494 85.4873 23.9581C85.676 24.6737 85.8846 25.3794 86.1031 26.0851C86.2421 26.5422 86.4408 26.6913 86.9076 26.7013C87.2354 26.7013 87.5532 26.7013 87.881 26.7112C87.9009 26.7112 87.9208 26.7311 87.9704 26.741C87.9704 26.8007 88.0002 26.8702 88.0002 26.9299C88.0002 28.2319 88.0002 29.5239 88.0002 30.8259C88.0002 31.0048 88.0002 31.1638 87.7519 31.1638C86.6494 31.1439 85.5369 31.1638 84.4443 31.1042C83.6 31.0545 83.1034 30.4582 82.8054 29.7326C82.5869 29.186 82.4578 28.5996 82.3088 28.0331C82.1201 27.2976 81.9711 26.5422 81.8022 25.7968C81.6532 25.1111 81.5042 24.4253 81.3453 23.6699L81.3255 23.6898Z" fill="#666666"/>
<path d="M4.02954 34.2839C4.77449 34.5025 5.43997 34.6914 6.10546 34.8802C7.31725 35.2181 8.54889 35.3473 9.73088 34.8106C10.4758 34.4727 11.181 34.0255 11.9061 33.6379C14.4191 32.2663 16.8824 32.3856 19.2861 33.9161C20.1105 34.4429 20.8952 35.079 21.8686 35.3076C22.6135 35.4765 23.3883 35.5759 24.1432 35.566C25.5437 35.5461 26.7654 34.9697 27.8679 34.1348C28.6228 33.5683 29.4075 33.0216 30.3411 32.8825C31.1655 32.7533 32.0198 32.7235 32.8442 32.7732C34.1453 32.8527 35.2975 33.4192 36.3504 34.1447C37.8701 35.1983 39.4991 35.397 41.2472 34.8703C41.8432 34.6914 42.459 34.5522 43.1642 34.3634C43.0748 34.5721 43.0351 34.7013 42.9655 34.8106C41.3664 37.4842 39.2706 39.6807 36.7378 41.4697C34.8804 42.7816 32.874 43.8152 30.7186 44.5507C29.0797 45.1073 27.411 45.4949 25.6827 45.644C24.0339 45.7931 22.3851 45.8129 20.7561 45.5943C18.2233 45.2564 15.8196 44.4811 13.545 43.3083C10.8135 41.907 8.39991 40.0981 6.34385 37.8122C5.46978 36.8382 4.66523 35.7946 4.1388 34.582C4.109 34.5125 4.08914 34.433 4.02954 34.264V34.2839Z" fill="#666666"/>
<path d="M42.7967 10.9276C42.2603 11.5736 41.5352 11.8122 40.7903 12.0109C39.062 12.4681 37.5026 12.1501 36.0723 11.0668C35.3273 10.5002 34.5426 10.0033 33.609 9.76477C32.6554 9.5163 31.7019 9.52624 30.7484 9.63556C29.4671 9.77471 28.4341 10.5102 27.3812 11.1761C25.941 12.0805 24.3815 12.3588 22.693 12.16C21.4812 12.0109 20.4581 11.4544 19.4947 10.7885C18.0048 9.77471 16.3659 9.42685 14.6078 9.59581C13.6145 9.6952 12.7703 10.1623 11.9856 10.7587C11.2704 11.3053 10.5354 11.832 9.65141 12.0706C7.79401 12.5775 6.11539 12.1898 4.60562 11.0369C4.39704 10.8779 4.48643 10.7189 4.60562 10.54C5.81741 8.71125 7.25763 7.10116 8.92632 5.67991C11.2406 3.72196 13.843 2.27088 16.7334 1.35651C18.2233 0.879447 19.7331 0.521649 21.3024 0.442138C22.3851 0.382505 23.4677 0.283117 24.5405 0.332811C28.9903 0.521649 33.0329 1.91309 36.6782 4.47731C39.1017 6.18679 41.1081 8.30376 42.7172 10.7885C42.747 10.8282 42.7669 10.868 42.8066 10.9376L42.7967 10.9276Z" fill="#666666"/>
<path d="M1.00007 23.3408C1.10933 23.4203 1.18878 23.4601 1.25831 23.5197C2.25158 24.4838 3.46337 25.0602 4.78441 25.3485C5.65848 25.5373 6.56236 25.6168 7.4563 25.7063C8.66808 25.8255 9.73088 25.3882 10.7539 24.7919C11.6181 24.285 12.4922 23.7583 13.4159 23.3905C14.9753 22.7644 16.5149 22.9532 17.9849 23.7583C18.8689 24.2353 19.7231 24.782 20.6369 25.1895C21.9083 25.756 23.2591 25.7957 24.6298 25.6665C26.3879 25.4976 27.8381 24.613 29.3181 23.7781C30.4107 23.1619 31.5628 22.8638 32.8442 23.1619C33.6487 23.3607 34.3341 23.7781 35.0393 24.1856C35.7644 24.6031 36.4895 25.0304 37.2443 25.3684C38.1482 25.7758 39.1415 25.7858 40.1149 25.6963C41.4955 25.5671 42.8364 25.269 44.0979 24.6925C44.5448 24.4937 44.9819 24.2552 45.3792 23.9868C45.6772 23.7881 45.9155 23.4998 46.2135 23.2017C46.2334 23.3408 46.293 23.48 46.2731 23.6191C46.1043 25.1199 45.9553 26.6306 45.7268 28.1214C45.6076 28.8966 44.9521 29.3141 44.3263 29.6818C42.3398 30.8248 40.1943 31.1826 37.9396 30.8546C37.0755 30.7254 36.3107 30.298 35.5955 29.8209C34.8903 29.3538 34.195 28.8569 33.3507 28.6382C31.9701 28.2705 30.6391 28.3699 29.3479 28.9761C28.3645 29.4433 27.4209 29.9998 26.4376 30.457C25.3251 30.9639 24.1332 31.0534 22.9214 31.0235C21.2627 30.9838 19.892 30.2284 18.5213 29.4035C17.4684 28.7774 16.3659 28.3997 15.1144 28.4394C13.8529 28.4693 12.7603 28.9364 11.7273 29.6023C10.7639 30.2185 9.79047 30.8446 8.61841 30.9142C7.80394 30.9639 6.97953 30.954 6.17499 30.8347C4.55597 30.5962 3.12566 29.8706 1.87415 28.8072C1.60597 28.5786 1.4371 28.3301 1.39737 28.0021C1.23845 26.5113 1.08947 25.0106 0.940475 23.5197C0.940475 23.4899 0.960344 23.4502 0.990142 23.3508L1.00007 23.3408Z" fill="#666666"/>
<path d="M39.2309 21.6018C37.6913 21.6515 36.41 21.0254 35.2081 20.1508C33.162 18.6599 31.0265 18.7196 28.8512 19.8625C27.8282 20.3992 26.8548 21.0453 25.7125 21.3534C23.5174 21.9298 21.4514 21.6714 19.4748 20.5185C18.6306 20.0315 17.7664 19.5246 16.8427 19.2463C15.1442 18.7295 13.5351 19.137 12.0353 20.0713C11.2704 20.5483 10.456 20.9757 9.62163 21.3236C8.72769 21.6913 7.75429 21.6217 6.81069 21.5223C5.54924 21.3931 4.33745 21.0453 3.23493 20.4092C2.65883 20.0812 2.11253 19.6737 1.5861 19.2662C1.46691 19.1768 1.35766 18.9482 1.38745 18.819C1.60597 17.845 1.85429 16.871 2.10261 15.8969C2.1622 15.6783 2.29132 15.4795 2.36085 15.2609C2.44031 14.9925 2.56944 15.0025 2.78796 15.1018C4.36725 15.8075 6.00613 16.2249 7.74435 16.3144C9.17465 16.3939 10.3467 15.8274 11.489 15.072C12.2538 14.5651 13.0484 14.0881 13.9523 13.8495C15.462 13.4421 16.8625 13.6806 18.2134 14.4359C19.0874 14.9229 19.9516 15.4497 20.8753 15.8473C22.1864 16.4138 23.5869 16.3939 24.9874 16.2349C26.5767 16.056 27.9176 15.241 29.2684 14.4658C30.2021 13.9291 31.1854 13.5812 32.278 13.6607C33.3805 13.7402 34.2844 14.2968 35.1982 14.8633C35.9034 15.3006 36.6384 15.728 37.4033 16.0361C38.4561 16.4635 39.5785 16.3541 40.681 16.2349C42.0617 16.0858 43.3827 15.7081 44.5945 15.0124C44.8031 14.8931 44.8627 15.0124 44.9223 15.1814C45.2004 16.1355 45.4884 17.0797 45.7765 18.0338C45.8361 18.2326 45.856 18.4413 45.9354 18.6202C46.0745 18.9482 45.9354 19.137 45.697 19.3159C44.1575 20.439 42.4689 21.1745 40.5817 21.4428C40.1447 21.5025 39.6977 21.5422 39.2607 21.6018H39.2309Z" fill="#666666"/>
<path d="M35.7544 53.1083C35.4267 53.2673 35.2876 53.1083 35.1684 52.8399C34.8009 52.015 34.2943 51.2895 33.5295 50.7925C32.1687 49.898 30.6093 50.5043 30.1524 52.0747C29.8246 53.2176 29.7154 54.3904 29.8246 55.5632C29.914 56.5372 30.0729 57.5112 30.6987 58.3361C31.3443 59.1809 32.5263 59.2405 33.2713 58.9623C33.4401 58.9026 33.6288 58.6641 33.6388 58.4852C33.6884 57.8292 33.7182 57.1633 33.6785 56.5074C33.6487 56.0502 33.3805 55.8713 32.864 55.8315C32.7448 55.8315 32.6157 55.8514 32.5065 55.8117C32.427 55.7818 32.3475 55.6626 32.3475 55.5831C32.3475 55.5036 32.427 55.4141 32.4965 55.3346C32.5164 55.3048 32.5859 55.3247 32.6356 55.3247C34.0162 55.3247 35.4068 55.3247 36.7874 55.3247C36.9761 55.3247 37.1152 55.3843 37.0755 55.5831C37.0556 55.6825 36.9165 55.8017 36.8172 55.8216C36.1617 55.921 35.9531 56.1396 35.9432 56.8155C35.9432 57.382 35.9332 57.9485 35.9432 58.515C35.9432 58.7337 35.8935 58.8927 35.665 58.9523C34.9598 59.161 34.2645 59.4294 33.5494 59.5685C32.6654 59.7474 31.7714 59.7574 30.8775 59.5288C29.3379 59.1511 28.2553 58.2467 27.6991 56.7857C27.0336 55.0464 27.1825 53.3468 28.2354 51.7864C28.9406 50.7428 29.9438 50.1465 31.1953 49.8782C32.2681 49.6496 33.2216 49.898 34.1851 50.3055C34.2745 50.3453 34.3639 50.3751 34.4533 50.395C34.8009 50.4844 35.0989 50.4646 35.2081 50.0769C35.2677 49.8782 35.4167 49.749 35.6154 49.8384C35.7147 49.8881 35.7942 50.0769 35.7942 50.2061C35.814 51.0808 35.7942 51.9653 35.7942 52.8399C35.7942 52.9294 35.7743 53.0288 35.7743 53.1083H35.7544Z" fill="#666666"/>
<path d="M10.8632 57.9378C10.8632 57.4409 10.8533 56.9539 10.8731 56.4569C10.8731 56.3576 11.0221 56.1787 11.0817 56.1886C11.2009 56.2085 11.3698 56.3079 11.3996 56.4072C11.628 57.2421 11.926 58.0273 12.6014 58.6037C13.247 59.1504 14.3496 59.2696 15.025 58.882C15.7501 58.4646 15.9785 57.103 15.164 56.5861C14.5979 56.2184 13.9821 55.9302 13.3762 55.6121C12.6312 55.2245 11.8962 54.8071 11.4095 54.0915C10.5156 52.7895 11.0122 50.275 13.108 49.8874C13.9721 49.7284 14.7667 49.8178 15.5613 50.116C15.7302 50.1756 15.9189 50.2253 16.0878 50.2054C16.2169 50.1955 16.3957 50.0861 16.4255 49.9768C16.495 49.7383 16.6738 49.7383 16.8129 49.788C16.9023 49.8178 17.0016 49.9868 17.0016 50.0961C17.0214 50.9309 17.0214 51.7559 17.0016 52.5907C17.0016 52.6901 16.8824 52.8491 16.793 52.879C16.6241 52.9386 16.5049 52.8591 16.4354 52.6404C16.1275 51.6863 15.6507 50.8415 14.6475 50.4936C13.9125 50.2352 13.1775 50.3446 12.7703 50.8813C12.4226 51.3484 12.4425 52.3025 13.0682 52.6603C13.8231 53.0877 14.588 53.5051 15.3627 53.8927C16.1772 54.3002 16.8526 54.8071 17.2002 55.7016C17.7267 57.0334 17.081 58.723 15.7699 59.3094C14.6475 59.8163 13.5252 59.8163 12.3829 59.3988C12.214 59.3392 12.0353 59.3094 11.8664 59.2696C11.6379 59.2199 11.489 59.2696 11.3797 59.5181C11.33 59.6175 11.1512 59.6871 11.0221 59.7069C10.9725 59.7069 10.8533 59.528 10.8533 59.4287C10.8334 58.9317 10.8533 58.4447 10.8533 57.9478L10.8632 57.9378Z" fill="#666666"/>
<path d="M21.2329 50.6033C20.3191 50.6033 19.5443 50.8021 19.1272 51.6668C18.9881 51.955 18.8987 52.2731 18.8391 52.5812C18.7994 52.8098 18.7199 52.8893 18.4915 52.8793C18.2531 52.8793 18.263 52.7203 18.263 52.5613C18.263 51.7264 18.263 50.8816 18.263 50.0169C18.4815 50.007 18.5908 49.9971 18.71 49.9971C21.1634 49.9971 23.6167 49.9971 26.0701 49.9971C26.4078 49.9971 26.4972 50.0865 26.4873 50.4244C26.4674 51.2295 26.4873 52.0345 26.4873 52.8595C26.2092 52.9092 26.0304 52.9688 25.9608 52.5613C25.8019 51.6767 25.4145 50.9214 24.4213 50.7027C24.1531 50.6431 23.8849 50.6332 23.577 50.5934C23.577 50.7325 23.5571 50.8319 23.5571 50.9413C23.5571 53.1278 23.5571 55.3243 23.5571 57.5108C23.5571 57.6102 23.5571 57.6997 23.5571 57.7991C23.6068 58.7731 23.6068 58.7731 24.5405 58.952C24.7192 58.9818 24.908 59.0215 24.8285 59.2501C24.7987 59.3396 24.61 59.439 24.4908 59.439C23.1002 59.4489 21.6997 59.4489 20.3092 59.439C20.19 59.439 20.0211 59.3396 19.9814 59.2402C19.9118 59.0414 20.0708 58.9818 20.2496 58.952C20.3489 58.942 20.4383 58.9122 20.5376 58.9023C21.0442 58.8426 21.223 58.6538 21.223 58.137C21.223 56.2685 21.223 54.4099 21.2329 52.5414C21.2329 51.9053 21.2329 51.2692 21.2329 50.6232V50.6033Z" fill="#666666"/>
<path d="M150.973 31.6004V32.9819C151.172 32.9819 151.341 32.9819 151.52 32.9819C152.086 32.9819 152.165 32.9123 152.255 32.3657C152.284 32.157 152.354 32.0775 152.572 32.0874C153.556 32.0973 154.549 32.0874 155.532 32.0973C155.632 32.0973 155.801 32.2266 155.81 32.3061C155.84 33.121 155.88 33.946 155.503 34.7013C155.363 34.9796 155.185 35.238 154.976 35.4666C154.797 35.6555 154.698 35.8244 154.718 36.0928C154.738 36.3512 154.718 36.6195 154.718 36.9475C155.075 36.9475 155.413 36.9574 155.761 36.9475C156.019 36.9376 156.098 37.027 156.089 37.2755C156.079 38.1501 156.079 39.0347 156.089 39.9093C156.089 40.1677 156.029 40.277 155.751 40.2571C155.423 40.2373 155.085 40.2571 154.718 40.2571C154.718 41.1715 154.748 42.0461 154.718 42.9207C154.688 43.7854 154.42 44.5905 153.814 45.2464C153.427 45.6639 152.95 45.8825 152.384 45.8925C151.639 45.8925 150.894 45.8925 150.149 45.8925C149.9 45.8925 149.831 45.803 149.801 45.5645C149.722 44.7296 149.603 43.8947 149.503 43.0698C149.473 42.8015 149.454 42.5232 149.434 42.2648C149.503 42.235 149.533 42.2051 149.563 42.2051C150.288 42.2548 150.477 41.8672 150.526 41.2013C150.546 40.9032 150.526 40.605 150.526 40.277C150.367 40.277 150.238 40.277 150.109 40.277C147.497 40.277 144.885 40.277 142.272 40.277C141.954 40.277 141.795 40.1114 141.795 39.7801C141.795 39.0247 141.795 38.2594 141.795 37.5041C141.795 37.1463 141.981 36.9674 142.352 36.9674C144.934 36.9674 147.527 36.9674 150.109 36.9674C150.238 36.9674 150.367 36.9674 150.506 36.9674V35.9437H150.089C147.586 35.9437 145.083 35.9437 142.58 35.9437C142.252 35.9437 142.133 35.894 142.113 35.5262C142.083 34.8206 141.974 34.1249 141.875 33.4192C141.815 33.0316 141.815 33.0018 142.203 33.0018C143.643 33.0018 145.093 33.0018 146.533 33.0018C146.643 33.0018 146.742 32.9918 146.871 32.9819V31.5905H142.153V20.5584H146.861V19.316H141.944V15.6088H146.891C146.891 15.2013 146.901 14.8336 146.891 14.4659C146.891 14.2174 146.96 14.1279 147.219 14.1279C148.351 14.1379 149.483 14.1379 150.616 14.1279C150.894 14.1279 150.973 14.2273 150.953 14.4857C150.933 14.8336 150.953 15.1814 150.953 15.5691C151.102 15.5691 151.231 15.5889 151.351 15.5889C152.751 15.5889 154.142 15.5989 155.542 15.5889C155.88 15.5889 156.009 15.6684 155.999 16.0262C155.979 17.0003 155.979 17.9743 155.999 18.9483C155.999 19.2365 155.91 19.316 155.622 19.316C154.082 19.3061 152.543 19.316 150.973 19.316V20.5285C151.112 20.5285 151.241 20.5285 151.371 20.5285C152.692 20.5285 154.013 20.5285 155.344 20.5285C155.612 20.5285 155.721 20.5882 155.721 20.8863C155.711 23.4406 155.721 25.9949 155.701 28.5392C155.701 29.0461 155.602 29.5729 155.443 30.0599C155.125 31.0637 154.38 31.5706 153.297 31.5905C152.553 31.6004 151.808 31.5905 151.063 31.5905C151.043 31.5905 151.023 31.6004 150.973 31.6203V31.6004ZM146.881 28.6188V27.1876H145.48V28.6188H146.881ZM150.963 28.6287C151.281 28.6287 151.559 28.6287 151.827 28.6287C152.145 28.6287 152.324 28.4597 152.324 28.1417C152.324 27.8336 152.324 27.5155 152.324 27.1975H150.953V28.6287H150.963ZM146.891 23.4406H145.48V24.7128H146.891V23.4406ZM150.963 24.7227H152.334V23.4506H150.963V24.7227Z" fill="#666666"/>
<path d="M137.713 22.6655C138.259 22.6655 138.746 22.6655 139.243 22.6655C139.829 22.6655 140.425 22.6655 141.011 22.6655C141.249 22.6655 141.339 22.7549 141.329 22.9835C141.329 23.4904 141.329 23.9973 141.329 24.5041C141.329 30.547 141.329 36.5898 141.319 42.6326C141.319 43.2289 141.199 43.8551 141.031 44.4315C140.723 45.4453 139.938 45.8726 138.915 45.8826C137.246 45.8925 135.568 45.8826 133.899 45.8925C133.591 45.8925 133.512 45.7832 133.512 45.495C133.512 40.2174 133.512 34.9499 133.512 29.6723C133.512 29.6226 133.512 29.5829 133.512 29.5332C132.965 29.4338 132.985 29.4239 132.916 28.8474C132.796 27.8237 132.647 26.81 132.518 25.7863C132.489 25.5477 132.479 25.3092 132.469 25.0806C132.518 25.0508 132.548 25.011 132.578 25.011C133.303 25.0309 133.432 24.7327 133.581 24.0768C133.72 23.4705 133.81 22.8543 133.919 22.248C134.098 21.2243 134.276 20.2106 134.465 19.167H132.866V14.7044C132.985 14.7044 133.085 14.6846 133.194 14.6846C135.756 14.6846 138.319 14.6846 140.882 14.6846C141.219 14.6846 141.319 14.784 141.309 15.1119C141.289 16.3245 141.289 17.547 141.309 18.7595C141.309 19.1074 141.19 19.1769 140.872 19.167C140.047 19.1471 139.213 19.167 138.369 19.167C138.15 20.3398 137.932 21.4827 137.713 22.6754V22.6655ZM137.902 27.1976H136.998V41.3902C137.693 41.4499 137.892 41.2809 137.902 40.6051C137.902 40.5255 137.902 40.4361 137.902 40.3566C137.902 38.3092 137.902 36.2618 137.902 34.2144C137.902 31.8788 137.902 29.5431 137.902 27.1976Z" fill="#666666"/>
<path d="M144.656 41.0723C145.163 41.0723 145.669 41.0922 146.166 41.0723C146.474 41.0524 146.653 41.1816 146.722 41.45C146.831 41.8475 147.109 41.9668 147.477 41.9668C147.785 41.9668 148.103 41.9767 148.411 41.9668C148.649 41.9569 148.758 42.0264 148.758 42.2948C148.748 43.2887 148.758 44.2925 148.758 45.2864C148.758 45.4951 148.689 45.5845 148.47 45.5845C147.457 45.5746 146.454 45.6243 145.441 45.5647C143.961 45.4752 143.295 44.7 143.017 43.239C142.908 42.6426 142.828 42.0364 142.719 41.44C142.679 41.2015 142.719 41.0723 142.997 41.0822C143.554 41.0922 144.1 41.0822 144.656 41.0822V41.0723Z" fill="#666666"/>
</svg>
