<svg width="156" height="78" viewBox="0 0 156 78" fill="none" xmlns="http://www.w3.org/2000/svg">
<path d="M104.361 44.5961C104.599 44.5862 104.847 44.5663 105.086 44.5663C106.645 44.5464 108.195 44.5265 109.754 44.5166C110.748 44.5166 111.751 44.5166 112.724 44.7452C113.171 44.8446 113.618 44.9837 114.045 45.1626C115.257 45.6695 115.922 46.6236 116.012 47.9157C116.111 49.1978 115.644 50.2513 114.532 50.9768C114.214 51.1856 113.856 51.3446 113.449 51.5533C113.717 51.6427 113.926 51.7024 114.135 51.772C114.651 51.931 115.128 52.1695 115.555 52.4875C116.796 53.4218 117.383 55.0816 116.906 56.6619C116.707 57.3079 116.33 57.8346 115.823 58.272C115.108 58.8882 114.274 59.2658 113.36 59.4746C112.555 59.6535 111.731 59.7827 110.906 59.7727C108.89 59.7628 106.874 59.733 104.857 59.7131C104.718 59.7131 104.559 59.7031 104.43 59.6535C104.371 59.6336 104.331 59.5044 104.321 59.4149C104.321 59.3652 104.381 59.2758 104.44 59.2559C104.53 59.2161 104.629 59.2161 104.728 59.2062C104.917 59.1764 105.116 59.1764 105.304 59.1267C105.89 58.9776 106.049 58.7689 106.079 58.1527C106.079 58.0036 106.079 57.8645 106.079 57.7154C106.079 54.0181 106.079 50.3209 106.079 46.6236C106.079 46.4746 106.079 46.3354 106.079 46.1863C106.049 45.431 105.89 45.2421 105.155 45.1527C104.937 45.1229 104.718 45.103 104.51 45.0533C104.291 44.9937 104.311 44.8247 104.381 44.6061L104.361 44.5961ZM108.532 52.2192C108.523 52.5074 108.503 52.6963 108.503 52.8851C108.503 54.4356 108.503 55.996 108.503 57.5464C108.503 57.6657 108.503 57.7849 108.503 57.9142C108.542 58.5502 108.831 58.908 109.446 59.0372C110.599 59.2758 111.721 59.1664 112.794 58.6993C113.598 58.3614 114.125 57.7452 114.363 56.8905C114.591 56.0755 114.581 55.2605 114.393 54.4455C114.184 53.551 113.618 52.9547 112.774 52.6168C112.575 52.5372 112.357 52.4776 112.148 52.4279C111.314 52.2291 110.469 52.2192 109.615 52.1894C109.277 52.1894 108.94 52.1894 108.532 52.1993V52.2192ZM108.562 51.5533C109.307 51.603 109.993 51.6129 110.698 51.4937C111.204 51.4042 111.691 51.275 112.138 51.0265C113.062 50.5197 113.539 49.7246 113.628 48.681C113.648 48.4623 113.638 48.2437 113.628 48.025C113.588 46.8323 113.022 46.0174 111.91 45.5701C111.274 45.3216 110.608 45.2123 109.923 45.1726C109.705 45.1626 109.486 45.1626 109.268 45.1726C109.029 45.1726 108.801 45.1924 108.572 45.2123C108.473 45.8285 108.453 50.7979 108.562 51.5632V51.5533Z" fill="#666666"/>
<path d="M43.2252 30.284C43.2252 30.1449 43.2153 30.0653 43.2252 29.9958C43.2451 29.9063 43.2948 29.8169 43.3544 29.6777C44.8939 29.8864 46.4037 30.2244 47.9433 30.443C49.4828 30.6617 51.0125 30.9201 52.552 31.1288C54.0916 31.3375 55.6312 31.5264 57.1807 31.7053C58.7004 31.8742 60.22 32.0233 61.7497 32.1525C63.2992 32.2817 64.8486 32.3811 66.3981 32.4805C67.9476 32.5799 69.5071 32.6693 71.0566 32.729C72.6061 32.7886 74.1655 32.8184 75.7249 32.8383C77.2843 32.8582 78.8339 32.8582 80.3933 32.8383C81.9527 32.8184 83.5022 32.7886 85.0616 32.729C86.6111 32.6693 88.1705 32.5799 89.72 32.4805C91.2695 32.3811 92.819 32.2817 94.3685 32.1525C95.8982 32.0233 97.4178 31.8742 98.9375 31.7053C100.487 31.5363 102.027 31.3475 103.566 31.1288C105.106 30.9201 106.645 30.6816 108.175 30.4331C109.705 30.1946 111.234 29.9262 112.734 29.6777C112.933 29.8069 112.923 29.9858 112.962 30.1946C112.853 30.2542 112.744 30.3536 112.615 30.3735C110.281 30.8207 107.946 31.2878 105.602 31.7053C103.805 32.0233 102.007 32.2817 100.199 32.5302C98.8084 32.729 97.4079 32.888 96.0074 33.0271C94.15 33.216 92.2826 33.3849 90.4252 33.5539C89.581 33.6334 88.7268 33.6831 87.8825 33.7228C86.3032 33.7924 84.7239 33.862 83.1446 33.9117C80.5919 34.0011 78.0392 34.0608 75.4865 33.9812C73.0828 33.9017 70.6791 33.852 68.2754 33.7129C66.1399 33.5936 64.0143 33.3949 61.8788 33.1961C59.9717 33.0172 58.0646 32.8085 56.1576 32.5501C54.2108 32.2916 52.264 32.0034 50.3271 31.6655C48.0823 31.2679 45.8475 30.8108 43.6027 30.3735C43.4835 30.3536 43.3742 30.3039 43.2252 30.2542V30.284Z" fill="#666666"/>
<path d="M147.022 51.4333C147.379 51.155 147.608 50.986 147.836 50.8071C148.73 50.1214 149.743 49.853 150.846 50.0021C152.306 50.2009 153.448 51.0656 153.686 52.9341C153.726 53.272 153.726 53.6099 153.726 53.9578C153.726 55.2697 153.726 56.5816 153.726 57.8935C153.726 58.1321 153.746 58.3805 153.786 58.6191C153.845 58.9371 154.044 59.126 154.372 59.1756C154.511 59.1955 154.66 59.1955 154.809 59.2253C154.997 59.2552 155.117 59.3645 155.087 59.4937C155.057 59.6328 154.948 59.6825 154.819 59.6925C154.749 59.6925 154.67 59.6925 154.6 59.6925C153.309 59.6925 152.028 59.6925 150.736 59.6925C150.419 59.6925 150.27 59.603 150.299 59.444C150.339 59.2154 150.518 59.2253 150.687 59.2055C150.756 59.2055 150.836 59.2055 150.905 59.1856C151.322 59.1061 151.471 58.9371 151.521 58.4998C151.541 58.3308 151.551 58.1619 151.551 57.9929C151.551 56.4822 151.551 54.9815 151.551 53.4708C151.551 53.0334 151.511 52.5961 151.352 52.1787C150.985 51.2643 150.2 50.7873 149.217 50.8867C148.333 50.9761 147.677 51.4432 147.151 52.1091C147.081 52.1986 147.041 52.3278 147.022 52.4371C147.002 52.5266 147.012 52.6259 147.012 52.7253C147.012 54.5044 147.012 56.2735 147.012 58.0526C147.012 58.2215 147.012 58.3905 147.051 58.5594C147.111 58.9073 147.3 59.1359 147.667 59.1756C147.786 59.1955 147.906 59.1955 148.025 59.2154C148.223 59.2452 148.323 59.3446 148.293 59.4837C148.263 59.6825 148.104 59.6726 147.965 59.6825C147.896 59.6825 147.816 59.6825 147.747 59.6825C146.505 59.6825 145.273 59.6825 144.032 59.6825C143.883 59.6825 143.744 59.6726 143.605 59.6328C143.555 59.6229 143.505 59.5334 143.495 59.4738C143.495 59.4142 143.525 59.3049 143.565 59.285C143.694 59.2353 143.843 59.2055 143.982 59.1856C144.658 59.0862 144.797 58.9371 144.826 58.2414C144.826 58.0923 144.826 57.9532 144.826 57.8041C144.826 54.2261 144.826 50.6581 144.826 47.0801C144.826 46.931 144.826 46.7919 144.826 46.6428C144.826 46.2552 144.628 46.0067 144.29 45.8576C144.091 45.7682 143.893 45.6986 143.664 45.6091C143.714 45.5296 143.734 45.4501 143.784 45.4302C144.221 45.2116 146.356 44.5457 146.912 44.4463C147.051 44.6351 146.992 44.8538 146.992 45.0625C146.992 46.8813 146.992 48.71 146.992 50.5289C146.992 50.7674 146.992 51.0059 146.992 51.4134L147.022 51.4333Z" fill="#666666"/>
<path d="M155.246 63.7779V64.2848C155.087 64.3146 154.948 64.3444 154.809 64.3544C154.64 64.3643 154.471 64.3544 154.302 64.3544C128.646 64.3544 102.98 64.3544 77.3241 64.3544C77.036 64.3544 76.748 64.3444 76.4798 64.3345C76.4202 64.1291 76.4136 63.927 76.4599 63.7282C76.5394 63.7183 76.6387 63.6885 76.7281 63.6885C102.821 63.6885 128.924 63.6885 155.017 63.6885C155.087 63.6885 155.156 63.7282 155.256 63.758L155.246 63.7779Z" fill="#666666"/>
<path d="M0.932068 44.9836V44.6457C1.01153 44.6159 1.08103 44.5762 1.15056 44.5762C3.18675 44.5762 5.23291 44.5762 7.26911 44.5762C7.3585 44.5762 7.45782 44.606 7.56707 44.6258C7.56707 44.7352 7.58691 44.8246 7.59684 44.9538C7.47765 44.9836 7.36842 45.0234 7.25916 45.0433C7.02078 45.093 6.77244 45.1228 6.55392 45.2023C6.01756 45.3911 5.76923 45.7589 5.85863 46.3254C5.92815 46.7528 6.05733 47.1801 6.21625 47.5777C6.98106 49.5456 7.77565 51.5035 8.5504 53.4714C8.90797 54.3758 9.26558 55.2803 9.63308 56.1748C9.69268 56.3239 9.77213 56.463 9.87146 56.6717C9.96085 56.4829 10.0303 56.3636 10.08 56.2245C11.0534 53.5807 12.0367 50.937 13.0002 48.2933C13.1492 47.8858 13.2684 47.4584 13.3677 47.041C13.4273 46.7826 13.4472 46.5142 13.4472 46.2459C13.4472 45.6694 13.1492 45.2818 12.593 45.1228C12.3645 45.0532 12.1162 45.0532 11.8778 45.0035C11.6792 44.9638 11.6792 44.8246 11.7189 44.6755C11.7586 44.6457 11.7884 44.596 11.8282 44.5861C12.3844 44.5265 16.1886 44.5463 16.7349 44.6159C16.7349 44.7153 16.7548 44.8246 16.7647 44.9538C16.5661 45.0035 16.4071 45.0532 16.2482 45.093C15.7218 45.2122 15.2947 45.4905 15.0166 45.9278C14.7385 46.3552 14.4901 46.8025 14.3014 47.2696C13.7452 48.6411 13.2287 50.0326 12.6923 51.4141C11.6792 54.0379 10.666 56.6717 9.65291 59.2956C9.56351 59.5142 9.46422 59.7428 9.37483 59.9714H8.60005C8.49079 59.7329 8.38152 59.4943 8.2822 59.2459C6.7029 55.3797 5.12365 51.5135 3.54436 47.6473C3.35564 47.2 3.15696 46.7528 2.95831 46.3154C2.64046 45.6297 2.12399 45.1924 1.36911 45.0632C1.24992 45.0433 1.13069 45.0035 0.961834 44.9638L0.932068 44.9836Z" fill="#666666"/>
<path d="M89.5811 52.7558C89.442 52.4875 89.3228 52.2787 89.2136 52.07C88.9255 51.5333 88.707 50.9668 88.5183 50.3904C88.1706 49.2971 88.6971 47.6969 90.326 47.2994C91.0213 47.1304 91.7265 47.1404 92.4118 47.369C93.9713 47.8758 94.0806 49.4959 93.4349 50.3705C93.1965 50.6985 92.8985 50.9966 92.6006 51.2849C92.3522 51.5234 92.0642 51.7122 91.806 51.9209C91.6967 52.0104 91.5974 52.1098 91.4682 52.229C92.2827 53.6702 93.1568 55.0219 94.1401 56.3934C94.2494 56.2642 94.3388 56.1847 94.3984 56.0953C94.7659 55.4592 95.0838 54.8032 95.2327 54.0876C95.2625 53.9187 95.2923 53.7497 95.3023 53.5807C95.342 52.9645 95.193 52.7558 94.6169 52.557C94.5474 52.5372 94.4679 52.5272 94.4083 52.4875C94.3587 52.4477 94.3189 52.3881 94.2792 52.3284C94.3487 52.2787 94.4083 52.2092 94.4878 52.1694C94.5275 52.1495 94.5871 52.1595 94.6268 52.1595C95.6002 52.1595 96.5736 52.1595 97.547 52.1595C97.6364 52.1595 97.7358 52.1893 97.8351 52.2092C97.8351 52.2986 97.8649 52.3881 97.8351 52.4278C97.7755 52.4875 97.6762 52.5372 97.5868 52.557C96.9412 52.6962 96.524 53.1235 96.2161 53.6702C96.1068 53.859 96.0174 54.0578 95.928 54.2566C95.5406 55.0716 95.1533 55.8766 94.7758 56.6916C94.7361 56.781 94.6963 56.8605 94.6367 56.9898C95.2625 57.7849 95.9578 58.4607 97.0107 58.6595C97.7357 58.7887 98.3615 58.6396 98.888 58.1228C98.9575 58.0532 99.027 57.9936 99.0965 57.9339C99.2852 57.9737 99.3845 58.093 99.2852 58.242C98.8581 58.8781 98.3218 59.4049 97.6165 59.7329C97.0404 60.0012 96.4346 59.9714 95.8287 59.8521C95.1731 59.7229 94.597 59.4049 94.1004 58.9676C93.9216 58.8086 93.7428 58.6396 93.5342 58.4508C93.3157 58.6297 93.1171 58.7986 92.9085 58.9576C91.7166 59.9018 90.3856 60.1602 88.9255 59.7627C86.9091 59.2061 86.0152 56.9699 87.078 55.1511C87.3859 54.6144 87.8031 54.1771 88.2799 53.7894C88.6971 53.4515 89.1241 53.1335 89.6009 52.7657L89.5811 52.7558ZM93.0177 57.8544C92.6303 57.3376 92.2827 56.8804 91.945 56.4034C91.5974 55.9064 91.2696 55.3995 90.9219 54.9026C90.5942 54.4355 90.3657 53.8888 89.9585 53.4714C89.2632 54.0479 88.846 54.7436 88.6275 55.6083C88.4884 56.1648 88.4984 56.7115 88.6772 57.2581C89.0248 58.3315 90.0876 59.0272 91.1504 58.8583C91.8655 58.7489 92.4814 58.4309 93.0177 57.8544ZM91.1405 51.593C91.5974 51.2252 91.9053 50.8575 92.1436 50.4401C92.4416 49.9232 92.541 49.3468 92.4714 48.7604C92.4118 48.2138 92.1039 47.8758 91.5874 47.7466C91.0808 47.6174 90.6935 47.8063 90.3757 48.1939C90.0379 48.6213 90.0479 49.0983 90.177 49.5754C90.3756 50.2711 90.7035 50.9171 91.1405 51.593Z" fill="#666666"/>
<path d="M53.4957 27.113C53.5255 26.8745 53.5553 26.7154 53.5751 26.5564C53.6745 26.5266 53.7539 26.4968 53.8135 26.4968C54.5088 26.6061 55.2041 26.7254 55.8994 26.8248C57.5581 27.0633 59.2169 27.3118 60.8756 27.5105C62.4946 27.7093 64.1037 27.8982 65.7228 28.0274C67.461 28.1765 69.2091 28.2758 70.9573 28.3752C74.9403 28.6038 78.9233 28.5839 82.9062 28.4746C85.0219 28.415 87.1276 28.256 89.2333 28.1069C90.9716 27.9777 92.7197 27.8286 94.4579 27.6199C96.7027 27.3416 98.9276 26.9937 101.162 26.6757C101.619 26.6061 102.066 26.5365 102.573 26.457C102.613 26.6757 102.652 26.8546 102.682 27.0235C100.974 27.7292 90.3359 29.23 85.449 29.5083C74.7217 30.1145 64.1038 29.4188 53.5056 27.1031L53.4957 27.113Z" fill="#666666"/>
<path d="M69.07 63.7581V64.2848C68.921 64.3147 68.782 64.3445 68.6429 64.3544C68.4741 64.3644 68.3052 64.3544 68.1364 64.3544C46.5825 64.3544 25.0386 64.3544 3.48474 64.3544C3.17683 64.3544 2.85895 64.3942 2.52124 64.2848V63.7481C2.6603 63.7283 2.80928 63.6985 2.94834 63.6885C3.14699 63.6786 3.33574 63.6885 3.53439 63.6885C25.0585 63.6885 46.5825 63.6885 68.1165 63.6885C68.4244 63.6885 68.7423 63.6488 69.08 63.7481L69.07 63.7581Z" fill="#666666"/>
<path d="M84.5948 20.4841H83.1645C82.9658 20.3052 83.0155 20.0965 83.0155 19.9176C83.0155 18.6255 83.0155 17.3434 83.0155 16.0513C83.0155 13.3082 83.0155 10.5552 83.0155 7.81205C83.0155 6.8281 82.8764 5.87397 82.5288 4.9596C81.7242 2.87245 80.2443 1.52076 78.0293 1.13315C75.6256 0.715717 73.5695 1.42138 71.9704 3.31969C71.8313 3.48865 71.6923 3.65761 71.5631 3.81663C71.3943 3.77688 71.3247 3.69737 71.4042 3.54829C71.8909 2.65379 72.5664 1.93819 73.3808 1.34186C76.8771 -1.23229 82.7374 -0.188717 84.2769 5.21801C84.4954 5.99324 84.6047 6.78835 84.6047 7.59339C84.6047 8.73636 84.6047 9.87933 84.6047 11.0223C84.6047 13.8946 84.6047 16.757 84.6047 19.6293C84.6047 19.8877 84.5948 20.1561 84.5848 20.494L84.5948 20.4841Z" fill="#666666"/>
<path d="M124.912 59.9215C124.107 59.9414 123.312 59.7724 122.548 59.4246C120.78 58.6096 119.747 56.8604 119.816 54.8229C119.846 53.7992 120.104 52.855 120.7 52.0202C121.564 50.8176 122.766 50.2113 124.196 50.0324C125.17 49.9131 126.143 49.9728 127.067 50.3305C128.696 50.9468 129.709 52.0997 130.067 53.7992C130.821 57.3176 128.09 60.0209 124.902 59.9315L124.912 59.9215ZM127.971 54.9322C127.951 54.5645 127.941 54.2067 127.901 53.839C127.812 53.0637 127.603 52.3183 127.166 51.6524C126.213 50.2113 124.037 50.1616 123.044 51.5033C122.826 51.7916 122.627 52.1096 122.498 52.4475C121.872 54.1272 121.862 55.8267 122.498 57.5064C122.627 57.8642 122.845 58.2021 123.084 58.5003C124.008 59.6532 125.905 59.6731 126.878 58.55C127.216 58.1524 127.454 57.7151 127.623 57.2281C127.891 56.4827 127.961 55.7174 127.971 54.9322Z" fill="#666666"/>
<path d="M63.2893 49.9328C64.1037 49.9527 64.8884 50.0918 65.6333 50.4198C67.1828 51.0857 68.0868 52.2684 68.4046 53.9083C68.5635 54.7134 68.5436 55.5085 68.3152 56.2837C67.9278 57.6354 67.1034 58.6591 65.8519 59.2952C64.1633 60.1499 62.435 60.1599 60.7366 59.3449C59.2268 58.6193 58.4024 57.3571 58.164 55.6973C58.0647 55.0115 58.0845 54.3357 58.2534 53.6698C58.7302 51.8013 59.9221 50.6484 61.7696 50.1514C62.2563 50.0222 62.7728 49.9924 63.2694 49.9229L63.2893 49.9328ZM66.279 54.773C66.2691 54.5643 66.2591 54.1966 66.2194 53.8288C66.13 53.1033 65.9413 52.3976 65.5539 51.7615C64.6103 50.1813 62.2761 50.0918 61.263 51.6025C61.0346 51.9404 60.826 52.3181 60.7068 52.6958C60.2201 54.1966 60.23 55.7172 60.7068 57.218C60.826 57.6056 61.0346 57.9832 61.263 58.3212C62.1868 59.6729 64.2726 59.7225 65.2957 58.4305C65.5837 58.0628 65.7923 57.6553 65.9512 57.218C66.2194 56.4725 66.2889 55.7073 66.2989 54.7631L66.279 54.773Z" fill="#666666"/>
<path d="M76.1222 57.3369C76.2514 57.0785 76.3209 56.9493 76.3805 56.8201C76.9963 55.3988 77.6221 53.9676 78.228 52.5364C78.3373 52.2681 78.4366 51.9898 78.4763 51.7016C78.5657 51.0754 78.3373 50.7971 77.7214 50.6878C77.5824 50.6679 77.4235 50.6679 77.2943 50.6282C77.2248 50.6083 77.1354 50.5089 77.1155 50.4393C77.0857 50.2903 77.2049 50.2306 77.334 50.2107C77.4036 50.2008 77.483 50.2008 77.5525 50.2008C78.5458 50.2008 79.5391 50.2008 80.5423 50.2008C80.6416 50.2008 80.741 50.1909 80.8304 50.2207C80.9098 50.2505 81.0091 50.3201 81.029 50.3896C81.0687 50.5288 80.9595 50.6083 80.8304 50.6481C80.741 50.6779 80.6416 50.6779 80.5423 50.6978C80.0854 50.7872 79.7477 51.0556 79.5192 51.4531C79.3802 51.7016 79.261 51.9799 79.1418 52.2383C77.7016 55.5578 76.2613 58.8774 74.8112 62.187C74.6125 62.6542 74.3642 63.1014 74.0861 63.5288C73.7881 63.9959 73.3312 64.2742 72.7749 64.3736C72.477 64.4233 72.1889 64.3736 71.9307 64.2245C71.593 64.0158 71.4142 63.6381 71.4936 63.3002C71.583 62.9026 71.9009 62.6343 72.328 62.6244C72.5167 62.6244 72.7153 62.6542 72.9041 62.6939C73.4404 62.8033 73.8179 62.5846 74.0364 62.1175C74.3542 61.4615 74.6423 60.7956 74.9204 60.1198C74.9701 60.0005 74.9403 59.8315 74.9204 59.7023C74.8906 59.5632 74.8012 59.434 74.7416 59.3048C73.5994 56.8598 72.4571 54.4248 71.3149 51.9799C71.2354 51.801 71.146 51.632 71.0566 51.4531C70.8381 51.0556 70.5401 50.7574 70.0633 50.6779C69.9739 50.6679 69.8845 50.6083 69.8051 50.5586C69.7753 50.5387 69.7455 50.4692 69.7554 50.4294C69.7654 50.3698 69.8051 50.2704 69.8547 50.2604C69.964 50.2207 70.0932 50.2008 70.2024 50.2008C71.583 50.2008 72.9736 50.2008 74.3543 50.2008C74.4238 50.2008 74.5131 50.1909 74.5727 50.2207C74.6522 50.2604 74.7416 50.3201 74.7615 50.3996C74.8012 50.5487 74.692 50.6182 74.5629 50.6481C74.394 50.6779 74.2251 50.6878 74.0563 50.7276C73.7782 50.8071 73.5894 51.0257 73.6192 51.3239C73.6391 51.5823 73.7086 51.8507 73.808 52.0892C74.4735 53.6794 75.1588 55.2597 75.8442 56.84C75.9037 56.9692 75.9733 57.0884 76.1024 57.3369H76.1222Z" fill="#666666"/>
<path d="M73.0531 20.4837C72.5266 20.5135 72.0797 20.5533 71.583 20.4439C71.5731 20.2153 71.5433 20.0066 71.5433 19.788C71.5433 15.8721 71.5433 11.9661 71.5433 8.0502C71.5433 7.0762 71.6824 6.11213 72.0598 5.19776C72.9438 3.06091 74.8906 1.80861 77.1751 1.96764C80.1649 2.17635 81.8534 4.54179 81.9924 6.76809C81.9924 6.81779 81.9924 6.86748 81.9924 6.91718C81.9924 7.13583 81.913 7.28491 81.8137 7.24516C81.6746 7.18553 81.6945 7.05632 81.6746 6.94699C81.5852 6.5395 81.5455 6.12207 81.4064 5.74439C80.7806 4.09455 79.5689 3.13048 77.8108 2.99134C75.9931 2.84225 74.6125 3.62742 73.7484 5.24745C73.3312 6.03262 73.1822 6.8973 73.1524 7.78186C73.1524 8.00051 73.1524 8.21916 73.1524 8.43782C73.1524 12.1549 73.1524 15.8721 73.1524 19.5892C73.1524 19.8774 73.1822 20.1656 73.0729 20.4936L73.0531 20.4837Z" fill="#666666"/>
<path d="M23.9261 45.3912C25.0585 45.0632 26.1709 44.7352 27.3033 44.4072C27.4622 44.6458 27.4125 44.8644 27.4125 45.0731C27.4125 46.9218 27.4125 48.7704 27.4125 50.619C27.4125 53.0242 27.4125 55.4393 27.4125 57.8445C27.4125 58.0831 27.4125 58.3315 27.4423 58.5701C27.492 58.9179 27.7006 59.1366 28.0582 59.1863C28.227 59.2062 28.3959 59.2161 28.5548 59.2658C28.6144 59.2857 28.6938 59.4149 28.6839 59.4844C28.6839 59.554 28.5845 59.6534 28.515 59.6733C28.4058 59.713 28.2766 59.7031 28.1575 59.7031C26.9159 59.7031 25.6743 59.7031 24.4427 59.7031C24.3036 59.7031 24.1546 59.6932 24.0156 59.6534C23.9659 59.6435 23.9063 59.554 23.9063 59.4944C23.9063 59.4347 23.9361 59.3254 23.9857 59.3155C24.1447 59.2658 24.3135 59.226 24.4724 59.2161C24.9988 59.1863 25.2273 58.8384 25.2373 58.411C25.2373 58.2123 25.2472 58.0234 25.2472 57.8247C25.2472 54.3659 25.2472 50.9172 25.2472 47.4584C25.2472 47.2199 25.2472 46.9714 25.2273 46.7329C25.1876 46.2161 24.9194 45.8782 24.4029 45.749C24.244 45.7092 24.095 45.6297 23.946 45.5701C23.9361 45.5701 23.946 45.5303 23.9162 45.411L23.9261 45.3912Z" fill="#666666"/>
<path d="M47.1289 57.1282C46.6521 58.4004 45.5893 59.4042 44.3378 59.7322C42.7485 60.1496 41.2388 59.931 39.8979 58.9768C38.3683 57.8836 37.8518 56.3232 37.9908 54.5044C38.0306 53.9478 38.1597 53.4012 38.398 52.8843C39.2125 51.0755 40.6229 50.1213 42.5995 49.9921C43.4339 49.9325 44.2484 50.0518 45.0132 50.4195C46.2349 51.0059 46.9004 51.9799 47.0991 53.3018C47.1189 53.4111 47.0891 53.5403 47.0692 53.6993C46.3243 53.7391 45.5893 53.7093 44.8642 53.7192C44.1391 53.7192 43.4041 53.7192 42.679 53.7192H40.4641C40.4045 53.908 40.325 54.0571 40.315 54.2161C40.2256 55.1504 40.3051 56.0648 40.6031 56.9493C41.2189 58.8079 43.126 59.603 44.9039 58.7781C45.5098 58.4898 46.0164 58.0824 46.4236 57.5655C46.523 57.4363 46.6124 57.2773 46.7514 57.1779C46.821 57.1183 46.96 57.158 47.1487 57.1382L47.1289 57.1282ZM44.8742 52.9539C44.9933 52.0495 44.5662 51.145 43.8213 50.7475C43.3743 50.499 42.8876 50.4791 42.4109 50.6183C41.507 50.8866 40.7123 51.9501 40.613 52.9639C41.2388 53.0632 44.308 53.0533 44.8742 52.9639V52.9539Z" fill="#666666"/>
<path d="M30.7201 45.5601C31.2167 45.2619 33.6204 44.5463 34.2561 44.4668C34.2859 44.596 34.3257 44.7351 34.3356 44.8743C34.3455 45.0929 34.3356 45.3116 34.3356 45.5303C34.3356 49.5654 34.3356 53.6006 34.3356 57.6358C34.3356 57.9538 34.3356 58.2718 34.3852 58.5799C34.4349 58.9676 34.6037 59.1166 34.9911 59.1962C35.16 59.226 35.3288 59.226 35.4878 59.2757C35.5474 59.2955 35.597 59.4247 35.6069 59.5043C35.6069 59.5539 35.5474 59.6335 35.4878 59.6633C35.3984 59.703 35.2991 59.703 35.2097 59.703C33.8787 59.703 32.5378 59.703 31.2068 59.703C31.1373 59.703 31.0479 59.713 30.9883 59.6832C30.9088 59.6434 30.8194 59.5738 30.7996 59.5043C30.7598 59.3651 30.8592 59.2757 30.9883 59.2558C31.177 59.226 31.3756 59.216 31.5643 59.1763C31.8524 59.1266 32.0511 58.9576 32.1007 58.6595C32.1405 58.401 32.1802 58.1327 32.1802 57.8643C32.1802 54.3659 32.1802 50.8674 32.1802 47.359C32.1802 47.0906 32.1404 46.8223 32.1106 46.5639C32.061 46.1564 31.8127 45.9079 31.4452 45.7787C31.2465 45.7092 31.0379 45.6595 30.7201 45.5601Z" fill="#666666"/>
<path d="M141.896 57.0687C141.38 58.2315 140.714 58.9968 139.731 59.4739C137.427 60.587 133.702 59.7621 132.987 56.0748C132.808 55.1704 132.858 54.2858 133.116 53.4112C133.682 51.483 135.231 50.191 137.228 50.0022C138.132 49.9226 139.026 49.9723 139.89 50.2904C140.327 50.4494 140.734 50.6681 141.072 50.996C141.39 51.3141 141.608 51.6818 141.628 52.1489C141.648 52.6459 141.449 52.9341 140.992 53.0832C140.595 53.2124 140.148 53.0633 139.93 52.6757C139.83 52.4869 139.761 52.2682 139.731 52.0595C139.582 51.1054 139.026 50.5985 138.092 50.5389C137.178 50.4792 136.483 50.837 135.996 51.5924C135.827 51.8508 135.688 52.1489 135.589 52.4471C135.112 53.8982 135.082 55.3592 135.49 56.8301C135.559 57.0587 135.649 57.2873 135.758 57.506C136.264 58.5098 137.079 59.0067 138.201 59.0763C139.314 59.1359 140.178 58.6986 140.893 57.8837C141.082 57.665 141.241 57.4066 141.429 57.1979C141.489 57.1283 141.628 57.1382 141.896 57.0687Z" fill="#666666"/>
<path d="M63.329 24.0227C63.3986 23.7643 63.4383 23.6053 63.478 23.4463C65.9214 23.655 68.3351 23.8737 70.7487 24.0526C73.1921 24.2315 75.6455 24.301 78.0989 24.301C80.5225 24.301 82.9559 24.2315 85.3795 24.0526C87.7931 23.8737 90.2068 23.655 92.68 23.4463C92.7098 23.6152 92.7396 23.7842 92.7694 23.9532C92.0443 24.2812 89.9585 24.6389 85.4193 25.116C82.9858 25.3744 80.5324 25.4639 78.079 25.4639C75.5958 25.4639 73.1325 25.3446 70.6593 25.1061C68.2258 24.8675 65.8023 24.5495 63.3191 24.0227H63.329Z" fill="#666666"/>
<path d="M49.5126 51.0558C50.4165 50.7278 51.3204 50.3899 52.2342 50.0619C52.3434 50.0221 52.4627 50.0221 52.6315 49.9923C52.6514 50.4992 52.6712 50.9663 52.6911 51.4334C52.8997 51.4732 52.9394 51.334 52.999 51.2446C53.3069 50.857 53.6446 50.5191 54.0618 50.2606C54.5783 49.9426 55.1246 49.8035 55.7305 49.8631C56.0781 49.9028 56.386 50.0321 56.6343 50.2905C56.9621 50.6284 57.0019 51.1949 56.7238 51.5626C56.4159 51.9801 55.8696 52.0894 55.4226 51.8111C55.2438 51.6918 55.0749 51.5428 54.916 51.3937C54.4889 50.9762 53.9625 51.1055 53.6049 51.4235C53.1281 51.8509 52.8997 52.4074 52.8004 53.0137C52.7507 53.3218 52.7308 53.6399 52.7308 53.9579C52.7308 55.2897 52.7308 56.6314 52.7308 57.9632C52.7308 58.1819 52.7507 58.4006 52.7805 58.6192C52.8202 58.9571 53.0387 59.136 53.3466 59.1957C53.585 59.2354 53.8334 59.2354 54.0718 59.2851C54.1413 59.2951 54.2207 59.4143 54.2207 59.4938C54.2207 59.5634 54.1413 59.6628 54.0718 59.6926C53.9625 59.7324 53.8333 59.7224 53.7141 59.7224C52.403 59.7224 51.092 59.7224 49.7808 59.7224C49.7113 59.7224 49.6318 59.7224 49.5623 59.7224C49.4332 59.7224 49.3239 59.6727 49.304 59.5236C49.2842 59.3845 49.3736 59.2851 49.5722 59.2553C49.7113 59.2354 49.8603 59.2255 50.0093 59.2056C50.3073 59.1559 50.486 58.977 50.5556 58.6888C50.5953 58.4999 50.6152 58.3012 50.6152 58.1123C50.6152 56.2935 50.6152 54.4648 50.6152 52.646C50.6152 52.5267 50.6152 52.3975 50.5953 52.2782C50.5556 51.9701 50.4165 51.7316 50.1285 51.5825C49.9199 51.4732 49.7113 51.3539 49.5027 51.2446C49.5027 51.1949 49.5027 51.1353 49.5027 51.0856L49.5126 51.0558Z" fill="#666666"/>
<path d="M16.7647 51.1947C16.8342 51.0954 16.8541 51.0059 16.9037 50.986C17.9566 50.5587 19.0392 50.2406 20.1914 49.8828C20.2113 50.1313 20.251 50.3102 20.251 50.499C20.251 52.9241 20.251 55.3591 20.251 57.7842C20.251 58.0227 20.251 58.2712 20.2709 58.5097C20.3206 58.9272 20.4894 59.0961 20.9066 59.1856C21.0755 59.2154 21.2443 59.2253 21.4032 59.275C21.4628 59.2949 21.5125 59.4142 21.5324 59.5036C21.5324 59.5434 21.4628 59.6328 21.4032 59.6527C21.3139 59.6825 21.2145 59.6924 21.1251 59.6924C19.7643 59.6924 18.4036 59.6924 17.0527 59.6924C16.9534 59.6924 16.8541 59.6825 16.7746 59.6428C16.7249 59.6229 16.6753 59.5334 16.6753 59.4738C16.6753 59.4142 16.7151 59.3148 16.7647 59.2949C16.9534 59.2452 17.1422 59.2253 17.3309 59.1856C17.7679 59.1061 17.9268 58.9669 17.9964 58.5495C18.0361 58.3109 18.0559 58.0625 18.0559 57.8239C18.0559 56.194 18.0559 54.5739 18.0559 52.944C18.0559 52.6756 18.0262 52.4073 17.9964 52.1489C17.9566 51.7414 17.7381 51.483 17.3408 51.3736C17.162 51.3239 16.9931 51.2643 16.7746 51.2047L16.7647 51.1947Z" fill="#666666"/>
<path d="M88.25 74.293C87.9818 74.1141 87.7732 73.9949 87.5746 73.8557C86.6806 73.2395 86.6608 71.8878 87.6838 71.3015C88.6572 70.7449 89.6604 70.6952 90.6835 71.1623C90.8325 71.2319 90.9815 71.3313 91.1106 71.4406C91.7066 71.9574 91.7264 72.683 91.1305 73.2097C90.8623 73.4482 90.5345 73.6271 90.1968 73.8557C90.2961 73.9352 90.3955 74.0148 90.5047 74.0843C90.7431 74.2533 91.0113 74.3825 91.2198 74.5813C92.0939 75.3863 91.9946 76.7777 90.9914 77.4039C90.0081 78.0201 88.9254 78.0996 87.8428 77.6921C86.5217 77.1952 86.4224 75.5851 87.4653 74.8297C87.7037 74.6608 87.9421 74.5018 88.25 74.293ZM88.6473 74.462C88.0911 74.8198 87.8825 75.0981 87.7434 75.6447C87.4256 76.8771 88.1308 77.712 89.3923 77.6027C90.028 77.543 90.5246 77.1654 90.6835 76.5989C90.8524 76.0125 90.6438 75.4758 90.0876 75.0981C89.6505 74.7999 89.1638 74.5912 88.6573 74.462H88.6473ZM89.7498 73.7464C90.4948 73.319 90.7927 72.8221 90.7133 72.1562C90.6636 71.7686 90.4749 71.4704 90.1173 71.3114C89.571 71.0629 89.0248 71.0927 88.5083 71.381C87.8825 71.7288 87.803 72.4842 88.3195 72.9712C88.4387 73.0904 88.5877 73.1898 88.7367 73.2594C89.0744 73.4383 89.432 73.5874 89.7598 73.7464H89.7498Z" fill="#666666"/>
<path d="M80.9793 75.9134C79.9165 75.8041 78.9232 75.9433 77.9697 75.824C77.8505 75.506 77.9498 75.2972 78.1087 75.0985C78.3769 74.7605 78.6451 74.4127 78.9133 74.0648C79.6682 73.0908 80.4429 72.1168 81.1779 71.1329C81.4064 70.8248 81.6646 70.6757 82.0421 70.795C82.2109 70.9739 82.1613 71.2024 82.1613 71.4112C82.1613 72.3852 82.1613 73.3492 82.1613 74.3232C82.1613 74.5618 82.1812 74.8003 82.1911 75.0885C82.5288 75.1183 82.8367 75.1382 83.1446 75.168C83.3333 75.3668 83.2737 75.5755 83.2141 75.824C82.9062 75.8538 82.6082 75.8836 82.2805 75.9134C82.0222 76.5098 82.3003 77.1657 82.0917 77.782C81.7838 77.8913 81.4859 77.8515 81.1978 77.8316C80.9892 77.6627 81.0389 77.4639 81.0289 77.2751C81.0091 76.8477 81.0587 76.4104 80.9793 75.9234V75.9134ZM78.5955 75.0388C79.2908 75.1482 80.3237 75.1482 80.9396 75.0587C80.9594 74.9991 81.0091 74.9295 81.0091 74.8699C81.0091 74.0052 81.0091 73.1306 81.0091 72.2659C81.0091 72.2162 80.9396 72.1665 80.87 72.0771C80.1151 73.061 79.39 74.0151 78.6054 75.0488L78.5955 75.0388Z" fill="#666666"/>
<path d="M71.2652 70.6847C71.4837 70.9034 71.742 70.9432 72.0201 70.9531C72.775 70.9531 73.5199 70.963 74.2748 70.973C74.5132 70.973 74.7515 70.9928 74.9701 71.0028C75.1489 71.2711 74.98 71.46 74.9105 71.6488C74.2748 73.2788 73.6292 74.8988 72.9835 76.5188C72.8544 76.8369 72.7451 77.1549 72.6061 77.463C72.3578 78.0196 72.1194 78.1091 71.4241 77.9003C71.3645 77.6121 71.5532 77.3935 71.6625 77.1649C72.3081 75.8629 72.9637 74.5609 73.6192 73.2589C73.8179 72.8713 73.9966 72.4737 74.2052 72.0364C74.0562 71.9967 73.947 71.947 73.8377 71.947C73.0828 71.947 72.3379 71.947 71.5831 71.937C71.1957 71.937 70.9275 72.0464 70.7983 72.434C70.7884 72.4737 70.7388 72.5135 70.709 72.5433C70.699 72.5532 70.6593 72.5433 70.6394 72.5433C70.6196 72.5135 70.5699 72.4638 70.5799 72.434C70.7487 71.9271 70.9175 71.4202 71.0963 70.9233C71.1261 70.8438 71.2056 70.7742 71.2751 70.6748L71.2652 70.6847Z" fill="#666666"/>
<path d="M66.9345 77.7316C66.2889 77.8708 65.0374 77.8807 64.2925 77.7913C64.2527 77.6024 64.4018 77.6124 64.511 77.6024C64.8388 77.5826 64.9778 77.3838 64.9977 77.0757C64.9977 76.9266 64.9977 76.7875 64.9977 76.6384C64.9977 75.5252 64.9977 74.4021 64.9977 73.289C64.9977 72.9709 65.0176 72.6529 64.8785 72.3945C64.6004 72.1162 64.213 72.2454 63.8753 72.0864C64.0144 71.828 64.2627 71.8578 64.4415 71.7683C64.6103 71.6789 64.799 71.6292 64.9679 71.5398C65.1566 71.4404 65.3354 71.3112 65.5241 71.1919C65.683 71.0925 65.832 70.9832 65.991 70.8838C66.2194 71.1223 66.1399 71.3807 66.1399 71.6093C66.1399 73.2592 66.1399 74.909 66.1399 76.5589C66.1399 76.7576 66.1399 76.9465 66.1399 77.1453C66.1399 77.4335 66.279 77.5925 66.577 77.6124C66.6465 77.6124 66.7061 77.6621 66.9048 77.7416L66.9345 77.7316Z" fill="#666666"/>
<path d="M20.2709 47.0407C20.2709 47.7364 19.7147 48.2632 19.0094 48.2532C18.3042 48.2433 17.7878 47.6966 17.7977 47.0009C17.8076 46.3152 18.3738 45.7685 19.0592 45.7785C19.7346 45.7884 20.2808 46.3549 20.2709 47.0506V47.0407Z" fill="#666666"/>
</svg>
