<svg width="152" height="34" viewBox="0 0 152 34" fill="none" xmlns="http://www.w3.org/2000/svg">
<path d="M13.6183 25.9548C10.3107 25.9548 7.0131 25.9548 3.70553 25.9548C2.88112 25.9548 2.05671 25.9548 1.2323 25.9548C0.854863 25.9548 0.854858 25.9548 0.854858 25.5772C0.854858 18.2324 0.854858 10.8876 0.854858 3.5527C0.854858 2.7079 0.854858 1.87304 0.854858 1.02824C0.854858 0.660502 0.874729 0.640625 1.2323 0.640625C7.1621 0.640625 13.0918 0.640625 19.0216 0.640625C21.3458 0.640625 23.68 0.640625 26.0043 0.640625C26.4115 0.640625 26.4513 0.680379 26.4513 1.09781C26.4513 9.17809 26.4513 17.2683 26.4513 25.3486C26.4513 25.9946 26.4811 25.9548 25.8752 25.9548C23.2629 25.9548 20.6406 25.9548 18.0283 25.9548C16.5583 25.9548 15.0983 25.9548 13.6282 25.9548H13.6183ZM16.9855 9.35698C16.9855 9.29735 16.9656 9.27747 16.9755 9.24766C17.0947 8.88986 17.2834 8.55194 17.3331 8.1842C17.4622 7.22014 17.4026 6.27595 16.9755 5.36157C16.608 4.56647 16.1114 3.89062 15.3963 3.38374C15.1976 3.2446 15.1578 3.26448 15.0883 3.49307C14.9493 3.9105 14.84 4.33787 14.6414 4.72549C14.4626 5.08328 14.1149 5.39139 13.6183 5.34169C13.221 5.292 12.7442 4.89445 12.625 4.46708C12.5356 4.15897 12.4562 3.84093 12.3668 3.53283C12.3072 3.31417 12.1383 3.27442 11.9595 3.4235C11.4827 3.80117 11.0755 4.22854 10.7477 4.74536C10.3206 5.43114 10.1319 6.17656 10.0227 6.95179C9.98295 7.22013 9.95313 7.49842 10.0028 7.75683C10.0723 8.17426 10.2213 8.57182 10.3206 8.97931C10.3405 9.04888 10.3008 9.12839 10.2909 9.2079C10.2214 9.19796 10.1418 9.19796 10.0922 9.15821C9.9233 9.05882 9.76439 8.92962 9.60546 8.82029C8.90025 8.34322 8.10565 8.13451 7.26137 8.12457C6.79454 8.12457 6.32768 8.20408 5.87078 8.28359C5.26488 8.38298 4.73843 8.68114 4.23186 9.01906C3.99348 9.17808 4.00343 9.30729 4.25175 9.44643C4.76825 9.73466 5.2053 10.0925 5.51322 10.6292C5.73173 11.0267 5.56289 11.464 5.27484 11.6529C4.74841 12.0007 4.16237 12.1299 3.52668 11.9908C3.16911 11.9113 3.03007 12.0703 3.16912 12.4082C3.30818 12.7461 3.43729 13.1039 3.64587 13.3922C4.03325 13.9388 4.49019 14.4357 5.05635 14.8035C5.63245 15.1811 6.25824 15.4694 6.95352 15.5688C7.2813 15.6085 7.60907 15.6383 7.93685 15.688C8.00638 15.698 8.06591 15.7675 8.12551 15.8073C8.08578 15.857 8.04604 15.9166 7.99638 15.9564C7.7282 16.185 7.44022 16.3837 7.20184 16.6322C6.78467 17.0795 6.45684 17.5963 6.27805 18.1926C6.12906 18.6995 5.98005 19.2064 5.88072 19.7232C5.77146 20.2996 5.99991 20.8463 6.12904 21.3929C6.1787 21.5917 6.35748 21.6414 6.49654 21.542C6.85411 21.2836 7.19191 20.9954 7.57929 20.7966C8.24477 20.4587 9.02944 20.7966 9.05924 21.5917C9.07911 22.1085 8.96976 22.5955 8.72144 23.0428C8.55259 23.3509 8.57253 23.3807 8.92017 23.3906C9.58566 23.4204 10.2015 23.2217 10.8074 22.9831C11.4332 22.7347 11.9694 22.3669 12.4263 21.8998C13.0024 21.3035 13.4395 20.6177 13.5885 19.7828C13.5885 19.7431 13.6381 19.7232 13.6977 19.6437C13.797 19.8325 13.8964 19.9816 13.946 20.1506C14.1149 20.7171 14.4228 21.1941 14.8002 21.6315C15.3465 22.2477 15.9724 22.7347 16.757 23.0229C17.3133 23.2316 17.8695 23.3807 18.4654 23.3807C18.7237 23.3807 18.7932 23.2714 18.7138 23.0428C18.6045 22.7048 18.4852 22.3669 18.3859 22.0191C18.2568 21.6116 18.376 21.2339 18.6442 20.9357C18.9421 20.6077 19.568 20.5581 19.9454 20.7966C20.3129 21.0351 20.6605 21.2935 21.028 21.5321C21.0777 21.5619 21.2268 21.5519 21.2367 21.5122C21.3261 21.3333 21.4254 21.1444 21.4353 20.9556C21.5247 19.9021 21.5445 18.8685 21.0578 17.8547C20.7301 17.1788 20.3229 16.6123 19.7468 16.1452C19.5183 15.9663 19.2898 15.7874 19.0614 15.6085C19.0713 15.5787 19.0813 15.5489 19.1011 15.5191C19.2005 15.5389 19.2997 15.5588 19.409 15.5787C19.4984 15.5986 19.5878 15.6383 19.6672 15.6284C20.4023 15.4892 21.187 15.4793 21.8426 15.0321C22.2498 14.7538 22.6669 14.4954 23.0444 14.1674C23.3026 13.9388 23.5212 13.6506 23.7099 13.3524C23.9483 12.9847 24.1768 12.607 24.2165 12.1498C24.2363 11.9411 24.1767 11.8914 23.9582 11.8914C23.5013 11.8914 23.0246 11.9212 22.5875 11.8218C21.8028 11.6429 21.6538 10.8279 22.0511 10.3012C22.3292 9.9235 22.7662 9.65515 23.1536 9.36692C23.3622 9.2079 23.392 9.05882 23.1636 8.91968C22.9848 8.81035 22.796 8.7209 22.6172 8.62151C21.9617 8.2339 21.2366 8.09475 20.5016 8.08481C20.0645 8.08481 19.6176 8.13451 19.1905 8.22396C18.8429 8.29353 18.5051 8.43267 18.1873 8.59169C17.79 8.79047 17.4225 9.04888 17.0153 9.29735L16.9855 9.35698Z" fill="#666666"/>
<path d="M13.5686 17.4867C13.4594 17.1786 13.3601 16.8606 13.2508 16.5525C13.1813 16.3537 13.0621 16.3636 12.923 16.4829C12.7144 16.6518 12.5059 16.8208 12.2775 16.9798C11.9795 17.1786 11.5821 17.1488 11.3139 16.9103C11.2444 16.8506 11.1849 16.7512 11.175 16.6618C11.1352 16.2642 11.1153 15.8766 11.3338 15.5089C11.4828 15.2703 11.3835 15.1014 11.1054 15.0815C10.8968 15.0716 10.6882 15.0815 10.4796 15.0815C10.3902 15.0815 10.3009 15.0418 10.1618 15.0119C10.5194 14.7535 10.8272 14.5349 11.1848 14.2765C11.0259 14.1473 10.8968 14.028 10.7577 13.9385C10.4101 13.7099 10.0326 13.5211 10.0029 13.0242C9.98299 12.6862 10.1319 12.4676 10.4498 12.3384C10.7676 12.1992 11.0855 12.1794 11.4331 12.2191C11.7112 12.2489 11.8106 12.1098 11.7212 11.8315C11.6318 11.5731 11.5523 11.3147 11.4331 10.9768C11.6417 11.106 11.8006 11.2054 11.9596 11.3047C12.0787 11.3843 12.1979 11.4638 12.3171 11.5433C12.5257 11.6625 12.6449 11.6029 12.7144 11.3743C12.7939 11.1259 12.8833 10.8873 12.9628 10.6488C13.072 10.3109 13.3601 10.2214 13.6482 10.1717C13.8468 10.1419 14.254 10.4898 14.3434 10.7184C14.403 10.8674 14.4726 11.0165 14.5223 11.1755C14.5719 11.3246 14.5918 11.4836 14.6315 11.7222C14.9394 11.5035 15.2076 11.3246 15.4758 11.1457C15.5254 11.106 15.5949 11.096 15.6545 11.0762C15.6644 11.1358 15.7042 11.1954 15.6843 11.2551C15.6545 11.3743 15.6049 11.4936 15.5751 11.6129C15.5353 11.7421 15.4857 11.8713 15.4658 12.0005C15.436 12.1992 15.4857 12.2986 15.744 12.2489C16.1512 12.1595 16.5484 12.2191 16.9259 12.408C17.2636 12.5769 17.3728 13.0242 17.1444 13.3025C16.906 13.5907 16.6875 13.9087 16.3001 14.028C16.1213 14.0876 16.1016 14.3162 16.2605 14.4355C16.4989 14.6343 16.7471 14.8132 17.065 15.0517C16.618 15.0914 16.2108 15.1213 15.7738 15.161C15.883 15.4393 15.9624 15.658 16.0617 15.8567C16.2505 16.2245 16.181 16.7612 15.8731 17.0295C15.6546 17.2184 15.3566 17.1885 15.1281 17.0792C14.86 16.9599 14.6414 16.7512 14.3931 16.5823C14.3236 16.5326 14.1944 16.4232 14.1745 16.4431C14.0653 16.5226 13.9561 16.632 13.9064 16.7512C13.7972 17.0096 13.7177 17.278 13.6283 17.5463L13.5587 17.5165L13.5686 17.4867Z" fill="#666666"/>
<path d="M151.94 26.5514C151.901 26.4619 151.851 26.3824 151.801 26.2929C151.613 25.8954 151.424 25.4978 151.235 25.1003C151.046 24.7226 150.848 24.3449 150.669 23.9673C150.49 23.6095 150.321 23.2417 150.143 22.874C149.864 22.3075 149.576 21.731 149.298 21.1645C149.12 20.8067 148.941 20.439 148.762 20.0812C148.563 19.6836 148.365 19.296 148.166 18.9084C147.977 18.5307 147.809 18.1431 147.63 17.7654C147.431 17.3679 147.232 16.9703 147.024 16.5628C146.845 16.205 146.656 15.8373 146.478 15.4795C146.289 15.1018 146.11 14.7241 145.921 14.3465C145.732 13.9489 145.544 13.5514 145.345 13.1538C145.147 12.7562 144.948 12.3686 144.749 11.9711C144.57 11.6133 144.412 11.2356 144.233 10.8778C144.024 10.4504 143.796 10.033 143.597 9.60564C143.418 9.21802 143.378 9.17827 142.951 9.17827C141.869 9.17827 140.776 9.18821 139.693 9.17827C139.276 9.17827 138.909 9.17827 138.819 9.69508C138.819 9.71496 138.79 9.73484 138.77 9.76466C138.591 10.1225 138.402 10.4803 138.223 10.848C137.965 11.3847 137.717 11.9313 137.459 12.468C137.18 13.0345 136.892 13.5812 136.624 14.1477C136.426 14.5452 136.247 14.9627 136.048 15.3602C135.859 15.7578 135.661 16.1553 135.472 16.5429C135.273 16.9405 135.075 17.348 134.886 17.7555C134.697 18.1332 134.519 18.5108 134.34 18.8985C134.171 19.2562 134.012 19.614 133.833 19.9718C133.565 20.4986 133.287 21.0154 133.019 21.5521C132.76 22.0789 132.522 22.6255 132.264 23.1622C131.996 23.7188 131.708 24.2654 131.439 24.822C131.31 25.0903 131.201 25.1202 131.012 24.8816C130.605 24.3648 130.208 23.848 129.81 23.3212C129.334 22.705 128.867 22.0689 128.38 21.4527C127.923 20.8663 127.446 20.2899 126.94 19.6637C127.069 19.6041 127.159 19.5544 127.258 19.5147C127.675 19.3656 128.122 19.2562 128.519 19.0575C129.274 18.6699 129.91 18.1332 130.396 17.4275C131.022 16.5231 131.31 15.5093 131.36 14.4359C131.38 13.9489 131.231 13.452 131.191 12.965C131.141 12.4084 130.903 11.9214 130.645 11.4543C130.307 10.848 129.85 10.3212 129.244 9.94356C128.569 9.50625 127.844 9.1882 127.049 9.1882C122.55 9.16833 118.05 9.17827 113.551 9.17827C113.342 9.17827 113.273 9.24784 113.273 9.46649C113.273 15.0124 113.273 20.5682 113.273 26.114C113.273 26.8098 113.273 26.8098 113.978 26.8098C114.842 26.8098 115.696 26.8098 116.56 26.8098C116.789 26.8098 116.888 26.7303 116.868 26.4917C116.848 26.3029 116.868 26.114 116.868 25.9252C116.868 21.413 116.868 16.9107 116.868 12.3984C116.868 12.0108 116.908 11.9711 117.305 11.9711C120.007 11.9711 122.699 11.9711 125.4 11.9711C125.718 11.9711 126.066 12.0108 126.344 12.15C127.029 12.4978 127.387 13.1538 127.486 13.8694C127.546 14.3166 127.317 14.8136 127.218 15.2907C127.208 15.3602 127.149 15.4199 127.099 15.4696C126.682 15.9267 126.145 16.1851 125.53 16.1851C123.414 16.1951 121.288 16.1851 119.173 16.1851C119.073 16.1851 118.974 16.1752 118.875 16.1851C118.825 16.1851 118.755 16.2249 118.726 16.2746C118.716 16.2945 118.755 16.374 118.785 16.4038C119.371 17.1293 119.967 17.8648 120.553 18.5903C121.398 19.6439 122.242 20.7073 123.096 21.7608C123.831 22.6752 124.566 23.5796 125.301 24.4841C125.887 25.1997 126.463 25.9252 127.059 26.6309C127.139 26.7203 127.297 26.7899 127.417 26.7899C128.33 26.7998 129.244 26.7899 130.158 26.7899C131.747 26.7899 133.327 26.7899 134.916 26.7899C135.015 26.7899 135.174 26.7501 135.214 26.6806C135.462 26.2234 135.681 25.7562 135.909 25.2891C136.098 24.9015 136.267 24.504 136.455 24.1263C136.654 23.7188 136.883 23.3212 137.061 22.9038C137.171 22.6454 137.32 22.5261 137.608 22.5261C139.197 22.5261 140.796 22.5261 142.385 22.5261C143.438 22.5261 144.491 22.5261 145.534 22.5261C145.643 22.5261 145.782 22.5559 145.842 22.6255C145.951 22.7547 146.021 22.9336 146.11 23.0926C146.319 23.5001 146.517 23.9076 146.716 24.3251C146.905 24.7127 147.093 25.1003 147.272 25.4879C147.441 25.8457 147.6 26.2134 147.779 26.5613C147.858 26.7203 147.997 26.7998 148.196 26.7998C148.832 26.7899 149.467 26.7998 150.093 26.7998C150.649 26.7998 151.195 26.7998 151.752 26.7998C151.821 26.7998 151.911 26.77 151.96 26.7104C151.98 26.6806 151.93 26.5812 151.901 26.5215L151.94 26.5514ZM143.945 19.7432C143.339 19.7432 142.733 19.7432 142.127 19.7432C141.899 19.7432 141.67 19.7432 141.452 19.7432C140.627 19.7432 139.803 19.7432 138.978 19.7432C138.74 19.7432 138.66 19.624 138.76 19.3954C138.899 19.0773 139.018 18.7494 139.157 18.4313C139.346 17.994 139.544 17.5666 139.733 17.1293C139.922 16.6721 140.101 16.1951 140.28 15.728C140.438 15.3304 140.617 14.9329 140.776 14.5353C140.915 14.2173 141.034 13.8893 141.183 13.5712C141.223 13.4818 141.332 13.3526 141.372 13.3625C141.461 13.3923 141.571 13.4718 141.61 13.5613C141.829 14.0185 142.028 14.4955 142.236 14.9627C142.425 15.39 142.604 15.8274 142.783 16.2547C142.951 16.6324 143.12 17.0101 143.289 17.3877C143.488 17.8251 143.686 18.2524 143.875 18.6897C143.974 18.9084 144.064 19.137 144.163 19.3556C144.292 19.624 144.243 19.7333 143.935 19.7333L143.945 19.7432Z" fill="#666666"/>
<path d="M50.7864 18.2629C50.538 17.9448 50.2698 17.6268 49.9619 17.3783C49.5447 17.0503 49.1076 16.7124 48.5713 16.5832C48.0945 16.4739 47.6178 16.2651 47.1311 16.2651C45.1644 16.2254 43.1977 16.2453 41.241 16.2453C40.3073 16.2453 39.3737 16.2552 38.44 16.2453C38.152 16.2453 37.8441 16.2751 37.6156 16.0067C37.3673 15.7086 37.2779 15.3607 37.1686 14.993C36.9004 14.0985 37.0594 13.2636 37.4567 12.4586C37.6156 12.1405 37.9036 11.9815 38.2512 11.9815C40.6549 11.9815 43.0487 11.9815 45.4524 11.9815C46.8628 11.9815 48.2733 11.9815 49.6937 11.9815C50.0711 11.9815 50.1208 11.9219 50.1208 11.5641C50.1208 10.9181 50.1208 10.282 50.1208 9.63594C50.1208 9.19863 50.1208 9.19863 49.6937 9.19863C47.6972 9.19863 45.7106 9.19863 43.7142 9.19863C42.2442 9.19863 40.7841 9.18869 39.3141 9.19863C38.5095 9.19863 37.695 9.11912 36.8905 9.36759C36.2647 9.55643 35.6787 9.8049 35.2119 10.2422C34.8543 10.5801 34.5564 10.9976 34.2584 11.3951C33.9207 11.8523 33.722 12.3791 33.6227 12.9356C33.6028 13.0549 33.5928 13.1742 33.5531 13.2835C33.2253 14.3171 33.4339 15.3408 33.6922 16.3447C33.8114 16.7919 34.0696 17.2093 34.298 17.6268C34.8344 18.6207 35.7184 19.2269 36.7613 19.545C37.2679 19.704 37.8242 19.7636 38.3606 19.7636C40.8537 19.7835 43.3367 19.7636 45.8298 19.7736C46.0484 19.7736 46.2868 19.7736 46.4656 19.863C47.1807 20.2109 47.5483 20.8171 47.6675 21.5824C47.7171 21.9303 47.6973 22.2881 47.6675 22.6359C47.6178 23.0931 47.3695 23.431 46.992 23.6895C46.545 23.9976 46.0286 24.0373 45.5121 24.0373C42.8004 24.0473 40.0789 24.0373 37.3673 24.0373C36.3641 24.0373 35.3609 24.0373 34.3478 24.0373C33.9604 24.0373 33.9008 24.0969 33.9008 24.4746C33.9008 25.071 33.9008 25.6673 33.9008 26.2636C33.9008 26.7506 33.9305 26.7904 34.4172 26.7904C36.9997 26.7904 39.5823 26.7904 42.1548 26.7904C43.595 26.7904 45.0353 26.7804 46.4755 26.7904C47.2105 26.7904 47.9257 26.8699 48.6508 26.6612C49.2368 26.4922 49.7831 26.2835 50.2698 25.9058C50.9552 25.3691 51.412 24.6635 51.6901 23.8584C51.8888 23.272 51.9782 22.6558 51.9782 22.0297C51.9782 21.3041 51.8788 20.6084 51.6603 19.9326C51.4617 19.3362 51.1935 18.7598 50.7962 18.2728L50.7864 18.2629Z" fill="#666666"/>
<path d="M72.5189 24.7822C72.4196 24.5934 72.3402 24.3946 72.2409 24.2058C72.1316 23.9871 72.0025 23.7684 71.8932 23.5498C71.7045 23.1721 71.5356 22.7944 71.3469 22.4168C71.1482 22.0093 70.9397 21.6117 70.741 21.2042C70.5622 20.8464 70.4033 20.4687 70.2245 20.1109C70.0358 19.7333 69.8272 19.3755 69.6385 18.9978C69.4498 18.6201 69.2809 18.2424 69.1021 17.8548C68.8935 17.4275 68.6849 17.0001 68.4763 16.5727C68.2976 16.205 68.1089 15.8372 67.9202 15.4695C67.7215 15.0819 67.5228 14.6843 67.3341 14.2967C67.1553 13.929 66.9864 13.5513 66.8076 13.1836C66.6189 12.796 66.4103 12.4183 66.2216 12.0307C66.0329 11.6629 65.8641 11.2853 65.6853 10.9175C65.4767 10.4902 65.2581 10.0727 65.0793 9.63541C64.9303 9.27761 64.8112 9.17823 64.4239 9.18816C63.8577 9.18816 63.2815 9.18816 62.7154 9.18816C62.0697 9.18816 61.4341 9.18816 60.7885 9.18816C60.5898 9.18816 60.4507 9.2478 60.3713 9.45651C60.2123 9.87394 60.0237 10.2715 59.835 10.679C59.6264 11.1262 59.4178 11.5735 59.2092 12.0207C59.0304 12.3984 58.8814 12.796 58.7026 13.1736C58.4345 13.76 58.1364 14.3365 57.8682 14.9129C57.6795 15.3105 57.5107 15.718 57.3319 16.1155C57.1333 16.5429 56.9247 16.9703 56.7261 17.3976C56.5473 17.7853 56.3883 18.1729 56.2095 18.5505C55.9314 19.1469 55.6434 19.7432 55.3653 20.3495C55.1865 20.7371 55.0176 21.1346 54.8289 21.5223C54.6501 21.8999 54.4415 22.2677 54.2726 22.6553C53.9448 23.3808 53.627 24.1163 53.2992 24.8418C53.041 25.4083 52.753 25.9649 52.4749 26.5314C52.3954 26.6905 52.4054 26.8197 52.6338 26.8197C53.9251 26.8197 55.2261 26.8197 56.5174 26.8197C56.5869 26.8197 56.6764 26.77 56.7062 26.7103C56.875 26.3724 57.0339 26.0345 57.1929 25.6966C57.3617 25.3388 57.5207 24.981 57.6994 24.6232C57.9676 24.0666 58.2556 23.52 58.5139 22.9634C58.6728 22.6155 58.7522 22.546 59.1197 22.546C61.7519 22.546 64.3941 22.546 67.0262 22.546C67.1355 22.546 67.2447 22.546 67.354 22.5658C67.4235 22.5857 67.5228 22.6255 67.5526 22.6851C67.8009 23.1622 68.0294 23.6392 68.2678 24.1163C68.4665 24.5139 68.6551 24.9213 68.8438 25.3189C69.0326 25.7264 69.2411 26.1239 69.4199 26.5314C69.4994 26.7103 69.5988 26.7998 69.7776 26.7998C70.9496 26.7998 72.1117 26.7998 73.2837 26.7998C73.4625 26.7998 73.5122 26.7203 73.4327 26.5513C73.1348 25.955 72.8367 25.3487 72.5388 24.7524L72.5189 24.7822ZM65.0793 19.7432C64.3443 19.7233 63.6093 19.7432 62.8743 19.7432C62.04 19.7432 61.2056 19.7432 60.3713 19.7432C60.2918 19.7432 60.1826 19.7035 60.1528 19.6438C60.123 19.5842 60.1727 19.4749 60.2025 19.4053C60.3912 19.0077 60.5799 18.6201 60.7686 18.2325C60.858 18.0437 60.9474 17.8449 61.0368 17.6461C61.3348 17.02 61.6328 16.3839 61.9308 15.7577C62.1095 15.39 62.3181 15.0322 62.5068 14.6645C62.6161 14.4557 62.6956 14.247 62.7949 14.0383C62.8148 13.9886 62.8644 13.9389 62.9141 13.929C62.9439 13.929 63.0035 13.9787 63.0233 14.0184C63.1823 14.3365 63.3312 14.6645 63.4802 14.9924C63.6788 15.3999 63.8776 15.7975 64.0663 16.205C64.1855 16.4435 64.2848 16.692 64.394 16.9405C64.4735 17.1194 64.553 17.2983 64.6424 17.4772C64.9105 18.0139 65.1986 18.5406 65.437 19.0872C65.6655 19.614 65.8343 19.783 65.0596 19.7631L65.0793 19.7432Z" fill="#666666"/>
<path d="M109.439 9.19824C108.485 9.19824 107.541 9.19824 106.588 9.19824C106.359 9.19824 106.3 9.26782 106.3 9.49641C106.3 11.2953 106.3 13.1042 106.3 14.9031C106.3 16.0262 106.31 17.1493 106.3 18.2724C106.28 19.2365 106.429 20.2105 106.081 21.1447C105.992 21.3932 105.893 21.6516 105.734 21.8603C105.326 22.407 104.74 22.556 104.085 22.556C102.476 22.5461 100.857 22.5759 99.2476 22.5461C98.3736 22.5262 97.5094 22.397 96.6353 22.3274C96.3572 22.3076 96.2182 22.1088 96.1188 21.9001C95.8308 21.2938 95.7613 20.618 95.7513 19.9819C95.7116 16.5132 95.7316 13.0446 95.7316 9.57592C95.7316 9.22806 95.7116 9.20818 95.3639 9.20818C94.2912 9.20818 93.2284 9.20818 92.1557 9.20818C91.4108 9.20818 91.5498 9.14855 91.5498 9.80451C91.5498 12.9054 91.5498 16.0163 91.5498 19.1172C91.5498 19.1967 91.5498 19.2762 91.5598 19.3557V23.6592C91.5598 23.6592 91.5001 26.4719 94.3707 26.4719H107.025C107.025 26.4719 109.886 26.4123 109.886 23.6096V9.25788H109.697C109.697 9.25788 109.568 9.20818 109.409 9.20818L109.439 9.19824Z" fill="#666666"/>
<path d="M88.4906 24.1764C87.7158 23.2919 86.9312 22.4172 86.1564 21.5327C85.4115 20.6779 84.6765 19.8232 83.9315 18.9685C83.574 18.551 83.2064 18.1435 82.8488 17.7261C82.6501 17.4975 82.6501 17.1795 82.8289 16.9807C83.5738 16.1359 84.309 15.2911 85.0539 14.4562C85.7095 13.7208 86.375 12.9952 87.0305 12.2598C87.9046 11.2758 88.7786 10.2819 89.7023 9.24828C89.5831 9.2284 89.4937 9.19859 89.4143 9.19859C87.9045 9.19859 86.3948 9.19859 84.8751 9.19859C84.7857 9.19859 84.6565 9.21846 84.5969 9.2781C84.1301 9.73528 83.6732 10.2024 83.2063 10.6695C82.4117 11.4646 81.6272 12.2598 80.8325 13.0549C80.0479 13.84 79.2631 14.6153 78.4784 15.3905C78.4188 15.4501 78.3294 15.4899 78.25 15.5396C78.2202 15.4501 78.1705 15.3607 78.1705 15.2712C78.1705 13.363 78.1705 11.4547 78.1705 9.53651C78.1705 9.25822 78.0712 9.17871 77.803 9.17871C76.9588 9.18865 76.1144 9.17871 75.2801 9.17871C74.8431 9.17871 74.6246 9.39074 74.6246 9.81479C74.6246 15.311 74.6246 20.8071 74.6246 26.3033C74.6246 26.7208 74.6743 26.7705 75.0914 26.7705C75.9655 26.7705 76.8495 26.7705 77.7236 26.7705C78.111 26.7705 78.1606 26.7108 78.1606 26.3331C78.1606 25.1405 78.1606 23.9478 78.1606 22.7452C78.1606 21.4929 78.1606 20.2506 78.1606 18.9983C78.1606 18.9088 78.2102 18.8194 78.24 18.7299C78.3095 18.7796 78.3891 18.8094 78.4487 18.8691C79.3526 19.7934 80.2564 20.7276 81.1702 21.6619C82.1238 22.6458 83.0972 23.6099 84.0507 24.5938C84.6069 25.1604 85.1631 25.7368 85.7094 26.3232C86.0173 26.6512 86.3451 26.8102 86.8119 26.7903C88.0038 26.7506 89.2057 26.7903 90.3976 26.7903C90.4572 26.7903 90.5268 26.7506 90.5864 26.7307C90.5665 26.6711 90.5566 26.6114 90.5169 26.5717C89.8315 25.7666 89.156 24.9715 88.4608 24.1764H88.4906Z" fill="#666666"/>
<path d="M8.11556 30.0797C8.11556 30.0797 8.08584 30.0101 8.06597 29.9704C8.0461 29.9207 8.02617 29.871 7.99637 29.8213C7.95664 29.7418 7.91692 29.6623 7.87719 29.5827C7.84739 29.5231 7.81762 29.4535 7.78783 29.3939L7.76794 29.374C7.76794 29.374 7.74806 29.384 7.74806 29.3939C7.72819 29.4337 7.70839 29.4734 7.68852 29.5231C7.64879 29.5927 7.60908 29.6623 7.57928 29.7418C7.51968 29.861 7.46003 29.9902 7.40044 30.1095C7.38057 30.1493 7.36066 30.189 7.35073 30.2288C7.311 30.3083 7.27128 30.3878 7.24148 30.4574C7.24148 30.4673 7.22161 30.4971 7.23154 30.5071C7.23154 30.517 7.26138 30.5269 7.27131 30.5269C7.44016 30.5269 7.59909 30.5269 7.76794 30.5269C7.91693 30.5269 8.05593 30.5269 8.20492 30.5269C8.36384 30.5269 8.32419 30.4971 8.28446 30.3977C8.2348 30.2884 8.1851 30.189 8.1255 30.0797H8.11556Z" fill="#666666"/>
<path d="M26.4116 27.2966C26.4116 27.0879 26.2924 27.1177 26.1633 27.1177C22.0115 27.1177 17.8496 27.1177 13.6978 27.1177C9.54594 27.1177 5.38423 27.1177 1.23238 27.1177C0.974133 27.1177 0.904536 27.1873 0.914469 27.4357C0.914469 29.1949 0.914469 30.9441 0.914469 32.7033C0.914469 32.8623 0.894603 33.0313 0.914469 33.1903C0.914469 33.2499 1.01382 33.3493 1.06348 33.3593C1.77863 33.3692 2.49382 33.3692 3.20897 33.3692C6.06958 33.3692 8.93019 33.3692 11.7908 33.3692C14.8103 33.3692 17.8398 33.3692 20.8593 33.3692C22.6373 33.3692 24.4053 33.3692 26.1832 33.3692C26.4017 33.3692 26.4216 33.2698 26.4216 33.1009C26.4116 32.4946 26.4017 31.8883 26.4017 31.2821C26.4017 29.9503 26.4117 28.6184 26.4315 27.2866L26.4116 27.2966ZM5.55306 31.3516C5.49347 31.5107 5.40404 31.6498 5.27492 31.7591C5.17559 31.8287 5.06639 31.8784 4.95713 31.9082C4.81807 31.948 4.66903 31.938 4.52997 31.938C4.24192 31.938 3.96382 31.938 3.67578 31.938C3.16921 31.938 2.65267 31.938 2.14611 31.938C2.04678 31.938 2.04681 31.938 2.04681 31.8386C2.04681 31.7194 2.04681 31.6001 2.04681 31.4808C2.04681 31.4113 2.0567 31.3914 2.13617 31.3914C2.33482 31.3914 2.53357 31.3914 2.73222 31.3914C3.26859 31.3914 3.80494 31.3914 4.34131 31.3914C4.44063 31.3914 4.53988 31.3914 4.62927 31.3218C4.6988 31.2721 4.7584 31.2025 4.7584 31.1131C4.7584 31.0435 4.76833 30.974 4.7584 30.9044C4.73854 30.7553 4.65908 30.636 4.52003 30.5665C4.4803 30.5466 4.44056 30.5466 4.3909 30.5466C3.89427 30.5466 3.40758 30.5466 2.91094 30.5466C2.80168 30.5466 2.69248 30.5366 2.59315 30.5068C2.38456 30.4472 2.21572 30.3279 2.10646 30.1292C2.06673 30.0496 2.00714 29.9701 1.98727 29.8807C1.93761 29.6819 1.89785 29.4831 1.95745 29.2744C1.95745 29.2545 1.95746 29.2247 1.96739 29.2048C1.98725 29.0955 2.02699 28.9862 2.09652 28.8967C2.15611 28.8172 2.21565 28.7377 2.28518 28.6681C2.37457 28.5787 2.49384 28.529 2.61304 28.4992C2.77196 28.4495 2.93086 28.4694 3.08978 28.4694C3.37783 28.4694 3.66588 28.4694 3.96386 28.4694C4.36117 28.4694 4.74848 28.4694 5.14579 28.4694C5.23518 28.4694 5.23515 28.4694 5.23515 28.5588C5.23515 28.688 5.23515 28.8172 5.23515 28.9365C5.23515 29.0061 5.23519 29.016 5.15573 29.016C4.87762 29.016 4.59954 29.016 4.32142 29.016C3.84466 29.016 3.37777 29.016 2.901 29.016C2.83147 29.016 2.77184 29.0458 2.74204 29.1055C2.66258 29.2645 2.63285 29.4334 2.68251 29.6024C2.70238 29.672 2.72221 29.7415 2.77187 29.8012C2.82153 29.8509 2.88116 29.8509 2.93083 29.8509C3.11955 29.8509 3.29827 29.8509 3.48699 29.8509C3.87437 29.8509 4.26178 29.8509 4.64916 29.8509C4.74848 29.8509 4.83792 29.8906 4.93724 29.9105C5.0465 29.9403 5.12599 29.9999 5.21539 30.0695C5.27498 30.1192 5.32457 30.1788 5.38416 30.2484C5.46362 30.3478 5.51333 30.4571 5.55306 30.5764C5.59279 30.7056 5.6126 30.8447 5.6126 30.9938C5.6126 31.123 5.59279 31.2423 5.55306 31.3516ZM9.81421 31.938C9.58576 31.938 9.35724 31.938 9.11885 31.938C9.07912 31.938 9.05931 31.9181 9.04938 31.8883C9.01958 31.8088 8.96993 31.7293 8.94013 31.6498C8.9004 31.5703 8.86068 31.4908 8.82094 31.4113C8.77128 31.3119 8.73154 31.2224 8.68187 31.123C8.68187 31.1131 8.66197 31.1032 8.6421 31.1032C8.62224 31.1032 8.60231 31.1032 8.58245 31.1032C8.06595 31.1032 7.53957 31.1032 7.02308 31.1032C6.95355 31.1032 6.93369 31.1131 6.90389 31.1827C6.85423 31.292 6.7946 31.4013 6.74493 31.5107C6.71513 31.5802 6.67543 31.6498 6.64563 31.7194C6.61583 31.7889 6.58606 31.8585 6.54633 31.9181C6.54633 31.9281 6.51649 31.938 6.50656 31.938C6.24831 31.938 5.99004 31.938 5.74172 31.938C5.70199 31.938 5.69215 31.9082 5.71202 31.8784C5.76168 31.7691 5.82119 31.6597 5.87085 31.5405C5.94038 31.4013 6.00004 31.2522 6.05964 31.1131C6.08944 31.0336 6.13908 30.964 6.16888 30.8845C6.20861 30.805 6.2384 30.7255 6.27813 30.6559C6.33772 30.5366 6.38743 30.4174 6.44703 30.2981C6.48676 30.2186 6.51653 30.149 6.54633 30.0695C6.58606 29.9801 6.62578 29.9006 6.66551 29.821C6.70525 29.7415 6.73503 29.662 6.77476 29.5825C6.82442 29.4633 6.88406 29.3539 6.94366 29.2347C6.98339 29.1551 7.01316 29.0856 7.04296 29.0061C7.08269 28.9166 7.12242 28.8272 7.16215 28.7377C7.20188 28.6582 7.23166 28.5787 7.27139 28.4992C7.29126 28.4594 7.31108 28.4495 7.35081 28.4495C7.47993 28.4495 7.60906 28.4495 7.72826 28.4495C7.83751 28.4495 7.95679 28.4495 8.06605 28.4495C8.14551 28.4495 8.16538 28.4694 8.19518 28.5389C8.23491 28.6284 8.27464 28.7079 8.31437 28.7874C8.3541 28.857 8.38388 28.9365 8.42361 29.0061C8.46335 29.0856 8.50307 29.1551 8.5428 29.2347C8.58253 29.3042 8.61232 29.3837 8.65205 29.4533C8.69178 29.5328 8.7315 29.6123 8.77123 29.6819C8.81096 29.7515 8.84075 29.831 8.88048 29.9006C8.92021 29.9801 8.95993 30.0695 8.99967 30.149C9.0394 30.2285 9.06918 30.2981 9.10891 30.3776C9.14864 30.4472 9.18837 30.5267 9.2281 30.5963C9.26783 30.6658 9.2976 30.7454 9.3274 30.8149C9.36713 30.8944 9.40686 30.974 9.44659 31.0535C9.48632 31.123 9.51622 31.2025 9.55595 31.2721C9.57582 31.3119 9.60556 31.3616 9.62543 31.4013C9.64529 31.4411 9.66522 31.4808 9.68508 31.5107C9.74468 31.6299 9.80421 31.7492 9.8638 31.8685C9.88367 31.8983 9.86377 31.9181 9.83397 31.9181L9.81421 31.938ZM13.2012 31.9281C12.9628 31.9281 12.7244 31.9281 12.496 31.9281C12.4066 31.9281 12.3371 31.8983 12.2775 31.8386C12.1682 31.7194 12.0589 31.61 11.9496 31.5007C11.7609 31.3119 11.5722 31.1131 11.3835 30.9243C11.2047 30.7454 11.0259 30.5565 10.8471 30.3776C10.8372 30.3677 10.8174 30.3577 10.8075 30.3478C10.8075 30.3677 10.7876 30.3876 10.7876 30.3975C10.7876 30.646 10.7876 30.8944 10.7876 31.1429C10.7876 31.3814 10.7876 31.62 10.7876 31.8486C10.7876 31.9281 10.7776 31.938 10.6981 31.938C10.5293 31.938 10.3506 31.938 10.1817 31.938C10.1023 31.938 10.0922 31.938 10.0922 31.8486C10.0922 30.7652 10.0922 29.672 10.0922 28.5886C10.0922 28.5025 10.1353 28.4594 10.2214 28.4594C10.3902 28.4594 10.5591 28.4594 10.718 28.4594C10.7677 28.4594 10.7876 28.4694 10.7876 28.529C10.7876 28.9067 10.7876 29.2844 10.7876 29.662C10.7876 29.6819 10.7975 29.7018 10.8075 29.7117C10.8174 29.7117 10.8372 29.6918 10.8471 29.6819C11.006 29.5328 11.155 29.3738 11.3139 29.2247C11.4729 29.0657 11.6319 28.9067 11.7809 28.7576C11.8703 28.6681 11.9596 28.5688 12.0589 28.4793C12.0688 28.4694 12.0987 28.4594 12.1086 28.4594C12.4066 28.4594 12.7046 28.4594 13.0026 28.4594C13.0224 28.4594 13.0323 28.4594 13.0621 28.4694C12.8833 28.6781 12.7046 28.8669 12.5357 29.0657C12.4066 29.2148 12.2775 29.3539 12.1484 29.503C11.9994 29.672 11.8503 29.831 11.7113 29.9999C11.6715 30.0397 11.6815 30.0993 11.7113 30.149C11.7808 30.2285 11.8504 30.3081 11.9199 30.3975C12.0689 30.5665 12.2079 30.7354 12.3569 30.9044C12.5059 31.0833 12.6648 31.2522 12.8138 31.4311C12.9528 31.5902 13.082 31.7492 13.221 31.9082C13.221 31.9082 13.2211 31.9281 13.231 31.938C13.2211 31.938 13.2011 31.948 13.1912 31.948L13.2012 31.9281ZM17.055 31.292C17.055 31.8486 16.4889 31.8585 16.4889 31.8585H13.9859C13.4197 31.8585 13.4296 31.3019 13.4296 31.3019V30.4472C13.4296 30.4472 13.4296 30.4174 13.4296 30.3975C13.4296 29.7813 13.4296 29.1651 13.4296 28.5588C13.4296 28.4296 13.3998 28.4396 13.5488 28.4396C13.7574 28.4396 13.9759 28.4396 14.1845 28.4396C14.254 28.4396 14.2541 28.4396 14.2541 28.5091C14.2541 29.1949 14.2541 29.8807 14.2541 30.5665C14.2541 30.6957 14.2739 30.8249 14.3236 30.9441C14.3434 30.9839 14.3732 31.0236 14.4229 31.0236C14.5917 31.0336 14.7705 31.0634 14.9394 31.0634C15.2572 31.0634 15.5751 31.0634 15.893 31.0634C16.0221 31.0634 16.1413 31.0336 16.2207 30.9243C16.2505 30.8845 16.2703 30.8348 16.2902 30.7851C16.3597 30.5963 16.33 30.4074 16.33 30.2186C16.33 29.9999 16.33 29.7714 16.33 29.5527C16.33 29.1949 16.33 28.8371 16.33 28.4892C16.33 28.4495 16.34 28.4296 16.3896 28.4296C16.5783 28.4296 16.767 28.4296 16.9557 28.4296C16.9855 28.4296 17.0055 28.4296 17.0154 28.4396H17.055V31.2721V31.292ZM25.329 31.9281C25.2198 31.9281 25.1104 31.9281 25.0012 31.9281C24.872 31.9281 24.7528 31.9281 24.6237 31.9281C24.584 31.9281 24.5542 31.9082 24.5443 31.8784C24.5046 31.8088 24.4748 31.7392 24.445 31.6697C24.4053 31.5902 24.3755 31.5206 24.3357 31.4411C24.296 31.3616 24.2563 31.2821 24.2166 31.2025C24.1967 31.1727 24.1867 31.133 24.1668 31.1131C24.1569 31.1032 24.1271 31.0932 24.1072 31.0932C23.8986 31.0932 23.69 31.0932 23.4814 31.0932C23.1636 31.0932 22.8557 31.0932 22.5379 31.0932C22.4783 31.0932 22.4485 31.1131 22.4286 31.1727C22.3889 31.2522 22.3492 31.3318 22.3094 31.4113C22.2697 31.4908 22.2399 31.5703 22.2002 31.6399C22.1605 31.7293 22.1108 31.8287 22.0611 31.9181C22.0611 31.9281 22.0213 31.938 22.0015 31.938C21.6836 31.938 21.3758 31.938 21.0579 31.938C20.8791 31.938 20.7003 31.938 20.5116 31.938C20.4917 31.938 20.452 31.9281 20.4421 31.9082C20.3229 31.7691 20.2137 31.6299 20.0945 31.4808C19.9455 31.3019 19.8064 31.123 19.6574 30.9441C19.4885 30.7354 19.3197 30.5267 19.1508 30.318C19.0316 30.1689 18.9224 30.0298 18.8032 29.8906C18.8032 29.8906 18.7932 29.8707 18.7932 29.8608C18.7932 29.8608 18.8131 29.8409 18.8231 29.8409C18.8429 29.8409 18.8627 29.8409 18.8826 29.8409C19.2998 29.8409 19.717 29.8409 20.1341 29.8409C20.2533 29.8409 20.3626 29.7912 20.4421 29.7018C20.4421 29.6918 20.462 29.6819 20.462 29.662C20.4819 29.5726 20.5314 29.4732 20.5116 29.3837C20.4917 29.2446 20.4222 29.1154 20.2831 29.0458C20.2335 29.016 20.164 29.0061 20.0945 29.0061C19.5581 29.0061 19.0317 29.0061 18.4953 29.0061C18.4159 29.0061 18.4059 29.0061 18.4059 29.0955C18.4059 29.99 18.4059 30.8746 18.4059 31.7691C18.4059 31.8088 18.4059 31.8486 18.4059 31.8784C18.4059 31.9281 18.3861 31.938 18.3463 31.938C18.1775 31.938 18.0086 31.938 17.8398 31.938C17.7007 31.938 17.7007 31.938 17.7007 31.7989C17.7007 30.7056 17.7007 29.6024 17.7007 28.5091C17.7007 28.4694 17.7107 28.4495 17.7603 28.4495C18.6543 28.4495 19.5382 28.4495 20.4322 28.4495C20.5911 28.4495 20.7301 28.5091 20.8691 28.5986C20.9883 28.6781 21.0778 28.7775 21.1473 28.8967C21.1969 28.9862 21.2466 29.0856 21.2565 29.1949C21.2565 29.2943 21.2963 29.3937 21.2864 29.4831C21.2864 29.6918 21.2169 29.9006 21.0977 30.0795C20.9984 30.2186 20.8792 30.3279 20.7302 30.3975C20.6507 30.4373 20.5613 30.4571 20.4819 30.487C20.462 30.487 20.4421 30.5068 20.4222 30.5168C20.5215 30.636 20.611 30.7553 20.7103 30.8746C20.8096 30.9938 20.8991 31.123 20.9884 31.2423C21.0679 31.3417 21.1474 31.451 21.2268 31.5504C21.2666 31.6001 21.2864 31.5902 21.3162 31.5405C21.3658 31.4311 21.4255 31.3218 21.4751 31.2125C21.5248 31.1032 21.5744 31.0038 21.624 30.8944C21.6737 30.7851 21.7333 30.6857 21.783 30.5863C21.8227 30.5168 21.8525 30.4472 21.8823 30.3776C21.922 30.2981 21.9518 30.2285 21.9915 30.149C22.0313 30.0695 22.071 29.99 22.1107 29.9105C22.1505 29.831 22.1903 29.7515 22.23 29.672C22.2698 29.5925 22.3095 29.5129 22.3393 29.4334C22.3889 29.3241 22.4485 29.2148 22.5081 29.1055C22.5577 28.9961 22.6074 28.8868 22.6571 28.7874C22.6869 28.7178 22.7266 28.6483 22.7663 28.5787C22.7663 28.5787 22.7663 28.5787 22.7663 28.5688C22.7862 28.4694 22.8557 28.4694 22.9352 28.4694C23.1537 28.4694 23.3623 28.4694 23.5809 28.4694C23.6603 28.4694 23.6703 28.4694 23.71 28.5489C23.7497 28.6383 23.7895 28.7178 23.8391 28.7973C23.8689 28.8669 23.9086 28.9464 23.9384 29.016C23.9781 29.0955 24.0179 29.175 24.0576 29.2446C24.0973 29.3241 24.1371 29.4036 24.1668 29.4831C24.2066 29.5626 24.2364 29.6322 24.2761 29.7117C24.3158 29.7813 24.3456 29.8509 24.3853 29.9304C24.4251 30.0099 24.4648 30.0894 24.5045 30.1689C24.5443 30.2484 24.574 30.318 24.6138 30.3975C24.6535 30.477 24.6932 30.5565 24.733 30.6261C24.7727 30.6957 24.8025 30.7652 24.8422 30.8447C24.9018 30.9541 24.9515 31.0733 25.0111 31.1827C25.0508 31.2522 25.0806 31.3218 25.1104 31.4013C25.1501 31.4808 25.1898 31.5504 25.2196 31.62C25.2594 31.6995 25.2893 31.779 25.329 31.8585C25.329 31.8784 25.3488 31.8883 25.3587 31.9082C25.3587 31.9181 25.3786 31.938 25.3687 31.948C25.3687 31.9579 25.3389 31.9678 25.329 31.9678V31.9281Z" fill="#666666"/>
<path d="M23.7695 30.3279C23.7297 30.2385 23.69 30.159 23.6503 30.0695C23.6205 29.9999 23.5808 29.9204 23.551 29.8509C23.5113 29.7614 23.4815 29.6819 23.4417 29.5925C23.402 29.503 23.3623 29.4036 23.3226 29.3142C23.3226 29.2943 23.2927 29.2844 23.2728 29.2744C23.2728 29.2744 23.243 29.2943 23.2331 29.3142C23.2033 29.3738 23.1835 29.4434 23.1537 29.503C23.1239 29.5825 23.0841 29.662 23.0543 29.7415C23.0146 29.831 22.9848 29.9304 22.9451 30.0198C22.9054 30.1093 22.8657 30.1888 22.8359 30.2782C22.8061 30.3379 22.7861 30.4074 22.7563 30.4671C22.7365 30.5068 22.7564 30.5366 22.7961 30.5366C22.955 30.5366 23.1239 30.5366 23.2828 30.5366C23.2828 30.5366 23.3722 30.5366 23.4219 30.5366C23.541 30.5366 23.6602 30.5366 23.7794 30.5366C23.839 30.5366 23.849 30.5168 23.8291 30.4571C23.8093 30.4174 23.7893 30.3677 23.7695 30.3279Z" fill="#666666"/>
</svg>
