<svg width="94" height="32" viewBox="0 0 94 32" fill="none" xmlns="http://www.w3.org/2000/svg">
<path d="M24.603 28.0653C24.6725 28.0653 24.7123 28.0653 24.752 28.0554C24.5633 28.1647 24.3844 28.274 24.1957 28.3833C24.2156 28.3933 24.2455 28.4132 24.2753 28.4231C24.1263 28.4728 23.9871 28.5225 23.8083 28.5921C23.8779 28.6119 23.9176 28.6219 23.9474 28.6318C23.8084 28.7014 23.6594 28.761 23.5104 28.8306C23.5303 28.8405 23.5501 28.8604 23.5501 28.8604C23.4309 28.92 23.3019 28.9896 23.1728 29.0492C23.1926 29.0492 23.2224 29.0592 23.282 29.0791C23.133 29.089 23.0336 29.0989 22.9343 29.1089C22.9343 29.1288 22.9343 29.1387 22.9343 29.1586C22.974 29.1586 23.0138 29.1586 23.1131 29.1784C22.5171 29.3275 22.1298 29.7947 21.5537 29.8543H21.663C21.663 29.8543 21.663 29.8841 21.663 29.904C21.5636 29.904 21.4543 29.9239 21.355 29.9338C21.355 29.9437 21.355 29.9636 21.355 29.9636C21.3749 29.9736 21.3948 29.9835 21.4345 30.0034C21.2657 30.0034 21.1266 30.0232 20.9875 30.0232C20.9875 30.0431 20.9875 30.0531 20.9875 30.0729L21.1067 30.0928C21.1067 30.0928 21.1067 30.1127 21.1067 30.1226C20.8782 30.1723 20.6498 30.222 20.4214 30.2717C20.2823 30.3015 20.1432 30.3512 20.0042 30.4009C20.024 30.4109 20.0439 30.4307 20.1035 30.4804H19.6566C19.6566 30.4804 19.6566 30.5103 19.6566 30.5301C19.6963 30.55 19.736 30.5699 19.7857 30.5898C19.3685 30.6395 18.9513 30.6792 18.5143 30.7289C18.5639 30.7687 18.5838 30.7885 18.6434 30.8283H17.5409C17.5409 30.8283 17.5409 30.8482 17.5409 30.868L17.68 30.8979C17.68 30.8979 17.68 30.9177 17.68 30.9277H15.8425C15.8425 30.9277 15.8425 30.9674 15.8425 30.9774H16.4682C16.4682 30.9774 16.4682 31.0072 16.4682 31.0271H14.4021C14.4021 31.0271 14.4021 31.0072 14.4021 30.9873H15.018C15.018 30.9873 15.018 30.9476 15.018 30.9277H13.2003V30.8879C13.2003 30.8879 13.2798 30.868 13.3195 30.8482C13.3195 30.8382 13.3195 30.8283 13.3195 30.8184H12.3362C12.3362 30.8184 12.3362 30.7985 12.3362 30.7786C12.4157 30.7786 12.4951 30.7587 12.5746 30.7587C12.5746 30.7388 12.5746 30.719 12.5746 30.6891C12.4454 30.6891 12.3163 30.6891 12.1971 30.6891C12.1077 30.6891 12.0084 30.6991 11.919 30.6891C11.7303 30.6593 11.5416 30.6096 11.3628 30.5599C11.3628 30.5599 11.3926 30.5401 11.482 30.4804H10.8761C10.8761 30.4804 10.8761 30.4506 10.8761 30.4307C10.9159 30.4307 10.9556 30.4109 10.9953 30.4009C10.9953 30.381 10.9953 30.3711 10.9953 30.3512C10.9357 30.3512 10.8761 30.3512 10.8264 30.3413C10.6278 30.3115 10.4291 30.3015 10.2404 30.2419C10.1014 30.2021 9.98216 30.0829 9.85303 30.0133C9.76364 29.9636 9.66428 29.9139 9.57489 29.9239C9.25704 29.9537 9.04847 29.6158 8.72069 29.6456C8.76042 29.6456 8.80015 29.6356 8.83988 29.6257C8.58163 29.5164 8.33331 29.417 8.08499 29.3077C8.08499 29.3077 8.11476 29.2878 8.18429 29.2381C8.0353 29.2281 7.93605 29.2083 7.7672 29.1983C7.85659 29.1685 7.8863 29.1586 7.92603 29.1486C7.92603 29.1387 7.92603 29.1188 7.92603 29.1089C7.82671 29.0989 7.72743 29.089 7.60824 29.0791C7.64797 29.0691 7.66779 29.0592 7.68766 29.0492C7.42941 28.9399 7.21095 28.7809 7.00236 28.5722C6.90304 28.4728 6.71433 28.4629 6.51567 28.4032C6.5852 28.4032 6.62488 28.4032 6.71428 28.3933C6.46596 28.2243 6.25734 28.0752 6.05869 27.9361C6.03882 27.9361 6.05871 27.9361 6.07857 27.9361C5.46275 27.4093 4.83702 26.8726 4.37019 26.1769C4.37019 26.2067 4.37018 26.2465 4.36024 26.2763C4.21125 26.0477 4.06232 25.8191 3.92327 25.6005H3.8835C3.8835 25.6502 3.8835 25.6899 3.8835 25.7297H3.86361C3.81395 25.5706 3.76424 25.4216 3.69471 25.2128C3.67485 25.3023 3.665 25.3421 3.65506 25.4216C3.59547 25.2327 3.53582 25.0737 3.47622 24.865C3.45636 24.9544 3.45633 24.9942 3.4464 25.0141C3.40667 24.9544 3.34706 24.8948 3.31727 24.8252C3.28747 24.7557 3.26765 24.6762 3.23785 24.5768C3.23785 24.6066 3.21794 24.6265 3.19808 24.7159C3.19808 24.4674 3.15836 24.3184 2.95971 24.2488C2.91997 24.2388 2.92998 24.1096 2.91012 24.0103C2.89025 24.05 2.88027 24.0699 2.8604 24.0997C2.85047 23.9904 2.84051 23.891 2.83058 23.7916C2.82064 23.7916 2.81079 23.7916 2.79093 23.7916C2.781 23.8314 2.76109 23.8711 2.75116 23.9009C2.7015 23.722 2.66174 23.5431 2.60214 23.3344C2.56241 23.3841 2.54259 23.4139 2.52273 23.4437C2.51279 23.3145 2.49289 23.2052 2.48296 23.0959C2.46309 23.0959 2.45323 23.0959 2.43337 23.0959C2.43337 23.1356 2.41348 23.1754 2.41348 23.2151C2.41348 23.2151 2.39359 23.2151 2.38366 23.2151C2.38366 23.1158 2.36376 23.0064 2.35383 22.907C2.3439 22.907 2.33393 22.907 2.324 22.907C2.31407 22.9269 2.30424 22.9468 2.30424 22.9567C2.23471 22.748 2.17503 22.5393 2.09557 22.2908C2.08564 22.3604 2.07579 22.4002 2.05592 22.4896C1.99633 22.2113 1.94663 21.9827 1.89696 21.7343C1.8771 21.774 1.85719 21.8038 1.84725 21.8336C1.83732 21.8336 1.82748 21.8336 1.81755 21.8336V21.3765C1.76788 21.456 1.75784 21.4758 1.70818 21.5355V21.0684C1.70818 21.0684 1.67846 21.0684 1.65859 21.0684C1.64866 21.1081 1.63869 21.1479 1.61882 21.1876C1.60889 21.1876 1.58898 21.1876 1.57905 21.1876V20.7304C1.57905 20.7304 1.53938 20.7304 1.51952 20.7304C1.50959 20.7702 1.49961 20.8099 1.47975 20.8497C1.46982 20.8497 1.44992 20.8398 1.44992 20.8298C1.44992 20.7801 1.44992 20.7304 1.44992 20.6807C1.41019 20.4025 1.38041 20.1242 1.34068 19.7962C1.31088 19.8757 1.29107 19.9155 1.2712 19.9552H1.23143V19.2794C1.23143 19.2794 1.19177 19.2794 1.1719 19.2794C1.1719 19.339 1.16195 19.4086 1.15202 19.4682C1.14208 19.4682 1.13212 19.4682 1.12219 19.4682V18.6135C1.12219 18.6135 1.09235 18.6135 1.08242 18.6135C1.08242 18.6632 1.06265 18.7129 1.05271 18.7625C1.04278 18.7625 1.02288 18.7625 1.01294 18.7625V17.5898C1.01294 17.5898 0.973165 17.5898 0.963232 17.5898C0.963232 17.6494 0.953401 17.719 0.943469 17.7786H0.923584V14.2006C0.923584 14.2006 0.933536 14.2006 0.943469 14.2006C0.943469 14.3099 0.9533 14.4093 0.963232 14.5187C0.983097 14.5187 0.993079 14.5187 1.01294 14.5187V13.3359C1.01294 13.3359 1.04278 13.3359 1.05271 13.3359C1.06265 13.3757 1.0725 13.4155 1.09236 13.4552C1.10229 13.4552 1.11226 13.4552 1.12219 13.4552V12.6005H1.16196C1.16196 12.67 1.18185 12.7297 1.19179 12.7992C1.21165 12.7992 1.22151 12.7992 1.24138 12.7992V12.1731C1.24138 12.1731 1.27121 12.1731 1.28115 12.1731C1.30101 12.193 1.3109 12.2228 1.36056 12.2824V11.7557C1.36056 11.7557 1.4103 11.7557 1.4401 11.7557C1.45003 11.5966 1.45988 11.4376 1.47975 11.2786C1.47975 11.2786 1.4897 11.2687 1.49963 11.2687C1.5195 11.2885 1.53933 11.3184 1.58899 11.378V10.8015C1.58899 10.8015 1.61884 10.8015 1.63871 10.7916C1.63871 10.8115 1.65859 10.8214 1.65859 10.8413C1.65859 10.8612 1.66846 10.891 1.71812 10.9109V10.4537C1.75785 10.5034 1.77782 10.5232 1.81755 10.5729V10.1058C1.81755 10.1058 1.84726 10.1058 1.8572 10.1058C1.8572 10.1456 1.87708 10.1853 1.87708 10.2251C1.88701 10.2251 1.89697 10.2251 1.90691 10.2251C1.95657 9.99649 2.00627 9.77784 2.06586 9.49955C2.08573 9.589 2.08564 9.61881 2.09557 9.68839C2.21476 9.3604 2.31417 9.07218 2.42342 8.77401V8.88334C2.42342 8.88334 2.46309 8.88334 2.48296 8.88334C2.49289 8.77401 2.50286 8.66468 2.52273 8.5156C2.55252 8.57524 2.57236 8.59511 2.61209 8.66469C2.62202 8.5156 2.63199 8.41621 2.65186 8.29695C2.67172 8.3367 2.67165 8.35658 2.70145 8.41622C2.71138 8.27707 2.72135 8.17768 2.74122 8.06836C2.74122 8.06836 2.76111 8.06836 2.77104 8.06836L2.79093 8.18762C2.79093 8.18762 2.82065 8.18762 2.84052 8.18762C2.85045 8.08823 2.86042 7.98884 2.88029 7.88946C2.90015 7.91927 2.91011 7.93915 2.90017 7.91927C3.15842 7.4919 3.42653 7.05459 3.69471 6.61728C3.69471 6.63716 3.69473 6.67692 3.7146 6.77631C3.78413 6.56759 3.83384 6.41851 3.89344 6.21973C3.90337 6.29924 3.91332 6.339 3.91332 6.37875C4.07225 6.15016 4.22121 5.9315 4.38013 5.71285C4.38013 5.73273 4.38015 5.77248 4.40001 5.87187C4.61853 5.36499 5.01578 5.09664 5.33362 4.75872C5.48261 4.5997 5.65145 4.49037 5.81037 4.36117C5.9693 4.22203 6.10844 4.07294 6.2773 3.95368C6.42629 3.84435 6.59513 3.76484 6.75405 3.66545C6.85337 3.59588 6.95262 3.50643 7.04201 3.42692C7.17114 3.31759 7.30029 3.20826 7.43934 3.11882C7.55853 3.04924 7.68768 3.00949 7.83667 2.94985C7.79694 2.92998 7.76718 2.9101 7.74731 2.90016C7.83671 2.8604 7.91618 2.81071 8.00557 2.77096C8.1347 2.71132 8.25389 2.65169 8.38302 2.602C8.51214 2.54236 8.6511 2.49267 8.78023 2.4231C8.95901 2.32371 9.11797 2.1945 9.30669 2.11499C9.40601 2.0653 9.5252 2.08517 9.67419 2.0653C9.61459 2.02554 9.58477 2.0156 9.52518 1.97585C9.66423 1.96591 9.77351 1.95597 9.91256 1.94603C9.8629 1.92615 9.84304 1.91622 9.79338 1.8864C9.94237 1.8864 10.0716 1.86652 10.2305 1.85658C10.1808 1.81683 10.151 1.79695 10.1212 1.76713C10.3795 1.71744 10.6277 1.66774 10.9058 1.61805C10.8661 1.58823 10.8462 1.56836 10.7767 1.51866H11.2237C11.2237 1.51866 11.2237 1.48885 11.2237 1.46897C11.184 1.44909 11.1443 1.43915 11.0847 1.40933C11.4919 1.35964 11.8694 1.31989 12.2468 1.27019V1.23043C12.1674 1.23043 12.0878 1.23044 12.0083 1.2205C12.0083 1.20062 12.0083 1.19068 12.0083 1.1708H12.8129C12.8129 1.1708 12.8129 1.13105 12.8129 1.10123C12.7434 1.10123 12.6839 1.08135 12.6143 1.07141C12.6143 1.06147 12.6143 1.05154 12.6143 1.0416H14.0148C14.0148 1.0416 14.0148 1.01178 14.0148 0.991903C13.8856 0.991903 13.7664 0.981965 13.6373 0.972027V0.952148H17.0542C17.0542 0.952148 17.0542 0.962088 17.0542 0.972027C16.9747 0.972027 16.8854 0.981964 16.8059 0.991903C16.8059 1.00184 16.8059 1.01178 16.8059 1.02172H17.9878C17.9878 1.02172 17.9878 1.05154 17.9878 1.06147L17.8786 1.10123V1.14099H18.6931C18.6137 1.20062 18.5938 1.2205 18.554 1.25031C18.9414 1.30001 19.3089 1.33976 19.726 1.39939C19.6366 1.41927 19.597 1.42921 19.5573 1.43915C19.5573 1.45903 19.5573 1.46897 19.5573 1.48884C19.736 1.48884 19.9247 1.50872 20.1333 1.51866C20.0836 1.55842 20.0638 1.56836 20.0042 1.60811C20.0737 1.61805 20.1234 1.63793 20.1731 1.63793C20.3916 1.63793 20.5803 1.67768 20.7491 1.82677C20.8187 1.8864 20.9776 1.85658 21.0967 1.86652C21.0769 1.8864 21.057 1.89634 20.9974 1.93609H21.4742C21.4742 1.93609 21.4742 1.96591 21.4742 1.97585L21.3649 2.00566C21.3649 2.00566 21.3649 2.03548 21.3649 2.04542C21.4742 2.05536 21.5934 2.07524 21.7026 2.08518C21.7026 2.09511 21.7026 2.10505 21.7026 2.12493C21.6629 2.12493 21.6232 2.12493 21.5834 2.12493C21.941 2.20444 22.2588 2.3734 22.5568 2.56224C22.5568 2.56224 22.5271 2.58212 22.4675 2.602C22.6065 2.61193 22.7058 2.62187 22.8449 2.63181C22.7853 2.66163 22.7654 2.6815 22.6959 2.72126C22.8349 2.74114 22.9344 2.75108 23.0337 2.76102C23.0138 2.78089 22.9939 2.79083 22.9541 2.82065C23.0733 2.83059 23.1827 2.84053 23.2919 2.85047C23.2919 2.86041 23.2919 2.87034 23.2919 2.88028C23.2522 2.88028 23.2125 2.89022 23.1429 2.9101C23.3118 2.98961 23.4508 3.05918 23.5799 3.12875L23.5501 3.13869C23.7885 3.27784 24.0269 3.42692 24.2753 3.56606C24.2653 3.56606 24.2354 3.58594 24.1858 3.60582C24.3447 3.66545 24.4838 3.71515 24.6328 3.77478C24.603 3.79466 24.5831 3.80459 24.5533 3.82447C24.603 3.8841 24.6526 3.98349 24.7122 3.99343C24.8414 4.00337 24.9209 4.05307 24.9904 4.17233C25.0202 4.22203 25.1195 4.23196 25.1791 4.25184C25.1691 4.28166 25.1295 4.33135 25.1394 4.34129C25.3182 4.53013 25.5068 4.71897 25.6956 4.89787C25.7254 4.92768 25.8048 4.91774 25.8247 4.9575C25.9737 5.1364 26.1227 5.30536 26.3014 5.52401C26.3014 5.43456 26.3014 5.40475 26.3014 5.38487C26.5994 5.77248 26.8974 6.17004 27.1954 6.57753C27.1954 6.55765 27.1954 6.5179 27.2153 6.43839C27.2749 6.62722 27.3246 6.78625 27.3742 6.93533C27.3842 6.93533 27.394 6.93533 27.404 6.93533C27.404 6.89557 27.4139 6.85582 27.4238 6.80612C27.4934 6.96514 27.563 7.11423 27.6325 7.26331C27.6424 7.24343 27.6622 7.22355 27.6523 7.24343C27.7516 7.43227 27.851 7.63105 27.9602 7.85964C27.9702 7.80995 27.9801 7.77019 27.9901 7.71056C28.0099 7.74037 28.0297 7.75031 28.0297 7.76025C28.0297 8.0286 28.1887 8.21744 28.3377 8.41622C28.3973 8.49573 28.3873 8.63487 28.437 8.7442C28.437 8.70444 28.447 8.66469 28.4668 8.59511C28.5264 8.81377 28.5761 9.00261 28.6258 9.21132C28.6556 9.16163 28.6655 9.13181 28.6952 9.08212C28.7449 9.33059 28.7946 9.55918 28.8443 9.78778C28.8443 9.78778 28.8642 9.78778 28.8741 9.78778C28.8741 9.74802 28.8939 9.70826 28.9038 9.64863C28.9733 9.88716 29.0429 10.0959 29.1125 10.3344C29.1224 10.3145 29.1323 10.2947 29.1819 10.2847V10.7021C29.1819 10.7021 29.2118 10.7021 29.2217 10.7021C29.2316 10.6624 29.2514 10.6226 29.2614 10.5829C29.2713 10.5829 29.2912 10.5829 29.3011 10.5829V11.1295C29.3011 11.1295 29.3409 11.1295 29.3608 11.1295C29.3707 11.0898 29.3806 11.05 29.4004 11.0003C29.4104 11.0301 29.4303 11.0401 29.4303 11.0599C29.47 11.3879 29.5098 11.706 29.5892 12.034C29.5892 11.9644 29.5892 11.8948 29.5892 11.8352C29.5991 11.8352 29.6091 11.8352 29.619 11.8352V12.4812C29.619 12.4812 29.6587 12.4613 29.6686 12.4514C29.6885 12.4713 29.7183 12.4812 29.7183 12.5011C29.7183 12.7197 29.7183 12.9384 29.7183 13.2167C29.7779 13.1372 29.8078 13.1173 29.8574 13.0477V14.0515C29.8574 14.0515 29.8971 14.0515 29.9269 14.0515C29.9269 13.9521 29.9368 13.8428 29.9468 13.7434H29.9667V18.1364C29.9667 18.1364 29.9567 18.1364 29.9468 18.1364L29.9169 18.0271C29.9169 18.0271 29.8872 18.0271 29.8674 18.0271V19.0408C29.8674 19.0408 29.8276 19.0408 29.8077 19.0408C29.8077 18.9713 29.7977 18.9116 29.7878 18.8421C29.7779 18.8421 29.768 18.8421 29.7482 18.8421C29.6985 19.2794 29.6588 19.7266 29.5992 20.2236C29.5793 20.1242 29.5693 20.0844 29.5594 20.0447C29.5395 20.0447 29.5295 20.0447 29.5097 20.0447V20.631C29.46 20.5814 29.4402 20.5615 29.4104 20.5217V21.0584C29.4104 21.0584 29.3807 21.0584 29.3707 21.0584C29.3707 21.0187 29.3508 20.9789 29.3409 20.9391C29.321 20.9391 29.311 20.9391 29.2912 20.9391C29.2912 21.0882 29.2713 21.2473 29.2614 21.3963C29.2614 21.3963 29.2416 21.3963 29.2317 21.3963C29.2317 21.3566 29.2118 21.3168 29.2018 21.2771C29.182 21.2771 29.172 21.2771 29.1521 21.2771C29.1521 21.4162 29.1423 21.5554 29.1323 21.7044C29.1224 21.7044 29.1125 21.7044 29.1125 21.7044C29.1125 21.7044 29.1125 21.6945 29.1125 21.6846C29.1125 21.6746 29.0926 21.6647 29.1025 21.6647C29.033 21.8734 28.9733 22.0821 28.9038 22.3008C28.9038 22.261 28.894 22.2213 28.884 22.1815C28.8642 22.1815 28.8443 22.1815 28.8343 22.1815C28.8343 22.3206 28.8244 22.4598 28.8144 22.5989H28.7946C28.7846 22.5791 28.7748 22.5592 28.7549 22.5095C28.745 22.6486 28.735 22.758 28.7251 22.8573H28.6853C28.6853 22.8573 28.6853 22.7878 28.6754 22.748C28.6555 22.748 28.6357 22.7381 28.6158 22.7281C28.6357 23.2151 28.2583 23.5431 28.1391 23.9904C28.1192 23.9506 28.0993 23.9307 28.0595 23.8512C28.0496 24.0103 28.0396 24.1196 28.0297 24.2289C28.0198 24.2289 28.0099 24.2289 28 24.2289C28 24.1891 27.9901 24.1494 27.9801 24.0898C27.8709 24.3283 27.7715 24.537 27.6722 24.7457C27.6722 24.7457 27.6524 24.7159 27.6425 24.706C27.4935 24.9445 27.3444 25.193 27.2054 25.4216C27.2054 25.4216 27.2053 25.4017 27.1855 25.3719C27.0762 25.5607 26.967 25.7297 26.8677 25.9086V25.7794C26.7981 25.8589 26.7286 25.9086 26.7187 25.9682C26.6889 26.2366 26.4206 26.3061 26.2915 26.495C26.1723 26.6639 26.0234 26.813 25.8744 26.9621C25.7254 27.1112 25.5764 27.2603 25.4274 27.4093C25.2883 27.5385 25.1493 27.6578 25.0003 27.7671C24.8911 27.8566 24.7619 27.9361 24.6129 28.0454L24.603 28.0653ZM13.5579 23.7419C13.5579 23.7419 13.5579 23.7817 13.5579 23.8115C13.6572 23.8115 13.7664 23.8115 13.8657 23.8115C13.9055 23.8115 13.985 23.8115 13.985 23.8214C14.0645 24.0103 14.2234 23.9208 14.3426 23.9407C14.3923 23.9407 14.4418 23.9407 14.4915 23.9506V24.0202C14.5312 24.0202 14.5809 24.0202 14.6206 24.0202C15.2166 24.0202 15.8126 24.0202 16.4086 24.0202C16.4086 24.0202 16.4285 24.0103 16.4483 23.9904C16.3987 23.9804 16.349 23.9606 16.3093 23.9506C16.3093 23.9407 16.3093 23.9307 16.3093 23.9109H16.935C16.935 23.9109 16.935 23.891 16.935 23.8711C16.8953 23.8612 16.8556 23.8413 16.8357 23.8413C17.094 23.7717 17.3521 23.7121 17.6203 23.6425C17.5806 23.6226 17.5508 23.6127 17.5111 23.6028C17.6402 23.5928 17.7395 23.5829 17.8388 23.5729C17.8388 23.5531 17.8388 23.5431 17.8388 23.5232C17.7991 23.5232 17.7594 23.5133 17.6899 23.4934C17.8389 23.4537 17.9481 23.4537 18.0375 23.404C18.1865 23.3245 18.3056 23.1654 18.4646 23.1257C18.7625 23.0362 18.8917 22.7778 19.0903 22.5989C19.2294 22.4697 19.3387 22.3107 19.4877 22.1914C19.6565 22.0622 19.6963 21.8535 19.8155 21.6945C19.8155 21.7144 19.8353 21.7343 19.8353 21.7541C19.9048 21.615 19.9645 21.4858 20.034 21.3566C20.034 21.3765 20.044 21.3963 20.0539 21.4162C20.2525 20.9988 20.4412 20.6012 20.6101 20.2236C20.6101 20.2236 20.6101 20.2633 20.62 20.3031C20.6299 20.3031 20.6498 20.3031 20.6598 20.3031C20.7094 20.0347 20.7591 19.7664 20.8088 19.4881C20.8286 19.5378 20.8385 19.5775 20.8484 19.6173H20.8882C20.8882 19.4781 20.8981 19.339 20.9081 19.17C20.9279 19.2098 20.9378 19.2297 20.9577 19.2495C20.9577 19.2495 20.9676 19.2495 20.9974 19.2297V18.6035C20.9974 18.6035 21.0173 18.6035 21.0372 18.6035C21.0372 18.683 21.0372 18.7625 21.0472 18.8421C21.077 18.8421 21.0968 18.8421 21.1266 18.8421V17.8382C21.1266 17.8382 21.1564 17.8382 21.1663 17.8382C21.1663 17.8979 21.1763 17.9674 21.1862 18.0271C21.1962 18.0271 21.2159 18.0271 21.2259 18.0271V13.8528C21.2259 13.8528 21.1961 13.8528 21.1763 13.8528C21.1763 13.9223 21.1663 13.982 21.1564 14.0515C21.1365 14.0515 21.1166 14.0515 21.0967 14.0515V13.2962C21.0967 13.2962 21.067 13.2962 21.0472 13.2962C21.0472 13.3359 21.0273 13.3658 21.0173 13.4353C20.9677 13.0577 20.918 12.7197 20.8683 12.3818C20.8584 12.3818 20.8484 12.3818 20.8285 12.3818C20.8285 12.4216 20.8088 12.4613 20.7988 12.4911C20.7889 12.4911 20.769 12.4911 20.7591 12.4911V12.034C20.7591 12.034 20.6995 12.0936 20.6598 12.1532V11.696C20.6598 11.696 20.6299 11.696 20.6101 11.696C20.6101 11.7358 20.5902 11.7755 20.5902 11.8153H20.5703C20.5604 11.706 20.5406 11.5966 20.5306 11.4774C20.5207 11.4774 20.5008 11.4774 20.4909 11.4774C20.4909 11.5171 20.471 11.5569 20.461 11.5966C20.461 11.1991 20.183 10.9208 20.034 10.6028C20.034 10.6226 20.0141 10.6425 20.0141 10.6425C19.9446 10.5133 19.885 10.3841 19.8155 10.245C19.8155 10.2748 19.7956 10.2947 19.7956 10.2947C19.736 10.1655 19.6664 10.0263 19.577 9.85735C19.577 9.93686 19.5672 9.96667 19.5573 10.0561C19.4679 9.70826 18.9017 9.14175 18.564 9.06224C18.6534 9.06224 18.6931 9.0523 18.7725 9.04236C18.6235 8.97279 18.5143 8.9231 18.405 8.86346C18.3057 8.80383 18.2262 8.6945 18.1169 8.64481C17.8786 8.54542 17.6203 8.46591 17.3621 8.37646C17.4018 8.37646 17.4415 8.35658 17.4812 8.35658C17.4812 8.34664 17.4812 8.32677 17.4812 8.31683C17.3819 8.30689 17.2926 8.29695 17.1833 8.27707C17.2131 8.25719 17.223 8.24725 17.2826 8.19756H16.6867C16.7364 8.1578 16.7661 8.13793 16.7959 8.11805C15.9914 7.92921 15.1769 8.01866 14.3723 8.0286C14.412 8.0286 14.4617 8.04848 14.5014 8.05842C14.5014 8.07829 14.5014 8.08823 14.5014 8.10811H13.8657C13.8657 8.10811 13.8657 8.13793 13.8657 8.14787C13.9055 8.14787 13.9354 8.16774 13.9751 8.17768V8.21744H13.4982C13.5578 8.25719 13.5778 8.26713 13.5778 8.27707C13.3692 8.34664 13.1606 8.40628 12.9023 8.49573C12.9917 8.5156 13.0215 8.5156 13.0414 8.52554C12.8328 8.62493 12.6143 8.72432 12.3362 8.84359C12.4256 8.85352 12.4654 8.86346 12.4952 8.86346C12.2766 8.99267 12.0283 9.09206 11.8495 9.26101C11.631 9.46973 11.4621 9.72814 11.2733 9.97661C11.2137 10.0561 11.1839 10.1456 11.1343 10.235C11.1343 10.235 11.1045 10.235 11.0847 10.245V10.1257C11.0847 10.1257 11.0648 10.1257 11.0548 10.1257L10.8959 10.5928C10.8959 10.5928 10.8761 10.5928 10.8662 10.5928V10.4835C10.8662 10.4835 10.8463 10.4835 10.8364 10.4835C10.7867 10.6425 10.737 10.8015 10.6675 10.9904C10.6476 10.9109 10.6376 10.8711 10.6376 10.8314C10.6277 10.8314 10.6079 10.8314 10.598 10.8314C10.588 10.9407 10.5781 11.05 10.5682 11.1693C10.5582 11.1693 10.5483 11.1693 10.5383 11.1693C10.5383 11.1295 10.5186 11.0898 10.5086 11.0202C10.3994 11.3482 10.3099 11.6364 10.2106 11.9346C10.1907 11.9047 10.1708 11.8849 10.141 11.8451C10.0913 12.1234 10.0418 12.3719 10.002 12.6303C9.98218 12.6005 9.96221 12.5806 9.89268 12.5011C9.89268 12.7098 9.89268 12.8688 9.89268 13.0278C9.89268 13.0278 9.84304 13.0278 9.79338 13.0278V13.654C9.79338 13.654 9.7736 13.654 9.76367 13.654L9.74379 13.4651C9.74379 13.4651 9.704 13.4651 9.68413 13.4651V14.787C9.68413 14.787 9.65441 14.787 9.63454 14.787C9.63454 14.7174 9.62459 14.6578 9.61466 14.5882C9.60472 14.5882 9.59475 14.5882 9.57489 14.5882V17.6295C9.57489 17.6295 9.60472 17.6295 9.61466 17.6295C9.61466 17.5202 9.62461 17.4109 9.63454 17.3115H9.69407V18.5439C9.69407 18.5439 9.73386 18.5439 9.75373 18.5439C9.75373 18.4644 9.76356 18.3849 9.77349 18.3153C9.79336 18.3153 9.80334 18.3153 9.8232 18.3153V19.1303C9.86294 19.0706 9.87293 19.0508 9.88286 19.0309C9.89279 19.0309 9.90264 19.0309 9.92251 19.0309V19.5676C9.97217 19.508 9.98219 19.4781 10.012 19.4483C10.0617 19.7167 10.1112 19.9651 10.1509 20.2136H10.1808C10.1808 20.2136 10.2007 20.1341 10.2106 20.0943C10.2305 20.0943 10.2503 20.0943 10.2701 20.0943V20.5515C10.2701 20.5515 10.3099 20.5515 10.3198 20.5515C10.3198 20.5118 10.3298 20.472 10.3397 20.4223C10.3894 20.6211 10.4391 20.8 10.4987 21.0187C10.5285 20.969 10.5483 20.9392 10.5781 20.8795C10.588 21.0286 10.598 21.1379 10.6079 21.2473C10.6278 21.2473 10.6376 21.2473 10.6575 21.2473C10.6575 21.2075 10.6575 21.1677 10.6774 21.1081C10.7171 21.2075 10.7668 21.2671 10.7767 21.3466C10.7966 21.5156 10.9655 21.6051 11.0053 21.7243C11.0847 21.9529 11.2833 22.0622 11.4124 22.2312C11.5316 22.4002 11.7005 22.5294 11.8495 22.6784C12.0084 22.8275 12.1773 22.9667 12.3263 23.0959L12.3064 23.1058C12.4554 23.1754 12.5944 23.245 12.7632 23.3245C12.7036 23.3245 12.664 23.3344 12.5646 23.3443C12.8725 23.4636 13.1307 23.563 13.3691 23.6525C13.3691 23.6525 13.3493 23.6624 13.3096 23.6922C13.4387 23.7021 13.538 23.7121 13.6373 23.722C13.6373 23.722 13.6373 23.7419 13.6373 23.7518C13.5976 23.7518 13.5579 23.7618 13.5281 23.7717L13.5579 23.7419ZM21.3351 15.0156C21.3351 15.0156 21.3153 15.0156 21.3054 15.0156V16.745C21.3054 16.745 21.3252 16.745 21.3351 16.745V15.0255V15.0156Z" fill="#666666"/>
<path d="M67.5519 21.7838V22.1018C67.5519 22.1018 67.522 22.1018 67.5121 22.1018V20.8694C67.8697 20.8694 68.2273 20.8694 68.5948 20.8694C68.9623 20.8694 69.3298 20.8694 69.6973 20.8694C70.0649 20.8694 70.4323 20.8694 70.7999 20.8694C71.1674 20.8694 71.5349 20.8694 71.9024 20.8694C72.2599 20.8694 72.6175 20.8694 72.975 20.8694C73.3426 20.8694 73.7102 20.8694 74.0777 20.8694C74.4452 20.8694 74.8127 20.8694 75.1802 20.8694C75.508 20.8694 75.8456 20.8793 76.223 20.8893V21.6446C76.223 21.6446 76.2628 21.6446 76.2926 21.6446V21.4558C76.2926 21.4558 76.3323 21.4558 76.3522 21.4558C76.3522 21.5651 76.3422 21.6844 76.3522 21.7937C76.382 22.0223 76.4217 22.241 76.4912 22.4696C76.4912 22.4298 76.5111 22.39 76.5211 22.3503C76.531 22.3503 76.5509 22.3503 76.5608 22.3503V22.7578C76.5608 22.7578 76.5906 22.7578 76.6005 22.7677C76.6204 22.7379 76.6402 22.718 76.6303 22.728C76.7495 23.0063 76.8886 23.3044 77.0177 23.6026C77.0376 23.6026 77.0574 23.5926 77.0772 23.5827C77.0772 23.543 77.0772 23.5131 77.0673 23.4436C77.1964 23.6821 77.2858 23.9107 77.5639 23.9604C77.5441 23.9604 77.5242 23.9604 77.4646 23.9803C77.6335 24.0598 77.7627 24.1293 77.8918 24.189C77.8918 24.189 77.862 24.1989 77.7825 24.2387C77.9315 24.2585 78.0209 24.2685 78.1302 24.2784C78.1103 24.2884 78.0904 24.3082 78.0804 24.3182C78.2791 24.3778 78.4777 24.4474 78.6764 24.507C78.6764 24.507 78.6565 24.517 78.587 24.5567C78.7658 24.5567 78.9148 24.5766 79.0538 24.5766V24.5965C79.0538 24.5965 78.9843 24.6263 78.9545 24.6362C78.9545 24.6561 78.9545 24.666 78.9545 24.6859H79.6201C79.6201 24.6859 79.6201 24.7157 79.63 24.7356L79.5108 24.7754V24.8151H80.9112V24.8648H80.365C80.365 24.8648 80.365 24.8847 80.365 24.9046H81.4079C81.4079 24.9046 81.4079 24.8847 81.4079 24.8748C81.3284 24.8748 81.2489 24.8648 81.1595 24.8549C81.1595 24.8449 81.1595 24.835 81.1595 24.8151H82.133C82.133 24.8151 82.133 24.7853 82.133 24.7654L82.0139 24.7257C82.0139 24.7257 82.0139 24.6959 82.0139 24.6859H82.5601C82.5601 24.6859 82.5601 24.6462 82.5601 24.6263C82.5204 24.6263 82.4806 24.6064 82.4409 24.5965C82.9475 24.6362 83.2752 24.2585 83.6924 24.0697C83.6527 24.0498 83.6329 24.0399 83.6031 24.03C83.9507 23.9107 84.1294 23.6523 84.2884 23.3641C84.2884 23.374 84.3083 23.4038 84.3281 23.4436C84.4374 23.0957 84.8049 22.8671 84.7453 22.4497C84.7652 22.4795 84.785 22.4994 84.8248 22.559V21.8434C84.8248 21.8434 84.8049 21.8434 84.7949 21.8434C84.785 21.8633 84.775 21.8832 84.7651 21.903C84.7651 21.9229 84.7652 21.9428 84.7354 21.9627C84.7255 21.8534 84.7155 21.744 84.7056 21.6347C84.6956 21.6347 84.6757 21.6347 84.6658 21.6347C84.6658 21.6744 84.6459 21.7142 84.6459 21.7341C84.5466 21.4757 84.4473 21.2073 84.348 20.939C84.3381 20.939 84.3281 20.939 84.3182 20.939V21.0582L84.2685 21.0483C84.2983 20.8296 84.1196 20.7501 83.9904 20.6507C83.8713 20.5613 83.7322 20.4917 83.6031 20.4122C83.5832 20.4023 83.5533 20.3923 83.5235 20.3824C83.3745 20.3426 83.2156 20.3128 83.0468 20.2731C83.0865 20.2433 83.1064 20.2234 83.166 20.1836C83.0269 20.1737 82.9177 20.1637 82.8084 20.1538V20.1339C82.8481 20.1339 82.8779 20.124 82.9176 20.1141C82.9176 20.1041 82.9176 20.0942 82.9176 20.0743C82.6892 20.0246 82.4707 19.9749 82.2125 19.9252C82.282 19.9053 82.3118 19.8954 82.3515 19.8855C82.3515 19.8755 82.3515 19.8556 82.3515 19.8457C82.2125 19.8457 82.0734 19.8258 81.9144 19.8159C81.9442 19.796 81.9642 19.7861 81.9741 19.7761C81.7655 19.7066 81.547 19.6469 81.3185 19.5774C81.3582 19.5774 81.398 19.5575 81.4377 19.5575C81.4377 19.5475 81.4377 19.5277 81.4377 19.5177C81.388 19.5177 81.3383 19.5078 81.2887 19.4978C81.09 19.468 80.8814 19.4481 80.6828 19.4084C80.6033 19.3885 80.5338 19.309 80.4544 19.2891C80.3749 19.2693 80.2756 19.2891 80.1961 19.2891C80.1961 19.2693 80.1961 19.2494 80.1961 19.2295C80.2358 19.2295 80.2756 19.2295 80.3153 19.2295C80.3153 19.2196 80.3153 19.1997 80.3153 19.1897C80.0173 19.14 79.7194 19.0904 79.4016 19.0407C79.4512 19.0208 79.471 19.0009 79.5604 18.9611H79.0042C79.0042 18.9611 79.0042 18.9115 79.0042 18.8816C78.8751 18.8618 78.7459 18.8518 78.5771 18.8319C78.6466 18.8121 78.6864 18.8021 78.7261 18.7922C78.7261 18.7723 78.7261 18.7624 78.7261 18.7425C78.5473 18.7425 78.3586 18.7226 78.16 18.7127C78.1997 18.6729 78.2295 18.653 78.2891 18.6033H77.7428C77.7428 18.6033 77.7428 18.5835 77.7428 18.5636C77.7924 18.5636 77.8421 18.5437 77.8818 18.5437C77.8818 18.5338 77.8818 18.5238 77.8818 18.504H77.3753C77.3753 18.504 77.3753 18.4841 77.3653 18.4741L77.4845 18.4344C77.4845 18.4344 77.4845 18.4046 77.4845 18.3847H76.9382C76.9382 18.3847 76.9382 18.3549 76.9382 18.3449C76.968 18.3251 76.9879 18.3151 77.0575 18.2654C76.8886 18.2654 76.7594 18.2456 76.6204 18.2456C76.6502 18.2257 76.67 18.2058 76.7197 18.166H76.1237C76.1237 18.166 76.1237 18.1362 76.1237 18.1263L76.233 18.1064C76.233 18.1064 76.233 18.0865 76.233 18.0667C75.9847 18.017 75.7363 17.9772 75.4682 17.9275C75.488 17.9076 75.5179 17.8878 75.5676 17.848C75.3987 17.8381 75.2596 17.8281 75.0808 17.8182C75.1404 17.7784 75.1702 17.7585 75.2298 17.7188C75.0609 17.7188 74.9319 17.7089 74.7928 17.6989C74.8226 17.679 74.8424 17.6592 74.8424 17.6492C74.6338 17.5797 74.4252 17.52 74.2067 17.4504C74.2166 17.4504 74.2465 17.4306 74.326 17.3809C74.1472 17.361 74.018 17.3511 73.869 17.3411C73.9087 17.3212 73.9287 17.3113 73.9187 17.3212C73.3724 17.0728 72.8161 16.8144 72.2202 16.5361C72.2996 16.5361 72.3394 16.5261 72.3791 16.5162C72.3791 16.4963 72.3791 16.4864 72.3791 16.4665C72.2798 16.4566 72.1805 16.4466 72.0414 16.4367C72.0911 16.4168 72.1109 16.4168 72.1209 16.4069C71.8825 16.2677 71.6342 16.1186 71.3958 15.9696C71.3958 15.9696 71.4256 15.9696 71.515 15.9298C71.3163 15.8602 71.1574 15.8105 70.9786 15.7509C71.0382 15.7509 71.0779 15.741 71.1077 15.731C70.6707 15.3931 70.2437 15.0552 69.9655 14.5284C69.9457 14.5682 69.9258 14.598 69.9158 14.6378C69.8463 14.4191 69.7867 14.2004 69.5782 14.0712C69.5484 14.0514 69.5483 14.0017 69.5284 13.9619C69.439 13.7731 69.3894 13.5544 69.2107 13.4153C69.1908 13.4053 69.1808 13.3656 69.1808 13.3358C69.1808 13.1271 69.1213 12.9482 68.9822 12.7792C68.9226 12.7096 68.9822 12.5407 68.9822 12.4313C68.9624 12.4214 68.9425 12.4115 68.9425 12.4115C68.9325 12.4313 68.9126 12.4512 68.8729 12.5108V11.9244C68.8729 11.9244 68.8431 11.9244 68.8233 11.9244V12.163C68.8233 12.163 68.7735 12.163 68.7537 12.163V11.2784C68.7537 11.2784 68.714 11.2784 68.6842 11.2784V11.5965C68.6842 11.5965 68.6544 11.5965 68.6444 11.5965V9.01237H68.6643L68.6842 9.20121C68.6842 9.20121 68.724 9.20121 68.7339 9.20121V8.44586C68.7339 8.44586 68.7736 8.44586 68.7835 8.44586C68.7835 8.48561 68.8034 8.51543 68.8133 8.55519C68.8233 8.55519 68.8332 8.55519 68.8431 8.55519C68.8431 8.52537 68.8629 8.48561 68.8729 8.4558C68.9027 8.21726 68.873 7.93898 68.9822 7.7402C69.0815 7.5613 69.0716 7.40228 69.1014 7.21344C69.1213 7.24326 69.1311 7.26314 69.1411 7.27307C69.1808 7.17369 69.2205 7.06436 69.2503 6.96497C69.2801 6.85564 69.31 6.74632 69.3398 6.61711C69.3497 6.67674 69.3596 6.7165 69.3695 6.74632C69.3794 6.74632 69.3894 6.74632 69.3993 6.74632C69.449 6.56742 69.4987 6.38852 69.5483 6.18974C69.5682 6.21956 69.588 6.24937 69.6277 6.31895C69.6377 6.15993 69.6476 6.0506 69.6576 5.94127C69.6675 5.94127 69.6775 5.94127 69.6874 5.94127C69.6874 5.98103 69.6974 6.02078 69.7073 6.06054C69.7172 6.06054 69.7271 6.06054 69.737 6.06054C69.7767 5.94127 69.8066 5.81207 69.8563 5.6928C69.896 5.60335 69.9456 5.5139 69.9853 5.42445C69.9853 5.42445 69.9853 5.41451 69.9853 5.40457C69.9853 5.40457 69.9953 5.40457 70.0052 5.40457C70.0052 5.42445 70.0251 5.44433 70.035 5.47415C70.1045 5.31512 70.174 5.17598 70.2436 5.00702V5.12629C70.3926 4.91757 70.5516 4.70886 70.7005 4.51008C70.7005 4.51008 70.7006 4.53989 70.7105 4.54983C70.7502 4.52002 70.7999 4.48026 70.8396 4.44051C70.8893 4.39081 70.9191 4.33118 70.9588 4.27155C70.9985 4.20197 71.0283 4.12246 71.0879 4.07277C71.2369 3.9535 71.3958 3.84418 71.5647 3.72491C71.525 3.70503 71.4951 3.70503 71.505 3.70503C71.7931 3.49632 72.101 3.26772 72.4089 3.04907C72.4089 3.04907 72.3693 3.02919 72.3295 3.00931C72.5679 2.89999 72.7963 2.8006 73.0248 2.70121C72.985 2.70121 72.9453 2.69127 72.9354 2.69127C73.0645 2.61176 73.2035 2.51237 73.3525 2.43286C73.5313 2.34341 73.7399 2.3136 73.8889 2.19433C74.0379 2.07506 74.2365 2.11482 74.3955 1.96574C74.5047 1.85641 74.7431 1.86635 74.9219 1.82659C74.8921 1.80671 74.8723 1.78684 74.8226 1.74708H75.2695C75.2695 1.74708 75.2 1.68745 75.1504 1.63776H75.6072C75.6072 1.63776 75.6072 1.60794 75.6072 1.58806C75.5675 1.58806 75.5278 1.56818 75.488 1.55824C75.488 1.5483 75.488 1.53837 75.488 1.51849H76.084C76.0144 1.45886 75.9846 1.43898 75.9449 1.39922C76.1237 1.38928 76.2826 1.37935 76.4415 1.36941C76.4415 1.33959 76.4416 1.31971 76.4317 1.2899H77.0673C77.0673 1.2899 77.0673 1.26008 77.0673 1.2402C77.0276 1.2402 76.9878 1.22032 76.9481 1.21038C76.9481 1.19051 76.9481 1.18057 76.9481 1.16069H77.8421C77.8421 1.16069 77.8421 1.12093 77.8421 1.10106L77.6534 1.08118C77.6534 1.08118 77.6534 1.0613 77.6534 1.05136H78.9744C78.9744 1.05136 78.9744 1.02155 78.9744 1.00167L78.7161 0.98179C78.7161 0.98179 78.7161 0.971853 78.7161 0.961914H82.0833V0.98179L81.7556 1.00167C81.7556 1.00167 81.7556 1.02155 81.7556 1.04142H83.3746C83.3746 1.04142 83.3746 1.07124 83.3746 1.09112L83.0567 1.111C83.0567 1.111 83.0567 1.15075 83.0567 1.17063H83.8613C83.8613 1.17063 83.8613 1.20045 83.8613 1.22032L83.7421 1.25014C83.7421 1.25014 83.7421 1.27002 83.7421 1.27996C84.1096 1.31971 84.4672 1.36941 84.8546 1.4191C84.8149 1.44892 84.795 1.46879 84.7354 1.51849H85.3114C85.3114 1.51849 85.3115 1.5483 85.3214 1.55824C85.2817 1.56818 85.2419 1.58806 85.2022 1.598V1.63776C85.3413 1.63776 85.4804 1.64769 85.6095 1.65763C85.6095 1.65763 85.6292 1.67751 85.6392 1.68745C85.6193 1.68745 85.5895 1.70733 85.52 1.7272C85.6988 1.73714 85.828 1.74708 85.9969 1.75702C85.9472 1.78684 85.9173 1.80671 85.8974 1.81665C86.2153 1.91604 86.5431 2.00549 86.8907 2.11482C86.851 2.1347 86.8311 2.15457 86.7516 2.19433C86.9006 2.20427 86.9999 2.21421 87.1191 2.23408C87.0794 2.25396 87.0497 2.25396 87.0596 2.25396C87.3675 2.39311 87.6853 2.54219 88.0032 2.69127C87.9932 2.69127 87.9535 2.69127 87.9337 2.70121C88.331 2.95962 88.7282 3.22797 89.1256 3.48638C89.1057 3.48638 89.0859 3.49632 89.0958 3.49632C89.3541 3.73485 89.6421 3.98332 89.9103 4.23179C90.1785 4.4902 90.4069 4.78837 90.5758 5.16604C90.5758 5.08653 90.5758 5.04678 90.5758 4.99708C90.6453 5.1561 90.7148 5.29525 90.7943 5.45427C90.7943 5.43439 90.8142 5.41451 90.8241 5.36482C90.844 5.48409 90.8538 5.58347 90.8638 5.68286C90.8737 5.68286 90.8936 5.68286 90.9035 5.68286C90.9035 5.64311 90.9135 5.60335 90.9234 5.56359C90.9334 5.56359 90.9433 5.56359 90.9532 5.56359C90.9632 5.67292 90.983 5.79219 90.9929 5.94127C91.0326 5.8717 91.0426 5.84188 91.0724 5.79219C91.1221 6.0009 91.1717 6.18974 91.2313 6.41834C91.2511 6.32889 91.2611 6.28913 91.271 6.25931H91.2909C91.2909 6.3587 91.3108 6.46803 91.3208 6.59723C91.3406 6.54754 91.3505 6.52766 91.3803 6.47797C91.3803 6.64693 91.4002 6.79601 91.4002 6.93516C91.4101 6.93516 91.43 6.93516 91.4399 6.93516C91.4499 6.8954 91.4697 6.85564 91.4895 6.80595C91.5591 7.0743 91.6287 7.33271 91.6883 7.58118C91.6883 7.58118 91.6882 7.57124 91.718 7.53148C91.718 7.69051 91.7379 7.82965 91.7478 7.96879C91.7577 7.96879 91.7677 7.96879 91.7876 7.96879C91.7975 7.92904 91.8075 7.88928 91.8174 7.84953C91.8273 7.84953 91.8471 7.84953 91.857 7.84953V8.39616C91.857 8.39616 91.8968 8.39616 91.9067 8.39616C91.9167 8.35641 91.9366 8.31665 91.9465 8.28684C91.9465 8.28684 91.9663 8.28684 91.9762 8.28684V9.05213C91.9762 9.05213 92.0061 9.05213 92.0259 9.05213C92.0359 9.00243 92.0458 8.96268 92.0558 8.91298C92.0657 8.91298 92.0755 8.91298 92.0855 8.91298V9.97644C92.0855 9.97644 92.1252 9.97644 92.1352 9.97644C92.1352 9.90687 92.1451 9.84723 92.1551 9.77766H92.1749V10.1752H84.0997C84.0798 9.98638 84.0599 9.81742 84.0301 9.56895C84.0003 9.66833 83.9805 9.70809 83.9606 9.75778C83.911 9.4795 83.8613 9.21115 83.8215 8.9428C83.8116 8.9428 83.7917 8.9428 83.7818 8.9428C83.7818 8.98255 83.7719 9.02231 83.762 9.08194C83.5336 8.55518 83.1958 8.15763 82.7091 7.89922H82.7985C82.7985 7.89922 82.7985 7.87934 82.7985 7.8694C82.6594 7.79983 82.5204 7.73026 82.3913 7.66069C82.3913 7.66069 82.4111 7.65075 82.4707 7.62093C82.3317 7.611 82.2224 7.60106 82.1231 7.59112C82.1231 7.58118 82.1231 7.5613 82.1231 7.55136L82.2423 7.53148C82.2423 7.53148 82.2423 7.50167 82.2423 7.49173C82.133 7.48179 82.0237 7.47185 81.9045 7.46191C81.9045 7.45197 81.9045 7.44204 81.9045 7.4321C81.9442 7.4321 81.9841 7.42216 82.0238 7.41222C82.0238 7.39234 82.0238 7.3824 82.0238 7.36252H81.5668C81.6165 7.31283 81.6363 7.30289 81.6761 7.27307C81.5171 7.27307 81.3682 7.26314 81.2291 7.2532C81.2291 7.24326 81.2291 7.23332 81.2291 7.22338C81.2689 7.22338 81.3086 7.2035 81.3483 7.19356C81.3483 7.17369 81.3483 7.16375 81.3483 7.14387H80.2856V7.08424H80.6332C80.6332 7.08424 80.6332 7.06436 80.6332 7.05442H79.5902C79.5902 7.05442 79.5902 7.0743 79.5902 7.08424H80.0471C80.0471 7.08424 80.0471 7.11405 80.0471 7.13393H78.8652C78.8652 7.13393 78.8652 7.16375 78.8652 7.18363C78.9049 7.19357 78.9446 7.2035 78.9943 7.22338C78.7162 7.27308 78.4479 7.32277 78.1797 7.37246C78.1797 7.3824 78.1797 7.40228 78.1797 7.41222C78.2195 7.41222 78.2593 7.42216 78.2493 7.42216C77.9812 7.55136 77.6832 7.69051 77.3852 7.83959L77.4051 7.88928H77.5541C77.1667 8.03837 76.8687 8.21727 76.9184 8.66451C76.8886 8.66451 76.8389 8.66451 76.8389 8.66451C76.8389 8.91298 76.7892 9.18133 76.8488 9.40993C76.9084 9.63852 76.9779 9.88699 77.1964 10.046C77.1964 10.046 77.2163 10.046 77.2163 10.0559C77.2362 10.3044 77.4845 10.3939 77.6136 10.5529C77.6633 10.6125 77.7427 10.6523 77.8222 10.692C78.001 10.7715 78.1798 10.8411 78.3486 10.9107C78.3586 10.9107 78.3486 10.9107 78.3288 10.9206C78.5473 10.9902 78.7659 11.0598 79.0341 11.1393H78.8751C78.8751 11.1393 78.8751 11.179 78.8751 11.1989C79.0142 11.1989 79.1533 11.2089 79.2923 11.2188V11.2387C79.2725 11.2486 79.2525 11.2685 79.1929 11.3082H79.6796C79.6101 11.3579 79.5803 11.3679 79.5208 11.4176C79.6995 11.4275 79.8386 11.4374 80.0174 11.4474C79.9578 11.4871 79.928 11.507 79.8883 11.5368C80.1564 11.5865 80.4146 11.6362 80.6927 11.6859C80.6232 11.6959 80.5835 11.7058 80.5437 11.7157C80.5437 11.7257 80.5437 11.7356 80.5437 11.7555C80.8814 11.8052 81.2192 11.8449 81.6165 11.9046C81.5271 11.9244 81.4874 11.9344 81.4476 11.9443C81.4476 11.9642 81.4476 11.9841 81.4476 11.994H82.0436C82.0436 11.994 82.0436 12.0238 82.0436 12.0437C82.0038 12.0437 81.9641 12.0636 81.9244 12.0735C81.9244 12.0934 81.9244 12.1034 81.9244 12.1232H82.4608C82.4111 12.1729 82.3913 12.1829 82.3515 12.2226H82.9375C82.9375 12.2226 82.9375 12.2524 82.9375 12.2624H82.6992C82.6992 12.2624 82.6992 12.3021 82.6992 12.322H83.3547C83.3547 12.322 83.3548 12.3618 83.3647 12.3816C83.325 12.3916 83.2852 12.4115 83.2455 12.4214C83.2455 12.4313 83.2455 12.4413 83.2455 12.4611H83.7818C83.7818 12.4611 83.7818 12.5108 83.7718 12.5407C83.9308 12.5506 84.0897 12.5705 84.2983 12.5804C84.2188 12.6102 84.1791 12.6202 84.0898 12.6599C84.4871 12.7096 84.8248 12.7593 85.2221 12.809C85.1327 12.8289 85.0929 12.8388 85.0532 12.8488C85.0532 12.8686 85.0532 12.8786 85.0532 12.8985C85.2121 12.8985 85.3611 12.9183 85.52 12.9283C85.52 12.9382 85.52 12.9482 85.52 12.9581C85.4803 12.9581 85.4405 12.978 85.4008 12.9879C85.4008 12.9978 85.4008 13.0078 85.4008 13.0177C85.6988 13.0674 85.9869 13.1072 86.3047 13.1569C86.2749 13.1767 86.255 13.1966 86.1656 13.2563H86.6921C86.6027 13.3159 86.5828 13.3258 86.5133 13.3755C86.6821 13.3755 86.8014 13.3954 86.9305 13.3954C86.9305 13.3954 86.9504 13.4153 86.9603 13.4252C86.9404 13.4252 86.9106 13.4451 86.8907 13.455V13.4848H87.3278C87.3278 13.4848 87.3278 13.5147 87.3278 13.5246C87.2881 13.5246 87.2484 13.5445 87.2086 13.5544C87.2086 13.5644 87.2086 13.5743 87.2086 13.5842C87.4371 13.6339 87.6655 13.6836 87.884 13.7234V13.7433C87.8641 13.7433 87.8443 13.7433 87.8344 13.7433C87.8145 13.7433 87.7946 13.7433 87.7648 13.793C87.874 13.8029 87.9833 13.8128 88.1223 13.8327C88.0727 13.8625 88.0528 13.8824 88.0131 13.9023C88.6389 14.0017 89.0957 14.4688 89.7314 14.6179C89.652 14.6278 89.6123 14.6378 89.5627 14.6477C89.8408 14.8067 90.099 14.9558 90.3671 15.1049C90.3473 15.1049 90.3076 15.1049 90.2678 15.1248C90.2678 15.1347 90.2678 15.1446 90.2678 15.1546C90.4268 15.2043 90.5758 15.2639 90.7744 15.3235H90.5758C90.7447 15.4329 90.8936 15.5124 91.0128 15.6217C91.1518 15.741 91.2512 15.9 91.3803 16.0391C91.4299 16.0888 91.5094 16.1186 91.6286 16.1882C91.6882 16.2876 91.7876 16.4566 91.9067 16.6454C91.9067 16.6056 91.9167 16.5659 91.9266 16.5162C92.0657 16.7845 92.2047 17.033 92.3338 17.2815C92.3338 17.2715 92.3537 17.2417 92.3636 17.2119C92.3735 17.2119 92.3835 17.2119 92.3934 17.2119C92.3934 17.3212 92.4133 17.4306 92.4233 17.5498C92.4332 17.5498 92.453 17.5498 92.4629 17.5498C92.4629 17.5101 92.4828 17.4703 92.4927 17.4306C92.5027 17.4306 92.5126 17.4306 92.5226 17.4306C92.5226 17.5399 92.5425 17.6393 92.5524 17.7387C92.5623 17.7387 92.5821 17.7387 92.5821 17.7387C92.5821 17.7188 92.602 17.689 92.6119 17.6393C92.6219 17.7784 92.6318 17.8778 92.6418 18.017C92.6815 17.9474 92.7013 17.9275 92.7112 17.8977C92.7212 17.8977 92.7411 17.8977 92.751 17.8977V18.3251C92.751 18.3251 92.7908 18.3251 92.8107 18.3251C92.8206 18.2853 92.8304 18.2456 92.8404 18.2157C92.8404 18.2157 92.8603 18.2157 92.8702 18.2157C92.8702 18.3648 92.8801 18.5139 92.8901 18.6729C92.9199 18.6332 92.9397 18.6133 92.9595 18.5835C92.9595 18.7326 92.9695 18.8717 92.9794 19.0108C92.9894 19.0108 93.0093 19.0108 93.0192 19.0108C93.0291 18.9711 93.0391 18.9313 93.049 18.8916C93.0689 18.9015 93.0887 18.9115 93.0887 18.9115C93.1185 19.3488 93.1484 19.7861 93.1782 20.2234C93.1782 20.3029 93.1782 20.3824 93.1782 20.4719C93.198 20.4719 93.2178 20.4719 93.2377 20.4719V20.1439C93.2377 20.1439 93.2675 20.1439 93.2874 20.1439V22.1416C93.2874 22.1416 93.2576 22.1416 93.2476 22.1416V21.7341C93.2476 21.7341 93.2179 21.7341 93.198 21.7341V22.9963C93.198 22.9963 93.1682 22.9963 93.1583 22.9963C93.1483 22.9566 93.1384 22.9168 93.1185 22.8771C93.1086 22.8771 93.0986 22.8771 93.0887 22.8771V23.7318C93.0887 23.7318 93.059 23.7318 93.049 23.7318C93.049 23.692 93.0291 23.6523 93.0192 23.6125C92.9993 23.6125 92.9696 23.6125 92.9497 23.6125V24.1194C92.9497 24.1194 92.9 24.1194 92.8801 24.1194C92.8801 24.2486 92.8702 24.3778 92.8602 24.5368C92.8205 24.4871 92.8007 24.4673 92.7609 24.4176C92.6914 24.6462 92.6219 24.8648 92.5623 25.0835C92.6021 25.0835 92.5821 25.0835 92.5821 25.0835C92.5821 25.0636 92.5623 25.0437 92.5325 24.9841C92.5325 25.1332 92.5126 25.2326 92.5126 25.3319C92.5126 25.3319 92.4927 25.3319 92.4927 25.3419C92.4828 25.3021 92.4728 25.2624 92.4629 25.2226C92.453 25.2226 92.4332 25.2226 92.4233 25.2226C92.4133 25.3319 92.4034 25.4313 92.3835 25.5904C92.3537 25.5108 92.3437 25.4711 92.3338 25.4214C92.2841 25.5307 92.2445 25.6301 92.2048 25.7196C92.0856 25.9581 91.9663 26.2066 91.8371 26.4352C91.7974 26.5047 91.6982 26.5544 91.6485 26.624C91.579 26.7134 91.5194 26.8128 91.4499 26.9023C91.4499 26.9023 91.4499 26.8625 91.4499 26.8526C91.0625 27.3793 90.6155 27.8465 90.0493 28.2142C90.0891 28.2142 90.1288 28.2142 90.1486 28.2241C89.8904 28.3732 89.6322 28.5223 89.3342 28.6813C89.4037 28.6813 89.4434 28.6913 89.5328 28.7012C89.3242 28.7708 89.1753 28.8205 88.9667 28.8801C89.0462 28.89 89.0859 28.9 89.0958 28.9C88.8972 28.9894 88.6687 29.059 88.48 29.1882C88.2714 29.3373 88.0231 29.4069 87.8145 29.5361C87.6258 29.6454 87.4469 29.6951 87.2483 29.7448C87.1291 29.7746 87.0198 29.864 86.8708 29.9336C86.8708 29.8839 86.8708 29.8939 86.8708 29.9038C86.8907 29.9038 86.9106 29.9237 86.9504 29.9336C86.6822 29.9634 86.4636 30.0529 86.255 30.192C86.2351 30.202 86.2054 30.202 86.1756 30.2119C85.9173 30.2417 85.669 30.2715 85.4107 30.3014C85.4008 30.3014 85.391 30.3212 85.3612 30.3411C85.4108 30.361 85.4506 30.3709 85.4903 30.3809C85.4903 30.3908 85.4903 30.4007 85.4903 30.4206H84.9439C84.9439 30.4206 84.9439 30.4504 84.9439 30.4703C84.9737 30.4902 84.9936 30.5001 85.0234 30.52C85.0234 30.53 85.0135 30.5498 85.0036 30.5498C84.6063 30.5796 84.2089 30.6194 83.8116 30.6492C83.7719 30.6492 83.7421 30.6691 83.7123 30.7188L83.901 30.7387C83.901 30.7387 83.901 30.7585 83.901 30.7685H82.8382C82.8382 30.7685 82.8382 30.7983 82.8382 30.8182C82.8879 30.8281 82.9276 30.8381 82.9773 30.848C82.9773 30.848 82.9773 30.8579 82.9773 30.8679H77.7229C77.8222 30.8381 77.862 30.8281 77.9117 30.8182C77.9117 30.8082 77.9117 30.7983 77.9117 30.7884H76.8488C76.8488 30.7884 76.8488 30.7585 76.8488 30.7486C76.9084 30.7486 76.978 30.7287 77.0376 30.7287C77.0376 30.7089 77.0376 30.689 77.0376 30.6592C76.9383 30.6592 76.8488 30.6592 76.7495 30.6592C76.4615 30.6293 76.1436 30.6592 75.8854 30.5498C75.7165 30.4703 75.5476 30.4703 75.3589 30.4206C75.3986 30.3908 75.4284 30.3709 75.488 30.3212H74.8921C74.9517 30.2815 74.9716 30.2715 75.0411 30.2318H74.5644C74.5644 30.2318 74.5644 30.202 74.5644 30.192C74.6041 30.1821 74.6438 30.1722 74.6736 30.1523V30.1125C74.5246 30.1125 74.3756 30.0926 74.2266 30.0926C74.2266 30.0926 74.2266 30.0728 74.2266 30.0628C74.2663 30.0628 74.2961 30.0429 74.3656 30.0231C74.316 29.9933 74.2961 29.9734 74.2663 29.9734C74.0876 29.9436 73.8988 29.9237 73.72 29.874C73.6008 29.8442 73.4915 29.7547 73.3525 29.6852C73.3525 29.7348 73.3525 29.715 73.3525 29.715C73.3724 29.715 73.3923 29.6951 73.4519 29.6752C73.3029 29.6653 73.1936 29.6553 73.0942 29.6454V29.6056C73.0942 29.6056 73.1737 29.5957 73.2134 29.5858C73.2134 29.5659 73.2134 29.5559 73.2134 29.5361C73.1042 29.5261 72.9949 29.5162 72.8857 29.5063C72.8857 29.4963 72.8857 29.4864 72.8857 29.4764L73.0049 29.4566V29.4267C72.8162 29.377 72.6175 29.3274 72.4089 29.2777C72.4586 29.2677 72.4983 29.2578 72.5281 29.2578C72.5281 29.2379 72.5281 29.228 72.5281 29.2081C72.4189 29.1981 72.2997 29.1783 72.1904 29.1683V29.1385C72.1904 29.1385 72.2699 29.1286 72.3395 29.1186C72.0911 29.0093 71.8726 28.9199 71.654 28.8205C71.6838 28.8105 71.7136 28.8006 71.7434 28.7907C71.5944 28.7211 71.4455 28.6515 71.2865 28.5819C71.3263 28.5819 71.3561 28.572 71.4157 28.5621C71.227 28.4527 71.0481 28.3434 70.8594 28.2341C70.8793 28.2341 70.8992 28.2241 70.9688 28.2043C70.7304 28.0552 70.5217 27.926 70.3132 27.7968C70.3132 27.7968 70.3429 27.7968 70.3926 27.7769C70.184 27.5781 69.9754 27.3893 69.7768 27.1806C69.6178 27.0116 69.4689 26.8228 69.3199 26.6439C69.3298 26.624 69.3199 26.6439 69.31 26.6637C69.1709 26.4252 69.0219 26.1767 68.8828 25.9382C68.8828 25.9482 68.863 25.968 68.863 25.978C68.724 25.7096 68.5749 25.4313 68.4259 25.163C68.4259 25.163 68.406 25.1928 68.3961 25.2127C68.3266 24.9841 68.267 24.7754 68.1975 24.5567C68.1975 24.5667 68.1776 24.5865 68.1577 24.6163C68.0584 24.2585 67.9691 23.9007 67.8698 23.5529C67.8698 23.5529 67.8399 23.5827 67.8201 23.6125C67.8201 23.6026 67.8002 23.5926 67.8002 23.5728C67.7505 23.2945 67.7505 22.9864 67.6512 22.728C67.532 22.4199 67.6115 22.1217 67.5817 21.8235C67.5817 21.7937 67.5817 21.754 67.5717 21.7241C67.5519 21.7241 67.532 21.7241 67.5121 21.7241L67.5519 21.7838ZM89.4037 10.1653V10.1255H87.5264C87.5264 10.1255 87.5264 10.1454 87.5264 10.1653H89.4037ZM91.1419 10.1156C91.1419 10.1156 91.1419 10.1355 91.1419 10.1454H92.1948C92.1948 10.1454 92.1948 10.1255 92.1948 10.1156H91.1419ZM85.3711 10.1156C85.3711 10.1156 85.3711 10.1355 85.3711 10.1553H85.9969C85.9969 10.1553 85.9969 10.1355 85.9969 10.1156H85.3711Z" fill="#666666"/>
<path d="M46.7528 30.3413V29.1189C46.7528 29.1189 46.7131 29.1189 46.7031 29.1189V30.3513H38.1113V8.90327H29.9766V1.67773H54.9274V8.89333H46.8024V30.3513C46.8024 30.3513 46.7628 30.3513 46.7429 30.3513L46.7528 30.3413ZM30.0162 7.13416C30.0162 7.13416 30.0361 7.13416 30.046 7.13416V3.80465C30.046 3.80465 30.0261 3.80465 30.0162 3.80465V7.13416ZM49.1863 8.784C49.1863 8.784 49.1863 8.81382 49.1863 8.82376H50.4179V8.784H49.1863ZM38.0319 8.79394H36.4724C36.9989 8.79394 37.5154 8.79394 38.0419 8.79394H38.0319ZM31.6949 8.784H30.1951H31.685H31.6949ZM48.5506 8.79394C48.1831 8.79394 47.8156 8.79394 47.458 8.79394C47.8255 8.79394 48.193 8.79394 48.5506 8.79394ZM38.171 30.1426V30.1624C38.171 29.8742 38.171 29.5959 38.171 29.3077V30.1426Z" fill="#666666"/>
<path d="M65.7937 30.3515H57.1125V1.66797H65.7937V30.3515ZM65.7043 1.81705V4.38127V1.82699V1.81705Z" fill="#666666"/>
<path d="M81.249 31.0269H79.2625C79.2625 31.0269 79.2625 31.007 79.2625 30.9971H81.249C81.249 30.9971 81.249 31.0169 81.249 31.0269Z" fill="#666666"/>
<path d="M30.0162 16.7247V15.6016C30.0162 15.6016 30.0262 15.6016 30.0362 15.6016V16.7247C30.0362 16.7247 30.0262 16.7247 30.0162 16.7247Z" fill="#666666"/>
</svg>
