<svg width="154" height="24" viewBox="0 0 154 24" fill="none" xmlns="http://www.w3.org/2000/svg">
<path d="M7.48506 16.1847V23.2015C7.09769 23.3108 0.909664 23.3108 0.492493 23.2214V0.212943C0.63155 0.203005 0.760689 0.183128 0.879881 0.183128C4.5649 0.183128 8.23997 0.173189 11.925 0.183128C13.0573 0.183128 14.1797 0.282516 15.2623 0.650253C17.9442 1.56463 19.6526 3.45301 20.3876 6.13649C21.212 9.1579 20.5266 11.8613 18.2223 14.0677C17.1595 15.0914 15.8384 15.648 14.3982 15.9262C13.4447 16.1051 12.4812 16.1946 11.5177 16.1946C10.3457 16.1946 9.17363 16.1946 8.00158 16.1946H7.48506V16.1847ZM7.50495 10.7282C7.63407 10.7282 7.72346 10.7481 7.81286 10.7481C9.02464 10.7481 10.2463 10.7481 11.4581 10.7183C12.809 10.6885 13.693 9.88343 13.8221 8.54169C14.0108 6.66325 12.6501 5.729 11.3886 5.76876C10.2365 5.80851 9.07434 5.76876 7.91222 5.76876C7.78309 5.76876 7.65393 5.7787 7.50495 5.78863V10.7084V10.7282Z" fill="#666666"/>
<path d="M117.32 23.2509H111.023V6.87171C111.311 6.77233 116.337 6.74251 116.923 6.8419C116.973 7.34878 117.022 7.87553 117.072 8.45199C117.191 8.37248 117.291 8.32278 117.37 8.25321C118.473 7.3786 119.665 6.663 121.065 6.37477C123.201 5.9474 125.157 6.34495 126.776 7.88547C127.67 8.74021 128.117 9.83349 128.326 11.0361C128.425 11.5927 128.485 12.1691 128.485 12.7456C128.495 16.095 128.485 19.4443 128.485 22.7937V23.2509H121.969C121.969 23.082 121.949 22.913 121.949 22.744C121.949 19.822 121.949 16.9 121.949 13.978C121.949 13.7593 121.949 13.5407 121.919 13.322C121.79 12.0995 120.807 11.3144 119.585 11.4734C118.274 11.6324 117.33 12.6859 117.33 14.0376C117.33 16.9298 117.33 19.822 117.33 22.7142C117.33 22.8832 117.33 23.0621 117.33 23.2609L117.32 23.2509Z" fill="#666666"/>
<path d="M38.6836 6.80196H44.5737C44.6233 7.3486 44.673 7.87536 44.7326 8.48163C44.9313 8.32261 45.0604 8.21328 45.1994 8.11389C46.2622 7.29891 47.4045 6.66282 48.7156 6.36465C50.2154 6.02673 51.6656 6.20563 53.0462 6.88147C54.6752 7.68652 55.569 9.06802 55.9366 10.8073C56.0458 11.354 56.1253 11.9105 56.1253 12.4671C56.1452 15.9358 56.1253 19.3945 56.1253 22.8631C56.1253 22.9824 56.1154 23.0917 56.1054 23.2408H49.6095C49.6095 23.052 49.6095 22.8929 49.6095 22.7339C49.6095 19.802 49.6095 16.8601 49.6095 13.9281C49.6095 13.6399 49.5896 13.3417 49.53 13.0535C49.3016 11.99 48.4176 11.354 47.335 11.4434C46.0934 11.5527 45.1596 12.4572 45.0106 13.6995C44.9808 13.9182 44.9809 14.1368 44.9809 14.3555C44.9809 17.1284 44.9809 19.9014 44.9809 22.6842C44.9809 22.8532 44.9809 23.0321 44.9809 23.2408H38.6935V6.80196H38.6836Z" fill="#666666"/>
<path d="M74.5207 23.2807C74.4015 23.2807 74.2723 23.3005 74.1432 23.3005C72.4149 23.3005 70.6767 23.2906 68.9485 23.3105C68.571 23.3105 68.3723 23.1614 68.2531 22.8434C68.1438 22.5452 68.0446 22.2371 67.9353 21.929C67.9055 21.8495 67.8757 21.77 67.836 21.6805C67.7764 21.7203 67.7367 21.7302 67.7069 21.76C66.7434 22.8732 65.4621 23.3801 64.0715 23.6484C62.7802 23.9068 61.5089 23.7975 60.2474 23.4198C58.3304 22.8434 57.0293 21.2134 56.92 19.1163C56.8008 16.8204 57.9728 15.1408 60.1679 14.4053C61.5386 13.9481 62.9491 13.6996 64.3596 13.4412C65.0648 13.312 65.7601 13.1431 66.4653 12.984C66.5745 12.9542 66.6937 12.9145 66.803 12.8747C67.3195 12.6958 67.7069 12.3778 67.7268 11.8212C67.7466 11.2646 67.4585 10.8174 66.952 10.5888C66.0183 10.1515 65.0747 10.1813 64.1708 10.6882C63.6444 10.9863 63.4458 11.5131 63.3564 12.0796C63.3365 12.2088 63.3365 12.338 63.3166 12.5368C63.1676 12.5368 63.0285 12.5368 62.8894 12.5368C61.3399 12.497 59.7806 12.4473 58.2311 12.4076C57.7444 12.3976 57.7344 12.3877 57.7046 11.9206C57.5755 10.0123 58.7177 8.13388 60.5354 7.27914C61.4492 6.85177 62.4226 6.63311 63.406 6.50391C65.5514 6.21568 67.677 6.32501 69.7828 6.84183C70.4185 7.00085 71.0045 7.24932 71.5607 7.57731C72.8023 8.2929 73.4876 9.40605 73.7161 10.7875C73.8452 11.5528 73.9346 12.3281 73.9644 13.1033C74.0339 15.4489 74.0538 17.7944 74.1034 20.1499C74.1134 20.7363 74.1332 21.3227 74.2027 21.9091C74.2623 22.3564 74.4015 22.7837 74.5207 23.2707V23.2807ZM67.9055 15.9458C66.8427 16.2937 65.8296 16.6216 64.8164 16.9596C64.4787 17.0689 64.1509 17.1782 63.8232 17.3174C63.5947 17.4168 63.3762 17.546 63.1875 17.705C62.81 18.023 62.7207 18.4405 62.8597 18.8976C63.0087 19.3946 63.3663 19.7126 63.853 19.8816C64.3695 20.0605 64.8859 20.0605 65.4124 19.9611C66.6142 19.7424 67.4983 19.1262 67.8161 17.8839C67.975 17.2577 67.9551 16.6117 67.9055 15.9557V15.9458Z" fill="#666666"/>
<path d="M21.0432 12.3975C20.924 11.7216 20.9339 11.1253 21.0928 10.5389C21.5398 8.97852 22.4934 7.85543 23.9833 7.19946C24.8474 6.81185 25.7711 6.62301 26.6949 6.50375C28.7013 6.2354 30.7077 6.31491 32.6843 6.76216C33.1412 6.86155 33.5881 7.01063 34.0252 7.17959C35.7038 7.84549 36.6871 9.07791 37.0149 10.857C37.2235 11.98 37.2334 13.1031 37.2533 14.2362C37.293 16.2637 37.3228 18.2912 37.3725 20.3088C37.3824 20.8554 37.4023 21.4021 37.4718 21.9388C37.5314 22.3761 37.6804 22.8134 37.7896 23.2706C37.6804 23.2706 37.5513 23.2904 37.4221 23.2904C35.674 23.2904 33.9259 23.2805 32.1877 23.3004C31.8202 23.3004 31.6413 23.1513 31.5321 22.8531C31.393 22.4755 31.254 22.0878 31.1249 21.7002C31.0752 21.7002 31.0354 21.7002 31.0255 21.7201C30.1713 22.7041 29.0589 23.2308 27.8272 23.5389C26.2777 23.9265 24.7382 23.8768 23.2383 23.3203C21.3412 22.6146 20.3678 21.1735 20.189 19.1857C20.0797 18.003 20.338 16.8998 21.1127 15.9755C21.7285 15.24 22.5033 14.7232 23.4171 14.425C24.7878 13.9678 26.1982 13.7193 27.6087 13.4609C28.3139 13.3317 29.0092 13.1628 29.7144 13.0037C29.8236 12.9739 29.9429 12.9342 30.0521 12.8944C30.6282 12.6857 31.0156 12.2782 30.9957 11.8111C30.9759 11.2346 30.6778 10.8073 30.1514 10.5687C29.6746 10.3501 29.1681 10.2706 28.6516 10.3203C28.4629 10.3401 28.2741 10.3799 28.0953 10.4296C27.1617 10.6781 26.6948 11.2545 26.6055 12.2086C26.6055 12.308 26.5856 12.4074 26.5657 12.5565C24.7183 12.5068 22.9006 12.467 21.0332 12.4174L21.0432 12.3975ZM31.1845 15.9158C31.0454 15.9655 30.946 15.9953 30.8567 16.0252C30.1912 16.2537 29.5356 16.4923 28.8701 16.7209C28.3338 16.9097 27.7775 17.0588 27.2511 17.2576C26.9829 17.357 26.7147 17.506 26.4962 17.6849C26.089 18.003 25.9896 18.4701 26.1684 18.9571C26.3373 19.4342 26.685 19.7323 27.1518 19.8914C27.9563 20.1498 28.741 20.0206 29.5158 19.7323C30.1813 19.4739 30.6481 19.0167 30.9361 18.3707C31.2838 17.5955 31.2441 16.7805 31.1944 15.9158H31.1845Z" fill="#666666"/>
<path d="M101.031 23.838C99.6104 23.7983 98.2099 23.6194 96.9186 23.0131C94.4057 21.8304 92.7967 19.8724 92.1709 17.1492C91.7041 15.1117 91.7834 13.1041 92.7072 11.2157C93.8693 8.85027 95.7764 7.30975 98.339 6.66373C100.584 6.09722 102.848 6.14691 104.984 7.08116C107.755 8.2937 109.583 10.361 110.06 13.4122C110.497 16.205 109.891 18.7593 108.003 20.926C106.653 22.4764 104.924 23.3908 102.878 23.6691C102.272 23.7486 101.657 23.7883 101.041 23.848L101.031 23.838ZM103.862 14.9825C103.832 14.6744 103.812 14.2073 103.742 13.7402C103.643 13.0345 103.454 12.3686 103.067 11.7624C102.084 10.2218 99.978 10.2119 99.0145 11.7624C98.7662 12.15 98.5973 12.6072 98.4682 13.0544C98.339 13.5016 98.2795 13.9787 98.2497 14.4359C98.1603 15.6783 98.2696 16.9007 98.7563 18.0636C99.1635 19.0376 100.057 19.6538 101.051 19.614C102.133 19.5743 102.898 19.0376 103.325 18.0338C103.723 17.1095 103.822 16.1454 103.862 14.9925V14.9825Z" fill="#666666"/>
<path d="M90.8995 11.5626H85.1385C85.1385 11.5626 85.0989 11.4931 85.0989 11.4732C85.0095 10.5787 84.473 10.1215 83.6288 9.96248C83.1023 9.86309 82.5759 9.88297 82.0594 10.0519C81.7416 10.1513 81.4833 10.3302 81.2946 10.6184C80.9867 11.0856 81.106 11.5726 81.6324 11.7614C81.9999 11.9006 82.3971 11.9801 82.7845 12.0397C84.3638 12.2882 85.9233 12.6261 87.4529 13.0932C88.3369 13.3616 89.1215 13.7889 89.8466 14.3654C91.1379 15.399 91.6445 16.7706 91.5352 18.3707C91.4061 20.3684 90.3134 21.74 88.605 22.6743C87.4429 23.3103 86.1715 23.6085 84.8703 23.7476C82.9533 23.9564 81.0662 23.7576 79.2088 23.2308C77.8083 22.8333 76.6462 22.0779 75.7821 20.8952C75.1861 20.0802 74.8483 19.1758 74.8483 18.1521C74.8483 18.0229 74.8583 17.8937 74.8682 17.7446H80.8179C80.8576 18.003 80.8874 18.2316 80.937 18.4602C81.0662 19.0466 81.4138 19.464 81.9403 19.7324C82.6355 20.0802 83.3706 20.1697 84.1156 19.961C84.8208 19.7721 85.2876 19.2155 85.2876 18.5894C85.2876 18.0825 85.0492 17.7048 84.5526 17.5558C83.9765 17.3868 83.3904 17.2675 82.8044 17.1383C81.5032 16.87 80.1822 16.6314 78.891 16.3333C78.0566 16.1444 77.2719 15.8065 76.6164 15.24C74.6398 13.5305 74.3219 10.1414 76.6958 8.15361C77.7486 7.26905 78.9604 6.77211 80.3013 6.54352C82.5263 6.15591 84.7413 6.21554 86.9364 6.75223C87.582 6.91126 88.178 7.16967 88.754 7.50759C89.9857 8.23312 90.6215 9.3264 90.8102 10.7178C90.8499 10.9862 90.8697 11.2645 90.8995 11.5626Z" fill="#666666"/>
<path d="M153.654 13.0338H148.092C148.042 12.8847 148.012 12.7356 147.963 12.6064C147.635 11.692 147.029 11.046 146.066 10.8174C144.963 10.559 143.781 11.2149 143.334 12.3281C142.897 13.4214 142.758 14.5743 142.897 15.7471C142.957 16.2539 143.076 16.7608 143.205 17.2478C143.374 17.8839 143.761 18.4107 144.258 18.838C145.301 19.7425 147.367 19.6828 147.873 17.6354C147.963 17.2677 147.992 16.89 148.062 16.4825H153.952C153.952 16.7012 153.982 16.9198 153.982 17.1286C153.902 18.9672 153.108 20.4481 151.757 21.6607C150.575 22.7142 149.204 23.3503 147.645 23.6286C146.006 23.9267 144.377 23.8969 142.768 23.4099C139.838 22.5253 137.176 19.6729 136.759 16.3434C136.451 13.8587 136.947 11.5827 138.467 9.57504C139.669 7.98483 141.288 7.04064 143.215 6.61327C145.221 6.16602 147.218 6.24553 149.155 6.94125C151.052 7.62703 152.442 8.88926 153.277 10.7478C153.614 11.4932 153.734 12.2585 153.644 13.0338H153.654Z" fill="#666666"/>
<path d="M129.746 6.8125H135.835V23.2513H129.746V6.8125Z" fill="#666666"/>
<path d="M129.756 0.203125H135.835V4.55633H129.756V0.203125Z" fill="#666666"/>
</svg>
