<svg width="156" height="34" viewBox="0 0 156 34" fill="none" xmlns="http://www.w3.org/2000/svg">
<path d="M126.394 33.3893C126.245 33.3495 126.096 33.2899 125.937 33.2799C123.811 33.1607 121.765 32.6737 119.789 31.8885C117.405 30.9344 115.329 29.533 113.621 27.6148C112.329 26.1637 111.376 24.5039 110.74 22.6653C109.926 20.3197 109.707 17.9046 109.896 15.4497C109.975 14.3862 110.184 13.3426 110.492 12.309C111.257 9.70502 112.617 7.45884 114.554 5.56052C115.706 4.43743 117.008 3.533 118.438 2.78759C119.967 1.99248 121.577 1.4359 123.265 1.09798C124.199 0.909146 125.142 0.839575 126.086 0.71037C126.205 0.690492 126.324 0.660676 126.444 0.630859C127.417 0.630859 128.39 0.630859 129.364 0.630859C129.463 0.660676 129.572 0.690492 129.672 0.71037C130.188 0.770003 130.715 0.79982 131.231 0.87933C132.84 1.11786 134.39 1.54523 135.889 2.18132C138.144 3.13545 140.131 4.47719 141.809 6.26618C143.12 7.65762 144.153 9.23789 144.879 11.007C145.534 12.5972 145.931 14.2471 146.021 15.9665C146.1 17.5666 146.021 19.1469 145.693 20.7073C145.445 21.9 145.067 23.0429 144.551 24.1462C143.885 25.5773 143.021 26.8595 141.948 28.0124C140.18 29.9007 138.045 31.2325 135.621 32.1171C133.794 32.783 131.907 33.2104 129.96 33.2998C129.811 33.2998 129.672 33.3694 129.523 33.4091H126.384L126.394 33.3893ZM118.378 17.1393C118.378 18.8686 118.557 20.757 119.093 22.5957C119.59 24.2754 120.335 25.796 121.567 27.0682C122.858 28.4 124.447 29.1255 126.255 29.4038C127.298 29.5628 128.351 29.5628 129.404 29.4336C130.526 29.2845 131.589 28.9665 132.572 28.4C134.032 27.5552 135.115 26.3526 135.889 24.8617C136.615 23.4802 137.042 21.9994 137.28 20.4588C137.578 18.5804 137.638 16.6821 137.429 14.7937C137.32 13.8197 137.181 12.8358 136.952 11.8816C136.744 11.0468 136.436 10.2318 136.078 9.44661C135.462 8.08499 134.549 6.93208 133.327 6.05746C132.105 5.18285 130.725 4.71572 129.225 4.5567C127.536 4.3778 125.897 4.51694 124.308 5.13315C122.898 5.67979 121.765 6.58422 120.861 7.76695C119.908 9.01924 119.322 10.4604 118.944 11.981C118.537 13.6209 118.388 15.2807 118.388 17.1492L118.378 17.1393Z" fill="#666666"/>
<path d="M52.9618 33.3894C52.8128 33.3497 52.6638 33.2901 52.5049 33.2801C51.2533 33.2404 50.0217 33.0118 48.8198 32.7037C46.5254 32.1173 44.3998 31.1731 42.4927 29.7518C40.5261 28.2809 38.9865 26.4422 37.9237 24.2159C37.3576 23.0332 36.9404 21.7908 36.702 20.5087C36.3941 18.8688 36.3047 17.219 36.4437 15.5492C36.6225 13.4024 37.1986 11.3849 38.172 9.4766C38.7978 8.25412 39.5924 7.15091 40.5261 6.14709C42.1252 4.42767 44.0224 3.14556 46.1678 2.22125C47.2207 1.76406 48.3133 1.42614 49.4357 1.17767C50.4985 0.939136 51.5712 0.770176 52.6638 0.700604C52.7631 0.700604 52.8724 0.65091 52.9717 0.621094C53.9749 0.621094 54.9781 0.621094 55.9813 0.621094C56.1104 0.65091 56.2296 0.700605 56.3587 0.710543C58.0671 0.819871 59.7358 1.18761 61.3449 1.74418C62.6362 2.19143 63.8479 2.77782 65.0101 3.50336C66.5 4.42767 67.8111 5.57063 68.9434 6.91238C70.2644 8.48271 71.2378 10.2419 71.8636 12.1899C72.6284 14.615 72.7774 17.0798 72.4298 19.5943C72.1318 21.7312 71.4564 23.7289 70.3439 25.5676C69.3407 27.2373 68.0495 28.6387 66.4801 29.8015C64.8412 31.024 63.0335 31.8986 61.0867 32.4751C59.6067 32.9124 58.1069 33.2205 56.5574 33.2801C56.3786 33.2801 56.2097 33.3497 56.0309 33.3894H52.9816H52.9618ZM64.0565 16.9407C64.0565 16.9407 64.0963 16.9407 64.1161 16.9407C64.0267 15.8573 63.9572 14.774 63.8281 13.6907C63.6394 12.17 63.2321 10.709 62.5468 9.32752C61.7521 7.71742 60.6198 6.41543 59.0306 5.55076C57.9976 4.98424 56.8851 4.67614 55.723 4.55687C54.1139 4.38791 52.5346 4.51712 51.005 5.06375C49.6542 5.55076 48.5219 6.37568 47.6081 7.48883C46.4559 8.88027 45.8003 10.5003 45.3931 12.2396C44.9858 13.9888 44.8567 15.7679 44.9064 17.5569C44.9461 19.0875 45.0951 20.5982 45.4725 22.079C45.9493 23.9674 46.734 25.6868 48.1246 27.0982C49.1575 28.1417 50.3892 28.8275 51.7996 29.2052C52.634 29.4238 53.4783 29.5133 54.3424 29.5232C55.5741 29.553 56.7759 29.3741 57.9281 28.9468C59.7954 28.261 61.186 26.9888 62.1892 25.2992C62.9639 23.9873 63.4208 22.5462 63.7089 21.0553C63.9771 19.6937 64.0665 18.3222 64.0665 16.9407H64.0565Z" fill="#666666"/>
<path d="M0.964312 1.79429C9.31768 1.79429 17.6711 1.79429 26.0244 1.79429C28.9545 1.79429 31.8847 1.79429 34.8247 1.79429C34.9936 1.79429 35.083 1.83405 35.083 2.02289C35.083 5.51142 35.083 9.00989 35.083 12.4984C35.083 12.7071 35.0135 12.7568 34.8148 12.7568C33.7818 12.7568 32.7389 12.7767 31.7059 12.7966C31.5668 12.7966 31.5072 12.7469 31.5072 12.6077C31.5072 11.4548 31.3384 10.3318 30.9312 9.25836C30.2259 7.40974 28.9446 6.18726 27.0177 5.67044C26.233 5.46172 25.4285 5.41203 24.6239 5.41203C23.869 5.41203 23.1141 5.41203 22.3593 5.41203C22.1805 5.41203 22.1209 5.45178 22.1209 5.64062C22.1209 10.1727 22.1209 14.7048 22.1209 19.237C22.1209 21.3837 22.1209 23.5405 22.1308 25.6873C22.1308 26.2339 22.2202 26.7706 22.5082 27.2576C22.8062 27.7645 23.2929 28.0129 23.8492 28.0925C24.3756 28.162 24.902 28.1819 25.4284 28.1918C26.531 28.2018 27.6335 28.1918 28.736 28.1918C28.9248 28.1918 28.9546 28.2614 28.9546 28.4204C28.9546 29.4044 28.9546 30.3983 28.9546 31.3822C28.9546 31.5412 28.9049 31.6009 28.746 31.6009C28.0705 31.6009 27.3951 31.6009 26.7197 31.6009C20.7403 31.6009 14.7608 31.6009 8.78131 31.6009C8.40387 31.6009 8.02644 31.6009 7.649 31.6009C7.46028 31.6009 7.41063 31.5313 7.41063 31.3524C7.41063 30.3784 7.41063 29.4044 7.41063 28.4304C7.41063 28.2316 7.48013 28.1819 7.66886 28.1819C8.92037 28.1819 10.162 28.1819 11.4135 28.1819C12.0094 28.1819 12.5855 28.1024 13.112 27.7943C13.7477 27.4166 14.0754 26.8302 14.1847 26.1345C14.2542 25.6177 14.2642 25.0909 14.2642 24.5741C14.2642 19.0779 14.2642 13.5818 14.2642 8.07564C14.2642 7.25071 14.2642 6.43573 14.2642 5.61081C14.2642 5.47166 14.2343 5.39215 14.0655 5.40209C12.9729 5.41203 11.8902 5.40209 10.7976 5.42197C9.79444 5.44185 8.83099 5.67044 7.92711 6.13756C6.6756 6.79353 5.83133 7.80729 5.32476 9.11921C4.89766 10.2324 4.69901 11.3853 4.67915 12.568C4.67915 12.6972 4.64935 12.7866 4.49042 12.7866C3.60642 12.7767 2.7224 12.7668 1.83839 12.7568C1.54041 12.7568 1.24244 12.7568 0.944458 12.7568V1.77441L0.964312 1.79429Z" fill="#666666"/>
<path d="M155.268 28.0322C155.199 28.2509 155.129 28.4695 155.06 28.6882C154.523 30.2386 153.441 31.1828 151.841 31.5207C150.004 31.9083 148.087 30.9244 147.262 29.205C146.875 28.4099 146.806 27.5551 146.925 26.6905C147.034 25.8655 147.392 25.1301 147.968 24.5238C148.653 23.7983 149.487 23.3609 150.481 23.2218C151.692 23.0528 152.775 23.3609 153.719 24.1163C154.483 24.7226 154.97 25.5276 155.169 26.5016C155.189 26.5811 155.238 26.6507 155.278 26.7302V28.0421L155.268 28.0322ZM147.521 27.3464C147.501 29.1255 148.812 30.8548 150.967 30.9343C152.894 31.0039 154.553 29.4535 154.623 27.585C154.702 25.6171 153.282 23.8778 151.176 23.8082C149.06 23.7486 147.55 25.3686 147.511 27.3365L147.521 27.3464Z" fill="#666666"/>
<path d="M91.3316 1.79412C96.9237 1.79412 102.526 1.79412 108.118 1.79412C108.336 1.79412 108.386 1.86369 108.386 2.07241C108.386 5.22302 108.386 8.37363 108.386 11.5242C108.386 11.8721 108.386 12.22 108.386 12.5678C108.386 12.7169 108.326 12.7567 108.187 12.7567C107.125 12.7567 106.052 12.7765 104.989 12.7964C104.84 12.7964 104.83 12.707 104.82 12.5976C104.771 12.0013 104.751 11.395 104.651 10.7987C104.373 9.17867 103.738 7.73754 102.416 6.68403C101.701 6.11751 100.877 5.73984 99.973 5.59075C99.3175 5.48143 98.652 5.44167 97.9865 5.41186C97.1919 5.38204 96.4072 5.41185 95.6126 5.40192C95.4437 5.40192 95.404 5.46155 95.404 5.62057C95.404 8.22455 95.404 10.8186 95.404 13.4226C95.404 17.3285 95.404 21.2345 95.404 25.1404C95.404 25.7268 95.4338 26.3033 95.6225 26.8599C95.8708 27.5655 96.3774 27.973 97.1025 28.0823C97.5395 28.1519 97.9865 28.1817 98.4235 28.1817C99.6254 28.1917 100.837 28.1817 102.039 28.1817C102.188 28.1817 102.258 28.2215 102.258 28.3904C102.258 29.3645 102.258 30.3385 102.258 31.3125C102.258 31.5311 102.188 31.5908 101.969 31.5908C97.8574 31.5908 93.7552 31.5908 89.6431 31.5908C86.7427 31.5908 83.8523 31.5908 80.952 31.5908C80.7732 31.5908 80.7136 31.5411 80.7136 31.3622C80.7136 30.3782 80.7136 29.3843 80.7136 28.4004C80.7136 28.2215 80.7732 28.1917 80.9421 28.1917C82.2631 28.1917 83.5841 28.2115 84.9052 28.1917C85.6899 28.1817 86.4348 27.983 86.9613 27.327C87.3884 26.7903 87.5373 26.1542 87.5473 25.4883C87.5671 23.4508 87.5671 21.4034 87.5671 19.366C87.5671 15.4898 87.5671 11.6236 87.5671 7.74748C87.5671 7.05176 87.5671 6.35604 87.5671 5.66033C87.5671 5.45161 87.4976 5.41186 87.299 5.41186C86.4249 5.42179 85.5409 5.41186 84.6668 5.41186C83.5345 5.41186 82.4419 5.56094 81.4089 6.05788C80.0879 6.69396 79.2039 7.7276 78.6476 9.05941C78.1808 10.1924 78.0318 11.3851 77.9821 12.5877C77.9821 12.7169 77.9623 12.7865 77.8033 12.7865C76.8796 12.7765 75.9559 12.7666 75.0421 12.7567C74.8533 12.7567 74.6646 12.7368 74.4759 12.7467C74.307 12.7467 74.2474 12.707 74.2474 12.5281C74.2474 11.6137 74.2474 10.6993 74.2474 9.78494C74.2474 7.21078 74.2474 4.62669 74.2474 2.05253C74.2474 1.83387 74.3269 1.78418 74.5255 1.78418C80.1176 1.78418 85.7197 1.78418 91.3118 1.78418L91.3316 1.79412Z" fill="#666666"/>
<path d="M149.448 27.3663C149.448 26.5712 149.448 25.786 149.448 24.9909C149.448 24.8518 149.477 24.7822 149.636 24.7822C150.202 24.7922 150.769 24.7822 151.335 24.8021C151.97 24.822 152.408 25.1102 152.566 25.7165C152.745 26.3923 152.616 27.1079 151.931 27.5253C151.692 27.6645 151.722 27.6446 151.871 27.8633C152.129 28.2509 152.358 28.6584 152.586 29.0559C152.735 29.3044 152.864 29.5628 153.004 29.8212C153.073 29.9405 153.043 30.0001 152.904 30.0001C152.894 30.0001 152.874 30.0001 152.864 30.0001C152.189 30.1691 151.97 29.7119 151.742 29.2149C151.563 28.8174 151.335 28.4497 151.116 28.072C150.987 27.8533 150.59 27.7341 150.371 27.8434C150.322 27.8732 150.292 27.9825 150.282 28.062C150.282 28.6286 150.282 29.1951 150.282 29.7616C150.282 29.9405 150.222 30.0001 150.044 30.0001C149.448 30.0001 149.448 30.0001 149.448 29.4038C149.448 28.7279 149.448 28.0521 149.448 27.3763V27.3663ZM150.282 26.3128C150.282 26.4321 150.282 26.5414 150.282 26.6607C150.282 27.2968 150.183 27.1874 150.818 27.1974C151.394 27.1974 151.752 26.8793 151.822 26.3029C151.861 25.9451 151.573 25.4183 151.077 25.4382C150.878 25.4481 150.669 25.4382 150.471 25.4382C150.312 25.4382 150.272 25.4879 150.282 25.6469C150.292 25.8755 150.282 26.0942 150.282 26.3227V26.3128Z" fill="#666666"/>
</svg>
