<svg width="136" height="79" viewBox="0 0 136 79" fill="none" xmlns="http://www.w3.org/2000/svg">
<rect width="136" height="79" fill="#7D272B"/>
<path d="M65.89 22.045C65.89 22.045 66.07 22.195 66.43 22.495C66.79 22.795 67.24 23.185 67.78 23.665C68.35 24.115 68.935 24.61 69.535 25.15C70.165 25.66 70.72 26.14 71.2 26.59C71.14 26.83 70.99 27.01 70.75 27.13C70.54 27.25 70.27 27.31 69.94 27.31H30.34L29.935 26.05H62.92L65.89 22.045ZM45.91 19.525C47.89 19.585 49.45 19.855 50.59 20.335C51.73 20.785 52.525 21.34 52.975 22C53.425 22.63 53.605 23.275 53.515 23.935C53.455 24.595 53.185 25.15 52.705 25.6C52.225 26.05 51.625 26.305 50.905 26.365C50.185 26.425 49.42 26.185 48.61 25.645C48.46 24.595 48.085 23.53 47.485 22.45C46.915 21.37 46.27 20.485 45.55 19.795L45.91 19.525ZM61.03 41.62L64.09 38.92L68.815 43.42C68.605 43.63 68.35 43.765 68.05 43.825C67.78 43.885 67.39 43.93 66.88 43.96C65.77 44.32 64.495 44.68 63.055 45.04C61.615 45.37 60.115 45.685 58.555 45.985C56.995 46.285 55.45 46.555 53.92 46.795C52.42 47.035 51.04 47.23 49.78 47.38L49.465 46.975C50.425 46.675 51.46 46.3 52.57 45.85C53.68 45.4 54.79 44.935 55.9 44.455C57.04 43.975 58.09 43.495 59.05 43.015C60.04 42.535 60.88 42.07 61.57 41.62H61.03ZM54.55 45.895C54.49 46.225 54.34 46.495 54.1 46.705C53.86 46.885 53.515 47.005 53.065 47.065V55.75C53.065 56.98 52.9 58.03 52.57 58.9C52.24 59.77 51.535 60.445 50.455 60.925C49.405 61.435 47.785 61.795 45.595 62.005C45.505 61.165 45.37 60.445 45.19 59.845C45.01 59.245 44.71 58.75 44.29 58.36C43.9 57.97 43.375 57.64 42.715 57.37C42.055 57.07 41.05 56.815 39.7 56.605V55.975C39.7 55.975 40 56.005 40.6 56.065C41.2 56.095 41.905 56.14 42.715 56.2C43.555 56.23 44.335 56.275 45.055 56.335C45.775 56.365 46.27 56.38 46.54 56.38C46.9 56.38 47.14 56.32 47.26 56.2C47.38 56.08 47.44 55.87 47.44 55.57V45.31L54.55 45.895ZM57.655 30.46L60.085 27.76L65.35 31.675C65.23 31.855 65.02 32.035 64.72 32.215C64.42 32.365 64.03 32.5 63.55 32.62V38.605C63.55 38.695 63.28 38.845 62.74 39.055C62.23 39.235 61.63 39.4 60.94 39.55C60.25 39.7 59.62 39.775 59.05 39.775H58.105V30.46H57.655ZM42.67 38.965C42.67 39.115 42.43 39.325 41.95 39.595C41.5 39.835 40.93 40.06 40.24 40.27C39.55 40.45 38.845 40.54 38.125 40.54H37.36V30.46V28.255L42.985 30.46H60.265V31.72H42.67V38.965ZM60.625 36.76V38.065H40.285V36.76H60.625ZM63.505 41.62V42.925H33.85L33.445 41.62H63.505ZM66.43 45.895C66.43 45.895 66.61 46.045 66.97 46.345C67.33 46.615 67.78 46.975 68.32 47.425C68.89 47.845 69.475 48.31 70.075 48.82C70.705 49.33 71.275 49.825 71.785 50.305C71.725 50.545 71.575 50.725 71.335 50.845C71.095 50.965 70.81 51.025 70.48 51.025H29.71L29.305 49.72H63.505L66.43 45.895ZM79.885 34.96H112.42V36.22H79.885V34.96ZM79.525 32.125L80.155 32.08C81.025 33.94 81.49 35.605 81.55 37.075C81.61 38.545 81.385 39.775 80.875 40.765C80.395 41.755 79.765 42.445 78.985 42.835C78.205 43.285 77.395 43.39 76.555 43.15C75.715 42.91 75.145 42.37 74.845 41.53C74.605 40.69 74.695 39.97 75.115 39.37C75.565 38.77 76.135 38.305 76.825 37.975C77.635 37.555 78.325 36.805 78.895 35.725C79.495 34.615 79.705 33.415 79.525 32.125ZM110.035 34.96H109.54L112.285 32.17L117.1 36.76C116.95 36.97 116.74 37.105 116.47 37.165C116.2 37.225 115.84 37.285 115.39 37.345C114.82 37.795 114.13 38.29 113.32 38.83C112.51 39.34 111.67 39.85 110.8 40.36C109.96 40.84 109.165 41.26 108.415 41.62L108.1 41.305C108.31 40.735 108.535 40.06 108.775 39.28C109.045 38.5 109.285 37.735 109.495 36.985C109.735 36.205 109.915 35.53 110.035 34.96ZM82.315 26.68C84.205 27.1 85.675 27.655 86.725 28.345C87.775 29.005 88.48 29.725 88.84 30.505C89.2 31.255 89.305 31.96 89.155 32.62C89.035 33.25 88.72 33.775 88.21 34.195C87.7 34.585 87.1 34.78 86.41 34.78C85.72 34.75 85.015 34.42 84.295 33.79C84.295 32.98 84.175 32.17 83.935 31.36C83.695 30.52 83.395 29.725 83.035 28.975C82.705 28.195 82.33 27.52 81.91 26.95L82.315 26.68ZM92.17 25.96C94.03 26.47 95.455 27.1 96.445 27.85C97.465 28.6 98.14 29.38 98.47 30.19C98.8 30.97 98.875 31.69 98.695 32.35C98.545 33.01 98.215 33.535 97.705 33.925C97.195 34.315 96.58 34.495 95.86 34.465C95.17 34.435 94.48 34.09 93.79 33.43C93.82 32.59 93.73 31.735 93.52 30.865C93.34 29.995 93.085 29.155 92.755 28.345C92.455 27.535 92.125 26.815 91.765 26.185L92.17 25.96ZM105.4 25.6L112.645 27.985C112.525 28.255 112.33 28.465 112.06 28.615C111.79 28.765 111.4 28.825 110.89 28.795C110.2 29.485 109.36 30.25 108.37 31.09C107.38 31.9 106.33 32.725 105.22 33.565C104.14 34.375 103.06 35.125 101.98 35.815H101.35C101.86 34.855 102.37 33.775 102.88 32.575C103.39 31.345 103.855 30.13 104.275 28.93C104.725 27.7 105.1 26.59 105.4 25.6ZM81.055 41.935H105.535V43.195H81.46L81.055 41.935ZM107.515 19.75L112.285 24.565C111.715 25.015 110.74 24.955 109.36 24.385C107.26 24.685 104.905 24.97 102.295 25.24C99.715 25.51 96.985 25.75 94.105 25.96C91.255 26.17 88.375 26.335 85.465 26.455C82.555 26.545 79.72 26.605 76.96 26.635L76.87 25.825C79.45 25.555 82.165 25.195 85.015 24.745C87.895 24.265 90.715 23.755 93.475 23.215C96.265 22.645 98.86 22.06 101.26 21.46C103.69 20.86 105.775 20.29 107.515 19.75ZM102.25 41.935H101.665L104.86 39.1L109.675 43.6C109.495 43.87 109.255 44.05 108.955 44.14C108.685 44.23 108.25 44.29 107.65 44.32C104.68 49.27 100.495 53.23 95.095 56.2C89.695 59.17 83.005 61.12 75.025 62.05L74.8 61.42C79.24 60.31 83.275 58.84 86.905 57.01C90.535 55.18 93.655 53.005 96.265 50.485C98.875 47.965 100.87 45.115 102.25 41.935ZM86.545 41.935C87.745 44.395 89.365 46.48 91.405 48.19C93.475 49.9 95.845 51.31 98.515 52.42C101.215 53.53 104.11 54.4 107.2 55.03C110.29 55.63 113.47 56.08 116.74 56.38L116.65 56.92C115.45 57.22 114.475 57.805 113.725 58.675C112.975 59.575 112.42 60.7 112.06 62.05C108.94 61.42 106.015 60.595 103.285 59.575C100.585 58.585 98.125 57.325 95.905 55.795C93.685 54.235 91.735 52.36 90.055 50.17C88.375 47.98 87.01 45.37 85.96 42.34L86.545 41.935Z" fill="white"/>
<path d="M122.5 65C124.985 65 127 62.9853 127 60.5C127 58.0147 124.985 56 122.5 56C120.015 56 118 58.0147 118 60.5C118 62.9853 120.015 65 122.5 65Z" stroke="white" stroke-miterlimit="10"/>
</svg>
