<svg width="331" height="320" viewBox="0 0 331 320" fill="none" xmlns="http://www.w3.org/2000/svg">
<rect width="331" height="320" fill="#7D272B"/>
<path d="M144.25 150.125C144.25 150.125 144.75 150.542 145.75 151.375C146.75 152.208 148 153.292 149.5 154.625C151.083 155.875 152.708 157.25 154.375 158.75C156.125 160.167 157.667 161.5 159 162.75C158.833 163.417 158.417 163.917 157.75 164.25C157.167 164.583 156.417 164.75 155.5 164.75H45.5L44.375 161.25H136L144.25 150.125ZM88.75 143.125C94.25 143.292 98.5833 144.042 101.75 145.375C104.917 146.625 107.125 148.167 108.375 150C109.625 151.75 110.125 153.542 109.875 155.375C109.708 157.208 108.958 158.75 107.625 160C106.292 161.25 104.625 161.958 102.625 162.125C100.625 162.292 98.5 161.625 96.25 160.125C95.8333 157.208 94.7917 154.25 93.125 151.25C91.5417 148.25 89.75 145.792 87.75 143.875L88.75 143.125ZM130.75 204.5L139.25 197L152.375 209.5C151.792 210.083 151.083 210.458 150.25 210.625C149.5 210.792 148.417 210.917 147 211C143.917 212 140.375 213 136.375 214C132.375 214.917 128.208 215.792 123.875 216.625C119.542 217.458 115.25 218.208 111 218.875C106.833 219.542 103 220.083 99.5 220.5L98.625 219.375C101.292 218.542 104.167 217.5 107.25 216.25C110.333 215 113.417 213.708 116.5 212.375C119.667 211.042 122.583 209.708 125.25 208.375C128 207.042 130.333 205.75 132.25 204.5H130.75ZM112.75 216.375C112.583 217.292 112.167 218.042 111.5 218.625C110.833 219.125 109.875 219.458 108.625 219.625V243.75C108.625 247.167 108.167 250.083 107.25 252.5C106.333 254.917 104.375 256.792 101.375 258.125C98.4583 259.542 93.9583 260.542 87.875 261.125C87.625 258.792 87.25 256.792 86.75 255.125C86.25 253.458 85.4167 252.083 84.25 251C83.1667 249.917 81.7083 249 79.875 248.25C78.0417 247.417 75.25 246.708 71.5 246.125V244.375C71.5 244.375 72.3333 244.458 74 244.625C75.6667 244.708 77.625 244.833 79.875 245C82.2083 245.083 84.375 245.208 86.375 245.375C88.375 245.458 89.75 245.5 90.5 245.5C91.5 245.5 92.1667 245.333 92.5 245C92.8333 244.667 93 244.083 93 243.25V214.75L112.75 216.375ZM121.375 173.5L128.125 166L142.75 176.875C142.417 177.375 141.833 177.875 141 178.375C140.167 178.792 139.083 179.167 137.75 179.5V196.125C137.75 196.375 137 196.792 135.5 197.375C134.083 197.875 132.417 198.333 130.5 198.75C128.583 199.167 126.833 199.375 125.25 199.375H122.625V173.5H121.375ZM79.75 197.125C79.75 197.542 79.0833 198.125 77.75 198.875C76.5 199.542 74.9167 200.167 73 200.75C71.0833 201.25 69.125 201.5 67.125 201.5H65V173.5V167.375L80.625 173.5H128.625V177H79.75V197.125ZM129.625 191V194.625H73.125V191H129.625ZM137.625 204.5V208.125H55.25L54.125 204.5H137.625ZM145.75 216.375C145.75 216.375 146.25 216.792 147.25 217.625C148.25 218.375 149.5 219.375 151 220.625C152.583 221.792 154.208 223.083 155.875 224.5C157.625 225.917 159.208 227.292 160.625 228.625C160.458 229.292 160.042 229.792 159.375 230.125C158.708 230.458 157.917 230.625 157 230.625H43.75L42.625 227H137.625L145.75 216.375ZM183.125 186H273.5V189.5H183.125V186ZM182.125 178.125L183.875 178C186.292 183.167 187.583 187.792 187.75 191.875C187.917 195.958 187.292 199.375 185.875 202.125C184.542 204.875 182.792 206.792 180.625 207.875C178.458 209.125 176.208 209.417 173.875 208.75C171.542 208.083 169.958 206.583 169.125 204.25C168.458 201.917 168.708 199.917 169.875 198.25C171.125 196.583 172.708 195.292 174.625 194.375C176.875 193.208 178.792 191.125 180.375 188.125C182.042 185.042 182.625 181.708 182.125 178.125ZM266.875 186H265.5L273.125 178.25L286.5 191C286.083 191.583 285.5 191.958 284.75 192.125C284 192.292 283 192.458 281.75 192.625C280.167 193.875 278.25 195.25 276 196.75C273.75 198.167 271.417 199.583 269 201C266.667 202.333 264.458 203.5 262.375 204.5L261.5 203.625C262.083 202.042 262.708 200.167 263.375 198C264.125 195.833 264.792 193.708 265.375 191.625C266.042 189.458 266.542 187.583 266.875 186ZM189.875 163C195.125 164.167 199.208 165.708 202.125 167.625C205.042 169.458 207 171.458 208 173.625C209 175.708 209.292 177.667 208.875 179.5C208.542 181.25 207.667 182.708 206.25 183.875C204.833 184.958 203.167 185.5 201.25 185.5C199.333 185.417 197.375 184.5 195.375 182.75C195.375 180.5 195.042 178.25 194.375 176C193.708 173.667 192.875 171.458 191.875 169.375C190.958 167.208 189.917 165.333 188.75 163.75L189.875 163ZM217.25 161C222.417 162.417 226.375 164.167 229.125 166.25C231.958 168.333 233.833 170.5 234.75 172.75C235.667 174.917 235.875 176.917 235.375 178.75C234.958 180.583 234.042 182.042 232.625 183.125C231.208 184.208 229.5 184.708 227.5 184.625C225.583 184.542 223.667 183.583 221.75 181.75C221.833 179.417 221.583 177.042 221 174.625C220.5 172.208 219.792 169.875 218.875 167.625C218.042 165.375 217.125 163.375 216.125 161.625L217.25 161ZM254 160L274.125 166.625C273.792 167.375 273.25 167.958 272.5 168.375C271.75 168.792 270.667 168.958 269.25 168.875C267.333 170.792 265 172.917 262.25 175.25C259.5 177.5 256.583 179.792 253.5 182.125C250.5 184.375 247.5 186.458 244.5 188.375H242.75C244.167 185.708 245.583 182.708 247 179.375C248.417 175.958 249.708 172.583 250.875 169.25C252.125 165.833 253.167 162.75 254 160ZM186.375 205.375H254.375V208.875H187.5L186.375 205.375ZM259.875 143.75L273.125 157.125C271.542 158.375 268.833 158.208 265 156.625C259.167 157.458 252.625 158.25 245.375 159C238.208 159.75 230.625 160.417 222.625 161C214.708 161.583 206.708 162.042 198.625 162.375C190.542 162.625 182.667 162.792 175 162.875L174.75 160.625C181.917 159.875 189.458 158.875 197.375 157.625C205.375 156.292 213.208 154.875 220.875 153.375C228.625 151.792 235.833 150.167 242.5 148.5C249.25 146.833 255.042 145.25 259.875 143.75ZM245.25 205.375H243.625L252.5 197.5L265.875 210C265.375 210.75 264.708 211.25 263.875 211.5C263.125 211.75 261.917 211.917 260.25 212C252 225.75 240.375 236.75 225.375 245C210.375 253.25 191.792 258.667 169.625 261.25L169 259.5C181.333 256.417 192.542 252.333 202.625 247.25C212.708 242.167 221.375 236.125 228.625 229.125C235.875 222.125 241.417 214.208 245.25 205.375ZM201.625 205.375C204.958 212.208 209.458 218 215.125 222.75C220.875 227.5 227.458 231.417 234.875 234.5C242.375 237.583 250.417 240 259 241.75C267.583 243.417 276.417 244.667 285.5 245.5L285.25 247C281.917 247.833 279.208 249.458 277.125 251.875C275.042 254.375 273.5 257.5 272.5 261.25C263.833 259.5 255.708 257.208 248.125 254.375C240.625 251.625 233.792 248.125 227.625 243.875C221.458 239.542 216.042 234.333 211.375 228.25C206.708 222.167 202.917 214.917 200 206.5L201.625 205.375Z" fill="white"/>
<path d="M291.87 285.24C299.806 285.24 306.24 278.806 306.24 270.87C306.24 262.934 299.806 256.5 291.87 256.5C283.934 256.5 277.5 262.934 277.5 270.87C277.5 278.806 283.934 285.24 291.87 285.24Z" stroke="white" stroke-miterlimit="10"/>
</svg>
