<svg width="891" height="71" viewBox="0 0 891 71" fill="none" xmlns="http://www.w3.org/2000/svg">
<path d="M26.324 0.876999C29.828 0.925665 32.6263 1.33933 34.719 2.118C36.8117 2.89666 38.2717 3.87 39.099 5.038C39.975 6.15733 40.3643 7.301 40.267 8.469C40.2183 9.637 39.8047 10.6347 39.026 11.462C38.296 12.2893 37.2983 12.8003 36.033 12.995C34.7677 13.1897 33.4293 12.849 32.018 11.973C31.726 10.659 31.2393 9.345 30.558 8.031C29.8767 6.717 29.098 5.50033 28.222 4.381C27.3947 3.213 26.5673 2.191 25.74 1.315L26.324 0.876999ZM38.953 67.234C38.953 67.526 38.296 67.9883 36.982 68.621C35.7167 69.3023 33.9403 69.643 31.653 69.643H29.974V13.944H38.953V67.234ZM18.002 56.576C18.002 56.868 17.637 57.2573 16.907 57.744C16.177 58.182 15.2523 58.5713 14.133 58.912C13.0623 59.2527 11.9187 59.423 10.702 59.423H9.388V25.186V21.536L18.586 25.186H55.305V27.303H18.002V56.576ZM50.195 25.186L54.064 20.733L62.605 27.23C62.3617 27.4733 61.9723 27.741 61.437 28.033C60.9503 28.325 60.342 28.544 59.612 28.69V50.298C59.612 52.196 59.3687 53.8263 58.882 55.189C58.444 56.503 57.4463 57.5737 55.889 58.401C54.3317 59.1797 51.9713 59.715 48.808 60.007C48.7593 58.6443 48.6133 57.5007 48.37 56.576C48.1753 55.6027 47.8347 54.7753 47.348 54.094C46.8613 53.51 46.2043 52.9747 45.377 52.488C44.5983 52.0013 43.3817 51.6363 41.727 51.393V50.371C41.727 50.371 42.0433 50.3953 42.676 50.444C43.3087 50.4927 44.063 50.5413 44.939 50.59C45.8637 50.6387 46.7397 50.6873 47.567 50.736C48.3943 50.736 49.027 50.736 49.465 50.736C50.049 50.736 50.4383 50.6387 50.633 50.444C50.8277 50.2007 50.925 49.8843 50.925 49.495V25.186H50.195ZM59.831 6.863C59.831 6.863 60.1473 7.10633 60.78 7.593C61.4127 8.07966 62.2157 8.71233 63.189 9.491C64.1623 10.221 65.16 11.024 66.182 11.9C67.2527 12.7273 68.2017 13.506 69.029 14.236C68.883 15.0147 68.226 15.404 67.058 15.404H0.993L0.336 13.36H54.794L59.831 6.863ZM102.828 1.972C107.062 3.432 110.444 5.08666 112.975 6.936C115.554 8.78533 117.428 10.6833 118.596 12.63C119.813 14.528 120.445 16.3287 120.494 18.032C120.591 19.6867 120.275 21.0493 119.545 22.12C118.815 23.1907 117.817 23.799 116.552 23.945C115.287 24.091 113.924 23.6043 112.464 22.485C112.026 20.1977 111.247 17.8617 110.128 15.477C109.057 13.0923 107.816 10.7807 106.405 8.542C104.994 6.30333 103.558 4.28366 102.098 2.483L102.828 1.972ZM102.609 15.331C102.56 15.8177 102.341 16.2557 101.952 16.645C101.563 16.9857 100.93 17.2047 100.054 17.302V55.116C100.054 55.992 100.322 56.6003 100.857 56.941C101.441 57.2817 102.536 57.452 104.142 57.452H113.048C114.751 57.452 116.236 57.452 117.501 57.452C118.766 57.4033 119.74 57.3547 120.421 57.306C121.054 57.2573 121.54 57.16 121.881 57.014C122.27 56.8193 122.611 56.503 122.903 56.065C123.39 55.2863 123.974 53.8993 124.655 51.904C125.336 49.86 126.066 47.451 126.845 44.677H127.648L127.94 56.576C129.254 57.0627 130.13 57.598 130.568 58.182C131.055 58.7173 131.298 59.423 131.298 60.299C131.298 61.321 131.006 62.197 130.422 62.927C129.887 63.657 128.913 64.2653 127.502 64.752C126.091 65.2387 124.168 65.5793 121.735 65.774C119.302 66.0173 116.163 66.139 112.318 66.139H102.901C100.03 66.139 97.7423 65.92 96.039 65.482C94.3843 65.044 93.192 64.2167 92.462 63C91.7807 61.7347 91.44 59.9583 91.44 57.671V14.236L102.609 15.331ZM125.75 24.529C129.546 26.865 132.588 29.201 134.875 31.537C137.211 33.873 138.939 36.1847 140.058 38.472C141.226 40.7107 141.907 42.8033 142.102 44.75C142.297 46.648 142.126 48.3027 141.591 49.714C141.104 51.1253 140.399 52.196 139.474 52.926C138.598 53.6073 137.6 53.8507 136.481 53.656C135.362 53.4613 134.315 52.707 133.342 51.393C133.245 49.0083 132.904 46.283 132.32 43.217C131.736 40.151 130.86 37.0363 129.692 33.873C128.573 30.661 127.04 27.741 125.093 25.113L125.75 24.529ZM83.191 22.996C84.9917 27.376 86.038 31.3423 86.33 34.895C86.622 38.399 86.4273 41.4407 85.746 44.02C85.1133 46.5993 84.213 48.7163 83.045 50.371C82.2663 51.539 81.3417 52.3907 80.271 52.926C79.2003 53.4127 78.1297 53.583 77.059 53.437C76.037 53.291 75.161 52.8287 74.431 52.05C73.5063 51.028 73.1413 49.9087 73.336 48.692C73.5307 47.4267 74.0903 46.283 75.015 45.261C76.2317 44.1417 77.3997 42.4627 78.519 40.224C79.6383 37.9367 80.5387 35.333 81.22 32.413C81.95 29.4443 82.2663 26.3297 82.169 23.069L83.191 22.996ZM168.82 58.62C168.82 58.62 169.209 58.9607 169.988 59.642C170.815 60.3233 171.789 61.1263 172.908 62.051C174.027 62.9757 175.025 63.876 175.901 64.752C175.706 65.5307 175.049 65.92 173.93 65.92H151.957L151.373 63.803H164.878L168.82 58.62ZM160.79 9.053C160.644 9.39366 160.328 9.637 159.841 9.783C159.403 9.929 158.868 10.0263 158.235 10.075V14.163C158.089 14.163 157.481 14.163 156.41 14.163C155.339 14.163 153.32 14.163 150.351 14.163V9.783V5.476L160.79 9.053ZM148.599 53.291C149.718 52.9503 151.3 52.4393 153.344 51.758C155.388 51.0767 157.675 50.298 160.206 49.422C162.785 48.546 165.413 47.6457 168.09 46.721L168.382 47.378C166.971 48.7893 164.878 50.7603 162.104 53.291C159.33 55.773 156.215 58.3767 152.76 61.102L148.599 53.291ZM156.337 10.221L158.235 11.389V52.999L151.081 55.919L154.877 52.853C155.364 54.6537 155.461 56.211 155.169 57.525C154.926 58.839 154.488 59.9097 153.855 60.737C153.271 61.5157 152.663 62.0997 152.03 62.489L146.92 53.072C148.429 52.2933 149.378 51.6607 149.767 51.174C150.156 50.6387 150.351 49.9573 150.351 49.13V10.221H156.337ZM174.587 8.323C174.392 11.535 174.271 14.8443 174.222 18.251C174.173 21.6577 174.222 25.04 174.368 28.398C174.563 31.7073 174.879 34.895 175.317 37.961C175.804 40.9783 176.436 43.7523 177.215 46.283C177.994 48.765 178.967 50.882 180.135 52.634C180.476 53.1207 180.768 53.364 181.011 53.364C181.254 53.3153 181.522 53.0233 181.814 52.488C182.301 51.6607 182.812 50.5413 183.347 49.13C183.882 47.7187 184.345 46.3317 184.734 44.969L185.61 45.115L184.369 56.211C185.148 58.109 185.61 59.6663 185.756 60.883C185.951 62.0997 185.634 63 184.807 63.584C183.688 64.46 182.471 64.7763 181.157 64.533C179.892 64.2897 178.699 63.73 177.58 62.854C176.461 61.978 175.585 61.0533 174.952 60.08C173.005 56.9167 171.472 53.3397 170.353 49.349C169.234 45.3583 168.406 41.1243 167.871 36.647C167.384 32.121 167.068 27.4733 166.922 22.704C166.776 17.886 166.752 13.0923 166.849 8.323H174.587ZM187.654 1.315L196.268 5.403H195.392V66.869C195.392 67.015 195.124 67.2827 194.589 67.672C194.102 68.11 193.372 68.4993 192.399 68.84C191.474 69.1807 190.355 69.351 189.041 69.351H187.654V5.403V1.315ZM206.926 5.403V7.52H192.91V5.403H206.926ZM185.756 9.126C184.831 9.90466 183.274 9.856 181.084 8.98C178.797 9.36933 176.12 9.75866 173.054 10.148C169.988 10.4887 166.8 10.7807 163.491 11.024C160.182 11.2673 156.97 11.4133 153.855 11.462L153.709 10.513C156.434 9.73433 159.306 8.80967 162.323 7.739C165.34 6.66833 168.187 5.549 170.864 4.381C173.589 3.213 175.852 2.14233 177.653 1.169L185.756 9.126ZM202.546 5.403L206.853 1.242L215.029 8.761C214.542 9.345 213.447 9.68567 211.744 9.783C211.111 10.951 210.333 12.3137 209.408 13.871C208.532 15.4283 207.583 17.0343 206.561 18.689C205.539 20.3437 204.493 21.9497 203.422 23.507C202.351 25.0643 201.329 26.4757 200.356 27.741C203.325 29.493 205.709 31.4397 207.51 33.581C209.359 35.6737 210.698 37.8637 211.525 40.151C212.401 42.3897 212.839 44.5797 212.839 46.721C212.888 50.4683 212.036 53.3883 210.284 55.481C208.581 57.525 205.539 58.5957 201.159 58.693C201.159 57.9143 201.11 57.087 201.013 56.211C200.916 55.2863 200.794 54.459 200.648 53.729C200.502 52.999 200.307 52.4637 200.064 52.123C199.772 51.7337 199.31 51.3687 198.677 51.028C198.044 50.6873 197.266 50.444 196.341 50.298V49.349C197.12 49.349 198.069 49.349 199.188 49.349C200.307 49.349 201.159 49.349 201.743 49.349C202.327 49.349 202.887 49.203 203.422 48.911C204.006 48.619 204.444 48.108 204.736 47.378C205.028 46.648 205.174 45.6747 205.174 44.458C205.174 41.7327 204.663 38.9343 203.641 36.063C202.668 33.1917 200.989 30.4663 198.604 27.887C198.993 26.5243 199.407 24.8697 199.845 22.923C200.332 20.9763 200.794 18.9567 201.232 16.864C201.719 14.7227 202.157 12.6543 202.546 10.659C202.935 8.66367 203.227 6.91167 203.422 5.403H202.546ZM179.916 22.339C179.916 22.339 180.305 22.6797 181.084 23.361C181.863 24.0423 182.787 24.8697 183.858 25.843C184.929 26.7677 185.853 27.668 186.632 28.544C186.486 29.3227 185.853 29.712 184.734 29.712H155.461V27.595H176.193L179.916 22.339ZM247.295 46.137L246.346 44.02C248.974 42.706 251.042 41.2947 252.551 39.786C254.108 38.2287 255.179 36.0873 255.763 33.362L256.639 35.917C253.427 34.749 251.067 33.4837 249.558 32.121C248.098 30.7583 247.368 29.2253 247.368 27.522C247.368 25.7213 247.976 24.237 249.193 23.069C250.41 21.8523 251.943 21.244 253.792 21.244C254.911 21.244 255.885 21.39 256.712 21.682C257.539 21.9253 258.367 22.3877 259.194 23.069C259.632 24.1397 259.924 25.0887 260.07 25.916C260.216 26.6947 260.289 27.668 260.289 28.836C260.289 33.3133 259.097 37.0363 256.712 40.005C254.376 42.925 251.237 44.969 247.295 46.137ZM321.901 8.031H349.349L353.437 2.848C353.437 2.848 353.851 3.18866 354.678 3.87C355.554 4.50266 356.576 5.30566 357.744 6.279C358.912 7.20367 359.958 8.104 360.883 8.98C360.688 9.75866 360.031 10.148 358.912 10.148H322.485L321.901 8.031ZM328.544 22.12H352.707V24.237H328.544V22.12ZM328.544 29.347H352.707V31.464H328.544V29.347ZM321.755 48.546H352.123L355.554 43.29C355.554 43.29 355.895 43.6307 356.576 44.312C357.306 44.9933 358.133 45.8207 359.058 46.794C360.031 47.7187 360.883 48.5947 361.613 49.422C361.418 50.2007 360.761 50.59 359.642 50.59H322.339L321.755 48.546ZM336.355 1.023L346.502 1.972C346.405 2.45866 346.161 2.89666 345.772 3.286C345.383 3.62666 344.726 3.84566 343.801 3.943V38.326L336.355 39.275V1.023ZM322.339 38.545C324.14 38.545 326.646 38.472 329.858 38.326C333.07 38.1313 336.671 37.9367 340.662 37.742C344.701 37.4987 348.887 37.231 353.218 36.939V38.034C350.444 38.91 346.989 39.9563 342.852 41.173C338.715 42.3897 333.727 43.7523 327.887 45.261C327.692 45.699 327.4 46.0397 327.011 46.283C326.67 46.5263 326.305 46.6967 325.916 46.794L322.339 38.545ZM346.648 33.289C349.617 33.3863 352.001 33.7757 353.802 34.457C355.603 35.0897 356.917 35.8927 357.744 36.866C358.62 37.8393 359.107 38.8127 359.204 39.786C359.301 40.7593 359.107 41.611 358.62 42.341C358.182 43.071 357.501 43.5577 356.576 43.801C355.651 43.9957 354.629 43.801 353.51 43.217C353.121 42.0977 352.512 40.954 351.685 39.786C350.858 38.618 349.933 37.523 348.911 36.501C347.938 35.4303 346.989 34.5543 346.064 33.873L346.648 33.289ZM327.157 50.736C329.931 51.32 332.048 52.0987 333.508 53.072C334.968 53.9967 335.917 54.9943 336.355 56.065C336.842 57.1357 336.939 58.1577 336.647 59.131C336.404 60.0557 335.893 60.7857 335.114 61.321C334.335 61.8563 333.411 62.0997 332.34 62.051C331.318 61.9537 330.296 61.4427 329.274 60.518C329.371 58.912 329.128 57.233 328.544 55.481C328.009 53.729 327.327 52.269 326.5 51.101L327.157 50.736ZM342.414 41.611L352.926 42.56C352.877 43.0467 352.658 43.436 352.269 43.728C351.88 44.02 351.296 44.239 350.517 44.385V60.883C350.517 62.6837 350.298 64.2167 349.86 65.482C349.422 66.796 348.497 67.818 347.086 68.548C345.675 69.3267 343.485 69.8377 340.516 70.081C340.467 68.8643 340.346 67.7937 340.151 66.869C339.956 65.993 339.64 65.263 339.202 64.679C338.813 64.1437 338.229 63.657 337.45 63.219C336.72 62.8297 335.601 62.5133 334.092 62.27V61.248C334.092 61.248 334.384 61.2723 334.968 61.321C335.601 61.3697 336.331 61.4183 337.158 61.467C337.985 61.5157 338.788 61.5643 339.567 61.613C340.346 61.6617 340.881 61.686 341.173 61.686C341.66 61.686 341.976 61.613 342.122 61.467C342.317 61.2723 342.414 60.9803 342.414 60.591V41.611ZM324.31 14.966V11.827L331.975 14.966H351.028V17.01H331.61V33.289C331.61 33.5323 331.294 33.8243 330.661 34.165C330.028 34.5057 329.225 34.822 328.252 35.114C327.327 35.3573 326.354 35.479 325.332 35.479H324.31V14.966ZM348.984 14.966H348.327L351.831 11.316L359.058 16.645C358.863 16.8883 358.547 17.1317 358.109 17.375C357.72 17.6183 357.257 17.7887 356.722 17.886V31.902C356.722 32.048 356.357 32.3157 355.627 32.705C354.946 33.0457 354.094 33.362 353.072 33.654C352.099 33.946 351.198 34.092 350.371 34.092H348.984V14.966ZM292.628 11.462H313.579L317.594 6.206C317.594 6.206 318.008 6.54666 318.835 7.228C319.662 7.90933 320.636 8.73666 321.755 9.71C322.923 10.6347 323.969 11.535 324.894 12.411C324.748 13.1897 324.091 13.579 322.923 13.579H293.212L292.628 11.462ZM298.03 30.296H318.032V32.34H298.03V30.296ZM298.03 41.1H318.032V43.144H298.03V41.1ZM292.117 52.123H314.09L318.105 46.867C318.105 46.867 318.519 47.2077 319.346 47.889C320.222 48.5703 321.244 49.3977 322.412 50.371C323.58 51.2957 324.626 52.196 325.551 53.072C325.405 53.8507 324.748 54.24 323.58 54.24H292.701L292.117 52.123ZM304.454 20.587H310.805V42.633L310.002 42.706L311.535 42.779V67.38C311.486 67.6233 310.902 68.037 309.783 68.621C308.664 69.2537 307.106 69.57 305.111 69.57H303.724V42.779L305.257 42.706L304.454 42.633V20.587ZM303.724 0.949998L313.944 1.826C313.895 2.31266 313.701 2.72633 313.36 3.067C313.019 3.359 312.411 3.578 311.535 3.724V21.098H303.724V0.949998ZM294.599 19.711V16.864L301.534 19.711H316.937V21.828H301.242V45.772C301.242 46.0153 300.95 46.3073 300.366 46.648C299.831 46.9887 299.125 47.305 298.249 47.597C297.422 47.8403 296.546 47.962 295.621 47.962H294.599V19.711ZM314.017 19.784H313.36L316.645 16.207L323.434 21.463C323.239 21.7063 322.899 21.974 322.412 22.266C321.974 22.5093 321.414 22.6797 320.733 22.777V44.75C320.733 44.9447 320.417 45.2367 319.784 45.626C319.2 45.9667 318.47 46.283 317.594 46.575C316.718 46.867 315.891 47.013 315.112 47.013H314.017V19.784ZM378.403 10.805V7.155L387.601 10.805H414.319V12.849H387.09V44.02C387.09 44.312 386.725 44.677 385.995 45.115C385.314 45.553 384.389 45.9667 383.221 46.356C382.102 46.6967 380.934 46.867 379.717 46.867H378.403V10.805ZM410.523 10.805H409.72L413.735 6.133L422.349 12.776C422.106 13.068 421.716 13.36 421.181 13.652C420.694 13.944 420.062 14.1873 419.283 14.382V60.299C419.283 62.1483 419.015 63.7057 418.48 64.971C417.993 66.285 416.923 67.307 415.268 68.037C413.613 68.767 411.083 69.278 407.676 69.57C407.53 68.3533 407.311 67.307 407.019 66.431C406.776 65.555 406.338 64.8493 405.705 64.314C405.072 63.7787 404.245 63.292 403.223 62.854C402.25 62.416 400.717 62.051 398.624 61.759V60.81C398.624 60.81 399.062 60.8343 399.938 60.883C400.814 60.9317 401.86 61.0047 403.077 61.102C404.294 61.1507 405.437 61.1993 406.508 61.248C407.627 61.2967 408.406 61.321 408.844 61.321C409.525 61.321 409.963 61.175 410.158 60.883C410.401 60.591 410.523 60.2017 410.523 59.715V10.805ZM367.088 45.334C369.083 45.188 371.711 44.969 374.972 44.677C378.233 44.3363 381.956 43.947 386.141 43.509C390.326 43.0223 394.804 42.487 399.573 41.903C404.342 41.319 409.209 40.7107 414.173 40.078L414.319 41.173C409.744 42.6817 404.075 44.4093 397.31 46.356C390.545 48.3027 382.369 50.4927 372.782 52.926C372.587 53.364 372.295 53.729 371.906 54.021C371.565 54.313 371.176 54.5077 370.738 54.605L367.088 45.334ZM424.612 22.631L433.737 29.785C433.445 30.1257 433.056 30.3447 432.569 30.442C432.082 30.4907 431.425 30.369 430.598 30.077C427.581 34.019 423.979 37.888 419.794 41.684C415.609 45.48 410.839 49.057 405.486 52.415C400.181 55.773 394.317 58.766 387.893 61.394C381.518 64.022 374.583 66.1633 367.088 67.818L366.65 66.723C373.317 64.3383 379.62 61.5157 385.557 58.255C391.494 54.9943 396.945 51.4173 401.909 47.524C406.873 43.582 411.253 39.494 415.049 35.26C418.894 31.026 422.081 26.8163 424.612 22.631ZM383.878 20.879H415.852V22.923H383.878V20.879ZM383.951 31.099H415.925V33.216H383.951V31.099ZM395.193 0.876999L407.749 2.702C407.652 3.33466 407.335 3.82133 406.8 4.162C406.313 4.454 405.656 4.64867 404.829 4.746C404.245 5.37866 403.515 6.10867 402.639 6.936C401.812 7.76333 400.96 8.59066 400.084 9.418C399.257 10.2453 398.527 10.9753 397.894 11.608H393.66C393.903 10.1967 394.171 8.469 394.463 6.425C394.755 4.33233 394.998 2.483 395.193 0.876999ZM478.267 61.321C478.267 63.0243 478.024 64.46 477.537 65.628C477.099 66.796 476.15 67.7207 474.69 68.402C473.279 69.132 471.089 69.5943 468.12 69.789C468.071 68.767 467.95 67.8423 467.755 67.015C467.609 66.2363 467.293 65.5793 466.806 65.044C466.417 64.606 465.833 64.1923 465.054 63.803C464.275 63.4623 463.107 63.1703 461.55 62.927V61.978C461.55 61.978 461.842 62.0023 462.426 62.051C463.059 62.0997 463.764 62.1483 464.543 62.197C465.37 62.197 466.173 62.2213 466.952 62.27C467.731 62.3187 468.266 62.343 468.558 62.343C469.142 62.343 469.507 62.2457 469.653 62.051C469.799 61.8077 469.872 61.54 469.872 61.248V51.247H478.267V61.321ZM492.648 40.151C492.356 40.5403 491.821 40.7837 491.042 40.881C490.263 40.9297 489.314 40.6133 488.195 39.932L490.677 39.859C488.682 40.8323 486.127 41.903 483.012 43.071C479.897 44.1903 476.466 45.334 472.719 46.502C469.02 47.6213 465.2 48.692 461.258 49.714C457.365 50.6873 453.617 51.5147 450.016 52.196V51.612H452.936C452.79 53.4613 452.449 54.9213 451.914 55.992C451.379 57.0627 450.746 57.7683 450.016 58.109L446.366 50.444C446.366 50.444 446.707 50.4197 447.388 50.371C448.118 50.2737 448.726 50.152 449.213 50.006C452.328 49.3733 455.613 48.4243 459.068 47.159C462.523 45.8937 465.93 44.5067 469.288 42.998C472.646 41.4893 475.712 39.9807 478.486 38.472C481.309 36.9147 483.572 35.552 485.275 34.384L492.648 40.151ZM476.442 37.888C476.15 38.1313 475.639 38.2287 474.909 38.18C474.228 38.1313 473.449 37.7177 472.573 36.939L474.763 37.012C473.4 37.596 471.502 38.2773 469.069 39.056C466.684 39.786 464.081 40.516 461.258 41.246C458.435 41.9273 455.71 42.4627 453.082 42.852L453.009 42.049H455.564C455.418 43.509 455.126 44.677 454.688 45.553C454.25 46.3803 453.763 46.8913 453.228 47.086L450.235 41.173C450.235 41.173 450.478 41.1487 450.965 41.1C451.452 41.0027 451.841 40.9053 452.133 40.808C453.836 40.4673 455.588 39.932 457.389 39.202C459.238 38.4233 461.039 37.5717 462.791 36.647C464.543 35.7223 466.149 34.822 467.609 33.946C469.069 33.0213 470.261 32.2183 471.186 31.537L476.442 37.888ZM448.191 50.809C450.138 50.809 452.668 50.7603 455.783 50.663C458.946 50.5657 462.523 50.444 466.514 50.298C470.553 50.1033 474.86 49.9087 479.435 49.714C484.01 49.4707 488.706 49.2517 493.524 49.057L493.597 50.298C488.876 51.1253 482.817 52.123 475.42 53.291C468.023 54.459 459.701 55.6757 450.454 56.941L448.191 50.809ZM451.841 41.83C453.301 41.8787 455.296 41.903 457.827 41.903C460.358 41.8543 463.205 41.8057 466.368 41.757C469.531 41.6597 472.792 41.5623 476.15 41.465V42.779C473.717 43.1683 470.432 43.7037 466.295 44.385C462.207 45.0177 457.876 45.626 453.301 46.21L451.841 41.83ZM485.129 43.363C488.487 43.7037 491.212 44.3363 493.305 45.261C495.446 46.137 497.052 47.159 498.123 48.327C499.194 49.4463 499.826 50.5657 500.021 51.685C500.264 52.8043 500.167 53.7777 499.729 54.605C499.291 55.4323 498.585 55.992 497.612 56.284C496.687 56.5273 495.641 56.3327 494.473 55.7C493.889 54.386 493.013 52.999 491.845 51.539C490.726 50.079 489.509 48.692 488.195 47.378C486.93 46.0153 485.689 44.8717 484.472 43.947L485.129 43.363ZM481.552 56.503C486.175 56.2597 489.971 56.4543 492.94 57.087C495.909 57.671 498.196 58.4983 499.802 59.569C501.457 60.6397 502.552 61.7833 503.087 63C503.622 64.2167 503.72 65.336 503.379 66.358C503.038 67.38 502.381 68.11 501.408 68.548C500.435 69.0347 499.291 69.059 497.977 68.621C497.15 67.599 495.933 66.431 494.327 65.117C492.721 63.803 490.799 62.4647 488.56 61.102C486.37 59.7393 483.961 58.5227 481.333 57.452L481.552 56.503ZM465.346 59.204C465.151 59.5447 464.859 59.8367 464.47 60.08C464.129 60.2747 463.545 60.3233 462.718 60.226C461.063 61.4427 458.971 62.635 456.44 63.803C453.958 64.971 451.281 66.0173 448.41 66.942C445.539 67.9153 442.716 68.6697 439.942 69.205L439.285 68.329C441.475 67.2097 443.665 65.8957 445.855 64.387C448.045 62.8783 450.065 61.321 451.914 59.715C453.763 58.0603 455.248 56.5273 456.367 55.116L465.346 59.204ZM454.834 12.484H452.571L453.374 12.119C453.179 13.2383 452.936 14.601 452.644 16.207C452.352 17.813 452.036 19.492 451.695 21.244C451.354 22.996 450.989 24.6993 450.6 26.354C450.259 28.0087 449.943 29.42 449.651 30.588H450.308L447.607 33.727L440.964 29.347C441.499 28.909 442.156 28.4953 442.935 28.106C443.762 27.7167 444.517 27.4247 445.198 27.23L443.227 29.858C443.568 28.7387 443.933 27.303 444.322 25.551C444.711 23.7503 445.076 21.8523 445.417 19.857C445.806 17.8617 446.123 15.915 446.366 14.017C446.658 12.119 446.877 10.4887 447.023 9.126L454.834 12.484ZM457.754 3.359C457.608 3.74833 457.34 4.016 456.951 4.162C456.61 4.308 455.953 4.35666 454.98 4.308C453.082 6.644 450.722 9.00433 447.899 11.389C445.125 13.7737 442.229 15.696 439.212 17.156L438.482 16.572C439.65 15.258 440.818 13.7007 441.986 11.9C443.154 10.0507 444.2 8.15266 445.125 6.206C446.098 4.25933 446.877 2.38567 447.461 0.584999L457.754 3.359ZM453.447 23.069C454.956 22.8743 456.343 22.8987 457.608 23.142C458.922 23.3367 459.92 23.8233 460.601 24.602C461.039 25.0887 461.209 25.6483 461.112 26.281C461.063 26.9137 460.82 27.449 460.382 27.887C459.944 28.2763 459.409 28.471 458.776 28.471C458.192 28.471 457.584 28.1547 456.951 27.522C456.659 26.8893 456.148 26.2323 455.418 25.551C454.688 24.821 453.909 24.2857 453.082 23.945L453.447 23.069ZM454.542 15.55C455.953 15.3553 457.292 15.331 458.557 15.477C459.871 15.5743 460.917 15.988 461.696 16.718C462.183 17.2047 462.402 17.74 462.353 18.324C462.353 18.908 462.158 19.4433 461.769 19.93C461.428 20.368 460.942 20.6113 460.309 20.66C459.725 20.7087 459.068 20.4167 458.338 19.784C457.949 19.2 457.365 18.5673 456.586 17.886C455.856 17.2047 455.077 16.718 454.25 16.426L454.542 15.55ZM499.145 5.111C499.145 5.111 499.388 5.33 499.875 5.768C500.41 6.15733 501.067 6.69266 501.846 7.374C502.625 8.00667 503.428 8.71233 504.255 9.491C505.131 10.221 505.934 10.9267 506.664 11.608C506.469 12.3867 505.788 12.776 504.62 12.776H480.238V10.732H494.984L499.145 5.111ZM472.646 25.186C472.646 25.186 472.889 25.4293 473.376 25.916C473.863 26.354 474.422 26.9137 475.055 27.595C475.736 28.2277 476.345 28.8603 476.88 29.493C476.734 30.2717 476.15 30.661 475.128 30.661H447.826V28.544H470.237L472.646 25.186ZM468.923 2.337C468.923 2.337 469.312 2.629 470.091 3.213C470.87 3.797 471.794 4.527 472.865 5.403C473.936 6.23033 474.885 7.05766 475.712 7.885C475.566 8.66366 474.933 9.053 473.814 9.053H448.045V6.936H465.127L468.923 2.337ZM490.677 3.797C490.531 4.235 490.215 4.6 489.728 4.892C489.29 5.184 488.682 5.33 487.903 5.33C486.394 8.688 484.594 11.7053 482.501 14.382C480.457 17.01 478.194 19.2 475.712 20.952L474.836 20.295C476.101 17.8617 477.245 14.9417 478.267 11.535C479.338 8.07966 480.116 4.57566 480.603 1.023L490.677 3.797ZM473.449 16.134C473.449 16.134 473.692 16.4017 474.179 16.937C474.714 17.4723 475.323 18.1293 476.004 18.908C476.685 19.638 477.269 20.3437 477.756 21.025C477.61 21.8037 477.026 22.193 476.004 22.193H439.504L438.92 20.149H471.113L473.449 16.134ZM468.923 12.484V14.528H450.819V12.484H468.923ZM480.603 12.63C481.868 15.8907 483.62 18.689 485.859 21.025C488.146 23.361 491.018 25.2833 494.473 26.792C497.977 28.3007 502.114 29.3957 506.883 30.077L506.81 30.88C505.301 31.464 504.158 32.34 503.379 33.508C502.649 34.6273 502.187 36.1117 501.992 37.961C497.612 36.647 493.986 34.8707 491.115 32.632C488.292 30.3933 486.005 27.6923 484.253 24.529C482.501 21.3657 481.017 17.813 479.8 13.871L480.603 12.63ZM501.408 11.17C499.948 17.3507 497.052 22.4363 492.721 26.427C488.39 30.4177 482.598 33.435 475.347 35.479L474.909 34.53C480.311 31.8047 484.399 28.4953 487.173 24.602C489.947 20.66 491.699 16.1827 492.429 11.17H501.408ZM464.397 12.484L467.609 9.199L473.668 14.236C473.181 14.82 472.232 15.2093 470.821 15.404C470.626 19.784 470.334 23.3367 469.945 26.062C469.556 28.7873 469.045 30.9043 468.412 32.413C467.828 33.873 467.098 34.968 466.222 35.698C465.249 36.428 464.154 36.8417 462.937 36.939C461.769 37.0363 460.479 37.085 459.068 37.085C459.068 36.4037 458.995 35.8927 458.849 35.552C458.752 35.2113 458.508 34.8707 458.119 34.53C457.778 34.1407 457.267 33.8487 456.586 33.654C455.905 33.4107 455.126 33.216 454.25 33.07V31.902C455.126 31.9507 456.124 32.0237 457.243 32.121C458.362 32.1697 459.238 32.194 459.871 32.194C460.796 32.194 461.477 31.9993 461.915 31.61C462.694 30.9773 463.351 29.1523 463.886 26.135C464.47 23.1177 464.884 18.5673 465.127 12.484H464.397ZM565.575 1.972C565.526 2.36133 565.38 2.67766 565.137 2.921C564.894 3.16433 564.407 3.33466 563.677 3.432V16.426C563.677 16.572 563.288 16.8153 562.509 17.156C561.779 17.448 560.854 17.7157 559.735 17.959C558.664 18.2023 557.594 18.324 556.523 18.324H554.917V1.023L565.575 1.972ZM535.353 1.972C535.304 2.36133 535.134 2.67766 534.842 2.921C534.599 3.16433 534.112 3.33466 533.382 3.432V16.426C533.382 16.572 533.017 16.8153 532.287 17.156C531.557 17.448 530.632 17.7157 529.513 17.959C528.442 18.2023 527.372 18.324 526.301 18.324H524.622V1.023L535.353 1.972ZM572.948 3.724C572.948 3.724 573.337 4.089 574.116 4.819C574.943 5.50033 575.917 6.32766 577.036 7.301C578.155 8.27433 579.177 9.22333 580.102 10.148C579.907 10.9267 579.226 11.316 578.058 11.316H547.836L547.252 9.199H568.933L572.948 3.724ZM538.784 3.724C538.784 3.724 539.198 4.089 540.025 4.819C540.852 5.50033 541.826 6.32766 542.945 7.301C544.064 8.27433 545.038 9.22333 545.865 10.148C545.719 10.9267 545.086 11.316 543.967 11.316H511.628L511.044 9.199H534.842L538.784 3.724ZM535.864 27.011C535.864 27.011 536.229 27.3273 536.959 27.96C537.689 28.5927 538.541 29.347 539.514 30.223C540.487 31.099 541.363 31.9263 542.142 32.705C541.947 33.4837 541.29 33.873 540.171 33.873H513.453L512.869 31.829H532.36L535.864 27.011ZM533.382 23.945C533.333 24.3343 533.163 24.675 532.871 24.967C532.579 25.259 532.019 25.478 531.192 25.624V40.662C531.192 40.808 530.876 41.027 530.243 41.319C529.61 41.611 528.807 41.8787 527.834 42.122C526.861 42.3167 525.887 42.414 524.914 42.414H523.527V23.069L533.382 23.945ZM572.145 26.135C572.145 26.135 572.51 26.4513 573.24 27.084C574.019 27.7167 574.919 28.4953 575.941 29.42C576.963 30.296 577.888 31.1477 578.715 31.975C578.52 32.7537 577.863 33.143 576.744 33.143H551.486L550.902 31.026H568.568L572.145 26.135ZM567.4 23.945C567.351 24.3343 567.181 24.675 566.889 24.967C566.597 25.259 566.062 25.478 565.283 25.624V39.932C565.283 40.078 564.942 40.297 564.261 40.589C563.628 40.881 562.825 41.1487 561.852 41.392C560.879 41.5867 559.93 41.684 559.005 41.684H557.545V23.069L567.4 23.945ZM549.734 67.234C549.685 67.4773 549.053 67.891 547.836 68.475C546.619 69.1077 544.916 69.424 542.726 69.424H541.193V20.368H549.734V67.234ZM570.904 38.764C570.904 38.764 571.172 38.983 571.707 39.421C572.242 39.8103 572.924 40.3457 573.751 41.027C574.578 41.6597 575.43 42.3653 576.306 43.144C577.231 43.874 578.058 44.5553 578.788 45.188C578.593 45.9667 577.936 46.356 576.817 46.356H513.672L513.015 44.312H566.67L570.904 38.764ZM569.006 14.309C569.006 14.309 569.42 14.6497 570.247 15.331C571.123 15.9637 572.145 16.7423 573.313 17.667C574.481 18.543 575.552 19.3947 576.525 20.222C576.33 21.0007 575.673 21.39 574.554 21.39H515.716L515.059 19.346H564.918L569.006 14.309ZM568.422 48.765C568.422 48.765 568.714 48.984 569.298 49.422C569.931 49.86 570.685 50.444 571.561 51.174C572.486 51.8553 573.459 52.5853 574.481 53.364C575.503 54.1427 576.428 54.897 577.255 55.627C577.06 56.4057 576.379 56.795 575.211 56.795H516.592L516.008 54.751H563.531L568.422 48.765ZM616.31 51.612C618.111 54.1427 620.252 56.0407 622.734 57.306C625.265 58.5227 628.331 59.3257 631.932 59.715C635.582 60.1043 639.938 60.299 644.999 60.299C646.459 60.299 648.333 60.299 650.62 60.299C652.907 60.299 655.316 60.299 657.847 60.299C660.426 60.2503 662.86 60.226 665.147 60.226C667.483 60.1773 669.43 60.153 670.987 60.153V60.956C669.576 61.3453 668.529 62.1483 667.848 63.365C667.167 64.6303 666.802 66.0173 666.753 67.526C665.585 67.526 664.028 67.526 662.081 67.526C660.134 67.526 658.066 67.526 655.876 67.526C653.686 67.526 651.618 67.526 649.671 67.526C647.724 67.526 646.118 67.526 644.853 67.526C639.5 67.526 634.974 67.088 631.275 66.212C627.576 65.3847 624.462 63.876 621.931 61.686C619.449 59.4473 617.332 56.2597 615.58 52.123L616.31 51.612ZM666.023 9.126C665.05 9.90466 663.468 9.88033 661.278 9.053C659.137 9.491 656.606 9.929 653.686 10.367C650.815 10.7563 647.797 11.1213 644.634 11.462C641.519 11.754 638.478 11.9973 635.509 12.192L635.217 11.17C637.796 10.3913 640.497 9.418 643.32 8.25C646.143 7.03333 648.795 5.81666 651.277 4.6C653.808 3.33466 655.876 2.191 657.482 1.169L666.023 9.126ZM641.495 10.44C641.398 10.6833 641.179 10.878 640.838 11.024C640.497 11.17 640.084 11.2917 639.597 11.389V25.916C639.597 28.398 639.451 31.0503 639.159 33.873C638.916 36.6957 638.332 39.5427 637.407 42.414C636.531 45.2367 635.144 47.9377 633.246 50.517C631.397 53.0963 628.866 55.4323 625.654 57.525L624.924 56.722C626.919 53.7047 628.355 50.4683 629.231 47.013C630.107 43.509 630.667 39.9563 630.91 36.355C631.153 32.705 631.275 29.1523 631.275 25.697V7.301L641.495 10.44ZM658.139 55.992C658.139 56.138 657.531 56.4787 656.314 57.014C655.097 57.5493 653.394 57.817 651.204 57.817H649.671V25.405H658.139V55.992ZM661.57 18.543C661.57 18.543 661.862 18.7863 662.446 19.273C663.03 19.711 663.76 20.2707 664.636 20.952C665.512 21.6333 666.437 22.3877 667.41 23.215C668.383 24.0423 669.259 24.7967 670.038 25.478C669.941 25.8673 669.697 26.1593 669.308 26.354C668.967 26.5487 668.529 26.646 667.994 26.646H635.874V24.602H656.971L661.57 18.543ZM623.245 21.317C622.71 22.193 622.004 23.3123 621.128 24.675C620.301 26.0377 619.4 27.4733 618.427 28.982C617.454 30.442 616.505 31.8533 615.58 33.216C614.704 34.5787 613.901 35.7467 613.171 36.72H613.682L610.981 39.202L604.265 34.384C604.849 33.9947 605.579 33.6053 606.455 33.216C607.38 32.8267 608.207 32.6077 608.937 32.559L605.944 34.603C606.674 33.6297 607.526 32.4373 608.499 31.026C609.472 29.566 610.446 28.0573 611.419 26.5C612.441 24.9427 613.366 23.434 614.193 21.974C615.069 20.514 615.75 19.2973 616.237 18.324L623.245 21.317ZM615.288 18.324L619.011 14.601L626.384 21.317C625.946 21.755 625.216 22.0713 624.194 22.266C623.221 22.4607 622.101 22.558 620.836 22.558C619.571 22.5093 618.33 22.3877 617.113 22.193L616.237 18.324H615.288ZM617.843 34.676L622.15 30.296L629.742 36.72C629.401 37.304 628.477 37.669 626.968 37.815C625.897 41.6597 624.34 45.5043 622.296 49.349C620.301 53.145 617.77 56.722 614.704 60.08C611.638 63.3893 607.964 66.285 603.681 68.767L603.024 67.891C605.847 65.0683 608.304 61.832 610.397 58.182C612.49 54.4833 614.217 50.6143 615.58 46.575C616.943 42.487 617.94 38.5207 618.573 34.676H617.843ZM619.741 18.324V20.441H603.9L603.243 18.324H619.741ZM620.544 34.676V36.793H610.178L610.981 34.676H620.544ZM606.528 2.55599C610.081 2.60466 612.903 3.01833 614.996 3.797C617.137 4.527 618.695 5.50033 619.668 6.717C620.69 7.885 621.201 9.07733 621.201 10.294C621.25 11.462 620.933 12.484 620.252 13.36C619.619 14.236 618.719 14.7957 617.551 15.039C616.383 15.2823 615.093 15.0147 613.682 14.236C613.293 12.8733 612.684 11.5107 611.857 10.148C611.03 8.73666 610.105 7.42266 609.083 6.206C608.061 4.94066 607.039 3.89433 606.017 3.067L606.528 2.55599ZM734.716 4.673C734.716 4.673 735.008 4.91633 735.592 5.403C736.176 5.88966 736.906 6.52233 737.782 7.301C738.707 8.031 739.656 8.834 740.629 9.71C741.651 10.5373 742.551 11.316 743.33 12.046C743.233 12.4353 742.989 12.7273 742.6 12.922C742.259 13.1167 741.821 13.214 741.286 13.214H677.046L676.389 11.17H729.898L734.716 4.673ZM702.304 0.584999C705.516 0.682331 708.047 1.12033 709.896 1.899C711.745 2.629 713.035 3.52933 713.765 4.6C714.495 5.622 714.787 6.66833 714.641 7.739C714.544 8.80967 714.106 9.71 713.327 10.44C712.548 11.17 711.575 11.5837 710.407 11.681C709.239 11.7783 707.998 11.389 706.684 10.513C706.441 8.80967 705.832 7.082 704.859 5.33C703.934 3.578 702.888 2.14233 701.72 1.023L702.304 0.584999ZM726.832 36.428L731.796 32.048L739.461 39.348C739.12 39.6887 738.707 39.9077 738.22 40.005C737.782 40.1023 737.149 40.1753 736.322 40.224C734.521 40.808 732.453 41.392 730.117 41.976C727.781 42.5113 725.348 43.0223 722.817 43.509C720.286 43.9957 717.78 44.4337 715.298 44.823C712.865 45.2123 710.626 45.5287 708.582 45.772L708.071 45.115C709.628 44.6283 711.307 44.02 713.108 43.29C714.909 42.56 716.709 41.8057 718.51 41.027C720.359 40.2483 722.063 39.4697 723.62 38.691C725.226 37.9123 726.589 37.158 727.708 36.428H726.832ZM716.32 43.363C716.223 43.8983 715.979 44.3363 715.59 44.677C715.201 44.969 714.641 45.1637 713.911 45.261V59.35C713.911 61.3453 713.643 63.0487 713.108 64.46C712.573 65.8713 711.429 66.9663 709.677 67.745C707.974 68.5723 705.346 69.1563 701.793 69.497C701.647 68.1343 701.428 66.9663 701.136 65.993C700.844 65.0197 700.357 64.2167 699.676 63.584C699.043 62.9513 698.192 62.416 697.121 61.978C696.05 61.4913 694.42 61.0777 692.23 60.737V59.715C692.23 59.715 692.717 59.7637 693.69 59.861C694.663 59.9097 695.807 59.9827 697.121 60.08C698.484 60.1287 699.749 60.2017 700.917 60.299C702.085 60.3477 702.888 60.372 703.326 60.372C703.91 60.372 704.299 60.2747 704.494 60.08C704.689 59.8853 704.786 59.5447 704.786 59.058V42.414L716.32 43.363ZM721.357 18.324L725.299 13.944L733.84 20.295C733.645 20.587 733.305 20.879 732.818 21.171C732.331 21.4143 731.699 21.6333 730.92 21.828V31.537C730.92 31.683 730.482 31.9263 729.606 32.267C728.779 32.559 727.805 32.8267 726.686 33.07C725.567 33.3133 724.545 33.435 723.62 33.435H722.087V18.324H721.357ZM697.048 32.121C697.048 32.3643 696.659 32.705 695.88 33.143C695.15 33.5323 694.225 33.8973 693.106 34.238C691.987 34.53 690.843 34.676 689.675 34.676H688.434V18.324V14.747L697.559 18.324H725.591V20.368H697.048V32.121ZM726.175 28.544V30.661H693.179V28.544H726.175ZM730.847 36.428V38.545H682.74L682.083 36.428H730.847ZM735.592 43.363C735.592 43.363 735.884 43.6063 736.468 44.093C737.052 44.531 737.782 45.115 738.658 45.845C739.583 46.5263 740.532 47.2807 741.505 48.108C742.527 48.9353 743.452 49.7383 744.279 50.517C744.182 50.9063 743.938 51.1983 743.549 51.393C743.16 51.5877 742.697 51.685 742.162 51.685H676.024L675.367 49.568H730.847L735.592 43.363ZM759.463 14.09V10.221L769.026 14.09H803.117V16.207H768.369V66.066C768.369 66.4553 768.004 66.8933 767.274 67.38C766.593 67.8667 765.692 68.3047 764.573 68.694C763.454 69.132 762.237 69.351 760.923 69.351H759.463V14.09ZM798.007 14.09H797.277L801.584 9.272L810.271 16.134C810.028 16.4747 809.638 16.8153 809.103 17.156C808.568 17.448 807.911 17.667 807.132 17.813V66.358C807.083 66.6013 806.645 66.942 805.818 67.38C804.991 67.818 803.993 68.2073 802.825 68.548C801.657 68.8887 800.513 69.059 799.394 69.059H798.007V14.09ZM763.405 29.566H802.533V31.61H763.405V29.566ZM763.405 45.407H802.533V47.451H763.405V45.407ZM763.405 61.54H802.533V63.584H763.405V61.54ZM777.348 1.023L790.415 3.14C790.318 3.62666 790.05 4.016 789.612 4.308C789.223 4.6 788.59 4.77033 787.714 4.819C786.4 6.47366 784.77 8.29866 782.823 10.294C780.876 12.2407 778.881 13.9927 776.837 15.55H775.304C775.596 14.1873 775.888 12.6543 776.18 10.951C776.472 9.199 776.715 7.47133 776.91 5.768C777.105 4.016 777.251 2.43433 777.348 1.023ZM867.795 24.383C872.467 26.135 876.239 28.0573 879.11 30.15C882.03 32.2427 884.22 34.3353 885.68 36.428C887.189 38.5207 888.089 40.4673 888.381 42.268C888.722 44.0687 888.624 45.553 888.089 46.721C887.554 47.8403 886.726 48.5217 885.607 48.765C884.488 49.0083 883.198 48.619 881.738 47.597C881.3 45.699 880.57 43.728 879.548 41.684C878.575 39.5913 877.382 37.5473 875.971 35.552C874.608 33.5567 873.148 31.6587 871.591 29.858C870.082 28.0573 868.574 26.427 867.065 24.967L867.795 24.383ZM823.922 34.53C825.187 34.2867 826.745 33.9703 828.594 33.581C830.443 33.143 832.439 32.632 834.58 32.048C836.77 31.464 838.911 30.8313 841.004 30.15L841.296 30.953C839.885 32.2183 838.157 33.6783 836.113 35.333C834.069 36.9877 831.684 38.764 828.959 40.662C828.716 41.6353 828.156 42.268 827.28 42.56L823.922 34.53ZM873.562 4.965C876.433 5.45166 878.648 6.15733 880.205 7.082C881.762 7.958 882.833 8.907 883.417 9.929C884.001 10.951 884.171 11.9487 883.928 12.922C883.733 13.8467 883.271 14.6253 882.541 15.258C881.86 15.842 881.008 16.134 879.986 16.134C878.964 16.0853 877.918 15.6473 876.847 14.82C876.701 13.1653 876.239 11.4863 875.46 9.783C874.681 8.031 873.83 6.571 872.905 5.403L873.562 4.965ZM833.266 18.324C836.624 18.762 839.203 19.492 841.004 20.514C842.853 21.536 844.07 22.6553 844.654 23.872C845.238 25.0887 845.36 26.208 845.019 27.23C844.678 28.2033 844.021 28.8603 843.048 29.201C842.075 29.5417 840.98 29.347 839.763 28.617C839.471 27.449 838.911 26.281 838.084 25.113C837.305 23.8963 836.429 22.7527 835.456 21.682C834.483 20.5627 833.509 19.6137 832.536 18.835L833.266 18.324ZM873.562 49.933C877.601 50.9063 880.838 52.1717 883.271 53.729C885.704 55.2377 887.456 56.8437 888.527 58.547C889.646 60.2503 890.23 61.8563 890.279 63.365C890.376 64.9223 890.06 66.212 889.33 67.234C888.649 68.256 887.7 68.84 886.483 68.986C885.315 69.1807 884.025 68.7427 882.614 67.672C882.273 65.6767 881.616 63.6327 880.643 61.54C879.67 59.3987 878.502 57.379 877.139 55.481C875.776 53.5343 874.365 51.831 872.905 50.371L873.562 49.933ZM858.524 50.444C861.882 51.7093 864.51 53.145 866.408 54.751C868.306 56.357 869.62 57.9873 870.35 59.642C871.129 61.248 871.445 62.7323 871.299 64.095C871.153 65.4577 870.666 66.5527 869.839 67.38C869.06 68.2073 868.087 68.621 866.919 68.621C865.8 68.621 864.632 68.0857 863.415 67.015C863.366 65.1657 863.074 63.292 862.539 61.394C862.004 59.4473 861.298 57.5737 860.422 55.773C859.595 53.9237 858.719 52.269 857.794 50.809L858.524 50.444ZM843.924 50.882C846.552 52.5853 848.523 54.313 849.837 56.065C851.2 57.817 852.076 59.496 852.465 61.102C852.854 62.708 852.854 64.1193 852.465 65.336C852.076 66.5527 851.443 67.453 850.567 68.037C849.74 68.6697 848.791 68.8887 847.72 68.694C846.649 68.548 845.627 67.891 844.654 66.723C844.849 64.971 844.873 63.1947 844.727 61.394C844.63 59.5933 844.435 57.817 844.143 56.065C843.851 54.313 843.486 52.6827 843.048 51.174L843.924 50.882ZM874.292 2.337C874.195 2.82366 873.976 3.23733 873.635 3.578C873.294 3.91866 872.662 4.13766 871.737 4.235V14.601C871.688 17.959 871.348 21.3413 870.715 24.748C870.131 28.1547 868.987 31.4883 867.284 34.749C865.581 37.961 863.099 40.9053 859.838 43.582C856.626 46.21 852.392 48.4243 847.136 50.225L846.479 49.495C850.226 47.2563 853.219 44.75 855.458 41.976C857.745 39.202 859.449 36.282 860.568 33.216C861.687 30.15 862.442 27.0353 862.831 23.872C863.22 20.7087 863.415 17.5697 863.415 14.455V1.242L874.292 2.337ZM847.647 13.068L851.881 8.907L859.108 15.258C858.67 15.842 857.697 16.2313 856.188 16.426C854.923 21.7307 853.049 26.6947 850.567 31.318C848.085 35.9413 844.678 40.0293 840.347 43.582C836.064 47.1347 830.541 50.0303 823.776 52.269L823.265 51.247C828.521 48.5703 832.852 45.3097 836.259 41.465C839.666 37.5717 842.342 33.216 844.289 28.398C846.284 23.58 847.696 18.47 848.523 13.068H847.647ZM851.881 13.068V15.185H835.529L836.04 13.068H851.881ZM845.53 5.038C845.384 5.476 845.068 5.841 844.581 6.133C844.094 6.37633 843.437 6.498 842.61 6.498C840.42 12.192 837.695 17.0343 834.434 21.025C831.173 25.0157 827.499 28.3007 823.411 30.88L822.535 30.223C824.336 27.9357 826.015 25.3077 827.572 22.339C829.129 19.3703 830.516 16.134 831.733 12.63C832.95 9.126 833.874 5.50033 834.507 1.753L845.53 5.038ZM834.215 50.517C834.945 53.4857 835.188 56.1623 834.945 58.547C834.75 60.883 834.215 62.8783 833.339 64.533C832.512 66.1877 831.514 67.4773 830.346 68.402C829.519 68.986 828.57 69.3267 827.499 69.424C826.477 69.57 825.504 69.424 824.579 68.986C823.703 68.5967 823.046 67.9153 822.608 66.942C822.121 65.6767 822.146 64.4843 822.681 63.365C823.265 62.2943 824.141 61.4183 825.309 60.737C826.282 60.2017 827.329 59.423 828.448 58.401C829.616 57.379 830.638 56.1867 831.514 54.824C832.39 53.4613 832.95 52.0013 833.193 50.444L834.215 50.517ZM882.03 15.404C882.03 15.404 882.419 15.7447 883.198 16.426C884.025 17.0587 884.999 17.8373 886.118 18.762C887.286 19.6867 888.284 20.5627 889.111 21.39C888.916 22.1687 888.284 22.558 887.213 22.558H855.75L855.166 20.514H878.234L882.03 15.404Z" fill="#7D272B"/>
</svg>
