<svg width="548" height="59" viewBox="0 0 548 59" fill="none" xmlns="http://www.w3.org/2000/svg">
<path d="M10.96 29.3203C10.96 33.2103 11.55 36.7003 12.72 39.8003C13.89 42.9003 15.51 45.5103 17.57 47.6503C19.63 49.7903 22.06 51.4303 24.86 52.5603C27.66 53.6903 30.7 54.2603 33.97 54.2603C35.93 54.2603 37.82 53.8803 39.64 53.1303C41.46 52.3803 43.15 51.3903 44.7 50.1703C46.25 48.9503 47.65 47.5803 48.88 46.0503C50.11 44.5203 51.12 42.9803 51.9 41.4103L55.85 43.9303C54.7 45.8103 53.34 47.6103 51.78 49.3303C50.21 51.0503 48.4 52.5803 46.34 53.9103C44.28 55.2403 41.96 56.3003 39.37 57.0803C36.78 57.8603 33.89 58.2503 30.7 58.2503C26.08 58.2503 21.89 57.4803 18.12 55.9403C14.35 54.4003 11.13 52.3103 8.44 49.6803C5.75 47.0503 3.67 43.9703 2.2 40.4603C0.73 36.9503 0 33.2303 0 29.3103C0 26.7103 0.34 24.1603 1.01 21.6903C1.68 19.2103 2.65 16.8903 3.93 14.7203C5.2 12.5503 6.76 10.5603 8.59 8.76025C10.42 6.95025 12.5 5.40025 14.81 4.10025C17.12 2.80025 19.65 1.79025 22.39 1.08025C25.13 0.370254 28.06 0.0102539 31.17 0.0102539C34.28 0.0102539 36.88 0.410254 39.38 1.21025C41.89 2.01025 44.17 3.07025 46.23 4.38025C48.29 5.69025 50.12 7.21025 51.73 8.94025C53.34 10.6603 54.72 12.4603 55.87 14.3403L51.8 17.0303C49.48 12.5203 46.87 9.23025 43.99 7.14025C41.11 5.05025 37.79 4.01025 34.04 4.01025C30.82 4.01025 27.81 4.60025 25.01 5.77025C22.21 6.95025 19.77 8.63025 17.68 10.8103C15.59 12.9903 13.96 15.6503 12.77 18.7703C11.58 21.8903 10.98 25.4103 10.98 29.3303L10.96 29.3203Z" fill="#EEDBD4"/>
<path d="M97.1 58.2502C92.79 58.2502 88.76 57.4802 85.03 55.9402C81.29 54.4002 78.04 52.2902 75.29 49.6202C72.53 46.9502 70.36 43.8302 68.78 40.2502C67.2 36.6802 66.41 32.8702 66.41 28.8102C66.41 26.1502 66.77 23.5902 67.48 21.1202C68.19 18.6602 69.21 16.3602 70.53 14.2302C71.85 12.1002 73.43 10.1602 75.3 8.41023C77.16 6.66023 79.23 5.16023 81.49 3.92023C83.76 2.68023 86.21 1.71023 88.84 1.02023C91.47 0.330234 94.23 -0.00976562 97.11 -0.00976562C99.99 -0.00976562 102.75 0.330234 105.38 1.02023C108.01 1.71023 110.47 2.67023 112.75 3.92023C115.03 5.17023 117.1 6.66023 118.94 8.41023C120.78 10.1602 122.38 12.1002 123.71 14.2302C125.04 16.3602 126.06 18.6502 126.78 21.1202C127.49 23.5802 127.85 26.1502 127.85 28.8102C127.85 31.4702 127.49 34.1002 126.78 36.6002C126.06 39.1102 125.04 41.4502 123.71 43.6302C122.38 45.8102 120.79 47.8002 118.94 49.5902C117.09 51.3802 115.03 52.9202 112.75 54.2102C110.47 55.5002 108.01 56.4902 105.38 57.1902C102.75 57.8902 99.99 58.2402 97.11 58.2402L97.1 58.2502ZM97.1 55.4802C100.29 55.4802 103.11 54.8202 105.56 53.4902C108.01 52.1602 110.07 50.3102 111.75 47.9302C113.43 45.5502 114.7 42.7402 115.55 39.4902C116.4 36.2402 116.83 32.6902 116.83 28.8202C116.83 24.9502 116.4 21.4702 115.55 18.2802C114.7 15.0902 113.43 12.3402 111.75 10.0302C110.07 7.72023 108.01 5.93023 105.56 4.65023C103.11 3.38023 100.29 2.74023 97.1 2.74023C93.91 2.74023 91 3.38023 88.55 4.65023C86.1 5.93023 84.04 7.72023 82.38 10.0302C80.71 12.3402 79.46 15.0902 78.62 18.2802C77.78 21.4702 77.36 24.9902 77.36 28.8202C77.36 32.6502 77.78 36.2402 78.62 39.4902C79.46 42.7402 80.71 45.5502 82.38 47.9302C84.05 50.3102 86.1 52.1602 88.55 53.4902C91 54.8202 93.85 55.4802 97.1 55.4802Z" fill="#EEDBD4"/>
<path d="M140.44 1.26025H145.69L182.19 42.0003H182.61V1.26025H186.73V58.2503H184.55L145.03 12.9803H144.7V56.9503H140.46V1.26025H140.44Z" fill="#EEDBD4"/>
<path d="M204.32 1.26025L225.36 45.5703L244.89 1.26025H249.34L224.06 58.2503H221.62L194.45 1.26025H204.32Z" fill="#EEDBD4"/>
<path d="M295.79 1.26025V4.87025H266.43V24.7803H286.08V28.3903H266.43V53.3303H295.79V56.9403H257.07V1.26025H295.79Z" fill="#EEDBD4"/>
<path d="M306.79 1.26025H312.04L348.54 42.0003H348.96V1.26025H353.08V58.2503H350.9L311.38 12.9803H311.04V56.9503H306.8V1.26025H306.79Z" fill="#EEDBD4"/>
<path d="M368.19 1.26025H377.55V56.9503H368.19V1.26025Z" fill="#EEDBD4"/>
<path d="M431.44 1.26025V4.87025H402.08V24.7803H421.73V28.3903H402.08V53.3303H431.44V56.9403H392.72V1.26025H431.44Z" fill="#EEDBD4"/>
<path d="M442.44 1.26025H447.69L484.19 42.0003H484.61V1.26025H488.73V58.2503H486.55L447.03 12.9803H446.69V56.9503H442.45V1.26025H442.44Z" fill="#EEDBD4"/>
<path d="M547.61 1.26025V4.87025H527.45V56.9503H518.09V4.87025H497.93V1.26025H547.61Z" fill="#EEDBD4"/>
</svg>
