<svg width="331" height="320" viewBox="0 0 331 320" fill="none" xmlns="http://www.w3.org/2000/svg">
<rect width="331" height="320" fill="#7D272B"/>
<path d="M81.5 155H137.75L146 144.125C146 144.125 146.5 144.542 147.5 145.375C148.583 146.208 149.875 147.25 151.375 148.5C152.958 149.75 154.625 151.083 156.375 152.5C158.125 153.917 159.708 155.292 161.125 156.625C161.042 157.292 160.667 157.792 160 158.125C159.333 158.458 158.542 158.625 157.625 158.625H82.5L81.5 155ZM90.5 209.375H144.125V213H90.5V209.375ZM90.5 190.75H144.125V194.375H90.5V190.75ZM139.375 172.375H138.125L144.875 164.875L159.125 175.625C158.792 176.125 158.208 176.667 157.375 177.25C156.542 177.75 155.458 178.125 154.125 178.375V216.5C154.125 216.75 153.417 217.167 152 217.75C150.667 218.333 149.042 218.875 147.125 219.375C145.292 219.792 143.542 220 141.875 220H139.375V172.375ZM82.25 172.375V166.375L97.375 172.375H144V175.875H96.5V216.5C96.5 217 95.875 217.625 94.625 218.375C93.4583 219.042 91.9167 219.667 90 220.25C88.1667 220.75 86.2917 221 84.375 221H82.25V172.375ZM110.25 155H124.875V205.25C124.875 210.667 124.542 215.792 123.875 220.625C123.208 225.375 121.875 229.833 119.875 234C117.875 238.167 114.917 241.958 111 245.375C107.083 248.792 102 251.833 95.75 254.5C89.5 257.167 81.7083 259.458 72.375 261.375L71.5 260C79.6667 256.917 86.2917 253.583 91.375 250C96.4583 246.417 100.375 242.458 103.125 238.125C105.875 233.792 107.75 228.958 108.75 223.625C109.75 218.208 110.25 212.167 110.25 205.5V155ZM91 220.75C93.8333 225 97.6667 228.667 102.5 231.75C107.417 234.75 113.042 237.167 119.375 239C125.708 240.833 132.5 242.167 139.75 243C147.083 243.833 154.625 244.208 162.375 244.125V245.625C159.375 246.458 156.792 248.167 154.625 250.75C152.542 253.417 151.208 256.625 150.625 260.375C139.958 258.958 130.625 256.75 122.625 253.75C114.708 250.833 108 246.75 102.5 241.5C97.0833 236.25 92.75 229.625 89.5 221.625L91 220.75ZM57.25 183.75L63 176.25L75.875 180.875C75.7083 181.458 75.2917 181.958 74.625 182.375C74.0417 182.792 73.1667 183.125 72 183.375V256.875C71.9167 257.208 71.2917 257.708 70.125 258.375C68.9583 259.042 67.4583 259.667 65.625 260.25C63.875 260.833 62 261.125 60 261.125H57.25V183.75ZM66.25 143.75L86.5 149.875C86.1667 150.625 85.5833 151.25 84.75 151.75C84 152.25 82.9167 152.458 81.5 152.375C78.4167 160.625 74.875 168.25 70.875 175.25C66.875 182.25 62.5 188.583 57.75 194.25C53 199.917 47.875 204.917 42.375 209.25L40.75 208.25C44.25 203.083 47.625 197.042 50.875 190.125C54.125 183.125 57.0833 175.667 59.75 167.75C62.5 159.75 64.6667 151.75 66.25 143.75ZM205 188.25H273.375L278.5 180C278.5 180 279 180.542 280 181.625C281.083 182.708 282.333 184 283.75 185.5C285.25 187 286.5 188.417 287.5 189.75C287.25 191.083 286.208 191.75 284.375 191.75H206L205 188.25ZM206.625 158.375H262.5L270.125 148.125C270.125 148.125 270.583 148.542 271.5 149.375C272.417 150.125 273.583 151.083 275 152.25C276.5 153.417 278 154.708 279.5 156.125C281.083 157.458 282.542 158.75 283.875 160C283.542 161.333 282.375 162 280.375 162H207.625L206.625 158.375ZM234.5 144.5L253.25 146.25C253.167 147.083 252.792 147.833 252.125 148.5C251.542 149.167 250.417 149.625 248.75 149.875V252.75L234.5 246.5V144.5ZM212.75 172.25H265V175.75H213.875L212.75 172.25ZM212.25 205H265.375V208.625H213.375L212.25 205ZM259.75 172.25H258.5L264.75 165.75L277.5 175.375C277.167 175.708 276.625 176.125 275.875 176.625C275.125 177.042 274.167 177.375 273 177.625V209C273 209.333 272.375 209.833 271.125 210.5C269.958 211.083 268.5 211.625 266.75 212.125C265 212.625 263.375 212.875 261.875 212.875H259.75V172.25ZM241.875 223.625H257.625L265 213.625C265 213.625 265.417 214 266.25 214.75C267.167 215.5 268.292 216.458 269.625 217.625C271.042 218.792 272.5 220.042 274 221.375C275.583 222.708 276.958 223.958 278.125 225.125C277.792 226.458 276.667 227.125 274.75 227.125H241.875V223.625ZM211 213.75L230 217C229.583 218.833 228.042 219.833 225.375 220C223.208 230.833 219.792 239.542 215.125 246.125C210.542 252.625 204.583 257.708 197.25 261.375L195.75 260.125C200.5 254.458 204.208 247.75 206.875 240C209.542 232.25 210.917 223.5 211 213.75ZM220.5 227.375C223 232.208 226.042 235.875 229.625 238.375C233.292 240.875 237.75 242.583 243 243.5C248.333 244.333 254.667 244.75 262 244.75C263.833 244.75 266.333 244.75 269.5 244.75C272.667 244.75 275.833 244.75 279 244.75C282.25 244.667 284.958 244.625 287.125 244.625V246.25C285.042 246.667 283.458 248 282.375 250.25C281.375 252.5 280.917 255.125 281 258.125C279.583 258.125 277.583 258.125 275 258.125C272.5 258.125 269.958 258.125 267.375 258.125C264.875 258.125 262.833 258.125 261.25 258.125C253.583 258.125 247 257.292 241.5 255.625C236 253.958 231.458 250.958 227.875 246.625C224.375 242.208 221.5 236.042 219.25 228.125L220.5 227.375ZM167.875 173.5H196.5L202.5 163C202.5 163 202.875 163.417 203.625 164.25C204.375 165 205.292 166 206.375 167.25C207.458 168.5 208.583 169.833 209.75 171.25C211 172.667 212.042 173.917 212.875 175C212.542 176.333 211.458 177 209.625 177H168.875L167.875 173.5ZM182.375 143.75L200.875 145.5C200.792 146.417 200.375 147.208 199.625 147.875C198.958 148.458 197.833 148.875 196.25 149.125V244.5C196.25 247.75 195.875 250.542 195.125 252.875C194.375 255.208 192.792 257.042 190.375 258.375C187.958 259.792 184.208 260.792 179.125 261.375C178.958 259.042 178.708 257.042 178.375 255.375C178.042 253.708 177.5 252.333 176.75 251.25C175.917 250.083 174.833 249.167 173.5 248.5C172.167 247.75 170.208 247.125 167.625 246.625V244.875C167.625 244.875 168.125 244.917 169.125 245C170.208 245.083 171.458 245.167 172.875 245.25C174.375 245.25 175.792 245.292 177.125 245.375C178.458 245.458 179.375 245.5 179.875 245.5C180.875 245.5 181.542 245.375 181.875 245.125C182.208 244.792 182.375 244.25 182.375 243.5V143.75ZM166.125 205.375C168.542 204.792 172.083 203.958 176.75 202.875C181.417 201.708 186.667 200.333 192.5 198.75C198.417 197.167 204.375 195.542 210.375 193.875L210.625 195.25C206.958 197.917 202.167 201.25 196.25 205.25C190.417 209.25 183.417 213.667 175.25 218.5C174.75 220.25 173.667 221.417 172 222L166.125 205.375Z" fill="white"/>
<path d="M291.87 285.24C299.806 285.24 306.24 278.806 306.24 270.87C306.24 262.934 299.806 256.5 291.87 256.5C283.934 256.5 277.5 262.934 277.5 270.87C277.5 278.806 283.934 285.24 291.87 285.24Z" stroke="white" stroke-miterlimit="10"/>
</svg>
