<svg width="469" height="70" viewBox="0 0 469 70" fill="none" xmlns="http://www.w3.org/2000/svg">
<path d="M0.285 63V60.591L11.454 59.569H13.498L24.74 60.591V63H0.285ZM7.147 63C7.24433 58.8633 7.293 54.7023 7.293 50.517C7.34167 46.283 7.366 42.0247 7.366 37.742V34.238C7.366 30.004 7.34167 25.7943 7.293 21.609C7.293 17.375 7.24433 13.141 7.147 8.907H17.951C17.8537 13.0437 17.7807 17.2533 17.732 21.536C17.732 25.77 17.732 30.004 17.732 34.238V37.669C17.732 41.903 17.732 46.137 17.732 50.371C17.7807 54.5563 17.8537 58.766 17.951 63H7.147ZM0.285 11.316V8.907H24.74V11.316L13.498 12.338H11.454L0.285 11.316ZM30.856 63V60.591L38.594 59.569H40.565L50.566 60.591V63H30.856ZM37.937 63V10.951H40.711L41.441 43.947V63H37.937ZM65.239 11.316V8.907H85.022V11.316L77.357 12.338H75.386L65.239 11.316ZM72.539 63.292L39.908 15.842L39.689 15.623L37.207 11.9L31.148 11.316V8.907H47.354L76.408 51.32L75.021 51.831L74.802 30.15V8.907H77.795V63.292H72.539ZM98.9964 6.279V2.702L108.048 6.279H144.84V8.396H107.464V38.618C107.464 38.8613 107.099 39.2263 106.369 39.713C105.688 40.151 104.788 40.5403 103.668 40.881C102.598 41.2217 101.454 41.392 100.237 41.392H98.9964V6.279ZM102.865 19.93H144.621V22.047H102.865V19.93ZM102.865 34.092H144.621V36.136H102.865V34.092ZM119.874 6.279H128.05V35.333H119.874V6.279ZM141.19 6.279H140.46L144.475 1.899L152.724 8.25C152.53 8.542 152.165 8.834 151.629 9.126C151.143 9.418 150.534 9.637 149.804 9.783V37.888C149.756 38.034 149.318 38.3017 148.49 38.691C147.712 39.0317 146.787 39.348 145.716 39.64C144.646 39.932 143.599 40.078 142.577 40.078H141.19V6.279ZM117.173 39.056C120.969 39.2507 124.06 39.8347 126.444 40.808C128.829 41.7327 130.605 42.852 131.773 44.166C132.99 45.48 133.696 46.794 133.89 48.108C134.085 49.3733 133.89 50.4927 133.306 51.466C132.771 52.4393 131.944 53.0963 130.824 53.437C129.754 53.729 128.488 53.51 127.028 52.78C126.493 51.174 125.666 49.568 124.546 47.962C123.427 46.3073 122.162 44.75 120.75 43.29C119.339 41.83 117.952 40.589 116.589 39.567L117.173 39.056ZM108.194 43.582L118.779 44.458C118.633 45.4313 117.879 46.0153 116.516 46.21V59.131C116.516 59.6663 116.687 60.0313 117.027 60.226C117.368 60.4207 118.171 60.518 119.436 60.518H127.612C129.072 60.518 130.386 60.518 131.554 60.518C132.771 60.4693 133.671 60.4207 134.255 60.372C134.791 60.3233 135.204 60.226 135.496 60.08C135.788 59.934 136.056 59.6907 136.299 59.35C136.689 58.766 137.151 57.7683 137.686 56.357C138.27 54.897 138.927 53.145 139.657 51.101H140.46L140.679 59.642C141.896 60.08 142.699 60.5667 143.088 61.102C143.478 61.5887 143.672 62.2213 143.672 63C143.672 64.2167 143.186 65.19 142.212 65.92C141.288 66.65 139.609 67.1853 137.175 67.526C134.742 67.9153 131.262 68.11 126.736 68.11H117.903C115.275 68.11 113.256 67.9153 111.844 67.526C110.433 67.1367 109.46 66.4067 108.924 65.336C108.438 64.314 108.194 62.8783 108.194 61.029V43.582ZM101.04 44.02H102.062C103.279 47.4753 103.766 50.5413 103.522 53.218C103.328 55.846 102.671 58.036 101.551 59.788C100.481 61.4913 99.2154 62.7323 97.7554 63.511C96.3441 64.2897 94.8841 64.5087 93.3754 64.168C91.8667 63.876 90.8447 63.0243 90.3094 61.613C89.8714 60.2503 89.9931 59.058 90.6744 58.036C91.3557 57.014 92.2804 56.2353 93.4484 55.7C94.6651 55.116 95.8331 54.2887 96.9524 53.218C98.1204 52.0987 99.0937 50.7603 99.8724 49.203C100.651 47.6457 101.04 45.918 101.04 44.02ZM140.387 43.436C144.719 44.458 148.174 45.7963 150.753 47.451C153.333 49.057 155.206 50.7603 156.374 52.561C157.591 54.313 158.248 56.0163 158.345 57.671C158.443 59.277 158.102 60.6153 157.323 61.686C156.593 62.7567 155.596 63.365 154.33 63.511C153.065 63.7057 151.678 63.2677 150.169 62.197C149.829 60.007 149.123 57.817 148.052 55.627C147.03 53.3883 145.789 51.2713 144.329 49.276C142.918 47.232 141.385 45.4557 139.73 43.947L140.387 43.436ZM206.89 0.730997C209.956 1.55833 212.317 2.58033 213.971 3.797C215.626 4.965 216.721 6.206 217.256 7.52C217.84 8.78533 217.986 9.97766 217.694 11.097C217.402 12.1677 216.843 13.0437 216.015 13.725C215.188 14.4063 214.19 14.7227 213.022 14.674C211.903 14.5767 210.759 13.9927 209.591 12.922C209.689 11.5107 209.567 10.0993 209.226 8.688C208.934 7.27666 208.521 5.914 207.985 4.6C207.499 3.286 206.915 2.118 206.233 1.096L206.89 0.730997ZM207.912 4.673C207.766 5.06233 207.499 5.37867 207.109 5.622C206.769 5.86533 206.112 6.01133 205.138 6.06C203.97 8.88266 202.462 11.9973 200.612 15.404C198.812 18.762 196.695 22.0227 194.261 25.186C191.828 28.3493 189.078 31.1963 186.012 33.727L185.282 32.997C186.694 30.7583 188.008 28.2763 189.224 25.551C190.441 22.777 191.512 19.9543 192.436 17.083C193.361 14.163 194.164 11.3403 194.845 8.615C195.527 5.88966 196.062 3.40766 196.451 1.169L207.912 4.673ZM201.196 66.285C201.196 66.577 200.612 67.0393 199.444 67.672C198.325 68.3047 196.743 68.621 194.699 68.621H193.312V20.514L196.816 14.017L202.145 15.988H201.196V66.285ZM216.307 16.791V61.175H208.569V16.791H216.307ZM223.972 54.24C223.972 54.24 224.24 54.459 224.775 54.897C225.311 55.335 225.968 55.8947 226.746 56.576C227.574 57.2573 228.425 57.9873 229.301 58.766C230.226 59.5447 231.029 60.2747 231.71 60.956C231.516 61.7347 230.859 62.124 229.739 62.124H196.597V60.007H219.738L223.972 54.24ZM222.147 39.64C222.147 39.64 222.537 40.005 223.315 40.735C224.143 41.465 225.116 42.3167 226.235 43.29C227.355 44.2633 228.352 45.188 229.228 46.064C229.034 46.8427 228.352 47.232 227.184 47.232H196.889V45.115H218.278L222.147 39.64ZM222.147 25.186C222.147 25.186 222.537 25.551 223.315 26.281C224.143 26.9623 225.116 27.7897 226.235 28.763C227.355 29.7363 228.352 30.6853 229.228 31.61C229.034 32.3887 228.352 32.778 227.184 32.778H196.889V30.661H218.278L222.147 25.186ZM223.169 10.367C223.169 10.367 223.437 10.586 223.972 11.024C224.508 11.462 225.165 12.0217 225.943 12.703C226.722 13.3357 227.525 14.0413 228.352 14.82C229.18 15.55 229.958 16.2557 230.688 16.937C230.542 17.7157 229.885 18.105 228.717 18.105H196.159V15.988H219.081L223.169 10.367ZM191.998 18.47C191.755 18.908 191.244 19.2 190.465 19.346C189.735 19.4433 188.835 19.2 187.764 18.616L189.881 18.251C188.811 19.9057 187.375 21.7793 185.574 23.872C183.822 25.916 181.851 28.033 179.661 30.223C177.52 32.413 175.33 34.4813 173.091 36.428C170.853 38.3747 168.687 40.0293 166.594 41.392L166.448 40.589H170.317C170.123 42.6817 169.758 44.3607 169.222 45.626C168.687 46.8913 167.981 47.7187 167.105 48.108L163.017 39.494C163.017 39.494 163.358 39.421 164.039 39.275C164.721 39.0803 165.232 38.8613 165.572 38.618C167.081 37.3527 168.736 35.6493 170.536 33.508C172.337 31.3667 174.065 29.0307 175.719 26.5C177.423 23.9693 178.956 21.4873 180.318 19.054C181.681 16.572 182.727 14.4063 183.457 12.557L191.998 18.47ZM184.26 5.841C184.066 6.32766 183.628 6.69266 182.946 6.936C182.265 7.13066 181.292 6.98466 180.026 6.498L182.289 6.133C181.17 7.885 179.734 9.856 177.982 12.046C176.23 14.236 174.381 16.3773 172.434 18.47C170.488 20.514 168.614 22.2173 166.813 23.58L166.74 22.704H170.536C170.342 24.7967 169.928 26.4757 169.295 27.741C168.711 29.0063 167.981 29.8093 167.105 30.15L163.601 21.682C163.601 21.682 163.869 21.609 164.404 21.463C164.94 21.2683 165.353 21.0493 165.645 20.806C166.473 19.93 167.324 18.689 168.2 17.083C169.125 15.477 170.001 13.7007 170.828 11.754C171.704 9.80733 172.459 7.90933 173.091 6.06C173.724 4.21067 174.186 2.58033 174.478 1.169L184.26 5.841ZM169.733 48.473C171.145 52.4637 171.802 55.9433 171.704 58.912C171.607 61.8807 171.023 64.1437 169.952 65.701C169.466 66.3823 168.76 66.8447 167.835 67.088C166.959 67.38 166.083 67.4043 165.207 67.161C164.331 66.9177 163.65 66.4067 163.163 65.628C162.628 64.5573 162.555 63.511 162.944 62.489C163.334 61.4183 163.991 60.518 164.915 59.788C165.597 59.1067 166.229 58.1577 166.813 56.941C167.446 55.7243 167.933 54.386 168.273 52.926C168.663 51.4173 168.784 49.933 168.638 48.473H169.733ZM181.486 45.699C184.552 47.0617 186.84 48.546 188.348 50.152C189.857 51.7093 190.757 53.218 191.049 54.678C191.341 56.138 191.22 57.379 190.684 58.401C190.149 59.423 189.37 60.0313 188.348 60.226C187.326 60.4207 186.256 60.0313 185.136 59.058C185.136 57.598 184.893 56.0893 184.406 54.532C183.968 52.9747 183.433 51.466 182.8 50.006C182.168 48.546 181.462 47.2563 180.683 46.137L181.486 45.699ZM175.354 47.378C177.836 49.4707 179.564 51.539 180.537 53.583C181.559 55.627 182.022 57.5007 181.924 59.204C181.827 60.8587 181.389 62.1727 180.61 63.146C179.832 64.168 178.883 64.679 177.763 64.679C176.644 64.7277 175.573 64.095 174.551 62.781C174.892 61.1263 175.087 59.3987 175.135 57.598C175.184 55.7973 175.135 54.0453 174.989 52.342C174.892 50.6387 174.697 49.0813 174.405 47.67L175.354 47.378ZM180.829 31.245C183.847 32.559 186.085 34.019 187.545 35.625C189.005 37.231 189.881 38.764 190.173 40.224C190.465 41.6353 190.344 42.852 189.808 43.874C189.273 44.8473 188.494 45.4313 187.472 45.626C186.499 45.772 185.477 45.3827 184.406 44.458C184.309 43.0467 184.017 41.5623 183.53 40.005C183.092 38.4477 182.557 36.939 181.924 35.479C181.292 34.019 180.635 32.7293 179.953 31.61L180.829 31.245ZM164.988 39.494C166.302 39.4453 168.103 39.3723 170.39 39.275C172.678 39.1777 175.257 39.0317 178.128 38.837C181.048 38.5937 184.017 38.3747 187.034 38.18L187.107 39.129C185.161 39.9563 182.411 41.0757 178.858 42.487C175.354 43.8983 171.51 45.3097 167.324 46.721L164.988 39.494ZM164.477 21.901C165.597 21.9497 167.081 21.9983 168.93 22.047C170.828 22.047 172.921 22.047 175.208 22.047C177.544 21.9983 179.88 21.9497 182.216 21.901L182.289 22.85C180.878 23.5313 178.81 24.456 176.084 25.624C173.408 26.792 170.488 27.96 167.324 29.128L164.477 21.901ZM281.788 54.386C281.545 54.7267 281.131 54.97 280.547 55.116C279.963 55.2133 279.282 55.116 278.503 54.824C275.291 58.1333 271.641 60.737 267.553 62.635C263.514 64.533 259.426 65.9443 255.289 66.869L254.778 65.847C257.99 64.1437 261.251 61.7347 264.56 58.62C267.918 55.5053 270.765 51.9527 273.101 47.962L281.788 54.386ZM296.023 49.714C300.744 50.152 304.662 50.9307 307.776 52.05C310.891 53.1693 313.3 54.459 315.003 55.919C316.707 57.3303 317.85 58.7417 318.434 60.153C319.018 61.5643 319.116 62.8053 318.726 63.876C318.386 64.9953 317.68 65.7983 316.609 66.285C315.587 66.7717 314.298 66.723 312.74 66.139C311.767 64.8737 310.599 63.511 309.236 62.051C307.874 60.591 306.389 59.1553 304.783 57.744C303.177 56.3327 301.571 54.9943 299.965 53.729C298.359 52.4637 296.851 51.3443 295.439 50.371L296.023 49.714ZM276.897 9.199C280.985 9.345 284.246 9.71 286.679 10.294C289.161 10.878 290.986 11.608 292.154 12.484C293.322 13.3113 293.979 14.163 294.125 15.039C294.271 15.915 294.052 16.7423 293.468 17.521C292.933 18.251 292.179 18.8107 291.205 19.2C290.232 19.5893 289.21 19.711 288.139 19.565C287.069 19.3703 286.095 18.8107 285.219 17.886C284.587 16.6207 283.565 15.2823 282.153 13.871C280.791 12.411 278.917 11.17 276.532 10.148L276.897 9.199ZM295.147 39.348C295.099 39.8347 294.88 40.2727 294.49 40.662C294.15 41.0027 293.468 41.246 292.446 41.392V67.307C292.446 67.5503 292.081 67.8423 291.351 68.183C290.67 68.5237 289.77 68.8157 288.65 69.059C287.531 69.3023 286.363 69.424 285.146 69.424H283.613V38.326L295.147 39.348ZM312.886 38.107C312.886 38.107 313.178 38.326 313.762 38.764C314.346 39.202 315.101 39.786 316.025 40.516C316.95 41.1973 317.899 41.9273 318.872 42.706C319.846 43.4847 320.746 44.239 321.573 44.969C321.379 45.7477 320.697 46.137 319.529 46.137H256.895L256.238 44.02H308.141L312.886 38.107ZM295.585 30.588C295.585 32.2913 295.342 33.6783 294.855 34.749C294.369 35.8197 293.347 36.647 291.789 37.231C290.281 37.815 287.92 38.2287 284.708 38.472C284.66 37.4987 284.538 36.6713 284.343 35.99C284.149 35.26 283.784 34.6517 283.248 34.165C282.762 33.7757 282.129 33.4107 281.35 33.07C280.572 32.6807 279.306 32.3643 277.554 32.121V31.172C277.554 31.172 277.871 31.1963 278.503 31.245C279.185 31.2937 279.988 31.3667 280.912 31.464C281.837 31.5127 282.713 31.5613 283.54 31.61C284.416 31.6587 285.049 31.683 285.438 31.683C286.022 31.683 286.387 31.5857 286.533 31.391C286.679 31.1477 286.752 30.8313 286.752 30.442V19.346H295.585V30.588ZM307.703 18.835L312.667 14.09L320.916 21.901C320.624 22.193 320.259 22.3877 319.821 22.485C319.383 22.5823 318.775 22.6797 317.996 22.777C316.78 23.653 315.295 24.5533 313.543 25.478C311.84 26.354 310.064 27.1813 308.214 27.96C306.414 28.69 304.71 29.3227 303.104 29.858L302.52 29.347C303.25 28.3737 304.005 27.2543 304.783 25.989C305.562 24.7237 306.292 23.4583 306.973 22.193C307.655 20.9277 308.19 19.8083 308.579 18.835H307.703ZM300.622 4.892L305.805 0.146996L314.127 7.958C313.787 8.25 313.397 8.469 312.959 8.615C312.521 8.71233 311.889 8.78533 311.061 8.834C309.358 9.61267 307.338 10.4157 305.002 11.243C302.666 12.0217 300.257 12.7517 297.775 13.433C295.342 14.1143 293.103 14.674 291.059 15.112L290.621 14.601C291.449 13.9683 292.373 13.2383 293.395 12.411C294.466 11.5837 295.488 10.732 296.461 9.856C297.483 8.93133 298.432 8.05533 299.308 7.228C300.233 6.352 300.963 5.57333 301.498 4.892H300.622ZM313.689 18.835V20.952H257.99L257.333 18.835H313.689ZM306.17 4.892V7.009H264.925L264.268 4.892H306.17ZM290.694 20.076C288.212 22.996 285.122 25.6483 281.423 28.033C277.773 30.369 273.71 32.4617 269.232 34.311C264.755 36.1117 260.01 37.6447 254.997 38.91L254.559 37.961C258.063 36.4037 261.397 34.603 264.56 32.559C267.772 30.4663 270.668 28.252 273.247 25.916C275.875 23.5313 278.065 21.1953 279.817 18.908H290.694V20.076ZM378.075 9.126L381.725 5.111L389.536 11.024C389.342 11.2673 388.977 11.535 388.441 11.827C387.906 12.119 387.298 12.338 386.616 12.484V30.661C386.616 30.8557 386.251 31.1233 385.521 31.464C384.791 31.756 383.915 32.0237 382.893 32.267C381.92 32.5103 380.971 32.632 380.046 32.632H378.805V9.126H378.075ZM374.936 2.118C374.888 2.65333 374.669 3.11566 374.279 3.505C373.939 3.84566 373.282 4.089 372.308 4.235V56.211C372.308 56.4543 371.968 56.7463 371.286 57.087C370.654 57.4277 369.826 57.744 368.804 58.036C367.831 58.2793 366.809 58.401 365.738 58.401H364.132V1.096L374.936 2.118ZM383.331 32.194C383.331 32.194 383.575 32.413 384.061 32.851C384.597 33.2403 385.254 33.7513 386.032 34.384C386.811 35.0167 387.614 35.698 388.441 36.428C389.317 37.158 390.12 37.8637 390.85 38.545C390.656 39.3237 389.999 39.713 388.879 39.713H352.598L352.014 37.596H379.243L383.331 32.194ZM385.594 41.465C385.594 41.465 385.886 41.684 386.47 42.122C387.054 42.56 387.784 43.144 388.66 43.874C389.536 44.5553 390.461 45.2853 391.434 46.064C392.408 46.794 393.284 47.524 394.062 48.254C393.965 48.6433 393.722 48.9353 393.332 49.13C392.992 49.3247 392.554 49.422 392.018 49.422H349.24L348.656 47.305H380.995L385.594 41.465ZM390.631 12.922C390.631 12.922 390.996 13.3113 391.726 14.09C392.456 14.82 393.308 15.696 394.281 16.718C395.255 17.6913 396.082 18.5917 396.763 19.419C396.569 20.1977 395.912 20.587 394.792 20.587H348.072L347.488 18.543H387.2L390.631 12.922ZM382.09 28.033V30.15H353.401L352.744 28.033H382.09ZM382.309 9.126V11.243H352.744L352.087 9.126H382.309ZM348.218 11.243C347.683 12.4597 347.002 13.9683 346.174 15.769C345.347 17.5697 344.447 19.492 343.473 21.536C342.5 23.58 341.551 25.551 340.626 27.449C339.75 29.2983 338.972 30.88 338.29 32.194H338.728L336.173 34.822L328.946 30.223C329.482 29.785 330.163 29.3713 330.99 28.982C331.866 28.544 332.645 28.252 333.326 28.106L330.625 30.369C331.355 29.1037 332.207 27.4977 333.18 25.551C334.154 23.6043 335.127 21.5847 336.1 19.492C337.074 17.3507 337.974 15.3067 338.801 13.36C339.629 11.4133 340.261 9.80733 340.699 8.542L348.218 11.243ZM339.823 8.542L343.473 4.819L350.773 11.389C350.335 11.8757 349.605 12.2163 348.583 12.411C347.61 12.6057 346.491 12.6787 345.225 12.63C344.009 12.5813 342.816 12.484 341.648 12.338L340.699 8.542H339.823ZM330.479 36.063C332.329 41.173 334.592 45.2853 337.268 48.4C339.994 51.466 343.254 53.802 347.05 55.408C350.846 57.014 355.324 58.109 360.482 58.693C365.69 59.2283 371.676 59.496 378.44 59.496C379.365 59.496 380.557 59.496 382.017 59.496C383.477 59.496 385.035 59.496 386.689 59.496C388.344 59.496 389.95 59.496 391.507 59.496C393.065 59.4473 394.427 59.423 395.595 59.423V60.299C393.941 60.6397 392.675 61.4913 391.799 62.854C390.972 64.168 390.51 65.6767 390.412 67.38C389.439 67.38 388.149 67.38 386.543 67.38C384.937 67.38 383.331 67.38 381.725 67.38C380.119 67.38 378.805 67.38 377.783 67.38C370.775 67.38 364.619 66.9663 359.314 66.139C354.058 65.3603 349.532 63.876 345.736 61.686C341.94 59.496 338.728 56.3813 336.1 52.342C333.521 48.3027 331.38 43.0223 329.676 36.501L330.479 36.063ZM342.524 30.077L346.466 25.916L353.766 32.121C353.377 32.7537 352.477 33.143 351.065 33.289C350.53 36.939 349.751 40.516 348.729 44.02C347.756 47.524 346.369 50.8577 344.568 54.021C342.768 57.1357 340.432 60.007 337.56 62.635C334.738 65.2143 331.234 67.5017 327.048 69.497L326.537 68.548C330.577 65.5307 333.74 62.0023 336.027 57.963C338.315 53.9237 339.994 49.5193 341.064 44.75C342.184 39.9807 342.914 35.0897 343.254 30.077H342.524ZM347.05 30.077V32.194H333.472L334.494 30.077H347.05ZM344.422 8.542V10.586H327.778L327.121 8.542H344.422ZM428.08 56.43C427.886 56.7707 427.569 57.014 427.131 57.16C426.742 57.306 426.158 57.2817 425.379 57.087C423.53 58.5957 421.316 60.0313 418.736 61.394C416.157 62.7567 413.334 63.9733 410.268 65.044C407.202 66.1633 404.063 67.0393 400.851 67.672L400.267 66.796C402.847 65.482 405.304 63.9003 407.64 62.051C410.025 60.2017 412.166 58.2793 414.064 56.284C416.011 54.24 417.544 52.3177 418.663 50.517L428.08 56.43ZM442.096 52.488C446.574 52.4393 450.297 52.8043 453.265 53.583C456.283 54.3617 458.643 55.3837 460.346 56.649C462.05 57.8657 463.193 59.1553 463.777 60.518C464.41 61.8807 464.556 63.1217 464.215 64.241C463.923 65.3603 463.266 66.1633 462.244 66.65C461.222 67.1853 459.933 67.234 458.375 66.796C457.499 65.628 456.404 64.387 455.09 63.073C453.825 61.8077 452.414 60.5667 450.856 59.35C449.299 58.0847 447.717 56.941 446.111 55.919C444.554 54.8483 443.045 53.948 441.585 53.218L442.096 52.488ZM445.016 26.208C445.016 27.4247 444.797 28.7873 444.359 30.296C443.97 31.756 443.118 33.2403 441.804 34.749C440.539 36.2577 438.592 37.669 435.964 38.983C433.385 40.297 429.905 41.4163 425.525 42.341L425.014 41.465C428.664 39.9563 431.39 38.326 433.19 36.574C434.991 34.822 436.159 33.07 436.694 31.318C437.278 29.5173 437.57 27.814 437.57 26.208V21.828H445.016V26.208ZM456.696 21.025V23.142H432.241L431.584 21.025H456.696ZM451.367 21.025L454.798 17.302L461.222 22.704C460.784 23.1907 460.006 23.5313 458.886 23.726V32.997C458.886 33.3377 458.935 33.581 459.032 33.727C459.13 33.8243 459.349 33.873 459.689 33.873H461.076C461.368 33.873 461.612 33.873 461.806 33.873C462.001 33.873 462.171 33.873 462.317 33.873C462.512 33.873 462.707 33.8487 462.901 33.8C463.096 33.7513 463.266 33.6297 463.412 33.435C463.656 33.0943 463.972 32.4617 464.361 31.537C464.751 30.5637 465.116 29.493 465.456 28.325H466.332L466.551 33.508C467.379 33.8487 467.914 34.238 468.157 34.676C468.401 35.114 468.522 35.6493 468.522 36.282C468.522 37.596 467.865 38.6423 466.551 39.421C465.286 40.151 463.193 40.516 460.273 40.516H457.353C455.796 40.516 454.628 40.3457 453.849 40.005C453.071 39.6643 452.56 39.0803 452.316 38.253C452.122 37.377 452.024 36.2333 452.024 34.822V21.025H451.367ZM430.708 28.617C434.261 28.325 437.254 28.3737 439.687 28.763C442.169 29.1523 444.14 29.785 445.6 30.661C447.109 31.4883 448.18 32.413 448.812 33.435C449.494 34.4083 449.786 35.3573 449.688 36.282C449.64 37.158 449.275 37.8393 448.593 38.326C447.912 38.8127 446.987 38.983 445.819 38.837C444.749 37.669 443.313 36.501 441.512 35.333C439.76 34.1163 437.862 32.997 435.818 31.975C433.823 30.9043 431.949 30.077 430.197 29.493L430.708 28.617ZM441.512 42.779C441.464 43.2657 441.245 43.7037 440.855 44.093C440.515 44.4337 439.833 44.6527 438.811 44.75V67.307C438.811 67.5017 438.422 67.7693 437.643 68.11C436.913 68.4507 435.989 68.7427 434.869 68.986C433.75 69.2293 432.582 69.351 431.365 69.351H429.759V41.684L441.512 42.779ZM459.47 41.392C459.47 41.392 459.762 41.6353 460.346 42.122C460.93 42.6087 461.66 43.217 462.536 43.947C463.412 44.6283 464.337 45.407 465.31 46.283C466.332 47.1103 467.233 47.889 468.011 48.619C467.817 49.3977 467.135 49.787 465.967 49.787H403.187L402.603 47.67H454.798L459.47 41.392ZM403.187 37.085C404.891 36.9877 407.227 36.7687 410.195 36.428C413.213 36.0873 416.595 35.698 420.342 35.26C424.138 34.7733 428.032 34.2623 432.022 33.727L432.168 34.749C429.589 35.8683 426.377 37.1823 422.532 38.691C418.736 40.151 414.162 41.83 408.808 43.728C408.37 44.7013 407.713 45.2853 406.837 45.48L403.187 37.085ZM421.291 21.536V36.647L413.553 38.545V21.536H421.291ZM424.649 16.864C424.649 16.864 425.014 17.156 425.744 17.74C426.474 18.324 427.35 19.054 428.372 19.93C429.443 20.7573 430.392 21.5603 431.219 22.339C431.025 23.1177 430.368 23.507 429.248 23.507H405.377L404.793 21.463H420.999L424.649 16.864ZM460.127 2.775C460.127 2.775 460.541 3.11566 461.368 3.797C462.196 4.42966 463.193 5.20833 464.361 6.133C465.529 7.05766 466.576 7.958 467.5 8.834C467.306 9.61267 466.649 10.002 465.529 10.002H440.855V7.885H456.112L460.127 2.775ZM429.54 2.994C429.54 2.994 429.93 3.31033 430.708 3.943C431.487 4.57566 432.387 5.35433 433.409 6.279C434.431 7.155 435.356 8.00666 436.183 8.834C435.989 9.61267 435.356 10.002 434.285 10.002H413.845V7.885H425.89L429.54 2.994ZM445.965 11.535C448.399 11.4377 450.272 11.6323 451.586 12.119C452.949 12.6057 453.874 13.214 454.36 13.944C454.847 14.6253 454.993 15.331 454.798 16.061C454.652 16.791 454.239 17.4237 453.557 17.959C452.925 18.4457 452.146 18.7133 451.221 18.762C450.345 18.8107 449.421 18.47 448.447 17.74C448.35 16.6693 447.985 15.5987 447.352 14.528C446.768 13.4087 446.111 12.557 445.381 11.973L445.965 11.535ZM449.98 4.162C449.786 4.6 449.445 4.965 448.958 5.257C448.52 5.50033 447.888 5.59766 447.06 5.549C445.162 8.615 442.972 11.316 440.49 13.652C438.057 15.9393 435.478 17.7887 432.752 19.2L431.876 18.616C433.336 16.3773 434.723 13.652 436.037 10.44C437.4 7.17933 438.471 3.82133 439.249 0.365997L449.98 4.162ZM417.787 11.243C420.221 10.9997 422.143 11.0727 423.554 11.462C424.966 11.8513 425.963 12.411 426.547 13.141C427.131 13.871 427.399 14.6253 427.35 15.404C427.302 16.1827 427.01 16.8883 426.474 17.521C425.939 18.105 425.233 18.47 424.357 18.616C423.481 18.762 422.532 18.5673 421.51 18.032C421.218 16.8153 420.634 15.623 419.758 14.455C418.931 13.287 418.079 12.3867 417.203 11.754L417.787 11.243ZM422.021 4.089C421.875 4.527 421.559 4.892 421.072 5.184C420.586 5.42733 419.929 5.52466 419.101 5.476C416.717 9.17466 413.967 12.265 410.852 14.747C407.738 17.229 404.55 19.1757 401.289 20.587L400.559 19.857C402.603 17.667 404.574 14.8443 406.472 11.389C408.419 7.93366 409.952 4.25933 411.071 0.365997L422.021 4.089Z" fill="#7D272B"/>
</svg>
