<svg width="281" height="59" viewBox="0 0 281 59" fill="none" xmlns="http://www.w3.org/2000/svg">
<path d="M0 1.25977H22.43C25.4 1.25977 28.12 1.58977 30.6 2.24977C33.08 2.90977 35.21 3.83977 36.98 5.03977C38.76 6.23977 40.13 7.68976 41.12 9.35977C42.1 11.0398 42.59 12.8898 42.59 14.8998C42.59 16.4398 42.43 17.8098 42.13 19.0198C41.83 20.2298 41.28 21.3398 40.49 22.3598C39.7 23.3798 38.66 24.3498 37.36 25.2598C36.06 26.1698 34.41 27.0998 32.43 28.0498V28.2198C34.42 28.5298 36.21 29.0598 37.8 29.8198C39.4 30.5698 40.76 31.5398 41.9 32.6998C43.03 33.8598 43.91 35.2198 44.53 36.7698C45.15 38.3198 45.45 40.0298 45.45 41.8698C45.45 43.9698 45 45.9398 44.09 47.7698C43.18 49.5998 41.88 51.1998 40.18 52.5598C38.48 53.9198 36.44 54.9898 34.05 55.7698C31.66 56.5598 28.97 56.9498 26 56.9498H0V1.25977ZM9.37 26.3298H21.3C23.18 26.3298 24.84 26.0598 26.3 25.5298C27.75 24.9998 28.99 24.2598 30 23.3298C31.01 22.3898 31.77 21.2698 32.29 19.9698C32.81 18.6698 33.07 17.2598 33.07 15.7498C33.07 14.1298 32.76 12.6498 32.15 11.3198C31.53 9.98977 30.58 8.84977 29.27 7.89977C27.97 6.94977 26.32 6.21977 24.32 5.71977C22.32 5.21977 19.92 4.95977 17.12 4.95977H9.39V26.3398L9.37 26.3298ZM9.37 52.8798H19.49C22.2 52.8798 24.56 52.6198 26.57 52.0998C28.57 51.5798 30.23 50.8498 31.53 49.9198C32.83 48.9898 33.8 47.8598 34.43 46.5398C35.06 45.2198 35.37 43.7798 35.37 42.2098C35.37 40.4498 35.09 38.8098 34.53 37.2998C33.97 35.7898 33.05 34.4798 31.78 33.3698C30.5 32.2598 28.84 31.3898 26.78 30.7398C24.72 30.0998 22.2 29.7698 19.2 29.7698H9.37V52.8698V52.8798Z" fill="#EEDBD4"/>
<path d="M56.87 1.25977H76.19C79.52 1.25977 82.45 1.61977 84.97 2.32977C87.49 3.04977 89.59 4.04977 91.27 5.32977C92.95 6.60977 94.22 8.14977 95.07 9.92977C95.92 11.7098 96.35 13.6498 96.35 15.7498C96.35 17.4898 96.02 19.1098 95.37 20.6198C94.71 22.1298 93.79 23.4998 92.6 24.7098C91.41 25.9298 89.97 26.9798 88.29 27.8598C86.61 28.7398 84.76 29.4298 82.75 29.9398L103.03 56.9498H92.15L72.79 30.7898H66.24V56.9498H56.88V1.25977H56.87ZM66.23 27.9698H71.65C73.75 27.9698 75.69 27.6898 77.47 27.1298C79.25 26.5698 80.79 25.7798 82.09 24.7598C83.39 23.7398 84.41 22.4998 85.14 21.0398C85.87 19.5798 86.23 17.9498 86.23 16.1298C86.23 14.4498 85.94 12.9098 85.37 11.5098C84.8 10.1098 83.99 8.90977 82.93 7.91977C81.88 6.92977 80.63 6.14977 79.19 5.58977C77.75 5.02977 76.17 4.74977 74.47 4.74977H66.24V27.9798L66.23 27.9698Z" fill="#EEDBD4"/>
<path d="M132.42 0L158.63 56.95H149.1L140.62 38.39H116.72L107.94 56.95H103.24L130.06 0H132.41H132.42ZM118.35 34.77H138.88L128.76 12.72L118.35 34.77Z" fill="#EEDBD4"/>
<path d="M166.35 1.25977H171.6L208.1 41.9998H208.52V1.25977H212.64V58.2498H210.46L170.94 12.9798H170.6V56.9498H166.36V1.25977H166.35Z" fill="#EEDBD4"/>
<path d="M227.75 1.25977H246.31C252.02 1.25977 256.94 1.78977 261.05 2.85977C265.17 3.92977 268.59 5.62977 271.34 7.97977C274.48 10.6698 276.83 13.7498 278.42 17.2198C280 20.6898 280.79 24.4898 280.79 28.5998C280.79 32.7098 280.08 36.1998 278.67 39.6398C277.26 43.0798 275.18 46.0798 272.46 48.6498C269.74 51.2198 266.35 53.2398 262.34 54.7198C258.32 56.1998 253.72 56.9498 248.54 56.9498H227.75V1.25977ZM237.12 52.8798H247.07C250.2 52.8798 253.16 52.3598 255.93 51.3298C258.7 50.2998 261.12 48.7498 263.17 46.7098C265.23 44.6698 266.85 42.1498 268.04 39.1698C269.23 36.1898 269.82 32.7398 269.82 28.8198C269.82 25.3798 269.26 22.2198 268.14 19.3498C267.02 16.4798 265.45 14.0098 263.44 11.9398C261.43 9.86977 259.02 8.25977 256.24 7.10977C253.45 5.95977 250.41 5.38977 247.11 5.38977H237.11V52.8898L237.12 52.8798Z" fill="#EEDBD4"/>
</svg>
