<svg width="331" height="320" viewBox="0 0 331 320" fill="none" xmlns="http://www.w3.org/2000/svg">
<rect width="331" height="320" fill="#7D272B"/>
<path d="M68.75 152.875V146.75L84.125 152.875H126.875V156.375H83.5V195C83.5 195.417 82.875 196 81.625 196.75C80.375 197.5 78.7917 198.167 76.875 198.75C74.9583 199.333 72.9583 199.625 70.875 199.625H68.75V152.875ZM119.5 152.875H118.25L125.125 145.375L139.375 156.125C139.042 156.625 138.417 157.167 137.5 157.75C136.583 158.25 135.5 158.625 134.25 158.875V194.5C134.25 194.833 133.542 195.333 132.125 196C130.792 196.667 129.167 197.25 127.25 197.75C125.417 198.25 123.667 198.5 122 198.5H119.5V152.875ZM76.5 184.875H127.25V188.5H76.5V184.875ZM49.25 207.375V201.5L63.875 207.375H89.25V210.875H63.25V255.5C63.25 255.833 62.6667 256.375 61.5 257.125C60.4167 257.875 58.9583 258.542 57.125 259.125C55.2917 259.708 53.375 260 51.375 260H49.25V207.375ZM81.375 207.375H80.125L86.875 200.125L100.625 210.625C100.292 211.125 99.6667 211.625 98.75 212.125C97.9167 212.625 96.875 213 95.625 213.25V253.625C95.625 253.958 94.9583 254.458 93.625 255.125C92.2917 255.792 90.7083 256.375 88.875 256.875C87.125 257.458 85.4167 257.75 83.75 257.75H81.375V207.375ZM54.375 243.875H87.875V247.375H54.375V243.875ZM106.75 207.375V201.5L121.5 207.375H148.5V210.875H120.875V255.625C120.875 256.042 120.292 256.583 119.125 257.25C117.958 258 116.458 258.667 114.625 259.25C112.792 259.833 110.875 260.125 108.875 260.125H106.75V207.375ZM139.875 207.375H138.625L145.375 200L159.5 210.625C159.167 211.125 158.542 211.625 157.625 212.125C156.708 212.625 155.625 213.042 154.375 213.375V254.875C154.375 255.125 153.667 255.542 152.25 256.125C150.917 256.708 149.333 257.208 147.5 257.625C145.667 258.125 143.917 258.375 142.25 258.375H139.875V207.375ZM111.25 243.875H146.375V247.375H111.25V243.875ZM259.25 147.75C259 148.75 258.458 149.5 257.625 150C256.792 150.5 255.708 150.792 254.375 150.875C253.125 151.875 251.667 153 250 154.25C248.333 155.5 246.667 156.75 245 158C243.333 159.25 241.833 160.375 240.5 161.375H235.5C235.917 159.125 236.375 156.292 236.875 152.875C237.375 149.375 237.75 146.333 238 143.75L259.25 147.75ZM230.25 206.625C230.25 207.042 229.667 207.583 228.5 208.25C227.417 208.917 226 209.542 224.25 210.125C222.583 210.708 220.792 211 218.875 211H216.875V159.875V154.125L231 159.875H271V163.375H230.25V206.625ZM254.25 182C254.25 185.917 253.833 189.917 253 194C252.25 198 250.583 201.917 248 205.75C245.5 209.5 241.667 213.042 236.5 216.375C231.417 219.708 224.583 222.583 216 225L215 223.5C220.75 220.667 225.333 217.667 228.75 214.5C232.25 211.25 234.917 207.875 236.75 204.375C238.583 200.875 239.833 197.25 240.5 193.5C241.167 189.75 241.5 185.958 241.5 182.125V160.625H254.25V182ZM263.375 208.75C263.292 209.583 262.917 210.292 262.25 210.875C261.667 211.458 260.583 211.833 259 212V258C259 258.333 258.417 258.75 257.25 259.25C256.083 259.833 254.625 260.333 252.875 260.75C251.208 261.25 249.5 261.5 247.75 261.5H245.25V207.125L263.375 208.75ZM264.375 159.875L270.75 153L283.875 163C283.542 163.417 282.958 163.875 282.125 164.375C281.292 164.792 280.292 165.125 279.125 165.375V203.875C279.125 204.208 278.5 204.667 277.25 205.25C276 205.833 274.5 206.375 272.75 206.875C271.083 207.375 269.5 207.625 268 207.625H265.625V159.875H264.375ZM271.125 199.625V203.125H225.125V199.625H271.125ZM271 179.375V183H225.125V179.375H271ZM273.25 216.125C273.25 216.125 273.708 216.542 274.625 217.375C275.542 218.208 276.708 219.25 278.125 220.5C279.542 221.75 281 223.125 282.5 224.625C284.083 226.042 285.5 227.375 286.75 228.625C286.417 229.958 285.25 230.625 283.25 230.625H212.5L211.5 227.125H265.625L273.25 216.125ZM195.625 206.75L201.875 200L214.625 209.875C214.292 210.375 213.667 210.875 212.75 211.375C211.833 211.875 210.75 212.25 209.5 212.5V255.125C209.5 255.458 208.917 256 207.75 256.75C206.667 257.5 205.333 258.125 203.75 258.625C202.167 259.208 200.583 259.5 199 259.5H196.875V206.75H195.625ZM204.875 206.75V210.375H181.25V206.75H204.875ZM205.625 176.5C205.625 176.5 206.125 177.042 207.125 178.125C208.125 179.125 209.25 180.333 210.5 181.75C211.75 183.167 212.833 184.5 213.75 185.75C213.417 187.083 212.417 187.75 210.75 187.75H181.625V184.25H201.125L205.625 176.5ZM212.25 147.375C212.167 148.208 211.833 148.917 211.25 149.5C210.667 150 209.625 150.375 208.125 150.625V186.25H195.875V145.875L212.25 147.375ZM190.625 148.75C190.542 149.583 190.167 150.333 189.5 151C188.917 151.583 187.833 152 186.25 152.25V206C186.25 213.417 185.708 220.417 184.625 227C183.542 233.583 181.708 239.708 179.125 245.375C176.625 251.042 173.125 256.208 168.625 260.875L167 260C170.083 252.333 172.042 244.083 172.875 235.25C173.792 226.333 174.25 216.583 174.25 206V147.125L190.625 148.75Z" fill="white"/>
<path d="M291.87 285.24C299.806 285.24 306.24 278.806 306.24 270.87C306.24 262.934 299.806 256.5 291.87 256.5C283.934 256.5 277.5 262.934 277.5 270.87C277.5 278.806 283.934 285.24 291.87 285.24Z" stroke="white" stroke-miterlimit="10"/>
</svg>
