<svg width="136" height="79" viewBox="0 0 136 79" fill="none" xmlns="http://www.w3.org/2000/svg">
<rect width="136" height="79" fill="#7D272B"/>
<path d="M38.71 23.035V20.83L44.245 23.035H59.635V24.295H44.02V38.2C44.02 38.35 43.795 38.56 43.345 38.83C42.895 39.1 42.325 39.34 41.635 39.55C40.945 39.76 40.225 39.865 39.475 39.865H38.71V23.035ZM56.98 23.035H56.53L59.005 20.335L64.135 24.205C64.015 24.385 63.79 24.58 63.46 24.79C63.13 24.97 62.74 25.105 62.29 25.195V38.02C62.29 38.14 62.035 38.32 61.525 38.56C61.045 38.8 60.46 39.01 59.77 39.19C59.11 39.37 58.48 39.46 57.88 39.46H56.98V23.035ZM41.5 34.555H59.77V35.86H41.5V34.555ZM31.69 42.655V40.54L36.955 42.655H46.09V43.915H36.73V59.98C36.73 60.1 36.52 60.295 36.1 60.565C35.71 60.835 35.185 61.075 34.525 61.285C33.865 61.495 33.175 61.6 32.455 61.6H31.69V42.655ZM43.255 42.655H42.805L45.235 40.045L50.185 43.825C50.065 44.005 49.84 44.185 49.51 44.365C49.21 44.545 48.835 44.68 48.385 44.77V59.305C48.385 59.425 48.145 59.605 47.665 59.845C47.185 60.085 46.615 60.295 45.955 60.475C45.325 60.685 44.71 60.79 44.11 60.79H43.255V42.655ZM33.535 55.795H45.595V57.055H33.535V55.795ZM52.39 42.655V40.54L57.7 42.655H67.42V43.915H57.475V60.025C57.475 60.175 57.265 60.37 56.845 60.61C56.425 60.88 55.885 61.12 55.225 61.33C54.565 61.54 53.875 61.645 53.155 61.645H52.39V42.655ZM64.315 42.655H63.865L66.295 40L71.38 43.825C71.26 44.005 71.035 44.185 70.705 44.365C70.375 44.545 69.985 44.695 69.535 44.815V59.755C69.535 59.845 69.28 59.995 68.77 60.205C68.29 60.415 67.72 60.595 67.06 60.745C66.4 60.925 65.77 61.015 65.17 61.015H64.315V42.655ZM54.01 55.795H66.655V57.055H54.01V55.795ZM107.29 21.19C107.2 21.55 107.005 21.82 106.705 22C106.405 22.18 106.015 22.285 105.535 22.315C105.085 22.675 104.56 23.08 103.96 23.53C103.36 23.98 102.76 24.43 102.16 24.88C101.56 25.33 101.02 25.735 100.54 26.095H98.74C98.89 25.285 99.055 24.265 99.235 23.035C99.415 21.775 99.55 20.68 99.64 19.75L107.29 21.19ZM96.85 42.385C96.85 42.535 96.64 42.73 96.22 42.97C95.83 43.21 95.32 43.435 94.69 43.645C94.09 43.855 93.445 43.96 92.755 43.96H92.035V25.555V23.485L97.12 25.555H111.52V26.815H96.85V42.385ZM105.49 33.52C105.49 34.93 105.34 36.37 105.04 37.84C104.77 39.28 104.17 40.69 103.24 42.07C102.34 43.42 100.96 44.695 99.1 45.895C97.27 47.095 94.81 48.13 91.72 49L91.36 48.46C93.43 47.44 95.08 46.36 96.31 45.22C97.57 44.05 98.53 42.835 99.19 41.575C99.85 40.315 100.3 39.01 100.54 37.66C100.78 36.31 100.9 34.945 100.9 33.565V25.825H105.49V33.52ZM108.775 43.15C108.745 43.45 108.61 43.705 108.37 43.915C108.16 44.125 107.77 44.26 107.2 44.32V60.88C107.2 61 106.99 61.15 106.57 61.33C106.15 61.54 105.625 61.72 104.995 61.87C104.395 62.05 103.78 62.14 103.15 62.14H102.25V42.565L108.775 43.15ZM109.135 25.555L111.43 23.08L116.155 26.68C116.035 26.83 115.825 26.995 115.525 27.175C115.225 27.325 114.865 27.445 114.445 27.535V41.395C114.445 41.515 114.22 41.68 113.77 41.89C113.32 42.1 112.78 42.295 112.15 42.475C111.55 42.655 110.98 42.745 110.44 42.745H109.585V25.555H109.135ZM111.565 39.865V41.125H95.005V39.865H111.565ZM111.52 32.575V33.88H95.005V32.575H111.52ZM112.33 45.805C112.33 45.805 112.495 45.955 112.825 46.255C113.155 46.555 113.575 46.93 114.085 47.38C114.595 47.83 115.12 48.325 115.66 48.865C116.23 49.375 116.74 49.855 117.19 50.305C117.07 50.785 116.65 51.025 115.93 51.025H90.46L90.1 49.765H109.585L112.33 45.805ZM84.385 42.43L86.635 40L91.225 43.555C91.105 43.735 90.88 43.915 90.55 44.095C90.22 44.275 89.83 44.41 89.38 44.5V59.845C89.38 59.965 89.17 60.16 88.75 60.43C88.36 60.7 87.88 60.925 87.31 61.105C86.74 61.315 86.17 61.42 85.6 61.42H84.835V42.43H84.385ZM87.715 42.43V43.735H79.21V42.43H87.715ZM87.985 31.54C87.985 31.54 88.165 31.735 88.525 32.125C88.885 32.485 89.29 32.92 89.74 33.43C90.19 33.94 90.58 34.42 90.91 34.87C90.79 35.35 90.43 35.59 89.83 35.59H79.345V34.33H86.365L87.985 31.54ZM90.37 21.055C90.34 21.355 90.22 21.61 90.01 21.82C89.8 22 89.425 22.135 88.885 22.225V35.05H84.475V20.515L90.37 21.055ZM82.585 21.55C82.555 21.85 82.42 22.12 82.18 22.36C81.97 22.57 81.58 22.72 81.01 22.81V42.16C81.01 44.83 80.815 47.35 80.425 49.72C80.035 52.09 79.375 54.295 78.445 56.335C77.545 58.375 76.285 60.235 74.665 61.915L74.08 61.6C75.19 58.84 75.895 55.87 76.195 52.69C76.525 49.48 76.69 45.97 76.69 42.16V20.965L82.585 21.55Z" fill="white"/>
<path d="M122.5 65C124.985 65 127 62.9853 127 60.5C127 58.0147 124.985 56 122.5 56C120.015 56 118 58.0147 118 60.5C118 62.9853 120.015 65 122.5 65Z" stroke="white" stroke-miterlimit="10"/>
</svg>
